<?xml version="1.0" encoding="utf-8" standalone="no"?>
<!DOCTYPE svg PUBLIC "-//W3C//DTD SVG 1.1//EN"
  "http://www.w3.org/Graphics/SVG/1.1/DTD/svg11.dtd">
<svg xmlns:xlink="http://www.w3.org/1999/xlink" width="460.8pt" height="345.6pt" viewBox="0 0 460.8 345.6" xmlns="http://www.w3.org/2000/svg" version="1.1">
 <metadata>
  <rdf:RDF xmlns:dc="http://purl.org/dc/elements/1.1/" xmlns:cc="http://creativecommons.org/ns#" xmlns:rdf="http://www.w3.org/1999/02/22-rdf-syntax-ns#">
   <cc:Work>
    <dc:type rdf:resource="http://purl.org/dc/dcmitype/StillImage"/>
    <dc:date>2022-12-08T23:55:21.516361</dc:date>
    <dc:format>image/svg+xml</dc:format>
    <dc:creator>
     <cc:Agent>
      <dc:title>Matplotlib v3.5.3, https://matplotlib.org/</dc:title>
     </cc:Agent>
    </dc:creator>
   </cc:Work>
  </rdf:RDF>
 </metadata>
 <defs>
  <style type="text/css">*{stroke-linejoin: round; stroke-linecap: butt}</style>
 </defs>
 <g id="figure_1">
  <g id="patch_1">
   <path d="M 0 345.6 
L 460.8 345.6 
L 460.8 0 
L 0 0 
z
" style="fill: #ffffff"/>
  </g>
  <g id="axes_1">
   <g id="patch_2">
    <path d="M 57.6 307.584 
L 414.72 307.584 
L 414.72 41.472 
L 57.6 41.472 
z
" style="fill: #ffffff"/>
   </g>
   <g id="matplotlib.axis_1">
    <g id="xtick_1">
     <g id="line2d_1">
      <path d="M 73.832727 307.584 
L 73.832727 41.472 
" clip-path="url(#p44aff9046a)" style="fill: none; stroke: #b0b0b0; stroke-width: 0.8; stroke-linecap: square"/>
     </g>
     <g id="line2d_2">
      <defs>
       <path id="m4bf0c89f60" d="M 0 0 
L 0 3.5 
" style="stroke: #000000; stroke-width: 0.8"/>
      </defs>
      <g>
       <use xlink:href="#m4bf0c89f60" x="73.832727" y="307.584" style="stroke: #000000; stroke-width: 0.8"/>
      </g>
     </g>
     <g id="text_1">
      <!-- 0 -->
      <g transform="translate(70.651477 322.182437)scale(0.1 -0.1)">
       <defs>
        <path id="DejaVuSans-30" d="M 2034 4250 
Q 1547 4250 1301 3770 
Q 1056 3291 1056 2328 
Q 1056 1369 1301 889 
Q 1547 409 2034 409 
Q 2525 409 2770 889 
Q 3016 1369 3016 2328 
Q 3016 3291 2770 3770 
Q 2525 4250 2034 4250 
z
M 2034 4750 
Q 2819 4750 3233 4129 
Q 3647 3509 3647 2328 
Q 3647 1150 3233 529 
Q 2819 -91 2034 -91 
Q 1250 -91 836 529 
Q 422 1150 422 2328 
Q 422 3509 836 4129 
Q 1250 4750 2034 4750 
z
" transform="scale(0.015625)"/>
       </defs>
       <use xlink:href="#DejaVuSans-30"/>
      </g>
     </g>
    </g>
    <g id="xtick_2">
     <g id="line2d_3">
      <path d="M 138.893758 307.584 
L 138.893758 41.472 
" clip-path="url(#p44aff9046a)" style="fill: none; stroke: #b0b0b0; stroke-width: 0.8; stroke-linecap: square"/>
     </g>
     <g id="line2d_4">
      <g>
       <use xlink:href="#m4bf0c89f60" x="138.893758" y="307.584" style="stroke: #000000; stroke-width: 0.8"/>
      </g>
     </g>
     <g id="text_2">
      <!-- 100 -->
      <g transform="translate(129.350008 322.182437)scale(0.1 -0.1)">
       <defs>
        <path id="DejaVuSans-31" d="M 794 531 
L 1825 531 
L 1825 4091 
L 703 3866 
L 703 4441 
L 1819 4666 
L 2450 4666 
L 2450 531 
L 3481 531 
L 3481 0 
L 794 0 
L 794 531 
z
" transform="scale(0.015625)"/>
       </defs>
       <use xlink:href="#DejaVuSans-31"/>
       <use xlink:href="#DejaVuSans-30" x="63.623047"/>
       <use xlink:href="#DejaVuSans-30" x="127.246094"/>
      </g>
     </g>
    </g>
    <g id="xtick_3">
     <g id="line2d_5">
      <path d="M 203.95479 307.584 
L 203.95479 41.472 
" clip-path="url(#p44aff9046a)" style="fill: none; stroke: #b0b0b0; stroke-width: 0.8; stroke-linecap: square"/>
     </g>
     <g id="line2d_6">
      <g>
       <use xlink:href="#m4bf0c89f60" x="203.95479" y="307.584" style="stroke: #000000; stroke-width: 0.8"/>
      </g>
     </g>
     <g id="text_3">
      <!-- 200 -->
      <g transform="translate(194.41104 322.182437)scale(0.1 -0.1)">
       <defs>
        <path id="DejaVuSans-32" d="M 1228 531 
L 3431 531 
L 3431 0 
L 469 0 
L 469 531 
Q 828 903 1448 1529 
Q 2069 2156 2228 2338 
Q 2531 2678 2651 2914 
Q 2772 3150 2772 3378 
Q 2772 3750 2511 3984 
Q 2250 4219 1831 4219 
Q 1534 4219 1204 4116 
Q 875 4013 500 3803 
L 500 4441 
Q 881 4594 1212 4672 
Q 1544 4750 1819 4750 
Q 2544 4750 2975 4387 
Q 3406 4025 3406 3419 
Q 3406 3131 3298 2873 
Q 3191 2616 2906 2266 
Q 2828 2175 2409 1742 
Q 1991 1309 1228 531 
z
" transform="scale(0.015625)"/>
       </defs>
       <use xlink:href="#DejaVuSans-32"/>
       <use xlink:href="#DejaVuSans-30" x="63.623047"/>
       <use xlink:href="#DejaVuSans-30" x="127.246094"/>
      </g>
     </g>
    </g>
    <g id="xtick_4">
     <g id="line2d_7">
      <path d="M 269.015821 307.584 
L 269.015821 41.472 
" clip-path="url(#p44aff9046a)" style="fill: none; stroke: #b0b0b0; stroke-width: 0.8; stroke-linecap: square"/>
     </g>
     <g id="line2d_8">
      <g>
       <use xlink:href="#m4bf0c89f60" x="269.015821" y="307.584" style="stroke: #000000; stroke-width: 0.8"/>
      </g>
     </g>
     <g id="text_4">
      <!-- 300 -->
      <g transform="translate(259.472071 322.182437)scale(0.1 -0.1)">
       <defs>
        <path id="DejaVuSans-33" d="M 2597 2516 
Q 3050 2419 3304 2112 
Q 3559 1806 3559 1356 
Q 3559 666 3084 287 
Q 2609 -91 1734 -91 
Q 1441 -91 1130 -33 
Q 819 25 488 141 
L 488 750 
Q 750 597 1062 519 
Q 1375 441 1716 441 
Q 2309 441 2620 675 
Q 2931 909 2931 1356 
Q 2931 1769 2642 2001 
Q 2353 2234 1838 2234 
L 1294 2234 
L 1294 2753 
L 1863 2753 
Q 2328 2753 2575 2939 
Q 2822 3125 2822 3475 
Q 2822 3834 2567 4026 
Q 2313 4219 1838 4219 
Q 1578 4219 1281 4162 
Q 984 4106 628 3988 
L 628 4550 
Q 988 4650 1302 4700 
Q 1616 4750 1894 4750 
Q 2613 4750 3031 4423 
Q 3450 4097 3450 3541 
Q 3450 3153 3228 2886 
Q 3006 2619 2597 2516 
z
" transform="scale(0.015625)"/>
       </defs>
       <use xlink:href="#DejaVuSans-33"/>
       <use xlink:href="#DejaVuSans-30" x="63.623047"/>
       <use xlink:href="#DejaVuSans-30" x="127.246094"/>
      </g>
     </g>
    </g>
    <g id="xtick_5">
     <g id="line2d_9">
      <path d="M 334.076852 307.584 
L 334.076852 41.472 
" clip-path="url(#p44aff9046a)" style="fill: none; stroke: #b0b0b0; stroke-width: 0.8; stroke-linecap: square"/>
     </g>
     <g id="line2d_10">
      <g>
       <use xlink:href="#m4bf0c89f60" x="334.076852" y="307.584" style="stroke: #000000; stroke-width: 0.8"/>
      </g>
     </g>
     <g id="text_5">
      <!-- 400 -->
      <g transform="translate(324.533102 322.182437)scale(0.1 -0.1)">
       <defs>
        <path id="DejaVuSans-34" d="M 2419 4116 
L 825 1625 
L 2419 1625 
L 2419 4116 
z
M 2253 4666 
L 3047 4666 
L 3047 1625 
L 3713 1625 
L 3713 1100 
L 3047 1100 
L 3047 0 
L 2419 0 
L 2419 1100 
L 313 1100 
L 313 1709 
L 2253 4666 
z
" transform="scale(0.015625)"/>
       </defs>
       <use xlink:href="#DejaVuSans-34"/>
       <use xlink:href="#DejaVuSans-30" x="63.623047"/>
       <use xlink:href="#DejaVuSans-30" x="127.246094"/>
      </g>
     </g>
    </g>
    <g id="xtick_6">
     <g id="line2d_11">
      <path d="M 399.137883 307.584 
L 399.137883 41.472 
" clip-path="url(#p44aff9046a)" style="fill: none; stroke: #b0b0b0; stroke-width: 0.8; stroke-linecap: square"/>
     </g>
     <g id="line2d_12">
      <g>
       <use xlink:href="#m4bf0c89f60" x="399.137883" y="307.584" style="stroke: #000000; stroke-width: 0.8"/>
      </g>
     </g>
     <g id="text_6">
      <!-- 500 -->
      <g transform="translate(389.594133 322.182437)scale(0.1 -0.1)">
       <defs>
        <path id="DejaVuSans-35" d="M 691 4666 
L 3169 4666 
L 3169 4134 
L 1269 4134 
L 1269 2991 
Q 1406 3038 1543 3061 
Q 1681 3084 1819 3084 
Q 2600 3084 3056 2656 
Q 3513 2228 3513 1497 
Q 3513 744 3044 326 
Q 2575 -91 1722 -91 
Q 1428 -91 1123 -41 
Q 819 9 494 109 
L 494 744 
Q 775 591 1075 516 
Q 1375 441 1709 441 
Q 2250 441 2565 725 
Q 2881 1009 2881 1497 
Q 2881 1984 2565 2268 
Q 2250 2553 1709 2553 
Q 1456 2553 1204 2497 
Q 953 2441 691 2322 
L 691 4666 
z
" transform="scale(0.015625)"/>
       </defs>
       <use xlink:href="#DejaVuSans-35"/>
       <use xlink:href="#DejaVuSans-30" x="63.623047"/>
       <use xlink:href="#DejaVuSans-30" x="127.246094"/>
      </g>
     </g>
    </g>
    <g id="text_7">
     <!-- Generations -->
     <g transform="translate(205.662344 335.860562)scale(0.1 -0.1)">
      <defs>
       <path id="DejaVuSans-47" d="M 3809 666 
L 3809 1919 
L 2778 1919 
L 2778 2438 
L 4434 2438 
L 4434 434 
Q 4069 175 3628 42 
Q 3188 -91 2688 -91 
Q 1594 -91 976 548 
Q 359 1188 359 2328 
Q 359 3472 976 4111 
Q 1594 4750 2688 4750 
Q 3144 4750 3555 4637 
Q 3966 4525 4313 4306 
L 4313 3634 
Q 3963 3931 3569 4081 
Q 3175 4231 2741 4231 
Q 1884 4231 1454 3753 
Q 1025 3275 1025 2328 
Q 1025 1384 1454 906 
Q 1884 428 2741 428 
Q 3075 428 3337 486 
Q 3600 544 3809 666 
z
" transform="scale(0.015625)"/>
       <path id="DejaVuSans-65" d="M 3597 1894 
L 3597 1613 
L 953 1613 
Q 991 1019 1311 708 
Q 1631 397 2203 397 
Q 2534 397 2845 478 
Q 3156 559 3463 722 
L 3463 178 
Q 3153 47 2828 -22 
Q 2503 -91 2169 -91 
Q 1331 -91 842 396 
Q 353 884 353 1716 
Q 353 2575 817 3079 
Q 1281 3584 2069 3584 
Q 2775 3584 3186 3129 
Q 3597 2675 3597 1894 
z
M 3022 2063 
Q 3016 2534 2758 2815 
Q 2500 3097 2075 3097 
Q 1594 3097 1305 2825 
Q 1016 2553 972 2059 
L 3022 2063 
z
" transform="scale(0.015625)"/>
       <path id="DejaVuSans-6e" d="M 3513 2113 
L 3513 0 
L 2938 0 
L 2938 2094 
Q 2938 2591 2744 2837 
Q 2550 3084 2163 3084 
Q 1697 3084 1428 2787 
Q 1159 2491 1159 1978 
L 1159 0 
L 581 0 
L 581 3500 
L 1159 3500 
L 1159 2956 
Q 1366 3272 1645 3428 
Q 1925 3584 2291 3584 
Q 2894 3584 3203 3211 
Q 3513 2838 3513 2113 
z
" transform="scale(0.015625)"/>
       <path id="DejaVuSans-72" d="M 2631 2963 
Q 2534 3019 2420 3045 
Q 2306 3072 2169 3072 
Q 1681 3072 1420 2755 
Q 1159 2438 1159 1844 
L 1159 0 
L 581 0 
L 581 3500 
L 1159 3500 
L 1159 2956 
Q 1341 3275 1631 3429 
Q 1922 3584 2338 3584 
Q 2397 3584 2469 3576 
Q 2541 3569 2628 3553 
L 2631 2963 
z
" transform="scale(0.015625)"/>
       <path id="DejaVuSans-61" d="M 2194 1759 
Q 1497 1759 1228 1600 
Q 959 1441 959 1056 
Q 959 750 1161 570 
Q 1363 391 1709 391 
Q 2188 391 2477 730 
Q 2766 1069 2766 1631 
L 2766 1759 
L 2194 1759 
z
M 3341 1997 
L 3341 0 
L 2766 0 
L 2766 531 
Q 2569 213 2275 61 
Q 1981 -91 1556 -91 
Q 1019 -91 701 211 
Q 384 513 384 1019 
Q 384 1609 779 1909 
Q 1175 2209 1959 2209 
L 2766 2209 
L 2766 2266 
Q 2766 2663 2505 2880 
Q 2244 3097 1772 3097 
Q 1472 3097 1187 3025 
Q 903 2953 641 2809 
L 641 3341 
Q 956 3463 1253 3523 
Q 1550 3584 1831 3584 
Q 2591 3584 2966 3190 
Q 3341 2797 3341 1997 
z
" transform="scale(0.015625)"/>
       <path id="DejaVuSans-74" d="M 1172 4494 
L 1172 3500 
L 2356 3500 
L 2356 3053 
L 1172 3053 
L 1172 1153 
Q 1172 725 1289 603 
Q 1406 481 1766 481 
L 2356 481 
L 2356 0 
L 1766 0 
Q 1100 0 847 248 
Q 594 497 594 1153 
L 594 3053 
L 172 3053 
L 172 3500 
L 594 3500 
L 594 4494 
L 1172 4494 
z
" transform="scale(0.015625)"/>
       <path id="DejaVuSans-69" d="M 603 3500 
L 1178 3500 
L 1178 0 
L 603 0 
L 603 3500 
z
M 603 4863 
L 1178 4863 
L 1178 4134 
L 603 4134 
L 603 4863 
z
" transform="scale(0.015625)"/>
       <path id="DejaVuSans-6f" d="M 1959 3097 
Q 1497 3097 1228 2736 
Q 959 2375 959 1747 
Q 959 1119 1226 758 
Q 1494 397 1959 397 
Q 2419 397 2687 759 
Q 2956 1122 2956 1747 
Q 2956 2369 2687 2733 
Q 2419 3097 1959 3097 
z
M 1959 3584 
Q 2709 3584 3137 3096 
Q 3566 2609 3566 1747 
Q 3566 888 3137 398 
Q 2709 -91 1959 -91 
Q 1206 -91 779 398 
Q 353 888 353 1747 
Q 353 2609 779 3096 
Q 1206 3584 1959 3584 
z
" transform="scale(0.015625)"/>
       <path id="DejaVuSans-73" d="M 2834 3397 
L 2834 2853 
Q 2591 2978 2328 3040 
Q 2066 3103 1784 3103 
Q 1356 3103 1142 2972 
Q 928 2841 928 2578 
Q 928 2378 1081 2264 
Q 1234 2150 1697 2047 
L 1894 2003 
Q 2506 1872 2764 1633 
Q 3022 1394 3022 966 
Q 3022 478 2636 193 
Q 2250 -91 1575 -91 
Q 1294 -91 989 -36 
Q 684 19 347 128 
L 347 722 
Q 666 556 975 473 
Q 1284 391 1588 391 
Q 1994 391 2212 530 
Q 2431 669 2431 922 
Q 2431 1156 2273 1281 
Q 2116 1406 1581 1522 
L 1381 1569 
Q 847 1681 609 1914 
Q 372 2147 372 2553 
Q 372 3047 722 3315 
Q 1072 3584 1716 3584 
Q 2034 3584 2315 3537 
Q 2597 3491 2834 3397 
z
" transform="scale(0.015625)"/>
      </defs>
      <use xlink:href="#DejaVuSans-47"/>
      <use xlink:href="#DejaVuSans-65" x="77.490234"/>
      <use xlink:href="#DejaVuSans-6e" x="139.013672"/>
      <use xlink:href="#DejaVuSans-65" x="202.392578"/>
      <use xlink:href="#DejaVuSans-72" x="263.916016"/>
      <use xlink:href="#DejaVuSans-61" x="305.029297"/>
      <use xlink:href="#DejaVuSans-74" x="366.308594"/>
      <use xlink:href="#DejaVuSans-69" x="405.517578"/>
      <use xlink:href="#DejaVuSans-6f" x="433.300781"/>
      <use xlink:href="#DejaVuSans-6e" x="494.482422"/>
      <use xlink:href="#DejaVuSans-73" x="557.861328"/>
     </g>
    </g>
   </g>
   <g id="matplotlib.axis_2">
    <g id="ytick_1">
     <g id="line2d_13">
      <path d="M 57.6 240.417668 
L 414.72 240.417668 
" clip-path="url(#p44aff9046a)" style="fill: none; stroke: #b0b0b0; stroke-width: 0.8; stroke-linecap: square"/>
     </g>
     <g id="line2d_14">
      <defs>
       <path id="mb9e698c3d4" d="M 0 0 
L -3.5 0 
" style="stroke: #000000; stroke-width: 0.8"/>
      </defs>
      <g>
       <use xlink:href="#mb9e698c3d4" x="57.6" y="240.417668" style="stroke: #000000; stroke-width: 0.8"/>
      </g>
     </g>
     <g id="text_8">
      <!-- $\mathdefault{-10^{0}}$ -->
      <g transform="translate(24.6 244.216887)scale(0.1 -0.1)">
       <defs>
        <path id="DejaVuSans-2212" d="M 678 2272 
L 4684 2272 
L 4684 1741 
L 678 1741 
L 678 2272 
z
" transform="scale(0.015625)"/>
       </defs>
       <use xlink:href="#DejaVuSans-2212" transform="translate(0 0.765625)"/>
       <use xlink:href="#DejaVuSans-31" transform="translate(83.789062 0.765625)"/>
       <use xlink:href="#DejaVuSans-30" transform="translate(147.412109 0.765625)"/>
       <use xlink:href="#DejaVuSans-30" transform="translate(211.992188 39.046875)scale(0.7)"/>
      </g>
     </g>
    </g>
    <g id="ytick_2">
     <g id="line2d_15">
      <path d="M 57.6 204.949727 
L 414.72 204.949727 
" clip-path="url(#p44aff9046a)" style="fill: none; stroke: #b0b0b0; stroke-width: 0.8; stroke-linecap: square"/>
     </g>
     <g id="line2d_16">
      <g>
       <use xlink:href="#mb9e698c3d4" x="57.6" y="204.949727" style="stroke: #000000; stroke-width: 0.8"/>
      </g>
     </g>
     <g id="text_9">
      <!-- $\mathdefault{0}$ -->
      <g transform="translate(44.2 208.748946)scale(0.1 -0.1)">
       <use xlink:href="#DejaVuSans-30" transform="translate(0 0.78125)"/>
      </g>
     </g>
    </g>
    <g id="ytick_3">
     <g id="line2d_17">
      <path d="M 57.6 169.481787 
L 414.72 169.481787 
" clip-path="url(#p44aff9046a)" style="fill: none; stroke: #b0b0b0; stroke-width: 0.8; stroke-linecap: square"/>
     </g>
     <g id="line2d_18">
      <g>
       <use xlink:href="#mb9e698c3d4" x="57.6" y="169.481787" style="stroke: #000000; stroke-width: 0.8"/>
      </g>
     </g>
     <g id="text_10">
      <!-- $\mathdefault{10^{0}}$ -->
      <g transform="translate(33 173.281006)scale(0.1 -0.1)">
       <use xlink:href="#DejaVuSans-31" transform="translate(0 0.765625)"/>
       <use xlink:href="#DejaVuSans-30" transform="translate(63.623047 0.765625)"/>
       <use xlink:href="#DejaVuSans-30" transform="translate(128.203125 39.046875)scale(0.7)"/>
      </g>
     </g>
    </g>
    <g id="ytick_4">
     <g id="line2d_19">
      <path d="M 57.6 89.389999 
L 414.72 89.389999 
" clip-path="url(#p44aff9046a)" style="fill: none; stroke: #b0b0b0; stroke-width: 0.8; stroke-linecap: square"/>
     </g>
     <g id="line2d_20">
      <g>
       <use xlink:href="#mb9e698c3d4" x="57.6" y="89.389999" style="stroke: #000000; stroke-width: 0.8"/>
      </g>
     </g>
     <g id="text_11">
      <!-- $\mathdefault{10^{1}}$ -->
      <g transform="translate(33 93.189218)scale(0.1 -0.1)">
       <use xlink:href="#DejaVuSans-31" transform="translate(0 0.684375)"/>
       <use xlink:href="#DejaVuSans-30" transform="translate(63.623047 0.684375)"/>
       <use xlink:href="#DejaVuSans-31" transform="translate(128.203125 38.965625)scale(0.7)"/>
      </g>
     </g>
    </g>
    <g id="text_12">
     <!-- Fitness -->
     <g transform="translate(18.520312 191.845187)rotate(-90)scale(0.1 -0.1)">
      <defs>
       <path id="DejaVuSans-46" d="M 628 4666 
L 3309 4666 
L 3309 4134 
L 1259 4134 
L 1259 2759 
L 3109 2759 
L 3109 2228 
L 1259 2228 
L 1259 0 
L 628 0 
L 628 4666 
z
" transform="scale(0.015625)"/>
      </defs>
      <use xlink:href="#DejaVuSans-46"/>
      <use xlink:href="#DejaVuSans-69" x="50.269531"/>
      <use xlink:href="#DejaVuSans-74" x="78.052734"/>
      <use xlink:href="#DejaVuSans-6e" x="117.261719"/>
      <use xlink:href="#DejaVuSans-65" x="180.640625"/>
      <use xlink:href="#DejaVuSans-73" x="242.164062"/>
      <use xlink:href="#DejaVuSans-73" x="294.263672"/>
     </g>
    </g>
   </g>
   <g id="line2d_21">
    <path d="M 73.832727 166.039623 
L 75.784558 161.242584 
L 77.085779 159.086134 
L 77.736389 157.435101 
L 79.03761 155.840817 
L 79.68822 154.007124 
L 80.33883 153.102692 
L 81.640051 150.426636 
L 82.290661 150.020528 
L 82.941272 148.986638 
L 83.591882 148.670973 
L 84.242492 147.878264 
L 84.893103 147.261122 
L 85.543713 146.956098 
L 86.194323 146.019744 
L 86.844934 145.533834 
L 87.495544 144.558465 
L 88.146154 144.317283 
L 88.796764 144.203786 
L 90.097985 142.74428 
L 90.748595 142.453443 
L 91.399206 143.040437 
L 92.049816 142.767334 
L 93.351037 141.451474 
L 94.001647 141.018765 
L 94.652257 141.075513 
L 95.302868 141.650094 
L 95.953478 140.571869 
L 96.604088 140.933642 
L 97.254698 139.653249 
L 97.905309 139.850096 
L 98.555919 140.820144 
L 99.206529 140.158667 
L 99.85714 139.686944 
L 100.50775 139.475909 
L 101.15836 139.11591 
L 102.459581 138.884706 
L 103.110191 137.690099 
L 104.411412 137.014434 
L 105.062022 135.676351 
L 105.712633 134.015621 
L 106.363243 134.416408 
L 107.013853 133.412514 
L 107.664463 133.102693 
L 108.965684 131.804148 
L 109.616294 132.262776 
L 110.917515 130.678615 
L 111.568125 130.31532 
L 112.218736 129.062272 
L 112.869346 128.379681 
L 113.519956 128.138055 
L 114.170567 127.742729 
L 114.821177 127.955839 
L 115.471787 126.297232 
L 116.122398 127.044657 
L 116.773008 126.582141 
L 117.423618 125.904769 
L 118.074228 126.441919 
L 119.375449 125.922587 
L 120.026059 124.686679 
L 120.67667 124.263599 
L 121.32728 125.2517 
L 121.97789 123.777312 
L 122.628501 123.516436 
L 123.929721 125.164632 
L 124.580332 124.370601 
L 125.230942 124.375987 
L 125.881552 124.092667 
L 126.532163 124.784444 
L 127.182773 124.729271 
L 127.833383 122.803202 
L 128.483993 123.66064 
L 129.134604 123.945649 
L 129.785214 123.772072 
L 130.435824 124.688661 
L 131.086435 124.719908 
L 131.737045 123.319472 
L 132.387655 123.643944 
L 133.038266 123.397389 
L 133.688876 122.388844 
L 134.339486 122.350567 
L 134.990097 122.458699 
L 135.640707 121.985112 
L 136.941927 121.332877 
L 137.592538 122.573222 
L 138.243148 121.471178 
L 138.893758 121.758684 
L 139.544369 122.419588 
L 140.194979 122.011354 
L 140.845589 123.108207 
L 141.4962 123.18681 
L 142.14681 123.0624 
L 142.79742 124.054042 
L 143.448031 123.341069 
L 144.098641 122.234317 
L 144.749251 123.109014 
L 145.399862 122.355286 
L 146.050472 122.931583 
L 146.701082 122.085449 
L 147.351692 122.018698 
L 148.002303 123.361299 
L 148.652913 122.444238 
L 149.303523 122.043803 
L 149.954134 122.26509 
L 150.604744 122.730218 
L 151.255354 122.505958 
L 151.905965 123.808956 
L 152.556575 122.875018 
L 153.207185 123.395025 
L 153.857796 123.149569 
L 155.159016 122.207429 
L 155.809627 122.484454 
L 156.460237 123.341749 
L 157.110847 122.732506 
L 157.761457 122.44042 
L 158.412068 121.398996 
L 159.062678 121.565946 
L 159.713288 122.953234 
L 160.363899 122.281681 
L 161.014509 122.316207 
L 161.665119 123.304386 
L 162.31573 123.386042 
L 162.96634 123.672591 
L 163.61695 123.723703 
L 164.267561 124.025349 
L 164.918171 123.386838 
L 165.568781 124.487848 
L 166.219392 123.928291 
L 166.870002 125.485151 
L 167.520612 124.313135 
L 168.171222 123.473037 
L 168.821833 123.431792 
L 169.472443 123.049454 
L 170.123053 123.076741 
L 170.773664 123.532312 
L 171.424274 121.544433 
L 172.074884 122.894847 
L 172.725495 122.73991 
L 173.376105 121.160899 
L 174.026715 122.160876 
L 174.677326 121.968322 
L 175.327936 122.843887 
L 176.629156 120.758741 
L 177.279767 120.55163 
L 177.930377 121.13722 
L 178.580987 120.486578 
L 179.231598 121.15968 
L 179.882208 120.953348 
L 180.532818 122.002303 
L 181.183429 122.221724 
L 181.834039 122.869551 
L 182.484649 121.944757 
L 183.13526 122.497906 
L 183.78587 121.796843 
L 184.43648 122.391124 
L 185.087091 120.751202 
L 185.737701 122.083985 
L 186.388311 121.718636 
L 187.038921 121.961144 
L 187.689532 121.978137 
L 188.340142 122.715344 
L 188.990752 121.737255 
L 189.641363 123.015695 
L 190.291973 122.836978 
L 190.942583 123.564347 
L 191.593194 122.818465 
L 192.243804 122.831916 
L 192.894414 123.31389 
L 193.545025 122.907437 
L 194.195635 123.900537 
L 194.846245 123.174877 
L 195.496856 123.850723 
L 196.147466 123.004734 
L 196.798076 122.897945 
L 197.448686 124.050083 
L 198.099297 123.232133 
L 198.749907 123.833615 
L 199.400517 123.765362 
L 200.051128 123.206809 
L 200.701738 123.737015 
L 201.352348 122.734833 
L 202.653569 124.309175 
L 203.304179 123.191338 
L 203.95479 124.002769 
L 204.6054 124.026641 
L 205.25601 123.914594 
L 206.557231 122.776401 
L 207.207841 123.600051 
L 207.858451 123.740426 
L 208.509062 121.688958 
L 209.159672 122.489486 
L 210.460893 123.429104 
L 211.111503 122.672914 
L 211.762113 123.524414 
L 213.063334 122.940411 
L 213.713944 122.202001 
L 214.364555 121.646923 
L 215.015165 121.247589 
L 215.665775 122.536065 
L 216.316385 122.253093 
L 216.966996 121.805813 
L 218.268216 123.112758 
L 218.918827 121.979797 
L 219.569437 122.752875 
L 220.220047 122.297479 
L 221.521268 122.678584 
L 222.171878 122.253624 
L 222.822489 122.881158 
L 223.473099 122.971764 
L 224.123709 123.409042 
L 224.77432 123.522327 
L 226.07554 123.015083 
L 226.72615 123.724144 
L 227.376761 121.925376 
L 228.027371 122.167207 
L 228.677981 123.433863 
L 229.328592 122.394504 
L 230.629812 123.258708 
L 231.280423 122.800847 
L 231.931033 123.494351 
L 232.581643 122.000715 
L 233.232254 121.092182 
L 233.882864 123.273115 
L 235.184085 122.771777 
L 235.834695 121.514574 
L 236.485305 121.746878 
L 237.135915 122.614173 
L 238.437136 122.50798 
L 239.738357 122.433086 
L 240.388967 121.544811 
L 241.039577 120.238427 
L 241.690188 121.377781 
L 242.340798 120.882032 
L 242.991408 120.75131 
L 243.642019 120.471832 
L 244.292629 122.184983 
L 244.943239 122.632362 
L 245.59385 121.118443 
L 246.24446 120.77241 
L 246.89507 123.038916 
L 247.54568 121.731718 
L 248.196291 122.100496 
L 248.846901 122.093026 
L 249.497511 121.639932 
L 250.148122 121.393701 
L 250.798732 120.706369 
L 251.449342 121.59854 
L 252.099953 120.949271 
L 252.750563 121.958532 
L 253.401173 120.937023 
L 254.051784 121.382628 
L 254.702394 121.556292 
L 255.353004 121.233539 
L 256.003615 121.377047 
L 256.654225 119.940057 
L 257.304835 120.807264 
L 257.955445 120.008623 
L 258.606056 120.213235 
L 259.256666 121.002779 
L 259.907276 120.985421 
L 260.557887 121.090163 
L 261.208497 122.178065 
L 261.859107 122.606505 
L 262.509718 121.555482 
L 263.160328 121.019281 
L 263.810938 120.71065 
L 264.461549 121.25563 
L 265.112159 122.429511 
L 265.762769 120.811586 
L 266.413379 121.409529 
L 267.06399 122.295776 
L 267.7146 121.788499 
L 268.36521 120.945864 
L 269.015821 121.898434 
L 269.666431 122.029829 
L 270.317041 121.948673 
L 270.967652 120.376221 
L 272.268872 121.04782 
L 272.919483 122.013533 
L 273.570093 122.291539 
L 274.220703 119.38976 
L 274.871314 119.52476 
L 275.521924 122.023646 
L 276.172534 121.912993 
L 276.823144 122.933685 
L 277.473755 122.257318 
L 278.124365 123.324573 
L 278.774975 122.663667 
L 279.425586 122.867518 
L 280.076196 120.92094 
L 280.726806 119.713471 
L 281.377417 121.438795 
L 282.028027 122.30825 
L 282.678637 122.578079 
L 283.329248 122.154555 
L 283.979858 122.809289 
L 284.630468 123.029906 
L 285.281079 123.998129 
L 285.931689 125.195613 
L 286.582299 124.11219 
L 287.232909 123.469956 
L 287.88352 124.687173 
L 288.53413 124.616182 
L 289.18474 123.820417 
L 289.835351 124.071576 
L 291.136571 122.613699 
L 291.787182 122.56557 
L 292.437792 121.448271 
L 293.088402 122.952677 
L 293.739013 121.460445 
L 295.040233 123.290885 
L 295.690844 121.978151 
L 296.341454 123.177061 
L 296.992064 121.631734 
L 297.642674 121.798124 
L 298.293285 122.12767 
L 298.943895 121.887266 
L 299.594505 122.848747 
L 300.245116 122.192687 
L 300.895726 121.919964 
L 301.546336 122.457184 
L 302.196947 124.352967 
L 302.847557 123.549522 
L 303.498167 123.265573 
L 304.148778 123.132731 
L 304.799388 121.118196 
L 305.449998 123.102192 
L 306.100608 123.166168 
L 306.751219 122.724173 
L 307.401829 122.682152 
L 308.052439 122.228173 
L 308.70305 122.580741 
L 309.35366 123.402295 
L 310.00427 123.622404 
L 310.654881 121.374786 
L 311.305491 120.38115 
L 311.956101 120.099212 
L 312.606712 119.667251 
L 313.257322 120.990571 
L 313.907932 121.820334 
L 314.558543 121.332355 
L 315.209153 122.603741 
L 315.859763 120.422003 
L 316.510373 120.313577 
L 317.160984 118.535603 
L 317.811594 119.332636 
L 318.462204 119.889972 
L 319.112815 120.279615 
L 319.763425 119.111966 
L 320.414035 117.012919 
L 321.064646 118.441383 
L 321.715256 117.547573 
L 322.365866 118.627696 
L 323.016477 119.16162 
L 323.667087 119.416681 
L 324.317697 117.868647 
L 324.968308 115.87588 
L 326.269528 114.899098 
L 326.920138 116.303226 
L 327.570749 115.845367 
L 328.221359 115.137147 
L 328.871969 116.461374 
L 329.52258 113.941877 
L 330.17319 114.296343 
L 330.8238 114.400597 
L 331.474411 112.849099 
L 332.125021 113.608325 
L 332.775631 114.611976 
L 333.426242 115.033046 
L 334.076852 115.248436 
L 334.727462 114.692386 
L 335.378073 113.070492 
L 336.028683 113.444621 
L 336.679293 113.601266 
L 337.329903 113.046983 
L 337.980514 113.749982 
L 338.631124 113.264039 
L 339.281734 111.04331 
L 339.932345 112.687442 
L 341.233565 111.720757 
L 341.884176 112.964621 
L 342.534786 111.550037 
L 343.185396 109.815279 
L 343.836007 110.110012 
L 344.486617 109.681227 
L 345.137227 109.890957 
L 345.787837 111.062998 
L 346.438448 111.161734 
L 347.089058 111.672689 
L 347.739668 111.617245 
L 348.390279 110.909724 
L 349.040889 111.131928 
L 349.691499 111.851954 
L 350.34211 110.639204 
L 350.99272 110.739715 
L 351.64333 108.289594 
L 352.293941 108.764706 
L 352.944551 109.736535 
L 354.245772 110.388129 
L 354.896382 110.452552 
L 355.546992 110.197394 
L 356.197602 110.09968 
L 356.848213 110.387872 
L 357.498823 110.345783 
L 358.149433 109.416761 
L 358.800044 110.99941 
L 359.450654 108.1317 
L 360.101264 107.952393 
L 360.751875 108.298798 
L 361.402485 107.268664 
L 362.053095 109.824552 
L 362.703706 108.874868 
L 363.354316 108.615976 
L 364.004926 107.794402 
L 364.655537 107.412159 
L 365.306147 106.094942 
L 365.956757 106.662854 
L 367.257978 106.492553 
L 367.908588 105.175285 
L 368.559198 110.64893 
L 369.209809 109.710527 
L 369.860419 108.049591 
L 370.511029 108.033215 
L 371.81225 107.135998 
L 372.46286 107.605484 
L 373.113471 108.221844 
L 373.764081 107.358868 
L 374.414691 107.581107 
L 375.065302 107.403706 
L 375.715912 106.963594 
L 376.366522 107.593899 
L 377.017132 106.242092 
L 378.318353 104.909157 
L 378.968963 104.606516 
L 379.619574 103.977863 
L 380.270184 102.807388 
L 380.920794 103.161314 
L 381.571405 101.715939 
L 382.222015 103.361893 
L 382.872625 101.85126 
L 383.523236 101.47115 
L 384.173846 103.197493 
L 384.824456 101.892898 
L 385.475066 100.239777 
L 386.125677 104.049013 
L 386.776287 103.160174 
L 387.426897 100.954817 
L 388.077508 101.402013 
L 389.378728 101.454283 
L 390.029339 99.829087 
L 390.679949 101.273535 
L 391.330559 101.151919 
L 391.98117 101.910511 
L 392.63178 100.542073 
L 393.28239 100.520293 
L 393.933001 98.918764 
L 394.583611 101.261235 
L 395.234221 99.250044 
L 395.884831 100.532677 
L 396.535442 99.939931 
L 397.186052 100.080352 
L 397.836662 96.720579 
L 398.487273 97.401031 
L 398.487273 97.401031 
" clip-path="url(#p44aff9046a)" style="fill: none; stroke: #0000ff; stroke-width: 1.5; stroke-linecap: square"/>
   </g>
   <g id="line2d_22">
    <path d="M 73.832727 170.971618 
L 74.483338 170.564983 
L 75.133948 169.865416 
L 75.784558 168.993503 
L 76.435169 168.54661 
L 77.085779 167.907773 
L 77.736389 166.772866 
L 79.03761 166.208311 
L 79.68822 164.969662 
L 80.33883 164.621899 
L 80.989441 163.771453 
L 81.640051 162.531935 
L 82.290661 162.730642 
L 83.591882 161.707525 
L 84.242492 161.393699 
L 84.893103 160.944015 
L 85.543713 161.265906 
L 86.194323 161.316165 
L 86.844934 161.054653 
L 87.495544 161.020432 
L 88.146154 160.738202 
L 88.796764 160.096776 
L 89.447375 160.410333 
L 90.097985 159.446448 
L 90.748595 160.146038 
L 91.399206 160.319177 
L 92.049816 159.220398 
L 92.700426 160.901647 
L 93.351037 159.40981 
L 94.001647 160.405612 
L 94.652257 160.943867 
L 95.302868 159.777852 
L 97.254698 159.459133 
L 97.905309 159.174047 
L 98.555919 160.526867 
L 99.206529 161.469246 
L 99.85714 159.866955 
L 100.50775 159.541926 
L 101.15836 160.921402 
L 101.808971 159.618024 
L 102.459581 162.074527 
L 103.110191 162.552889 
L 103.760802 164.129769 
L 105.062022 162.995545 
L 105.712633 162.112605 
L 106.363243 163.389312 
L 107.013853 165.328235 
L 108.315074 170.623987 
L 108.965684 173.852869 
L 109.616294 174.613888 
L 110.266905 176.135929 
L 110.917515 175.743667 
L 111.568125 178.902482 
L 112.218736 180.202927 
L 112.869346 180.793038 
L 114.821177 186.056889 
L 115.471787 186.770778 
L 116.122398 185.25131 
L 116.773008 188.75233 
L 117.423618 188.381272 
L 118.074228 189.891137 
L 118.724839 190.800024 
L 119.375449 192.753285 
L 120.026059 190.065375 
L 120.67667 191.785213 
L 121.32728 191.96728 
L 121.97789 189.93808 
L 122.628501 190.442122 
L 123.279111 192.903105 
L 123.929721 192.743991 
L 124.580332 192.304814 
L 125.230942 192.009177 
L 125.881552 193.126761 
L 126.532163 194.928458 
L 127.182773 195.4166 
L 127.833383 193.13915 
L 128.483993 196.85405 
L 129.134604 196.95032 
L 129.785214 196.594977 
L 130.435824 198.860391 
L 131.086435 196.438251 
L 131.737045 196.432027 
L 132.387655 198.597456 
L 133.038266 198.113425 
L 133.688876 197.317809 
L 134.339486 197.006509 
L 134.990097 200.094687 
L 135.640707 198.051605 
L 136.291317 198.753257 
L 136.941927 199.033764 
L 137.592538 200.71207 
L 138.243148 198.821877 
L 138.893758 198.742104 
L 139.544369 200.580714 
L 140.194979 200.006543 
L 140.845589 201.516539 
L 141.4962 199.735856 
L 142.14681 197.510719 
L 142.79742 201.231372 
L 143.448031 202.069062 
L 144.098641 200.691814 
L 144.749251 202.876552 
L 145.399862 202.836771 
L 146.050472 202.678237 
L 146.701082 202.333679 
L 147.351692 202.570928 
L 148.002303 203.469676 
L 148.652913 202.40048 
L 149.303523 200.762517 
L 149.954134 201.445465 
L 151.255354 200.397261 
L 151.905965 202.071923 
L 152.556575 200.832258 
L 153.857796 200.682202 
L 154.508406 201.806427 
L 155.159016 201.319612 
L 155.809627 201.89666 
L 156.460237 201.708696 
L 157.110847 203.613935 
L 157.761457 201.470107 
L 158.412068 200.248009 
L 159.062678 200.537296 
L 159.713288 202.587654 
L 160.363899 203.499554 
L 161.014509 203.370005 
L 161.665119 203.947372 
L 162.31573 203.338812 
L 162.96634 204.495122 
L 163.61695 205.01622 
L 164.267561 206.121009 
L 164.918171 205.037144 
L 165.568781 205.83603 
L 166.219392 205.712732 
L 166.870002 207.442954 
L 167.520612 205.752117 
L 168.171222 207.60835 
L 168.821833 207.58669 
L 169.472443 205.7693 
L 170.123053 205.81263 
L 170.773664 206.460985 
L 171.424274 204.760789 
L 172.074884 204.14044 
L 172.725495 204.955403 
L 173.376105 205.385848 
L 174.026715 204.757873 
L 174.677326 204.553071 
L 175.327936 206.965493 
L 175.978546 206.048307 
L 176.629156 207.749281 
L 177.279767 207.308619 
L 177.930377 209.567169 
L 179.231598 209.222506 
L 179.882208 207.771317 
L 180.532818 209.587498 
L 181.183429 205.832622 
L 181.834039 205.264825 
L 182.484649 206.613581 
L 183.13526 206.478115 
L 183.78587 209.803249 
L 184.43648 208.997396 
L 185.087091 205.612166 
L 185.737701 208.667288 
L 186.388311 204.752848 
L 187.038921 206.387014 
L 187.689532 206.833108 
L 188.340142 207.634888 
L 188.990752 205.390256 
L 189.641363 206.966563 
L 190.291973 206.563574 
L 191.593194 206.294757 
L 192.243804 207.381909 
L 192.894414 209.079782 
L 193.545025 208.020041 
L 194.195635 209.937794 
L 194.846245 206.905753 
L 195.496856 207.790688 
L 196.147466 208.971841 
L 196.798076 206.874416 
L 197.448686 208.652826 
L 198.099297 209.845067 
L 198.749907 207.91266 
L 199.400517 209.503719 
L 200.051128 208.466683 
L 200.701738 209.265725 
L 201.352348 209.699775 
L 202.002959 210.927975 
L 202.653569 209.237523 
L 203.304179 211.700003 
L 203.95479 210.905277 
L 204.6054 211.482372 
L 205.25601 212.619604 
L 205.906621 214.510507 
L 206.557231 214.339761 
L 207.207841 212.386048 
L 207.858451 213.67548 
L 208.509062 210.242352 
L 209.159672 210.269723 
L 209.810282 210.180953 
L 210.460893 212.823681 
L 211.111503 211.12713 
L 211.762113 211.900795 
L 212.412724 211.645666 
L 213.063334 209.390009 
L 213.713944 208.01226 
L 214.364555 210.830724 
L 215.015165 207.570962 
L 215.665775 213.311377 
L 216.966996 209.368284 
L 217.617606 212.06767 
L 218.268216 210.728268 
L 218.918827 207.517287 
L 219.569437 209.795271 
L 220.220047 209.992632 
L 220.870658 209.110429 
L 221.521268 209.369078 
L 222.171878 208.051886 
L 222.822489 211.852514 
L 223.473099 210.268682 
L 224.123709 213.32811 
L 225.42493 214.307307 
L 226.07554 214.414572 
L 226.72615 212.015748 
L 227.376761 213.291143 
L 228.027371 211.625177 
L 228.677981 213.017841 
L 229.328592 210.58531 
L 229.979202 211.363768 
L 230.629812 211.820602 
L 231.280423 211.366734 
L 231.931033 212.203533 
L 232.581643 210.238475 
L 233.232254 210.68473 
L 233.882864 213.053587 
L 234.533474 212.328686 
L 235.184085 211.999138 
L 235.834695 215.276298 
L 236.485305 214.647188 
L 237.135915 216.139759 
L 237.786526 213.102657 
L 238.437136 213.659222 
L 239.087746 217.05848 
L 239.738357 214.601788 
L 240.388967 210.218115 
L 241.039577 210.430729 
L 242.340798 213.163789 
L 242.991408 215.537092 
L 243.642019 214.195266 
L 244.292629 215.13616 
L 244.943239 216.719439 
L 246.24446 217.798187 
L 246.89507 221.586404 
L 247.54568 218.379289 
L 248.196291 217.651947 
L 248.846901 216.626355 
L 249.497511 215.899733 
L 250.148122 218.441667 
L 250.798732 215.104168 
L 251.449342 215.570752 
L 252.099953 213.703202 
L 252.750563 214.554784 
L 253.401173 217.096502 
L 254.051784 220.924948 
L 254.702394 218.6363 
L 256.003615 220.458177 
L 256.654225 219.690114 
L 257.304835 213.888417 
L 257.955445 212.978118 
L 258.606056 214.682613 
L 259.907276 212.613193 
L 261.208497 214.611975 
L 261.859107 218.369288 
L 263.810938 219.856694 
L 264.461549 217.491282 
L 265.112159 216.249093 
L 265.762769 215.656711 
L 266.413379 216.733344 
L 267.06399 216.647801 
L 268.36521 221.581669 
L 269.015821 219.615234 
L 270.317041 218.96212 
L 270.967652 217.433932 
L 271.618262 218.230709 
L 272.268872 217.602526 
L 272.919483 220.145052 
L 273.570093 219.832352 
L 274.220703 218.795773 
L 274.871314 223.531553 
L 275.521924 225.675098 
L 276.172534 225.658477 
L 276.823144 228.366682 
L 277.473755 224.725326 
L 278.124365 218.477896 
L 278.774975 217.763797 
L 279.425586 219.218488 
L 280.076196 222.005112 
L 280.726806 224.031344 
L 281.377417 229.211416 
L 282.028027 224.509112 
L 282.678637 225.256159 
L 283.329248 219.821009 
L 283.979858 218.926487 
L 284.630468 220.881404 
L 285.281079 218.257084 
L 285.931689 219.944457 
L 286.582299 227.033298 
L 287.232909 225.184989 
L 288.53413 222.654266 
L 289.18474 225.100305 
L 290.485961 218.2516 
L 291.136571 219.600791 
L 291.787182 218.475358 
L 292.437792 225.554314 
L 293.088402 220.233357 
L 293.739013 219.711489 
L 294.389623 223.081583 
L 295.040233 219.687949 
L 295.690844 219.951706 
L 296.341454 219.425482 
L 296.992064 221.705807 
L 297.642674 222.053072 
L 298.293285 226.263055 
L 298.943895 231.62277 
L 299.594505 232.522379 
L 300.245116 227.707527 
L 300.895726 229.266321 
L 301.546336 234.453148 
L 302.196947 228.044432 
L 302.847557 224.391303 
L 303.498167 223.072116 
L 304.148778 222.287495 
L 304.799388 230.115321 
L 305.449998 231.774712 
L 306.100608 229.859246 
L 306.751219 230.500531 
L 307.401829 234.89462 
L 308.052439 235.561455 
L 308.70305 234.56671 
L 309.35366 233.132954 
L 311.305491 244.616313 
L 311.956101 245.347773 
L 313.257322 236.760993 
L 313.907932 239.610333 
L 314.558543 240.235988 
L 315.209153 240.657943 
L 315.859763 242.000153 
L 316.510373 248.036783 
L 317.811594 256.641958 
L 318.462204 252.199252 
L 319.763425 257.502311 
L 320.414035 259.312749 
L 321.064646 257.732239 
L 321.715256 253.983836 
L 322.365866 254.873366 
L 323.016477 259.511744 
L 323.667087 256.548651 
L 324.317697 257.439665 
L 324.968308 271.102093 
L 325.618918 268.283521 
L 326.920138 273.021912 
L 327.570749 271.290232 
L 328.221359 271.242017 
L 328.871969 273.622725 
L 329.52258 278.642866 
L 330.17319 276.590343 
L 330.8238 278.846953 
L 331.474411 279.911448 
L 332.125021 280.288032 
L 332.775631 280.122246 
L 333.426242 278.326779 
L 334.076852 278.816429 
L 335.378073 281.827037 
L 336.679293 280.455827 
L 337.329903 281.71398 
L 337.980514 280.893514 
L 338.631124 282.52858 
L 339.281734 282.251715 
L 340.582955 284.604687 
L 341.233565 284.97828 
L 341.884176 283.917443 
L 342.534786 286.341796 
L 343.185396 288.175458 
L 343.836007 287.966244 
L 344.486617 287.303596 
L 345.137227 287.401166 
L 345.787837 286.38594 
L 346.438448 286.728029 
L 347.089058 286.733658 
L 347.739668 286.372422 
L 348.390279 287.419528 
L 349.040889 287.725929 
L 349.691499 287.693553 
L 350.34211 286.594411 
L 351.64333 288.392972 
L 352.293941 288.948583 
L 353.595161 288.266545 
L 354.245772 287.536389 
L 354.896382 288.2731 
L 355.546992 288.217132 
L 356.197602 287.942148 
L 356.848213 289.77258 
L 357.498823 287.571541 
L 358.149433 288.8466 
L 358.800044 289.404389 
L 359.450654 290.552179 
L 360.101264 289.396444 
L 360.751875 288.69085 
L 361.402485 289.44715 
L 362.053095 289.529163 
L 362.703706 290.769112 
L 363.354316 291.421642 
L 364.004926 292.397572 
L 364.655537 292.432082 
L 365.306147 290.829849 
L 365.956757 291.166847 
L 366.607367 291.917597 
L 367.257978 291.970464 
L 367.908588 291.153126 
L 368.559198 289.143353 
L 369.209809 289.253722 
L 369.860419 290.227537 
L 370.511029 290.312919 
L 371.16164 290.973846 
L 371.81225 290.543601 
L 372.46286 291.113183 
L 373.113471 291.409287 
L 373.764081 290.690686 
L 374.414691 289.58239 
L 375.065302 290.33335 
L 375.715912 290.345207 
L 376.366522 290.698114 
L 377.017132 291.822541 
L 377.667743 290.953397 
L 378.318353 290.352204 
L 379.619574 291.768376 
L 380.920794 293.093947 
L 381.571405 293.742637 
L 382.222015 293.688611 
L 382.872625 293.087286 
L 383.523236 293.098417 
L 384.173846 293.43701 
L 384.824456 293.123414 
L 385.475066 293.078064 
L 386.125677 293.274781 
L 386.776287 294.223203 
L 387.426897 292.601998 
L 388.077508 295.403151 
L 388.728118 294.607004 
L 389.378728 294.195584 
L 390.029339 293.325784 
L 390.679949 293.157964 
L 391.330559 294.930498 
L 391.98117 295.193105 
L 392.63178 294.645119 
L 393.28239 294.94256 
L 393.933001 294.793208 
L 394.583611 295.488 
L 395.234221 294.864079 
L 395.884831 295.457951 
L 396.535442 295.150276 
L 397.186052 295.005479 
L 397.836662 293.874578 
L 398.487273 294.766749 
L 398.487273 294.766749 
" clip-path="url(#p44aff9046a)" style="fill: none; stroke-dasharray: 9.6,2.4,1.5,2.4; stroke-dashoffset: 0; stroke: #008000; stroke-width: 1.5"/>
   </g>
   <g id="line2d_23">
    <path d="M 73.832727 161.107628 
L 74.483338 158.311508 
L 75.133948 156.148813 
L 75.784558 153.491666 
L 78.386999 146.563772 
L 79.03761 145.473323 
L 79.68822 143.044587 
L 80.33883 141.583485 
L 80.989441 139.720633 
L 81.640051 138.321337 
L 82.290661 137.310414 
L 82.941272 135.801606 
L 83.591882 135.634421 
L 84.242492 134.362829 
L 84.893103 133.8441 
L 85.543713 133.484404 
L 86.194323 132.756635 
L 86.844934 132.492569 
L 87.495544 131.79238 
L 88.146154 131.720272 
L 88.796764 131.8698 
L 89.447375 131.184905 
L 90.097985 131.060952 
L 90.748595 130.614361 
L 91.399206 130.962595 
L 92.049816 131.156748 
L 92.700426 130.126856 
L 93.351037 130.179462 
L 94.001647 129.553065 
L 94.652257 129.412074 
L 95.302868 130.189402 
L 95.953478 129.499483 
L 96.604088 129.749103 
L 97.254698 128.965476 
L 98.555919 129.381056 
L 99.206529 128.641808 
L 99.85714 128.854784 
L 100.50775 128.823312 
L 101.15836 128.151018 
L 101.808971 128.510707 
L 103.760802 126.091151 
L 104.411412 126.068891 
L 105.712633 124.762741 
L 106.363243 124.630033 
L 107.013853 123.044903 
L 107.664463 121.982391 
L 108.965684 118.855936 
L 109.616294 119.256916 
L 110.266905 117.821524 
L 110.917515 117.048185 
L 111.568125 115.953169 
L 112.218736 114.216558 
L 112.869346 113.3095 
L 113.519956 112.689895 
L 114.170567 111.856223 
L 114.821177 111.876123 
L 115.471787 109.907996 
L 116.122398 110.99464 
L 116.773008 109.897224 
L 117.423618 109.215134 
L 118.074228 109.558752 
L 119.375449 108.544163 
L 120.026059 107.628146 
L 120.67667 106.916934 
L 121.32728 107.947568 
L 121.97789 106.664944 
L 122.628501 106.310951 
L 123.279111 106.752467 
L 123.929721 107.73636 
L 124.580332 106.954784 
L 125.230942 107.00412 
L 125.881552 106.538757 
L 126.532163 107.00675 
L 127.182773 106.876846 
L 127.833383 105.169734 
L 129.134604 105.836401 
L 129.785214 105.705751 
L 130.435824 106.333683 
L 131.086435 106.717407 
L 131.737045 105.256677 
L 132.387655 105.293005 
L 133.038266 105.105263 
L 133.688876 104.168875 
L 134.339486 104.170636 
L 136.291317 103.218863 
L 136.941927 102.856064 
L 137.592538 103.908446 
L 138.243148 103.025196 
L 138.893758 103.331176 
L 139.544369 103.768964 
L 140.194979 103.426715 
L 140.845589 104.346265 
L 141.4962 104.666636 
L 142.14681 104.841101 
L 142.79742 105.347687 
L 144.098641 103.565388 
L 144.749251 104.165342 
L 145.399862 103.409365 
L 146.050472 104.012407 
L 146.701082 103.201521 
L 147.351692 103.103531 
L 148.002303 104.340534 
L 148.652913 103.555987 
L 149.303523 103.361924 
L 149.954134 103.498605 
L 150.604744 104.033805 
L 151.255354 103.8813 
L 151.905965 104.982504 
L 152.556575 104.20033 
L 153.207185 104.737104 
L 153.857796 104.500568 
L 154.508406 103.863029 
L 155.159016 103.456332 
L 155.809627 103.662509 
L 156.460237 104.557728 
L 157.110847 103.6884 
L 157.761457 103.673601 
L 158.412068 102.769755 
L 159.062678 102.90346 
L 159.713288 104.046303 
L 160.363899 103.24949 
L 161.014509 103.30097 
L 161.665119 104.21939 
L 162.96634 104.515399 
L 163.61695 104.496293 
L 164.267561 104.647699 
L 164.918171 104.15675 
L 165.568781 105.146826 
L 166.219392 104.606394 
L 166.870002 105.910765 
L 168.171222 103.901589 
L 170.123053 103.744859 
L 170.773664 104.112227 
L 171.424274 102.349548 
L 172.074884 103.782514 
L 172.725495 103.520726 
L 173.376105 101.888891 
L 174.026715 102.966894 
L 174.677326 102.800126 
L 175.327936 103.36337 
L 175.978546 102.44468 
L 176.629156 101.203148 
L 177.279767 101.05094 
L 177.930377 101.35734 
L 178.580987 100.742583 
L 179.231598 101.4209 
L 179.882208 101.392739 
L 181.183429 102.890737 
L 181.834039 103.609938 
L 182.484649 102.516697 
L 183.13526 103.082984 
L 183.78587 101.974513 
L 184.43648 102.657325 
L 185.087091 101.452631 
L 185.737701 102.397033 
L 187.038921 102.561427 
L 187.689532 102.522253 
L 188.340142 103.149945 
L 188.990752 102.463572 
L 189.641363 103.533417 
L 190.291973 103.408569 
L 190.942583 104.15478 
L 191.593194 103.425037 
L 192.243804 103.297703 
L 192.894414 103.552082 
L 193.545025 103.28989 
L 194.195635 104.013332 
L 194.846245 103.69905 
L 195.496856 104.250092 
L 196.147466 103.262805 
L 196.798076 103.428729 
L 197.448686 104.33095 
L 198.099297 103.372671 
L 198.749907 104.216938 
L 199.400517 103.938658 
L 200.051128 103.526763 
L 200.701738 103.942354 
L 201.352348 102.905124 
L 202.002959 103.489283 
L 202.653569 104.506428 
L 203.304179 103.094077 
L 203.95479 103.984799 
L 204.6054 103.931665 
L 205.25601 103.673883 
L 205.906621 102.931608 
L 206.557231 102.360571 
L 207.207841 103.40091 
L 207.858451 103.369006 
L 208.509062 101.815163 
L 209.159672 102.59328 
L 209.810282 103.058823 
L 210.460893 103.179575 
L 211.111503 102.66387 
L 211.762113 103.39068 
L 212.412724 103.151286 
L 213.063334 103.145945 
L 213.713944 102.59539 
L 214.364555 101.702309 
L 215.015165 101.707765 
L 215.665775 102.257928 
L 216.316385 102.212176 
L 216.966996 102.036894 
L 217.617606 102.272005 
L 218.268216 103.142408 
L 218.918827 102.43814 
L 219.569437 102.910613 
L 220.220047 102.440555 
L 220.870658 102.727902 
L 221.521268 102.892139 
L 222.171878 102.641298 
L 222.822489 102.774196 
L 223.473099 103.063946 
L 224.77432 103.135637 
L 226.07554 102.579711 
L 226.72615 103.568913 
L 227.376761 101.672361 
L 228.027371 102.110585 
L 228.677981 103.159208 
L 229.328592 102.461031 
L 230.629812 103.143855 
L 231.280423 102.757846 
L 231.931033 103.32245 
L 232.581643 102.120077 
L 233.232254 101.179224 
L 233.882864 102.999887 
L 234.533474 102.901419 
L 235.184085 102.64976 
L 235.834695 101.039264 
L 236.485305 101.336796 
L 237.135915 101.982688 
L 237.786526 102.290525 
L 238.437136 102.18772 
L 239.087746 101.783299 
L 239.738357 101.999384 
L 240.388967 101.677326 
L 241.039577 100.375769 
L 241.690188 101.337134 
L 242.340798 100.681502 
L 242.991408 100.279175 
L 243.642019 100.166284 
L 244.292629 101.696685 
L 244.943239 101.928654 
L 245.59385 100.429215 
L 246.24446 100.038599 
L 246.89507 101.714004 
L 247.54568 100.87721 
L 248.196291 101.311992 
L 248.846901 101.428421 
L 249.497511 101.084647 
L 250.148122 100.551157 
L 250.798732 100.28631 
L 251.449342 101.084386 
L 252.099953 100.682958 
L 252.750563 101.550712 
L 253.401173 100.275542 
L 254.051784 100.251991 
L 254.702394 100.681599 
L 255.353004 100.27089 
L 256.003615 100.300813 
L 256.654225 99.039635 
L 257.304835 100.524562 
L 257.955445 99.859196 
L 258.606056 99.861949 
L 259.256666 100.751694 
L 260.557887 100.832881 
L 261.208497 101.754008 
L 261.859107 101.702338 
L 262.509718 100.651263 
L 263.160328 100.072637 
L 263.810938 99.745348 
L 264.461549 100.53174 
L 265.112159 101.7938 
L 265.762769 100.322909 
L 266.413379 100.766648 
L 267.06399 101.618226 
L 267.7146 100.815944 
L 268.36521 99.769373 
L 269.015821 100.88769 
L 269.666431 101.044025 
L 270.317041 101.012315 
L 270.967652 99.704618 
L 272.268872 100.321971 
L 272.919483 100.932696 
L 273.570093 101.229997 
L 274.220703 98.618781 
L 274.871314 98.232403 
L 275.521924 100.294042 
L 276.172534 100.194872 
L 276.823144 100.804672 
L 277.473755 100.618495 
L 278.124365 102.363969 
L 278.774975 101.830161 
L 279.425586 101.843666 
L 280.076196 99.698098 
L 280.726806 98.353437 
L 281.377417 99.360414 
L 282.028027 100.690561 
L 283.329248 101.103156 
L 283.979858 101.824826 
L 284.630468 101.791718 
L 285.281079 103.024245 
L 285.931689 103.923059 
L 286.582299 102.027399 
L 287.232909 101.671693 
L 287.88352 102.948089 
L 288.53413 103.035892 
L 289.18474 102.001267 
L 289.835351 102.627458 
L 290.485961 102.421423 
L 291.136571 101.559387 
L 291.787182 101.65091 
L 292.437792 99.781751 
L 293.088402 101.799051 
L 293.739013 100.465695 
L 294.389623 100.981029 
L 295.040233 102.181877 
L 295.690844 100.922511 
L 296.341454 102.107982 
L 296.992064 100.393499 
L 297.642674 100.507599 
L 298.293285 100.320786 
L 298.943895 99.49191 
L 299.594505 100.243461 
L 300.245116 100.212662 
L 300.895726 99.787808 
L 301.546336 99.67704 
L 302.196947 102.119055 
L 302.847557 101.841226 
L 304.148778 101.715328 
L 304.799388 98.971064 
L 305.449998 100.554936 
L 306.100608 100.837021 
L 308.052439 99.351165 
L 308.70305 99.77276 
L 309.35366 100.66103 
L 310.00427 100.415137 
L 310.654881 98.120661 
L 311.305491 96.785916 
L 311.956101 96.471054 
L 312.606712 96.524817 
L 313.257322 98.134752 
L 313.907932 98.549468 
L 314.558543 98.060396 
L 315.209153 99.108521 
L 315.859763 97.089468 
L 316.510373 96.381965 
L 317.160984 94.459401 
L 317.811594 94.724465 
L 318.462204 95.613852 
L 319.112815 95.675173 
L 319.763425 94.461777 
L 320.414035 92.565582 
L 321.064646 93.88817 
L 321.715256 93.486351 
L 322.365866 94.307361 
L 323.016477 94.31434 
L 323.667087 94.802508 
L 324.317697 93.441287 
L 324.968308 90.639431 
L 325.618918 90.499111 
L 326.269528 89.878944 
L 326.920138 90.82438 
L 327.570749 90.599502 
L 328.221359 90.032099 
L 328.871969 90.900849 
L 329.52258 88.145127 
L 330.17319 88.849683 
L 330.8238 88.462528 
L 331.474411 87.015124 
L 332.125021 87.529331 
L 333.426242 89.070774 
L 334.076852 89.132416 
L 334.727462 88.38402 
L 335.378073 86.768924 
L 336.028683 87.196244 
L 336.679293 87.486958 
L 337.329903 86.776145 
L 337.980514 87.505482 
L 338.631124 86.758141 
L 339.281734 85.095017 
L 339.932345 86.125836 
L 340.582955 85.434099 
L 341.233565 85.002709 
L 341.884176 86.203088 
L 343.185396 82.785624 
L 343.836007 83.059336 
L 344.486617 82.895183 
L 345.137227 83.031202 
L 345.787837 84.165387 
L 346.438448 84.156836 
L 347.089058 84.540415 
L 347.739668 84.587853 
L 348.390279 83.796573 
L 349.040889 83.886853 
L 349.691499 84.432422 
L 350.34211 83.793531 
L 350.99272 83.660777 
L 351.64333 81.575449 
L 352.293941 81.802913 
L 352.944551 82.621986 
L 354.245772 83.374717 
L 356.848213 82.809577 
L 357.498823 83.334134 
L 358.149433 82.319923 
L 358.800044 83.357565 
L 359.450654 80.930254 
L 360.101264 81.078965 
L 360.751875 81.511602 
L 361.402485 80.54664 
L 362.053095 82.454003 
L 362.703706 81.430088 
L 363.354316 81.069603 
L 364.004926 80.207898 
L 364.655537 79.915828 
L 365.306147 79.323226 
L 365.956757 79.67265 
L 367.257978 79.346197 
L 367.908588 78.544626 
L 368.559198 83.166 
L 369.209809 82.438672 
L 369.860419 80.949346 
L 370.511029 80.91588 
L 371.16164 80.393059 
L 371.81225 80.18241 
L 372.46286 80.39533 
L 373.113471 80.780363 
L 373.764081 80.314761 
L 374.414691 80.75228 
L 375.715912 80.09982 
L 376.366522 80.489971 
L 377.017132 79.194276 
L 378.968963 78.120352 
L 379.619574 77.482678 
L 380.270184 76.445525 
L 380.920794 76.547797 
L 381.571405 75.286892 
L 382.222015 76.560147 
L 382.872625 75.54044 
L 383.523236 75.243182 
L 384.173846 76.494726 
L 384.824456 75.564507 
L 385.475066 74.286565 
L 386.125677 77.181625 
L 386.776287 76.278409 
L 387.426897 74.949895 
L 388.077508 74.658777 
L 389.378728 74.981314 
L 390.029339 73.910939 
L 390.679949 75.076349 
L 391.330559 74.57877 
L 391.98117 75.096046 
L 392.63178 74.174938 
L 393.28239 74.090266 
L 393.933001 72.880082 
L 394.583611 74.531282 
L 395.234221 73.123168 
L 395.884831 73.980887 
L 396.535442 73.594808 
L 397.186052 73.736221 
L 397.836662 71.332326 
L 398.487273 71.691828 
L 398.487273 71.691828 
" clip-path="url(#p44aff9046a)" style="fill: none; stroke-dasharray: 9.6,2.4,1.5,2.4; stroke-dashoffset: 0; stroke: #008000; stroke-width: 1.5"/>
   </g>
   <g id="line2d_24">
    <path d="M 73.832727 132.661073 
L 74.483338 124.684698 
L 75.133948 125.69304 
L 75.784558 130.138757 
L 76.435169 127.826889 
L 77.085779 123.711743 
L 77.736389 124.684698 
L 78.386999 121.862634 
L 79.03761 124.684698 
L 79.68822 119.301459 
L 80.33883 117.716664 
L 80.989441 115.497372 
L 81.640051 120.129173 
L 82.290661 114.795401 
L 82.941272 114.110765 
L 83.591882 115.497372 
L 84.242492 116.217577 
L 85.543713 106.474595 
L 86.194323 110.324023 
L 86.844934 93.571768 
L 87.495544 97.738546 
L 88.146154 94.224183 
L 88.796764 96.278927 
L 89.447375 93.251228 
L 90.097985 94.89232 
L 90.748595 97.366374 
L 91.399206 93.571768 
L 92.049816 110.324023 
L 92.700426 91.40212 
L 93.351037 94.556239 
L 94.001647 91.701867 
L 94.652257 82.115594 
L 95.302868 102.200558 
L 95.953478 98.498219 
L 96.604088 99.678242 
L 97.254698 88.570441 
L 97.905309 95.576956 
L 98.555919 89.668658 
L 99.206529 87.25615 
L 99.85714 96.999132 
L 100.50775 94.556239 
L 101.15836 89.668658 
L 101.808971 100.083014 
L 102.459581 86.001349 
L 103.110191 95.92572 
L 103.760802 89.668658 
L 104.411412 88.570441 
L 105.062022 94.89232 
L 105.712633 90.234522 
L 106.363243 88.037225 
L 107.013853 91.40212 
L 107.664463 87.000605 
L 108.315074 86.496476 
L 108.965684 87.774414 
L 109.616294 88.570441 
L 110.266905 87.774414 
L 110.917515 88.037225 
L 111.568125 83.876589 
L 112.218736 84.800887 
L 112.869346 83.425744 
L 113.519956 81.275337 
L 114.170567 83.65025 
L 114.821177 78.147929 
L 115.471787 82.982113 
L 116.122398 79.47299 
L 116.773008 81.90313 
L 117.423618 83.203041 
L 118.074228 81.90313 
L 118.724839 79.863509 
L 119.375449 80.06085 
L 120.026059 81.483026 
L 120.67667 85.036857 
L 121.32728 81.90313 
L 121.97789 82.115594 
L 122.628501 82.115594 
L 123.279111 83.203041 
L 123.929721 82.762931 
L 124.580332 80.661444 
L 125.230942 80.864569 
L 125.881552 82.762931 
L 126.532163 81.483026 
L 127.182773 81.069192 
L 127.833383 81.069192 
L 129.134604 74.353323 
L 129.785214 79.087896 
L 130.435824 75.337794 
L 131.086435 79.279774 
L 131.737045 77.060482 
L 132.387655 74.19259 
L 133.038266 80.06085 
L 133.688876 78.33339 
L 134.339486 74.19259 
L 134.990097 77.598874 
L 135.640707 75.005738 
L 136.291317 75.171269 
L 136.941927 72.939208 
L 137.592538 73.873893 
L 138.243148 80.459797 
L 138.893758 78.520101 
L 139.544369 81.069192 
L 140.194979 79.279774 
L 140.845589 79.087896 
L 141.4962 82.329698 
L 142.14681 77.780687 
L 142.79742 80.661444 
L 143.448031 74.19259 
L 144.098641 76.358511 
L 144.749251 76.358511 
L 145.399862 77.598874 
L 146.050472 79.087896 
L 146.701082 73.715907 
L 147.351692 73.247282 
L 148.002303 74.353323 
L 148.652913 79.667562 
L 149.303523 80.06085 
L 149.954134 78.147929 
L 150.604744 76.883316 
L 151.255354 82.115594 
L 151.905965 76.01408 
L 152.556575 76.01408 
L 153.207185 76.883316 
L 153.857796 80.259606 
L 154.508406 81.069192 
L 155.159016 75.505325 
L 155.809627 74.841189 
L 156.460237 79.863509 
L 157.110847 76.358511 
L 158.412068 74.19259 
L 159.062678 82.115594 
L 159.713288 78.520101 
L 160.363899 75.673875 
L 161.014509 73.873893 
L 161.665119 77.418246 
L 162.31573 73.402612 
L 162.96634 76.185761 
L 163.61695 72.63452 
L 164.267561 71.303399 
L 164.918171 77.238787 
L 165.568781 73.247282 
L 166.219392 72.786445 
L 166.870002 71.59373 
L 167.520612 74.353323 
L 168.171222 67.403206 
L 168.821833 71.740043 
L 169.472443 71.448184 
L 170.123053 72.939208 
L 170.773664 72.035007 
L 171.424274 72.786445 
L 172.074884 78.708077 
L 172.725495 72.939208 
L 173.376105 74.19259 
L 174.026715 69.486918 
L 174.677326 70.5906 
L 175.327936 73.402612 
L 176.629156 66.417277 
L 177.279767 66.660492 
L 177.930377 67.909638 
L 178.580987 70.310533 
L 179.231598 66.660492 
L 179.882208 69.758747 
L 180.532818 65.937155 
L 181.183429 69.486918 
L 181.834039 68.81878 
L 182.484649 72.786445 
L 183.13526 67.909638 
L 183.78587 66.296464 
L 184.43648 67.029362 
L 185.087091 65.465205 
L 185.737701 65.700176 
L 186.388311 68.295626 
L 187.038921 65.818412 
L 187.689532 65.700176 
L 188.340142 65.348462 
L 188.990752 66.782904 
L 189.641363 67.655266 
L 190.291973 67.278031 
L 190.942583 66.056408 
L 191.593194 67.78216 
L 192.243804 66.056408 
L 192.894414 66.176176 
L 193.545025 67.52895 
L 194.195635 66.176176 
L 194.846245 65.937155 
L 195.496856 66.296464 
L 196.147466 65.937155 
L 196.798076 65.818412 
L 197.448686 63.435542 
L 198.099297 64.095724 
L 198.749907 65.116441 
L 199.400517 65.818412 
L 200.051128 65.465205 
L 200.701738 64.207299 
L 201.352348 64.095724 
L 202.002959 65.818412 
L 202.653569 65.937155 
L 203.304179 64.207299 
L 203.95479 64.319325 
L 204.6054 65.818412 
L 205.25601 65.116441 
L 205.906621 65.116441 
L 206.557231 64.77201 
L 207.207841 66.056408 
L 207.858451 64.319325 
L 208.509062 65.582442 
L 209.159672 65.232209 
L 209.810282 65.937155 
L 211.111503 64.77201 
L 211.762113 65.348462 
L 212.412724 64.319325 
L 213.063334 65.348462 
L 213.713944 63.984596 
L 214.364555 62.897149 
L 215.015165 63.544486 
L 215.665775 64.431805 
L 216.316385 63.327023 
L 216.966996 64.77201 
L 217.617606 63.65386 
L 218.268216 65.937155 
L 218.918827 65.465205 
L 219.569437 64.095724 
L 220.220047 63.763668 
L 220.870658 66.176176 
L 221.521268 65.232209 
L 222.171878 64.886346 
L 222.822489 65.348462 
L 223.473099 66.056408 
L 224.123709 64.431805 
L 224.77432 63.111253 
L 225.42493 65.818412 
L 226.07554 65.116441 
L 226.72615 64.658144 
L 227.376761 63.544486 
L 228.027371 64.544744 
L 228.677981 65.001155 
L 229.328592 63.544486 
L 229.979202 65.001155 
L 230.629812 64.544744 
L 231.931033 67.153418 
L 232.581643 65.001155 
L 233.232254 64.319325 
L 233.882864 63.984596 
L 234.533474 65.116441 
L 235.184085 64.544744 
L 235.834695 62.897149 
L 236.485305 63.435542 
L 237.135915 63.111253 
L 237.786526 65.465205 
L 238.437136 64.095724 
L 239.738357 63.763668 
L 240.388967 66.905859 
L 241.039577 64.319325 
L 242.340798 63.544486 
L 242.991408 63.111253 
L 243.642019 62.264581 
L 244.292629 65.937155 
L 244.943239 64.77201 
L 245.59385 63.218928 
L 246.24446 62.160542 
L 246.89507 64.319325 
L 247.54568 62.579061 
L 248.196291 63.327023 
L 248.846901 63.218928 
L 249.497511 65.001155 
L 250.148122 63.435542 
L 250.798732 64.658144 
L 251.449342 65.001155 
L 252.099953 65.001155 
L 252.750563 63.763668 
L 253.401173 63.763668 
L 254.051784 63.435542 
L 254.702394 64.658144 
L 255.353004 63.544486 
L 256.003615 62.790714 
L 256.654225 63.327023 
L 257.304835 64.886346 
L 257.955445 63.984596 
L 258.606056 64.544744 
L 259.256666 64.095724 
L 259.907276 63.327023 
L 260.557887 64.77201 
L 261.208497 63.984596 
L 261.859107 63.873912 
L 262.509718 63.111253 
L 263.160328 63.435542 
L 263.810938 65.116441 
L 264.461549 62.160542 
L 265.112159 64.886346 
L 265.762769 64.431805 
L 266.413379 64.544744 
L 267.06399 64.544744 
L 267.7146 63.65386 
L 268.36521 63.218928 
L 269.015821 63.435542 
L 269.666431 64.544744 
L 270.317041 63.435542 
L 271.618262 63.65386 
L 272.268872 63.218928 
L 272.919483 64.544744 
L 273.570093 64.544744 
L 274.220703 64.095724 
L 274.871314 62.473837 
L 275.521924 63.873912 
L 276.172534 62.897149 
L 276.823144 63.003994 
L 277.473755 63.763668 
L 278.124365 65.001155 
L 278.774975 64.095724 
L 279.425586 65.001155 
L 280.726806 62.897149 
L 281.377417 63.218928 
L 282.028027 65.001155 
L 283.329248 62.264581 
L 283.979858 65.232209 
L 284.630468 63.65386 
L 285.281079 63.111253 
L 285.931689 63.435542 
L 286.582299 63.003994 
L 287.232909 63.327023 
L 287.88352 64.544744 
L 289.18474 62.369012 
L 289.835351 62.684685 
L 290.485961 63.435542 
L 291.136571 64.544744 
L 291.787182 64.095724 
L 292.437792 61.850747 
L 293.088402 63.763668 
L 293.739013 63.984596 
L 294.389623 63.111253 
L 295.040233 63.984596 
L 295.690844 64.207299 
L 296.992064 62.790714 
L 297.642674 63.435542 
L 298.293285 63.327023 
L 298.943895 62.684685 
L 299.594505 63.763668 
L 300.245116 62.684685 
L 300.895726 63.218928 
L 302.196947 63.435542 
L 302.847557 63.873912 
L 303.498167 63.873912 
L 304.799388 63.218928 
L 305.449998 63.327023 
L 306.100608 62.790714 
L 306.751219 64.095724 
L 307.401829 63.003994 
L 308.70305 62.473837 
L 309.35366 62.579061 
L 310.00427 63.111253 
L 310.654881 63.873912 
L 311.305491 62.369012 
L 311.956101 62.369012 
L 312.606712 55.952824 
L 313.257322 56.967316 
L 313.907932 55.787293 
L 314.558543 54.184167 
L 315.209153 56.035961 
L 315.859763 54.184167 
L 316.510373 57.140066 
L 317.160984 56.035961 
L 317.811594 55.540834 
L 318.462204 53.797461 
L 319.112815 57.053556 
L 319.763425 54.655447 
L 320.414035 55.296548 
L 321.064646 56.371027 
L 322.365866 55.054395 
L 323.016477 53.797461 
L 323.667087 54.734779 
L 324.317697 54.184167 
L 324.968308 54.262159 
L 325.618918 54.497462 
L 326.269528 54.106393 
L 326.920138 55.296548 
L 327.570749 53.797461 
L 328.221359 54.576342 
L 328.871969 54.418806 
L 329.52258 54.734779 
L 330.17319 54.262159 
L 330.8238 55.054395 
L 331.474411 55.054395 
L 332.125021 53.874372 
L 332.775631 54.418806 
L 333.426242 53.874372 
L 334.076852 54.497462 
L 334.727462 53.720763 
L 335.378073 54.106393 
L 336.028683 53.797461 
L 336.679293 53.720763 
L 337.329903 53.874372 
L 337.980514 54.340372 
L 338.631124 53.644276 
L 339.281734 53.797461 
L 339.932345 54.184167 
L 340.582955 53.874372 
L 342.534786 54.028836 
L 343.185396 53.644276 
L 343.836007 54.262159 
L 344.486617 54.106393 
L 345.787837 54.028836 
L 346.438448 53.797461 
L 347.089058 53.797461 
L 347.739668 53.644276 
L 348.390279 53.951497 
L 349.040889 54.028836 
L 349.691499 53.568 
L 350.34211 54.028836 
L 350.99272 54.262159 
L 351.64333 54.106393 
L 352.293941 53.797461 
L 352.944551 54.106393 
L 353.595161 53.874372 
L 354.245772 54.028836 
L 354.896382 53.644276 
L 355.546992 53.874372 
L 356.197602 53.951497 
L 356.848213 54.262159 
L 357.498823 54.184167 
L 358.149433 53.720763 
L 360.101264 53.874372 
L 360.751875 54.262159 
L 361.402485 54.184167 
L 362.053095 53.797461 
L 362.703706 53.720763 
L 363.354316 53.797461 
L 364.004926 54.184167 
L 364.655537 53.568 
L 365.956757 53.951497 
L 367.257978 53.720763 
L 367.908588 53.797461 
L 368.559198 54.106393 
L 369.209809 53.797461 
L 369.860419 54.184167 
L 370.511029 53.568 
L 371.16164 54.184167 
L 371.81225 53.720763 
L 372.46286 53.951497 
L 373.113471 53.720763 
L 373.764081 53.874372 
L 374.414691 53.644276 
L 375.065302 53.874372 
L 375.715912 53.644276 
L 376.366522 53.874372 
L 377.667743 53.797461 
L 378.318353 54.028836 
L 378.968963 53.644276 
L 380.270184 53.874372 
L 380.920794 54.106393 
L 381.571405 53.797461 
L 382.222015 53.720763 
L 382.872625 53.797461 
L 383.523236 53.720763 
L 384.173846 53.874372 
L 384.824456 53.797461 
L 385.475066 53.874372 
L 387.426897 53.720763 
L 389.378728 53.797461 
L 390.029339 54.028836 
L 393.28239 53.568 
L 393.933001 53.797461 
L 394.583611 53.644276 
L 397.186052 53.720763 
L 397.836662 53.797461 
L 398.487273 53.568 
L 398.487273 53.568 
" clip-path="url(#p44aff9046a)" style="fill: none; stroke: #ff0000; stroke-width: 1.5; stroke-linecap: square"/>
   </g>
   <g id="patch_3">
    <path d="M 57.6 307.584 
L 57.6 41.472 
" style="fill: none; stroke: #000000; stroke-width: 0.8; stroke-linejoin: miter; stroke-linecap: square"/>
   </g>
   <g id="patch_4">
    <path d="M 414.72 307.584 
L 414.72 41.472 
" style="fill: none; stroke: #000000; stroke-width: 0.8; stroke-linejoin: miter; stroke-linecap: square"/>
   </g>
   <g id="patch_5">
    <path d="M 57.6 307.584 
L 414.72 307.584 
" style="fill: none; stroke: #000000; stroke-width: 0.8; stroke-linejoin: miter; stroke-linecap: square"/>
   </g>
   <g id="patch_6">
    <path d="M 57.6 41.472 
L 414.72 41.472 
" style="fill: none; stroke: #000000; stroke-width: 0.8; stroke-linejoin: miter; stroke-linecap: square"/>
   </g>
   <g id="text_13">
    <!-- Population's average and best fitness -->
    <g transform="translate(123.529687 35.472)scale(0.12 -0.12)">
     <defs>
      <path id="DejaVuSans-50" d="M 1259 4147 
L 1259 2394 
L 2053 2394 
Q 2494 2394 2734 2622 
Q 2975 2850 2975 3272 
Q 2975 3691 2734 3919 
Q 2494 4147 2053 4147 
L 1259 4147 
z
M 628 4666 
L 2053 4666 
Q 2838 4666 3239 4311 
Q 3641 3956 3641 3272 
Q 3641 2581 3239 2228 
Q 2838 1875 2053 1875 
L 1259 1875 
L 1259 0 
L 628 0 
L 628 4666 
z
" transform="scale(0.015625)"/>
      <path id="DejaVuSans-70" d="M 1159 525 
L 1159 -1331 
L 581 -1331 
L 581 3500 
L 1159 3500 
L 1159 2969 
Q 1341 3281 1617 3432 
Q 1894 3584 2278 3584 
Q 2916 3584 3314 3078 
Q 3713 2572 3713 1747 
Q 3713 922 3314 415 
Q 2916 -91 2278 -91 
Q 1894 -91 1617 61 
Q 1341 213 1159 525 
z
M 3116 1747 
Q 3116 2381 2855 2742 
Q 2594 3103 2138 3103 
Q 1681 3103 1420 2742 
Q 1159 2381 1159 1747 
Q 1159 1113 1420 752 
Q 1681 391 2138 391 
Q 2594 391 2855 752 
Q 3116 1113 3116 1747 
z
" transform="scale(0.015625)"/>
      <path id="DejaVuSans-75" d="M 544 1381 
L 544 3500 
L 1119 3500 
L 1119 1403 
Q 1119 906 1312 657 
Q 1506 409 1894 409 
Q 2359 409 2629 706 
Q 2900 1003 2900 1516 
L 2900 3500 
L 3475 3500 
L 3475 0 
L 2900 0 
L 2900 538 
Q 2691 219 2414 64 
Q 2138 -91 1772 -91 
Q 1169 -91 856 284 
Q 544 659 544 1381 
z
M 1991 3584 
L 1991 3584 
z
" transform="scale(0.015625)"/>
      <path id="DejaVuSans-6c" d="M 603 4863 
L 1178 4863 
L 1178 0 
L 603 0 
L 603 4863 
z
" transform="scale(0.015625)"/>
      <path id="DejaVuSans-27" d="M 1147 4666 
L 1147 2931 
L 616 2931 
L 616 4666 
L 1147 4666 
z
" transform="scale(0.015625)"/>
      <path id="DejaVuSans-20" transform="scale(0.015625)"/>
      <path id="DejaVuSans-76" d="M 191 3500 
L 800 3500 
L 1894 563 
L 2988 3500 
L 3597 3500 
L 2284 0 
L 1503 0 
L 191 3500 
z
" transform="scale(0.015625)"/>
      <path id="DejaVuSans-67" d="M 2906 1791 
Q 2906 2416 2648 2759 
Q 2391 3103 1925 3103 
Q 1463 3103 1205 2759 
Q 947 2416 947 1791 
Q 947 1169 1205 825 
Q 1463 481 1925 481 
Q 2391 481 2648 825 
Q 2906 1169 2906 1791 
z
M 3481 434 
Q 3481 -459 3084 -895 
Q 2688 -1331 1869 -1331 
Q 1566 -1331 1297 -1286 
Q 1028 -1241 775 -1147 
L 775 -588 
Q 1028 -725 1275 -790 
Q 1522 -856 1778 -856 
Q 2344 -856 2625 -561 
Q 2906 -266 2906 331 
L 2906 616 
Q 2728 306 2450 153 
Q 2172 0 1784 0 
Q 1141 0 747 490 
Q 353 981 353 1791 
Q 353 2603 747 3093 
Q 1141 3584 1784 3584 
Q 2172 3584 2450 3431 
Q 2728 3278 2906 2969 
L 2906 3500 
L 3481 3500 
L 3481 434 
z
" transform="scale(0.015625)"/>
      <path id="DejaVuSans-64" d="M 2906 2969 
L 2906 4863 
L 3481 4863 
L 3481 0 
L 2906 0 
L 2906 525 
Q 2725 213 2448 61 
Q 2172 -91 1784 -91 
Q 1150 -91 751 415 
Q 353 922 353 1747 
Q 353 2572 751 3078 
Q 1150 3584 1784 3584 
Q 2172 3584 2448 3432 
Q 2725 3281 2906 2969 
z
M 947 1747 
Q 947 1113 1208 752 
Q 1469 391 1925 391 
Q 2381 391 2643 752 
Q 2906 1113 2906 1747 
Q 2906 2381 2643 2742 
Q 2381 3103 1925 3103 
Q 1469 3103 1208 2742 
Q 947 2381 947 1747 
z
" transform="scale(0.015625)"/>
      <path id="DejaVuSans-62" d="M 3116 1747 
Q 3116 2381 2855 2742 
Q 2594 3103 2138 3103 
Q 1681 3103 1420 2742 
Q 1159 2381 1159 1747 
Q 1159 1113 1420 752 
Q 1681 391 2138 391 
Q 2594 391 2855 752 
Q 3116 1113 3116 1747 
z
M 1159 2969 
Q 1341 3281 1617 3432 
Q 1894 3584 2278 3584 
Q 2916 3584 3314 3078 
Q 3713 2572 3713 1747 
Q 3713 922 3314 415 
Q 2916 -91 2278 -91 
Q 1894 -91 1617 61 
Q 1341 213 1159 525 
L 1159 0 
L 581 0 
L 581 4863 
L 1159 4863 
L 1159 2969 
z
" transform="scale(0.015625)"/>
      <path id="DejaVuSans-66" d="M 2375 4863 
L 2375 4384 
L 1825 4384 
Q 1516 4384 1395 4259 
Q 1275 4134 1275 3809 
L 1275 3500 
L 2222 3500 
L 2222 3053 
L 1275 3053 
L 1275 0 
L 697 0 
L 697 3053 
L 147 3053 
L 147 3500 
L 697 3500 
L 697 3744 
Q 697 4328 969 4595 
Q 1241 4863 1831 4863 
L 2375 4863 
z
" transform="scale(0.015625)"/>
     </defs>
     <use xlink:href="#DejaVuSans-50"/>
     <use xlink:href="#DejaVuSans-6f" x="56.677734"/>
     <use xlink:href="#DejaVuSans-70" x="117.859375"/>
     <use xlink:href="#DejaVuSans-75" x="181.335938"/>
     <use xlink:href="#DejaVuSans-6c" x="244.714844"/>
     <use xlink:href="#DejaVuSans-61" x="272.498047"/>
     <use xlink:href="#DejaVuSans-74" x="333.777344"/>
     <use xlink:href="#DejaVuSans-69" x="372.986328"/>
     <use xlink:href="#DejaVuSans-6f" x="400.769531"/>
     <use xlink:href="#DejaVuSans-6e" x="461.951172"/>
     <use xlink:href="#DejaVuSans-27" x="525.330078"/>
     <use xlink:href="#DejaVuSans-73" x="552.820312"/>
     <use xlink:href="#DejaVuSans-20" x="604.919922"/>
     <use xlink:href="#DejaVuSans-61" x="636.707031"/>
     <use xlink:href="#DejaVuSans-76" x="697.986328"/>
     <use xlink:href="#DejaVuSans-65" x="757.166016"/>
     <use xlink:href="#DejaVuSans-72" x="818.689453"/>
     <use xlink:href="#DejaVuSans-61" x="859.802734"/>
     <use xlink:href="#DejaVuSans-67" x="921.082031"/>
     <use xlink:href="#DejaVuSans-65" x="984.558594"/>
     <use xlink:href="#DejaVuSans-20" x="1046.082031"/>
     <use xlink:href="#DejaVuSans-61" x="1077.869141"/>
     <use xlink:href="#DejaVuSans-6e" x="1139.148438"/>
     <use xlink:href="#DejaVuSans-64" x="1202.527344"/>
     <use xlink:href="#DejaVuSans-20" x="1266.003906"/>
     <use xlink:href="#DejaVuSans-62" x="1297.791016"/>
     <use xlink:href="#DejaVuSans-65" x="1361.267578"/>
     <use xlink:href="#DejaVuSans-73" x="1422.791016"/>
     <use xlink:href="#DejaVuSans-74" x="1474.890625"/>
     <use xlink:href="#DejaVuSans-20" x="1514.099609"/>
     <use xlink:href="#DejaVuSans-66" x="1545.886719"/>
     <use xlink:href="#DejaVuSans-69" x="1581.091797"/>
     <use xlink:href="#DejaVuSans-74" x="1608.875"/>
     <use xlink:href="#DejaVuSans-6e" x="1648.083984"/>
     <use xlink:href="#DejaVuSans-65" x="1711.462891"/>
     <use xlink:href="#DejaVuSans-73" x="1772.986328"/>
     <use xlink:href="#DejaVuSans-73" x="1825.085938"/>
    </g>
   </g>
   <g id="legend_1">
    <g id="patch_7">
     <path d="M 64.6 302.584 
L 137.540625 302.584 
Q 139.540625 302.584 139.540625 300.584 
L 139.540625 242.8715 
Q 139.540625 240.8715 137.540625 240.8715 
L 64.6 240.8715 
Q 62.6 240.8715 62.6 242.8715 
L 62.6 300.584 
Q 62.6 302.584 64.6 302.584 
z
" style="fill: #ffffff; opacity: 0.8; stroke: #cccccc; stroke-linejoin: miter"/>
    </g>
    <g id="line2d_25">
     <path d="M 66.6 248.969937 
L 76.6 248.969937 
L 86.6 248.969937 
" style="fill: none; stroke: #0000ff; stroke-width: 1.5; stroke-linecap: square"/>
    </g>
    <g id="text_14">
     <!-- average -->
     <g transform="translate(94.6 252.469937)scale(0.1 -0.1)">
      <use xlink:href="#DejaVuSans-61"/>
      <use xlink:href="#DejaVuSans-76" x="61.279297"/>
      <use xlink:href="#DejaVuSans-65" x="120.458984"/>
      <use xlink:href="#DejaVuSans-72" x="181.982422"/>
      <use xlink:href="#DejaVuSans-61" x="223.095703"/>
      <use xlink:href="#DejaVuSans-67" x="284.375"/>
      <use xlink:href="#DejaVuSans-65" x="347.851562"/>
     </g>
    </g>
    <g id="line2d_26">
     <path d="M 66.6 263.648062 
L 76.6 263.648062 
L 86.6 263.648062 
" style="fill: none; stroke-dasharray: 9.6,2.4,1.5,2.4; stroke-dashoffset: 0; stroke: #008000; stroke-width: 1.5"/>
    </g>
    <g id="text_15">
     <!-- -1 sd -->
     <g transform="translate(94.6 267.148062)scale(0.1 -0.1)">
      <defs>
       <path id="DejaVuSans-2d" d="M 313 2009 
L 1997 2009 
L 1997 1497 
L 313 1497 
L 313 2009 
z
" transform="scale(0.015625)"/>
      </defs>
      <use xlink:href="#DejaVuSans-2d"/>
      <use xlink:href="#DejaVuSans-31" x="36.083984"/>
      <use xlink:href="#DejaVuSans-20" x="99.707031"/>
      <use xlink:href="#DejaVuSans-73" x="131.494141"/>
      <use xlink:href="#DejaVuSans-64" x="183.59375"/>
     </g>
    </g>
    <g id="line2d_27">
     <path d="M 66.6 278.326187 
L 76.6 278.326187 
L 86.6 278.326187 
" style="fill: none; stroke-dasharray: 9.6,2.4,1.5,2.4; stroke-dashoffset: 0; stroke: #008000; stroke-width: 1.5"/>
    </g>
    <g id="text_16">
     <!-- +1 sd -->
     <g transform="translate(94.6 281.826187)scale(0.1 -0.1)">
      <defs>
       <path id="DejaVuSans-2b" d="M 2944 4013 
L 2944 2272 
L 4684 2272 
L 4684 1741 
L 2944 1741 
L 2944 0 
L 2419 0 
L 2419 1741 
L 678 1741 
L 678 2272 
L 2419 2272 
L 2419 4013 
L 2944 4013 
z
" transform="scale(0.015625)"/>
      </defs>
      <use xlink:href="#DejaVuSans-2b"/>
      <use xlink:href="#DejaVuSans-31" x="83.789062"/>
      <use xlink:href="#DejaVuSans-20" x="147.412109"/>
      <use xlink:href="#DejaVuSans-73" x="179.199219"/>
      <use xlink:href="#DejaVuSans-64" x="231.298828"/>
     </g>
    </g>
    <g id="line2d_28">
     <path d="M 66.6 293.004312 
L 76.6 293.004312 
L 86.6 293.004312 
" style="fill: none; stroke: #ff0000; stroke-width: 1.5; stroke-linecap: square"/>
    </g>
    <g id="text_17">
     <!-- best -->
     <g transform="translate(94.6 296.504312)scale(0.1 -0.1)">
      <use xlink:href="#DejaVuSans-62"/>
      <use xlink:href="#DejaVuSans-65" x="63.476562"/>
      <use xlink:href="#DejaVuSans-73" x="125"/>
      <use xlink:href="#DejaVuSans-74" x="177.099609"/>
     </g>
    </g>
   </g>
  </g>
 </g>
 <defs>
  <clipPath id="p44aff9046a">
   <rect x="57.6" y="41.472" width="357.12" height="266.112"/>
  </clipPath>
 </defs>
</svg>
