<?xml version="1.0" encoding="UTF-8" standalone="no"?>
<!DOCTYPE svg PUBLIC "-//W3C//DTD SVG 1.1//EN"
 "http://www.w3.org/Graphics/SVG/1.1/DTD/svg11.dtd">
<!-- Generated by graphviz version 3.0.0 (20220226.1711)
 -->
<!-- Pages: 1 -->
<svg width="959pt" height="305pt"
 viewBox="0.00 0.00 959.11 305.12" xmlns="http://www.w3.org/2000/svg" xmlns:xlink="http://www.w3.org/1999/xlink">
<g id="graph0" class="graph" transform="scale(1 1) rotate(0) translate(4 301.12)">
<polygon fill="white" stroke="transparent" points="-4,4 -4,-301.12 955.11,-301.12 955.11,4 -4,4"/>
<!-- d_N_wall -->
<g id="node1" class="node">
<title>d_N_wall</title>
<polygon fill="lightgray" stroke="black" points="52,-297.12 0,-297.12 0,-279.12 52,-279.12 52,-297.12"/>
<text text-anchor="middle" x="26" y="-285.92" font-family="Times,serif" font-size="9.00">d_N_wall</text>
</g>
<!-- up -->
<g id="node13" class="node">
<title>up</title>
<ellipse fill="lightblue" stroke="black" cx="60" cy="-212.01" rx="18.27" ry="18.27"/>
<text text-anchor="middle" x="60" y="-209.81" font-family="Times,serif" font-size="9.00">up</text>
</g>
<!-- d_N_wall&#45;&gt;up -->
<g id="edge3" class="edge">
<title>d_N_wall&#45;&gt;up</title>
<path fill="none" stroke="red" stroke-width="3.81" d="M29.77,-278.91C34.24,-269.17 41.89,-252.48 48.38,-238.33"/>
<polygon fill="red" stroke="red" stroke-width="3.81" points="51.65,-239.61 52.64,-229.06 45.29,-236.69 51.65,-239.61"/>
</g>
<!-- d_S_wall -->
<g id="node2" class="node">
<title>d_S_wall</title>
<polygon fill="lightgray" stroke="black" points="116,-122.78 66,-122.78 66,-104.78 116,-104.78 116,-122.78"/>
<text text-anchor="middle" x="91" y="-111.58" font-family="Times,serif" font-size="9.00">d_S_wall</text>
</g>
<!-- left -->
<g id="node14" class="node">
<title>left</title>
<ellipse fill="lightblue" stroke="black" cx="91" cy="-23.33" rx="19.6" ry="19.6"/>
<text text-anchor="middle" x="91" y="-21.13" font-family="Times,serif" font-size="9.00">left</text>
</g>
<!-- d_S_wall&#45;&gt;left -->
<g id="edge9" class="edge">
<title>d_S_wall&#45;&gt;left</title>
<path fill="none" stroke="red" stroke-width="0.23" d="M91,-104.62C91,-93.04 91,-71.24 91,-53.28"/>
<polygon fill="red" stroke="red" stroke-width="0.23" points="94.5,-53.25 91,-43.25 87.5,-53.25 94.5,-53.25"/>
</g>
<!-- right -->
<g id="node16" class="node">
<title>right</title>
<ellipse fill="lightblue" stroke="black" cx="158" cy="-23.33" rx="23.17" ry="23.17"/>
<text text-anchor="middle" x="158" y="-21.13" font-family="Times,serif" font-size="9.00">right</text>
</g>
<!-- d_S_wall&#45;&gt;right -->
<g id="edge1" class="edge">
<title>d_S_wall&#45;&gt;right</title>
<path fill="none" stroke="green" stroke-width="3.47" d="M97.18,-104.62C106.4,-92.46 124.14,-69.03 138.1,-50.61"/>
<polygon fill="green" stroke="green" stroke-width="3.47" points="140.95,-52.64 144.2,-42.55 135.37,-48.41 140.95,-52.64"/>
</g>
<!-- d_E_wall -->
<g id="node3" class="node">
<title>d_E_wall</title>
<polygon fill="lightgray" stroke="black" points="120,-297.12 70,-297.12 70,-279.12 120,-279.12 120,-297.12"/>
<text text-anchor="middle" x="95" y="-285.92" font-family="Times,serif" font-size="9.00">d_E_wall</text>
</g>
<!-- d_E_wall&#45;&gt;up -->
<g id="edge2" class="edge">
<title>d_E_wall&#45;&gt;up</title>
<path fill="none" stroke="green" stroke-width="4.26" d="M91.12,-278.91C86.52,-269.17 78.64,-252.48 71.96,-238.33"/>
<polygon fill="green" stroke="green" stroke-width="4.26" points="75.22,-236.51 67.58,-229.06 68.48,-239.69 75.22,-236.51"/>
</g>
<!-- d_W_wall -->
<g id="node4" class="node">
<title>d_W_wall</title>
<polygon fill="lightgray" stroke="black" points="694.5,-297.12 641.5,-297.12 641.5,-279.12 694.5,-279.12 694.5,-297.12"/>
<text text-anchor="middle" x="668" y="-285.92" font-family="Times,serif" font-size="9.00">d_W_wall</text>
</g>
<!-- down -->
<g id="node15" class="node">
<title>down</title>
<ellipse fill="lightblue" stroke="black" cx="636" cy="-212.01" rx="26.33" ry="26.33"/>
<text text-anchor="middle" x="636" y="-209.81" font-family="Times,serif" font-size="9.00">down</text>
</g>
<!-- d_W_wall&#45;&gt;down -->
<g id="edge4" class="edge">
<title>d_W_wall&#45;&gt;down</title>
<path fill="none" stroke="green" stroke-width="1.55" d="M664.45,-278.91C660.99,-270.88 655.48,-258.12 650.23,-245.96"/>
<polygon fill="green" stroke="green" stroke-width="1.55" points="653.29,-244.23 646.12,-236.44 646.87,-247 653.29,-244.23"/>
</g>
<!-- tail_N -->
<g id="node5" class="node">
<title>tail_N</title>
<polygon fill="lightgray" stroke="black" points="814,-297.12 776,-297.12 776,-279.12 814,-279.12 814,-297.12"/>
<text text-anchor="middle" x="795" y="-285.92" font-family="Times,serif" font-size="9.00">tail_N</text>
</g>
<!-- tail_S -->
<g id="node6" class="node">
<title>tail_S</title>
<polygon fill="lightgray" stroke="black" points="499.5,-297.12 462.5,-297.12 462.5,-279.12 499.5,-279.12 499.5,-297.12"/>
<text text-anchor="middle" x="481" y="-285.92" font-family="Times,serif" font-size="9.00">tail_S</text>
</g>
<!-- 162513 -->
<g id="node23" class="node">
<title>162513</title>
<ellipse fill="white" stroke="black" cx="561" cy="-212.01" rx="31.23" ry="31.23"/>
<text text-anchor="middle" x="561" y="-209.81" font-family="Times,serif" font-size="9.00">162513</text>
</g>
<!-- tail_S&#45;&gt;162513 -->
<g id="edge12" class="edge">
<title>tail_S&#45;&gt;162513</title>
<path fill="none" stroke="green" stroke-width="0.32" stroke-dasharray="1,5" d="M489.87,-278.91C499.77,-269.73 516.35,-254.37 531.01,-240.79"/>
<polygon fill="green" stroke="green" stroke-width="0.32" points="533.5,-243.25 538.46,-233.89 528.74,-238.12 533.5,-243.25"/>
</g>
<!-- 185686 -->
<g id="node25" class="node">
<title>185686</title>
<ellipse fill="white" stroke="black" cx="481" cy="-212.01" rx="31.23" ry="31.23"/>
<text text-anchor="middle" x="481" y="-209.81" font-family="Times,serif" font-size="9.00">185686</text>
</g>
<!-- tail_S&#45;&gt;185686 -->
<g id="edge22" class="edge">
<title>tail_S&#45;&gt;185686</title>
<path fill="none" stroke="red" stroke-width="0.68" stroke-dasharray="1,5" d="M481,-278.91C481,-272.53 481,-263.17 481,-253.49"/>
<polygon fill="red" stroke="red" stroke-width="0.68" points="484.5,-253.41 481,-243.41 477.5,-253.41 484.5,-253.41"/>
</g>
<!-- tail_E -->
<g id="node7" class="node">
<title>tail_E</title>
<polygon fill="lightgray" stroke="black" points="292.5,-297.12 255.5,-297.12 255.5,-279.12 292.5,-279.12 292.5,-297.12"/>
<text text-anchor="middle" x="274" y="-285.92" font-family="Times,serif" font-size="9.00">tail_E</text>
</g>
<!-- 188651 -->
<g id="node19" class="node">
<title>188651</title>
<ellipse fill="white" stroke="black" cx="165" cy="-212.01" rx="31.23" ry="31.23"/>
<text text-anchor="middle" x="165" y="-209.81" font-family="Times,serif" font-size="9.00">188651</text>
</g>
<!-- tail_E&#45;&gt;188651 -->
<g id="edge25" class="edge">
<title>tail_E&#45;&gt;188651</title>
<path fill="none" stroke="green" stroke-width="0.36" d="M260.57,-278.99C246.52,-270.37 223.91,-256.24 205,-243.12 202.59,-241.45 200.12,-239.69 197.65,-237.91"/>
<polygon fill="green" stroke="green" stroke-width="0.36" points="199.45,-234.89 189.32,-231.79 195.3,-240.53 199.45,-234.89"/>
</g>
<!-- 183438 -->
<g id="node20" class="node">
<title>183438</title>
<ellipse fill="white" stroke="black" cx="245" cy="-212.01" rx="31.23" ry="31.23"/>
<text text-anchor="middle" x="245" y="-209.81" font-family="Times,serif" font-size="9.00">183438</text>
</g>
<!-- tail_E&#45;&gt;183438 -->
<g id="edge16" class="edge">
<title>tail_E&#45;&gt;183438</title>
<path fill="none" stroke="green" stroke-width="0.17" stroke-dasharray="1,5" d="M270.79,-278.91C268.08,-271.98 263.99,-261.54 259.86,-251"/>
<polygon fill="green" stroke="green" stroke-width="0.17" points="263.01,-249.42 256.1,-241.38 256.49,-251.97 263.01,-249.42"/>
</g>
<!-- 184143 -->
<g id="node21" class="node">
<title>184143</title>
<ellipse fill="white" stroke="black" cx="422" cy="-113.78" rx="31.23" ry="31.23"/>
<text text-anchor="middle" x="422" y="-111.58" font-family="Times,serif" font-size="9.00">184143</text>
</g>
<!-- tail_E&#45;&gt;184143 -->
<g id="edge19" class="edge">
<title>tail_E&#45;&gt;184143</title>
<path fill="none" stroke="green" stroke-width="0.26" d="M276.06,-279.1C281.25,-260.19 296.35,-212.08 323,-180.89 340.12,-160.86 364.73,-144.39 385.14,-132.9"/>
<polygon fill="green" stroke="green" stroke-width="0.26" points="387.07,-135.83 394.17,-127.97 383.72,-129.68 387.07,-135.83"/>
</g>
<!-- 183191 -->
<g id="node22" class="node">
<title>183191</title>
<ellipse fill="white" stroke="black" cx="165" cy="-113.78" rx="31.23" ry="31.23"/>
<text text-anchor="middle" x="165" y="-111.58" font-family="Times,serif" font-size="9.00">183191</text>
</g>
<!-- tail_E&#45;&gt;183191 -->
<g id="edge14" class="edge">
<title>tail_E&#45;&gt;183191</title>
<path fill="none" stroke="red" stroke-width="0.28" stroke-dasharray="1,5" d="M255.26,-288.04C222.54,-288.5 155.6,-284.06 125,-243.12 103.82,-214.78 121.75,-175 139.9,-147.27"/>
<polygon fill="red" stroke="red" stroke-width="0.28" points="142.99,-148.95 145.75,-138.72 137.21,-144.99 142.99,-148.95"/>
</g>
<!-- tail_E&#45;&gt;185686 -->
<g id="edge20" class="edge">
<title>tail_E&#45;&gt;185686</title>
<path fill="none" stroke="green" stroke-width="0.4" d="M292.65,-284.09C323.5,-278.64 386.67,-265.59 436,-243.12 440.06,-241.27 444.15,-239.08 448.14,-236.72"/>
<polygon fill="green" stroke="green" stroke-width="0.4" points="450.01,-239.68 456.62,-231.4 446.28,-233.75 450.01,-239.68"/>
</g>
<!-- 159575 -->
<g id="node26" class="node">
<title>159575</title>
<ellipse fill="white" stroke="black" cx="636" cy="-113.78" rx="31.23" ry="31.23"/>
<text text-anchor="middle" x="636" y="-111.58" font-family="Times,serif" font-size="9.00">159575</text>
</g>
<!-- tail_E&#45;&gt;159575 -->
<g id="edge11" class="edge">
<title>tail_E&#45;&gt;159575</title>
<path fill="none" stroke="green" stroke-width="0.16" d="M292.57,-284.83C319.49,-280.69 369.76,-269.76 403,-243.12 428.29,-222.85 415.7,-201.14 441,-180.89 486.39,-144.59 552.78,-127.73 595.19,-120.26"/>
<polygon fill="green" stroke="green" stroke-width="0.16" points="595.88,-123.7 605.17,-118.6 594.73,-116.79 595.88,-123.7"/>
</g>
<!-- tail_W -->
<g id="node8" class="node">
<title>tail_W</title>
<polygon fill="lightgray" stroke="black" points="623,-297.12 583,-297.12 583,-279.12 623,-279.12 623,-297.12"/>
<text text-anchor="middle" x="603" y="-285.92" font-family="Times,serif" font-size="9.00">tail_W</text>
</g>
<!-- tail_W&#45;&gt;down -->
<g id="edge8" class="edge">
<title>tail_W&#45;&gt;down</title>
<path fill="none" stroke="green" stroke-width="0.15" d="M606.66,-278.91C610.29,-270.74 616.11,-257.67 621.61,-245.33"/>
<polygon fill="green" stroke="green" stroke-width="0.15" points="624.84,-246.67 625.71,-236.11 618.45,-243.83 624.84,-246.67"/>
</g>
<!-- tail_W&#45;&gt;162513 -->
<g id="edge10" class="edge">
<title>tail_W&#45;&gt;162513</title>
<path fill="none" stroke="red" stroke-width="0.33" d="M598.34,-278.91C594.1,-271.41 587.52,-259.8 581.06,-248.4"/>
<polygon fill="red" stroke="red" stroke-width="0.33" points="583.92,-246.36 575.95,-239.38 577.83,-249.81 583.92,-246.36"/>
</g>
<!-- apple_N -->
<g id="node9" class="node">
<title>apple_N</title>
<polygon fill="lightgray" stroke="black" points="564.5,-297.12 517.5,-297.12 517.5,-279.12 564.5,-279.12 564.5,-297.12"/>
<text text-anchor="middle" x="541" y="-285.92" font-family="Times,serif" font-size="9.00">apple_N</text>
</g>
<!-- apple_N&#45;&gt;162513 -->
<g id="edge24" class="edge">
<title>apple_N&#45;&gt;162513</title>
<path fill="none" stroke="red" stroke-width="0.15" d="M543.22,-278.91C545.02,-272.22 547.71,-262.26 550.45,-252.1"/>
<polygon fill="red" stroke="red" stroke-width="0.15" points="553.84,-252.96 553.07,-242.39 547.09,-251.14 553.84,-252.96"/>
</g>
<!-- apple_S -->
<g id="node10" class="node">
<title>apple_S</title>
<polygon fill="lightgray" stroke="black" points="757.5,-297.12 712.5,-297.12 712.5,-279.12 757.5,-279.12 757.5,-297.12"/>
<text text-anchor="middle" x="735" y="-285.92" font-family="Times,serif" font-size="9.00">apple_S</text>
</g>
<!-- apple_S&#45;&gt;down -->
<g id="edge5" class="edge">
<title>apple_S&#45;&gt;down</title>
<path fill="none" stroke="green" stroke-width="2.27" d="M722.45,-279.07C709.34,-270.53 688.3,-256.45 671,-243.12 668.4,-241.11 665.73,-238.98 663.09,-236.81"/>
<polygon fill="green" stroke="green" stroke-width="2.27" points="665.22,-234.03 655.31,-230.27 660.71,-239.38 665.22,-234.03"/>
</g>
<!-- apple_E -->
<g id="node11" class="node">
<title>apple_E</title>
<polygon fill="lightgray" stroke="black" points="877.5,-297.12 832.5,-297.12 832.5,-279.12 877.5,-279.12 877.5,-297.12"/>
<text text-anchor="middle" x="855" y="-285.92" font-family="Times,serif" font-size="9.00">apple_E</text>
</g>
<!-- apple_W -->
<g id="node12" class="node">
<title>apple_W</title>
<polygon fill="lightgray" stroke="black" points="944,-297.12 896,-297.12 896,-279.12 944,-279.12 944,-297.12"/>
<text text-anchor="middle" x="920" y="-285.92" font-family="Times,serif" font-size="9.00">apple_W</text>
</g>
<!-- 177153 -->
<g id="node17" class="node">
<title>177153</title>
<ellipse fill="white" stroke="black" cx="920" cy="-212.01" rx="31.23" ry="31.23"/>
<text text-anchor="middle" x="920" y="-209.81" font-family="Times,serif" font-size="9.00">177153</text>
</g>
<!-- apple_W&#45;&gt;177153 -->
<g id="edge13" class="edge">
<title>apple_W&#45;&gt;177153</title>
<path fill="none" stroke="green" stroke-width="0.2" d="M920,-278.91C920,-272.53 920,-263.17 920,-253.49"/>
<polygon fill="green" stroke="green" stroke-width="0.2" points="923.5,-253.41 920,-243.41 916.5,-253.41 923.5,-253.41"/>
</g>
<!-- down&#45;&gt;184143 -->
<g id="edge17" class="edge">
<title>down&#45;&gt;184143</title>
<path fill="none" stroke="red" stroke-width="0.53" d="M617.69,-193.12C612.57,-188.73 606.8,-184.31 601,-180.89 556.38,-154.62 499.52,-135.79 462,-125.1"/>
<polygon fill="red" stroke="red" stroke-width="0.53" points="462.52,-121.61 451.95,-122.3 460.65,-128.36 462.52,-121.61"/>
</g>
<!-- down&#45;&gt;159575 -->
<g id="edge6" class="edge">
<title>down&#45;&gt;159575</title>
<path fill="none" stroke="green" stroke-width="0.33" d="M636,-185.73C636,-176.37 636,-165.52 636,-155.15"/>
<polygon fill="green" stroke="green" stroke-width="0.33" points="639.5,-155.03 636,-145.03 632.5,-155.03 639.5,-155.03"/>
</g>
<!-- 186338 -->
<g id="node18" class="node">
<title>186338</title>
<ellipse fill="white" stroke="black" cx="363" cy="-212.01" rx="31.23" ry="31.23"/>
<text text-anchor="middle" x="363" y="-209.81" font-family="Times,serif" font-size="9.00">186338</text>
</g>
<!-- 186338&#45;&gt;184143 -->
<g id="edge23" class="edge">
<title>186338&#45;&gt;184143</title>
<path fill="none" stroke="green" stroke-width="0.33" d="M378.97,-184.97C385.66,-174.06 393.53,-161.21 400.7,-149.51"/>
<polygon fill="green" stroke="green" stroke-width="0.33" points="403.78,-151.2 406.02,-140.84 397.81,-147.54 403.78,-151.2"/>
</g>
<!-- 188651&#45;&gt;183191 -->
<g id="edge26" class="edge">
<title>188651&#45;&gt;183191</title>
<path fill="none" stroke="red" stroke-width="0.29" d="M165,-180.82C165,-172.75 165,-163.9 165,-155.36"/>
<polygon fill="red" stroke="red" stroke-width="0.29" points="168.5,-155.19 165,-145.19 161.5,-155.19 168.5,-155.19"/>
</g>
<!-- 183191&#45;&gt;right -->
<g id="edge15" class="edge">
<title>183191&#45;&gt;right</title>
<path fill="none" stroke="green" stroke-width="0.2" d="M162.59,-82.34C161.94,-74.12 161.23,-65.19 160.57,-56.86"/>
<polygon fill="green" stroke="green" stroke-width="0.2" points="164.05,-56.42 159.77,-46.73 157.07,-56.97 164.05,-56.42"/>
</g>
<!-- 162513&#45;&gt;183191 -->
<g id="edge18" class="edge">
<title>162513&#45;&gt;183191</title>
<path fill="none" stroke="green" stroke-width="0.32" d="M538.02,-190.92C532.71,-187.09 526.89,-183.48 521,-180.89 464.83,-156.18 287.28,-130.71 206.16,-120.01"/>
<polygon fill="green" stroke="green" stroke-width="0.32" points="206.2,-116.49 195.83,-118.66 205.3,-123.43 206.2,-116.49"/>
</g>
<!-- 145075 -->
<g id="node24" class="node">
<title>145075</title>
<ellipse fill="white" stroke="black" cx="711" cy="-212.01" rx="31.23" ry="31.23"/>
<text text-anchor="middle" x="711" y="-209.81" font-family="Times,serif" font-size="9.00">145075</text>
</g>
<!-- 145075&#45;&gt;159575 -->
<g id="edge7" class="edge">
<title>145075&#45;&gt;159575</title>
<path fill="none" stroke="red" stroke-width="0.38" d="M692.07,-186.73C682.68,-174.67 671.2,-159.94 661.08,-146.96"/>
<polygon fill="red" stroke="red" stroke-width="0.38" points="663.57,-144.46 654.66,-138.72 658.05,-148.76 663.57,-144.46"/>
</g>
<!-- 185686&#45;&gt;184143 -->
<g id="edge21" class="edge">
<title>185686&#45;&gt;184143</title>
<path fill="none" stroke="red" stroke-width="0.22" d="M465.03,-184.97C458.34,-174.06 450.47,-161.21 443.3,-149.51"/>
<polygon fill="red" stroke="red" stroke-width="0.22" points="446.19,-147.54 437.98,-140.84 440.22,-151.2 446.19,-147.54"/>
</g>
</g>
</svg>
