<?xml version="1.0" encoding="utf-8" standalone="no"?>
<!DOCTYPE svg PUBLIC "-//W3C//DTD SVG 1.1//EN"
  "http://www.w3.org/Graphics/SVG/1.1/DTD/svg11.dtd">
<svg xmlns:xlink="http://www.w3.org/1999/xlink" width="460.8pt" height="345.6pt" viewBox="0 0 460.8 345.6" xmlns="http://www.w3.org/2000/svg" version="1.1">
 <metadata>
  <rdf:RDF xmlns:dc="http://purl.org/dc/elements/1.1/" xmlns:cc="http://creativecommons.org/ns#" xmlns:rdf="http://www.w3.org/1999/02/22-rdf-syntax-ns#">
   <cc:Work>
    <dc:type rdf:resource="http://purl.org/dc/dcmitype/StillImage"/>
    <dc:date>2022-12-08T16:08:51.970134</dc:date>
    <dc:format>image/svg+xml</dc:format>
    <dc:creator>
     <cc:Agent>
      <dc:title>Matplotlib v3.5.3, https://matplotlib.org/</dc:title>
     </cc:Agent>
    </dc:creator>
   </cc:Work>
  </rdf:RDF>
 </metadata>
 <defs>
  <style type="text/css">*{stroke-linejoin: round; stroke-linecap: butt}</style>
 </defs>
 <g id="figure_1">
  <g id="patch_1">
   <path d="M 0 345.6 
L 460.8 345.6 
L 460.8 0 
L 0 0 
z
" style="fill: #ffffff"/>
  </g>
  <g id="axes_1">
   <g id="patch_2">
    <path d="M 57.6 307.584 
L 414.72 307.584 
L 414.72 41.472 
L 57.6 41.472 
z
" style="fill: #ffffff"/>
   </g>
   <g id="matplotlib.axis_1">
    <g id="xtick_1">
     <g id="line2d_1">
      <path d="M 73.832727 307.584 
L 73.832727 41.472 
" clip-path="url(#p7c09928eeb)" style="fill: none; stroke: #b0b0b0; stroke-width: 0.8; stroke-linecap: square"/>
     </g>
     <g id="line2d_2">
      <defs>
       <path id="ma9b477c167" d="M 0 0 
L 0 3.5 
" style="stroke: #000000; stroke-width: 0.8"/>
      </defs>
      <g>
       <use xlink:href="#ma9b477c167" x="73.832727" y="307.584" style="stroke: #000000; stroke-width: 0.8"/>
      </g>
     </g>
     <g id="text_1">
      <!-- 0 -->
      <g transform="translate(70.651477 322.182437)scale(0.1 -0.1)">
       <defs>
        <path id="DejaVuSans-30" d="M 2034 4250 
Q 1547 4250 1301 3770 
Q 1056 3291 1056 2328 
Q 1056 1369 1301 889 
Q 1547 409 2034 409 
Q 2525 409 2770 889 
Q 3016 1369 3016 2328 
Q 3016 3291 2770 3770 
Q 2525 4250 2034 4250 
z
M 2034 4750 
Q 2819 4750 3233 4129 
Q 3647 3509 3647 2328 
Q 3647 1150 3233 529 
Q 2819 -91 2034 -91 
Q 1250 -91 836 529 
Q 422 1150 422 2328 
Q 422 3509 836 4129 
Q 1250 4750 2034 4750 
z
" transform="scale(0.015625)"/>
       </defs>
       <use xlink:href="#DejaVuSans-30"/>
      </g>
     </g>
    </g>
    <g id="xtick_2">
     <g id="line2d_3">
      <path d="M 138.893758 307.584 
L 138.893758 41.472 
" clip-path="url(#p7c09928eeb)" style="fill: none; stroke: #b0b0b0; stroke-width: 0.8; stroke-linecap: square"/>
     </g>
     <g id="line2d_4">
      <g>
       <use xlink:href="#ma9b477c167" x="138.893758" y="307.584" style="stroke: #000000; stroke-width: 0.8"/>
      </g>
     </g>
     <g id="text_2">
      <!-- 100 -->
      <g transform="translate(129.350008 322.182437)scale(0.1 -0.1)">
       <defs>
        <path id="DejaVuSans-31" d="M 794 531 
L 1825 531 
L 1825 4091 
L 703 3866 
L 703 4441 
L 1819 4666 
L 2450 4666 
L 2450 531 
L 3481 531 
L 3481 0 
L 794 0 
L 794 531 
z
" transform="scale(0.015625)"/>
       </defs>
       <use xlink:href="#DejaVuSans-31"/>
       <use xlink:href="#DejaVuSans-30" x="63.623047"/>
       <use xlink:href="#DejaVuSans-30" x="127.246094"/>
      </g>
     </g>
    </g>
    <g id="xtick_3">
     <g id="line2d_5">
      <path d="M 203.95479 307.584 
L 203.95479 41.472 
" clip-path="url(#p7c09928eeb)" style="fill: none; stroke: #b0b0b0; stroke-width: 0.8; stroke-linecap: square"/>
     </g>
     <g id="line2d_6">
      <g>
       <use xlink:href="#ma9b477c167" x="203.95479" y="307.584" style="stroke: #000000; stroke-width: 0.8"/>
      </g>
     </g>
     <g id="text_3">
      <!-- 200 -->
      <g transform="translate(194.41104 322.182437)scale(0.1 -0.1)">
       <defs>
        <path id="DejaVuSans-32" d="M 1228 531 
L 3431 531 
L 3431 0 
L 469 0 
L 469 531 
Q 828 903 1448 1529 
Q 2069 2156 2228 2338 
Q 2531 2678 2651 2914 
Q 2772 3150 2772 3378 
Q 2772 3750 2511 3984 
Q 2250 4219 1831 4219 
Q 1534 4219 1204 4116 
Q 875 4013 500 3803 
L 500 4441 
Q 881 4594 1212 4672 
Q 1544 4750 1819 4750 
Q 2544 4750 2975 4387 
Q 3406 4025 3406 3419 
Q 3406 3131 3298 2873 
Q 3191 2616 2906 2266 
Q 2828 2175 2409 1742 
Q 1991 1309 1228 531 
z
" transform="scale(0.015625)"/>
       </defs>
       <use xlink:href="#DejaVuSans-32"/>
       <use xlink:href="#DejaVuSans-30" x="63.623047"/>
       <use xlink:href="#DejaVuSans-30" x="127.246094"/>
      </g>
     </g>
    </g>
    <g id="xtick_4">
     <g id="line2d_7">
      <path d="M 269.015821 307.584 
L 269.015821 41.472 
" clip-path="url(#p7c09928eeb)" style="fill: none; stroke: #b0b0b0; stroke-width: 0.8; stroke-linecap: square"/>
     </g>
     <g id="line2d_8">
      <g>
       <use xlink:href="#ma9b477c167" x="269.015821" y="307.584" style="stroke: #000000; stroke-width: 0.8"/>
      </g>
     </g>
     <g id="text_4">
      <!-- 300 -->
      <g transform="translate(259.472071 322.182437)scale(0.1 -0.1)">
       <defs>
        <path id="DejaVuSans-33" d="M 2597 2516 
Q 3050 2419 3304 2112 
Q 3559 1806 3559 1356 
Q 3559 666 3084 287 
Q 2609 -91 1734 -91 
Q 1441 -91 1130 -33 
Q 819 25 488 141 
L 488 750 
Q 750 597 1062 519 
Q 1375 441 1716 441 
Q 2309 441 2620 675 
Q 2931 909 2931 1356 
Q 2931 1769 2642 2001 
Q 2353 2234 1838 2234 
L 1294 2234 
L 1294 2753 
L 1863 2753 
Q 2328 2753 2575 2939 
Q 2822 3125 2822 3475 
Q 2822 3834 2567 4026 
Q 2313 4219 1838 4219 
Q 1578 4219 1281 4162 
Q 984 4106 628 3988 
L 628 4550 
Q 988 4650 1302 4700 
Q 1616 4750 1894 4750 
Q 2613 4750 3031 4423 
Q 3450 4097 3450 3541 
Q 3450 3153 3228 2886 
Q 3006 2619 2597 2516 
z
" transform="scale(0.015625)"/>
       </defs>
       <use xlink:href="#DejaVuSans-33"/>
       <use xlink:href="#DejaVuSans-30" x="63.623047"/>
       <use xlink:href="#DejaVuSans-30" x="127.246094"/>
      </g>
     </g>
    </g>
    <g id="xtick_5">
     <g id="line2d_9">
      <path d="M 334.076852 307.584 
L 334.076852 41.472 
" clip-path="url(#p7c09928eeb)" style="fill: none; stroke: #b0b0b0; stroke-width: 0.8; stroke-linecap: square"/>
     </g>
     <g id="line2d_10">
      <g>
       <use xlink:href="#ma9b477c167" x="334.076852" y="307.584" style="stroke: #000000; stroke-width: 0.8"/>
      </g>
     </g>
     <g id="text_5">
      <!-- 400 -->
      <g transform="translate(324.533102 322.182437)scale(0.1 -0.1)">
       <defs>
        <path id="DejaVuSans-34" d="M 2419 4116 
L 825 1625 
L 2419 1625 
L 2419 4116 
z
M 2253 4666 
L 3047 4666 
L 3047 1625 
L 3713 1625 
L 3713 1100 
L 3047 1100 
L 3047 0 
L 2419 0 
L 2419 1100 
L 313 1100 
L 313 1709 
L 2253 4666 
z
" transform="scale(0.015625)"/>
       </defs>
       <use xlink:href="#DejaVuSans-34"/>
       <use xlink:href="#DejaVuSans-30" x="63.623047"/>
       <use xlink:href="#DejaVuSans-30" x="127.246094"/>
      </g>
     </g>
    </g>
    <g id="xtick_6">
     <g id="line2d_11">
      <path d="M 399.137883 307.584 
L 399.137883 41.472 
" clip-path="url(#p7c09928eeb)" style="fill: none; stroke: #b0b0b0; stroke-width: 0.8; stroke-linecap: square"/>
     </g>
     <g id="line2d_12">
      <g>
       <use xlink:href="#ma9b477c167" x="399.137883" y="307.584" style="stroke: #000000; stroke-width: 0.8"/>
      </g>
     </g>
     <g id="text_6">
      <!-- 500 -->
      <g transform="translate(389.594133 322.182437)scale(0.1 -0.1)">
       <defs>
        <path id="DejaVuSans-35" d="M 691 4666 
L 3169 4666 
L 3169 4134 
L 1269 4134 
L 1269 2991 
Q 1406 3038 1543 3061 
Q 1681 3084 1819 3084 
Q 2600 3084 3056 2656 
Q 3513 2228 3513 1497 
Q 3513 744 3044 326 
Q 2575 -91 1722 -91 
Q 1428 -91 1123 -41 
Q 819 9 494 109 
L 494 744 
Q 775 591 1075 516 
Q 1375 441 1709 441 
Q 2250 441 2565 725 
Q 2881 1009 2881 1497 
Q 2881 1984 2565 2268 
Q 2250 2553 1709 2553 
Q 1456 2553 1204 2497 
Q 953 2441 691 2322 
L 691 4666 
z
" transform="scale(0.015625)"/>
       </defs>
       <use xlink:href="#DejaVuSans-35"/>
       <use xlink:href="#DejaVuSans-30" x="63.623047"/>
       <use xlink:href="#DejaVuSans-30" x="127.246094"/>
      </g>
     </g>
    </g>
    <g id="text_7">
     <!-- Generations -->
     <g transform="translate(205.662344 335.860562)scale(0.1 -0.1)">
      <defs>
       <path id="DejaVuSans-47" d="M 3809 666 
L 3809 1919 
L 2778 1919 
L 2778 2438 
L 4434 2438 
L 4434 434 
Q 4069 175 3628 42 
Q 3188 -91 2688 -91 
Q 1594 -91 976 548 
Q 359 1188 359 2328 
Q 359 3472 976 4111 
Q 1594 4750 2688 4750 
Q 3144 4750 3555 4637 
Q 3966 4525 4313 4306 
L 4313 3634 
Q 3963 3931 3569 4081 
Q 3175 4231 2741 4231 
Q 1884 4231 1454 3753 
Q 1025 3275 1025 2328 
Q 1025 1384 1454 906 
Q 1884 428 2741 428 
Q 3075 428 3337 486 
Q 3600 544 3809 666 
z
" transform="scale(0.015625)"/>
       <path id="DejaVuSans-65" d="M 3597 1894 
L 3597 1613 
L 953 1613 
Q 991 1019 1311 708 
Q 1631 397 2203 397 
Q 2534 397 2845 478 
Q 3156 559 3463 722 
L 3463 178 
Q 3153 47 2828 -22 
Q 2503 -91 2169 -91 
Q 1331 -91 842 396 
Q 353 884 353 1716 
Q 353 2575 817 3079 
Q 1281 3584 2069 3584 
Q 2775 3584 3186 3129 
Q 3597 2675 3597 1894 
z
M 3022 2063 
Q 3016 2534 2758 2815 
Q 2500 3097 2075 3097 
Q 1594 3097 1305 2825 
Q 1016 2553 972 2059 
L 3022 2063 
z
" transform="scale(0.015625)"/>
       <path id="DejaVuSans-6e" d="M 3513 2113 
L 3513 0 
L 2938 0 
L 2938 2094 
Q 2938 2591 2744 2837 
Q 2550 3084 2163 3084 
Q 1697 3084 1428 2787 
Q 1159 2491 1159 1978 
L 1159 0 
L 581 0 
L 581 3500 
L 1159 3500 
L 1159 2956 
Q 1366 3272 1645 3428 
Q 1925 3584 2291 3584 
Q 2894 3584 3203 3211 
Q 3513 2838 3513 2113 
z
" transform="scale(0.015625)"/>
       <path id="DejaVuSans-72" d="M 2631 2963 
Q 2534 3019 2420 3045 
Q 2306 3072 2169 3072 
Q 1681 3072 1420 2755 
Q 1159 2438 1159 1844 
L 1159 0 
L 581 0 
L 581 3500 
L 1159 3500 
L 1159 2956 
Q 1341 3275 1631 3429 
Q 1922 3584 2338 3584 
Q 2397 3584 2469 3576 
Q 2541 3569 2628 3553 
L 2631 2963 
z
" transform="scale(0.015625)"/>
       <path id="DejaVuSans-61" d="M 2194 1759 
Q 1497 1759 1228 1600 
Q 959 1441 959 1056 
Q 959 750 1161 570 
Q 1363 391 1709 391 
Q 2188 391 2477 730 
Q 2766 1069 2766 1631 
L 2766 1759 
L 2194 1759 
z
M 3341 1997 
L 3341 0 
L 2766 0 
L 2766 531 
Q 2569 213 2275 61 
Q 1981 -91 1556 -91 
Q 1019 -91 701 211 
Q 384 513 384 1019 
Q 384 1609 779 1909 
Q 1175 2209 1959 2209 
L 2766 2209 
L 2766 2266 
Q 2766 2663 2505 2880 
Q 2244 3097 1772 3097 
Q 1472 3097 1187 3025 
Q 903 2953 641 2809 
L 641 3341 
Q 956 3463 1253 3523 
Q 1550 3584 1831 3584 
Q 2591 3584 2966 3190 
Q 3341 2797 3341 1997 
z
" transform="scale(0.015625)"/>
       <path id="DejaVuSans-74" d="M 1172 4494 
L 1172 3500 
L 2356 3500 
L 2356 3053 
L 1172 3053 
L 1172 1153 
Q 1172 725 1289 603 
Q 1406 481 1766 481 
L 2356 481 
L 2356 0 
L 1766 0 
Q 1100 0 847 248 
Q 594 497 594 1153 
L 594 3053 
L 172 3053 
L 172 3500 
L 594 3500 
L 594 4494 
L 1172 4494 
z
" transform="scale(0.015625)"/>
       <path id="DejaVuSans-69" d="M 603 3500 
L 1178 3500 
L 1178 0 
L 603 0 
L 603 3500 
z
M 603 4863 
L 1178 4863 
L 1178 4134 
L 603 4134 
L 603 4863 
z
" transform="scale(0.015625)"/>
       <path id="DejaVuSans-6f" d="M 1959 3097 
Q 1497 3097 1228 2736 
Q 959 2375 959 1747 
Q 959 1119 1226 758 
Q 1494 397 1959 397 
Q 2419 397 2687 759 
Q 2956 1122 2956 1747 
Q 2956 2369 2687 2733 
Q 2419 3097 1959 3097 
z
M 1959 3584 
Q 2709 3584 3137 3096 
Q 3566 2609 3566 1747 
Q 3566 888 3137 398 
Q 2709 -91 1959 -91 
Q 1206 -91 779 398 
Q 353 888 353 1747 
Q 353 2609 779 3096 
Q 1206 3584 1959 3584 
z
" transform="scale(0.015625)"/>
       <path id="DejaVuSans-73" d="M 2834 3397 
L 2834 2853 
Q 2591 2978 2328 3040 
Q 2066 3103 1784 3103 
Q 1356 3103 1142 2972 
Q 928 2841 928 2578 
Q 928 2378 1081 2264 
Q 1234 2150 1697 2047 
L 1894 2003 
Q 2506 1872 2764 1633 
Q 3022 1394 3022 966 
Q 3022 478 2636 193 
Q 2250 -91 1575 -91 
Q 1294 -91 989 -36 
Q 684 19 347 128 
L 347 722 
Q 666 556 975 473 
Q 1284 391 1588 391 
Q 1994 391 2212 530 
Q 2431 669 2431 922 
Q 2431 1156 2273 1281 
Q 2116 1406 1581 1522 
L 1381 1569 
Q 847 1681 609 1914 
Q 372 2147 372 2553 
Q 372 3047 722 3315 
Q 1072 3584 1716 3584 
Q 2034 3584 2315 3537 
Q 2597 3491 2834 3397 
z
" transform="scale(0.015625)"/>
      </defs>
      <use xlink:href="#DejaVuSans-47"/>
      <use xlink:href="#DejaVuSans-65" x="77.490234"/>
      <use xlink:href="#DejaVuSans-6e" x="139.013672"/>
      <use xlink:href="#DejaVuSans-65" x="202.392578"/>
      <use xlink:href="#DejaVuSans-72" x="263.916016"/>
      <use xlink:href="#DejaVuSans-61" x="305.029297"/>
      <use xlink:href="#DejaVuSans-74" x="366.308594"/>
      <use xlink:href="#DejaVuSans-69" x="405.517578"/>
      <use xlink:href="#DejaVuSans-6f" x="433.300781"/>
      <use xlink:href="#DejaVuSans-6e" x="494.482422"/>
      <use xlink:href="#DejaVuSans-73" x="557.861328"/>
     </g>
    </g>
   </g>
   <g id="matplotlib.axis_2">
    <g id="ytick_1">
     <g id="line2d_13">
      <path d="M 57.6 242.380171 
L 414.72 242.380171 
" clip-path="url(#p7c09928eeb)" style="fill: none; stroke: #b0b0b0; stroke-width: 0.8; stroke-linecap: square"/>
     </g>
     <g id="line2d_14">
      <defs>
       <path id="mf5a09dc8d0" d="M 0 0 
L -3.5 0 
" style="stroke: #000000; stroke-width: 0.8"/>
      </defs>
      <g>
       <use xlink:href="#mf5a09dc8d0" x="57.6" y="242.380171" style="stroke: #000000; stroke-width: 0.8"/>
      </g>
     </g>
     <g id="text_8">
      <!-- $\mathdefault{-10^{0}}$ -->
      <g transform="translate(24.6 246.17939)scale(0.1 -0.1)">
       <defs>
        <path id="DejaVuSans-2212" d="M 678 2272 
L 4684 2272 
L 4684 1741 
L 678 1741 
L 678 2272 
z
" transform="scale(0.015625)"/>
       </defs>
       <use xlink:href="#DejaVuSans-2212" transform="translate(0 0.765625)"/>
       <use xlink:href="#DejaVuSans-31" transform="translate(83.789062 0.765625)"/>
       <use xlink:href="#DejaVuSans-30" transform="translate(147.412109 0.765625)"/>
       <use xlink:href="#DejaVuSans-30" transform="translate(211.992188 39.046875)scale(0.7)"/>
      </g>
     </g>
    </g>
    <g id="ytick_2">
     <g id="line2d_15">
      <path d="M 57.6 206.15725 
L 414.72 206.15725 
" clip-path="url(#p7c09928eeb)" style="fill: none; stroke: #b0b0b0; stroke-width: 0.8; stroke-linecap: square"/>
     </g>
     <g id="line2d_16">
      <g>
       <use xlink:href="#mf5a09dc8d0" x="57.6" y="206.15725" style="stroke: #000000; stroke-width: 0.8"/>
      </g>
     </g>
     <g id="text_9">
      <!-- $\mathdefault{0}$ -->
      <g transform="translate(44.2 209.956469)scale(0.1 -0.1)">
       <use xlink:href="#DejaVuSans-30" transform="translate(0 0.78125)"/>
      </g>
     </g>
    </g>
    <g id="ytick_3">
     <g id="line2d_17">
      <path d="M 57.6 169.93433 
L 414.72 169.93433 
" clip-path="url(#p7c09928eeb)" style="fill: none; stroke: #b0b0b0; stroke-width: 0.8; stroke-linecap: square"/>
     </g>
     <g id="line2d_18">
      <g>
       <use xlink:href="#mf5a09dc8d0" x="57.6" y="169.93433" style="stroke: #000000; stroke-width: 0.8"/>
      </g>
     </g>
     <g id="text_10">
      <!-- $\mathdefault{10^{0}}$ -->
      <g transform="translate(33 173.733549)scale(0.1 -0.1)">
       <use xlink:href="#DejaVuSans-31" transform="translate(0 0.765625)"/>
       <use xlink:href="#DejaVuSans-30" transform="translate(63.623047 0.765625)"/>
       <use xlink:href="#DejaVuSans-30" transform="translate(128.203125 39.046875)scale(0.7)"/>
      </g>
     </g>
    </g>
    <g id="ytick_4">
     <g id="line2d_19">
      <path d="M 57.6 88.137687 
L 414.72 88.137687 
" clip-path="url(#p7c09928eeb)" style="fill: none; stroke: #b0b0b0; stroke-width: 0.8; stroke-linecap: square"/>
     </g>
     <g id="line2d_20">
      <g>
       <use xlink:href="#mf5a09dc8d0" x="57.6" y="88.137687" style="stroke: #000000; stroke-width: 0.8"/>
      </g>
     </g>
     <g id="text_11">
      <!-- $\mathdefault{10^{1}}$ -->
      <g transform="translate(33 91.936905)scale(0.1 -0.1)">
       <use xlink:href="#DejaVuSans-31" transform="translate(0 0.684375)"/>
       <use xlink:href="#DejaVuSans-30" transform="translate(63.623047 0.684375)"/>
       <use xlink:href="#DejaVuSans-31" transform="translate(128.203125 38.965625)scale(0.7)"/>
      </g>
     </g>
    </g>
    <g id="text_12">
     <!-- Fitness -->
     <g transform="translate(18.520312 191.845187)rotate(-90)scale(0.1 -0.1)">
      <defs>
       <path id="DejaVuSans-46" d="M 628 4666 
L 3309 4666 
L 3309 4134 
L 1259 4134 
L 1259 2759 
L 3109 2759 
L 3109 2228 
L 1259 2228 
L 1259 0 
L 628 0 
L 628 4666 
z
" transform="scale(0.015625)"/>
      </defs>
      <use xlink:href="#DejaVuSans-46"/>
      <use xlink:href="#DejaVuSans-69" x="50.269531"/>
      <use xlink:href="#DejaVuSans-74" x="78.052734"/>
      <use xlink:href="#DejaVuSans-6e" x="117.261719"/>
      <use xlink:href="#DejaVuSans-65" x="180.640625"/>
      <use xlink:href="#DejaVuSans-73" x="242.164062"/>
      <use xlink:href="#DejaVuSans-73" x="294.263672"/>
     </g>
    </g>
   </g>
   <g id="line2d_21">
    <path d="M 73.832727 166.638044 
L 74.483338 165.660025 
L 75.133948 162.979529 
L 75.784558 162.399962 
L 76.435169 160.480148 
L 77.736389 158.125658 
L 78.386999 157.220085 
L 79.03761 155.879837 
L 80.33883 154.43092 
L 80.989441 154.901818 
L 81.640051 152.909557 
L 82.290661 152.185099 
L 82.941272 149.46838 
L 84.242492 154.032468 
L 85.543713 145.62875 
L 86.844934 151.315749 
L 87.495544 146.063425 
L 88.146154 142.477356 
L 89.447375 148.59903 
L 90.097985 146.353209 
L 90.748595 143.238038 
L 91.399206 144.469617 
L 92.049816 141.861567 
L 92.700426 144.650731 
L 93.351037 148.200578 
L 94.001647 143.491598 
L 94.652257 144.360948 
L 95.302868 142.477356 
L 95.953478 142.658471 
L 96.604088 142.586025 
L 97.254698 143.853827 
L 98.555919 137.949491 
L 99.206529 137.949491 
L 99.85714 140.738656 
L 100.50775 140.485096 
L 101.15836 138.746395 
L 101.808971 133.345667 
L 102.459581 134.037416 
L 103.110191 133.820078 
L 103.760802 133.178442 
L 104.411412 137.333702 
L 105.062022 136.754135 
L 105.712633 138.492835 
L 106.363243 137.333702 
L 107.013853 133.206245 
L 107.664463 134.616982 
L 108.315074 134.942989 
L 108.965684 133.345667 
L 109.616294 136.174568 
L 110.266905 136.31946 
L 110.917515 139.398408 
L 111.568125 135.160326 
L 112.218736 139.325962 
L 112.869346 139.579523 
L 113.519956 138.420389 
L 114.170567 137.551039 
L 114.821177 132.208743 
L 115.471787 137.840822 
L 116.122398 132.655322 
L 116.773008 136.210791 
L 117.423618 131.624054 
L 118.074228 134.037416 
L 118.724839 133.095199 
L 119.375449 133.053669 
L 120.026059 133.303768 
L 120.67667 131.835274 
L 121.32728 132.021393 
L 121.97789 134.83432 
L 122.628501 135.051658 
L 123.279111 131.479749 
L 123.929721 135.08788 
L 124.580332 133.57018 
L 125.230942 132.397341 
L 125.881552 134.290976 
L 126.532163 132.641685 
L 127.182773 132.888156 
L 127.833383 129.338305 
L 128.483993 132.600814 
L 129.134604 132.343328 
L 129.785214 133.0122 
L 130.435824 134.942989 
L 131.086435 132.370322 
L 131.737045 132.383828 
L 132.387655 130.250628 
L 133.038266 132.101534 
L 133.688876 135.739893 
L 134.339486 133.026016 
L 134.990097 137.840822 
L 135.640707 131.597762 
L 136.291317 132.5736 
L 136.941927 133.095199 
L 137.592538 131.128632 
L 138.243148 133.928747 
L 138.893758 130.288242 
L 139.544369 129.766148 
L 140.194979 129.852498 
L 140.845589 130.138087 
L 141.4962 131.769099 
L 142.14681 129.338305 
L 142.79742 132.915674 
L 143.448031 135.45011 
L 144.098641 131.888326 
L 144.749251 131.297145 
L 145.399862 133.892524 
L 146.050472 130.935433 
L 146.701082 127.144659 
L 147.351692 128.560494 
L 148.002303 129.000625 
L 148.652913 132.532827 
L 149.303523 131.167431 
L 149.954134 133.457701 
L 150.604744 131.532139 
L 151.255354 131.180376 
L 151.905965 130.413981 
L 152.556575 129.120764 
L 153.207185 132.208743 
L 153.857796 132.437919 
L 154.508406 129.594235 
L 155.159016 133.026016 
L 155.809627 129.193092 
L 156.460237 130.313345 
L 157.110847 129.877218 
L 158.412068 126.776545 
L 159.062678 128.466223 
L 159.713288 126.445997 
L 160.363899 129.459888 
L 161.014509 129.338305 
L 161.665119 128.976659 
L 162.31573 126.119264 
L 162.96634 127.654473 
L 163.61695 129.939112 
L 164.267561 128.034257 
L 164.918171 125.572327 
L 165.568781 126.710126 
L 166.219392 125.668081 
L 166.870002 126.84312 
L 167.520612 123.56351 
L 168.171222 125.50867 
L 168.821833 129.289818 
L 169.472443 125.732097 
L 170.123053 125.753468 
L 170.773664 124.173567 
L 171.424274 119.4284 
L 172.074884 125.025333 
L 172.725495 125.30803 
L 173.376105 126.325757 
L 174.026715 131.310149 
L 174.677326 125.234467 
L 175.327936 126.754388 
L 175.978546 129.447706 
L 176.629156 127.110996 
L 177.279767 123.762084 
L 177.930377 126.632833 
L 178.580987 120.678184 
L 179.231598 123.533843 
L 179.882208 120.305359 
L 180.532818 121.12852 
L 181.183429 121.660044 
L 181.834039 124.869491 
L 182.484649 123.425332 
L 183.13526 125.828394 
L 183.78587 120.02456 
L 184.43648 121.228563 
L 185.087091 119.308957 
L 185.737701 121.110369 
L 186.388311 127.700237 
L 187.038921 124.642462 
L 187.689532 126.216889 
L 188.340142 123.543729 
L 188.990752 122.409947 
L 189.641363 122.486041 
L 190.291973 125.98962 
L 190.942583 122.859957 
L 191.593194 122.343531 
L 192.243804 123.871896 
L 192.894414 117.431475 
L 193.545025 123.024504 
L 194.195635 125.234467 
L 194.846245 125.371237 
L 195.496856 121.448072 
L 196.147466 120.535576 
L 196.798076 126.086798 
L 197.448686 125.774855 
L 198.099297 123.982136 
L 198.749907 122.917923 
L 199.400517 122.725162 
L 200.051128 120.296542 
L 200.701738 118.878054 
L 201.352348 124.02233 
L 202.002959 127.268435 
L 202.653569 126.533767 
L 203.304179 120.749758 
L 203.95479 124.621913 
L 204.6054 119.677433 
L 205.25601 120.678184 
L 205.906621 118.174141 
L 206.557231 118.157787 
L 207.207841 122.966319 
L 207.858451 120.094499 
L 208.509062 115.144112 
L 209.159672 119.514027 
L 209.810282 118.288883 
L 210.460893 121.338105 
L 211.111503 121.660044 
L 211.762113 119.454061 
L 212.412724 116.353388 
L 213.063334 120.509993 
L 214.364555 121.873614 
L 215.015165 116.519715 
L 215.665775 116.649871 
L 216.316385 119.080015 
L 216.966996 119.812942 
L 217.617606 113.322576 
L 218.268216 113.159903 
L 218.918827 111.106037 
L 219.569437 115.455283 
L 220.870658 112.520854 
L 221.521268 121.237675 
L 222.171878 116.630233 
L 222.822489 117.201355 
L 223.473099 114.895334 
L 224.123709 119.599912 
L 224.77432 119.130732 
L 225.42493 114.764508 
L 226.07554 116.375787 
L 226.72615 118.861289 
L 227.376761 115.424769 
L 228.027371 117.671515 
L 228.677981 114.779015 
L 229.328592 120.147067 
L 229.979202 117.615324 
L 230.629812 117.471341 
L 231.280423 114.86621 
L 231.931033 116.329768 
L 232.581643 122.753992 
L 233.232254 119.105362 
L 233.882864 113.102907 
L 234.533474 115.162454 
L 235.184085 115.073455 
L 235.834695 122.277272 
L 236.485305 119.976448 
L 237.135915 119.71871 
L 237.786526 122.476518 
L 238.437136 115.491649 
L 239.087746 120.166957 
L 239.738357 117.921713 
L 240.388967 116.3451 
L 241.039577 120.56226 
L 241.690188 118.719183 
L 242.340798 115.625887 
L 242.991408 119.4284 
L 244.292629 121.228563 
L 244.943239 114.632607 
L 245.59385 119.02939 
L 246.24446 116.910443 
L 246.89507 116.707791 
L 247.54568 115.687266 
L 248.196291 115.026768 
L 248.846901 119.135261 
L 249.497511 115.611694 
L 250.148122 115.199619 
L 250.798732 116.607006 
L 251.449342 115.2177 
L 252.099953 117.169761 
L 252.750563 118.619301 
L 253.401173 118.769257 
L 254.051784 116.306787 
L 254.702394 117.399623 
L 255.353004 115.798343 
L 256.003615 113.543962 
L 256.654225 121.68781 
L 257.304835 122.126401 
L 258.606056 117.059457 
L 259.256666 116.785562 
L 259.907276 115.588535 
L 261.208497 122.296187 
L 261.859107 117.304281 
L 262.509718 125.223974 
L 263.160328 119.746519 
L 263.810938 118.420588 
L 264.461549 120.21731 
L 265.112159 121.365556 
L 265.762769 120.305359 
L 266.413379 121.724873 
L 267.06399 120.660319 
L 267.7146 118.644239 
L 268.36521 121.117609 
L 269.015821 124.274842 
L 269.666431 118.06801 
L 270.317041 121.429714 
L 270.967652 118.01916 
L 271.618262 120.920476 
L 272.268872 129.000625 
L 272.919483 119.088462 
L 273.570093 123.682487 
L 274.220703 117.663481 
L 274.871314 126.489848 
L 275.521924 126.588761 
L 276.172534 123.325685 
L 276.823144 121.02883 
L 277.473755 112.743197 
L 278.124365 120.056064 
L 278.774975 116.420586 
L 279.425586 121.00782 
L 280.076196 112.453944 
L 280.726806 115.982498 
L 281.377417 113.687152 
L 282.028027 117.633671 
L 282.678637 115.075288 
L 283.329248 115.596001 
L 283.979858 117.929179 
L 284.630468 111.501098 
L 285.281079 111.591711 
L 285.931689 115.323168 
L 286.582299 112.709049 
L 287.232909 111.36572 
L 287.88352 112.837469 
L 288.53413 119.33451 
L 289.18474 118.827788 
L 289.835351 119.963505 
L 290.485961 116.306787 
L 291.136571 114.677625 
L 291.787182 120.155838 
L 292.437792 111.663111 
L 293.088402 115.663288 
L 293.739013 116.329768 
L 294.389623 118.861289 
L 295.040233 112.952867 
L 295.690844 116.291477 
L 296.341454 115.918936 
L 296.992064 112.307294 
L 297.642674 114.311319 
L 298.293285 115.670774 
L 298.943895 113.781097 
L 299.594505 114.154755 
L 300.245116 115.085379 
L 300.895726 113.488453 
L 301.546336 111.288651 
L 302.196947 114.204477 
L 302.847557 112.655152 
L 303.498167 108.441503 
L 304.148778 112.260792 
L 304.799388 110.654435 
L 305.449998 114.332736 
L 306.100608 111.819521 
L 306.751219 115.528874 
L 307.401829 108.075826 
L 308.052439 113.224665 
L 308.70305 115.640841 
L 309.35366 109.686517 
L 310.00427 106.862314 
L 310.654881 108.5461 
L 311.305491 111.09052 
L 311.956101 108.493753 
L 312.606712 112.227623 
L 313.257322 110.830588 
L 313.907932 111.917717 
L 314.558543 112.367196 
L 315.209153 113.60654 
L 315.859763 111.430105 
L 316.510373 109.759342 
L 317.160984 113.0824 
L 317.811594 111.4559 
L 318.462204 108.668619 
L 319.112815 110.811662 
L 319.763425 115.723233 
L 320.414035 113.068737 
L 321.064646 106.988764 
L 321.715256 109.735046 
L 322.365866 111.663111 
L 323.016477 106.605659 
L 323.667087 113.426135 
L 324.317697 110.938076 
L 324.968308 113.495386 
L 325.618918 110.780147 
L 326.269528 110.317775 
L 326.920138 113.219394 
L 327.570749 108.18169 
L 328.221359 110.45445 
L 328.871969 107.629627 
L 329.52258 103.435826 
L 330.17319 105.61743 
L 330.8238 107.03288 
L 331.474411 104.943071 
L 332.125021 109.021624 
L 332.775631 99.532824 
L 333.426242 112.062357 
L 334.076852 108.645241 
L 334.727462 110.900092 
L 335.378073 107.77655 
L 336.028683 107.770885 
L 336.679293 107.992664 
L 337.329903 103.348474 
L 337.980514 101.135664 
L 338.631124 106.556776 
L 339.281734 108.803418 
L 339.932345 105.278243 
L 340.582955 108.049812 
L 341.233565 105.559743 
L 341.884176 105.53356 
L 342.534786 100.248977 
L 343.185396 98.416041 
L 343.836007 105.648946 
L 344.486617 108.004084 
L 345.137227 108.598543 
L 345.787837 114.497471 
L 346.438448 113.564806 
L 347.089058 109.997323 
L 347.739668 102.801417 
L 348.390279 104.049986 
L 349.040889 101.256915 
L 349.691499 104.871397 
L 350.34211 104.149499 
L 350.99272 101.383208 
L 351.64333 100.726369 
L 352.293941 98.460855 
L 352.944551 105.293809 
L 353.595161 104.374692 
L 354.245772 105.107583 
L 354.896382 107.48907 
L 355.546992 101.432977 
L 356.197602 106.884265 
L 356.848213 108.774059 
L 357.498823 105.930705 
L 358.149433 96.446665 
L 358.800044 101.855468 
L 359.450654 94.368864 
L 360.101264 99.689938 
L 360.751875 100.151106 
L 361.402485 102.069537 
L 362.703706 107.314639 
L 363.354316 105.403009 
L 364.004926 109.523284 
L 364.655537 107.349207 
L 365.306147 104.110205 
L 365.956757 109.487211 
L 366.607367 104.2844 
L 367.257978 108.746472 
L 367.908588 105.632715 
L 368.559198 104.601689 
L 369.209809 103.277888 
L 369.860419 95.431114 
L 370.511029 102.789034 
L 371.16164 100.624963 
L 372.46286 101.857289 
L 373.113471 109.161653 
L 373.764081 105.348125 
L 374.414691 105.117897 
L 375.065302 100.353402 
L 375.715912 105.491718 
L 376.366522 101.550963 
L 377.017132 100.655787 
L 377.667743 98.076141 
L 378.318353 98.0239 
L 378.968963 102.887095 
L 379.619574 110.533379 
L 380.270184 104.404853 
L 380.920794 101.793006 
L 381.571405 100.922863 
L 382.222015 95.864115 
L 382.872625 101.278847 
L 383.523236 96.276374 
L 384.173846 93.203162 
L 384.824456 98.076141 
L 385.475066 93.567838 
L 386.125677 94.552071 
L 386.776287 93.454866 
L 387.426897 94.562728 
L 388.077508 97.076374 
L 388.728118 95.216852 
L 389.378728 98.399762 
L 390.029339 97.648999 
L 390.679949 96.344323 
L 391.330559 97.664852 
L 391.98117 102.404979 
L 392.63178 100.937546 
L 393.28239 103.611343 
L 393.933001 99.041664 
L 394.583611 96.31407 
L 395.234221 95.564388 
L 395.884831 94.118565 
L 396.535442 92.335395 
L 397.186052 88.273933 
L 397.836662 96.264787 
L 398.487273 95.154925 
L 398.487273 95.154925 
" clip-path="url(#p7c09928eeb)" style="fill: none; stroke: #0000ff; stroke-width: 1.5; stroke-linecap: square"/>
   </g>
   <g id="line2d_22">
    <path d="M 73.832727 171.193932 
L 74.483338 171.138675 
L 75.133948 170.397361 
L 76.435169 169.938354 
L 77.085779 167.683824 
L 77.736389 167.440232 
L 78.386999 167.774514 
L 79.03761 167.036026 
L 79.68822 164.846963 
L 80.33883 164.677334 
L 80.989441 165.821391 
L 81.640051 165.731653 
L 82.290661 162.601944 
L 82.941272 162.370809 
L 83.591882 163.03705 
L 84.242492 166.652348 
L 84.893103 161.302133 
L 86.194323 161.868076 
L 86.844934 166.27735 
L 87.495544 162.51274 
L 88.146154 162.457047 
L 88.796764 161.326277 
L 89.447375 163.585823 
L 90.097985 164.883596 
L 90.748595 162.355059 
L 91.399206 160.550758 
L 92.049816 160.026377 
L 92.700426 163.947589 
L 93.351037 164.326898 
L 94.001647 163.83779 
L 94.652257 163.738145 
L 95.302868 159.956032 
L 95.953478 165.200975 
L 96.604088 167.224934 
L 97.254698 166.083016 
L 97.905309 167.461218 
L 98.555919 161.87338 
L 99.206529 161.357767 
L 99.85714 161.564914 
L 100.50775 158.301876 
L 101.15836 160.181643 
L 101.808971 156.503893 
L 102.459581 156.618536 
L 103.110191 158.013383 
L 103.760802 153.572693 
L 104.411412 160.157016 
L 105.062022 161.013866 
L 105.712633 164.258919 
L 106.363243 156.833614 
L 107.013853 155.095312 
L 107.664463 156.93674 
L 108.315074 154.988506 
L 108.965684 155.711165 
L 109.616294 157.20808 
L 110.917515 159.07419 
L 111.568125 156.97242 
L 112.218736 157.08166 
L 112.869346 158.097762 
L 113.519956 158.50697 
L 114.170567 158.383596 
L 114.821177 156.539152 
L 115.471787 161.023605 
L 116.122398 161.992527 
L 116.773008 162.530152 
L 117.423618 159.390245 
L 118.074228 170.491768 
L 118.724839 168.294562 
L 119.375449 169.946126 
L 120.026059 175.619236 
L 120.67667 167.041328 
L 121.32728 174.919446 
L 121.97789 186.706997 
L 122.628501 176.695903 
L 123.279111 178.724334 
L 123.929721 166.954911 
L 124.580332 171.179161 
L 125.230942 170.643354 
L 125.881552 182.931548 
L 126.532163 181.509612 
L 127.182773 168.723842 
L 127.833383 162.745416 
L 128.483993 175.934018 
L 129.134604 174.241512 
L 129.785214 169.806472 
L 130.435824 166.40993 
L 131.086435 166.328057 
L 131.737045 171.045266 
L 132.387655 169.611205 
L 133.038266 165.156324 
L 133.688876 172.317223 
L 134.339486 173.919132 
L 134.990097 166.801132 
L 135.640707 162.883593 
L 136.291317 171.479856 
L 136.941927 174.612259 
L 137.592538 162.350735 
L 138.243148 163.462403 
L 138.893758 171.467542 
L 139.544369 164.731932 
L 140.194979 168.073167 
L 140.845589 173.056371 
L 141.4962 172.58771 
L 142.14681 174.625344 
L 142.79742 177.265312 
L 143.448031 175.585629 
L 144.098641 176.894407 
L 144.749251 175.849942 
L 145.399862 178.227884 
L 146.050472 178.286635 
L 146.701082 191.731489 
L 147.351692 186.530767 
L 148.002303 178.357587 
L 148.652913 176.423663 
L 149.303523 187.518975 
L 149.954134 178.945074 
L 150.604744 191.840731 
L 151.255354 191.718353 
L 151.905965 182.139567 
L 152.556575 186.297853 
L 153.207185 185.919375 
L 153.857796 179.625237 
L 155.159016 181.105001 
L 155.809627 191.363718 
L 156.460237 183.252602 
L 157.110847 191.03267 
L 157.761457 184.0423 
L 158.412068 183.258205 
L 159.062678 194.752112 
L 159.713288 186.961306 
L 160.363899 189.618265 
L 161.014509 187.355749 
L 161.665119 186.341469 
L 162.31573 186.841308 
L 162.96634 175.937655 
L 163.61695 189.421725 
L 164.267561 189.68805 
L 164.918171 190.357105 
L 165.568781 195.215507 
L 166.219392 192.587361 
L 166.870002 186.239156 
L 167.520612 187.549869 
L 168.171222 190.648029 
L 168.821833 190.134682 
L 169.472443 185.640083 
L 170.123053 193.176937 
L 171.424274 188.441208 
L 172.074884 201.843064 
L 173.376105 196.880963 
L 174.026715 189.520882 
L 174.677326 200.849483 
L 175.327936 193.028264 
L 175.978546 196.301669 
L 176.629156 192.970046 
L 177.279767 183.463556 
L 177.930377 193.076894 
L 178.580987 180.218169 
L 179.231598 199.582134 
L 179.882208 204.015932 
L 180.532818 200.58939 
L 181.183429 204.085086 
L 181.834039 205.122826 
L 182.484649 209.007822 
L 183.13526 204.526012 
L 183.78587 191.581419 
L 184.43648 202.993236 
L 185.087091 197.947054 
L 185.737701 198.922698 
L 186.388311 206.531748 
L 187.038921 205.479467 
L 187.689532 211.636863 
L 188.340142 200.292489 
L 188.990752 204.529952 
L 189.641363 197.621888 
L 190.291973 198.464086 
L 190.942583 198.05898 
L 191.593194 196.683985 
L 192.243804 206.352688 
L 192.894414 194.544229 
L 193.545025 199.576505 
L 194.195635 207.8437 
L 194.846245 197.832249 
L 195.496856 202.922035 
L 196.147466 200.400194 
L 196.798076 216.163788 
L 198.099297 196.231345 
L 198.749907 203.374533 
L 199.400517 216.0093 
L 200.051128 203.280418 
L 200.701738 198.934567 
L 201.352348 206.888401 
L 202.002959 221.257229 
L 202.653569 214.674963 
L 203.304179 203.580025 
L 203.95479 216.599122 
L 204.6054 204.665669 
L 205.25601 201.085432 
L 206.557231 191.549846 
L 207.207841 203.193919 
L 208.509062 195.374364 
L 209.159672 208.535981 
L 209.810282 208.464955 
L 210.460893 201.306681 
L 211.111503 204.02236 
L 211.762113 197.591489 
L 212.412724 182.29191 
L 213.063334 196.637426 
L 213.713944 195.782074 
L 215.015165 199.16003 
L 215.665775 187.630637 
L 216.316385 203.740759 
L 216.966996 205.108968 
L 217.617606 174.053009 
L 218.268216 191.657722 
L 218.918827 170.97443 
L 219.569437 197.387418 
L 220.220047 190.445822 
L 220.870658 182.277955 
L 221.521268 204.24298 
L 222.171878 191.231889 
L 222.822489 191.749546 
L 223.473099 194.708221 
L 224.123709 207.514336 
L 225.42493 194.827599 
L 226.07554 196.562424 
L 226.72615 206.791401 
L 227.376761 203.967716 
L 228.027371 198.795179 
L 228.677981 188.707597 
L 229.328592 197.699433 
L 229.979202 198.537882 
L 230.629812 210.366393 
L 231.280423 189.695444 
L 231.931033 199.861838 
L 232.581643 202.944438 
L 233.232254 201.352049 
L 233.882864 194.315314 
L 234.533474 196.18101 
L 235.184085 199.718563 
L 235.834695 220.187039 
L 236.485305 207.003999 
L 237.135915 203.284295 
L 237.786526 205.452459 
L 238.437136 189.151304 
L 239.087746 220.102674 
L 239.738357 201.861618 
L 240.388967 200.767777 
L 241.039577 204.786194 
L 241.690188 205.361999 
L 242.340798 199.855765 
L 242.991408 203.181117 
L 243.642019 203.862869 
L 244.292629 208.396421 
L 244.943239 193.926219 
L 245.59385 207.222014 
L 246.24446 204.737673 
L 246.89507 191.777214 
L 247.54568 189.971802 
L 248.196291 189.46526 
L 248.846901 201.765637 
L 249.497511 195.620709 
L 250.148122 195.872692 
L 250.798732 201.720899 
L 251.449342 204.832301 
L 252.099953 200.330937 
L 252.750563 204.814289 
L 253.401173 206.207461 
L 254.051784 201.629725 
L 254.702394 203.949864 
L 255.353004 195.199654 
L 256.003615 191.220291 
L 256.654225 204.220625 
L 257.304835 223.246617 
L 257.955445 220.515534 
L 258.606056 203.579261 
L 259.256666 200.458085 
L 259.907276 211.640297 
L 260.557887 219.855452 
L 262.509718 206.071977 
L 263.160328 214.080941 
L 264.461549 218.560179 
L 265.112159 209.053497 
L 265.762769 219.189072 
L 266.413379 208.292745 
L 267.06399 215.194015 
L 267.7146 209.173779 
L 268.36521 219.728928 
L 269.015821 207.323377 
L 269.666431 209.010498 
L 270.317041 209.072519 
L 270.967652 206.083232 
L 271.618262 212.612764 
L 272.268872 209.811258 
L 272.919483 214.567234 
L 273.570093 214.224181 
L 274.220703 205.486779 
L 274.871314 224.384914 
L 275.521924 214.965796 
L 276.172534 213.896449 
L 276.823144 222.650172 
L 277.473755 194.926394 
L 278.124365 225.377316 
L 278.774975 223.624019 
L 279.425586 217.955163 
L 280.076196 195.718307 
L 280.726806 221.745327 
L 281.377417 222.531726 
L 282.028027 225.815872 
L 282.678637 215.904766 
L 283.329248 212.77197 
L 283.979858 212.909277 
L 284.630468 193.766662 
L 285.281079 193.51642 
L 285.931689 222.687103 
L 286.582299 229.279942 
L 287.232909 218.441889 
L 287.88352 204.689083 
L 288.53413 234.754871 
L 289.18474 221.880475 
L 289.835351 218.13459 
L 290.485961 215.396785 
L 291.136571 200.940583 
L 291.787182 226.689876 
L 292.437792 203.131148 
L 293.088402 207.213735 
L 293.739013 213.498752 
L 294.389623 215.803647 
L 295.040233 203.664482 
L 295.690844 208.075091 
L 296.341454 203.449518 
L 296.992064 191.403778 
L 297.642674 206.572702 
L 298.293285 208.076362 
L 298.943895 204.849618 
L 299.594505 213.583273 
L 300.245116 226.371353 
L 300.895726 213.374147 
L 301.546336 208.125097 
L 302.196947 218.986186 
L 302.847557 214.599031 
L 303.498167 217.905444 
L 304.148778 229.18483 
L 304.799388 234.591132 
L 305.449998 254.117609 
L 306.100608 244.770917 
L 306.751219 247.779578 
L 307.401829 239.269305 
L 308.052439 238.088097 
L 308.70305 254.128816 
L 309.35366 230.497291 
L 310.00427 244.726013 
L 310.654881 238.750363 
L 311.305491 227.061319 
L 311.956101 230.109159 
L 312.606712 246.76044 
L 313.257322 240.270868 
L 313.907932 251.136593 
L 314.558543 244.361079 
L 315.209153 251.055628 
L 315.859763 253.267413 
L 316.510373 245.937679 
L 317.160984 252.969817 
L 317.811594 217.93655 
L 318.462204 223.495665 
L 319.112815 227.526991 
L 319.763425 255.422009 
L 320.414035 252.754129 
L 321.064646 232.696915 
L 321.715256 238.479074 
L 322.365866 235.576884 
L 323.016477 243.515327 
L 323.667087 261.955361 
L 324.317697 254.722771 
L 324.968308 278.615059 
L 325.618918 256.462327 
L 326.269528 248.89443 
L 326.920138 269.20097 
L 327.570749 269.578396 
L 328.221359 261.806976 
L 328.871969 251.074042 
L 329.52258 243.70816 
L 330.17319 255.167815 
L 330.8238 270.225987 
L 331.474411 253.298658 
L 332.125021 271.117161 
L 332.775631 228.543278 
L 333.426242 273.969376 
L 334.076852 246.618845 
L 334.727462 255.760679 
L 335.378073 261.401833 
L 336.028683 275.418561 
L 336.679293 259.491401 
L 337.329903 251.463034 
L 337.980514 256.646295 
L 338.631124 267.838695 
L 339.281734 255.839115 
L 339.932345 234.454372 
L 341.233565 262.041321 
L 341.884176 274.860855 
L 342.534786 264.73824 
L 343.836007 280.838349 
L 344.486617 277.359113 
L 345.137227 267.626913 
L 345.787837 256.070515 
L 346.438448 277.293907 
L 347.089058 275.342746 
L 347.739668 280.088397 
L 348.390279 278.292707 
L 349.040889 246.913523 
L 349.691499 281.655646 
L 350.34211 279.132438 
L 350.99272 264.189933 
L 351.64333 267.512518 
L 352.293941 271.688153 
L 352.944551 282.481894 
L 353.595161 280.86468 
L 354.245772 280.317188 
L 354.896382 285.409368 
L 355.546992 282.36134 
L 356.197602 283.462923 
L 356.848213 281.512759 
L 357.498823 287.611425 
L 358.149433 278.779237 
L 358.800044 286.053276 
L 359.450654 269.51881 
L 360.101264 288.293204 
L 360.751875 286.115182 
L 361.402485 294.383653 
L 362.053095 292.228062 
L 362.703706 291.341225 
L 363.354316 289.073261 
L 364.004926 290.678266 
L 364.655537 288.875556 
L 365.306147 290.595333 
L 365.956757 293.587017 
L 366.607367 293.346151 
L 367.257978 291.935644 
L 367.908588 292.641202 
L 368.559198 295.488 
L 369.209809 293.392985 
L 369.860419 287.711839 
L 370.511029 291.78603 
L 371.16164 285.615324 
L 371.81225 293.056308 
L 372.46286 290.215031 
L 373.113471 290.83594 
L 373.764081 289.819661 
L 374.414691 289.358848 
L 375.065302 290.175996 
L 375.715912 288.510202 
L 376.366522 293.309006 
L 377.017132 291.21281 
L 377.667743 290.20989 
L 378.318353 288.678158 
L 379.619574 294.250265 
L 380.270184 295.075423 
L 380.920794 293.164248 
L 381.571405 289.805642 
L 382.222015 283.142303 
L 382.872625 292.531371 
L 383.523236 291.998288 
L 384.173846 288.238254 
L 384.824456 293.185248 
L 385.475066 289.207077 
L 386.125677 288.758088 
L 386.776287 283.586454 
L 387.426897 289.653284 
L 388.077508 290.495443 
L 388.728118 284.252162 
L 389.378728 291.679394 
L 390.029339 290.615739 
L 390.679949 291.761661 
L 391.330559 291.315294 
L 391.98117 291.042747 
L 392.63178 291.789585 
L 393.28239 292.022413 
L 393.933001 293.251496 
L 394.583611 289.779217 
L 395.234221 283.75704 
L 395.884831 281.650712 
L 396.535442 283.821438 
L 397.186052 271.353563 
L 397.836662 290.638473 
L 398.487273 288.873932 
L 398.487273 288.873932 
" clip-path="url(#p7c09928eeb)" style="fill: none; stroke-dasharray: 9.6,2.4,1.5,2.4; stroke-dashoffset: 0; stroke: #008000; stroke-width: 1.5"/>
   </g>
   <g id="line2d_23">
    <path d="M 73.832727 162.082157 
L 74.483338 160.181376 
L 75.133948 155.561698 
L 75.784558 154.58588 
L 76.435169 151.021942 
L 77.085779 150.885759 
L 79.03761 144.723648 
L 79.68822 145.536239 
L 80.33883 144.184506 
L 80.989441 143.982244 
L 81.640051 140.087462 
L 82.290661 141.768254 
L 82.941272 136.565951 
L 83.591882 140.898473 
L 84.242492 141.412587 
L 84.893103 138.938652 
L 85.543713 132.181004 
L 86.194323 135.402429 
L 86.844934 136.354148 
L 87.495544 132.153568 
L 88.146154 129.636184 
L 88.796764 132.083363 
L 89.447375 133.672673 
L 90.097985 131.498529 
L 90.748595 130.191046 
L 91.399206 131.703746 
L 92.049816 130.044981 
L 92.700426 130.619823 
L 93.351037 133.078627 
L 94.001647 129.85628 
L 94.652257 130.490414 
L 95.302868 130.495623 
L 95.953478 128.841304 
L 96.604088 128.136374 
L 97.254698 129.342219 
L 97.905309 127.125295 
L 98.555919 126.904699 
L 99.206529 127.063617 
L 99.85714 128.774388 
L 100.50775 129.694004 
L 101.15836 127.932953 
L 101.808971 125.411043 
L 102.459581 126.125837 
L 103.110191 125.584008 
L 103.760802 126.018662 
L 104.411412 127.054091 
L 105.062022 126.437955 
L 105.712633 126.508287 
L 106.363243 128.100018 
L 107.013853 125.611209 
L 108.315074 127.173943 
L 108.965684 125.643116 
L 109.616294 127.249625 
L 110.266905 127.028901 
L 110.917515 128.712149 
L 111.568125 126.697272 
L 112.218736 129.324011 
L 112.869346 129.154134 
L 113.519956 128.26078 
L 114.170567 127.744689 
L 114.821177 123.700361 
L 115.471787 127.099749 
L 116.122398 122.872004 
L 116.773008 125.66175 
L 117.423618 122.089642 
L 118.074228 122.254693 
L 119.375449 121.353423 
L 120.026059 120.270615 
L 120.67667 120.454491 
L 121.32728 118.822572 
L 121.97789 118.677189 
L 122.628501 121.186087 
L 123.279111 117.299014 
L 123.929721 123.764598 
L 124.580332 121.721481 
L 125.230942 120.317938 
L 125.881552 119.302045 
L 126.532163 118.079772 
L 127.182773 121.442726 
L 127.833383 118.112562 
L 128.483993 119.312087 
L 129.134604 119.386473 
L 129.785214 121.333804 
L 130.435824 123.834887 
L 131.086435 121.352356 
L 131.737045 120.202637 
L 132.387655 117.775526 
L 133.038266 121.282419 
L 133.688876 122.669658 
L 134.339486 120.331758 
L 134.990097 125.365939 
L 135.640707 121.161663 
L 136.291317 120.343595 
L 136.941927 120.25124 
L 137.592538 120.645669 
L 138.243148 124.089474 
L 138.893758 117.41294 
L 139.544369 118.23655 
L 140.845589 116.877689 
L 141.4962 119.044134 
L 142.14681 115.55493 
L 142.79742 119.390933 
L 143.448031 121.669162 
L 144.098641 118.205684 
L 144.749251 117.709216 
L 145.399862 120.235261 
L 146.050472 116.73436 
L 146.701082 109.846062 
L 148.002303 114.393222 
L 148.652913 119.112549 
L 149.303523 115.082033 
L 149.954134 119.662273 
L 150.604744 114.621538 
L 151.255354 114.258647 
L 151.905965 115.306643 
L 152.556575 113.002258 
L 153.207185 116.604712 
L 153.857796 118.259865 
L 154.508406 114.69451 
L 155.159016 118.632708 
L 155.809627 112.144225 
L 156.460237 114.963346 
L 157.110847 112.956552 
L 157.761457 112.344043 
L 158.412068 110.888518 
L 159.062678 110.754077 
L 159.713288 109.880762 
L 160.363899 112.760273 
L 161.014509 113.048595 
L 161.665119 112.831041 
L 162.31573 109.536918 
L 162.96634 113.248709 
L 163.61695 113.32957 
L 164.267561 111.171282 
L 164.918171 108.361527 
L 165.568781 108.803811 
L 166.219392 108.110638 
L 166.870002 110.447448 
L 167.520612 106.598543 
L 168.171222 108.245904 
L 168.821833 112.476223 
L 169.472443 109.303727 
L 170.773664 106.803981 
L 171.424274 101.97283 
L 172.074884 106.025103 
L 172.725495 106.70213 
L 173.376105 108.130522 
L 174.026715 114.839131 
L 174.677326 106.386514 
L 175.327936 109.208429 
L 175.978546 111.527484 
L 177.279767 107.441444 
L 177.930377 109.069662 
L 178.580987 104.445601 
L 179.231598 104.817852 
L 179.882208 100.939688 
L 180.532818 102.207477 
L 181.183429 102.298352 
L 181.834039 105.390285 
L 182.484649 103.413015 
L 183.13526 106.443224 
L 183.78587 102.210649 
L 184.43648 102.00176 
L 185.087091 100.66309 
L 185.737701 102.403681 
L 186.388311 108.013574 
L 187.038921 105.111252 
L 187.689532 105.779188 
L 188.340142 104.728119 
L 188.990752 102.99659 
L 189.641363 104.003505 
L 190.291973 107.530511 
L 190.942583 104.332357 
L 191.593194 103.983144 
L 192.243804 104.217391 
L 192.894414 99.110828 
L 193.545025 104.292782 
L 194.195635 105.363661 
L 194.846245 106.982301 
L 195.496856 102.233566 
L 196.147466 101.623514 
L 196.798076 105.003373 
L 197.448686 106.144006 
L 198.099297 105.764923 
L 199.400517 101.820612 
L 200.701738 100.099086 
L 201.352348 104.293492 
L 202.002959 105.382892 
L 202.653569 105.642918 
L 203.304179 101.442711 
L 203.95479 103.551413 
L 204.6054 100.228042 
L 205.25601 101.683222 
L 205.906621 99.645161 
L 206.557231 100.228416 
L 207.207841 103.737842 
L 207.858451 101.344164 
L 208.509062 96.632129 
L 209.159672 99.606308 
L 209.810282 98.400948 
L 210.460893 102.329666 
L 211.111503 102.306439 
L 212.412724 99.3724 
L 213.063334 102.074422 
L 213.713944 102.868617 
L 214.364555 103.391816 
L 215.015165 97.647324 
L 215.665775 99.077188 
L 216.966996 100.311091 
L 217.617606 96.926496 
L 218.268216 94.938043 
L 218.918827 94.7558 
L 219.569437 96.741825 
L 220.870658 95.192253 
L 221.521268 101.851989 
L 222.171878 98.645101 
L 222.822489 99.190843 
L 223.473099 96.443139 
L 224.123709 99.811706 
L 224.77432 100.158696 
L 225.42493 96.294331 
L 226.72615 99.160494 
L 227.376761 96.022456 
L 228.027371 98.872552 
L 228.677981 96.95522 
L 229.328592 101.562305 
L 229.979202 98.844034 
L 230.629812 97.383991 
L 231.280423 96.942575 
L 231.931033 97.376132 
L 232.581643 103.556111 
L 233.232254 100.044105 
L 233.882864 94.615781 
L 234.533474 96.566161 
L 235.184085 96.105074 
L 235.834695 100.87553 
L 236.485305 100.247215 
L 237.135915 100.43581 
L 237.786526 102.941764 
L 238.437136 97.666756 
L 239.087746 98.898636 
L 239.738357 98.778985 
L 240.388967 97.293808 
L 241.039577 101.103644 
L 241.690188 99.183328 
L 242.340798 96.656153 
L 242.991408 100.154291 
L 243.642019 100.896222 
L 244.292629 101.320819 
L 244.943239 96.250627 
L 245.59385 99.278226 
L 246.24446 97.436602 
L 246.89507 98.665403 
L 247.54568 97.784957 
L 248.196291 97.137837 
L 248.846901 100.025368 
L 249.497511 97.09223 
L 250.148122 96.637227 
L 250.798732 97.457387 
L 251.449342 95.725246 
L 252.099953 98.184328 
L 252.750563 99.146212 
L 253.401173 99.135934 
L 254.051784 97.161886 
L 254.702394 98.015626 
L 255.353004 97.331857 
L 256.003615 95.385924 
L 256.654225 102.308898 
L 257.955445 98.44705 
L 258.606056 97.713138 
L 259.256666 97.777406 
L 259.907276 95.401541 
L 260.557887 97.588983 
L 261.208497 101.475402 
L 261.859107 97.183993 
L 262.509718 105.608791 
L 263.160328 99.188756 
L 263.810938 97.673158 
L 264.461549 99.123329 
L 265.112159 101.374366 
L 265.762769 99.134343 
L 266.413379 101.825339 
L 267.06399 99.940242 
L 267.7146 98.672533 
L 268.36521 99.839045 
L 269.015821 104.484467 
L 269.666431 98.12135 
L 270.317041 101.435326 
L 270.967652 98.399939 
L 271.618262 100.501052 
L 272.268872 108.77479 
L 272.919483 98.496868 
L 273.570093 102.969674 
L 274.220703 98.110389 
L 274.871314 104.228323 
L 275.521924 105.653276 
L 276.823144 99.413166 
L 277.473755 94.182187 
L 278.124365 98.199518 
L 278.774975 94.997589 
L 279.425586 99.945084 
L 280.076196 93.806162 
L 280.726806 94.771247 
L 281.377417 92.524216 
L 282.028027 95.908276 
L 282.678637 94.478116 
L 283.329248 95.294726 
L 283.979858 97.555806 
L 284.630468 93.000925 
L 285.281079 93.118539 
L 285.931689 94.056507 
L 286.582299 91.007014 
L 287.232909 90.668124 
L 287.88352 93.347555 
L 288.53413 96.528464 
L 289.18474 97.439518 
L 289.835351 98.930944 
L 290.485961 95.719131 
L 291.136571 95.57549 
L 291.787182 98.145244 
L 292.437792 92.308358 
L 293.088402 95.926806 
L 293.739013 95.936093 
L 294.389623 98.139335 
L 295.040233 93.560352 
L 295.690844 96.462065 
L 296.341454 96.575122 
L 296.992064 94.067186 
L 297.642674 94.64289 
L 298.293285 95.845594 
L 298.943895 94.280264 
L 299.594505 93.808947 
L 300.895726 93.17867 
L 301.546336 91.487435 
L 302.196947 93.34518 
L 302.847557 92.253972 
L 303.498167 87.888664 
L 304.148778 90.598299 
L 304.799388 88.666538 
L 305.449998 90.332944 
L 306.100608 88.906922 
L 306.751219 91.915403 
L 307.401829 85.945236 
L 308.052439 90.721326 
L 308.70305 91.44916 
L 310.00427 84.455349 
L 310.654881 86.413566 
L 311.305491 89.682404 
L 311.956101 87.007396 
L 312.606712 89.108623 
L 313.257322 88.37721 
L 313.907932 88.486027 
L 314.558543 89.427599 
L 315.209153 89.963679 
L 315.859763 87.893627 
L 316.510373 86.97755 
L 317.160984 89.351655 
L 317.811594 90.798318 
L 318.462204 87.675227 
L 319.112815 89.382398 
L 319.763425 91.405584 
L 320.414035 89.357432 
L 321.064646 85.411362 
L 322.365866 89.5122 
L 323.016477 84.305132 
L 323.667087 88.917375 
L 324.317697 87.353682 
L 324.968308 87.663566 
L 325.618918 87.084972 
L 326.269528 87.251686 
L 326.920138 88.170447 
L 327.570749 83.923092 
L 328.221359 86.406852 
L 328.871969 84.706966 
L 329.52258 81.394846 
L 330.17319 82.644129 
L 330.8238 82.902538 
L 331.474411 82.162205 
L 332.125021 84.528602 
L 332.775631 78.626126 
L 333.426242 86.853159 
L 334.076852 85.929547 
L 334.727462 87.24193 
L 335.378073 84.128136 
L 336.028683 83.187942 
L 336.679293 84.446336 
L 337.329903 80.842169 
L 337.980514 78.545623 
L 338.631124 82.649254 
L 339.281734 85.409092 
L 339.932345 83.693834 
L 340.582955 85.238517 
L 341.233565 82.154508 
L 341.884176 81.332368 
L 342.534786 77.310883 
L 343.185396 75.240109 
L 343.836007 80.83883 
L 344.486617 83.25561 
L 345.137227 84.41008 
L 345.787837 90.308739 
L 347.089058 85.050247 
L 347.739668 78.562045 
L 348.390279 79.864178 
L 349.040889 79.204425 
L 349.691499 80.054629 
L 350.34211 79.850845 
L 350.99272 78.348032 
L 351.64333 77.585404 
L 352.293941 75.366406 
L 352.944551 80.264082 
L 353.595161 79.769499 
L 354.245772 80.472422 
L 354.896382 81.50046 
L 355.546992 77.055804 
L 356.197602 81.39082 
L 356.848213 83.2919 
L 357.498823 79.811405 
L 358.149433 73.234854 
L 358.800044 76.802589 
L 359.450654 71.812029 
L 360.101264 74.624073 
L 360.751875 75.377833 
L 361.402485 75.328962 
L 362.703706 80.069766 
L 363.354316 79.0898 
L 364.004926 81.906167 
L 364.655537 80.659214 
L 365.306147 77.748626 
L 365.956757 81.136393 
L 366.607367 77.278035 
L 367.257978 81.010454 
L 367.908588 78.477466 
L 368.559198 77.012031 
L 369.209809 76.488814 
L 369.860419 71.153552 
L 370.511029 76.45502 
L 371.16164 75.856009 
L 371.81225 74.910778 
L 372.46286 76.032967 
L 373.113471 81.59454 
L 373.764081 78.88808 
L 374.414691 78.804588 
L 375.065302 74.825775 
L 375.715912 79.277608 
L 376.366522 75.156629 
L 377.017132 74.871391 
L 377.667743 72.957115 
L 378.318353 73.177751 
L 378.968963 76.611175 
L 379.619574 81.719194 
L 380.270184 76.963358 
L 380.920794 75.377964 
L 381.571405 75.35768 
L 382.222015 72.175469 
L 382.872625 75.104415 
L 383.523236 71.159352 
L 384.173846 69.176804 
L 384.824456 72.409384 
L 385.475066 69.345705 
L 386.125677 70.249123 
L 386.776287 70.021014 
L 387.426897 70.120024 
L 388.077508 72.081953 
L 388.728118 71.46596 
L 389.378728 72.956275 
L 390.029339 72.533726 
L 390.679949 71.256953 
L 391.330559 72.422221 
L 391.98117 76.304994 
L 392.63178 74.98332 
L 393.28239 77.050752 
L 393.933001 73.1738 
L 394.583611 71.569471 
L 395.234221 71.833451 
L 395.884831 70.841601 
L 396.535442 69.011284 
L 397.186052 66.195048 
L 397.836662 71.384674 
L 398.487273 70.741406 
L 398.487273 70.741406 
" clip-path="url(#p7c09928eeb)" style="fill: none; stroke-dasharray: 9.6,2.4,1.5,2.4; stroke-dashoffset: 0; stroke: #008000; stroke-width: 1.5"/>
   </g>
   <g id="line2d_24">
    <path d="M 73.832727 148.200578 
L 74.483338 137.333702 
L 75.133948 140.955994 
L 75.784558 133.711409 
L 76.435169 128.548693 
L 77.085779 131.012554 
L 77.736389 132.329841 
L 78.386999 128.548693 
L 79.03761 126.28216 
L 79.68822 131.012554 
L 80.33883 129.753834 
L 80.989441 129.753834 
L 81.640051 126.28216 
L 82.290661 129.753834 
L 82.941272 121.301544 
L 83.591882 124.183678 
L 84.242492 121.301544 
L 84.893103 125.213484 
L 85.543713 118.68585 
L 86.194323 122.230038 
L 86.844934 121.301544 
L 87.495544 115.536324 
L 88.146154 111.38502 
L 88.796764 116.291477 
L 89.447375 119.531183 
L 90.097985 114.800788 
L 90.748595 117.865023 
L 91.399206 112.702306 
L 92.049816 113.384666 
L 92.700426 105.58595 
L 93.351037 112.702306 
L 94.001647 103.562479 
L 94.652257 108.337292 
L 95.302868 114.083875 
L 95.953478 105.58595 
L 96.604088 107.204479 
L 97.254698 107.765221 
L 97.905309 100.774996 
L 98.555919 107.765221 
L 99.206529 108.921159 
L 99.85714 112.702306 
L 100.50775 119.531183 
L 101.15836 112.702306 
L 101.808971 110.748667 
L 102.459581 114.083875 
L 103.110191 106.115247 
L 103.760802 112.036004 
L 104.411412 111.38502 
L 105.062022 107.204479 
L 105.712633 101.674009 
L 106.363243 116.291477 
L 107.013853 111.38502 
L 107.664463 112.036004 
L 108.315074 115.536324 
L 108.965684 110.748667 
L 109.616294 114.800788 
L 110.266905 116.291477 
L 110.917515 114.083875 
L 111.568125 114.083875 
L 112.869346 119.531183 
L 113.519956 114.083875 
L 114.170567 114.800788 
L 114.821177 101.220935 
L 115.471787 114.800788 
L 116.122398 102.134451 
L 116.773008 108.921159 
L 117.423618 102.602504 
L 118.074228 92.40847 
L 118.724839 97.439787 
L 119.375449 94.812529 
L 120.026059 95.538634 
L 120.67667 101.220935 
L 121.32728 91.121133 
L 121.97789 90.498766 
L 122.628501 93.074772 
L 123.279111 90.192638 
L 123.929721 102.134451 
L 124.580332 97.835829 
L 125.230942 97.835829 
L 125.881552 89.000186 
L 126.532163 89.293625 
L 127.182773 99.903649 
L 127.833383 95.173254 
L 128.483993 93.074772 
L 129.134604 89.889784 
L 129.785214 95.538634 
L 130.435824 98.237489 
L 131.086435 97.049208 
L 131.737045 99.477828 
L 132.387655 97.835829 
L 133.038266 103.078424 
L 133.688876 94.812529 
L 134.339486 94.104578 
L 134.990097 99.903649 
L 135.640707 101.220935 
L 136.291317 97.835829 
L 136.941927 93.413897 
L 137.592538 97.439787 
L 138.243148 106.654626 
L 138.893758 92.40847 
L 139.544369 101.220935 
L 140.194979 99.477828 
L 140.845589 95.538634 
L 141.4962 93.074772 
L 142.14681 92.40847 
L 142.79742 94.456341 
L 143.448031 102.602504 
L 144.098641 93.074772 
L 144.749251 92.081107 
L 145.399862 89.889784 
L 146.701082 83.691883 
L 147.351692 88.422277 
L 148.002303 95.173254 
L 148.652913 97.439787 
L 149.303523 85.697432 
L 149.954134 97.439787 
L 150.604744 91.437522 
L 151.255354 83.934945 
L 151.905965 90.808239 
L 152.556575 89.293625 
L 153.207185 87.300684 
L 153.857796 96.283849 
L 154.508406 89.293625 
L 155.159016 97.835829 
L 155.809627 88.422277 
L 156.460237 90.192638 
L 157.110847 85.958416 
L 157.761457 93.074772 
L 158.412068 89.000186 
L 159.062678 86.221827 
L 159.713288 89.590136 
L 160.363899 87.300684 
L 161.014509 82.97497 
L 161.665119 87.300684 
L 162.31573 84.92861 
L 162.96634 91.121133 
L 163.61695 91.121133 
L 164.267561 91.757486 
L 164.918171 88.422277 
L 165.568781 88.422277 
L 166.219392 84.180111 
L 166.870002 87.300684 
L 167.520612 84.92861 
L 168.171222 88.422277 
L 169.472443 89.590136 
L 170.123053 85.182572 
L 170.773664 87.300684 
L 171.424274 82.739977 
L 172.074884 85.697432 
L 172.725495 83.21193 
L 173.376105 86.756118 
L 174.026715 92.40847 
L 174.677326 85.182572 
L 175.327936 90.192638 
L 175.978546 81.819032 
L 176.629156 81.147462 
L 177.279767 91.121133 
L 177.930377 85.958416 
L 178.580987 85.958416 
L 179.231598 76.095573 
L 179.882208 74.302788 
L 180.532818 75.9111 
L 181.183429 75.364783 
L 181.834039 76.656315 
L 182.484649 75.364783 
L 183.13526 76.656315 
L 183.78587 82.27576 
L 184.43648 77.812253 
L 185.087091 81.147462 
L 185.737701 73.616293 
L 186.388311 79.017394 
L 187.689532 72.616782 
L 188.340142 82.97497 
L 188.990752 79.017394 
L 189.641363 79.850294 
L 190.291973 84.92861 
L 190.942583 80.708437 
L 191.593194 81.147462 
L 192.243804 73.447238 
L 192.894414 81.819032 
L 193.545025 74.129598 
L 194.195635 80.491451 
L 194.846245 81.369554 
L 195.496856 79.430782 
L 196.147466 82.27576 
L 196.798076 76.095573 
L 197.448686 78.009582 
L 198.099297 89.889784 
L 198.749907 76.095573 
L 199.400517 71.809988 
L 200.051128 77.036409 
L 200.701738 77.228386 
L 201.352348 76.468165 
L 202.002959 73.95746 
L 202.653569 74.477044 
L 203.304179 80.708437 
L 203.95479 76.095573 
L 204.6054 76.656315 
L 205.25601 84.676905 
L 205.906621 74.828807 
L 206.557231 83.934945 
L 207.207841 83.934945 
L 207.858451 81.369554 
L 208.509062 78.009582 
L 209.159672 77.228386 
L 209.810282 78.812942 
L 210.460893 80.062404 
L 211.111503 71.180705 
L 211.762113 85.182572 
L 212.412724 80.708437 
L 213.063334 82.27576 
L 213.713944 82.739977 
L 214.364555 83.934945 
L 215.015165 79.850294 
L 215.665775 82.97497 
L 216.316385 75.727821 
L 216.966996 82.97497 
L 217.617606 82.97497 
L 218.268216 80.491451 
L 218.918827 79.850294 
L 219.569437 73.95746 
L 220.220047 80.276115 
L 220.870658 81.593401 
L 221.521268 75.727821 
L 222.171878 75.364783 
L 222.822489 79.223334 
L 223.473099 77.61629 
L 224.123709 74.828807 
L 224.77432 82.506917 
L 225.42493 73.279187 
L 226.07554 78.408413 
L 226.72615 79.223334 
L 227.376761 80.276115 
L 228.027371 76.468165 
L 229.328592 81.819032 
L 229.979202 78.609955 
L 230.629812 79.223334 
L 231.280423 80.708437 
L 231.931033 77.421674 
L 232.581643 78.009582 
L 233.232254 72.780936 
L 233.882864 74.828807 
L 234.533474 77.421674 
L 235.184085 75.9111 
L 235.834695 71.33672 
L 236.485305 82.046475 
L 237.135915 80.276115 
L 237.786526 79.223334 
L 238.437136 79.850294 
L 239.087746 72.453573 
L 239.738357 82.046475 
L 240.388967 81.593401 
L 241.039577 83.934945 
L 241.690188 80.708437 
L 242.340798 78.208295 
L 242.991408 81.593401 
L 243.642019 81.593401 
L 244.292629 75.727821 
L 244.943239 75.006341 
L 245.59385 78.408413 
L 246.24446 77.61629 
L 246.89507 84.676905 
L 247.54568 77.61629 
L 248.196291 79.850294 
L 248.846901 84.180111 
L 249.497511 79.223334 
L 250.148122 75.54572 
L 250.798732 79.850294 
L 251.449342 75.364783 
L 252.099953 75.54572 
L 252.750563 74.65238 
L 253.401173 79.850294 
L 254.051784 78.009582 
L 254.702394 77.228386 
L 255.353004 81.369554 
L 256.003615 79.017394 
L 256.654225 80.062404 
L 257.304835 79.850294 
L 257.955445 72.616782 
L 258.606056 75.727821 
L 259.256666 75.727821 
L 259.907276 76.656315 
L 260.557887 73.786363 
L 261.208497 75.9111 
L 261.859107 77.036409 
L 262.509718 87.300684 
L 263.160328 77.421674 
L 263.810938 74.477044 
L 264.461549 77.421674 
L 265.112159 83.934945 
L 265.762769 76.095573 
L 266.413379 79.223334 
L 267.06399 81.147462 
L 267.7146 73.786363 
L 268.36521 76.845724 
L 269.015821 88.137687 
L 269.666431 84.427419 
L 270.317041 77.421674 
L 270.967652 82.046475 
L 271.618262 77.421674 
L 272.268872 83.691883 
L 272.919483 80.062404 
L 273.570093 73.447238 
L 274.871314 75.54572 
L 275.521924 79.639761 
L 276.172534 76.095573 
L 276.823144 76.095573 
L 277.473755 76.845724 
L 278.124365 74.65238 
L 278.774975 72.946047 
L 279.425586 76.468165 
L 280.076196 81.369554 
L 280.726806 71.33672 
L 281.377417 73.279187 
L 282.028027 76.656315 
L 282.678637 76.468165 
L 283.329248 75.54572 
L 283.979858 75.364783 
L 284.630468 74.477044 
L 285.281079 72.780936 
L 285.931689 70.717754 
L 286.582299 71.180705 
L 287.232909 77.036409 
L 287.88352 75.364783 
L 288.53413 74.828807 
L 289.18474 75.54572 
L 289.835351 75.727821 
L 290.485961 75.006341 
L 291.136571 78.812942 
L 291.787182 71.493599 
L 293.088402 77.421674 
L 293.739013 75.006341 
L 294.389623 71.33672 
L 295.040233 73.112127 
L 295.690844 75.727821 
L 296.341454 73.786363 
L 296.992064 74.828807 
L 297.642674 71.969518 
L 298.293285 75.364783 
L 298.943895 73.95746 
L 299.594505 61.630756 
L 300.245116 65.811298 
L 300.895726 64.429729 
L 301.546336 64.064349 
L 302.196947 62.191498 
L 302.847557 65.555037 
L 303.498167 63.229695 
L 304.148778 64.064349 
L 304.799388 62.418941 
L 305.449998 62.418941 
L 306.100608 61.630756 
L 306.751219 65.555037 
L 307.401829 60.541524 
L 308.052439 62.078458 
L 308.70305 62.191498 
L 309.35366 62.763569 
L 310.00427 62.995673 
L 310.654881 62.995673 
L 311.305491 66.069898 
L 311.956101 64.064349 
L 312.606712 64.307411 
L 313.257322 65.174944 
L 313.907932 62.191498 
L 314.558543 63.943596 
L 315.859763 62.648226 
L 316.510373 64.799885 
L 317.160984 64.429729 
L 317.811594 68.088559 
L 318.462204 62.763569 
L 319.112815 65.301076 
L 319.763425 62.648226 
L 320.414035 62.763569 
L 321.064646 63.229695 
L 321.715256 61.630756 
L 322.365866 63.229695 
L 323.016477 62.995673 
L 323.667087 60.43487 
L 324.317697 62.418941 
L 324.968308 61.080903 
L 326.269528 63.229695 
L 326.920138 63.347436 
L 327.570749 61.299565 
L 328.221359 62.648226 
L 328.871969 61.190023 
L 329.52258 62.648226 
L 330.17319 61.965867 
L 330.8238 60.972202 
L 331.474411 63.584396 
L 332.125021 61.74202 
L 332.775631 63.112442 
L 333.426242 62.995673 
L 334.076852 64.675961 
L 334.727462 63.584396 
L 335.378073 61.409532 
L 336.028683 61.74202 
L 336.679293 61.630756 
L 337.329903 62.879383 
L 337.980514 61.630756 
L 338.631124 61.190023 
L 339.281734 63.112442 
L 339.932345 61.080903 
L 340.582955 62.879383 
L 341.233565 61.853722 
L 341.884176 61.190023 
L 342.534786 62.191498 
L 343.185396 60.648581 
L 343.836007 61.299565 
L 344.486617 62.533352 
L 345.137227 62.191498 
L 345.787837 63.703624 
L 346.438448 61.853722 
L 347.089058 61.190023 
L 347.739668 61.74202 
L 348.390279 61.519928 
L 349.040889 60.541524 
L 349.691499 62.304991 
L 350.34211 62.191498 
L 350.99272 61.853722 
L 351.64333 62.879383 
L 352.944551 59.803248 
L 353.595161 61.74202 
L 354.245772 60.863917 
L 354.896382 61.080903 
L 355.546992 60.648581 
L 356.197602 60.972202 
L 356.848213 61.519928 
L 357.498823 60.541524 
L 358.149433 58.881471 
L 358.800044 58.780879 
L 359.450654 56.283566 
L 360.101264 56.375652 
L 360.751875 55.647212 
L 361.402485 54.415864 
L 362.053095 56.191778 
L 362.703706 57.313372 
L 363.354316 56.747022 
L 364.004926 55.918186 
L 364.655537 54.762248 
L 365.956757 55.737249 
L 366.607367 55.737249 
L 367.257978 57.408875 
L 367.908588 55.378807 
L 368.559198 55.024846 
L 369.209809 55.289901 
L 370.511029 57.123327 
L 371.16164 55.647212 
L 371.81225 53.819704 
L 372.46286 55.918186 
L 373.113471 54.84951 
L 373.764081 57.313372 
L 374.414691 55.918186 
L 375.065302 55.918186 
L 375.715912 54.158829 
L 376.366522 55.201273 
L 377.017132 54.502064 
L 377.667743 54.937042 
L 378.318353 55.201273 
L 378.968963 56.191778 
L 379.619574 54.937042 
L 380.270184 56.747022 
L 380.920794 55.112922 
L 381.571405 56.560728 
L 382.222015 54.762248 
L 382.872625 56.653722 
L 383.523236 55.378807 
L 384.173846 55.112922 
L 384.824456 53.819704 
L 386.125677 54.329926 
L 386.776287 56.191778 
L 387.426897 54.937042 
L 388.077508 55.467993 
L 388.728118 57.988756 
L 389.378728 54.073666 
L 390.029339 56.191778 
L 390.679949 54.158829 
L 391.330559 55.467993 
L 391.98117 55.201273 
L 392.63178 54.762248 
L 393.28239 55.557461 
L 393.933001 55.378807 
L 394.583611 55.918186 
L 395.234221 53.735554 
L 395.884831 54.675254 
L 396.535442 54.84951 
L 397.186052 53.651653 
L 397.836662 53.568 
L 398.487273 55.201273 
L 398.487273 55.201273 
" clip-path="url(#p7c09928eeb)" style="fill: none; stroke: #ff0000; stroke-width: 1.5; stroke-linecap: square"/>
   </g>
   <g id="patch_3">
    <path d="M 57.6 307.584 
L 57.6 41.472 
" style="fill: none; stroke: #000000; stroke-width: 0.8; stroke-linejoin: miter; stroke-linecap: square"/>
   </g>
   <g id="patch_4">
    <path d="M 414.72 307.584 
L 414.72 41.472 
" style="fill: none; stroke: #000000; stroke-width: 0.8; stroke-linejoin: miter; stroke-linecap: square"/>
   </g>
   <g id="patch_5">
    <path d="M 57.6 307.584 
L 414.72 307.584 
" style="fill: none; stroke: #000000; stroke-width: 0.8; stroke-linejoin: miter; stroke-linecap: square"/>
   </g>
   <g id="patch_6">
    <path d="M 57.6 41.472 
L 414.72 41.472 
" style="fill: none; stroke: #000000; stroke-width: 0.8; stroke-linejoin: miter; stroke-linecap: square"/>
   </g>
   <g id="text_13">
    <!-- Population's average and best fitness -->
    <g transform="translate(123.529687 35.472)scale(0.12 -0.12)">
     <defs>
      <path id="DejaVuSans-50" d="M 1259 4147 
L 1259 2394 
L 2053 2394 
Q 2494 2394 2734 2622 
Q 2975 2850 2975 3272 
Q 2975 3691 2734 3919 
Q 2494 4147 2053 4147 
L 1259 4147 
z
M 628 4666 
L 2053 4666 
Q 2838 4666 3239 4311 
Q 3641 3956 3641 3272 
Q 3641 2581 3239 2228 
Q 2838 1875 2053 1875 
L 1259 1875 
L 1259 0 
L 628 0 
L 628 4666 
z
" transform="scale(0.015625)"/>
      <path id="DejaVuSans-70" d="M 1159 525 
L 1159 -1331 
L 581 -1331 
L 581 3500 
L 1159 3500 
L 1159 2969 
Q 1341 3281 1617 3432 
Q 1894 3584 2278 3584 
Q 2916 3584 3314 3078 
Q 3713 2572 3713 1747 
Q 3713 922 3314 415 
Q 2916 -91 2278 -91 
Q 1894 -91 1617 61 
Q 1341 213 1159 525 
z
M 3116 1747 
Q 3116 2381 2855 2742 
Q 2594 3103 2138 3103 
Q 1681 3103 1420 2742 
Q 1159 2381 1159 1747 
Q 1159 1113 1420 752 
Q 1681 391 2138 391 
Q 2594 391 2855 752 
Q 3116 1113 3116 1747 
z
" transform="scale(0.015625)"/>
      <path id="DejaVuSans-75" d="M 544 1381 
L 544 3500 
L 1119 3500 
L 1119 1403 
Q 1119 906 1312 657 
Q 1506 409 1894 409 
Q 2359 409 2629 706 
Q 2900 1003 2900 1516 
L 2900 3500 
L 3475 3500 
L 3475 0 
L 2900 0 
L 2900 538 
Q 2691 219 2414 64 
Q 2138 -91 1772 -91 
Q 1169 -91 856 284 
Q 544 659 544 1381 
z
M 1991 3584 
L 1991 3584 
z
" transform="scale(0.015625)"/>
      <path id="DejaVuSans-6c" d="M 603 4863 
L 1178 4863 
L 1178 0 
L 603 0 
L 603 4863 
z
" transform="scale(0.015625)"/>
      <path id="DejaVuSans-27" d="M 1147 4666 
L 1147 2931 
L 616 2931 
L 616 4666 
L 1147 4666 
z
" transform="scale(0.015625)"/>
      <path id="DejaVuSans-20" transform="scale(0.015625)"/>
      <path id="DejaVuSans-76" d="M 191 3500 
L 800 3500 
L 1894 563 
L 2988 3500 
L 3597 3500 
L 2284 0 
L 1503 0 
L 191 3500 
z
" transform="scale(0.015625)"/>
      <path id="DejaVuSans-67" d="M 2906 1791 
Q 2906 2416 2648 2759 
Q 2391 3103 1925 3103 
Q 1463 3103 1205 2759 
Q 947 2416 947 1791 
Q 947 1169 1205 825 
Q 1463 481 1925 481 
Q 2391 481 2648 825 
Q 2906 1169 2906 1791 
z
M 3481 434 
Q 3481 -459 3084 -895 
Q 2688 -1331 1869 -1331 
Q 1566 -1331 1297 -1286 
Q 1028 -1241 775 -1147 
L 775 -588 
Q 1028 -725 1275 -790 
Q 1522 -856 1778 -856 
Q 2344 -856 2625 -561 
Q 2906 -266 2906 331 
L 2906 616 
Q 2728 306 2450 153 
Q 2172 0 1784 0 
Q 1141 0 747 490 
Q 353 981 353 1791 
Q 353 2603 747 3093 
Q 1141 3584 1784 3584 
Q 2172 3584 2450 3431 
Q 2728 3278 2906 2969 
L 2906 3500 
L 3481 3500 
L 3481 434 
z
" transform="scale(0.015625)"/>
      <path id="DejaVuSans-64" d="M 2906 2969 
L 2906 4863 
L 3481 4863 
L 3481 0 
L 2906 0 
L 2906 525 
Q 2725 213 2448 61 
Q 2172 -91 1784 -91 
Q 1150 -91 751 415 
Q 353 922 353 1747 
Q 353 2572 751 3078 
Q 1150 3584 1784 3584 
Q 2172 3584 2448 3432 
Q 2725 3281 2906 2969 
z
M 947 1747 
Q 947 1113 1208 752 
Q 1469 391 1925 391 
Q 2381 391 2643 752 
Q 2906 1113 2906 1747 
Q 2906 2381 2643 2742 
Q 2381 3103 1925 3103 
Q 1469 3103 1208 2742 
Q 947 2381 947 1747 
z
" transform="scale(0.015625)"/>
      <path id="DejaVuSans-62" d="M 3116 1747 
Q 3116 2381 2855 2742 
Q 2594 3103 2138 3103 
Q 1681 3103 1420 2742 
Q 1159 2381 1159 1747 
Q 1159 1113 1420 752 
Q 1681 391 2138 391 
Q 2594 391 2855 752 
Q 3116 1113 3116 1747 
z
M 1159 2969 
Q 1341 3281 1617 3432 
Q 1894 3584 2278 3584 
Q 2916 3584 3314 3078 
Q 3713 2572 3713 1747 
Q 3713 922 3314 415 
Q 2916 -91 2278 -91 
Q 1894 -91 1617 61 
Q 1341 213 1159 525 
L 1159 0 
L 581 0 
L 581 4863 
L 1159 4863 
L 1159 2969 
z
" transform="scale(0.015625)"/>
      <path id="DejaVuSans-66" d="M 2375 4863 
L 2375 4384 
L 1825 4384 
Q 1516 4384 1395 4259 
Q 1275 4134 1275 3809 
L 1275 3500 
L 2222 3500 
L 2222 3053 
L 1275 3053 
L 1275 0 
L 697 0 
L 697 3053 
L 147 3053 
L 147 3500 
L 697 3500 
L 697 3744 
Q 697 4328 969 4595 
Q 1241 4863 1831 4863 
L 2375 4863 
z
" transform="scale(0.015625)"/>
     </defs>
     <use xlink:href="#DejaVuSans-50"/>
     <use xlink:href="#DejaVuSans-6f" x="56.677734"/>
     <use xlink:href="#DejaVuSans-70" x="117.859375"/>
     <use xlink:href="#DejaVuSans-75" x="181.335938"/>
     <use xlink:href="#DejaVuSans-6c" x="244.714844"/>
     <use xlink:href="#DejaVuSans-61" x="272.498047"/>
     <use xlink:href="#DejaVuSans-74" x="333.777344"/>
     <use xlink:href="#DejaVuSans-69" x="372.986328"/>
     <use xlink:href="#DejaVuSans-6f" x="400.769531"/>
     <use xlink:href="#DejaVuSans-6e" x="461.951172"/>
     <use xlink:href="#DejaVuSans-27" x="525.330078"/>
     <use xlink:href="#DejaVuSans-73" x="552.820312"/>
     <use xlink:href="#DejaVuSans-20" x="604.919922"/>
     <use xlink:href="#DejaVuSans-61" x="636.707031"/>
     <use xlink:href="#DejaVuSans-76" x="697.986328"/>
     <use xlink:href="#DejaVuSans-65" x="757.166016"/>
     <use xlink:href="#DejaVuSans-72" x="818.689453"/>
     <use xlink:href="#DejaVuSans-61" x="859.802734"/>
     <use xlink:href="#DejaVuSans-67" x="921.082031"/>
     <use xlink:href="#DejaVuSans-65" x="984.558594"/>
     <use xlink:href="#DejaVuSans-20" x="1046.082031"/>
     <use xlink:href="#DejaVuSans-61" x="1077.869141"/>
     <use xlink:href="#DejaVuSans-6e" x="1139.148438"/>
     <use xlink:href="#DejaVuSans-64" x="1202.527344"/>
     <use xlink:href="#DejaVuSans-20" x="1266.003906"/>
     <use xlink:href="#DejaVuSans-62" x="1297.791016"/>
     <use xlink:href="#DejaVuSans-65" x="1361.267578"/>
     <use xlink:href="#DejaVuSans-73" x="1422.791016"/>
     <use xlink:href="#DejaVuSans-74" x="1474.890625"/>
     <use xlink:href="#DejaVuSans-20" x="1514.099609"/>
     <use xlink:href="#DejaVuSans-66" x="1545.886719"/>
     <use xlink:href="#DejaVuSans-69" x="1581.091797"/>
     <use xlink:href="#DejaVuSans-74" x="1608.875"/>
     <use xlink:href="#DejaVuSans-6e" x="1648.083984"/>
     <use xlink:href="#DejaVuSans-65" x="1711.462891"/>
     <use xlink:href="#DejaVuSans-73" x="1772.986328"/>
     <use xlink:href="#DejaVuSans-73" x="1825.085938"/>
    </g>
   </g>
   <g id="legend_1">
    <g id="patch_7">
     <path d="M 64.6 302.584 
L 137.540625 302.584 
Q 139.540625 302.584 139.540625 300.584 
L 139.540625 242.8715 
Q 139.540625 240.8715 137.540625 240.8715 
L 64.6 240.8715 
Q 62.6 240.8715 62.6 242.8715 
L 62.6 300.584 
Q 62.6 302.584 64.6 302.584 
z
" style="fill: #ffffff; opacity: 0.8; stroke: #cccccc; stroke-linejoin: miter"/>
    </g>
    <g id="line2d_25">
     <path d="M 66.6 248.969937 
L 76.6 248.969937 
L 86.6 248.969937 
" style="fill: none; stroke: #0000ff; stroke-width: 1.5; stroke-linecap: square"/>
    </g>
    <g id="text_14">
     <!-- average -->
     <g transform="translate(94.6 252.469937)scale(0.1 -0.1)">
      <use xlink:href="#DejaVuSans-61"/>
      <use xlink:href="#DejaVuSans-76" x="61.279297"/>
      <use xlink:href="#DejaVuSans-65" x="120.458984"/>
      <use xlink:href="#DejaVuSans-72" x="181.982422"/>
      <use xlink:href="#DejaVuSans-61" x="223.095703"/>
      <use xlink:href="#DejaVuSans-67" x="284.375"/>
      <use xlink:href="#DejaVuSans-65" x="347.851562"/>
     </g>
    </g>
    <g id="line2d_26">
     <path d="M 66.6 263.648062 
L 76.6 263.648062 
L 86.6 263.648062 
" style="fill: none; stroke-dasharray: 9.6,2.4,1.5,2.4; stroke-dashoffset: 0; stroke: #008000; stroke-width: 1.5"/>
    </g>
    <g id="text_15">
     <!-- -1 sd -->
     <g transform="translate(94.6 267.148062)scale(0.1 -0.1)">
      <defs>
       <path id="DejaVuSans-2d" d="M 313 2009 
L 1997 2009 
L 1997 1497 
L 313 1497 
L 313 2009 
z
" transform="scale(0.015625)"/>
      </defs>
      <use xlink:href="#DejaVuSans-2d"/>
      <use xlink:href="#DejaVuSans-31" x="36.083984"/>
      <use xlink:href="#DejaVuSans-20" x="99.707031"/>
      <use xlink:href="#DejaVuSans-73" x="131.494141"/>
      <use xlink:href="#DejaVuSans-64" x="183.59375"/>
     </g>
    </g>
    <g id="line2d_27">
     <path d="M 66.6 278.326187 
L 76.6 278.326187 
L 86.6 278.326187 
" style="fill: none; stroke-dasharray: 9.6,2.4,1.5,2.4; stroke-dashoffset: 0; stroke: #008000; stroke-width: 1.5"/>
    </g>
    <g id="text_16">
     <!-- +1 sd -->
     <g transform="translate(94.6 281.826187)scale(0.1 -0.1)">
      <defs>
       <path id="DejaVuSans-2b" d="M 2944 4013 
L 2944 2272 
L 4684 2272 
L 4684 1741 
L 2944 1741 
L 2944 0 
L 2419 0 
L 2419 1741 
L 678 1741 
L 678 2272 
L 2419 2272 
L 2419 4013 
L 2944 4013 
z
" transform="scale(0.015625)"/>
      </defs>
      <use xlink:href="#DejaVuSans-2b"/>
      <use xlink:href="#DejaVuSans-31" x="83.789062"/>
      <use xlink:href="#DejaVuSans-20" x="147.412109"/>
      <use xlink:href="#DejaVuSans-73" x="179.199219"/>
      <use xlink:href="#DejaVuSans-64" x="231.298828"/>
     </g>
    </g>
    <g id="line2d_28">
     <path d="M 66.6 293.004312 
L 76.6 293.004312 
L 86.6 293.004312 
" style="fill: none; stroke: #ff0000; stroke-width: 1.5; stroke-linecap: square"/>
    </g>
    <g id="text_17">
     <!-- best -->
     <g transform="translate(94.6 296.504312)scale(0.1 -0.1)">
      <use xlink:href="#DejaVuSans-62"/>
      <use xlink:href="#DejaVuSans-65" x="63.476562"/>
      <use xlink:href="#DejaVuSans-73" x="125"/>
      <use xlink:href="#DejaVuSans-74" x="177.099609"/>
     </g>
    </g>
   </g>
  </g>
 </g>
 <defs>
  <clipPath id="p7c09928eeb">
   <rect x="57.6" y="41.472" width="357.12" height="266.112"/>
  </clipPath>
 </defs>
</svg>
