<?xml version="1.0" encoding="UTF-8" standalone="no"?>
<!DOCTYPE svg PUBLIC "-//W3C//DTD SVG 1.1//EN"
 "http://www.w3.org/Graphics/SVG/1.1/DTD/svg11.dtd">
<!-- Generated by graphviz version 3.0.0 (20220226.1711)
 -->
<!-- Pages: 1 -->
<svg width="907pt" height="317pt"
 viewBox="0.00 0.00 906.75 316.82" xmlns="http://www.w3.org/2000/svg" xmlns:xlink="http://www.w3.org/1999/xlink">
<g id="graph0" class="graph" transform="scale(1 1) rotate(0) translate(4 312.82)">
<polygon fill="white" stroke="transparent" points="-4,4 -4,-312.82 902.75,-312.82 902.75,4 -4,4"/>
<!-- d_N_wall -->
<g id="node1" class="node">
<title>d_N_wall</title>
<polygon fill="lightgray" stroke="black" points="52,-293.07 0,-293.07 0,-275.07 52,-275.07 52,-293.07"/>
<text text-anchor="middle" x="26" y="-281.87" font-family="Times,serif" font-size="9.00">d_N_wall</text>
</g>
<!-- left -->
<g id="node14" class="node">
<title>left</title>
<ellipse fill="lightblue" stroke="black" cx="26" cy="-198.57" rx="19.6" ry="19.6"/>
<text text-anchor="middle" x="26" y="-196.37" font-family="Times,serif" font-size="9.00">left</text>
</g>
<!-- d_N_wall&#45;&gt;left -->
<g id="edge5" class="edge">
<title>d_N_wall&#45;&gt;left</title>
<path fill="none" stroke="green" stroke-width="1.93" d="M26,-275.06C26,-264.48 26,-245.27 26,-228.87"/>
<polygon fill="green" stroke="green" stroke-width="1.93" points="29.5,-228.62 26,-218.62 22.5,-228.62 29.5,-228.62"/>
</g>
<!-- d_S_wall -->
<g id="node2" class="node">
<title>d_S_wall</title>
<polygon fill="lightgray" stroke="black" points="220,-293.07 170,-293.07 170,-275.07 220,-275.07 220,-293.07"/>
<text text-anchor="middle" x="195" y="-281.87" font-family="Times,serif" font-size="9.00">d_S_wall</text>
</g>
<!-- right -->
<g id="node16" class="node">
<title>right</title>
<ellipse fill="lightblue" stroke="black" cx="328" cy="-198.57" rx="23.17" ry="23.17"/>
<text text-anchor="middle" x="328" y="-196.37" font-family="Times,serif" font-size="9.00">right</text>
</g>
<!-- d_S_wall&#45;&gt;right -->
<g id="edge1" class="edge">
<title>d_S_wall&#45;&gt;right</title>
<path fill="none" stroke="green" stroke-width="1.32" d="M209.67,-275.02C229.59,-263.96 266.13,-243.16 296,-223.32 297.87,-222.08 299.79,-220.77 301.7,-219.42"/>
<polygon fill="green" stroke="green" stroke-width="1.32" points="303.89,-222.16 309.96,-213.47 299.8,-216.48 303.89,-222.16"/>
</g>
<!-- 9248 -->
<g id="node18" class="node">
<title>9248</title>
<ellipse fill="white" stroke="black" cx="89" cy="-198.57" rx="25" ry="25"/>
<text text-anchor="middle" x="89" y="-196.37" font-family="Times,serif" font-size="9.00">9248</text>
</g>
<!-- d_S_wall&#45;&gt;9248 -->
<g id="edge25" class="edge">
<title>d_S_wall&#45;&gt;9248</title>
<path fill="none" stroke="green" stroke-width="0.39" d="M184.84,-275.06C169.21,-262.76 138.76,-238.77 116.36,-221.12"/>
<polygon fill="green" stroke="green" stroke-width="0.39" points="118.24,-218.15 108.21,-214.71 113.9,-223.65 118.24,-218.15"/>
</g>
<!-- 6800 -->
<g id="node23" class="node">
<title>6800</title>
<ellipse fill="white" stroke="black" cx="262" cy="-111.66" rx="25" ry="25"/>
<text text-anchor="middle" x="262" y="-109.46" font-family="Times,serif" font-size="9.00">6800</text>
</g>
<!-- d_S_wall&#45;&gt;6800 -->
<g id="edge14" class="edge">
<title>d_S_wall&#45;&gt;6800</title>
<path fill="none" stroke="red" stroke-width="0.26" stroke-dasharray="1,5" d="M188.25,-274.93C173.54,-256.12 141.4,-208.61 161,-173.82 175.35,-148.35 205.06,-132.28 228.56,-123.04"/>
<polygon fill="red" stroke="red" stroke-width="0.26" points="230.02,-126.23 238.19,-119.49 227.6,-119.66 230.02,-126.23"/>
</g>
<!-- 8720 -->
<g id="node24" class="node">
<title>8720</title>
<ellipse fill="white" stroke="black" cx="195" cy="-198.57" rx="25" ry="25"/>
<text text-anchor="middle" x="195" y="-196.37" font-family="Times,serif" font-size="9.00">8720</text>
</g>
<!-- d_S_wall&#45;&gt;8720 -->
<g id="edge17" class="edge">
<title>d_S_wall&#45;&gt;8720</title>
<path fill="none" stroke="red" stroke-width="0.36" d="M195,-275.06C195,-265.51 195,-248.92 195,-233.72"/>
<polygon fill="red" stroke="red" stroke-width="0.36" points="198.5,-233.53 195,-223.53 191.5,-233.53 198.5,-233.53"/>
</g>
<!-- 8951 -->
<g id="node28" class="node">
<title>8951</title>
<ellipse fill="white" stroke="black" cx="262" cy="-198.57" rx="25" ry="25"/>
<text text-anchor="middle" x="262" y="-196.37" font-family="Times,serif" font-size="9.00">8951</text>
</g>
<!-- d_S_wall&#45;&gt;8951 -->
<g id="edge21" class="edge">
<title>d_S_wall&#45;&gt;8951</title>
<path fill="none" stroke="red" stroke-width="0.15" d="M201.42,-275.06C210.38,-263.91 227.03,-243.15 240.61,-226.23"/>
<polygon fill="red" stroke="red" stroke-width="0.15" points="243.46,-228.27 246.99,-218.28 238,-223.89 243.46,-228.27"/>
</g>
<!-- d_E_wall -->
<g id="node3" class="node">
<title>d_E_wall</title>
<polygon fill="lightgray" stroke="black" points="382,-293.07 332,-293.07 332,-275.07 382,-275.07 382,-293.07"/>
<text text-anchor="middle" x="357" y="-281.87" font-family="Times,serif" font-size="9.00">d_E_wall</text>
</g>
<!-- d_E_wall&#45;&gt;right -->
<g id="edge2" class="edge">
<title>d_E_wall&#45;&gt;right</title>
<path fill="none" stroke="red" stroke-width="1.85" d="M354.22,-275.06C350.67,-264.86 344.34,-246.61 338.78,-230.61"/>
<polygon fill="red" stroke="red" stroke-width="1.85" points="342.04,-229.33 335.45,-221.03 335.43,-231.63 342.04,-229.33"/>
</g>
<!-- 8595 -->
<g id="node27" class="node">
<title>8595</title>
<ellipse fill="white" stroke="black" cx="513" cy="-198.57" rx="25" ry="25"/>
<text text-anchor="middle" x="513" y="-196.37" font-family="Times,serif" font-size="9.00">8595</text>
</g>
<!-- d_E_wall&#45;&gt;8595 -->
<g id="edge24" class="edge">
<title>d_E_wall&#45;&gt;8595</title>
<path fill="none" stroke="green" stroke-width="0.18" d="M376.28,-274.94C400.96,-264.25 444.73,-244.37 480,-223.32 481.68,-222.32 483.39,-221.25 485.09,-220.15"/>
<polygon fill="green" stroke="green" stroke-width="0.18" points="487.17,-222.97 493.48,-214.46 483.24,-217.18 487.17,-222.97"/>
</g>
<!-- d_W_wall -->
<g id="node4" class="node">
<title>d_W_wall</title>
<polygon fill="lightgray" stroke="black" points="806.5,-207.57 753.5,-207.57 753.5,-189.57 806.5,-189.57 806.5,-207.57"/>
<text text-anchor="middle" x="780" y="-196.37" font-family="Times,serif" font-size="9.00">d_W_wall</text>
</g>
<!-- down -->
<g id="node15" class="node">
<title>down</title>
<ellipse fill="lightblue" stroke="black" cx="738" cy="-111.66" rx="26.33" ry="26.33"/>
<text text-anchor="middle" x="738" y="-109.46" font-family="Times,serif" font-size="9.00">down</text>
</g>
<!-- d_W_wall&#45;&gt;down -->
<g id="edge3" class="edge">
<title>d_W_wall&#45;&gt;down</title>
<path fill="none" stroke="green" stroke-width="2.17" d="M775.97,-189.43C770.89,-179.16 761.85,-160.89 753.87,-144.74"/>
<polygon fill="green" stroke="green" stroke-width="2.17" points="756.9,-142.97 749.33,-135.56 750.62,-146.08 756.9,-142.97"/>
</g>
<!-- 4326 -->
<g id="node19" class="node">
<title>4326</title>
<ellipse fill="white" stroke="black" cx="807" cy="-111.66" rx="25" ry="25"/>
<text text-anchor="middle" x="807" y="-109.46" font-family="Times,serif" font-size="9.00">4326</text>
</g>
<!-- d_W_wall&#45;&gt;4326 -->
<g id="edge10" class="edge">
<title>d_W_wall&#45;&gt;4326</title>
<path fill="none" stroke="green" stroke-width="0.35" d="M782.59,-189.43C785.82,-179.26 791.56,-161.23 796.65,-145.2"/>
<polygon fill="green" stroke="green" stroke-width="0.35" points="800.02,-146.15 799.72,-135.56 793.35,-144.03 800.02,-146.15"/>
</g>
<!-- tail_N -->
<g id="node5" class="node">
<title>tail_N</title>
<polygon fill="lightgray" stroke="black" points="407,-207.57 369,-207.57 369,-189.57 407,-189.57 407,-207.57"/>
<text text-anchor="middle" x="388" y="-196.37" font-family="Times,serif" font-size="9.00">tail_N</text>
</g>
<!-- tail_N&#45;&gt;6800 -->
<g id="edge7" class="edge">
<title>tail_N&#45;&gt;6800</title>
<path fill="none" stroke="green" stroke-width="0.34" d="M378.94,-189.31C373.59,-184.57 366.59,-178.63 360,-173.82 338.05,-157.79 311.87,-141.59 292.09,-129.9"/>
<polygon fill="green" stroke="green" stroke-width="0.34" points="293.62,-126.73 283.22,-124.7 290.08,-132.77 293.62,-126.73"/>
</g>
<!-- tail_S -->
<g id="node6" class="node">
<title>tail_S</title>
<polygon fill="lightgray" stroke="black" points="623.5,-293.07 586.5,-293.07 586.5,-275.07 623.5,-275.07 623.5,-293.07"/>
<text text-anchor="middle" x="605" y="-281.87" font-family="Times,serif" font-size="9.00">tail_S</text>
</g>
<!-- tail_E -->
<g id="node7" class="node">
<title>tail_E</title>
<polygon fill="lightgray" stroke="black" points="595.5,-207.57 558.5,-207.57 558.5,-189.57 595.5,-189.57 595.5,-207.57"/>
<text text-anchor="middle" x="577" y="-196.37" font-family="Times,serif" font-size="9.00">tail_E</text>
</g>
<!-- 5003 -->
<g id="node21" class="node">
<title>5003</title>
<ellipse fill="white" stroke="black" cx="577" cy="-111.66" rx="25" ry="25"/>
<text text-anchor="middle" x="577" y="-109.46" font-family="Times,serif" font-size="9.00">5003</text>
</g>
<!-- tail_E&#45;&gt;5003 -->
<g id="edge6" class="edge">
<title>tail_E&#45;&gt;5003</title>
<path fill="none" stroke="red" stroke-width="0.11" stroke-dasharray="1,5" d="M577,-189.43C577,-179.65 577,-162.61 577,-147.07"/>
<polygon fill="red" stroke="red" stroke-width="0.11" points="580.5,-146.65 577,-136.65 573.5,-146.65 580.5,-146.65"/>
</g>
<!-- tail_W -->
<g id="node8" class="node">
<title>tail_W</title>
<polygon fill="lightgray" stroke="black" points="501,-293.07 461,-293.07 461,-275.07 501,-275.07 501,-293.07"/>
<text text-anchor="middle" x="481" y="-281.87" font-family="Times,serif" font-size="9.00">tail_W</text>
</g>
<!-- tail_W&#45;&gt;8595 -->
<g id="edge23" class="edge">
<title>tail_W&#45;&gt;8595</title>
<path fill="none" stroke="red" stroke-width="0.82" d="M484.07,-275.06C487.9,-265.06 494.7,-247.33 500.74,-231.57"/>
<polygon fill="red" stroke="red" stroke-width="0.82" points="504.06,-232.68 504.37,-222.09 497.52,-230.18 504.06,-232.68"/>
</g>
<!-- apple_N -->
<g id="node9" class="node">
<title>apple_N</title>
<polygon fill="lightgray" stroke="black" points="707.5,-207.57 660.5,-207.57 660.5,-189.57 707.5,-189.57 707.5,-207.57"/>
<text text-anchor="middle" x="684" y="-196.37" font-family="Times,serif" font-size="9.00">apple_N</text>
</g>
<!-- up -->
<g id="node13" class="node">
<title>up</title>
<ellipse fill="lightblue" stroke="black" cx="638" cy="-111.66" rx="18.27" ry="18.27"/>
<text text-anchor="middle" x="638" y="-109.46" font-family="Times,serif" font-size="9.00">up</text>
</g>
<!-- apple_N&#45;&gt;up -->
<g id="edge4" class="edge">
<title>apple_N&#45;&gt;up</title>
<path fill="none" stroke="green" stroke-width="3.03" d="M679.59,-189.43C673.14,-177.52 660.86,-154.86 651.31,-137.23"/>
<polygon fill="green" stroke="green" stroke-width="3.03" points="654.18,-135.18 646.34,-128.05 648.02,-138.51 654.18,-135.18"/>
</g>
<!-- apple_N&#45;&gt;down -->
<g id="edge8" class="edge">
<title>apple_N&#45;&gt;down</title>
<path fill="none" stroke="red" stroke-width="0.26" d="M689.18,-189.43C695.95,-178.78 708.19,-159.54 718.72,-142.98"/>
<polygon fill="red" stroke="red" stroke-width="0.26" points="721.93,-144.44 724.35,-134.13 716.03,-140.69 721.93,-144.44"/>
</g>
<!-- 8607 -->
<g id="node30" class="node">
<title>8607</title>
<ellipse fill="white" stroke="black" cx="638" cy="-24.75" rx="25" ry="25"/>
<text text-anchor="middle" x="638" y="-22.55" font-family="Times,serif" font-size="9.00">8607</text>
</g>
<!-- apple_N&#45;&gt;8607 -->
<g id="edge26" class="edge">
<title>apple_N&#45;&gt;8607</title>
<path fill="none" stroke="red" stroke-width="0.38" d="M683.35,-189.53C681.69,-170.89 676.58,-123.44 665,-85.5 662.02,-75.72 657.8,-65.45 653.59,-56.24"/>
<polygon fill="red" stroke="red" stroke-width="0.38" points="656.7,-54.62 649.25,-47.08 650.37,-57.62 656.7,-54.62"/>
</g>
<!-- apple_S -->
<g id="node10" class="node">
<title>apple_S</title>
<polygon fill="lightgray" stroke="black" points="883.5,-207.57 838.5,-207.57 838.5,-189.57 883.5,-189.57 883.5,-207.57"/>
<text text-anchor="middle" x="861" y="-196.37" font-family="Times,serif" font-size="9.00">apple_S</text>
</g>
<!-- apple_S&#45;&gt;4326 -->
<g id="edge9" class="edge">
<title>apple_S&#45;&gt;4326</title>
<path fill="none" stroke="green" stroke-width="0.21" stroke-dasharray="1,5" d="M855.82,-189.43C848.85,-178.47 836.09,-158.41 825.36,-141.54"/>
<polygon fill="green" stroke="green" stroke-width="0.21" points="828.3,-139.63 819.98,-133.07 822.39,-143.39 828.3,-139.63"/>
</g>
<!-- 8935 -->
<g id="node20" class="node">
<title>8935</title>
<ellipse fill="white" stroke="black" cx="874" cy="-111.66" rx="25" ry="25"/>
<text text-anchor="middle" x="874" y="-109.46" font-family="Times,serif" font-size="9.00">8935</text>
</g>
<!-- apple_S&#45;&gt;8935 -->
<g id="edge20" class="edge">
<title>apple_S&#45;&gt;8935</title>
<path fill="none" stroke="green" stroke-width="0.38" d="M862.25,-189.43C863.77,-179.49 866.44,-162.05 868.85,-146.3"/>
<polygon fill="green" stroke="green" stroke-width="0.38" points="872.33,-146.7 870.38,-136.29 865.41,-145.64 872.33,-146.7"/>
</g>
<!-- apple_E -->
<g id="node11" class="node">
<title>apple_E</title>
<polygon fill="lightgray" stroke="black" points="470.5,-207.57 425.5,-207.57 425.5,-189.57 470.5,-189.57 470.5,-207.57"/>
<text text-anchor="middle" x="448" y="-196.37" font-family="Times,serif" font-size="9.00">apple_E</text>
</g>
<!-- apple_E&#45;&gt;6800 -->
<g id="edge11" class="edge">
<title>apple_E&#45;&gt;6800</title>
<path fill="none" stroke="green" stroke-width="0.12" d="M438.37,-189.38C432.24,-184.44 423.98,-178.27 416,-173.82 376.43,-151.78 327.28,-133.71 295.3,-123.07"/>
<polygon fill="green" stroke="green" stroke-width="0.12" points="296.15,-119.67 285.55,-119.88 293.97,-126.32 296.15,-119.67"/>
</g>
<!-- apple_W -->
<g id="node12" class="node">
<title>apple_W</title>
<polygon fill="lightgray" stroke="black" points="690,-293.07 642,-293.07 642,-275.07 690,-275.07 690,-293.07"/>
<text text-anchor="middle" x="666" y="-281.87" font-family="Times,serif" font-size="9.00">apple_W</text>
</g>
<!-- up&#45;&gt;8607 -->
<g id="edge13" class="edge">
<title>up&#45;&gt;8607</title>
<path fill="none" stroke="red" stroke-width="0.34" stroke-dasharray="1,5" d="M638,-93.07C638,-83.47 638,-71.26 638,-59.88"/>
<polygon fill="red" stroke="red" stroke-width="0.34" points="641.5,-59.76 638,-49.76 634.5,-59.76 641.5,-59.76"/>
</g>
<!-- 8706 -->
<g id="node17" class="node">
<title>8706</title>
<ellipse fill="white" stroke="black" cx="510" cy="-111.66" rx="25" ry="25"/>
<text text-anchor="middle" x="510" y="-109.46" font-family="Times,serif" font-size="9.00">8706</text>
</g>
<!-- 3710 -->
<g id="node29" class="node">
<title>3710</title>
<ellipse fill="white" stroke="black" cx="874" cy="-24.75" rx="25" ry="25"/>
<text text-anchor="middle" x="874" y="-22.55" font-family="Times,serif" font-size="9.00">3710</text>
</g>
<!-- 8935&#45;&gt;3710 -->
<g id="edge27" class="edge">
<title>8935&#45;&gt;3710</title>
<path fill="none" stroke="red" stroke-width="0.15" d="M874,-86.56C874,-78.24 874,-68.76 874,-59.8"/>
<polygon fill="red" stroke="red" stroke-width="0.15" points="877.5,-59.62 874,-49.62 870.5,-59.62 877.5,-59.62"/>
</g>
<!-- 5003&#45;&gt;8607 -->
<g id="edge19" class="edge">
<title>5003&#45;&gt;8607</title>
<path fill="none" stroke="red" stroke-width="0.56" stroke-dasharray="1,5" d="M591.15,-90.97C599.08,-79.93 609.1,-65.98 617.84,-53.81"/>
<polygon fill="red" stroke="red" stroke-width="0.56" points="620.94,-55.5 623.93,-45.34 615.25,-51.42 620.94,-55.5"/>
</g>
<!-- 7275 -->
<g id="node22" class="node">
<title>7275</title>
<ellipse fill="white" stroke="black" cx="733" cy="-284.07" rx="25" ry="25"/>
<text text-anchor="middle" x="733" y="-281.87" font-family="Times,serif" font-size="9.00">7275</text>
</g>
<!-- 8720&#45;&gt;6800 -->
<g id="edge18" class="edge">
<title>8720&#45;&gt;6800</title>
<path fill="none" stroke="green" stroke-width="0.26" d="M209.87,-178.73C218.91,-167.26 230.62,-152.44 240.64,-139.73"/>
<polygon fill="green" stroke="green" stroke-width="0.26" points="243.49,-141.76 246.94,-131.75 238,-137.43 243.49,-141.76"/>
</g>
<!-- 8178 -->
<g id="node25" class="node">
<title>8178</title>
<ellipse fill="white" stroke="black" cx="800" cy="-284.07" rx="25" ry="25"/>
<text text-anchor="middle" x="800" y="-281.87" font-family="Times,serif" font-size="9.00">8178</text>
</g>
<!-- 6515 -->
<g id="node26" class="node">
<title>6515</title>
<ellipse fill="white" stroke="black" cx="544" cy="-284.07" rx="25" ry="25"/>
<text text-anchor="middle" x="544" y="-281.87" font-family="Times,serif" font-size="9.00">6515</text>
</g>
<!-- 6515&#45;&gt;8595 -->
<g id="edge12" class="edge">
<title>6515&#45;&gt;8595</title>
<path fill="none" stroke="red" stroke-width="0.31" stroke-dasharray="1,5" d="M535.69,-260.69C532.36,-251.71 528.45,-241.19 524.83,-231.43"/>
<polygon fill="red" stroke="red" stroke-width="0.31" points="528.09,-230.17 521.33,-222.01 521.53,-232.6 528.09,-230.17"/>
</g>
<!-- 8595&#45;&gt;8706 -->
<g id="edge15" class="edge">
<title>8595&#45;&gt;8706</title>
<path fill="none" stroke="red" stroke-width="0.15" d="M512.15,-173.47C511.85,-165.15 511.52,-155.67 511.2,-146.71"/>
<polygon fill="red" stroke="red" stroke-width="0.15" points="514.69,-146.4 510.84,-136.53 507.7,-146.65 514.69,-146.4"/>
</g>
<!-- 8595&#45;&gt;5003 -->
<g id="edge16" class="edge">
<title>8595&#45;&gt;5003</title>
<path fill="none" stroke="green" stroke-width="0.51" d="M527.52,-178.3C536.03,-167.01 546.92,-152.57 556.32,-140.1"/>
<polygon fill="green" stroke="green" stroke-width="0.51" points="559.31,-141.94 562.53,-131.85 553.72,-137.73 559.31,-141.94"/>
</g>
<!-- 8951&#45;&gt;6800 -->
<g id="edge22" class="edge">
<title>8951&#45;&gt;6800</title>
<path fill="none" stroke="red" stroke-width="0.26" stroke-dasharray="1,5" d="M262,-173.47C262,-165.15 262,-155.67 262,-146.71"/>
<polygon fill="red" stroke="red" stroke-width="0.26" points="265.5,-146.53 262,-136.53 258.5,-146.53 265.5,-146.53"/>
</g>
</g>
</svg>
