<?xml version="1.0" encoding="utf-8" standalone="no"?>
<!DOCTYPE svg PUBLIC "-//W3C//DTD SVG 1.1//EN"
  "http://www.w3.org/Graphics/SVG/1.1/DTD/svg11.dtd">
<svg xmlns:xlink="http://www.w3.org/1999/xlink" width="460.8pt" height="345.6pt" viewBox="0 0 460.8 345.6" xmlns="http://www.w3.org/2000/svg" version="1.1">
 <metadata>
  <rdf:RDF xmlns:dc="http://purl.org/dc/elements/1.1/" xmlns:cc="http://creativecommons.org/ns#" xmlns:rdf="http://www.w3.org/1999/02/22-rdf-syntax-ns#">
   <cc:Work>
    <dc:type rdf:resource="http://purl.org/dc/dcmitype/StillImage"/>
    <dc:date>2022-12-03T19:13:47.452702</dc:date>
    <dc:format>image/svg+xml</dc:format>
    <dc:creator>
     <cc:Agent>
      <dc:title>Matplotlib v3.5.3, https://matplotlib.org/</dc:title>
     </cc:Agent>
    </dc:creator>
   </cc:Work>
  </rdf:RDF>
 </metadata>
 <defs>
  <style type="text/css">*{stroke-linejoin: round; stroke-linecap: butt}</style>
 </defs>
 <g id="figure_1">
  <g id="patch_1">
   <path d="M 0 345.6 
L 460.8 345.6 
L 460.8 0 
L 0 0 
z
" style="fill: #ffffff"/>
  </g>
  <g id="axes_1">
   <g id="patch_2">
    <path d="M 57.6 307.584 
L 414.72 307.584 
L 414.72 41.472 
L 57.6 41.472 
z
" style="fill: #ffffff"/>
   </g>
   <g id="matplotlib.axis_1">
    <g id="xtick_1">
     <g id="line2d_1">
      <path d="M 73.832727 307.584 
L 73.832727 41.472 
" clip-path="url(#p87e5157416)" style="fill: none; stroke: #b0b0b0; stroke-width: 0.8; stroke-linecap: square"/>
     </g>
     <g id="line2d_2">
      <defs>
       <path id="m26a0913ef6" d="M 0 0 
L 0 3.5 
" style="stroke: #000000; stroke-width: 0.8"/>
      </defs>
      <g>
       <use xlink:href="#m26a0913ef6" x="73.832727" y="307.584" style="stroke: #000000; stroke-width: 0.8"/>
      </g>
     </g>
     <g id="text_1">
      <!-- 0 -->
      <g transform="translate(70.651477 322.182437)scale(0.1 -0.1)">
       <defs>
        <path id="DejaVuSans-30" d="M 2034 4250 
Q 1547 4250 1301 3770 
Q 1056 3291 1056 2328 
Q 1056 1369 1301 889 
Q 1547 409 2034 409 
Q 2525 409 2770 889 
Q 3016 1369 3016 2328 
Q 3016 3291 2770 3770 
Q 2525 4250 2034 4250 
z
M 2034 4750 
Q 2819 4750 3233 4129 
Q 3647 3509 3647 2328 
Q 3647 1150 3233 529 
Q 2819 -91 2034 -91 
Q 1250 -91 836 529 
Q 422 1150 422 2328 
Q 422 3509 836 4129 
Q 1250 4750 2034 4750 
z
" transform="scale(0.015625)"/>
       </defs>
       <use xlink:href="#DejaVuSans-30"/>
      </g>
     </g>
    </g>
    <g id="xtick_2">
     <g id="line2d_3">
      <path d="M 128.122785 307.584 
L 128.122785 41.472 
" clip-path="url(#p87e5157416)" style="fill: none; stroke: #b0b0b0; stroke-width: 0.8; stroke-linecap: square"/>
     </g>
     <g id="line2d_4">
      <g>
       <use xlink:href="#m26a0913ef6" x="128.122785" y="307.584" style="stroke: #000000; stroke-width: 0.8"/>
      </g>
     </g>
     <g id="text_2">
      <!-- 50 -->
      <g transform="translate(121.760285 322.182437)scale(0.1 -0.1)">
       <defs>
        <path id="DejaVuSans-35" d="M 691 4666 
L 3169 4666 
L 3169 4134 
L 1269 4134 
L 1269 2991 
Q 1406 3038 1543 3061 
Q 1681 3084 1819 3084 
Q 2600 3084 3056 2656 
Q 3513 2228 3513 1497 
Q 3513 744 3044 326 
Q 2575 -91 1722 -91 
Q 1428 -91 1123 -41 
Q 819 9 494 109 
L 494 744 
Q 775 591 1075 516 
Q 1375 441 1709 441 
Q 2250 441 2565 725 
Q 2881 1009 2881 1497 
Q 2881 1984 2565 2268 
Q 2250 2553 1709 2553 
Q 1456 2553 1204 2497 
Q 953 2441 691 2322 
L 691 4666 
z
" transform="scale(0.015625)"/>
       </defs>
       <use xlink:href="#DejaVuSans-35"/>
       <use xlink:href="#DejaVuSans-30" x="63.623047"/>
      </g>
     </g>
    </g>
    <g id="xtick_3">
     <g id="line2d_5">
      <path d="M 182.412843 307.584 
L 182.412843 41.472 
" clip-path="url(#p87e5157416)" style="fill: none; stroke: #b0b0b0; stroke-width: 0.8; stroke-linecap: square"/>
     </g>
     <g id="line2d_6">
      <g>
       <use xlink:href="#m26a0913ef6" x="182.412843" y="307.584" style="stroke: #000000; stroke-width: 0.8"/>
      </g>
     </g>
     <g id="text_3">
      <!-- 100 -->
      <g transform="translate(172.869093 322.182437)scale(0.1 -0.1)">
       <defs>
        <path id="DejaVuSans-31" d="M 794 531 
L 1825 531 
L 1825 4091 
L 703 3866 
L 703 4441 
L 1819 4666 
L 2450 4666 
L 2450 531 
L 3481 531 
L 3481 0 
L 794 0 
L 794 531 
z
" transform="scale(0.015625)"/>
       </defs>
       <use xlink:href="#DejaVuSans-31"/>
       <use xlink:href="#DejaVuSans-30" x="63.623047"/>
       <use xlink:href="#DejaVuSans-30" x="127.246094"/>
      </g>
     </g>
    </g>
    <g id="xtick_4">
     <g id="line2d_7">
      <path d="M 236.702901 307.584 
L 236.702901 41.472 
" clip-path="url(#p87e5157416)" style="fill: none; stroke: #b0b0b0; stroke-width: 0.8; stroke-linecap: square"/>
     </g>
     <g id="line2d_8">
      <g>
       <use xlink:href="#m26a0913ef6" x="236.702901" y="307.584" style="stroke: #000000; stroke-width: 0.8"/>
      </g>
     </g>
     <g id="text_4">
      <!-- 150 -->
      <g transform="translate(227.159151 322.182437)scale(0.1 -0.1)">
       <use xlink:href="#DejaVuSans-31"/>
       <use xlink:href="#DejaVuSans-35" x="63.623047"/>
       <use xlink:href="#DejaVuSans-30" x="127.246094"/>
      </g>
     </g>
    </g>
    <g id="xtick_5">
     <g id="line2d_9">
      <path d="M 290.992958 307.584 
L 290.992958 41.472 
" clip-path="url(#p87e5157416)" style="fill: none; stroke: #b0b0b0; stroke-width: 0.8; stroke-linecap: square"/>
     </g>
     <g id="line2d_10">
      <g>
       <use xlink:href="#m26a0913ef6" x="290.992958" y="307.584" style="stroke: #000000; stroke-width: 0.8"/>
      </g>
     </g>
     <g id="text_5">
      <!-- 200 -->
      <g transform="translate(281.449208 322.182437)scale(0.1 -0.1)">
       <defs>
        <path id="DejaVuSans-32" d="M 1228 531 
L 3431 531 
L 3431 0 
L 469 0 
L 469 531 
Q 828 903 1448 1529 
Q 2069 2156 2228 2338 
Q 2531 2678 2651 2914 
Q 2772 3150 2772 3378 
Q 2772 3750 2511 3984 
Q 2250 4219 1831 4219 
Q 1534 4219 1204 4116 
Q 875 4013 500 3803 
L 500 4441 
Q 881 4594 1212 4672 
Q 1544 4750 1819 4750 
Q 2544 4750 2975 4387 
Q 3406 4025 3406 3419 
Q 3406 3131 3298 2873 
Q 3191 2616 2906 2266 
Q 2828 2175 2409 1742 
Q 1991 1309 1228 531 
z
" transform="scale(0.015625)"/>
       </defs>
       <use xlink:href="#DejaVuSans-32"/>
       <use xlink:href="#DejaVuSans-30" x="63.623047"/>
       <use xlink:href="#DejaVuSans-30" x="127.246094"/>
      </g>
     </g>
    </g>
    <g id="xtick_6">
     <g id="line2d_11">
      <path d="M 345.283016 307.584 
L 345.283016 41.472 
" clip-path="url(#p87e5157416)" style="fill: none; stroke: #b0b0b0; stroke-width: 0.8; stroke-linecap: square"/>
     </g>
     <g id="line2d_12">
      <g>
       <use xlink:href="#m26a0913ef6" x="345.283016" y="307.584" style="stroke: #000000; stroke-width: 0.8"/>
      </g>
     </g>
     <g id="text_6">
      <!-- 250 -->
      <g transform="translate(335.739266 322.182437)scale(0.1 -0.1)">
       <use xlink:href="#DejaVuSans-32"/>
       <use xlink:href="#DejaVuSans-35" x="63.623047"/>
       <use xlink:href="#DejaVuSans-30" x="127.246094"/>
      </g>
     </g>
    </g>
    <g id="xtick_7">
     <g id="line2d_13">
      <path d="M 399.573074 307.584 
L 399.573074 41.472 
" clip-path="url(#p87e5157416)" style="fill: none; stroke: #b0b0b0; stroke-width: 0.8; stroke-linecap: square"/>
     </g>
     <g id="line2d_14">
      <g>
       <use xlink:href="#m26a0913ef6" x="399.573074" y="307.584" style="stroke: #000000; stroke-width: 0.8"/>
      </g>
     </g>
     <g id="text_7">
      <!-- 300 -->
      <g transform="translate(390.029324 322.182437)scale(0.1 -0.1)">
       <defs>
        <path id="DejaVuSans-33" d="M 2597 2516 
Q 3050 2419 3304 2112 
Q 3559 1806 3559 1356 
Q 3559 666 3084 287 
Q 2609 -91 1734 -91 
Q 1441 -91 1130 -33 
Q 819 25 488 141 
L 488 750 
Q 750 597 1062 519 
Q 1375 441 1716 441 
Q 2309 441 2620 675 
Q 2931 909 2931 1356 
Q 2931 1769 2642 2001 
Q 2353 2234 1838 2234 
L 1294 2234 
L 1294 2753 
L 1863 2753 
Q 2328 2753 2575 2939 
Q 2822 3125 2822 3475 
Q 2822 3834 2567 4026 
Q 2313 4219 1838 4219 
Q 1578 4219 1281 4162 
Q 984 4106 628 3988 
L 628 4550 
Q 988 4650 1302 4700 
Q 1616 4750 1894 4750 
Q 2613 4750 3031 4423 
Q 3450 4097 3450 3541 
Q 3450 3153 3228 2886 
Q 3006 2619 2597 2516 
z
" transform="scale(0.015625)"/>
       </defs>
       <use xlink:href="#DejaVuSans-33"/>
       <use xlink:href="#DejaVuSans-30" x="63.623047"/>
       <use xlink:href="#DejaVuSans-30" x="127.246094"/>
      </g>
     </g>
    </g>
    <g id="text_8">
     <!-- Generations -->
     <g transform="translate(205.662344 335.860562)scale(0.1 -0.1)">
      <defs>
       <path id="DejaVuSans-47" d="M 3809 666 
L 3809 1919 
L 2778 1919 
L 2778 2438 
L 4434 2438 
L 4434 434 
Q 4069 175 3628 42 
Q 3188 -91 2688 -91 
Q 1594 -91 976 548 
Q 359 1188 359 2328 
Q 359 3472 976 4111 
Q 1594 4750 2688 4750 
Q 3144 4750 3555 4637 
Q 3966 4525 4313 4306 
L 4313 3634 
Q 3963 3931 3569 4081 
Q 3175 4231 2741 4231 
Q 1884 4231 1454 3753 
Q 1025 3275 1025 2328 
Q 1025 1384 1454 906 
Q 1884 428 2741 428 
Q 3075 428 3337 486 
Q 3600 544 3809 666 
z
" transform="scale(0.015625)"/>
       <path id="DejaVuSans-65" d="M 3597 1894 
L 3597 1613 
L 953 1613 
Q 991 1019 1311 708 
Q 1631 397 2203 397 
Q 2534 397 2845 478 
Q 3156 559 3463 722 
L 3463 178 
Q 3153 47 2828 -22 
Q 2503 -91 2169 -91 
Q 1331 -91 842 396 
Q 353 884 353 1716 
Q 353 2575 817 3079 
Q 1281 3584 2069 3584 
Q 2775 3584 3186 3129 
Q 3597 2675 3597 1894 
z
M 3022 2063 
Q 3016 2534 2758 2815 
Q 2500 3097 2075 3097 
Q 1594 3097 1305 2825 
Q 1016 2553 972 2059 
L 3022 2063 
z
" transform="scale(0.015625)"/>
       <path id="DejaVuSans-6e" d="M 3513 2113 
L 3513 0 
L 2938 0 
L 2938 2094 
Q 2938 2591 2744 2837 
Q 2550 3084 2163 3084 
Q 1697 3084 1428 2787 
Q 1159 2491 1159 1978 
L 1159 0 
L 581 0 
L 581 3500 
L 1159 3500 
L 1159 2956 
Q 1366 3272 1645 3428 
Q 1925 3584 2291 3584 
Q 2894 3584 3203 3211 
Q 3513 2838 3513 2113 
z
" transform="scale(0.015625)"/>
       <path id="DejaVuSans-72" d="M 2631 2963 
Q 2534 3019 2420 3045 
Q 2306 3072 2169 3072 
Q 1681 3072 1420 2755 
Q 1159 2438 1159 1844 
L 1159 0 
L 581 0 
L 581 3500 
L 1159 3500 
L 1159 2956 
Q 1341 3275 1631 3429 
Q 1922 3584 2338 3584 
Q 2397 3584 2469 3576 
Q 2541 3569 2628 3553 
L 2631 2963 
z
" transform="scale(0.015625)"/>
       <path id="DejaVuSans-61" d="M 2194 1759 
Q 1497 1759 1228 1600 
Q 959 1441 959 1056 
Q 959 750 1161 570 
Q 1363 391 1709 391 
Q 2188 391 2477 730 
Q 2766 1069 2766 1631 
L 2766 1759 
L 2194 1759 
z
M 3341 1997 
L 3341 0 
L 2766 0 
L 2766 531 
Q 2569 213 2275 61 
Q 1981 -91 1556 -91 
Q 1019 -91 701 211 
Q 384 513 384 1019 
Q 384 1609 779 1909 
Q 1175 2209 1959 2209 
L 2766 2209 
L 2766 2266 
Q 2766 2663 2505 2880 
Q 2244 3097 1772 3097 
Q 1472 3097 1187 3025 
Q 903 2953 641 2809 
L 641 3341 
Q 956 3463 1253 3523 
Q 1550 3584 1831 3584 
Q 2591 3584 2966 3190 
Q 3341 2797 3341 1997 
z
" transform="scale(0.015625)"/>
       <path id="DejaVuSans-74" d="M 1172 4494 
L 1172 3500 
L 2356 3500 
L 2356 3053 
L 1172 3053 
L 1172 1153 
Q 1172 725 1289 603 
Q 1406 481 1766 481 
L 2356 481 
L 2356 0 
L 1766 0 
Q 1100 0 847 248 
Q 594 497 594 1153 
L 594 3053 
L 172 3053 
L 172 3500 
L 594 3500 
L 594 4494 
L 1172 4494 
z
" transform="scale(0.015625)"/>
       <path id="DejaVuSans-69" d="M 603 3500 
L 1178 3500 
L 1178 0 
L 603 0 
L 603 3500 
z
M 603 4863 
L 1178 4863 
L 1178 4134 
L 603 4134 
L 603 4863 
z
" transform="scale(0.015625)"/>
       <path id="DejaVuSans-6f" d="M 1959 3097 
Q 1497 3097 1228 2736 
Q 959 2375 959 1747 
Q 959 1119 1226 758 
Q 1494 397 1959 397 
Q 2419 397 2687 759 
Q 2956 1122 2956 1747 
Q 2956 2369 2687 2733 
Q 2419 3097 1959 3097 
z
M 1959 3584 
Q 2709 3584 3137 3096 
Q 3566 2609 3566 1747 
Q 3566 888 3137 398 
Q 2709 -91 1959 -91 
Q 1206 -91 779 398 
Q 353 888 353 1747 
Q 353 2609 779 3096 
Q 1206 3584 1959 3584 
z
" transform="scale(0.015625)"/>
       <path id="DejaVuSans-73" d="M 2834 3397 
L 2834 2853 
Q 2591 2978 2328 3040 
Q 2066 3103 1784 3103 
Q 1356 3103 1142 2972 
Q 928 2841 928 2578 
Q 928 2378 1081 2264 
Q 1234 2150 1697 2047 
L 1894 2003 
Q 2506 1872 2764 1633 
Q 3022 1394 3022 966 
Q 3022 478 2636 193 
Q 2250 -91 1575 -91 
Q 1294 -91 989 -36 
Q 684 19 347 128 
L 347 722 
Q 666 556 975 473 
Q 1284 391 1588 391 
Q 1994 391 2212 530 
Q 2431 669 2431 922 
Q 2431 1156 2273 1281 
Q 2116 1406 1581 1522 
L 1381 1569 
Q 847 1681 609 1914 
Q 372 2147 372 2553 
Q 372 3047 722 3315 
Q 1072 3584 1716 3584 
Q 2034 3584 2315 3537 
Q 2597 3491 2834 3397 
z
" transform="scale(0.015625)"/>
      </defs>
      <use xlink:href="#DejaVuSans-47"/>
      <use xlink:href="#DejaVuSans-65" x="77.490234"/>
      <use xlink:href="#DejaVuSans-6e" x="139.013672"/>
      <use xlink:href="#DejaVuSans-65" x="202.392578"/>
      <use xlink:href="#DejaVuSans-72" x="263.916016"/>
      <use xlink:href="#DejaVuSans-61" x="305.029297"/>
      <use xlink:href="#DejaVuSans-74" x="366.308594"/>
      <use xlink:href="#DejaVuSans-69" x="405.517578"/>
      <use xlink:href="#DejaVuSans-6f" x="433.300781"/>
      <use xlink:href="#DejaVuSans-6e" x="494.482422"/>
      <use xlink:href="#DejaVuSans-73" x="557.861328"/>
     </g>
    </g>
   </g>
   <g id="matplotlib.axis_2">
    <g id="ytick_1">
     <g id="line2d_15">
      <path d="M 57.6 289.71333 
L 414.72 289.71333 
" clip-path="url(#p87e5157416)" style="fill: none; stroke: #b0b0b0; stroke-width: 0.8; stroke-linecap: square"/>
     </g>
     <g id="line2d_16">
      <defs>
       <path id="m2bf125b2a7" d="M 0 0 
L -3.5 0 
" style="stroke: #000000; stroke-width: 0.8"/>
      </defs>
      <g>
       <use xlink:href="#m2bf125b2a7" x="57.6" y="289.71333" style="stroke: #000000; stroke-width: 0.8"/>
      </g>
     </g>
     <g id="text_9">
      <!-- 1.0 -->
      <g transform="translate(34.696875 293.512549)scale(0.1 -0.1)">
       <defs>
        <path id="DejaVuSans-2e" d="M 684 794 
L 1344 794 
L 1344 0 
L 684 0 
L 684 794 
z
" transform="scale(0.015625)"/>
       </defs>
       <use xlink:href="#DejaVuSans-31"/>
       <use xlink:href="#DejaVuSans-2e" x="63.623047"/>
       <use xlink:href="#DejaVuSans-30" x="95.410156"/>
      </g>
     </g>
    </g>
    <g id="ytick_2">
     <g id="line2d_17">
      <path d="M 57.6 233.488251 
L 414.72 233.488251 
" clip-path="url(#p87e5157416)" style="fill: none; stroke: #b0b0b0; stroke-width: 0.8; stroke-linecap: square"/>
     </g>
     <g id="line2d_18">
      <g>
       <use xlink:href="#m2bf125b2a7" x="57.6" y="233.488251" style="stroke: #000000; stroke-width: 0.8"/>
      </g>
     </g>
     <g id="text_10">
      <!-- 1.5 -->
      <g transform="translate(34.696875 237.28747)scale(0.1 -0.1)">
       <use xlink:href="#DejaVuSans-31"/>
       <use xlink:href="#DejaVuSans-2e" x="63.623047"/>
       <use xlink:href="#DejaVuSans-35" x="95.410156"/>
      </g>
     </g>
    </g>
    <g id="ytick_3">
     <g id="line2d_19">
      <path d="M 57.6 177.263173 
L 414.72 177.263173 
" clip-path="url(#p87e5157416)" style="fill: none; stroke: #b0b0b0; stroke-width: 0.8; stroke-linecap: square"/>
     </g>
     <g id="line2d_20">
      <g>
       <use xlink:href="#m2bf125b2a7" x="57.6" y="177.263173" style="stroke: #000000; stroke-width: 0.8"/>
      </g>
     </g>
     <g id="text_11">
      <!-- 2.0 -->
      <g transform="translate(34.696875 181.062392)scale(0.1 -0.1)">
       <use xlink:href="#DejaVuSans-32"/>
       <use xlink:href="#DejaVuSans-2e" x="63.623047"/>
       <use xlink:href="#DejaVuSans-30" x="95.410156"/>
      </g>
     </g>
    </g>
    <g id="ytick_4">
     <g id="line2d_21">
      <path d="M 57.6 121.038094 
L 414.72 121.038094 
" clip-path="url(#p87e5157416)" style="fill: none; stroke: #b0b0b0; stroke-width: 0.8; stroke-linecap: square"/>
     </g>
     <g id="line2d_22">
      <g>
       <use xlink:href="#m2bf125b2a7" x="57.6" y="121.038094" style="stroke: #000000; stroke-width: 0.8"/>
      </g>
     </g>
     <g id="text_12">
      <!-- 2.5 -->
      <g transform="translate(34.696875 124.837313)scale(0.1 -0.1)">
       <use xlink:href="#DejaVuSans-32"/>
       <use xlink:href="#DejaVuSans-2e" x="63.623047"/>
       <use xlink:href="#DejaVuSans-35" x="95.410156"/>
      </g>
     </g>
    </g>
    <g id="ytick_5">
     <g id="line2d_23">
      <path d="M 57.6 64.813016 
L 414.72 64.813016 
" clip-path="url(#p87e5157416)" style="fill: none; stroke: #b0b0b0; stroke-width: 0.8; stroke-linecap: square"/>
     </g>
     <g id="line2d_24">
      <g>
       <use xlink:href="#m2bf125b2a7" x="57.6" y="64.813016" style="stroke: #000000; stroke-width: 0.8"/>
      </g>
     </g>
     <g id="text_13">
      <!-- 3.0 -->
      <g transform="translate(34.696875 68.612234)scale(0.1 -0.1)">
       <use xlink:href="#DejaVuSans-33"/>
       <use xlink:href="#DejaVuSans-2e" x="63.623047"/>
       <use xlink:href="#DejaVuSans-30" x="95.410156"/>
      </g>
     </g>
    </g>
    <g id="text_14">
     <!-- Fitness -->
     <g transform="translate(28.617187 191.845187)rotate(-90)scale(0.1 -0.1)">
      <defs>
       <path id="DejaVuSans-46" d="M 628 4666 
L 3309 4666 
L 3309 4134 
L 1259 4134 
L 1259 2759 
L 3109 2759 
L 3109 2228 
L 1259 2228 
L 1259 0 
L 628 0 
L 628 4666 
z
" transform="scale(0.015625)"/>
      </defs>
      <use xlink:href="#DejaVuSans-46"/>
      <use xlink:href="#DejaVuSans-69" x="50.269531"/>
      <use xlink:href="#DejaVuSans-74" x="78.052734"/>
      <use xlink:href="#DejaVuSans-6e" x="117.261719"/>
      <use xlink:href="#DejaVuSans-65" x="180.640625"/>
      <use xlink:href="#DejaVuSans-73" x="242.164062"/>
      <use xlink:href="#DejaVuSans-73" x="294.263672"/>
     </g>
    </g>
   </g>
   <g id="line2d_25">
    <path d="M 73.832727 286.564726 
L 74.918528 283.416121 
L 76.00433 282.966321 
L 77.090131 284.990423 
L 78.175932 283.641022 
L 79.261733 285.215324 
L 80.347534 282.966321 
L 81.433335 284.315722 
L 82.519137 281.841819 
L 83.604938 282.29162 
L 84.690739 281.616919 
L 85.77654 281.841819 
L 86.862341 282.29162 
L 87.948142 282.966321 
L 89.033943 281.616919 
L 90.119745 280.717317 
L 91.205546 281.616919 
L 92.291347 277.793613 
L 93.377148 279.143015 
L 94.462949 281.616919 
L 95.54875 279.592816 
L 96.634552 280.717317 
L 97.720353 280.717317 
L 98.806154 276.219311 
L 99.891955 277.118912 
L 100.977756 278.918115 
L 102.063557 280.942218 
L 103.149358 275.09481 
L 104.23516 279.143015 
L 105.320961 276.219311 
L 106.406762 280.042617 
L 107.492563 277.793613 
L 108.578364 275.09481 
L 109.664165 273.745408 
L 110.749967 274.195208 
L 111.835768 274.869909 
L 112.921569 271.496405 
L 114.00737 274.869909 
L 115.093171 274.195208 
L 116.178972 270.371903 
L 117.264773 268.1229 
L 118.350575 271.496405 
L 119.436376 269.697202 
L 120.522177 271.721305 
L 121.607978 271.046604 
L 122.693779 260.026489 
L 123.77958 258.002386 
L 124.865382 263.624894 
L 125.951183 258.452186 
L 127.036984 267.673099 
L 128.122785 260.701189 
L 129.208586 265.424096 
L 130.294387 258.677087 
L 131.380189 263.399993 
L 132.46599 262.725292 
L 133.551791 263.624894 
L 134.637592 258.002386 
L 135.723393 258.227286 
L 136.809194 259.351788 
L 137.894995 262.725292 
L 138.980797 260.92609 
L 140.066598 263.399993 
L 141.152399 257.552585 
L 142.2382 258.677087 
L 143.324001 262.275492 
L 144.409802 264.299595 
L 145.495604 265.424096 
L 146.581405 262.275492 
L 147.667206 260.251389 
L 148.753007 259.351788 
L 149.838808 259.351788 
L 150.924609 258.002386 
L 152.01041 266.773498 
L 153.096212 258.227286 
L 154.182013 267.448199 
L 156.353615 256.652984 
L 157.439416 264.074694 
L 158.525217 261.825691 
L 159.611019 260.92609 
L 160.69682 264.974295 
L 161.782621 257.777485 
L 162.868422 258.002386 
L 163.954223 262.950193 
L 165.040024 258.452186 
L 166.125825 263.175093 
L 167.211627 263.849794 
L 168.297428 259.576688 
L 169.383229 258.002386 
L 170.46903 260.701189 
L 171.554831 256.652984 
L 172.640632 249.456174 
L 173.726434 251.255376 
L 174.812235 238.211158 
L 175.898036 239.78546 
L 176.983837 237.311557 
L 178.069638 236.411956 
L 179.155439 239.78546 
L 180.24124 250.580675 
L 181.327042 246.75737 
L 182.412843 250.130875 
L 183.498644 244.283467 
L 184.584445 244.283467 
L 185.670246 235.512354 
L 186.756047 242.709164 
L 187.841849 246.082669 
L 188.92765 247.432071 
L 190.013451 254.628881 
L 191.099252 241.809563 
L 192.185053 246.082669 
L 193.270854 235.512354 
L 195.442457 254.853781 
L 196.528258 254.403981 
L 197.614059 241.584663 
L 198.69986 262.275492 
L 199.785661 253.95418 
L 200.871462 251.480277 
L 201.957264 243.158965 
L 203.043065 252.379878 
L 204.128866 244.958167 
L 205.214667 246.307569 
L 206.300468 248.556573 
L 208.472071 240.460161 
L 209.557872 243.608766 
L 210.643673 242.259364 
L 211.729474 242.034463 
L 212.815275 245.183068 
L 213.901076 243.383865 
L 214.986877 235.287454 
L 216.072679 232.813551 
L 217.15848 232.58865 
L 218.244281 244.733267 
L 219.330082 248.781473 
L 220.415883 246.082669 
L 221.501684 241.584663 
L 222.587486 245.632868 
L 223.673287 252.154978 
L 224.759088 237.761357 
L 225.844889 242.034463 
L 226.93069 232.58865 
L 228.016491 248.331672 
L 229.102292 239.78546 
L 230.188094 242.934065 
L 231.273895 244.733267 
L 232.359696 249.456174 
L 233.445497 240.010361 
L 234.531298 242.484264 
L 235.617099 236.411956 
L 236.702901 234.612753 
L 237.788702 242.034463 
L 238.874503 239.33566 
L 239.960304 244.058566 
L 241.046105 240.235261 
L 242.131906 247.432071 
L 243.217708 250.130875 
L 244.303509 251.705177 
L 245.38931 242.034463 
L 246.475111 231.239248 
L 247.560912 235.062554 
L 248.646713 234.162952 
L 249.732514 253.054579 
L 250.818316 254.17908 
L 251.904117 238.211158 
L 252.989918 244.503777 
L 254.075719 234.612753 
L 255.16152 233.488251 
L 256.247321 233.263351 
L 257.333123 226.833038 
L 258.418924 243.383865 
L 259.504725 232.813551 
L 260.590526 230.789448 
L 261.676327 245.857769 
L 262.762128 223.367737 
L 263.847929 228.090644 
L 264.933731 236.187055 
L 266.019532 231.689049 
L 267.105333 232.13885 
L 268.191134 242.034463 
L 269.276935 229.889846 
L 270.362736 232.58865 
L 271.448538 226.741242 
L 272.534339 239.33566 
L 273.62014 240.010361 
L 274.705941 236.861756 
L 275.791742 237.311557 
L 276.877543 231.913949 
L 277.963344 243.383865 
L 279.049146 240.010361 
L 280.134947 237.086656 
L 281.220748 241.134862 
L 282.306549 228.090644 
L 283.39235 241.584663 
L 284.478151 241.809563 
L 285.563953 239.110759 
L 286.649754 238.885859 
L 287.735555 237.986258 
L 289.907157 244.508367 
L 290.992958 244.283467 
L 292.07876 237.086656 
L 293.164561 231.239248 
L 294.250362 235.287454 
L 295.336163 234.612753 
L 296.421964 233.038451 
L 297.507765 239.56056 
L 298.593566 244.283467 
L 299.679368 231.239248 
L 300.765169 229.664946 
L 301.85097 234.162952 
L 302.936771 249.905974 
L 304.022572 248.331672 
L 305.108373 249.456174 
L 306.194175 243.833666 
L 307.279976 236.636856 
L 308.365777 247.432071 
L 309.451578 244.958167 
L 310.537379 231.464149 
L 311.62318 240.235261 
L 312.708981 239.78546 
L 313.794783 226.966142 
L 314.880584 248.556573 
L 315.966385 241.359762 
L 317.052186 249.905974 
L 318.137987 252.829678 
L 320.30959 229.889846 
L 321.395391 238.211158 
L 322.481192 236.636856 
L 323.566993 237.986258 
L 324.652794 247.881872 
L 325.738595 239.56056 
L 326.824396 239.33566 
L 327.910198 233.263351 
L 328.995999 232.813551 
L 330.0818 243.158965 
L 331.167601 242.484264 
L 332.253402 248.331672 
L 333.339203 244.733267 
L 334.425005 240.685062 
L 335.510806 235.062554 
L 336.596607 237.311557 
L 337.682408 237.311557 
L 338.768209 230.339647 
L 339.85401 231.913949 
L 340.939811 219.094631 
L 342.025613 234.612753 
L 343.111414 230.789448 
L 344.197215 233.263351 
L 345.283016 246.082669 
L 346.368817 245.857769 
L 347.454618 239.56056 
L 348.54042 231.689049 
L 349.626221 240.909962 
L 350.712022 234.837653 
L 351.797823 237.086656 
L 352.883624 234.612753 
L 353.969425 239.110759 
L 355.055227 241.134862 
L 356.141028 232.813551 
L 357.226829 227.191043 
L 358.31263 232.58865 
L 359.398431 226.066541 
L 360.484232 236.861756 
L 361.570033 230.114747 
L 362.655835 220.893834 
L 363.741636 225.16694 
L 364.827437 228.090644 
L 366.999039 239.110759 
L 368.08484 238.885859 
L 369.170642 228.990245 
L 370.256443 227.640843 
L 371.342244 235.287454 
L 372.428045 234.612753 
L 373.513846 232.13885 
L 374.599647 232.58865 
L 375.685448 232.36375 
L 376.77125 232.36375 
L 377.857051 245.183068 
L 378.942852 230.114747 
L 380.028653 232.813551 
L 381.114454 228.090644 
L 382.200255 235.512354 
L 383.286057 239.33566 
L 385.457659 228.090644 
L 386.54346 228.765345 
L 387.629261 229.215145 
L 388.715062 240.010361 
L 389.800863 236.187055 
L 390.886665 235.962155 
L 391.972466 241.809563 
L 393.058267 234.612753 
L 394.144068 231.913949 
L 395.229869 234.387853 
L 396.31567 234.612753 
L 397.401472 232.58865 
L 398.487273 228.540445 
L 398.487273 228.540445 
" clip-path="url(#p87e5157416)" style="fill: none; stroke: #0000ff; stroke-width: 1.5; stroke-linecap: square"/>
   </g>
   <g id="line2d_26">
    <path d="M 73.832727 291.613725 
L 74.918528 290.584764 
L 76.00433 291.075217 
L 77.090131 292.134328 
L 79.261733 291.576465 
L 80.347534 291.962333 
L 81.433335 292.18402 
L 82.519137 290.624457 
L 83.604938 290.887991 
L 84.690739 290.900699 
L 85.77654 291.449565 
L 86.862341 291.457515 
L 87.948142 291.962333 
L 89.033943 295.488 
L 90.119745 293.4396 
L 91.205546 293.526022 
L 92.291347 293.114921 
L 93.377148 290.700791 
L 94.462949 293.943426 
L 95.54875 292.364699 
L 96.634552 292.617923 
L 97.720353 291.023545 
L 98.806154 293.92798 
L 99.891955 290.545292 
L 100.977756 290.154131 
L 102.063557 292.690972 
L 103.149358 290.389685 
L 105.320961 290.619958 
L 106.406762 292.566556 
L 107.492563 290.793163 
L 108.578364 292.696043 
L 109.664165 291.609063 
L 110.749967 290.080559 
L 111.835768 290.360301 
L 112.921569 291.723684 
L 114.00737 289.69287 
L 115.093171 290.238973 
L 116.178972 290.111951 
L 117.264773 288.343927 
L 118.350575 287.852395 
L 120.522177 289.429973 
L 121.607978 288.116819 
L 122.693779 281.687086 
L 123.77958 280.117075 
L 124.865382 281.818203 
L 125.951183 281.529414 
L 127.036984 287.274294 
L 128.122785 282.047772 
L 129.208586 290.199905 
L 130.294387 279.235485 
L 131.380189 282.955978 
L 132.46599 287.667944 
L 133.551791 287.472812 
L 134.637592 282.400701 
L 135.723393 286.136681 
L 136.809194 282.093424 
L 137.894995 285.102591 
L 138.980797 280.29365 
L 140.066598 284.209046 
L 141.152399 280.599107 
L 142.2382 279.721796 
L 143.324001 283.272077 
L 144.409802 284.641576 
L 145.495604 287.037941 
L 146.581405 283.630366 
L 147.667206 279.84355 
L 148.753007 282.858981 
L 149.838808 281.530425 
L 150.924609 284.867385 
L 152.01041 285.983724 
L 153.096212 282.966321 
L 154.182013 288.484495 
L 155.267814 282.158511 
L 156.353615 279.412407 
L 157.439416 285.177008 
L 159.611019 282.980086 
L 160.69682 288.346622 
L 161.782621 279.39133 
L 162.868422 278.699325 
L 163.954223 285.315056 
L 165.040024 280.29069 
L 166.125825 281.550976 
L 167.211627 286.702366 
L 168.297428 281.776981 
L 169.383229 275.666727 
L 170.46903 280.828197 
L 171.554831 279.743358 
L 172.640632 279.130234 
L 173.726434 283.226837 
L 174.812235 278.698837 
L 175.898036 276.060703 
L 176.983837 277.956339 
L 178.069638 274.30015 
L 179.155439 282.407482 
L 180.24124 280.182205 
L 181.327042 285.691116 
L 182.412843 287.102188 
L 183.498644 280.405006 
L 184.584445 274.869909 
L 185.670246 271.963554 
L 186.756047 277.673027 
L 187.841849 278.097606 
L 190.013451 288.635712 
L 191.099252 279.02428 
L 192.185053 286.417022 
L 193.270854 274.511003 
L 194.356656 280.694679 
L 195.442457 288.831597 
L 196.528258 284.578362 
L 197.614059 281.312525 
L 198.69986 290.108666 
L 199.785661 289.986692 
L 200.871462 282.805266 
L 201.957264 283.453796 
L 203.043065 285.997773 
L 204.128866 279.979848 
L 205.214667 278.351721 
L 206.300468 284.088687 
L 207.386269 278.05472 
L 208.472071 277.951118 
L 209.557872 276.909964 
L 210.643673 278.052445 
L 211.729474 274.900703 
L 212.815275 283.545551 
L 213.901076 282.63783 
L 214.986877 279.77908 
L 216.072679 279.091128 
L 217.15848 269.600984 
L 218.244281 279.06281 
L 219.330082 282.871494 
L 220.415883 278.87804 
L 221.501684 279.687847 
L 222.587486 282.985283 
L 223.673287 290.096534 
L 224.759088 277.985833 
L 225.844889 276.988921 
L 226.93069 270.545534 
L 228.016491 283.851685 
L 229.102292 282.820827 
L 231.273895 282.634142 
L 232.359696 291.355893 
L 233.445497 277.983898 
L 234.531298 280.318353 
L 236.702901 272.127986 
L 237.788702 284.382661 
L 238.874503 280.143758 
L 239.960304 285.977596 
L 241.046105 274.268854 
L 242.131906 282.095915 
L 243.217708 279.987609 
L 244.303509 289.997056 
L 245.38931 275.130744 
L 246.475111 273.494181 
L 247.560912 274.533039 
L 248.646713 272.224299 
L 249.732514 292.319494 
L 250.818316 289.906391 
L 251.904117 276.051263 
L 252.989918 278.994546 
L 254.075719 272.86234 
L 255.16152 270.851498 
L 256.247321 271.857844 
L 257.333123 266.177042 
L 258.418924 281.460491 
L 259.504725 274.369019 
L 260.590526 273.375853 
L 261.676327 285.662583 
L 262.762128 270.341763 
L 263.847929 266.273392 
L 264.933731 276.264771 
L 266.019532 272.068521 
L 267.105333 270.015695 
L 268.191134 280.894739 
L 269.276935 269.387874 
L 270.362736 273.865058 
L 271.448538 269.884603 
L 272.534339 277.584585 
L 273.62014 284.372767 
L 274.705941 281.855873 
L 275.791742 274.033722 
L 276.877543 278.875052 
L 277.963344 279.201668 
L 279.049146 282.982802 
L 280.134947 283.201642 
L 281.220748 273.054865 
L 282.306549 276.548181 
L 283.39235 285.658239 
L 284.478151 282.217209 
L 285.563953 282.444212 
L 286.649754 281.749287 
L 287.735555 276.482991 
L 288.821356 279.264586 
L 289.907157 285.455668 
L 290.992958 279.33907 
L 292.07876 279.78456 
L 293.164561 276.050318 
L 294.250362 277.802537 
L 295.336163 276.401265 
L 296.421964 276.354975 
L 297.507765 283.529003 
L 298.593566 281.372249 
L 299.679368 272.830608 
L 300.765169 271.59604 
L 301.85097 271.282407 
L 302.936771 291.082391 
L 305.108373 283.93934 
L 306.194175 279.736097 
L 307.279976 280.53795 
L 308.365777 291.420641 
L 309.451578 282.489576 
L 310.537379 282.188519 
L 311.62318 281.460169 
L 312.708981 280.958805 
L 313.794783 276.038237 
L 314.880584 285.757695 
L 315.966385 280.13469 
L 317.052186 279.0746 
L 318.137987 291.197435 
L 319.223788 282.750636 
L 320.30959 269.001815 
L 321.395391 279.686215 
L 322.481192 276.996281 
L 323.566993 273.260494 
L 324.652794 285.852079 
L 325.738595 282.950004 
L 326.824396 274.483485 
L 327.910198 274.762792 
L 328.995999 276.331035 
L 330.0818 285.294626 
L 331.167601 277.614816 
L 332.253402 285.110954 
L 333.339203 285.152803 
L 334.425005 278.703194 
L 335.510806 276.288076 
L 336.596607 279.722413 
L 337.682408 277.012037 
L 338.768209 278.103306 
L 339.85401 271.384435 
L 340.939811 261.531122 
L 342.025613 275.791626 
L 343.111414 269.059526 
L 344.197215 272.443155 
L 345.283016 283.285831 
L 346.368817 287.585718 
L 347.454618 274.634195 
L 348.54042 277.24788 
L 349.626221 284.206047 
L 350.712022 270.443003 
L 351.797823 283.529524 
L 352.883624 275.975461 
L 353.969425 280.899271 
L 355.055227 283.176185 
L 356.141028 268.685679 
L 357.226829 262.548348 
L 358.31263 274.533614 
L 359.398431 268.833688 
L 360.484232 278.891648 
L 361.570033 273.68102 
L 362.655835 266.634378 
L 363.741636 268.881568 
L 364.827437 271.540081 
L 365.913238 273.656732 
L 366.999039 278.59662 
L 368.08484 276.869385 
L 369.170642 265.114585 
L 370.256443 269.730263 
L 371.342244 276.04098 
L 372.428045 283.641537 
L 373.513846 276.016895 
L 374.599647 269.532592 
L 375.685448 270.876903 
L 376.77125 271.0734 
L 377.857051 287.07494 
L 378.942852 269.019901 
L 380.028653 279.526272 
L 381.114454 272.915257 
L 382.200255 275.661312 
L 383.286057 279.076252 
L 384.371858 275.099111 
L 385.457659 269.696594 
L 386.54346 272.784375 
L 387.629261 272.527583 
L 388.715062 277.176116 
L 389.800863 269.964058 
L 390.886665 273.412616 
L 391.972466 280.22804 
L 393.058267 270.119235 
L 394.144068 274.999238 
L 395.229869 276.27248 
L 396.31567 270.824497 
L 397.401472 269.188715 
L 398.487273 265.024239 
L 398.487273 265.024239 
" clip-path="url(#p87e5157416)" style="fill: none; stroke-dasharray: 9.6,2.4,1.5,2.4; stroke-dashoffset: 0; stroke: #008000; stroke-width: 1.5"/>
   </g>
   <g id="line2d_27">
    <path d="M 73.832727 281.515726 
L 74.918528 276.247479 
L 76.00433 274.857424 
L 77.090131 277.846519 
L 78.175932 275.466893 
L 79.261733 278.854182 
L 80.347534 273.970308 
L 81.433335 276.447425 
L 82.519137 273.059181 
L 83.604938 273.695248 
L 84.690739 272.333138 
L 85.77654 272.234073 
L 87.948142 273.970308 
L 89.033943 267.745837 
L 90.119745 267.995034 
L 91.205546 269.707815 
L 92.291347 262.472305 
L 93.377148 267.58524 
L 94.462949 269.290412 
L 95.54875 266.820933 
L 96.634552 268.816711 
L 97.720353 270.41109 
L 98.806154 258.510643 
L 99.891955 263.692533 
L 100.977756 267.682099 
L 102.063557 269.193463 
L 103.149358 259.799935 
L 104.23516 267.806165 
L 105.320961 261.818665 
L 106.406762 267.518677 
L 107.492563 264.794064 
L 108.578364 257.493576 
L 109.664165 255.881753 
L 110.749967 258.309857 
L 111.835768 259.379517 
L 112.921569 251.269125 
L 114.00737 260.046948 
L 115.093171 258.151444 
L 116.178972 250.631855 
L 117.264773 247.901873 
L 118.350575 255.140414 
L 119.436376 250.708103 
L 120.522177 254.012636 
L 121.607978 253.976389 
L 122.693779 238.365891 
L 123.77958 235.887696 
L 124.865382 245.431584 
L 125.951183 235.374959 
L 127.036984 248.071905 
L 128.122785 239.354607 
L 129.208586 240.648287 
L 130.294387 238.118688 
L 131.380189 243.844009 
L 132.46599 237.782641 
L 133.551791 239.776975 
L 134.637592 233.60407 
L 135.723393 230.317891 
L 136.809194 236.610151 
L 137.894995 240.347994 
L 138.980797 241.558529 
L 140.066598 242.590941 
L 141.152399 234.506063 
L 142.2382 237.632377 
L 143.324001 241.278906 
L 144.409802 243.957613 
L 145.495604 243.810251 
L 146.581405 240.920618 
L 147.667206 240.659228 
L 148.753007 235.844594 
L 149.838808 237.17315 
L 150.924609 231.137387 
L 152.01041 247.563272 
L 153.096212 233.488251 
L 154.182013 246.411903 
L 155.267814 242.392472 
L 156.353615 233.893561 
L 157.439416 242.97238 
L 158.525217 239.648194 
L 159.611019 238.872094 
L 160.69682 241.601969 
L 161.782621 236.163641 
L 162.868422 237.305446 
L 163.954223 240.585329 
L 165.040024 236.613683 
L 166.125825 244.79921 
L 168.297428 237.376395 
L 169.383229 240.338044 
L 170.46903 240.574182 
L 171.554831 233.56261 
L 172.640632 219.782113 
L 173.726434 219.283916 
L 174.812235 197.723479 
L 175.898036 203.510218 
L 176.983837 196.666775 
L 178.069638 198.523761 
L 179.155439 197.163439 
L 180.24124 220.979146 
L 181.327042 207.823624 
L 182.412843 213.159561 
L 183.498644 208.161927 
L 184.584445 213.697024 
L 185.670246 199.061154 
L 186.756047 207.745302 
L 187.841849 214.067732 
L 188.92765 211.268548 
L 190.013451 220.62205 
L 191.099252 204.594847 
L 192.185053 205.748317 
L 193.270854 196.513706 
L 195.442457 220.875966 
L 196.528258 224.229599 
L 197.614059 201.8568 
L 198.69986 234.442317 
L 199.785661 217.921668 
L 200.871462 220.155288 
L 201.957264 202.864134 
L 203.043065 218.761982 
L 204.128866 209.936487 
L 205.214667 214.263418 
L 206.300468 213.024458 
L 207.386269 210.962014 
L 208.472071 202.969205 
L 209.557872 210.307567 
L 210.643673 206.466283 
L 211.729474 209.168224 
L 212.815275 206.820585 
L 213.901076 204.129901 
L 214.986877 190.795828 
L 216.072679 186.535973 
L 217.15848 195.576317 
L 218.244281 210.403724 
L 219.330082 214.691451 
L 220.415883 213.287298 
L 221.501684 203.481478 
L 222.587486 208.280454 
L 223.673287 214.213421 
L 224.759088 197.536882 
L 225.844889 207.080005 
L 226.93069 194.631766 
L 228.016491 212.81166 
L 229.102292 196.750093 
L 230.188094 203.185837 
L 231.273895 206.832393 
L 232.359696 207.556455 
L 233.445497 202.036823 
L 234.531298 204.650175 
L 235.617099 196.698737 
L 236.702901 197.09752 
L 237.788702 199.686266 
L 238.874503 198.527561 
L 239.960304 202.139537 
L 241.046105 206.201668 
L 242.131906 212.768227 
L 243.217708 220.27414 
L 244.303509 213.413298 
L 245.38931 208.938183 
L 246.475111 188.984316 
L 247.560912 195.592068 
L 248.646713 196.101606 
L 249.732514 213.789663 
L 250.818316 218.45177 
L 251.904117 200.371054 
L 252.989918 210.013008 
L 254.075719 196.363166 
L 255.16152 196.125005 
L 256.247321 194.668858 
L 257.333123 187.489034 
L 258.418924 205.307239 
L 259.504725 191.258082 
L 260.590526 188.203042 
L 261.676327 206.052954 
L 262.762128 176.393711 
L 263.847929 189.907895 
L 264.933731 196.10934 
L 266.019532 191.309577 
L 267.105333 194.262004 
L 268.191134 203.174188 
L 269.276935 190.391819 
L 270.362736 191.312243 
L 271.448538 183.597881 
L 272.534339 201.086734 
L 273.62014 195.647954 
L 274.705941 191.867639 
L 275.791742 200.589392 
L 276.877543 184.952846 
L 277.963344 207.566063 
L 279.049146 197.037919 
L 280.134947 190.971671 
L 281.220748 209.214859 
L 282.306549 179.633106 
L 283.39235 197.511086 
L 284.478151 201.401917 
L 285.563953 195.777307 
L 286.649754 196.022431 
L 288.821356 203.005138 
L 289.907157 203.561066 
L 290.992958 209.227863 
L 292.07876 194.388753 
L 293.164561 186.428178 
L 294.250362 192.772371 
L 295.336163 192.824241 
L 296.421964 189.721926 
L 297.507765 195.592117 
L 298.593566 207.194684 
L 299.679368 189.647889 
L 300.765169 187.733852 
L 301.85097 197.043498 
L 302.936771 208.729558 
L 304.022572 209.090595 
L 305.108373 214.973007 
L 306.194175 207.931235 
L 307.279976 192.735761 
L 308.365777 203.443501 
L 309.451578 207.426759 
L 310.537379 180.739779 
L 311.62318 199.010352 
L 312.708981 198.612115 
L 313.794783 177.894048 
L 314.880584 211.35545 
L 315.966385 202.584835 
L 317.052186 220.737349 
L 318.137987 214.461922 
L 319.223788 200.418689 
L 320.30959 190.777878 
L 321.395391 196.736101 
L 322.481192 196.277431 
L 323.566993 202.712022 
L 324.652794 209.911664 
L 325.738595 196.171116 
L 326.824396 204.187834 
L 327.910198 191.76391 
L 328.995999 189.296066 
L 330.0818 201.023304 
L 331.167601 207.353712 
L 332.253402 211.55239 
L 333.339203 204.313731 
L 334.425005 202.666929 
L 335.510806 193.837032 
L 336.596607 194.9007 
L 337.682408 197.611077 
L 338.768209 182.575988 
L 339.85401 192.443464 
L 340.939811 176.658141 
L 342.025613 193.43388 
L 343.111414 192.51937 
L 344.197215 194.083547 
L 345.283016 208.879507 
L 346.368817 204.12982 
L 347.454618 204.486925 
L 348.54042 186.130218 
L 349.626221 197.613877 
L 350.712022 199.232304 
L 351.797823 190.643789 
L 352.883624 193.250045 
L 353.969425 197.322247 
L 355.055227 199.093539 
L 356.141028 196.941422 
L 357.226829 191.833738 
L 358.31263 190.643686 
L 359.398431 183.299394 
L 360.484232 194.831865 
L 361.570033 186.548473 
L 362.655835 175.15329 
L 363.741636 181.452312 
L 364.827437 184.641207 
L 365.913238 193.319771 
L 366.999039 199.624899 
L 368.08484 200.902333 
L 370.256443 185.551424 
L 371.342244 194.533928 
L 372.428045 185.583969 
L 373.513846 188.260804 
L 374.599647 195.644709 
L 375.685448 193.850597 
L 376.77125 193.6541 
L 377.857051 203.291196 
L 378.942852 191.209592 
L 380.028653 186.100829 
L 381.114454 183.266031 
L 382.200255 195.363396 
L 383.286057 199.595068 
L 385.457659 186.484694 
L 386.54346 184.746315 
L 387.629261 185.902708 
L 388.715062 202.844605 
L 389.800863 202.410053 
L 390.886665 198.511694 
L 391.972466 203.391086 
L 393.058267 199.106271 
L 394.144068 188.82866 
L 395.229869 192.503226 
L 396.31567 198.401009 
L 397.401472 195.988586 
L 398.487273 192.05665 
L 398.487273 192.05665 
" clip-path="url(#p87e5157416)" style="fill: none; stroke-dasharray: 9.6,2.4,1.5,2.4; stroke-dashoffset: 0; stroke: #008000; stroke-width: 1.5"/>
   </g>
   <g id="line2d_28">
    <path d="M 73.832727 278.468314 
L 74.918528 267.223299 
L 77.090131 267.223299 
L 78.175932 255.978283 
L 79.261733 267.223299 
L 80.347534 255.978283 
L 87.948142 255.978283 
L 89.033943 210.99822 
L 91.205546 233.488251 
L 92.291347 222.243236 
L 93.377148 244.733267 
L 94.462949 222.243236 
L 95.54875 244.733267 
L 97.720353 244.733267 
L 98.806154 188.508189 
L 99.891955 233.488251 
L 100.977756 244.733267 
L 103.149358 222.243236 
L 104.23516 255.978283 
L 105.320961 233.488251 
L 106.406762 244.733267 
L 107.492563 233.488251 
L 108.578364 210.99822 
L 109.664165 199.753204 
L 110.749967 233.488251 
L 111.835768 222.243236 
L 112.921569 199.753204 
L 114.00737 233.488251 
L 115.093171 233.488251 
L 116.178972 210.99822 
L 117.264773 210.99822 
L 118.350575 233.488251 
L 119.436376 222.243236 
L 120.522177 233.488251 
L 121.607978 233.488251 
L 122.693779 210.99822 
L 123.77958 210.99822 
L 124.865382 222.243236 
L 125.951183 199.753204 
L 127.036984 222.243236 
L 128.122785 210.99822 
L 129.208586 177.263173 
L 130.294387 210.99822 
L 131.380189 233.488251 
L 132.46599 188.508189 
L 134.637592 210.99822 
L 135.723393 143.528126 
L 136.809194 188.508189 
L 137.894995 199.753204 
L 141.152399 199.753204 
L 142.2382 188.508189 
L 143.324001 210.99822 
L 144.409802 199.753204 
L 146.581405 199.753204 
L 147.667206 210.99822 
L 148.753007 188.508189 
L 149.838808 210.99822 
L 150.924609 154.773141 
L 152.01041 222.243236 
L 153.096212 199.753204 
L 154.182013 199.753204 
L 155.267814 210.99822 
L 156.353615 177.263173 
L 157.439416 199.753204 
L 158.525217 210.99822 
L 159.611019 199.753204 
L 160.69682 199.753204 
L 161.782621 222.243236 
L 162.868422 210.99822 
L 163.954223 210.99822 
L 165.040024 199.753204 
L 166.125825 222.243236 
L 167.211627 188.508189 
L 168.297428 210.99822 
L 169.383229 210.99822 
L 170.46903 222.243236 
L 172.640632 154.773141 
L 173.726434 177.263173 
L 174.812235 154.773141 
L 175.898036 121.038094 
L 176.983837 143.528126 
L 179.155439 121.038094 
L 180.24124 166.018157 
L 181.327042 132.28311 
L 182.412843 166.018157 
L 183.498644 132.28311 
L 184.584445 154.773141 
L 186.756047 154.773141 
L 187.841849 166.018157 
L 188.92765 166.018157 
L 191.099252 143.528126 
L 192.185053 143.528126 
L 193.270854 132.28311 
L 194.356656 154.773141 
L 196.528258 154.773141 
L 197.614059 121.038094 
L 198.69986 154.773141 
L 199.785661 121.038094 
L 200.871462 177.263173 
L 201.957264 121.038094 
L 203.043065 166.018157 
L 204.128866 143.528126 
L 205.214667 143.528126 
L 206.300468 121.038094 
L 208.472071 143.528126 
L 209.557872 166.018157 
L 211.729474 166.018157 
L 212.815275 143.528126 
L 213.901076 177.263173 
L 214.986877 132.28311 
L 216.072679 121.038094 
L 217.15848 154.773141 
L 219.330082 154.773141 
L 221.501684 132.28311 
L 222.587486 132.28311 
L 224.759088 154.773141 
L 225.844889 143.528126 
L 226.93069 154.773141 
L 228.016491 154.773141 
L 229.102292 109.793079 
L 230.188094 143.528126 
L 231.273895 143.528126 
L 232.359696 121.038094 
L 233.445497 154.773141 
L 234.531298 154.773141 
L 235.617099 98.548063 
L 236.702901 143.528126 
L 237.788702 121.038094 
L 238.874503 121.038094 
L 239.960304 109.793079 
L 241.046105 166.018157 
L 242.131906 154.773141 
L 243.217708 177.263173 
L 244.303509 132.28311 
L 245.38931 143.528126 
L 246.475111 143.528126 
L 248.646713 166.018157 
L 249.732514 143.528126 
L 251.904117 143.528126 
L 252.989918 166.018157 
L 254.075719 132.28311 
L 255.16152 143.528126 
L 256.247321 143.528126 
L 258.418924 166.018157 
L 259.504725 121.038094 
L 260.590526 121.038094 
L 261.676327 132.28311 
L 262.762128 76.058031 
L 263.847929 154.773141 
L 264.933731 154.773141 
L 266.019532 143.528126 
L 267.105333 154.773141 
L 268.191134 154.773141 
L 269.276935 132.28311 
L 271.448538 109.793079 
L 272.534339 154.773141 
L 273.62014 98.548063 
L 274.705941 109.793079 
L 275.791742 166.018157 
L 276.877543 87.303047 
L 277.963344 154.773141 
L 279.049146 132.28311 
L 280.134947 98.548063 
L 281.220748 177.263173 
L 282.306549 53.568 
L 284.478151 166.018157 
L 285.563953 121.038094 
L 286.649754 98.548063 
L 287.735555 143.528126 
L 288.821356 166.018157 
L 289.907157 132.28311 
L 290.992958 154.773141 
L 292.07876 132.28311 
L 293.164561 121.038094 
L 294.250362 143.528126 
L 295.336163 132.28311 
L 296.421964 132.28311 
L 297.507765 98.548063 
L 298.593566 143.528126 
L 299.679368 143.528126 
L 300.765169 121.038094 
L 301.85097 154.773141 
L 302.936771 121.038094 
L 304.022572 154.773141 
L 306.194175 177.263173 
L 307.279976 121.038094 
L 308.365777 98.548063 
L 309.451578 166.018157 
L 310.537379 109.793079 
L 311.62318 143.528126 
L 313.794783 98.548063 
L 314.880584 177.263173 
L 315.966385 154.773141 
L 317.052186 177.263173 
L 318.137987 132.28311 
L 320.30959 154.773141 
L 321.395391 132.28311 
L 322.481192 132.28311 
L 323.566993 177.263173 
L 325.738595 132.28311 
L 326.824396 154.773141 
L 327.910198 143.528126 
L 328.995999 154.773141 
L 330.0818 109.793079 
L 331.167601 177.263173 
L 332.253402 154.773141 
L 333.339203 121.038094 
L 334.425005 154.773141 
L 335.510806 143.528126 
L 336.596607 143.528126 
L 337.682408 121.038094 
L 338.768209 109.793079 
L 339.85401 154.773141 
L 340.939811 132.28311 
L 342.025613 143.528126 
L 343.111414 166.018157 
L 344.197215 132.28311 
L 345.283016 143.528126 
L 346.368817 109.793079 
L 347.454618 166.018157 
L 348.54042 109.793079 
L 349.626221 143.528126 
L 350.712022 143.528126 
L 351.797823 109.793079 
L 352.883624 132.28311 
L 353.969425 143.528126 
L 355.055227 109.793079 
L 356.141028 166.018157 
L 357.226829 132.28311 
L 358.31263 109.793079 
L 359.398431 132.28311 
L 360.484232 132.28311 
L 361.570033 109.793079 
L 362.655835 98.548063 
L 363.741636 132.28311 
L 364.827437 132.28311 
L 365.913238 166.018157 
L 366.999039 166.018157 
L 368.08484 143.528126 
L 369.170642 166.018157 
L 370.256443 143.528126 
L 371.342244 143.528126 
L 373.513846 121.038094 
L 374.599647 121.038094 
L 375.685448 143.528126 
L 377.857051 143.528126 
L 378.942852 132.28311 
L 380.028653 132.28311 
L 381.114454 121.038094 
L 382.200255 166.018157 
L 383.286057 132.28311 
L 384.371858 132.28311 
L 385.457659 143.528126 
L 386.54346 121.038094 
L 387.629261 132.28311 
L 388.715062 154.773141 
L 390.886665 154.773141 
L 391.972466 143.528126 
L 395.229869 143.528126 
L 396.31567 166.018157 
L 397.401472 143.528126 
L 398.487273 143.528126 
L 398.487273 143.528126 
" clip-path="url(#p87e5157416)" style="fill: none; stroke: #ff0000; stroke-width: 1.5; stroke-linecap: square"/>
   </g>
   <g id="patch_3">
    <path d="M 57.6 307.584 
L 57.6 41.472 
" style="fill: none; stroke: #000000; stroke-width: 0.8; stroke-linejoin: miter; stroke-linecap: square"/>
   </g>
   <g id="patch_4">
    <path d="M 414.72 307.584 
L 414.72 41.472 
" style="fill: none; stroke: #000000; stroke-width: 0.8; stroke-linejoin: miter; stroke-linecap: square"/>
   </g>
   <g id="patch_5">
    <path d="M 57.6 307.584 
L 414.72 307.584 
" style="fill: none; stroke: #000000; stroke-width: 0.8; stroke-linejoin: miter; stroke-linecap: square"/>
   </g>
   <g id="patch_6">
    <path d="M 57.6 41.472 
L 414.72 41.472 
" style="fill: none; stroke: #000000; stroke-width: 0.8; stroke-linejoin: miter; stroke-linecap: square"/>
   </g>
   <g id="text_15">
    <!-- Population's average and best fitness -->
    <g transform="translate(123.529687 35.472)scale(0.12 -0.12)">
     <defs>
      <path id="DejaVuSans-50" d="M 1259 4147 
L 1259 2394 
L 2053 2394 
Q 2494 2394 2734 2622 
Q 2975 2850 2975 3272 
Q 2975 3691 2734 3919 
Q 2494 4147 2053 4147 
L 1259 4147 
z
M 628 4666 
L 2053 4666 
Q 2838 4666 3239 4311 
Q 3641 3956 3641 3272 
Q 3641 2581 3239 2228 
Q 2838 1875 2053 1875 
L 1259 1875 
L 1259 0 
L 628 0 
L 628 4666 
z
" transform="scale(0.015625)"/>
      <path id="DejaVuSans-70" d="M 1159 525 
L 1159 -1331 
L 581 -1331 
L 581 3500 
L 1159 3500 
L 1159 2969 
Q 1341 3281 1617 3432 
Q 1894 3584 2278 3584 
Q 2916 3584 3314 3078 
Q 3713 2572 3713 1747 
Q 3713 922 3314 415 
Q 2916 -91 2278 -91 
Q 1894 -91 1617 61 
Q 1341 213 1159 525 
z
M 3116 1747 
Q 3116 2381 2855 2742 
Q 2594 3103 2138 3103 
Q 1681 3103 1420 2742 
Q 1159 2381 1159 1747 
Q 1159 1113 1420 752 
Q 1681 391 2138 391 
Q 2594 391 2855 752 
Q 3116 1113 3116 1747 
z
" transform="scale(0.015625)"/>
      <path id="DejaVuSans-75" d="M 544 1381 
L 544 3500 
L 1119 3500 
L 1119 1403 
Q 1119 906 1312 657 
Q 1506 409 1894 409 
Q 2359 409 2629 706 
Q 2900 1003 2900 1516 
L 2900 3500 
L 3475 3500 
L 3475 0 
L 2900 0 
L 2900 538 
Q 2691 219 2414 64 
Q 2138 -91 1772 -91 
Q 1169 -91 856 284 
Q 544 659 544 1381 
z
M 1991 3584 
L 1991 3584 
z
" transform="scale(0.015625)"/>
      <path id="DejaVuSans-6c" d="M 603 4863 
L 1178 4863 
L 1178 0 
L 603 0 
L 603 4863 
z
" transform="scale(0.015625)"/>
      <path id="DejaVuSans-27" d="M 1147 4666 
L 1147 2931 
L 616 2931 
L 616 4666 
L 1147 4666 
z
" transform="scale(0.015625)"/>
      <path id="DejaVuSans-20" transform="scale(0.015625)"/>
      <path id="DejaVuSans-76" d="M 191 3500 
L 800 3500 
L 1894 563 
L 2988 3500 
L 3597 3500 
L 2284 0 
L 1503 0 
L 191 3500 
z
" transform="scale(0.015625)"/>
      <path id="DejaVuSans-67" d="M 2906 1791 
Q 2906 2416 2648 2759 
Q 2391 3103 1925 3103 
Q 1463 3103 1205 2759 
Q 947 2416 947 1791 
Q 947 1169 1205 825 
Q 1463 481 1925 481 
Q 2391 481 2648 825 
Q 2906 1169 2906 1791 
z
M 3481 434 
Q 3481 -459 3084 -895 
Q 2688 -1331 1869 -1331 
Q 1566 -1331 1297 -1286 
Q 1028 -1241 775 -1147 
L 775 -588 
Q 1028 -725 1275 -790 
Q 1522 -856 1778 -856 
Q 2344 -856 2625 -561 
Q 2906 -266 2906 331 
L 2906 616 
Q 2728 306 2450 153 
Q 2172 0 1784 0 
Q 1141 0 747 490 
Q 353 981 353 1791 
Q 353 2603 747 3093 
Q 1141 3584 1784 3584 
Q 2172 3584 2450 3431 
Q 2728 3278 2906 2969 
L 2906 3500 
L 3481 3500 
L 3481 434 
z
" transform="scale(0.015625)"/>
      <path id="DejaVuSans-64" d="M 2906 2969 
L 2906 4863 
L 3481 4863 
L 3481 0 
L 2906 0 
L 2906 525 
Q 2725 213 2448 61 
Q 2172 -91 1784 -91 
Q 1150 -91 751 415 
Q 353 922 353 1747 
Q 353 2572 751 3078 
Q 1150 3584 1784 3584 
Q 2172 3584 2448 3432 
Q 2725 3281 2906 2969 
z
M 947 1747 
Q 947 1113 1208 752 
Q 1469 391 1925 391 
Q 2381 391 2643 752 
Q 2906 1113 2906 1747 
Q 2906 2381 2643 2742 
Q 2381 3103 1925 3103 
Q 1469 3103 1208 2742 
Q 947 2381 947 1747 
z
" transform="scale(0.015625)"/>
      <path id="DejaVuSans-62" d="M 3116 1747 
Q 3116 2381 2855 2742 
Q 2594 3103 2138 3103 
Q 1681 3103 1420 2742 
Q 1159 2381 1159 1747 
Q 1159 1113 1420 752 
Q 1681 391 2138 391 
Q 2594 391 2855 752 
Q 3116 1113 3116 1747 
z
M 1159 2969 
Q 1341 3281 1617 3432 
Q 1894 3584 2278 3584 
Q 2916 3584 3314 3078 
Q 3713 2572 3713 1747 
Q 3713 922 3314 415 
Q 2916 -91 2278 -91 
Q 1894 -91 1617 61 
Q 1341 213 1159 525 
L 1159 0 
L 581 0 
L 581 4863 
L 1159 4863 
L 1159 2969 
z
" transform="scale(0.015625)"/>
      <path id="DejaVuSans-66" d="M 2375 4863 
L 2375 4384 
L 1825 4384 
Q 1516 4384 1395 4259 
Q 1275 4134 1275 3809 
L 1275 3500 
L 2222 3500 
L 2222 3053 
L 1275 3053 
L 1275 0 
L 697 0 
L 697 3053 
L 147 3053 
L 147 3500 
L 697 3500 
L 697 3744 
Q 697 4328 969 4595 
Q 1241 4863 1831 4863 
L 2375 4863 
z
" transform="scale(0.015625)"/>
     </defs>
     <use xlink:href="#DejaVuSans-50"/>
     <use xlink:href="#DejaVuSans-6f" x="56.677734"/>
     <use xlink:href="#DejaVuSans-70" x="117.859375"/>
     <use xlink:href="#DejaVuSans-75" x="181.335938"/>
     <use xlink:href="#DejaVuSans-6c" x="244.714844"/>
     <use xlink:href="#DejaVuSans-61" x="272.498047"/>
     <use xlink:href="#DejaVuSans-74" x="333.777344"/>
     <use xlink:href="#DejaVuSans-69" x="372.986328"/>
     <use xlink:href="#DejaVuSans-6f" x="400.769531"/>
     <use xlink:href="#DejaVuSans-6e" x="461.951172"/>
     <use xlink:href="#DejaVuSans-27" x="525.330078"/>
     <use xlink:href="#DejaVuSans-73" x="552.820312"/>
     <use xlink:href="#DejaVuSans-20" x="604.919922"/>
     <use xlink:href="#DejaVuSans-61" x="636.707031"/>
     <use xlink:href="#DejaVuSans-76" x="697.986328"/>
     <use xlink:href="#DejaVuSans-65" x="757.166016"/>
     <use xlink:href="#DejaVuSans-72" x="818.689453"/>
     <use xlink:href="#DejaVuSans-61" x="859.802734"/>
     <use xlink:href="#DejaVuSans-67" x="921.082031"/>
     <use xlink:href="#DejaVuSans-65" x="984.558594"/>
     <use xlink:href="#DejaVuSans-20" x="1046.082031"/>
     <use xlink:href="#DejaVuSans-61" x="1077.869141"/>
     <use xlink:href="#DejaVuSans-6e" x="1139.148438"/>
     <use xlink:href="#DejaVuSans-64" x="1202.527344"/>
     <use xlink:href="#DejaVuSans-20" x="1266.003906"/>
     <use xlink:href="#DejaVuSans-62" x="1297.791016"/>
     <use xlink:href="#DejaVuSans-65" x="1361.267578"/>
     <use xlink:href="#DejaVuSans-73" x="1422.791016"/>
     <use xlink:href="#DejaVuSans-74" x="1474.890625"/>
     <use xlink:href="#DejaVuSans-20" x="1514.099609"/>
     <use xlink:href="#DejaVuSans-66" x="1545.886719"/>
     <use xlink:href="#DejaVuSans-69" x="1581.091797"/>
     <use xlink:href="#DejaVuSans-74" x="1608.875"/>
     <use xlink:href="#DejaVuSans-6e" x="1648.083984"/>
     <use xlink:href="#DejaVuSans-65" x="1711.462891"/>
     <use xlink:href="#DejaVuSans-73" x="1772.986328"/>
     <use xlink:href="#DejaVuSans-73" x="1825.085938"/>
    </g>
   </g>
   <g id="legend_1">
    <g id="patch_7">
     <path d="M 64.6 108.1845 
L 137.540625 108.1845 
Q 139.540625 108.1845 139.540625 106.1845 
L 139.540625 48.472 
Q 139.540625 46.472 137.540625 46.472 
L 64.6 46.472 
Q 62.6 46.472 62.6 48.472 
L 62.6 106.1845 
Q 62.6 108.1845 64.6 108.1845 
z
" style="fill: #ffffff; opacity: 0.8; stroke: #cccccc; stroke-linejoin: miter"/>
    </g>
    <g id="line2d_29">
     <path d="M 66.6 54.570438 
L 76.6 54.570438 
L 86.6 54.570438 
" style="fill: none; stroke: #0000ff; stroke-width: 1.5; stroke-linecap: square"/>
    </g>
    <g id="text_16">
     <!-- average -->
     <g transform="translate(94.6 58.070438)scale(0.1 -0.1)">
      <use xlink:href="#DejaVuSans-61"/>
      <use xlink:href="#DejaVuSans-76" x="61.279297"/>
      <use xlink:href="#DejaVuSans-65" x="120.458984"/>
      <use xlink:href="#DejaVuSans-72" x="181.982422"/>
      <use xlink:href="#DejaVuSans-61" x="223.095703"/>
      <use xlink:href="#DejaVuSans-67" x="284.375"/>
      <use xlink:href="#DejaVuSans-65" x="347.851562"/>
     </g>
    </g>
    <g id="line2d_30">
     <path d="M 66.6 69.248563 
L 76.6 69.248563 
L 86.6 69.248563 
" style="fill: none; stroke-dasharray: 9.6,2.4,1.5,2.4; stroke-dashoffset: 0; stroke: #008000; stroke-width: 1.5"/>
    </g>
    <g id="text_17">
     <!-- -1 sd -->
     <g transform="translate(94.6 72.748563)scale(0.1 -0.1)">
      <defs>
       <path id="DejaVuSans-2d" d="M 313 2009 
L 1997 2009 
L 1997 1497 
L 313 1497 
L 313 2009 
z
" transform="scale(0.015625)"/>
      </defs>
      <use xlink:href="#DejaVuSans-2d"/>
      <use xlink:href="#DejaVuSans-31" x="36.083984"/>
      <use xlink:href="#DejaVuSans-20" x="99.707031"/>
      <use xlink:href="#DejaVuSans-73" x="131.494141"/>
      <use xlink:href="#DejaVuSans-64" x="183.59375"/>
     </g>
    </g>
    <g id="line2d_31">
     <path d="M 66.6 83.926688 
L 76.6 83.926688 
L 86.6 83.926688 
" style="fill: none; stroke-dasharray: 9.6,2.4,1.5,2.4; stroke-dashoffset: 0; stroke: #008000; stroke-width: 1.5"/>
    </g>
    <g id="text_18">
     <!-- +1 sd -->
     <g transform="translate(94.6 87.426688)scale(0.1 -0.1)">
      <defs>
       <path id="DejaVuSans-2b" d="M 2944 4013 
L 2944 2272 
L 4684 2272 
L 4684 1741 
L 2944 1741 
L 2944 0 
L 2419 0 
L 2419 1741 
L 678 1741 
L 678 2272 
L 2419 2272 
L 2419 4013 
L 2944 4013 
z
" transform="scale(0.015625)"/>
      </defs>
      <use xlink:href="#DejaVuSans-2b"/>
      <use xlink:href="#DejaVuSans-31" x="83.789062"/>
      <use xlink:href="#DejaVuSans-20" x="147.412109"/>
      <use xlink:href="#DejaVuSans-73" x="179.199219"/>
      <use xlink:href="#DejaVuSans-64" x="231.298828"/>
     </g>
    </g>
    <g id="line2d_32">
     <path d="M 66.6 98.604813 
L 76.6 98.604813 
L 86.6 98.604813 
" style="fill: none; stroke: #ff0000; stroke-width: 1.5; stroke-linecap: square"/>
    </g>
    <g id="text_19">
     <!-- best -->
     <g transform="translate(94.6 102.104813)scale(0.1 -0.1)">
      <use xlink:href="#DejaVuSans-62"/>
      <use xlink:href="#DejaVuSans-65" x="63.476562"/>
      <use xlink:href="#DejaVuSans-73" x="125"/>
      <use xlink:href="#DejaVuSans-74" x="177.099609"/>
     </g>
    </g>
   </g>
  </g>
 </g>
 <defs>
  <clipPath id="p87e5157416">
   <rect x="57.6" y="41.472" width="357.12" height="266.112"/>
  </clipPath>
 </defs>
</svg>
