<?xml version="1.0" encoding="UTF-8" standalone="no"?>
<!DOCTYPE svg PUBLIC "-//W3C//DTD SVG 1.1//EN"
 "http://www.w3.org/Graphics/SVG/1.1/DTD/svg11.dtd">
<!-- Generated by graphviz version 3.0.0 (20220226.1711)
 -->
<!-- Pages: 1 -->
<svg width="615pt" height="281pt"
 viewBox="0.00 0.00 615.00 281.08" xmlns="http://www.w3.org/2000/svg" xmlns:xlink="http://www.w3.org/1999/xlink">
<g id="graph0" class="graph" transform="scale(1 1) rotate(0) translate(4 277.08)">
<polygon fill="white" stroke="transparent" points="-4,4 -4,-277.08 611,-277.08 611,4 -4,4"/>
<!-- A -->
<g id="node1" class="node">
<title>A</title>
<polygon fill="lightgray" stroke="black" points="43.29,-206.87 20.29,-206.87 20.29,-188.87 43.29,-188.87 43.29,-206.87"/>
<text text-anchor="middle" x="31.79" y="-195.67" font-family="Times,serif" font-size="9.00">A</text>
</g>
<!-- A XOR B -->
<g id="node12" class="node">
<title>A XOR B</title>
<ellipse fill="lightblue" stroke="black" cx="352.79" cy="-103.18" rx="37.45" ry="37.45"/>
<text text-anchor="middle" x="352.79" y="-100.98" font-family="Times,serif" font-size="9.00">A XOR B</text>
</g>
<!-- A&#45;&gt;A XOR B -->
<g id="edge1" class="edge">
<title>A&#45;&gt;A XOR B</title>
<path fill="none" stroke="red" stroke-width="0.14" d="M43.37,-192.26C55.14,-187.73 73.99,-180.9 90.79,-176.65 185.14,-152.8 217.83,-180.14 306.79,-140.65 310.4,-139.05 313.98,-137.09 317.45,-134.92"/>
<polygon fill="red" stroke="red" stroke-width="0.14" points="319.54,-137.73 325.8,-129.19 315.58,-131.96 319.54,-137.73"/>
</g>
<!-- 1 -->
<g id="node13" class="node">
<title>1</title>
<ellipse fill="lightblue" stroke="black" cx="186.79" cy="-103.18" rx="14.7" ry="14.7"/>
<text text-anchor="middle" x="186.79" y="-100.98" font-family="Times,serif" font-size="9.00">1</text>
</g>
<!-- A&#45;&gt;1 -->
<g id="edge2" class="edge">
<title>A&#45;&gt;1</title>
<path fill="none" stroke="green" stroke-width="0.11" d="M41.65,-188.63C46.41,-184.82 52.26,-180.32 57.79,-176.65 93.84,-152.7 138.31,-128.89 164.5,-115.4"/>
<polygon fill="green" stroke="green" stroke-width="0.11" points="166.28,-118.42 173.59,-110.76 163.09,-112.19 166.28,-118.42"/>
</g>
<!-- 2 -->
<g id="node14" class="node">
<title>2</title>
<ellipse fill="lightblue" stroke="black" cx="234.79" cy="-103.18" rx="14.7" ry="14.7"/>
<text text-anchor="middle" x="234.79" y="-100.98" font-family="Times,serif" font-size="9.00">2</text>
</g>
<!-- A&#45;&gt;2 -->
<g id="edge3" class="edge">
<title>A&#45;&gt;2</title>
<path fill="none" stroke="green" stroke-width="0.24" d="M40.29,-188.72C45.09,-184.55 51.39,-179.71 57.79,-176.65 120.81,-146.52 153.53,-180.67 210.79,-140.65 216.12,-136.92 220.58,-131.59 224.14,-126.16"/>
<polygon fill="green" stroke="green" stroke-width="0.24" points="227.36,-127.58 229.3,-117.17 221.29,-124.1 227.36,-127.58"/>
</g>
<!-- 3 -->
<g id="node15" class="node">
<title>3</title>
<ellipse fill="lightblue" stroke="black" cx="282.79" cy="-103.18" rx="14.7" ry="14.7"/>
<text text-anchor="middle" x="282.79" y="-100.98" font-family="Times,serif" font-size="9.00">3</text>
</g>
<!-- A&#45;&gt;3 -->
<g id="edge4" class="edge">
<title>A&#45;&gt;3</title>
<path fill="none" stroke="green" stroke-width="0.15" d="M43.41,-192.42C55.22,-188.02 74.09,-181.28 90.79,-176.65 164.37,-156.24 195.76,-183.77 258.79,-140.65 264.16,-136.98 268.63,-131.67 272.19,-126.23"/>
<polygon fill="green" stroke="green" stroke-width="0.15" points="275.41,-127.64 277.34,-117.22 269.34,-124.17 275.41,-127.64"/>
</g>
<!-- 9 -->
<g id="node17" class="node">
<title>9</title>
<ellipse fill="white" stroke="black" cx="301.79" cy="-14.85" rx="14.7" ry="14.7"/>
<text text-anchor="middle" x="301.79" y="-12.65" font-family="Times,serif" font-size="9.00">9</text>
</g>
<!-- A&#45;&gt;9 -->
<g id="edge45" class="edge">
<title>A&#45;&gt;9</title>
<path fill="none" stroke="green" stroke-width="0.48" d="M37.91,-188.54C55.11,-165.73 106.25,-101.55 162.79,-65.7 199.45,-42.44 248.44,-28.14 277.4,-21.12"/>
<polygon fill="green" stroke="green" stroke-width="0.48" points="278.5,-24.46 287.45,-18.79 276.92,-17.64 278.5,-24.46"/>
</g>
<!-- B -->
<g id="node2" class="node">
<title>B</title>
<polygon fill="lightgray" stroke="black" points="123.29,-206.87 100.29,-206.87 100.29,-188.87 123.29,-188.87 123.29,-206.87"/>
<text text-anchor="middle" x="111.79" y="-195.67" font-family="Times,serif" font-size="9.00">B</text>
</g>
<!-- B&#45;&gt;A XOR B -->
<g id="edge5" class="edge">
<title>B&#45;&gt;A XOR B</title>
<path fill="none" stroke="green" stroke-width="0.29" d="M118.35,-188.62C122.14,-184.41 127.24,-179.58 132.79,-176.65 202.64,-139.82 235.24,-174.09 306.79,-140.65 310.22,-139.05 313.63,-137.14 316.94,-135.05"/>
<polygon fill="green" stroke="green" stroke-width="0.29" points="319.21,-137.73 325.46,-129.18 315.24,-131.97 319.21,-137.73"/>
</g>
<!-- B&#45;&gt;1 -->
<g id="edge6" class="edge">
<title>B&#45;&gt;1</title>
<path fill="none" stroke="green" stroke-width="0.22" d="M118.44,-188.64C130.24,-174.06 155.09,-143.34 171.36,-123.25"/>
<polygon fill="green" stroke="green" stroke-width="0.22" points="174.17,-125.34 177.74,-115.36 168.72,-120.93 174.17,-125.34"/>
</g>
<!-- B&#45;&gt;2 -->
<g id="edge7" class="edge">
<title>B&#45;&gt;2</title>
<path fill="none" stroke="green" stroke-width="0.39" d="M119.02,-188.71C122.85,-184.73 127.77,-180.08 132.79,-176.65 164.31,-155.11 181.85,-165.56 210.79,-140.65 215.65,-136.47 219.91,-131.07 223.45,-125.72"/>
<polygon fill="green" stroke="green" stroke-width="0.39" points="226.55,-127.34 228.69,-116.96 220.55,-123.75 226.55,-127.34"/>
</g>
<!-- B&#45;&gt;3 -->
<g id="edge8" class="edge">
<title>B&#45;&gt;3</title>
<path fill="none" stroke="green" stroke-width="0.28" d="M118.44,-188.78C122.25,-184.62 127.35,-179.78 132.79,-176.65 183.26,-147.6 211.85,-175.13 258.79,-140.65 264.03,-136.8 268.46,-131.43 272.02,-125.99"/>
<polygon fill="green" stroke="green" stroke-width="0.28" points="275.23,-127.44 277.21,-117.03 269.17,-123.94 275.23,-127.44"/>
</g>
<!-- &#45;3 -->
<g id="node3" class="node">
<title>&#45;3</title>
<polygon fill="lightgray" stroke="black" points="165.79,-206.87 141.79,-206.87 141.79,-188.87 165.79,-188.87 165.79,-206.87"/>
<text text-anchor="middle" x="153.79" y="-195.67" font-family="Times,serif" font-size="9.00">&#45;3</text>
</g>
<!-- &#45;3&#45;&gt;A XOR B -->
<g id="edge9" class="edge">
<title>&#45;3&#45;&gt;A XOR B</title>
<path fill="none" stroke="red" stroke-width="0.25" d="M160.43,-188.76C164.23,-184.59 169.33,-179.75 174.79,-176.65 227.67,-146.63 252.53,-168.1 306.79,-140.65 310.27,-138.89 313.74,-136.84 317.12,-134.63"/>
<polygon fill="red" stroke="red" stroke-width="0.25" points="319.15,-137.48 325.31,-128.86 315.12,-131.76 319.15,-137.48"/>
</g>
<!-- &#45;3&#45;&gt;1 -->
<g id="edge10" class="edge">
<title>&#45;3&#45;&gt;1</title>
<path fill="none" stroke="green" stroke-width="0.37" d="M156.72,-188.64C161.58,-174.98 171.49,-147.15 178.6,-127.17"/>
<polygon fill="green" stroke="green" stroke-width="0.37" points="181.97,-128.14 182.03,-117.55 175.38,-125.79 181.97,-128.14"/>
</g>
<!-- &#45;3&#45;&gt;2 -->
<g id="edge11" class="edge">
<title>&#45;3&#45;&gt;2</title>
<path fill="none" stroke="green" stroke-width="0.17" d="M162.36,-188.6C177.23,-174.25 206.6,-145.76 210.79,-140.65 214.79,-135.77 218.73,-130.21 222.22,-124.92"/>
<polygon fill="green" stroke="green" stroke-width="0.17" points="225.2,-126.77 227.61,-116.45 219.29,-123.01 225.2,-126.77"/>
</g>
<!-- &#45;3&#45;&gt;3 -->
<g id="edge12" class="edge">
<title>&#45;3&#45;&gt;3</title>
<path fill="none" stroke="red" stroke-width="0.3" d="M160.99,-188.65C164.8,-184.66 169.73,-180.01 174.79,-176.65 208.64,-154.2 227.64,-166.72 258.79,-140.65 263.7,-136.54 267.99,-131.16 271.53,-125.81"/>
<polygon fill="red" stroke="red" stroke-width="0.3" points="274.64,-127.42 276.75,-117.04 268.62,-123.84 274.64,-127.42"/>
</g>
<!-- &#45;4 -->
<g id="node4" class="node">
<title>&#45;4</title>
<polygon fill="lightgray" stroke="black" points="207.79,-206.87 183.79,-206.87 183.79,-188.87 207.79,-188.87 207.79,-206.87"/>
<text text-anchor="middle" x="195.79" y="-195.67" font-family="Times,serif" font-size="9.00">&#45;4</text>
</g>
<!-- &#45;4&#45;&gt;A XOR B -->
<g id="edge13" class="edge">
<title>&#45;4&#45;&gt;A XOR B</title>
<path fill="none" stroke="green" stroke-width="0.16" d="M202.95,-188.6C206.75,-184.59 211.69,-179.95 216.79,-176.65 252.98,-153.28 269.52,-162.26 306.79,-140.65 309.97,-138.8 313.17,-136.75 316.33,-134.59"/>
<polygon fill="green" stroke="green" stroke-width="0.16" points="318.45,-137.37 324.5,-128.67 314.35,-131.7 318.45,-137.37"/>
</g>
<!-- &#45;4&#45;&gt;1 -->
<g id="edge14" class="edge">
<title>&#45;4&#45;&gt;1</title>
<path fill="none" stroke="green" stroke-width="0.39" d="M194.99,-188.64C193.69,-175.26 191.07,-148.27 189.14,-128.38"/>
<polygon fill="green" stroke="green" stroke-width="0.39" points="192.6,-127.81 188.15,-118.2 185.63,-128.49 192.6,-127.81"/>
</g>
<!-- &#45;4&#45;&gt;2 -->
<g id="edge15" class="edge">
<title>&#45;4&#45;&gt;2</title>
<path fill="none" stroke="red" stroke-width="0.38" d="M199.25,-188.64C205.05,-174.84 216.94,-146.59 225.37,-126.56"/>
<polygon fill="red" stroke="red" stroke-width="0.38" points="228.64,-127.8 229.3,-117.23 222.19,-125.08 228.64,-127.8"/>
</g>
<!-- &#45;4&#45;&gt;3 -->
<g id="edge16" class="edge">
<title>&#45;4&#45;&gt;3</title>
<path fill="none" stroke="red" stroke-width="0.25" d="M204.26,-188.49C208.05,-184.81 212.59,-180.46 216.79,-176.65 234.98,-160.12 242.54,-159.1 258.79,-140.65 262.96,-135.91 266.96,-130.4 270.45,-125.11"/>
<polygon fill="red" stroke="red" stroke-width="0.25" points="273.44,-126.94 275.8,-116.61 267.51,-123.21 273.44,-126.94"/>
</g>
<!-- &#45;5 -->
<g id="node5" class="node">
<title>&#45;5</title>
<polygon fill="lightgray" stroke="black" points="428.79,-206.87 404.79,-206.87 404.79,-188.87 428.79,-188.87 428.79,-206.87"/>
<text text-anchor="middle" x="416.79" y="-195.67" font-family="Times,serif" font-size="9.00">&#45;5</text>
</g>
<!-- &#45;5&#45;&gt;A XOR B -->
<g id="edge17" class="edge">
<title>&#45;5&#45;&gt;A XOR B</title>
<path fill="none" stroke="green" stroke-width="0.18" d="M411.11,-188.64C404.02,-178.38 391.41,-160.11 379.72,-143.19"/>
<polygon fill="green" stroke="green" stroke-width="0.18" points="382.29,-140.75 373.73,-134.51 376.53,-144.73 382.29,-140.75"/>
</g>
<!-- &#45;5&#45;&gt;1 -->
<g id="edge18" class="edge">
<title>&#45;5&#45;&gt;1</title>
<path fill="none" stroke="red" stroke-width="0.23" d="M410.24,-188.59C406.46,-184.38 401.35,-179.55 395.79,-176.65 321.46,-138.03 280.37,-187.29 210.79,-140.65 205.38,-137.03 200.9,-131.73 197.34,-126.3"/>
<polygon fill="red" stroke="red" stroke-width="0.23" points="200.19,-124.23 192.19,-117.28 194.11,-127.7 200.19,-124.23"/>
</g>
<!-- &#45;5&#45;&gt;2 -->
<g id="edge19" class="edge">
<title>&#45;5&#45;&gt;2</title>
<path fill="none" stroke="red" stroke-width="0.7" d="M410.16,-188.74C406.36,-184.56 401.26,-179.72 395.79,-176.65 340.89,-145.83 309.92,-177.38 258.79,-140.65 253.5,-136.86 249.06,-131.5 245.5,-126.07"/>
<polygon fill="red" stroke="red" stroke-width="0.7" points="248.35,-124.01 240.32,-117.09 242.29,-127.51 248.35,-124.01"/>
</g>
<!-- &#45;5&#45;&gt;3 -->
<g id="edge20" class="edge">
<title>&#45;5&#45;&gt;3</title>
<path fill="none" stroke="red" stroke-width="0.23" d="M409.62,-188.61C405.81,-184.6 400.88,-179.96 395.79,-176.65 359.99,-153.43 339.79,-167.7 306.79,-140.65 301.83,-136.59 297.53,-131.23 293.99,-125.87"/>
<polygon fill="red" stroke="red" stroke-width="0.23" points="296.89,-123.91 288.78,-117.09 290.87,-127.48 296.89,-123.91"/>
</g>
<!-- &#45;5&#45;&gt;9 -->
<g id="edge44" class="edge">
<title>&#45;5&#45;&gt;9</title>
<path fill="none" stroke="green" stroke-width="0.31" d="M418.08,-188.56C421.08,-166.32 426.29,-104.53 398.79,-65.7 381.59,-41.42 348.97,-28.17 326.33,-21.55"/>
<polygon fill="green" stroke="green" stroke-width="0.31" points="326.99,-18.1 316.42,-18.89 325.17,-24.86 326.99,-18.1"/>
</g>
<!-- &#45;6 -->
<g id="node6" class="node">
<title>&#45;6</title>
<polygon fill="lightgray" stroke="black" points="386.79,-206.87 362.79,-206.87 362.79,-188.87 386.79,-188.87 386.79,-206.87"/>
<text text-anchor="middle" x="374.79" y="-195.67" font-family="Times,serif" font-size="9.00">&#45;6</text>
</g>
<!-- &#45;6&#45;&gt;A XOR B -->
<g id="edge21" class="edge">
<title>&#45;6&#45;&gt;A XOR B</title>
<path fill="none" stroke="green" stroke-width="0.3" d="M372.83,-188.64C370.73,-179.78 367.22,-164.97 363.71,-150.2"/>
<polygon fill="green" stroke="green" stroke-width="0.3" points="367.02,-148.98 361.3,-140.05 360.21,-150.59 367.02,-148.98"/>
</g>
<!-- &#45;6&#45;&gt;2 -->
<g id="edge22" class="edge">
<title>&#45;6&#45;&gt;2</title>
<path fill="none" stroke="green" stroke-width="0.5" stroke-dasharray="1,5" d="M367.65,-188.56C363.85,-184.54 358.92,-179.9 353.79,-176.65 315.63,-152.5 294.02,-168.89 258.79,-140.65 253.78,-136.64 249.47,-131.3 245.93,-125.95"/>
<polygon fill="green" stroke="green" stroke-width="0.5" points="248.83,-123.98 240.73,-117.15 242.81,-127.54 248.83,-123.98"/>
</g>
<!-- &#45;6&#45;&gt;3 -->
<g id="edge23" class="edge">
<title>&#45;6&#45;&gt;3</title>
<path fill="none" stroke="red" stroke-width="0.35" d="M366.81,-188.77C362.97,-184.99 358.24,-180.48 353.79,-176.65 333.83,-159.5 324.71,-159.91 306.79,-140.65 302.49,-136.03 298.44,-130.56 294.95,-125.27"/>
<polygon fill="red" stroke="red" stroke-width="0.35" points="297.89,-123.38 289.63,-116.74 291.95,-127.08 297.89,-123.38"/>
</g>
<!-- &#45;7 -->
<g id="node7" class="node">
<title>&#45;7</title>
<polygon fill="lightgray" stroke="black" points="470.79,-206.87 446.79,-206.87 446.79,-188.87 470.79,-188.87 470.79,-206.87"/>
<text text-anchor="middle" x="458.79" y="-195.67" font-family="Times,serif" font-size="9.00">&#45;7</text>
</g>
<!-- &#45;7&#45;&gt;A XOR B -->
<g id="edge24" class="edge">
<title>&#45;7&#45;&gt;A XOR B</title>
<path fill="none" stroke="red" stroke-width="0.19" d="M450.32,-188.49C446.53,-184.8 441.99,-180.46 437.79,-176.65 422.12,-162.46 404.39,-147.21 389.19,-134.38"/>
<polygon fill="red" stroke="red" stroke-width="0.19" points="391.4,-131.67 381.49,-127.91 386.89,-137.03 391.4,-131.67"/>
</g>
<!-- &#45;7&#45;&gt;1 -->
<g id="edge25" class="edge">
<title>&#45;7&#45;&gt;1</title>
<path fill="none" stroke="green" stroke-width="0.31" d="M452.28,-188.51C448.51,-184.28 443.4,-179.45 437.79,-176.65 346.34,-131.14 296.62,-196.04 210.79,-140.65 205.32,-137.12 200.82,-131.86 197.25,-126.42"/>
<polygon fill="green" stroke="green" stroke-width="0.31" points="200.1,-124.35 192.13,-117.38 194.01,-127.8 200.1,-124.35"/>
</g>
<!-- &#45;7&#45;&gt;2 -->
<g id="edge26" class="edge">
<title>&#45;7&#45;&gt;2</title>
<path fill="none" stroke="red" stroke-width="0.11" d="M452.23,-188.61C448.45,-184.4 443.35,-179.56 437.79,-176.65 365.9,-139.01 326.05,-186.05 258.79,-140.65 253.39,-137.01 248.92,-131.71 245.35,-126.27"/>
<polygon fill="red" stroke="red" stroke-width="0.11" points="248.2,-124.21 240.21,-117.26 242.12,-127.68 248.2,-124.21"/>
</g>
<!-- &#45;7&#45;&gt;3 -->
<g id="edge27" class="edge">
<title>&#45;7&#45;&gt;3</title>
<path fill="none" stroke="green" stroke-width="0.18" d="M452.14,-188.76C448.34,-184.59 443.24,-179.75 437.79,-176.65 385.31,-146.79 355.63,-176.15 306.79,-140.65 301.52,-136.83 297.09,-131.46 293.52,-126.03"/>
<polygon fill="green" stroke="green" stroke-width="0.18" points="296.38,-123.97 288.35,-117.06 290.32,-127.47 296.38,-123.97"/>
</g>
<!-- &#45;7&#45;&gt;9 -->
<g id="edge49" class="edge">
<title>&#45;7&#45;&gt;9</title>
<path fill="none" stroke="red" stroke-width="0.53" d="M458.9,-188.64C458.75,-166.09 455.32,-102.5 422.79,-65.7 397.68,-37.3 353.9,-24.74 326.45,-19.44"/>
<polygon fill="red" stroke="red" stroke-width="0.53" points="326.92,-15.97 316.47,-17.69 325.72,-22.87 326.92,-15.97"/>
</g>
<!-- &#45;8 -->
<g id="node8" class="node">
<title>&#45;8</title>
<polygon fill="lightgray" stroke="black" points="249.79,-206.87 225.79,-206.87 225.79,-188.87 249.79,-188.87 249.79,-206.87"/>
<text text-anchor="middle" x="237.79" y="-195.67" font-family="Times,serif" font-size="9.00">&#45;8</text>
</g>
<!-- &#45;8&#45;&gt;A XOR B -->
<g id="edge28" class="edge">
<title>&#45;8&#45;&gt;A XOR B</title>
<path fill="none" stroke="red" stroke-width="0.66" d="M246.19,-188.81C250.23,-185.03 255.18,-180.52 259.79,-176.65 279.94,-159.73 286.03,-156.83 306.79,-140.65 309.69,-138.39 312.69,-136.04 315.7,-133.67"/>
<polygon fill="red" stroke="red" stroke-width="0.66" points="317.96,-136.35 323.64,-127.4 313.62,-130.85 317.96,-136.35"/>
</g>
<!-- &#45;8&#45;&gt;1 -->
<g id="edge29" class="edge">
<title>&#45;8&#45;&gt;1</title>
<path fill="none" stroke="green" stroke-width="0.52" d="M233.26,-188.64C225.52,-174.56 209.49,-145.44 198.44,-125.36"/>
<polygon fill="green" stroke="green" stroke-width="0.52" points="201.51,-123.67 193.62,-116.59 195.37,-127.04 201.51,-123.67"/>
</g>
<!-- &#45;8&#45;&gt;2 -->
<g id="edge30" class="edge">
<title>&#45;8&#45;&gt;2</title>
<path fill="none" stroke="green" stroke-width="0.16" d="M237.52,-188.64C237.09,-175.26 236.21,-148.27 235.57,-128.38"/>
<polygon fill="green" stroke="green" stroke-width="0.16" points="239.06,-128.08 235.24,-118.2 232.07,-128.31 239.06,-128.08"/>
</g>
<!-- &#45;8&#45;&gt;3 -->
<g id="edge31" class="edge">
<title>&#45;8&#45;&gt;3</title>
<path fill="none" stroke="green" stroke-width="0.33" d="M241.78,-188.64C248.55,-174.7 262.47,-146.01 272.21,-125.96"/>
<polygon fill="green" stroke="green" stroke-width="0.33" points="275.39,-127.43 276.61,-116.91 269.09,-124.37 275.39,-127.43"/>
</g>
<!-- &#45;9 -->
<g id="node9" class="node">
<title>&#45;9</title>
<polygon fill="lightgray" stroke="black" points="510.79,-273.08 486.79,-273.08 486.79,-255.08 510.79,-255.08 510.79,-273.08"/>
<text text-anchor="middle" x="498.79" y="-261.88" font-family="Times,serif" font-size="9.00">&#45;9</text>
</g>
<!-- &#45;9&#45;&gt;A XOR B -->
<g id="edge32" class="edge">
<title>&#45;9&#45;&gt;A XOR B</title>
<path fill="none" stroke="green" stroke-width="0.44" d="M503.53,-254.94C512.32,-238.67 528.85,-201.56 512.79,-176.65 488.09,-138.35 437.7,-120.07 400.03,-111.48"/>
<polygon fill="green" stroke="green" stroke-width="0.44" points="400.28,-107.96 389.78,-109.31 398.83,-114.81 400.28,-107.96"/>
</g>
<!-- &#45;9&#45;&gt;1 -->
<g id="edge33" class="edge">
<title>&#45;9&#45;&gt;1</title>
<path fill="none" stroke="green" stroke-width="0.32" d="M486.68,-262.94C414.6,-261.99 43.93,-255.34 10.79,-219.08 -39.62,-163.92 103.2,-123.49 162.39,-109.51"/>
<polygon fill="green" stroke="green" stroke-width="0.32" points="163.45,-112.86 172.41,-107.21 161.88,-106.04 163.45,-112.86"/>
</g>
<!-- &#45;9&#45;&gt;2 -->
<g id="edge34" class="edge">
<title>&#45;9&#45;&gt;2</title>
<path fill="none" stroke="green" stroke-width="0.38" d="M486.62,-262.71C421.68,-260.64 117.98,-249.36 90.79,-219.08 78.19,-205.05 79.53,-191.78 90.79,-176.65 124.02,-131.98 166.13,-173.91 210.79,-140.65 216.01,-136.76 220.42,-131.38 223.99,-125.95"/>
<polygon fill="green" stroke="green" stroke-width="0.38" points="227.19,-127.4 229.18,-117 221.14,-123.89 227.19,-127.4"/>
</g>
<!-- &#45;9&#45;&gt;3 -->
<g id="edge35" class="edge">
<title>&#45;9&#45;&gt;3</title>
<path fill="none" stroke="green" stroke-width="0.53" d="M499.63,-255.07C500.95,-238.04 501.42,-198.04 479.79,-176.65 423.94,-121.43 371.74,-184.8 306.79,-140.65 301.41,-136.99 296.93,-131.69 293.37,-126.25"/>
<polygon fill="green" stroke="green" stroke-width="0.53" points="296.22,-124.19 288.22,-117.24 290.14,-127.66 296.22,-124.19"/>
</g>
<!-- 101 -->
<g id="node16" class="node">
<title>101</title>
<ellipse fill="white" stroke="black" cx="585.79" cy="-197.87" rx="21.43" ry="21.43"/>
<text text-anchor="middle" x="585.79" y="-195.67" font-family="Times,serif" font-size="9.00">101</text>
</g>
<!-- &#45;9&#45;&gt;101 -->
<g id="edge46" class="edge">
<title>&#45;9&#45;&gt;101</title>
<path fill="none" stroke="green" stroke-width="0.24" d="M509.81,-254.95C522.5,-245.58 543.76,-229.88 560.58,-217.47"/>
<polygon fill="green" stroke="green" stroke-width="0.24" points="562.92,-220.09 568.89,-211.34 558.77,-214.46 562.92,-220.09"/>
</g>
<!-- &#45;10 -->
<g id="node10" class="node">
<title>&#45;10</title>
<polygon fill="lightgray" stroke="black" points="297.29,-206.87 268.29,-206.87 268.29,-188.87 297.29,-188.87 297.29,-206.87"/>
<text text-anchor="middle" x="282.79" y="-195.67" font-family="Times,serif" font-size="9.00">&#45;10</text>
</g>
<!-- &#45;10&#45;&gt;A XOR B -->
<g id="edge36" class="edge">
<title>&#45;10&#45;&gt;A XOR B</title>
<path fill="none" stroke="green" stroke-width="0.2" d="M289,-188.64C296.94,-178.13 311.21,-159.23 324.24,-141.97"/>
<polygon fill="green" stroke="green" stroke-width="0.2" points="327.28,-143.76 330.51,-133.67 321.69,-139.54 327.28,-143.76"/>
</g>
<!-- &#45;10&#45;&gt;1 -->
<g id="edge37" class="edge">
<title>&#45;10&#45;&gt;1</title>
<path fill="none" stroke="red" stroke-width="0.37" d="M273.08,-188.48C268.75,-184.79 263.56,-180.45 258.79,-176.65 237.91,-160.06 229.05,-160.08 210.79,-140.65 206.46,-136.05 202.41,-130.59 198.91,-125.3"/>
<polygon fill="red" stroke="red" stroke-width="0.37" points="201.86,-123.41 193.6,-116.77 195.92,-127.11 201.86,-123.41"/>
</g>
<!-- &#45;10&#45;&gt;2 -->
<g id="edge38" class="edge">
<title>&#45;10&#45;&gt;2</title>
<path fill="none" stroke="green" stroke-width="0.28" d="M278.53,-188.64C271.27,-174.63 256.29,-145.7 245.9,-125.63"/>
<polygon fill="green" stroke="green" stroke-width="0.28" points="248.92,-123.86 241.22,-116.59 242.71,-127.08 248.92,-123.86"/>
</g>
<!-- &#45;10&#45;&gt;3 -->
<g id="edge39" class="edge">
<title>&#45;10&#45;&gt;3</title>
<path fill="none" stroke="red" stroke-width="0.3" d="M282.79,-188.64C282.79,-175.26 282.79,-148.27 282.79,-128.38"/>
<polygon fill="red" stroke="red" stroke-width="0.3" points="286.29,-128.2 282.79,-118.2 279.29,-128.2 286.29,-128.2"/>
</g>
<!-- &#45;11 -->
<g id="node11" class="node">
<title>&#45;11</title>
<polygon fill="lightgray" stroke="black" points="344.29,-206.87 315.29,-206.87 315.29,-188.87 344.29,-188.87 344.29,-206.87"/>
<text text-anchor="middle" x="329.79" y="-195.67" font-family="Times,serif" font-size="9.00">&#45;11</text>
</g>
<!-- &#45;11&#45;&gt;A XOR B -->
<g id="edge40" class="edge">
<title>&#45;11&#45;&gt;A XOR B</title>
<path fill="none" stroke="green" stroke-width="0.25" d="M331.83,-188.64C334.06,-179.63 337.83,-164.44 341.56,-149.41"/>
<polygon fill="green" stroke="green" stroke-width="0.25" points="344.98,-150.17 343.99,-139.62 338.19,-148.48 344.98,-150.17"/>
</g>
<!-- &#45;11&#45;&gt;1 -->
<g id="edge41" class="edge">
<title>&#45;11&#45;&gt;1</title>
<path fill="none" stroke="red" stroke-width="0.4" d="M321.84,-188.59C317.65,-184.58 312.26,-179.93 306.79,-176.65 267.7,-153.23 246.4,-169.08 210.79,-140.65 205.78,-136.65 201.46,-131.31 197.92,-125.96"/>
<polygon fill="red" stroke="red" stroke-width="0.4" points="200.82,-123.99 192.72,-117.16 194.8,-127.55 200.82,-123.99"/>
</g>
<!-- &#45;11&#45;&gt;2 -->
<g id="edge42" class="edge">
<title>&#45;11&#45;&gt;2</title>
<path fill="none" stroke="red" stroke-width="0.19" d="M320.97,-188.83C316.74,-185.05 311.57,-180.54 306.79,-176.65 286.09,-159.84 277.05,-160.08 258.79,-140.65 254.46,-136.05 250.41,-130.59 246.91,-125.3"/>
<polygon fill="red" stroke="red" stroke-width="0.19" points="249.86,-123.41 241.6,-116.77 243.92,-127.11 249.86,-123.41"/>
</g>
<!-- &#45;11&#45;&gt;3 -->
<g id="edge43" class="edge">
<title>&#45;11&#45;&gt;3</title>
<path fill="none" stroke="red" stroke-width="0.15" d="M325.62,-188.64C318.55,-174.7 304,-146.01 293.83,-125.96"/>
<polygon fill="red" stroke="red" stroke-width="0.15" points="296.89,-124.24 289.24,-116.91 290.64,-127.41 296.89,-124.24"/>
</g>
<!-- 1&#45;&gt;9 -->
<g id="edge48" class="edge">
<title>1&#45;&gt;9</title>
<path fill="none" stroke="red" stroke-width="0.25" d="M193.05,-89.57C197.28,-81.97 203.43,-72.48 210.79,-65.7 230.86,-47.19 259.06,-33.12 278.74,-24.72"/>
<polygon fill="red" stroke="red" stroke-width="0.25" points="280.23,-27.89 288.16,-20.86 277.58,-21.42 280.23,-27.89"/>
</g>
<!-- 101&#45;&gt;A XOR B -->
<g id="edge47" class="edge">
<title>101&#45;&gt;A XOR B</title>
<path fill="none" stroke="red" stroke-width="0.44" d="M567.94,-185.76C562.53,-182.62 556.51,-179.33 550.79,-176.65 499.93,-152.88 438.95,-131.58 398.23,-118.32"/>
<polygon fill="red" stroke="red" stroke-width="0.44" points="399.18,-114.95 388.59,-115.21 397.03,-121.61 399.18,-114.95"/>
</g>
</g>
</svg>
