<?xml version="1.0" encoding="UTF-8" standalone="no"?>
<!DOCTYPE svg PUBLIC "-//W3C//DTD SVG 1.1//EN"
 "http://www.w3.org/Graphics/SVG/1.1/DTD/svg11.dtd">
<!-- Generated by graphviz version 3.0.0 (20220226.1711)
 -->
<!-- Pages: 1 -->
<svg width="853pt" height="425pt"
 viewBox="0.00 0.00 853.25 424.94" xmlns="http://www.w3.org/2000/svg" xmlns:xlink="http://www.w3.org/1999/xlink">
<g id="graph0" class="graph" transform="scale(1 1) rotate(0) translate(4 420.94)">
<polygon fill="white" stroke="transparent" points="-4,4 -4,-420.94 849.25,-420.94 849.25,4 -4,4"/>
<!-- A -->
<g id="node1" class="node">
<title>A</title>
<polygon fill="lightgray" stroke="black" points="23,-401.19 0,-401.19 0,-383.19 23,-383.19 23,-401.19"/>
<text text-anchor="middle" x="11.5" y="-389.99" font-family="Times,serif" font-size="9.00">A</text>
</g>
<!-- B -->
<g id="node2" class="node">
<title>B</title>
<polygon fill="lightgray" stroke="black" points="64,-401.19 41,-401.19 41,-383.19 64,-383.19 64,-401.19"/>
<text text-anchor="middle" x="52.5" y="-389.99" font-family="Times,serif" font-size="9.00">B</text>
</g>
<!-- &#45;3 -->
<g id="node3" class="node">
<title>&#45;3</title>
<polygon fill="lightgray" stroke="black" points="106.5,-401.19 82.5,-401.19 82.5,-383.19 106.5,-383.19 106.5,-401.19"/>
<text text-anchor="middle" x="94.5" y="-389.99" font-family="Times,serif" font-size="9.00">&#45;3</text>
</g>
<!-- &#45;4 -->
<g id="node4" class="node">
<title>&#45;4</title>
<polygon fill="lightgray" stroke="black" points="148.5,-401.19 124.5,-401.19 124.5,-383.19 148.5,-383.19 148.5,-401.19"/>
<text text-anchor="middle" x="136.5" y="-389.99" font-family="Times,serif" font-size="9.00">&#45;4</text>
</g>
<!-- 2791 -->
<g id="node27" class="node">
<title>2791</title>
<ellipse fill="white" stroke="black" cx="136.5" cy="-306.7" rx="25" ry="25"/>
<text text-anchor="middle" x="136.5" y="-304.5" font-family="Times,serif" font-size="9.00">2791</text>
</g>
<!-- &#45;4&#45;&gt;2791 -->
<g id="edge21" class="edge">
<title>&#45;4&#45;&gt;2791</title>
<path fill="none" stroke="red" stroke-width="0.27" d="M136.5,-383.19C136.5,-373.64 136.5,-357.05 136.5,-341.85"/>
<polygon fill="red" stroke="red" stroke-width="0.27" points="140,-341.65 136.5,-331.65 133,-341.65 140,-341.65"/>
</g>
<!-- &#45;5 -->
<g id="node5" class="node">
<title>&#45;5</title>
<polygon fill="lightgray" stroke="black" points="244.5,-401.19 220.5,-401.19 220.5,-383.19 244.5,-383.19 244.5,-401.19"/>
<text text-anchor="middle" x="232.5" y="-389.99" font-family="Times,serif" font-size="9.00">&#45;5</text>
</g>
<!-- 2 -->
<g id="node14" class="node">
<title>2</title>
<ellipse fill="lightblue" stroke="black" cx="261.5" cy="-306.7" rx="14.7" ry="14.7"/>
<text text-anchor="middle" x="261.5" y="-304.5" font-family="Times,serif" font-size="9.00">2</text>
</g>
<!-- &#45;5&#45;&gt;2 -->
<g id="edge11" class="edge">
<title>&#45;5&#45;&gt;2</title>
<path fill="none" stroke="red" stroke-width="0.2" stroke-dasharray="1,5" d="M235.28,-383.19C239.45,-371.18 247.49,-348.04 253.57,-330.53"/>
<polygon fill="red" stroke="red" stroke-width="0.2" points="256.91,-331.59 256.88,-321 250.29,-329.29 256.91,-331.59"/>
</g>
<!-- 1757 -->
<g id="node23" class="node">
<title>1757</title>
<ellipse fill="white" stroke="black" cx="203.5" cy="-306.7" rx="25" ry="25"/>
<text text-anchor="middle" x="203.5" y="-304.5" font-family="Times,serif" font-size="9.00">1757</text>
</g>
<!-- &#45;5&#45;&gt;1757 -->
<g id="edge5" class="edge">
<title>&#45;5&#45;&gt;1757</title>
<path fill="none" stroke="green" stroke-width="0.66" stroke-dasharray="1,5" d="M229.72,-383.19C226.24,-373.18 220.09,-355.45 214.61,-339.69"/>
<polygon fill="green" stroke="green" stroke-width="0.66" points="217.91,-338.52 211.32,-330.22 211.3,-340.81 217.91,-338.52"/>
</g>
<!-- &#45;6 -->
<g id="node6" class="node">
<title>&#45;6</title>
<polygon fill="lightgray" stroke="black" points="534.5,-401.19 510.5,-401.19 510.5,-383.19 534.5,-383.19 534.5,-401.19"/>
<text text-anchor="middle" x="522.5" y="-389.99" font-family="Times,serif" font-size="9.00">&#45;6</text>
</g>
<!-- &#45;7 -->
<g id="node7" class="node">
<title>&#45;7</title>
<polygon fill="lightgray" stroke="black" points="576.5,-401.19 552.5,-401.19 552.5,-383.19 576.5,-383.19 576.5,-401.19"/>
<text text-anchor="middle" x="564.5" y="-389.99" font-family="Times,serif" font-size="9.00">&#45;7</text>
</g>
<!-- &#45;8 -->
<g id="node8" class="node">
<title>&#45;8</title>
<polygon fill="lightgray" stroke="black" points="492.5,-401.19 468.5,-401.19 468.5,-383.19 492.5,-383.19 492.5,-401.19"/>
<text text-anchor="middle" x="480.5" y="-389.99" font-family="Times,serif" font-size="9.00">&#45;8</text>
</g>
<!-- 1920 -->
<g id="node17" class="node">
<title>1920</title>
<ellipse fill="white" stroke="black" cx="480.5" cy="-306.7" rx="25" ry="25"/>
<text text-anchor="middle" x="480.5" y="-304.5" font-family="Times,serif" font-size="9.00">1920</text>
</g>
<!-- &#45;8&#45;&gt;1920 -->
<g id="edge8" class="edge">
<title>&#45;8&#45;&gt;1920</title>
<path fill="none" stroke="green" stroke-width="0.25" d="M480.5,-383.19C480.5,-373.64 480.5,-357.05 480.5,-341.85"/>
<polygon fill="green" stroke="green" stroke-width="0.25" points="484,-341.65 480.5,-331.65 477,-341.65 484,-341.65"/>
</g>
<!-- 1235 -->
<g id="node22" class="node">
<title>1235</title>
<ellipse fill="white" stroke="black" cx="571.5" cy="-135.7" rx="25" ry="25"/>
<text text-anchor="middle" x="571.5" y="-133.5" font-family="Times,serif" font-size="9.00">1235</text>
</g>
<!-- &#45;8&#45;&gt;1235 -->
<g id="edge12" class="edge">
<title>&#45;8&#45;&gt;1235</title>
<path fill="none" stroke="red" stroke-width="0.17" stroke-dasharray="1,5" d="M485.28,-383.16C492,-371.77 504.56,-350.22 514.5,-331.45 534.31,-294.03 544.13,-286.44 556.5,-245.95 564,-221.4 567.76,-192.61 569.64,-170.74"/>
<polygon fill="red" stroke="red" stroke-width="0.17" points="573.14,-170.85 570.42,-160.61 566.16,-170.32 573.14,-170.85"/>
</g>
<!-- 1377 -->
<g id="node24" class="node">
<title>1377</title>
<ellipse fill="white" stroke="black" cx="413.5" cy="-306.7" rx="25" ry="25"/>
<text text-anchor="middle" x="413.5" y="-304.5" font-family="Times,serif" font-size="9.00">1377</text>
</g>
<!-- &#45;8&#45;&gt;1377 -->
<g id="edge13" class="edge">
<title>&#45;8&#45;&gt;1377</title>
<path fill="none" stroke="red" stroke-width="0.41" d="M474.08,-383.19C465.12,-372.03 448.47,-351.28 434.89,-334.35"/>
<polygon fill="red" stroke="red" stroke-width="0.41" points="437.5,-332.02 428.51,-326.41 432.04,-336.4 437.5,-332.02"/>
</g>
<!-- &#45;9 -->
<g id="node9" class="node">
<title>&#45;9</title>
<polygon fill="lightgray" stroke="black" points="547.5,-230.2 523.5,-230.2 523.5,-212.2 547.5,-212.2 547.5,-230.2"/>
<text text-anchor="middle" x="535.5" y="-219" font-family="Times,serif" font-size="9.00">&#45;9</text>
</g>
<!-- 1668 -->
<g id="node16" class="node">
<title>1668</title>
<ellipse fill="white" stroke="black" cx="492.5" cy="-135.7" rx="25" ry="25"/>
<text text-anchor="middle" x="492.5" y="-133.5" font-family="Times,serif" font-size="9.00">1668</text>
</g>
<!-- &#45;9&#45;&gt;1668 -->
<g id="edge19" class="edge">
<title>&#45;9&#45;&gt;1668</title>
<path fill="none" stroke="red" stroke-width="0.25" d="M531.38,-212.19C526.07,-201.89 516.54,-183.39 508.25,-167.29"/>
<polygon fill="red" stroke="red" stroke-width="0.25" points="511.24,-165.45 503.55,-158.16 505.02,-168.66 511.24,-165.45"/>
</g>
<!-- &#45;10 -->
<g id="node10" class="node">
<title>&#45;10</title>
<polygon fill="lightgray" stroke="black" points="308,-401.19 279,-401.19 279,-383.19 308,-383.19 308,-401.19"/>
<text text-anchor="middle" x="293.5" y="-389.99" font-family="Times,serif" font-size="9.00">&#45;10</text>
</g>
<!-- 1 -->
<g id="node13" class="node">
<title>1</title>
<ellipse fill="lightblue" stroke="black" cx="309.5" cy="-306.7" rx="14.7" ry="14.7"/>
<text text-anchor="middle" x="309.5" y="-304.5" font-family="Times,serif" font-size="9.00">1</text>
</g>
<!-- &#45;10&#45;&gt;1 -->
<g id="edge1" class="edge">
<title>&#45;10&#45;&gt;1</title>
<path fill="none" stroke="red" stroke-width="4.84" d="M295.03,-383.19C297.29,-371.43 301.59,-348.99 304.92,-331.62"/>
<polygon fill="red" stroke="red" stroke-width="4.84" points="309.11,-332.22 306.84,-321.6 300.79,-330.62 309.11,-332.22"/>
</g>
<!-- &#45;10&#45;&gt;2 -->
<g id="edge2" class="edge">
<title>&#45;10&#45;&gt;2</title>
<path fill="none" stroke="red" stroke-width="2.05" d="M290.43,-383.19C285.8,-371.11 276.86,-347.78 270.14,-330.23"/>
<polygon fill="red" stroke="red" stroke-width="2.05" points="273.33,-328.78 266.48,-320.7 266.79,-331.29 273.33,-328.78"/>
</g>
<!-- &#45;11 -->
<g id="node11" class="node">
<title>&#45;11</title>
<polygon fill="lightgray" stroke="black" points="371,-315.7 342,-315.7 342,-297.7 371,-297.7 371,-315.7"/>
<text text-anchor="middle" x="356.5" y="-304.5" font-family="Times,serif" font-size="9.00">&#45;11</text>
</g>
<!-- 1789 -->
<g id="node30" class="node">
<title>1789</title>
<ellipse fill="white" stroke="black" cx="356.5" cy="-221.2" rx="25" ry="25"/>
<text text-anchor="middle" x="356.5" y="-219" font-family="Times,serif" font-size="9.00">1789</text>
</g>
<!-- &#45;11&#45;&gt;1789 -->
<g id="edge10" class="edge">
<title>&#45;11&#45;&gt;1789</title>
<path fill="none" stroke="green" stroke-width="0.12" stroke-dasharray="1,5" d="M356.5,-297.69C356.5,-288.14 356.5,-271.55 356.5,-256.35"/>
<polygon fill="green" stroke="green" stroke-width="0.12" points="360,-256.15 356.5,-246.15 353,-256.15 360,-256.15"/>
</g>
<!-- A XOR B -->
<g id="node12" class="node">
<title>A XOR B</title>
<ellipse fill="lightblue" stroke="black" cx="568.5" cy="-37.48" rx="37.45" ry="37.45"/>
<text text-anchor="middle" x="568.5" y="-35.28" font-family="Times,serif" font-size="9.00">A XOR B</text>
</g>
<!-- 1&#45;&gt;1789 -->
<g id="edge17" class="edge">
<title>1&#45;&gt;1789</title>
<path fill="none" stroke="green" stroke-width="0.12" d="M316.44,-293.38C322.51,-282.59 331.59,-266.46 339.57,-252.28"/>
<polygon fill="green" stroke="green" stroke-width="0.12" points="342.76,-253.75 344.61,-243.32 336.66,-250.32 342.76,-253.75"/>
</g>
<!-- 3 -->
<g id="node15" class="node">
<title>3</title>
<ellipse fill="lightblue" stroke="black" cx="492.5" cy="-37.48" rx="14.7" ry="14.7"/>
<text text-anchor="middle" x="492.5" y="-35.28" font-family="Times,serif" font-size="9.00">3</text>
</g>
<!-- 1668&#45;&gt;A XOR B -->
<g id="edge16" class="edge">
<title>1668&#45;&gt;A XOR B</title>
<path fill="none" stroke="green" stroke-width="0.43" d="M507.52,-115.69C516.63,-104.15 528.57,-89.04 539.46,-75.24"/>
<polygon fill="green" stroke="green" stroke-width="0.43" points="542.27,-77.33 545.73,-67.31 536.78,-72.99 542.27,-77.33"/>
</g>
<!-- 1668&#45;&gt;3 -->
<g id="edge4" class="edge">
<title>1668&#45;&gt;3</title>
<path fill="none" stroke="red" stroke-width="0.18" d="M492.5,-110.92C492.5,-96.28 492.5,-77.57 492.5,-62.83"/>
<polygon fill="red" stroke="red" stroke-width="0.18" points="496,-62.47 492.5,-52.47 489,-62.47 496,-62.47"/>
</g>
<!-- 1920&#45;&gt;1668 -->
<g id="edge6" class="edge">
<title>1920&#45;&gt;1668</title>
<path fill="none" stroke="green" stroke-width="0.21" d="M466.08,-286.37C458.64,-275.19 450.35,-260.49 446.5,-245.95 440.87,-224.68 439.41,-217.28 446.5,-196.45 450.89,-183.54 459.33,-171.25 467.78,-161.2"/>
<polygon fill="green" stroke="green" stroke-width="0.21" points="470.46,-163.46 474.5,-153.66 465.23,-158.81 470.46,-163.46"/>
</g>
<!-- 2797 -->
<g id="node29" class="node">
<title>2797</title>
<ellipse fill="white" stroke="black" cx="480.5" cy="-221.2" rx="25" ry="25"/>
<text text-anchor="middle" x="480.5" y="-219" font-family="Times,serif" font-size="9.00">2797</text>
</g>
<!-- 1920&#45;&gt;2797 -->
<g id="edge22" class="edge">
<title>1920&#45;&gt;2797</title>
<path fill="none" stroke="red" stroke-width="0.2" d="M480.5,-281.55C480.5,-273.6 480.5,-264.62 480.5,-256.09"/>
<polygon fill="red" stroke="red" stroke-width="0.2" points="484,-256.01 480.5,-246.01 477,-256.01 484,-256.01"/>
</g>
<!-- 2071 -->
<g id="node18" class="node">
<title>2071</title>
<ellipse fill="white" stroke="black" cx="619.5" cy="-392.19" rx="25" ry="25"/>
<text text-anchor="middle" x="619.5" y="-389.99" font-family="Times,serif" font-size="9.00">2071</text>
</g>
<!-- 1506 -->
<g id="node25" class="node">
<title>1506</title>
<ellipse fill="white" stroke="black" cx="686.5" cy="-306.7" rx="25" ry="25"/>
<text text-anchor="middle" x="686.5" y="-304.5" font-family="Times,serif" font-size="9.00">1506</text>
</g>
<!-- 2071&#45;&gt;1506 -->
<g id="edge18" class="edge">
<title>2071&#45;&gt;1506</title>
<path fill="none" stroke="green" stroke-width="0.29" stroke-dasharray="1,5" d="M634.7,-372.25C643.61,-361.14 655.01,-346.94 664.85,-334.68"/>
<polygon fill="green" stroke="green" stroke-width="0.29" points="667.83,-336.56 671.36,-326.57 662.37,-332.18 667.83,-336.56"/>
</g>
<!-- 2086 -->
<g id="node19" class="node">
<title>2086</title>
<ellipse fill="white" stroke="black" cx="820.5" cy="-392.19" rx="25" ry="25"/>
<text text-anchor="middle" x="820.5" y="-389.99" font-family="Times,serif" font-size="9.00">2086</text>
</g>
<!-- 2111 -->
<g id="node20" class="node">
<title>2111</title>
<ellipse fill="white" stroke="black" cx="686.5" cy="-392.19" rx="25" ry="25"/>
<text text-anchor="middle" x="686.5" y="-389.99" font-family="Times,serif" font-size="9.00">2111</text>
</g>
<!-- 2111&#45;&gt;1506 -->
<g id="edge9" class="edge">
<title>2111&#45;&gt;1506</title>
<path fill="none" stroke="red" stroke-width="0.15" stroke-dasharray="1,5" d="M686.5,-367.04C686.5,-359.1 686.5,-350.11 686.5,-341.58"/>
<polygon fill="red" stroke="red" stroke-width="0.15" points="690,-341.51 686.5,-331.51 683,-341.51 690,-341.51"/>
</g>
<!-- 1616 -->
<g id="node21" class="node">
<title>1616</title>
<ellipse fill="white" stroke="black" cx="644.5" cy="-135.7" rx="25" ry="25"/>
<text text-anchor="middle" x="644.5" y="-133.5" font-family="Times,serif" font-size="9.00">1616</text>
</g>
<!-- 1616&#45;&gt;A XOR B -->
<g id="edge7" class="edge">
<title>1616&#45;&gt;A XOR B</title>
<path fill="none" stroke="red" stroke-width="0.19" d="M629.48,-115.69C620.37,-104.15 608.43,-89.04 597.54,-75.24"/>
<polygon fill="red" stroke="red" stroke-width="0.19" points="600.22,-72.99 591.27,-67.31 594.73,-77.33 600.22,-72.99"/>
</g>
<!-- 2017 -->
<g id="node26" class="node">
<title>2017</title>
<ellipse fill="white" stroke="black" cx="648.5" cy="-37.48" rx="25" ry="25"/>
<text text-anchor="middle" x="648.5" y="-35.28" font-family="Times,serif" font-size="9.00">2017</text>
</g>
<!-- 1616&#45;&gt;2017 -->
<g id="edge20" class="edge">
<title>1616&#45;&gt;2017</title>
<path fill="none" stroke="green" stroke-width="0.48" d="M645.49,-110.92C645.97,-99.35 646.56,-85.24 647.08,-72.55"/>
<polygon fill="green" stroke="green" stroke-width="0.48" points="650.59,-72.46 647.51,-62.32 643.6,-72.17 650.59,-72.46"/>
</g>
<!-- 1235&#45;&gt;A XOR B -->
<g id="edge3" class="edge">
<title>1235&#45;&gt;A XOR B</title>
<path fill="none" stroke="red" stroke-width="0.18" d="M570.76,-110.92C570.51,-103.07 570.23,-94.06 569.95,-85.11"/>
<polygon fill="red" stroke="red" stroke-width="0.18" points="573.45,-84.99 569.64,-75.1 566.46,-85.21 573.45,-84.99"/>
</g>
<!-- 1377&#45;&gt;1789 -->
<g id="edge15" class="edge">
<title>1377&#45;&gt;1789</title>
<path fill="none" stroke="red" stroke-width="0.3" stroke-dasharray="1,5" d="M399.99,-285.91C392.8,-275.38 383.84,-262.24 375.92,-250.64"/>
<polygon fill="red" stroke="red" stroke-width="0.3" points="378.64,-248.42 370.11,-242.13 372.86,-252.37 378.64,-248.42"/>
</g>
<!-- 2411 -->
<g id="node28" class="node">
<title>2411</title>
<ellipse fill="white" stroke="black" cx="753.5" cy="-392.19" rx="25" ry="25"/>
<text text-anchor="middle" x="753.5" y="-389.99" font-family="Times,serif" font-size="9.00">2411</text>
</g>
<!-- 2411&#45;&gt;1506 -->
<g id="edge14" class="edge">
<title>2411&#45;&gt;1506</title>
<path fill="none" stroke="green" stroke-width="0.36" d="M738.3,-372.25C729.39,-361.14 717.99,-346.94 708.15,-334.68"/>
<polygon fill="green" stroke="green" stroke-width="0.36" points="710.63,-332.18 701.64,-326.57 705.17,-336.56 710.63,-332.18"/>
</g>
<!-- 2797&#45;&gt;1668 -->
<g id="edge23" class="edge">
<title>2797&#45;&gt;1668</title>
<path fill="none" stroke="red" stroke-width="0.31" d="M483.91,-196.5C485.07,-188.39 486.4,-179.15 487.66,-170.41"/>
<polygon fill="red" stroke="red" stroke-width="0.31" points="491.13,-170.86 489.08,-160.47 484.2,-169.87 491.13,-170.86"/>
</g>
</g>
</svg>
