<?xml version="1.0" encoding="utf-8" standalone="no"?>
<!DOCTYPE svg PUBLIC "-//W3C//DTD SVG 1.1//EN"
  "http://www.w3.org/Graphics/SVG/1.1/DTD/svg11.dtd">
<svg xmlns:xlink="http://www.w3.org/1999/xlink" width="460.8pt" height="345.6pt" viewBox="0 0 460.8 345.6" xmlns="http://www.w3.org/2000/svg" version="1.1">
 <metadata>
  <rdf:RDF xmlns:dc="http://purl.org/dc/elements/1.1/" xmlns:cc="http://creativecommons.org/ns#" xmlns:rdf="http://www.w3.org/1999/02/22-rdf-syntax-ns#">
   <cc:Work>
    <dc:type rdf:resource="http://purl.org/dc/dcmitype/StillImage"/>
    <dc:date>2022-12-07T00:18:42.129840</dc:date>
    <dc:format>image/svg+xml</dc:format>
    <dc:creator>
     <cc:Agent>
      <dc:title>Matplotlib v3.5.3, https://matplotlib.org/</dc:title>
     </cc:Agent>
    </dc:creator>
   </cc:Work>
  </rdf:RDF>
 </metadata>
 <defs>
  <style type="text/css">*{stroke-linejoin: round; stroke-linecap: butt}</style>
 </defs>
 <g id="figure_1">
  <g id="patch_1">
   <path d="M 0 345.6 
L 460.8 345.6 
L 460.8 0 
L 0 0 
z
" style="fill: #ffffff"/>
  </g>
  <g id="axes_1">
   <g id="patch_2">
    <path d="M 57.6 307.584 
L 414.72 307.584 
L 414.72 41.472 
L 57.6 41.472 
z
" style="fill: #ffffff"/>
   </g>
   <g id="matplotlib.axis_1">
    <g id="xtick_1">
     <g id="line2d_1">
      <path d="M 73.832727 307.584 
L 73.832727 41.472 
" clip-path="url(#p5005e94ef2)" style="fill: none; stroke: #b0b0b0; stroke-width: 0.8; stroke-linecap: square"/>
     </g>
     <g id="line2d_2">
      <defs>
       <path id="m9e46d3f1a1" d="M 0 0 
L 0 3.5 
" style="stroke: #000000; stroke-width: 0.8"/>
      </defs>
      <g>
       <use xlink:href="#m9e46d3f1a1" x="73.832727" y="307.584" style="stroke: #000000; stroke-width: 0.8"/>
      </g>
     </g>
     <g id="text_1">
      <!-- 0 -->
      <g transform="translate(70.651477 322.182437)scale(0.1 -0.1)">
       <defs>
        <path id="DejaVuSans-30" d="M 2034 4250 
Q 1547 4250 1301 3770 
Q 1056 3291 1056 2328 
Q 1056 1369 1301 889 
Q 1547 409 2034 409 
Q 2525 409 2770 889 
Q 3016 1369 3016 2328 
Q 3016 3291 2770 3770 
Q 2525 4250 2034 4250 
z
M 2034 4750 
Q 2819 4750 3233 4129 
Q 3647 3509 3647 2328 
Q 3647 1150 3233 529 
Q 2819 -91 2034 -91 
Q 1250 -91 836 529 
Q 422 1150 422 2328 
Q 422 3509 836 4129 
Q 1250 4750 2034 4750 
z
" transform="scale(0.015625)"/>
       </defs>
       <use xlink:href="#DejaVuSans-30"/>
      </g>
     </g>
    </g>
    <g id="xtick_2">
     <g id="line2d_3">
      <path d="M 142.325247 307.584 
L 142.325247 41.472 
" clip-path="url(#p5005e94ef2)" style="fill: none; stroke: #b0b0b0; stroke-width: 0.8; stroke-linecap: square"/>
     </g>
     <g id="line2d_4">
      <g>
       <use xlink:href="#m9e46d3f1a1" x="142.325247" y="307.584" style="stroke: #000000; stroke-width: 0.8"/>
      </g>
     </g>
     <g id="text_2">
      <!-- 50 -->
      <g transform="translate(135.962747 322.182437)scale(0.1 -0.1)">
       <defs>
        <path id="DejaVuSans-35" d="M 691 4666 
L 3169 4666 
L 3169 4134 
L 1269 4134 
L 1269 2991 
Q 1406 3038 1543 3061 
Q 1681 3084 1819 3084 
Q 2600 3084 3056 2656 
Q 3513 2228 3513 1497 
Q 3513 744 3044 326 
Q 2575 -91 1722 -91 
Q 1428 -91 1123 -41 
Q 819 9 494 109 
L 494 744 
Q 775 591 1075 516 
Q 1375 441 1709 441 
Q 2250 441 2565 725 
Q 2881 1009 2881 1497 
Q 2881 1984 2565 2268 
Q 2250 2553 1709 2553 
Q 1456 2553 1204 2497 
Q 953 2441 691 2322 
L 691 4666 
z
" transform="scale(0.015625)"/>
       </defs>
       <use xlink:href="#DejaVuSans-35"/>
       <use xlink:href="#DejaVuSans-30" x="63.623047"/>
      </g>
     </g>
    </g>
    <g id="xtick_3">
     <g id="line2d_5">
      <path d="M 210.817768 307.584 
L 210.817768 41.472 
" clip-path="url(#p5005e94ef2)" style="fill: none; stroke: #b0b0b0; stroke-width: 0.8; stroke-linecap: square"/>
     </g>
     <g id="line2d_6">
      <g>
       <use xlink:href="#m9e46d3f1a1" x="210.817768" y="307.584" style="stroke: #000000; stroke-width: 0.8"/>
      </g>
     </g>
     <g id="text_3">
      <!-- 100 -->
      <g transform="translate(201.274018 322.182437)scale(0.1 -0.1)">
       <defs>
        <path id="DejaVuSans-31" d="M 794 531 
L 1825 531 
L 1825 4091 
L 703 3866 
L 703 4441 
L 1819 4666 
L 2450 4666 
L 2450 531 
L 3481 531 
L 3481 0 
L 794 0 
L 794 531 
z
" transform="scale(0.015625)"/>
       </defs>
       <use xlink:href="#DejaVuSans-31"/>
       <use xlink:href="#DejaVuSans-30" x="63.623047"/>
       <use xlink:href="#DejaVuSans-30" x="127.246094"/>
      </g>
     </g>
    </g>
    <g id="xtick_4">
     <g id="line2d_7">
      <path d="M 279.310288 307.584 
L 279.310288 41.472 
" clip-path="url(#p5005e94ef2)" style="fill: none; stroke: #b0b0b0; stroke-width: 0.8; stroke-linecap: square"/>
     </g>
     <g id="line2d_8">
      <g>
       <use xlink:href="#m9e46d3f1a1" x="279.310288" y="307.584" style="stroke: #000000; stroke-width: 0.8"/>
      </g>
     </g>
     <g id="text_4">
      <!-- 150 -->
      <g transform="translate(269.766538 322.182437)scale(0.1 -0.1)">
       <use xlink:href="#DejaVuSans-31"/>
       <use xlink:href="#DejaVuSans-35" x="63.623047"/>
       <use xlink:href="#DejaVuSans-30" x="127.246094"/>
      </g>
     </g>
    </g>
    <g id="xtick_5">
     <g id="line2d_9">
      <path d="M 347.802808 307.584 
L 347.802808 41.472 
" clip-path="url(#p5005e94ef2)" style="fill: none; stroke: #b0b0b0; stroke-width: 0.8; stroke-linecap: square"/>
     </g>
     <g id="line2d_10">
      <g>
       <use xlink:href="#m9e46d3f1a1" x="347.802808" y="307.584" style="stroke: #000000; stroke-width: 0.8"/>
      </g>
     </g>
     <g id="text_5">
      <!-- 200 -->
      <g transform="translate(338.259058 322.182437)scale(0.1 -0.1)">
       <defs>
        <path id="DejaVuSans-32" d="M 1228 531 
L 3431 531 
L 3431 0 
L 469 0 
L 469 531 
Q 828 903 1448 1529 
Q 2069 2156 2228 2338 
Q 2531 2678 2651 2914 
Q 2772 3150 2772 3378 
Q 2772 3750 2511 3984 
Q 2250 4219 1831 4219 
Q 1534 4219 1204 4116 
Q 875 4013 500 3803 
L 500 4441 
Q 881 4594 1212 4672 
Q 1544 4750 1819 4750 
Q 2544 4750 2975 4387 
Q 3406 4025 3406 3419 
Q 3406 3131 3298 2873 
Q 3191 2616 2906 2266 
Q 2828 2175 2409 1742 
Q 1991 1309 1228 531 
z
" transform="scale(0.015625)"/>
       </defs>
       <use xlink:href="#DejaVuSans-32"/>
       <use xlink:href="#DejaVuSans-30" x="63.623047"/>
       <use xlink:href="#DejaVuSans-30" x="127.246094"/>
      </g>
     </g>
    </g>
    <g id="text_6">
     <!-- Generations -->
     <g transform="translate(205.662344 335.860562)scale(0.1 -0.1)">
      <defs>
       <path id="DejaVuSans-47" d="M 3809 666 
L 3809 1919 
L 2778 1919 
L 2778 2438 
L 4434 2438 
L 4434 434 
Q 4069 175 3628 42 
Q 3188 -91 2688 -91 
Q 1594 -91 976 548 
Q 359 1188 359 2328 
Q 359 3472 976 4111 
Q 1594 4750 2688 4750 
Q 3144 4750 3555 4637 
Q 3966 4525 4313 4306 
L 4313 3634 
Q 3963 3931 3569 4081 
Q 3175 4231 2741 4231 
Q 1884 4231 1454 3753 
Q 1025 3275 1025 2328 
Q 1025 1384 1454 906 
Q 1884 428 2741 428 
Q 3075 428 3337 486 
Q 3600 544 3809 666 
z
" transform="scale(0.015625)"/>
       <path id="DejaVuSans-65" d="M 3597 1894 
L 3597 1613 
L 953 1613 
Q 991 1019 1311 708 
Q 1631 397 2203 397 
Q 2534 397 2845 478 
Q 3156 559 3463 722 
L 3463 178 
Q 3153 47 2828 -22 
Q 2503 -91 2169 -91 
Q 1331 -91 842 396 
Q 353 884 353 1716 
Q 353 2575 817 3079 
Q 1281 3584 2069 3584 
Q 2775 3584 3186 3129 
Q 3597 2675 3597 1894 
z
M 3022 2063 
Q 3016 2534 2758 2815 
Q 2500 3097 2075 3097 
Q 1594 3097 1305 2825 
Q 1016 2553 972 2059 
L 3022 2063 
z
" transform="scale(0.015625)"/>
       <path id="DejaVuSans-6e" d="M 3513 2113 
L 3513 0 
L 2938 0 
L 2938 2094 
Q 2938 2591 2744 2837 
Q 2550 3084 2163 3084 
Q 1697 3084 1428 2787 
Q 1159 2491 1159 1978 
L 1159 0 
L 581 0 
L 581 3500 
L 1159 3500 
L 1159 2956 
Q 1366 3272 1645 3428 
Q 1925 3584 2291 3584 
Q 2894 3584 3203 3211 
Q 3513 2838 3513 2113 
z
" transform="scale(0.015625)"/>
       <path id="DejaVuSans-72" d="M 2631 2963 
Q 2534 3019 2420 3045 
Q 2306 3072 2169 3072 
Q 1681 3072 1420 2755 
Q 1159 2438 1159 1844 
L 1159 0 
L 581 0 
L 581 3500 
L 1159 3500 
L 1159 2956 
Q 1341 3275 1631 3429 
Q 1922 3584 2338 3584 
Q 2397 3584 2469 3576 
Q 2541 3569 2628 3553 
L 2631 2963 
z
" transform="scale(0.015625)"/>
       <path id="DejaVuSans-61" d="M 2194 1759 
Q 1497 1759 1228 1600 
Q 959 1441 959 1056 
Q 959 750 1161 570 
Q 1363 391 1709 391 
Q 2188 391 2477 730 
Q 2766 1069 2766 1631 
L 2766 1759 
L 2194 1759 
z
M 3341 1997 
L 3341 0 
L 2766 0 
L 2766 531 
Q 2569 213 2275 61 
Q 1981 -91 1556 -91 
Q 1019 -91 701 211 
Q 384 513 384 1019 
Q 384 1609 779 1909 
Q 1175 2209 1959 2209 
L 2766 2209 
L 2766 2266 
Q 2766 2663 2505 2880 
Q 2244 3097 1772 3097 
Q 1472 3097 1187 3025 
Q 903 2953 641 2809 
L 641 3341 
Q 956 3463 1253 3523 
Q 1550 3584 1831 3584 
Q 2591 3584 2966 3190 
Q 3341 2797 3341 1997 
z
" transform="scale(0.015625)"/>
       <path id="DejaVuSans-74" d="M 1172 4494 
L 1172 3500 
L 2356 3500 
L 2356 3053 
L 1172 3053 
L 1172 1153 
Q 1172 725 1289 603 
Q 1406 481 1766 481 
L 2356 481 
L 2356 0 
L 1766 0 
Q 1100 0 847 248 
Q 594 497 594 1153 
L 594 3053 
L 172 3053 
L 172 3500 
L 594 3500 
L 594 4494 
L 1172 4494 
z
" transform="scale(0.015625)"/>
       <path id="DejaVuSans-69" d="M 603 3500 
L 1178 3500 
L 1178 0 
L 603 0 
L 603 3500 
z
M 603 4863 
L 1178 4863 
L 1178 4134 
L 603 4134 
L 603 4863 
z
" transform="scale(0.015625)"/>
       <path id="DejaVuSans-6f" d="M 1959 3097 
Q 1497 3097 1228 2736 
Q 959 2375 959 1747 
Q 959 1119 1226 758 
Q 1494 397 1959 397 
Q 2419 397 2687 759 
Q 2956 1122 2956 1747 
Q 2956 2369 2687 2733 
Q 2419 3097 1959 3097 
z
M 1959 3584 
Q 2709 3584 3137 3096 
Q 3566 2609 3566 1747 
Q 3566 888 3137 398 
Q 2709 -91 1959 -91 
Q 1206 -91 779 398 
Q 353 888 353 1747 
Q 353 2609 779 3096 
Q 1206 3584 1959 3584 
z
" transform="scale(0.015625)"/>
       <path id="DejaVuSans-73" d="M 2834 3397 
L 2834 2853 
Q 2591 2978 2328 3040 
Q 2066 3103 1784 3103 
Q 1356 3103 1142 2972 
Q 928 2841 928 2578 
Q 928 2378 1081 2264 
Q 1234 2150 1697 2047 
L 1894 2003 
Q 2506 1872 2764 1633 
Q 3022 1394 3022 966 
Q 3022 478 2636 193 
Q 2250 -91 1575 -91 
Q 1294 -91 989 -36 
Q 684 19 347 128 
L 347 722 
Q 666 556 975 473 
Q 1284 391 1588 391 
Q 1994 391 2212 530 
Q 2431 669 2431 922 
Q 2431 1156 2273 1281 
Q 2116 1406 1581 1522 
L 1381 1569 
Q 847 1681 609 1914 
Q 372 2147 372 2553 
Q 372 3047 722 3315 
Q 1072 3584 1716 3584 
Q 2034 3584 2315 3537 
Q 2597 3491 2834 3397 
z
" transform="scale(0.015625)"/>
      </defs>
      <use xlink:href="#DejaVuSans-47"/>
      <use xlink:href="#DejaVuSans-65" x="77.490234"/>
      <use xlink:href="#DejaVuSans-6e" x="139.013672"/>
      <use xlink:href="#DejaVuSans-65" x="202.392578"/>
      <use xlink:href="#DejaVuSans-72" x="263.916016"/>
      <use xlink:href="#DejaVuSans-61" x="305.029297"/>
      <use xlink:href="#DejaVuSans-74" x="366.308594"/>
      <use xlink:href="#DejaVuSans-69" x="405.517578"/>
      <use xlink:href="#DejaVuSans-6f" x="433.300781"/>
      <use xlink:href="#DejaVuSans-6e" x="494.482422"/>
      <use xlink:href="#DejaVuSans-73" x="557.861328"/>
     </g>
    </g>
   </g>
   <g id="matplotlib.axis_2">
    <g id="ytick_1">
     <g id="line2d_11">
      <path d="M 57.6 248.623227 
L 414.72 248.623227 
" clip-path="url(#p5005e94ef2)" style="fill: none; stroke: #b0b0b0; stroke-width: 0.8; stroke-linecap: square"/>
     </g>
     <g id="line2d_12">
      <defs>
       <path id="m95d257946b" d="M 0 0 
L -3.5 0 
" style="stroke: #000000; stroke-width: 0.8"/>
      </defs>
      <g>
       <use xlink:href="#m95d257946b" x="57.6" y="248.623227" style="stroke: #000000; stroke-width: 0.8"/>
      </g>
     </g>
     <g id="text_7">
      <!-- $\mathdefault{0}$ -->
      <g transform="translate(44.2 252.422445)scale(0.1 -0.1)">
       <use xlink:href="#DejaVuSans-30" transform="translate(0 0.78125)"/>
      </g>
     </g>
    </g>
    <g id="ytick_2">
     <g id="line2d_13">
      <path d="M 57.6 197.501163 
L 414.72 197.501163 
" clip-path="url(#p5005e94ef2)" style="fill: none; stroke: #b0b0b0; stroke-width: 0.8; stroke-linecap: square"/>
     </g>
     <g id="line2d_14">
      <g>
       <use xlink:href="#m95d257946b" x="57.6" y="197.501163" style="stroke: #000000; stroke-width: 0.8"/>
      </g>
     </g>
     <g id="text_8">
      <!-- $\mathdefault{10^{0}}$ -->
      <g transform="translate(33 201.300382)scale(0.1 -0.1)">
       <use xlink:href="#DejaVuSans-31" transform="translate(0 0.765625)"/>
       <use xlink:href="#DejaVuSans-30" transform="translate(63.623047 0.765625)"/>
       <use xlink:href="#DejaVuSans-30" transform="translate(128.203125 39.046875)scale(0.7)"/>
      </g>
     </g>
    </g>
    <g id="ytick_3">
     <g id="line2d_15">
      <path d="M 57.6 82.06008 
L 414.72 82.06008 
" clip-path="url(#p5005e94ef2)" style="fill: none; stroke: #b0b0b0; stroke-width: 0.8; stroke-linecap: square"/>
     </g>
     <g id="line2d_16">
      <g>
       <use xlink:href="#m95d257946b" x="57.6" y="82.06008" style="stroke: #000000; stroke-width: 0.8"/>
      </g>
     </g>
     <g id="text_9">
      <!-- $\mathdefault{10^{1}}$ -->
      <g transform="translate(33 85.859298)scale(0.1 -0.1)">
       <use xlink:href="#DejaVuSans-31" transform="translate(0 0.684375)"/>
       <use xlink:href="#DejaVuSans-30" transform="translate(63.623047 0.684375)"/>
       <use xlink:href="#DejaVuSans-31" transform="translate(128.203125 38.965625)scale(0.7)"/>
      </g>
     </g>
    </g>
    <g id="text_10">
     <!-- Fitness -->
     <g transform="translate(26.920312 191.845187)rotate(-90)scale(0.1 -0.1)">
      <defs>
       <path id="DejaVuSans-46" d="M 628 4666 
L 3309 4666 
L 3309 4134 
L 1259 4134 
L 1259 2759 
L 3109 2759 
L 3109 2228 
L 1259 2228 
L 1259 0 
L 628 0 
L 628 4666 
z
" transform="scale(0.015625)"/>
      </defs>
      <use xlink:href="#DejaVuSans-46"/>
      <use xlink:href="#DejaVuSans-69" x="50.269531"/>
      <use xlink:href="#DejaVuSans-74" x="78.052734"/>
      <use xlink:href="#DejaVuSans-6e" x="117.261719"/>
      <use xlink:href="#DejaVuSans-65" x="180.640625"/>
      <use xlink:href="#DejaVuSans-73" x="242.164062"/>
      <use xlink:href="#DejaVuSans-73" x="294.263672"/>
     </g>
    </g>
   </g>
   <g id="line2d_17">
    <path d="M 73.832727 191.059783 
L 75.202578 189.832854 
L 76.572428 187.992459 
L 77.942278 184.925135 
L 79.312129 185.947577 
L 80.681979 183.902694 
L 82.05183 182.982497 
L 84.79153 181.857812 
L 86.161381 169.690761 
L 87.531231 173.576037 
L 88.901082 170.508714 
L 90.270932 168.770563 
L 91.640783 168.157099 
L 93.010633 165.600995 
L 94.380483 168.463831 
L 95.750334 169.895249 
L 97.120184 164.885287 
L 98.490035 164.47631 
L 99.859885 166.623437 
L 101.229735 162.73816 
L 102.599586 167.543634 
L 103.969436 174.087258 
L 105.339287 169.486272 
L 106.709137 161.102254 
L 108.078987 165.294263 
L 109.448838 159.057371 
L 110.818688 156.501268 
L 112.188539 153.536188 
L 113.558389 146.021036 
L 114.928239 143.266469 
L 116.29809 143.749981 
L 117.66794 141.318396 
L 119.037791 143.155715 
L 120.407641 143.451743 
L 121.777491 142.100628 
L 123.147342 141.850071 
L 124.517192 148.321738 
L 125.887043 141.707598 
L 127.256893 142.606504 
L 128.626743 144.620024 
L 129.996594 143.862396 
L 131.366444 140.863264 
L 132.736295 143.787418 
L 134.106145 140.275807 
L 135.475995 139.629297 
L 136.845846 145.004293 
L 138.215696 139.934235 
L 139.585547 136.420114 
L 140.955397 141.672059 
L 142.325247 142.316648 
L 143.695098 137.143031 
L 145.064948 143.600584 
L 146.434799 140.898091 
L 147.804649 136.264673 
L 149.174499 135.83263 
L 150.54435 139.528166 
L 151.9142 136.01722 
L 153.284051 138.366832 
L 154.653901 135.986395 
L 156.023751 142.788737 
L 157.393602 143.600584 
L 158.763452 143.637881 
L 160.133303 143.303455 
L 161.503153 145.744743 
L 162.873003 138.86042 
L 164.242854 139.159526 
L 165.612704 137.750247 
L 166.982555 142.861863 
L 168.352405 135.283921 
L 169.722255 137.557496 
L 171.092106 136.202666 
L 172.461956 134.17914 
L 173.831807 144.696583 
L 175.201657 141.037702 
L 176.571507 131.146057 
L 177.941358 132.141054 
L 179.311208 140.0364 
L 180.681059 136.482459 
L 182.050909 134.326662 
L 183.420759 138.236232 
L 184.79061 129.279503 
L 186.16046 139.293183 
L 187.530311 134.120283 
L 188.900161 138.268842 
L 190.270012 132.029268 
L 191.639862 132.421896 
L 193.009712 127.821467 
L 194.379563 132.197065 
L 195.749413 134.862296 
L 197.119264 131.200689 
L 198.489114 129.462284 
L 199.858964 139.259727 
L 201.228815 132.478302 
L 202.598665 129.488464 
L 203.968516 129.909692 
L 205.338366 133.856496 
L 206.708216 127.546114 
L 208.078067 127.025649 
L 209.447917 123.832533 
L 210.817768 133.97352 
L 212.187618 133.190178 
L 213.557468 129.149455 
L 214.927319 130.711665 
L 216.297169 129.175431 
L 217.66702 123.044714 
L 219.03687 125.055888 
L 220.40672 126.269525 
L 221.776571 126.902722 
L 223.146421 124.962241 
L 224.516272 136.482459 
L 225.886122 127.621022 
L 227.255972 120.351452 
L 228.625823 128.761832 
L 229.995673 125.836962 
L 231.365524 121.51419 
L 232.735374 129.331641 
L 234.105224 125.361764 
L 235.475075 118.044048 
L 236.844925 122.032364 
L 238.214776 138.893544 
L 239.584626 124.060507 
L 242.324327 118.538777 
L 243.694177 124.752336 
L 245.064028 132.81842 
L 246.433878 136.202666 
L 247.803728 134.712787 
L 249.173579 133.798112 
L 250.543429 132.563061 
L 251.91328 131.945632 
L 254.65298 114.167222 
L 256.022831 130.792755 
L 257.392681 131.862172 
L 258.762532 130.201884 
L 260.132382 132.93244 
L 261.502232 130.201884 
L 262.872083 123.268225 
L 264.241933 133.856496 
L 265.611784 123.855272 
L 266.981634 121.988926 
L 268.351484 114.778739 
L 269.721335 117.828293 
L 271.091185 135.10268 
L 272.461036 130.175232 
L 273.830886 120.939163 
L 275.200736 119.404304 
L 276.570587 126.197105 
L 277.940437 127.696071 
L 279.310288 120.623244 
L 280.680138 131.228034 
L 282.049988 133.276462 
L 283.419839 138.268842 
L 284.789689 131.310179 
L 286.15954 131.806628 
L 287.52939 133.623471 
L 288.899241 128.607829 
L 290.269091 122.557346 
L 291.638941 125.646204 
L 293.008792 123.900789 
L 294.378642 132.81842 
L 295.748493 120.602271 
L 297.118343 134.415437 
L 298.488193 136.544903 
L 299.858044 139.494512 
L 301.227894 133.305264 
L 302.597745 128.276179 
L 303.967595 123.741707 
L 305.337445 122.579371 
L 306.707296 126.317878 
L 308.077146 121.172436 
L 309.446997 124.174983 
L 310.816847 124.798886 
L 312.186697 113.547343 
L 313.556548 113.127774 
L 314.926398 123.35798 
L 316.296249 119.669709 
L 317.666099 112.489446 
L 319.035949 119.363629 
L 320.4058 132.029268 
L 321.77565 121.045027 
L 323.145501 118.51887 
L 324.515351 120.875779 
L 325.885201 121.90219 
L 327.255052 116.91933 
L 328.624902 116.444132 
L 329.994753 113.918116 
L 331.364603 116.105455 
L 332.734453 119.445021 
L 334.104304 115.124589 
L 335.474154 133.018168 
L 336.844005 125.173256 
L 338.213855 125.598656 
L 339.583705 125.836962 
L 340.953556 112.284591 
L 342.323406 121.47131 
L 343.693257 109.474066 
L 345.063107 132.989571 
L 346.432957 134.593582 
L 347.802808 123.525269 
L 349.172658 121.70941 
L 350.542509 116.207677 
L 351.912359 116.747996 
L 353.282209 119.108898 
L 354.65206 126.878182 
L 356.02191 119.429847 
L 357.391761 121.772861 
L 358.761611 127.074927 
L 360.131461 125.101357 
L 361.501312 124.578016 
L 362.871162 117.149447 
L 364.241013 121.330804 
L 365.610863 118.796119 
L 366.980713 121.330804 
L 368.350564 131.889973 
L 369.720414 126.414759 
L 371.090265 115.326195 
L 372.460115 115.921198 
L 373.829965 112.529634 
L 375.199816 116.785704 
L 376.569666 118.498972 
L 377.939517 122.381585 
L 379.309367 127.001034 
L 380.679217 121.257601 
L 382.049068 127.571068 
L 383.418918 125.956649 
L 384.788769 128.58222 
L 386.158619 130.415736 
L 388.89832 117.265005 
L 390.26817 133.276462 
L 391.638021 123.089316 
L 393.007871 119.7928 
L 394.377722 108.969388 
L 395.747572 118.898812 
L 397.117422 118.024386 
L 398.487273 120.875779 
L 398.487273 120.875779 
" clip-path="url(#p5005e94ef2)" style="fill: none; stroke: #0000ff; stroke-width: 1.5; stroke-linecap: square"/>
   </g>
   <g id="line2d_18">
    <path d="M 73.832727 198.766169 
L 75.202578 198.091876 
L 76.572428 197.138024 
L 77.942278 194.953924 
L 79.312129 196.007588 
L 80.681979 194.848548 
L 82.05183 194.700941 
L 83.42168 195.619808 
L 84.79153 197.276348 
L 86.161381 185.894439 
L 87.531231 187.002369 
L 88.901082 190.070236 
L 90.270932 187.564858 
L 91.640783 187.389053 
L 93.010633 190.066201 
L 94.380483 184.611931 
L 95.750334 187.306796 
L 97.120184 184.996215 
L 98.490035 184.699206 
L 99.859885 185.363979 
L 101.229735 185.623493 
L 102.599586 185.690454 
L 103.969436 191.076097 
L 105.339287 189.265689 
L 106.709137 185.633175 
L 108.078987 186.844502 
L 109.448838 185.606216 
L 112.188539 178.244598 
L 113.558389 186.670896 
L 114.928239 193.099439 
L 116.29809 188.040974 
L 117.66794 171.646913 
L 119.037791 177.513982 
L 120.407641 187.21743 
L 121.777491 176.518181 
L 123.147342 179.766129 
L 124.517192 181.13382 
L 125.887043 190.584226 
L 127.256893 190.422102 
L 128.626743 186.395113 
L 129.996594 198.434629 
L 131.366444 173.303497 
L 132.736295 190.799968 
L 134.106145 181.865899 
L 135.475995 183.244092 
L 136.845846 205.605836 
L 138.215696 189.028802 
L 139.585547 188.557797 
L 140.955397 182.035221 
L 142.325247 186.428053 
L 143.695098 170.579164 
L 145.064948 191.173654 
L 146.434799 179.146675 
L 147.804649 172.42376 
L 149.174499 187.523344 
L 150.54435 185.698116 
L 151.9142 212.043807 
L 153.284051 184.334684 
L 154.653901 184.328276 
L 156.023751 191.891297 
L 157.393602 205.618879 
L 158.763452 187.619384 
L 160.133303 196.613099 
L 161.503153 197.142087 
L 162.873003 194.913345 
L 164.242854 198.200264 
L 165.612704 178.781784 
L 166.982555 197.903277 
L 168.352405 193.253944 
L 169.722255 183.270476 
L 171.092106 196.485276 
L 172.461956 189.207859 
L 173.831807 203.209763 
L 175.201657 206.403475 
L 176.571507 196.053815 
L 177.941358 190.852155 
L 179.311208 211.926828 
L 180.681059 204.993294 
L 182.050909 222.931856 
L 183.420759 214.877415 
L 184.79061 197.243161 
L 186.16046 216.277975 
L 187.530311 222.177731 
L 188.900161 204.728956 
L 190.270012 191.307401 
L 191.639862 183.866933 
L 193.009712 204.906689 
L 195.749413 200.1859 
L 197.119264 208.057794 
L 198.489114 193.180748 
L 199.858964 200.575538 
L 201.228815 204.774739 
L 202.598665 210.207171 
L 203.968516 212.103937 
L 205.338366 223.684756 
L 206.708216 220.088111 
L 208.078067 202.586868 
L 209.447917 210.331461 
L 210.817768 226.703146 
L 212.187618 226.979034 
L 213.557468 219.198493 
L 214.927319 237.704364 
L 216.297169 227.945421 
L 217.66702 200.548083 
L 219.03687 223.455193 
L 220.40672 227.097004 
L 221.776571 224.968491 
L 223.146421 217.298623 
L 224.516272 236.268829 
L 225.886122 226.703261 
L 227.255972 211.220716 
L 228.625823 256.647128 
L 229.995673 237.303437 
L 231.365524 222.764385 
L 232.735374 235.213737 
L 234.105224 234.944562 
L 235.475075 235.376425 
L 236.844925 238.763203 
L 238.214776 248.437759 
L 239.584626 231.008689 
L 240.954476 233.813373 
L 242.324327 221.303506 
L 243.694177 212.615329 
L 245.064028 256.016249 
L 246.433878 242.903521 
L 247.803728 241.331837 
L 249.173579 238.011803 
L 250.543429 252.253908 
L 251.91328 245.169694 
L 253.28313 216.640036 
L 254.65298 207.344568 
L 256.022831 251.019856 
L 257.392681 239.279041 
L 258.762532 239.637627 
L 260.132382 251.081537 
L 261.502232 259.340788 
L 262.872083 239.831798 
L 264.241933 248.576581 
L 265.611784 262.616231 
L 266.981634 231.328222 
L 268.351484 212.608904 
L 269.721335 220.172594 
L 271.091185 268.640905 
L 272.461036 260.475447 
L 273.830886 242.001867 
L 275.200736 238.95497 
L 276.570587 225.446017 
L 277.940437 247.713176 
L 279.310288 232.050175 
L 280.680138 263.00534 
L 282.049988 276.376831 
L 283.419839 268.971567 
L 284.789689 253.037944 
L 286.15954 249.779582 
L 287.52939 264.459813 
L 288.899241 249.319719 
L 290.269091 222.003586 
L 291.638941 283.176067 
L 293.008792 234.748462 
L 294.378642 265.367135 
L 295.748493 226.343698 
L 297.118343 259.549759 
L 298.488193 239.85851 
L 299.858044 238.638754 
L 301.227894 247.163955 
L 302.597745 257.70379 
L 303.967595 243.176616 
L 305.337445 251.997144 
L 306.707296 243.896439 
L 308.077146 244.19089 
L 309.446997 253.480129 
L 310.816847 234.074287 
L 312.186697 239.899848 
L 313.556548 213.80361 
L 314.926398 234.806991 
L 316.296249 217.125812 
L 317.666099 214.78065 
L 319.035949 236.166298 
L 320.4058 263.537651 
L 321.77565 249.855977 
L 323.145501 234.407874 
L 324.515351 236.90589 
L 325.885201 247.817963 
L 327.255052 245.751862 
L 328.624902 253.333648 
L 329.994753 231.774906 
L 331.364603 249.261546 
L 335.474154 284.333508 
L 336.844005 287.895863 
L 338.213855 286.408007 
L 339.583705 266.006171 
L 340.953556 257.484543 
L 342.323406 267.902786 
L 343.693257 249.930484 
L 345.063107 282.079904 
L 346.432957 272.252175 
L 347.802808 252.153533 
L 349.172658 252.161943 
L 350.542509 236.30846 
L 351.912359 265.312733 
L 353.282209 269.02775 
L 354.65206 256.402295 
L 356.02191 261.682784 
L 357.391761 265.134909 
L 358.761611 248.820785 
L 360.131461 283.662406 
L 361.501312 263.034872 
L 362.871162 279.720292 
L 364.241013 280.049923 
L 365.610863 261.285263 
L 366.980713 258.97219 
L 368.350564 258.954437 
L 369.720414 253.647859 
L 371.090265 234.640388 
L 372.460115 252.017247 
L 373.829965 211.6572 
L 375.199816 220.22971 
L 376.569666 259.797885 
L 377.939517 281.660109 
L 380.679217 250.724753 
L 382.049068 256.357805 
L 383.418918 274.529887 
L 384.788769 272.266295 
L 386.158619 284.388899 
L 387.52847 289.497409 
L 388.89832 286.115274 
L 390.26817 286.694521 
L 391.638021 254.781846 
L 393.007871 281.934191 
L 394.377722 239.473203 
L 395.747572 262.439493 
L 397.117422 267.107823 
L 398.487273 295.488 
L 398.487273 295.488 
" clip-path="url(#p5005e94ef2)" style="fill: none; stroke-dasharray: 9.6,2.4,1.5,2.4; stroke-dashoffset: 0; stroke: #008000; stroke-width: 1.5"/>
   </g>
   <g id="line2d_19">
    <path d="M 73.832727 183.353397 
L 75.202578 181.573831 
L 76.572428 178.846895 
L 77.942278 174.896347 
L 79.312129 175.887565 
L 80.681979 172.956841 
L 82.05183 171.264053 
L 83.42168 169.118257 
L 84.79153 166.439275 
L 86.161381 153.487082 
L 87.531231 160.149705 
L 88.901082 150.947191 
L 91.640783 148.925144 
L 93.010633 144.380492 
L 94.380483 152.315731 
L 95.750334 152.483701 
L 97.120184 145.756734 
L 98.490035 145.556763 
L 99.859885 147.882894 
L 101.229735 143.906313 
L 102.599586 149.396813 
L 103.969436 157.098419 
L 106.709137 142.718479 
L 108.078987 145.362189 
L 109.448838 141.295118 
L 110.818688 140.790353 
L 112.188539 140.047964 
L 113.558389 132.589247 
L 114.928239 127.125526 
L 116.29809 129.033433 
L 117.66794 129.721376 
L 119.037791 130.914288 
L 120.407641 128.828241 
L 121.777491 129.625516 
L 123.147342 128.440582 
L 124.517192 135.835116 
L 125.887043 125.637907 
L 127.256893 126.883993 
L 128.626743 130.674497 
L 129.996594 126.630441 
L 131.366444 128.624884 
L 132.736295 128.391718 
L 134.106145 125.715746 
L 135.475995 124.507477 
L 136.845846 126.384026 
L 138.215696 123.625388 
L 139.585547 119.109749 
L 140.955397 127.627642 
L 142.325247 127.453937 
L 143.695098 123.862346 
L 145.064948 128.045304 
L 146.434799 127.235901 
L 147.804649 122.212484 
L 149.174499 118.550491 
L 150.54435 123.819802 
L 151.9142 114.252371 
L 153.284051 122.55239 
L 154.653901 119.380658 
L 156.023751 126.776926 
L 157.393602 124.627025 
L 158.763452 128.984873 
L 160.133303 126.33447 
L 161.503153 129.423359 
L 162.873003 120.966877 
L 164.242854 120.668633 
L 165.612704 122.913096 
L 166.982555 125.457941 
L 168.352405 116.757889 
L 169.722255 121.690121 
L 171.092106 117.302361 
L 172.461956 116.107568 
L 173.831807 126.564588 
L 175.201657 121.298775 
L 176.571507 111.162305 
L 177.941358 113.250229 
L 179.311208 118.977442 
L 180.681059 116.062818 
L 182.050909 110.52372 
L 183.420759 116.31305 
L 184.79061 108.727572 
L 186.16046 117.271817 
L 187.530311 110.415932 
L 188.900161 118.267075 
L 190.270012 113.033596 
L 191.639862 114.821349 
L 193.009712 105.887507 
L 194.379563 111.361881 
L 195.749413 114.973902 
L 197.119264 109.327538 
L 198.489114 109.573478 
L 199.858964 120.308366 
L 201.228815 111.33993 
L 202.598665 107.037899 
L 203.968516 107.239228 
L 205.338366 109.887436 
L 206.708216 103.487533 
L 208.078067 105.292582 
L 209.447917 100.632856 
L 210.817768 109.543796 
L 212.187618 108.652371 
L 213.557468 105.371706 
L 214.927319 104.479448 
L 216.297169 104.19261 
L 217.66702 100.960963 
L 219.03687 100.349456 
L 221.776571 102.147584 
L 223.146421 101.014498 
L 224.516272 110.712478 
L 225.886122 102.693451 
L 227.255972 96.656014 
L 228.625823 100.064574 
L 229.995673 99.481785 
L 231.365524 96.622596 
L 232.735374 103.379244 
L 234.105224 99.273087 
L 235.475075 91.638148 
L 236.844925 95.393488 
L 238.214776 111.222916 
L 239.584626 98.379359 
L 240.954476 95.064695 
L 242.324327 93.591033 
L 243.694177 101.373212 
L 245.064028 104.101667 
L 246.433878 109.378029 
L 247.803728 108.090727 
L 249.173579 107.640567 
L 250.543429 104.363335 
L 251.91328 104.718064 
L 253.28313 98.699664 
L 254.65298 90.242456 
L 256.022831 102.776197 
L 257.392681 105.452022 
L 258.762532 103.690203 
L 260.132382 104.890043 
L 261.502232 101.127758 
L 262.872083 96.542956 
L 264.241933 106.162466 
L 265.611784 94.627669 
L 266.981634 96.167704 
L 268.351484 90.404749 
L 269.721335 92.94628 
L 271.091185 104.555503 
L 272.461036 100.959419 
L 273.830886 93.929073 
L 275.200736 92.677442 
L 276.570587 101.328001 
L 277.940437 100.10697 
L 279.310288 94.659993 
L 280.680138 101.64837 
L 282.049988 101.847465 
L 283.419839 107.446959 
L 284.789689 103.022068 
L 286.15954 103.949304 
L 287.52939 103.734533 
L 290.269091 97.830942 
L 291.638941 94.115547 
L 293.008792 97.775815 
L 294.378642 102.852457 
L 295.748493 95.25391 
L 297.118343 105.162339 
L 298.488193 110.206421 
L 299.858044 113.471026 
L 301.227894 105.810717 
L 302.597745 99.462929 
L 303.967595 96.649737 
L 305.337445 94.516828 
L 306.707296 99.180314 
L 308.077146 93.935423 
L 309.446997 95.933389 
L 310.816847 98.790478 
L 312.186697 86.603477 
L 313.556548 88.50375 
L 314.926398 97.204646 
L 316.296249 95.255641 
L 317.666099 87.726665 
L 319.035949 92.92082 
L 320.4058 102.343264 
L 321.77565 93.216728 
L 323.145501 92.226229 
L 324.515351 94.403465 
L 325.885201 94.286884 
L 327.255052 89.488038 
L 328.624902 88.310534 
L 329.994753 87.706292 
L 331.364603 88.346319 
L 332.734453 90.508908 
L 334.104304 85.23325 
L 335.474154 100.610244 
L 336.844005 93.195077 
L 338.213855 93.732551 
L 339.583705 96.154417 
L 340.953556 83.852752 
L 342.323406 91.799728 
L 343.693257 81.672039 
L 345.063107 100.865867 
L 346.432957 103.594368 
L 347.802808 95.437011 
L 349.172658 93.637409 
L 350.542509 89.654511 
L 351.912359 87.522819 
L 353.282209 89.441931 
L 354.65206 98.254957 
L 356.02191 90.449507 
L 357.391761 92.365764 
L 358.761611 99.350421 
L 360.131461 93.569445 
L 361.501312 95.277502 
L 362.871162 86.62619 
L 364.241013 90.476265 
L 365.610863 89.873365 
L 366.980713 92.563805 
L 368.350564 102.808366 
L 369.720414 98.122604 
L 371.090265 88.902089 
L 372.460115 87.912156 
L 373.829965 88.052589 
L 375.199816 91.822856 
L 376.569666 89.725746 
L 377.939517 91.287451 
L 379.309367 97.239771 
L 380.679217 93.338461 
L 382.049068 98.937201 
L 383.418918 95.328639 
L 384.788769 98.025978 
L 386.158619 98.282255 
L 387.52847 91.76704 
L 388.89832 86.175835 
L 390.26817 100.545558 
L 393.007871 88.877837 
L 394.377722 81.976179 
L 395.747572 89.863126 
L 397.117422 88.585137 
L 398.487273 88.607985 
L 398.487273 88.607985 
" clip-path="url(#p5005e94ef2)" style="fill: none; stroke-dasharray: 9.6,2.4,1.5,2.4; stroke-dashoffset: 0; stroke: #008000; stroke-width: 1.5"/>
   </g>
   <g id="line2d_20">
    <path d="M 73.832727 166.827925 
L 75.202578 161.715719 
L 76.572428 166.827925 
L 77.942278 156.603512 
L 79.312129 161.715719 
L 82.05183 151.491306 
L 83.42168 142.570157 
L 84.79153 142.570157 
L 86.161381 139.092864 
L 87.531231 142.570157 
L 88.901082 132.93244 
L 90.270932 134.385823 
L 91.640783 131.530062 
L 93.010633 120.728273 
L 94.380483 137.461468 
L 95.750334 139.092864 
L 97.120184 128.864831 
L 98.490035 137.461468 
L 99.859885 125.173256 
L 101.229735 130.175232 
L 102.599586 135.894065 
L 103.969436 134.385823 
L 105.339287 134.385823 
L 106.709137 127.596037 
L 109.448838 125.173256 
L 110.818688 119.690198 
L 112.188539 122.888997 
L 113.558389 107.432135 
L 114.928239 88.55493 
L 116.29809 91.989503 
L 117.66794 108.969388 
L 119.037791 104.524406 
L 120.407641 93.027579 
L 121.777491 104.524406 
L 123.147342 113.971365 
L 124.517192 113.093007 
L 125.887043 96.314114 
L 127.256893 89.50649 
L 128.626743 108.193371 
L 129.996594 91.480405 
L 131.366444 110.568148 
L 132.736295 99.895343 
L 134.106145 99.275739 
L 135.475995 103.829368 
L 136.845846 93.027579 
L 138.215696 99.895343 
L 139.585547 93.027579 
L 140.955397 106.685129 
L 143.695098 106.685129 
L 145.064948 101.813967 
L 146.434799 108.193371 
L 147.804649 103.146212 
L 149.174499 91.480405 
L 150.54435 101.164137 
L 151.9142 76.128674 
L 153.284051 95.747244 
L 154.653901 94.637071 
L 156.023751 98.665595 
L 157.393602 93.556906 
L 158.763452 99.895343 
L 160.133303 96.314114 
L 161.503153 95.747244 
L 162.873003 96.314114 
L 164.242854 90.977711 
L 165.612704 106.685129 
L 166.982555 101.813967 
L 168.352405 90.481262 
L 169.722255 102.474538 
L 171.092106 82.461728 
L 173.831807 99.275739 
L 175.201657 89.027878 
L 176.571507 86.270671 
L 177.941358 96.88914 
L 179.311208 92.505171 
L 180.681059 82.867454 
L 182.050909 86.717197 
L 183.420759 90.977711 
L 184.79061 91.989503 
L 186.16046 81.662428 
L 187.530311 83.691476 
L 188.900161 93.027579 
L 190.270012 90.977711 
L 191.639862 97.472562 
L 193.009712 86.270671 
L 195.749413 89.027878 
L 197.119264 85.392313 
L 198.489114 90.481262 
L 199.858964 93.027579 
L 201.228815 82.867454 
L 203.968516 79.731441 
L 205.338366 86.270671 
L 206.708216 78.251136 
L 208.078067 86.270671 
L 209.447917 82.06008 
L 210.817768 81.662428 
L 212.187618 82.867454 
L 213.557468 80.878802 
L 214.927319 69.479092 
L 216.297169 82.461728 
L 217.66702 79.731441 
L 219.03687 74.442193 
L 221.776571 78.616104 
L 223.146421 80.878802 
L 224.516272 81.662428 
L 227.255972 73.463443 
L 228.625823 67.211042 
L 229.995673 74.113273 
L 231.365524 77.889472 
L 232.735374 78.616104 
L 234.105224 76.474682 
L 235.475075 62.780568 
L 236.844925 68.613419 
L 238.214776 81.268694 
L 239.584626 75.445518 
L 240.954476 67.766102 
L 242.324327 75.10827 
L 243.694177 84.532847 
L 245.064028 72.194649 
L 246.433878 84.109947 
L 247.803728 78.251136 
L 249.173579 76.823711 
L 250.543429 69.771867 
L 251.91328 82.867454 
L 253.28313 80.492677 
L 254.65298 73.463443 
L 256.022831 75.445518 
L 257.392681 82.06008 
L 258.762532 76.128674 
L 260.132382 82.06008 
L 261.502232 78.984435 
L 262.872083 78.984435 
L 264.241933 80.492677 
L 265.611784 72.194649 
L 266.981634 77.531051 
L 268.351484 77.889472 
L 269.721335 76.128674 
L 271.091185 69.771867 
L 272.461036 67.766102 
L 273.830886 69.771867 
L 275.200736 68.328979 
L 276.570587 82.867454 
L 277.940437 67.211042 
L 279.310288 77.889472 
L 280.680138 63.028022 
L 282.049988 66.392645 
L 283.419839 71.883646 
L 284.789689 68.328979 
L 286.15954 71.883646 
L 287.52939 64.033449 
L 288.899241 73.142448 
L 290.269091 79.356193 
L 291.638941 62.29021 
L 293.008792 75.785636 
L 294.378642 70.663287 
L 295.748493 75.785636 
L 297.118343 76.128674 
L 298.488193 83.691476 
L 299.858044 81.662428 
L 301.227894 74.773844 
L 302.597745 73.787037 
L 303.967595 65.326885 
L 305.337445 72.824011 
L 306.707296 73.142448 
L 308.077146 68.899898 
L 309.446997 71.575045 
L 310.816847 80.110246 
L 312.186697 65.590672 
L 313.556548 73.142448 
L 314.926398 72.194649 
L 316.296249 67.487608 
L 317.666099 71.883646 
L 319.035949 67.211042 
L 320.4058 69.479092 
L 321.77565 56.832153 
L 323.145501 70.663287 
L 324.515351 64.545811 
L 325.885201 68.04655 
L 328.624902 65.326885 
L 329.994753 59.24165 
L 331.364603 61.805796 
L 332.734453 61.09001 
L 334.104304 63.527574 
L 335.474154 61.805796 
L 336.844005 60.854236 
L 338.213855 60.854236 
L 339.583705 70.066803 
L 340.953556 57.691619 
L 342.323406 65.590672 
L 343.693257 57.475013 
L 346.432957 69.771867 
L 347.802808 70.663287 
L 349.172658 65.064827 
L 350.542509 64.288809 
L 351.912359 59.468074 
L 353.282209 59.695788 
L 354.65206 72.824011 
L 356.02191 58.569977 
L 357.391761 59.695788 
L 358.761611 68.613419 
L 360.131461 56.199469 
L 361.501312 59.695788 
L 362.871162 59.695788 
L 364.241013 58.792616 
L 365.610863 58.348571 
L 366.980713 64.288809 
L 368.350564 75.785636 
L 369.720414 72.194649 
L 371.090265 63.277017 
L 372.460115 61.565773 
L 373.829965 72.824011 
L 375.199816 76.128674 
L 376.569666 62.29021 
L 377.939517 60.619844 
L 379.309367 60.619844 
L 382.049068 71.883646 
L 383.418918 63.277017 
L 384.788769 62.047269 
L 386.158619 59.695788 
L 387.52847 59.016502 
L 388.89832 57.909405 
L 390.26817 63.779711 
L 391.638021 67.487608 
L 393.007871 59.468074 
L 394.377722 57.691619 
L 395.747572 63.527574 
L 397.117422 68.328979 
L 398.487273 53.568 
L 398.487273 53.568 
" clip-path="url(#p5005e94ef2)" style="fill: none; stroke: #ff0000; stroke-width: 1.5; stroke-linecap: square"/>
   </g>
   <g id="patch_3">
    <path d="M 57.6 307.584 
L 57.6 41.472 
" style="fill: none; stroke: #000000; stroke-width: 0.8; stroke-linejoin: miter; stroke-linecap: square"/>
   </g>
   <g id="patch_4">
    <path d="M 414.72 307.584 
L 414.72 41.472 
" style="fill: none; stroke: #000000; stroke-width: 0.8; stroke-linejoin: miter; stroke-linecap: square"/>
   </g>
   <g id="patch_5">
    <path d="M 57.6 307.584 
L 414.72 307.584 
" style="fill: none; stroke: #000000; stroke-width: 0.8; stroke-linejoin: miter; stroke-linecap: square"/>
   </g>
   <g id="patch_6">
    <path d="M 57.6 41.472 
L 414.72 41.472 
" style="fill: none; stroke: #000000; stroke-width: 0.8; stroke-linejoin: miter; stroke-linecap: square"/>
   </g>
   <g id="text_11">
    <!-- Population's average and best fitness -->
    <g transform="translate(123.529687 35.472)scale(0.12 -0.12)">
     <defs>
      <path id="DejaVuSans-50" d="M 1259 4147 
L 1259 2394 
L 2053 2394 
Q 2494 2394 2734 2622 
Q 2975 2850 2975 3272 
Q 2975 3691 2734 3919 
Q 2494 4147 2053 4147 
L 1259 4147 
z
M 628 4666 
L 2053 4666 
Q 2838 4666 3239 4311 
Q 3641 3956 3641 3272 
Q 3641 2581 3239 2228 
Q 2838 1875 2053 1875 
L 1259 1875 
L 1259 0 
L 628 0 
L 628 4666 
z
" transform="scale(0.015625)"/>
      <path id="DejaVuSans-70" d="M 1159 525 
L 1159 -1331 
L 581 -1331 
L 581 3500 
L 1159 3500 
L 1159 2969 
Q 1341 3281 1617 3432 
Q 1894 3584 2278 3584 
Q 2916 3584 3314 3078 
Q 3713 2572 3713 1747 
Q 3713 922 3314 415 
Q 2916 -91 2278 -91 
Q 1894 -91 1617 61 
Q 1341 213 1159 525 
z
M 3116 1747 
Q 3116 2381 2855 2742 
Q 2594 3103 2138 3103 
Q 1681 3103 1420 2742 
Q 1159 2381 1159 1747 
Q 1159 1113 1420 752 
Q 1681 391 2138 391 
Q 2594 391 2855 752 
Q 3116 1113 3116 1747 
z
" transform="scale(0.015625)"/>
      <path id="DejaVuSans-75" d="M 544 1381 
L 544 3500 
L 1119 3500 
L 1119 1403 
Q 1119 906 1312 657 
Q 1506 409 1894 409 
Q 2359 409 2629 706 
Q 2900 1003 2900 1516 
L 2900 3500 
L 3475 3500 
L 3475 0 
L 2900 0 
L 2900 538 
Q 2691 219 2414 64 
Q 2138 -91 1772 -91 
Q 1169 -91 856 284 
Q 544 659 544 1381 
z
M 1991 3584 
L 1991 3584 
z
" transform="scale(0.015625)"/>
      <path id="DejaVuSans-6c" d="M 603 4863 
L 1178 4863 
L 1178 0 
L 603 0 
L 603 4863 
z
" transform="scale(0.015625)"/>
      <path id="DejaVuSans-27" d="M 1147 4666 
L 1147 2931 
L 616 2931 
L 616 4666 
L 1147 4666 
z
" transform="scale(0.015625)"/>
      <path id="DejaVuSans-20" transform="scale(0.015625)"/>
      <path id="DejaVuSans-76" d="M 191 3500 
L 800 3500 
L 1894 563 
L 2988 3500 
L 3597 3500 
L 2284 0 
L 1503 0 
L 191 3500 
z
" transform="scale(0.015625)"/>
      <path id="DejaVuSans-67" d="M 2906 1791 
Q 2906 2416 2648 2759 
Q 2391 3103 1925 3103 
Q 1463 3103 1205 2759 
Q 947 2416 947 1791 
Q 947 1169 1205 825 
Q 1463 481 1925 481 
Q 2391 481 2648 825 
Q 2906 1169 2906 1791 
z
M 3481 434 
Q 3481 -459 3084 -895 
Q 2688 -1331 1869 -1331 
Q 1566 -1331 1297 -1286 
Q 1028 -1241 775 -1147 
L 775 -588 
Q 1028 -725 1275 -790 
Q 1522 -856 1778 -856 
Q 2344 -856 2625 -561 
Q 2906 -266 2906 331 
L 2906 616 
Q 2728 306 2450 153 
Q 2172 0 1784 0 
Q 1141 0 747 490 
Q 353 981 353 1791 
Q 353 2603 747 3093 
Q 1141 3584 1784 3584 
Q 2172 3584 2450 3431 
Q 2728 3278 2906 2969 
L 2906 3500 
L 3481 3500 
L 3481 434 
z
" transform="scale(0.015625)"/>
      <path id="DejaVuSans-64" d="M 2906 2969 
L 2906 4863 
L 3481 4863 
L 3481 0 
L 2906 0 
L 2906 525 
Q 2725 213 2448 61 
Q 2172 -91 1784 -91 
Q 1150 -91 751 415 
Q 353 922 353 1747 
Q 353 2572 751 3078 
Q 1150 3584 1784 3584 
Q 2172 3584 2448 3432 
Q 2725 3281 2906 2969 
z
M 947 1747 
Q 947 1113 1208 752 
Q 1469 391 1925 391 
Q 2381 391 2643 752 
Q 2906 1113 2906 1747 
Q 2906 2381 2643 2742 
Q 2381 3103 1925 3103 
Q 1469 3103 1208 2742 
Q 947 2381 947 1747 
z
" transform="scale(0.015625)"/>
      <path id="DejaVuSans-62" d="M 3116 1747 
Q 3116 2381 2855 2742 
Q 2594 3103 2138 3103 
Q 1681 3103 1420 2742 
Q 1159 2381 1159 1747 
Q 1159 1113 1420 752 
Q 1681 391 2138 391 
Q 2594 391 2855 752 
Q 3116 1113 3116 1747 
z
M 1159 2969 
Q 1341 3281 1617 3432 
Q 1894 3584 2278 3584 
Q 2916 3584 3314 3078 
Q 3713 2572 3713 1747 
Q 3713 922 3314 415 
Q 2916 -91 2278 -91 
Q 1894 -91 1617 61 
Q 1341 213 1159 525 
L 1159 0 
L 581 0 
L 581 4863 
L 1159 4863 
L 1159 2969 
z
" transform="scale(0.015625)"/>
      <path id="DejaVuSans-66" d="M 2375 4863 
L 2375 4384 
L 1825 4384 
Q 1516 4384 1395 4259 
Q 1275 4134 1275 3809 
L 1275 3500 
L 2222 3500 
L 2222 3053 
L 1275 3053 
L 1275 0 
L 697 0 
L 697 3053 
L 147 3053 
L 147 3500 
L 697 3500 
L 697 3744 
Q 697 4328 969 4595 
Q 1241 4863 1831 4863 
L 2375 4863 
z
" transform="scale(0.015625)"/>
     </defs>
     <use xlink:href="#DejaVuSans-50"/>
     <use xlink:href="#DejaVuSans-6f" x="56.677734"/>
     <use xlink:href="#DejaVuSans-70" x="117.859375"/>
     <use xlink:href="#DejaVuSans-75" x="181.335938"/>
     <use xlink:href="#DejaVuSans-6c" x="244.714844"/>
     <use xlink:href="#DejaVuSans-61" x="272.498047"/>
     <use xlink:href="#DejaVuSans-74" x="333.777344"/>
     <use xlink:href="#DejaVuSans-69" x="372.986328"/>
     <use xlink:href="#DejaVuSans-6f" x="400.769531"/>
     <use xlink:href="#DejaVuSans-6e" x="461.951172"/>
     <use xlink:href="#DejaVuSans-27" x="525.330078"/>
     <use xlink:href="#DejaVuSans-73" x="552.820312"/>
     <use xlink:href="#DejaVuSans-20" x="604.919922"/>
     <use xlink:href="#DejaVuSans-61" x="636.707031"/>
     <use xlink:href="#DejaVuSans-76" x="697.986328"/>
     <use xlink:href="#DejaVuSans-65" x="757.166016"/>
     <use xlink:href="#DejaVuSans-72" x="818.689453"/>
     <use xlink:href="#DejaVuSans-61" x="859.802734"/>
     <use xlink:href="#DejaVuSans-67" x="921.082031"/>
     <use xlink:href="#DejaVuSans-65" x="984.558594"/>
     <use xlink:href="#DejaVuSans-20" x="1046.082031"/>
     <use xlink:href="#DejaVuSans-61" x="1077.869141"/>
     <use xlink:href="#DejaVuSans-6e" x="1139.148438"/>
     <use xlink:href="#DejaVuSans-64" x="1202.527344"/>
     <use xlink:href="#DejaVuSans-20" x="1266.003906"/>
     <use xlink:href="#DejaVuSans-62" x="1297.791016"/>
     <use xlink:href="#DejaVuSans-65" x="1361.267578"/>
     <use xlink:href="#DejaVuSans-73" x="1422.791016"/>
     <use xlink:href="#DejaVuSans-74" x="1474.890625"/>
     <use xlink:href="#DejaVuSans-20" x="1514.099609"/>
     <use xlink:href="#DejaVuSans-66" x="1545.886719"/>
     <use xlink:href="#DejaVuSans-69" x="1581.091797"/>
     <use xlink:href="#DejaVuSans-74" x="1608.875"/>
     <use xlink:href="#DejaVuSans-6e" x="1648.083984"/>
     <use xlink:href="#DejaVuSans-65" x="1711.462891"/>
     <use xlink:href="#DejaVuSans-73" x="1772.986328"/>
     <use xlink:href="#DejaVuSans-73" x="1825.085938"/>
    </g>
   </g>
   <g id="legend_1">
    <g id="patch_7">
     <path d="M 64.6 302.584 
L 137.540625 302.584 
Q 139.540625 302.584 139.540625 300.584 
L 139.540625 242.8715 
Q 139.540625 240.8715 137.540625 240.8715 
L 64.6 240.8715 
Q 62.6 240.8715 62.6 242.8715 
L 62.6 300.584 
Q 62.6 302.584 64.6 302.584 
z
" style="fill: #ffffff; opacity: 0.8; stroke: #cccccc; stroke-linejoin: miter"/>
    </g>
    <g id="line2d_21">
     <path d="M 66.6 248.969937 
L 76.6 248.969937 
L 86.6 248.969937 
" style="fill: none; stroke: #0000ff; stroke-width: 1.5; stroke-linecap: square"/>
    </g>
    <g id="text_12">
     <!-- average -->
     <g transform="translate(94.6 252.469937)scale(0.1 -0.1)">
      <use xlink:href="#DejaVuSans-61"/>
      <use xlink:href="#DejaVuSans-76" x="61.279297"/>
      <use xlink:href="#DejaVuSans-65" x="120.458984"/>
      <use xlink:href="#DejaVuSans-72" x="181.982422"/>
      <use xlink:href="#DejaVuSans-61" x="223.095703"/>
      <use xlink:href="#DejaVuSans-67" x="284.375"/>
      <use xlink:href="#DejaVuSans-65" x="347.851562"/>
     </g>
    </g>
    <g id="line2d_22">
     <path d="M 66.6 263.648062 
L 76.6 263.648062 
L 86.6 263.648062 
" style="fill: none; stroke-dasharray: 9.6,2.4,1.5,2.4; stroke-dashoffset: 0; stroke: #008000; stroke-width: 1.5"/>
    </g>
    <g id="text_13">
     <!-- -1 sd -->
     <g transform="translate(94.6 267.148062)scale(0.1 -0.1)">
      <defs>
       <path id="DejaVuSans-2d" d="M 313 2009 
L 1997 2009 
L 1997 1497 
L 313 1497 
L 313 2009 
z
" transform="scale(0.015625)"/>
      </defs>
      <use xlink:href="#DejaVuSans-2d"/>
      <use xlink:href="#DejaVuSans-31" x="36.083984"/>
      <use xlink:href="#DejaVuSans-20" x="99.707031"/>
      <use xlink:href="#DejaVuSans-73" x="131.494141"/>
      <use xlink:href="#DejaVuSans-64" x="183.59375"/>
     </g>
    </g>
    <g id="line2d_23">
     <path d="M 66.6 278.326187 
L 76.6 278.326187 
L 86.6 278.326187 
" style="fill: none; stroke-dasharray: 9.6,2.4,1.5,2.4; stroke-dashoffset: 0; stroke: #008000; stroke-width: 1.5"/>
    </g>
    <g id="text_14">
     <!-- +1 sd -->
     <g transform="translate(94.6 281.826187)scale(0.1 -0.1)">
      <defs>
       <path id="DejaVuSans-2b" d="M 2944 4013 
L 2944 2272 
L 4684 2272 
L 4684 1741 
L 2944 1741 
L 2944 0 
L 2419 0 
L 2419 1741 
L 678 1741 
L 678 2272 
L 2419 2272 
L 2419 4013 
L 2944 4013 
z
" transform="scale(0.015625)"/>
      </defs>
      <use xlink:href="#DejaVuSans-2b"/>
      <use xlink:href="#DejaVuSans-31" x="83.789062"/>
      <use xlink:href="#DejaVuSans-20" x="147.412109"/>
      <use xlink:href="#DejaVuSans-73" x="179.199219"/>
      <use xlink:href="#DejaVuSans-64" x="231.298828"/>
     </g>
    </g>
    <g id="line2d_24">
     <path d="M 66.6 293.004312 
L 76.6 293.004312 
L 86.6 293.004312 
" style="fill: none; stroke: #ff0000; stroke-width: 1.5; stroke-linecap: square"/>
    </g>
    <g id="text_15">
     <!-- best -->
     <g transform="translate(94.6 296.504312)scale(0.1 -0.1)">
      <use xlink:href="#DejaVuSans-62"/>
      <use xlink:href="#DejaVuSans-65" x="63.476562"/>
      <use xlink:href="#DejaVuSans-73" x="125"/>
      <use xlink:href="#DejaVuSans-74" x="177.099609"/>
     </g>
    </g>
   </g>
  </g>
 </g>
 <defs>
  <clipPath id="p5005e94ef2">
   <rect x="57.6" y="41.472" width="357.12" height="266.112"/>
  </clipPath>
 </defs>
</svg>
