<?xml version="1.0" encoding="utf-8" standalone="no"?>
<!DOCTYPE svg PUBLIC "-//W3C//DTD SVG 1.1//EN"
  "http://www.w3.org/Graphics/SVG/1.1/DTD/svg11.dtd">
<svg xmlns:xlink="http://www.w3.org/1999/xlink" width="460.8pt" height="345.6pt" viewBox="0 0 460.8 345.6" xmlns="http://www.w3.org/2000/svg" version="1.1">
 <metadata>
  <rdf:RDF xmlns:dc="http://purl.org/dc/elements/1.1/" xmlns:cc="http://creativecommons.org/ns#" xmlns:rdf="http://www.w3.org/1999/02/22-rdf-syntax-ns#">
   <cc:Work>
    <dc:type rdf:resource="http://purl.org/dc/dcmitype/StillImage"/>
    <dc:date>2022-12-07T00:24:00.474593</dc:date>
    <dc:format>image/svg+xml</dc:format>
    <dc:creator>
     <cc:Agent>
      <dc:title>Matplotlib v3.5.3, https://matplotlib.org/</dc:title>
     </cc:Agent>
    </dc:creator>
   </cc:Work>
  </rdf:RDF>
 </metadata>
 <defs>
  <style type="text/css">*{stroke-linejoin: round; stroke-linecap: butt}</style>
 </defs>
 <g id="figure_1">
  <g id="patch_1">
   <path d="M 0 345.6 
L 460.8 345.6 
L 460.8 0 
L 0 0 
z
" style="fill: #ffffff"/>
  </g>
  <g id="axes_1">
   <g id="patch_2">
    <path d="M 57.6 307.584 
L 414.72 307.584 
L 414.72 41.472 
L 57.6 41.472 
z
" style="fill: #ffffff"/>
   </g>
   <g id="PolyCollection_1">
    <path d="M 73.832727 59.113412 
L 73.832727 307.584 
L 75.202578 307.584 
L 76.572428 307.584 
L 77.942278 307.584 
L 79.312129 307.584 
L 80.681979 307.584 
L 82.05183 307.584 
L 83.42168 307.584 
L 84.79153 307.584 
L 86.161381 307.584 
L 87.531231 307.584 
L 88.901082 307.584 
L 90.270932 307.584 
L 91.640783 307.584 
L 93.010633 307.584 
L 94.380483 307.584 
L 95.750334 307.584 
L 97.120184 307.584 
L 98.490035 307.584 
L 99.859885 307.584 
L 101.229735 307.584 
L 102.599586 307.584 
L 103.969436 307.584 
L 105.339287 307.584 
L 106.709137 307.584 
L 108.078987 307.584 
L 109.448838 307.584 
L 110.818688 307.584 
L 112.188539 307.584 
L 113.558389 307.584 
L 114.928239 307.584 
L 116.29809 307.584 
L 117.66794 307.584 
L 119.037791 307.584 
L 120.407641 307.584 
L 121.777491 307.584 
L 123.147342 307.584 
L 124.517192 307.584 
L 125.887043 307.584 
L 127.256893 307.584 
L 128.626743 307.584 
L 129.996594 307.584 
L 131.366444 307.584 
L 132.736295 307.584 
L 134.106145 307.584 
L 135.475995 307.584 
L 136.845846 307.584 
L 138.215696 307.584 
L 139.585547 307.584 
L 140.955397 307.584 
L 142.325247 307.584 
L 143.695098 307.584 
L 145.064948 307.584 
L 146.434799 307.584 
L 147.804649 307.584 
L 149.174499 307.584 
L 150.54435 307.584 
L 151.9142 307.584 
L 153.284051 307.584 
L 154.653901 307.584 
L 156.023751 307.584 
L 157.393602 307.584 
L 158.763452 307.584 
L 160.133303 307.584 
L 161.503153 307.584 
L 162.873003 307.584 
L 164.242854 307.584 
L 165.612704 307.584 
L 166.982555 307.584 
L 168.352405 307.584 
L 169.722255 307.584 
L 171.092106 307.584 
L 172.461956 307.584 
L 173.831807 307.584 
L 175.201657 307.584 
L 176.571507 307.584 
L 177.941358 307.584 
L 179.311208 307.584 
L 180.681059 307.584 
L 182.050909 307.584 
L 183.420759 307.584 
L 184.79061 307.584 
L 186.16046 307.584 
L 187.530311 307.584 
L 188.900161 307.584 
L 190.270012 307.584 
L 191.639862 307.584 
L 193.009712 307.584 
L 194.379563 307.584 
L 195.749413 307.584 
L 197.119264 307.584 
L 198.489114 307.584 
L 199.858964 307.584 
L 201.228815 307.584 
L 202.598665 307.584 
L 203.968516 307.584 
L 205.338366 307.584 
L 206.708216 307.584 
L 208.078067 307.584 
L 209.447917 307.584 
L 210.817768 307.584 
L 212.187618 307.584 
L 213.557468 307.584 
L 214.927319 307.584 
L 216.297169 307.584 
L 217.66702 307.584 
L 219.03687 307.584 
L 220.40672 307.584 
L 221.776571 307.584 
L 223.146421 307.584 
L 224.516272 307.584 
L 225.886122 307.584 
L 227.255972 307.584 
L 228.625823 307.584 
L 229.995673 307.584 
L 231.365524 307.584 
L 232.735374 307.584 
L 234.105224 307.584 
L 235.475075 307.584 
L 236.844925 307.584 
L 238.214776 307.584 
L 239.584626 307.584 
L 240.954476 307.584 
L 242.324327 307.584 
L 243.694177 307.584 
L 245.064028 307.584 
L 246.433878 307.584 
L 247.803728 307.584 
L 249.173579 307.584 
L 250.543429 307.584 
L 251.91328 307.584 
L 253.28313 307.584 
L 254.65298 307.584 
L 256.022831 307.584 
L 257.392681 307.584 
L 258.762532 307.584 
L 260.132382 307.584 
L 261.502232 307.584 
L 262.872083 307.584 
L 264.241933 307.584 
L 265.611784 307.584 
L 266.981634 307.584 
L 268.351484 307.584 
L 269.721335 307.584 
L 271.091185 307.584 
L 272.461036 307.584 
L 273.830886 307.584 
L 275.200736 307.584 
L 276.570587 307.584 
L 277.940437 307.584 
L 279.310288 307.584 
L 280.680138 307.584 
L 282.049988 307.584 
L 283.419839 307.584 
L 284.789689 307.584 
L 286.15954 307.584 
L 287.52939 307.584 
L 288.899241 307.584 
L 290.269091 307.584 
L 291.638941 307.584 
L 293.008792 307.584 
L 294.378642 307.584 
L 295.748493 307.584 
L 297.118343 307.584 
L 298.488193 307.584 
L 299.858044 307.584 
L 301.227894 307.584 
L 302.597745 307.584 
L 303.967595 307.584 
L 305.337445 307.584 
L 306.707296 307.584 
L 308.077146 307.584 
L 309.446997 307.584 
L 310.816847 307.584 
L 312.186697 307.584 
L 313.556548 307.584 
L 314.926398 307.584 
L 316.296249 307.584 
L 317.666099 307.584 
L 319.035949 307.584 
L 320.4058 307.584 
L 321.77565 307.584 
L 323.145501 307.584 
L 324.515351 307.584 
L 325.885201 307.584 
L 327.255052 307.584 
L 328.624902 307.584 
L 329.994753 307.584 
L 331.364603 307.584 
L 332.734453 307.584 
L 334.104304 307.584 
L 335.474154 307.584 
L 336.844005 307.584 
L 338.213855 307.584 
L 339.583705 307.584 
L 340.953556 307.584 
L 342.323406 307.584 
L 343.693257 307.584 
L 345.063107 307.584 
L 346.432957 307.584 
L 347.802808 307.584 
L 349.172658 307.584 
L 350.542509 307.584 
L 351.912359 307.584 
L 353.282209 307.584 
L 354.65206 307.584 
L 356.02191 307.584 
L 357.391761 307.584 
L 358.761611 307.584 
L 360.131461 307.584 
L 361.501312 307.584 
L 362.871162 307.584 
L 364.241013 307.584 
L 365.610863 307.584 
L 366.980713 307.584 
L 368.350564 307.584 
L 369.720414 307.584 
L 371.090265 307.584 
L 372.460115 307.584 
L 373.829965 307.584 
L 375.199816 307.584 
L 376.569666 307.584 
L 377.939517 307.584 
L 379.309367 307.584 
L 380.679217 307.584 
L 382.049068 307.584 
L 383.418918 307.584 
L 384.788769 307.584 
L 386.158619 307.584 
L 387.52847 307.584 
L 388.89832 307.584 
L 390.26817 307.584 
L 391.638021 307.584 
L 393.007871 307.584 
L 394.377722 307.584 
L 395.747572 307.584 
L 397.117422 307.584 
L 398.487273 307.584 
L 398.487273 173.409882 
L 398.487273 173.409882 
L 397.117422 183.348706 
L 395.747572 153.532235 
L 394.377722 158.501647 
L 393.007871 163.471059 
L 391.638021 158.501647 
L 390.26817 168.440471 
L 388.89832 178.379294 
L 387.52847 188.318118 
L 386.158619 183.348706 
L 384.788769 203.226353 
L 383.418918 203.226353 
L 382.049068 193.287529 
L 380.679217 188.318118 
L 379.309367 188.318118 
L 377.939517 198.256941 
L 376.569666 188.318118 
L 375.199816 238.012235 
L 373.829965 223.104 
L 372.460115 228.073412 
L 371.090265 218.134588 
L 369.720414 223.104 
L 368.350564 218.134588 
L 366.980713 208.195765 
L 365.610863 193.287529 
L 364.241013 198.256941 
L 362.871162 203.226353 
L 361.501312 223.104 
L 360.131461 233.042824 
L 358.761611 218.134588 
L 357.391761 228.073412 
L 356.02191 213.165176 
L 354.65206 208.195765 
L 353.282209 208.195765 
L 351.912359 213.165176 
L 350.542509 223.104 
L 349.172658 218.134588 
L 347.802808 198.256941 
L 346.432957 173.409882 
L 345.063107 158.501647 
L 343.693257 158.501647 
L 342.323406 153.532235 
L 340.953556 178.379294 
L 339.583705 173.409882 
L 338.213855 163.471059 
L 336.844005 183.348706 
L 335.474154 173.409882 
L 334.104304 188.318118 
L 332.734453 193.287529 
L 331.364603 173.409882 
L 329.994753 178.379294 
L 328.624902 168.440471 
L 327.255052 173.409882 
L 325.885201 173.409882 
L 324.515351 168.440471 
L 323.145501 158.501647 
L 321.77565 183.348706 
L 320.4058 193.287529 
L 319.035949 193.287529 
L 317.666099 183.348706 
L 316.296249 193.287529 
L 314.926398 168.440471 
L 313.556548 163.471059 
L 312.186697 173.409882 
L 310.816847 168.440471 
L 309.446997 183.348706 
L 308.077146 173.409882 
L 306.707296 153.532235 
L 305.337445 148.562824 
L 303.967595 153.532235 
L 302.597745 158.501647 
L 301.227894 178.379294 
L 299.858044 173.409882 
L 298.488193 133.654588 
L 297.118343 123.715765 
L 295.748493 123.715765 
L 294.378642 128.685176 
L 293.008792 128.685176 
L 291.638941 133.654588 
L 290.269091 153.532235 
L 288.899241 138.624 
L 287.52939 128.685176 
L 286.15954 128.685176 
L 284.789689 148.562824 
L 283.419839 123.715765 
L 282.049988 98.868706 
L 280.680138 74.021647 
L 279.310288 78.991059 
L 277.940437 59.113412 
L 276.570587 59.113412 
L 275.200736 59.113412 
L 273.830886 59.113412 
L 272.461036 59.113412 
L 271.091185 59.113412 
L 269.721335 59.113412 
L 268.351484 59.113412 
L 266.981634 59.113412 
L 265.611784 59.113412 
L 264.241933 59.113412 
L 262.872083 59.113412 
L 261.502232 59.113412 
L 260.132382 59.113412 
L 258.762532 59.113412 
L 257.392681 59.113412 
L 256.022831 59.113412 
L 254.65298 59.113412 
L 253.28313 59.113412 
L 251.91328 59.113412 
L 250.543429 59.113412 
L 249.173579 59.113412 
L 247.803728 59.113412 
L 246.433878 59.113412 
L 245.064028 59.113412 
L 243.694177 59.113412 
L 242.324327 59.113412 
L 240.954476 59.113412 
L 239.584626 59.113412 
L 238.214776 59.113412 
L 236.844925 59.113412 
L 235.475075 59.113412 
L 234.105224 59.113412 
L 232.735374 59.113412 
L 231.365524 59.113412 
L 229.995673 59.113412 
L 228.625823 59.113412 
L 227.255972 59.113412 
L 225.886122 59.113412 
L 224.516272 59.113412 
L 223.146421 59.113412 
L 221.776571 59.113412 
L 220.40672 59.113412 
L 219.03687 59.113412 
L 217.66702 59.113412 
L 216.297169 59.113412 
L 214.927319 59.113412 
L 213.557468 59.113412 
L 212.187618 59.113412 
L 210.817768 59.113412 
L 209.447917 59.113412 
L 208.078067 59.113412 
L 206.708216 59.113412 
L 205.338366 59.113412 
L 203.968516 59.113412 
L 202.598665 59.113412 
L 201.228815 59.113412 
L 199.858964 59.113412 
L 198.489114 59.113412 
L 197.119264 59.113412 
L 195.749413 59.113412 
L 194.379563 59.113412 
L 193.009712 59.113412 
L 191.639862 59.113412 
L 190.270012 59.113412 
L 188.900161 59.113412 
L 187.530311 59.113412 
L 186.16046 59.113412 
L 184.79061 59.113412 
L 183.420759 59.113412 
L 182.050909 59.113412 
L 180.681059 59.113412 
L 179.311208 59.113412 
L 177.941358 59.113412 
L 176.571507 59.113412 
L 175.201657 59.113412 
L 173.831807 59.113412 
L 172.461956 59.113412 
L 171.092106 59.113412 
L 169.722255 59.113412 
L 168.352405 59.113412 
L 166.982555 59.113412 
L 165.612704 59.113412 
L 164.242854 59.113412 
L 162.873003 59.113412 
L 161.503153 59.113412 
L 160.133303 59.113412 
L 158.763452 59.113412 
L 157.393602 59.113412 
L 156.023751 59.113412 
L 154.653901 59.113412 
L 153.284051 59.113412 
L 151.9142 59.113412 
L 150.54435 59.113412 
L 149.174499 59.113412 
L 147.804649 59.113412 
L 146.434799 59.113412 
L 145.064948 59.113412 
L 143.695098 59.113412 
L 142.325247 59.113412 
L 140.955397 59.113412 
L 139.585547 59.113412 
L 138.215696 59.113412 
L 136.845846 59.113412 
L 135.475995 59.113412 
L 134.106145 59.113412 
L 132.736295 59.113412 
L 131.366444 59.113412 
L 129.996594 59.113412 
L 128.626743 59.113412 
L 127.256893 59.113412 
L 125.887043 59.113412 
L 124.517192 59.113412 
L 123.147342 59.113412 
L 121.777491 59.113412 
L 120.407641 59.113412 
L 119.037791 59.113412 
L 117.66794 59.113412 
L 116.29809 59.113412 
L 114.928239 59.113412 
L 113.558389 59.113412 
L 112.188539 59.113412 
L 110.818688 59.113412 
L 109.448838 59.113412 
L 108.078987 59.113412 
L 106.709137 59.113412 
L 105.339287 59.113412 
L 103.969436 59.113412 
L 102.599586 59.113412 
L 101.229735 59.113412 
L 99.859885 59.113412 
L 98.490035 59.113412 
L 97.120184 59.113412 
L 95.750334 59.113412 
L 94.380483 59.113412 
L 93.010633 59.113412 
L 91.640783 59.113412 
L 90.270932 59.113412 
L 88.901082 59.113412 
L 87.531231 59.113412 
L 86.161381 59.113412 
L 84.79153 59.113412 
L 83.42168 59.113412 
L 82.05183 59.113412 
L 80.681979 59.113412 
L 79.312129 59.113412 
L 77.942278 59.113412 
L 76.572428 59.113412 
L 75.202578 59.113412 
L 73.832727 59.113412 
z
" clip-path="url(#p7aa7ef4980)" style="fill: #1f77b4"/>
   </g>
   <g id="PolyCollection_2">
    <path d="M 73.832727 59.113412 
L 73.832727 59.113412 
L 75.202578 59.113412 
L 76.572428 59.113412 
L 77.942278 59.113412 
L 79.312129 59.113412 
L 80.681979 59.113412 
L 82.05183 59.113412 
L 83.42168 59.113412 
L 84.79153 59.113412 
L 86.161381 59.113412 
L 87.531231 59.113412 
L 88.901082 59.113412 
L 90.270932 59.113412 
L 91.640783 59.113412 
L 93.010633 59.113412 
L 94.380483 59.113412 
L 95.750334 59.113412 
L 97.120184 59.113412 
L 98.490035 59.113412 
L 99.859885 59.113412 
L 101.229735 59.113412 
L 102.599586 59.113412 
L 103.969436 59.113412 
L 105.339287 59.113412 
L 106.709137 59.113412 
L 108.078987 59.113412 
L 109.448838 59.113412 
L 110.818688 59.113412 
L 112.188539 59.113412 
L 113.558389 59.113412 
L 114.928239 59.113412 
L 116.29809 59.113412 
L 117.66794 59.113412 
L 119.037791 59.113412 
L 120.407641 59.113412 
L 121.777491 59.113412 
L 123.147342 59.113412 
L 124.517192 59.113412 
L 125.887043 59.113412 
L 127.256893 59.113412 
L 128.626743 59.113412 
L 129.996594 59.113412 
L 131.366444 59.113412 
L 132.736295 59.113412 
L 134.106145 59.113412 
L 135.475995 59.113412 
L 136.845846 59.113412 
L 138.215696 59.113412 
L 139.585547 59.113412 
L 140.955397 59.113412 
L 142.325247 59.113412 
L 143.695098 59.113412 
L 145.064948 59.113412 
L 146.434799 59.113412 
L 147.804649 59.113412 
L 149.174499 59.113412 
L 150.54435 59.113412 
L 151.9142 59.113412 
L 153.284051 59.113412 
L 154.653901 59.113412 
L 156.023751 59.113412 
L 157.393602 59.113412 
L 158.763452 59.113412 
L 160.133303 59.113412 
L 161.503153 59.113412 
L 162.873003 59.113412 
L 164.242854 59.113412 
L 165.612704 59.113412 
L 166.982555 59.113412 
L 168.352405 59.113412 
L 169.722255 59.113412 
L 171.092106 59.113412 
L 172.461956 59.113412 
L 173.831807 59.113412 
L 175.201657 59.113412 
L 176.571507 59.113412 
L 177.941358 59.113412 
L 179.311208 59.113412 
L 180.681059 59.113412 
L 182.050909 59.113412 
L 183.420759 59.113412 
L 184.79061 59.113412 
L 186.16046 59.113412 
L 187.530311 59.113412 
L 188.900161 59.113412 
L 190.270012 59.113412 
L 191.639862 59.113412 
L 193.009712 59.113412 
L 194.379563 59.113412 
L 195.749413 59.113412 
L 197.119264 59.113412 
L 198.489114 59.113412 
L 199.858964 59.113412 
L 201.228815 59.113412 
L 202.598665 59.113412 
L 203.968516 59.113412 
L 205.338366 59.113412 
L 206.708216 59.113412 
L 208.078067 59.113412 
L 209.447917 59.113412 
L 210.817768 59.113412 
L 212.187618 59.113412 
L 213.557468 59.113412 
L 214.927319 59.113412 
L 216.297169 59.113412 
L 217.66702 59.113412 
L 219.03687 59.113412 
L 220.40672 59.113412 
L 221.776571 59.113412 
L 223.146421 59.113412 
L 224.516272 59.113412 
L 225.886122 59.113412 
L 227.255972 59.113412 
L 228.625823 59.113412 
L 229.995673 59.113412 
L 231.365524 59.113412 
L 232.735374 59.113412 
L 234.105224 59.113412 
L 235.475075 59.113412 
L 236.844925 59.113412 
L 238.214776 59.113412 
L 239.584626 59.113412 
L 240.954476 59.113412 
L 242.324327 59.113412 
L 243.694177 59.113412 
L 245.064028 59.113412 
L 246.433878 59.113412 
L 247.803728 59.113412 
L 249.173579 59.113412 
L 250.543429 59.113412 
L 251.91328 59.113412 
L 253.28313 59.113412 
L 254.65298 59.113412 
L 256.022831 59.113412 
L 257.392681 59.113412 
L 258.762532 59.113412 
L 260.132382 59.113412 
L 261.502232 59.113412 
L 262.872083 59.113412 
L 264.241933 59.113412 
L 265.611784 59.113412 
L 266.981634 59.113412 
L 268.351484 59.113412 
L 269.721335 59.113412 
L 271.091185 59.113412 
L 272.461036 59.113412 
L 273.830886 59.113412 
L 275.200736 59.113412 
L 276.570587 59.113412 
L 277.940437 59.113412 
L 279.310288 78.991059 
L 280.680138 74.021647 
L 282.049988 98.868706 
L 283.419839 123.715765 
L 284.789689 148.562824 
L 286.15954 128.685176 
L 287.52939 128.685176 
L 288.899241 138.624 
L 290.269091 153.532235 
L 291.638941 133.654588 
L 293.008792 128.685176 
L 294.378642 128.685176 
L 295.748493 123.715765 
L 297.118343 123.715765 
L 298.488193 133.654588 
L 299.858044 173.409882 
L 301.227894 178.379294 
L 302.597745 158.501647 
L 303.967595 153.532235 
L 305.337445 148.562824 
L 306.707296 153.532235 
L 308.077146 173.409882 
L 309.446997 183.348706 
L 310.816847 168.440471 
L 312.186697 173.409882 
L 313.556548 163.471059 
L 314.926398 168.440471 
L 316.296249 193.287529 
L 317.666099 183.348706 
L 319.035949 193.287529 
L 320.4058 193.287529 
L 321.77565 183.348706 
L 323.145501 158.501647 
L 324.515351 168.440471 
L 325.885201 173.409882 
L 327.255052 173.409882 
L 328.624902 168.440471 
L 329.994753 178.379294 
L 331.364603 173.409882 
L 332.734453 193.287529 
L 334.104304 188.318118 
L 335.474154 173.409882 
L 336.844005 183.348706 
L 338.213855 163.471059 
L 339.583705 173.409882 
L 340.953556 178.379294 
L 342.323406 153.532235 
L 343.693257 158.501647 
L 345.063107 158.501647 
L 346.432957 173.409882 
L 347.802808 198.256941 
L 349.172658 218.134588 
L 350.542509 223.104 
L 351.912359 213.165176 
L 353.282209 208.195765 
L 354.65206 208.195765 
L 356.02191 213.165176 
L 357.391761 228.073412 
L 358.761611 218.134588 
L 360.131461 233.042824 
L 361.501312 223.104 
L 362.871162 203.226353 
L 364.241013 198.256941 
L 365.610863 193.287529 
L 366.980713 208.195765 
L 368.350564 218.134588 
L 369.720414 223.104 
L 371.090265 218.134588 
L 372.460115 228.073412 
L 373.829965 223.104 
L 375.199816 238.012235 
L 376.569666 188.318118 
L 377.939517 198.256941 
L 379.309367 188.318118 
L 380.679217 188.318118 
L 382.049068 193.287529 
L 383.418918 203.226353 
L 384.788769 203.226353 
L 386.158619 183.348706 
L 387.52847 188.318118 
L 388.89832 178.379294 
L 390.26817 168.440471 
L 391.638021 158.501647 
L 393.007871 163.471059 
L 394.377722 158.501647 
L 395.747572 153.532235 
L 397.117422 183.348706 
L 398.487273 173.409882 
L 398.487273 59.113412 
L 398.487273 59.113412 
L 397.117422 59.113412 
L 395.747572 59.113412 
L 394.377722 59.113412 
L 393.007871 59.113412 
L 391.638021 59.113412 
L 390.26817 59.113412 
L 388.89832 59.113412 
L 387.52847 59.113412 
L 386.158619 59.113412 
L 384.788769 59.113412 
L 383.418918 59.113412 
L 382.049068 59.113412 
L 380.679217 59.113412 
L 379.309367 59.113412 
L 377.939517 59.113412 
L 376.569666 59.113412 
L 375.199816 143.593412 
L 373.829965 143.593412 
L 372.460115 133.654588 
L 371.090265 133.654588 
L 369.720414 143.593412 
L 368.350564 133.654588 
L 366.980713 133.654588 
L 365.610863 128.685176 
L 364.241013 123.715765 
L 362.871162 133.654588 
L 361.501312 138.624 
L 360.131461 148.562824 
L 358.761611 128.685176 
L 357.391761 148.562824 
L 356.02191 133.654588 
L 354.65206 138.624 
L 353.282209 128.685176 
L 351.912359 88.929882 
L 350.542509 123.715765 
L 349.172658 183.348706 
L 347.802808 168.440471 
L 346.432957 108.807529 
L 345.063107 74.021647 
L 343.693257 74.021647 
L 342.323406 69.052235 
L 340.953556 74.021647 
L 339.583705 59.113412 
L 338.213855 59.113412 
L 336.844005 59.113412 
L 335.474154 59.113412 
L 334.104304 59.113412 
L 332.734453 59.113412 
L 331.364603 59.113412 
L 329.994753 59.113412 
L 328.624902 59.113412 
L 327.255052 59.113412 
L 325.885201 59.113412 
L 324.515351 59.113412 
L 323.145501 59.113412 
L 321.77565 59.113412 
L 320.4058 59.113412 
L 319.035949 59.113412 
L 317.666099 59.113412 
L 316.296249 59.113412 
L 314.926398 59.113412 
L 313.556548 59.113412 
L 312.186697 59.113412 
L 310.816847 59.113412 
L 309.446997 59.113412 
L 308.077146 59.113412 
L 306.707296 59.113412 
L 305.337445 59.113412 
L 303.967595 59.113412 
L 302.597745 59.113412 
L 301.227894 59.113412 
L 299.858044 59.113412 
L 298.488193 59.113412 
L 297.118343 59.113412 
L 295.748493 59.113412 
L 294.378642 59.113412 
L 293.008792 59.113412 
L 291.638941 59.113412 
L 290.269091 59.113412 
L 288.899241 59.113412 
L 287.52939 59.113412 
L 286.15954 59.113412 
L 284.789689 59.113412 
L 283.419839 59.113412 
L 282.049988 59.113412 
L 280.680138 59.113412 
L 279.310288 59.113412 
L 277.940437 59.113412 
L 276.570587 59.113412 
L 275.200736 59.113412 
L 273.830886 59.113412 
L 272.461036 59.113412 
L 271.091185 59.113412 
L 269.721335 59.113412 
L 268.351484 59.113412 
L 266.981634 59.113412 
L 265.611784 59.113412 
L 264.241933 59.113412 
L 262.872083 59.113412 
L 261.502232 59.113412 
L 260.132382 59.113412 
L 258.762532 59.113412 
L 257.392681 59.113412 
L 256.022831 59.113412 
L 254.65298 59.113412 
L 253.28313 59.113412 
L 251.91328 59.113412 
L 250.543429 59.113412 
L 249.173579 59.113412 
L 247.803728 59.113412 
L 246.433878 59.113412 
L 245.064028 59.113412 
L 243.694177 59.113412 
L 242.324327 59.113412 
L 240.954476 59.113412 
L 239.584626 59.113412 
L 238.214776 59.113412 
L 236.844925 59.113412 
L 235.475075 59.113412 
L 234.105224 59.113412 
L 232.735374 59.113412 
L 231.365524 59.113412 
L 229.995673 59.113412 
L 228.625823 59.113412 
L 227.255972 59.113412 
L 225.886122 59.113412 
L 224.516272 59.113412 
L 223.146421 59.113412 
L 221.776571 59.113412 
L 220.40672 59.113412 
L 219.03687 59.113412 
L 217.66702 59.113412 
L 216.297169 59.113412 
L 214.927319 59.113412 
L 213.557468 59.113412 
L 212.187618 59.113412 
L 210.817768 59.113412 
L 209.447917 59.113412 
L 208.078067 59.113412 
L 206.708216 59.113412 
L 205.338366 59.113412 
L 203.968516 59.113412 
L 202.598665 59.113412 
L 201.228815 59.113412 
L 199.858964 59.113412 
L 198.489114 59.113412 
L 197.119264 59.113412 
L 195.749413 59.113412 
L 194.379563 59.113412 
L 193.009712 59.113412 
L 191.639862 59.113412 
L 190.270012 59.113412 
L 188.900161 59.113412 
L 187.530311 59.113412 
L 186.16046 59.113412 
L 184.79061 59.113412 
L 183.420759 59.113412 
L 182.050909 59.113412 
L 180.681059 59.113412 
L 179.311208 59.113412 
L 177.941358 59.113412 
L 176.571507 59.113412 
L 175.201657 59.113412 
L 173.831807 59.113412 
L 172.461956 59.113412 
L 171.092106 59.113412 
L 169.722255 59.113412 
L 168.352405 59.113412 
L 166.982555 59.113412 
L 165.612704 59.113412 
L 164.242854 59.113412 
L 162.873003 59.113412 
L 161.503153 59.113412 
L 160.133303 59.113412 
L 158.763452 59.113412 
L 157.393602 59.113412 
L 156.023751 59.113412 
L 154.653901 59.113412 
L 153.284051 59.113412 
L 151.9142 59.113412 
L 150.54435 59.113412 
L 149.174499 59.113412 
L 147.804649 59.113412 
L 146.434799 59.113412 
L 145.064948 59.113412 
L 143.695098 59.113412 
L 142.325247 59.113412 
L 140.955397 59.113412 
L 139.585547 59.113412 
L 138.215696 59.113412 
L 136.845846 59.113412 
L 135.475995 59.113412 
L 134.106145 59.113412 
L 132.736295 59.113412 
L 131.366444 59.113412 
L 129.996594 59.113412 
L 128.626743 59.113412 
L 127.256893 59.113412 
L 125.887043 59.113412 
L 124.517192 59.113412 
L 123.147342 59.113412 
L 121.777491 59.113412 
L 120.407641 59.113412 
L 119.037791 59.113412 
L 117.66794 59.113412 
L 116.29809 59.113412 
L 114.928239 59.113412 
L 113.558389 59.113412 
L 112.188539 59.113412 
L 110.818688 59.113412 
L 109.448838 59.113412 
L 108.078987 59.113412 
L 106.709137 59.113412 
L 105.339287 59.113412 
L 103.969436 59.113412 
L 102.599586 59.113412 
L 101.229735 59.113412 
L 99.859885 59.113412 
L 98.490035 59.113412 
L 97.120184 59.113412 
L 95.750334 59.113412 
L 94.380483 59.113412 
L 93.010633 59.113412 
L 91.640783 59.113412 
L 90.270932 59.113412 
L 88.901082 59.113412 
L 87.531231 59.113412 
L 86.161381 59.113412 
L 84.79153 59.113412 
L 83.42168 59.113412 
L 82.05183 59.113412 
L 80.681979 59.113412 
L 79.312129 59.113412 
L 77.942278 59.113412 
L 76.572428 59.113412 
L 75.202578 59.113412 
L 73.832727 59.113412 
z
" clip-path="url(#p7aa7ef4980)" style="fill: #ff7f0e"/>
   </g>
   <g id="PolyCollection_3">
    <path d="M 73.832727 59.113412 
L 73.832727 59.113412 
L 75.202578 59.113412 
L 76.572428 59.113412 
L 77.942278 59.113412 
L 79.312129 59.113412 
L 80.681979 59.113412 
L 82.05183 59.113412 
L 83.42168 59.113412 
L 84.79153 59.113412 
L 86.161381 59.113412 
L 87.531231 59.113412 
L 88.901082 59.113412 
L 90.270932 59.113412 
L 91.640783 59.113412 
L 93.010633 59.113412 
L 94.380483 59.113412 
L 95.750334 59.113412 
L 97.120184 59.113412 
L 98.490035 59.113412 
L 99.859885 59.113412 
L 101.229735 59.113412 
L 102.599586 59.113412 
L 103.969436 59.113412 
L 105.339287 59.113412 
L 106.709137 59.113412 
L 108.078987 59.113412 
L 109.448838 59.113412 
L 110.818688 59.113412 
L 112.188539 59.113412 
L 113.558389 59.113412 
L 114.928239 59.113412 
L 116.29809 59.113412 
L 117.66794 59.113412 
L 119.037791 59.113412 
L 120.407641 59.113412 
L 121.777491 59.113412 
L 123.147342 59.113412 
L 124.517192 59.113412 
L 125.887043 59.113412 
L 127.256893 59.113412 
L 128.626743 59.113412 
L 129.996594 59.113412 
L 131.366444 59.113412 
L 132.736295 59.113412 
L 134.106145 59.113412 
L 135.475995 59.113412 
L 136.845846 59.113412 
L 138.215696 59.113412 
L 139.585547 59.113412 
L 140.955397 59.113412 
L 142.325247 59.113412 
L 143.695098 59.113412 
L 145.064948 59.113412 
L 146.434799 59.113412 
L 147.804649 59.113412 
L 149.174499 59.113412 
L 150.54435 59.113412 
L 151.9142 59.113412 
L 153.284051 59.113412 
L 154.653901 59.113412 
L 156.023751 59.113412 
L 157.393602 59.113412 
L 158.763452 59.113412 
L 160.133303 59.113412 
L 161.503153 59.113412 
L 162.873003 59.113412 
L 164.242854 59.113412 
L 165.612704 59.113412 
L 166.982555 59.113412 
L 168.352405 59.113412 
L 169.722255 59.113412 
L 171.092106 59.113412 
L 172.461956 59.113412 
L 173.831807 59.113412 
L 175.201657 59.113412 
L 176.571507 59.113412 
L 177.941358 59.113412 
L 179.311208 59.113412 
L 180.681059 59.113412 
L 182.050909 59.113412 
L 183.420759 59.113412 
L 184.79061 59.113412 
L 186.16046 59.113412 
L 187.530311 59.113412 
L 188.900161 59.113412 
L 190.270012 59.113412 
L 191.639862 59.113412 
L 193.009712 59.113412 
L 194.379563 59.113412 
L 195.749413 59.113412 
L 197.119264 59.113412 
L 198.489114 59.113412 
L 199.858964 59.113412 
L 201.228815 59.113412 
L 202.598665 59.113412 
L 203.968516 59.113412 
L 205.338366 59.113412 
L 206.708216 59.113412 
L 208.078067 59.113412 
L 209.447917 59.113412 
L 210.817768 59.113412 
L 212.187618 59.113412 
L 213.557468 59.113412 
L 214.927319 59.113412 
L 216.297169 59.113412 
L 217.66702 59.113412 
L 219.03687 59.113412 
L 220.40672 59.113412 
L 221.776571 59.113412 
L 223.146421 59.113412 
L 224.516272 59.113412 
L 225.886122 59.113412 
L 227.255972 59.113412 
L 228.625823 59.113412 
L 229.995673 59.113412 
L 231.365524 59.113412 
L 232.735374 59.113412 
L 234.105224 59.113412 
L 235.475075 59.113412 
L 236.844925 59.113412 
L 238.214776 59.113412 
L 239.584626 59.113412 
L 240.954476 59.113412 
L 242.324327 59.113412 
L 243.694177 59.113412 
L 245.064028 59.113412 
L 246.433878 59.113412 
L 247.803728 59.113412 
L 249.173579 59.113412 
L 250.543429 59.113412 
L 251.91328 59.113412 
L 253.28313 59.113412 
L 254.65298 59.113412 
L 256.022831 59.113412 
L 257.392681 59.113412 
L 258.762532 59.113412 
L 260.132382 59.113412 
L 261.502232 59.113412 
L 262.872083 59.113412 
L 264.241933 59.113412 
L 265.611784 59.113412 
L 266.981634 59.113412 
L 268.351484 59.113412 
L 269.721335 59.113412 
L 271.091185 59.113412 
L 272.461036 59.113412 
L 273.830886 59.113412 
L 275.200736 59.113412 
L 276.570587 59.113412 
L 277.940437 59.113412 
L 279.310288 59.113412 
L 280.680138 59.113412 
L 282.049988 59.113412 
L 283.419839 59.113412 
L 284.789689 59.113412 
L 286.15954 59.113412 
L 287.52939 59.113412 
L 288.899241 59.113412 
L 290.269091 59.113412 
L 291.638941 59.113412 
L 293.008792 59.113412 
L 294.378642 59.113412 
L 295.748493 59.113412 
L 297.118343 59.113412 
L 298.488193 59.113412 
L 299.858044 59.113412 
L 301.227894 59.113412 
L 302.597745 59.113412 
L 303.967595 59.113412 
L 305.337445 59.113412 
L 306.707296 59.113412 
L 308.077146 59.113412 
L 309.446997 59.113412 
L 310.816847 59.113412 
L 312.186697 59.113412 
L 313.556548 59.113412 
L 314.926398 59.113412 
L 316.296249 59.113412 
L 317.666099 59.113412 
L 319.035949 59.113412 
L 320.4058 59.113412 
L 321.77565 59.113412 
L 323.145501 59.113412 
L 324.515351 59.113412 
L 325.885201 59.113412 
L 327.255052 59.113412 
L 328.624902 59.113412 
L 329.994753 59.113412 
L 331.364603 59.113412 
L 332.734453 59.113412 
L 334.104304 59.113412 
L 335.474154 59.113412 
L 336.844005 59.113412 
L 338.213855 59.113412 
L 339.583705 59.113412 
L 340.953556 74.021647 
L 342.323406 69.052235 
L 343.693257 74.021647 
L 345.063107 74.021647 
L 346.432957 108.807529 
L 347.802808 168.440471 
L 349.172658 183.348706 
L 350.542509 123.715765 
L 351.912359 88.929882 
L 353.282209 128.685176 
L 354.65206 138.624 
L 356.02191 133.654588 
L 357.391761 148.562824 
L 358.761611 128.685176 
L 360.131461 148.562824 
L 361.501312 138.624 
L 362.871162 133.654588 
L 364.241013 123.715765 
L 365.610863 128.685176 
L 366.980713 133.654588 
L 368.350564 133.654588 
L 369.720414 143.593412 
L 371.090265 133.654588 
L 372.460115 133.654588 
L 373.829965 143.593412 
L 375.199816 143.593412 
L 376.569666 59.113412 
L 377.939517 59.113412 
L 379.309367 59.113412 
L 380.679217 59.113412 
L 382.049068 59.113412 
L 383.418918 59.113412 
L 384.788769 59.113412 
L 386.158619 59.113412 
L 387.52847 59.113412 
L 388.89832 59.113412 
L 390.26817 59.113412 
L 391.638021 59.113412 
L 393.007871 59.113412 
L 394.377722 59.113412 
L 395.747572 59.113412 
L 397.117422 59.113412 
L 398.487273 59.113412 
L 398.487273 59.113412 
L 398.487273 59.113412 
L 397.117422 59.113412 
L 395.747572 59.113412 
L 394.377722 59.113412 
L 393.007871 59.113412 
L 391.638021 59.113412 
L 390.26817 59.113412 
L 388.89832 59.113412 
L 387.52847 59.113412 
L 386.158619 59.113412 
L 384.788769 59.113412 
L 383.418918 59.113412 
L 382.049068 59.113412 
L 380.679217 59.113412 
L 379.309367 59.113412 
L 377.939517 59.113412 
L 376.569666 59.113412 
L 375.199816 59.113412 
L 373.829965 64.082824 
L 372.460115 64.082824 
L 371.090265 59.113412 
L 369.720414 59.113412 
L 368.350564 59.113412 
L 366.980713 54.144 
L 365.610863 54.144 
L 364.241013 54.144 
L 362.871162 59.113412 
L 361.501312 64.082824 
L 360.131461 64.082824 
L 358.761611 59.113412 
L 357.391761 54.144 
L 356.02191 54.144 
L 354.65206 59.113412 
L 353.282209 64.082824 
L 351.912359 64.082824 
L 350.542509 64.082824 
L 349.172658 54.144 
L 347.802808 54.144 
L 346.432957 59.113412 
L 345.063107 59.113412 
L 343.693257 59.113412 
L 342.323406 59.113412 
L 340.953556 59.113412 
L 339.583705 59.113412 
L 338.213855 59.113412 
L 336.844005 59.113412 
L 335.474154 59.113412 
L 334.104304 59.113412 
L 332.734453 59.113412 
L 331.364603 59.113412 
L 329.994753 59.113412 
L 328.624902 59.113412 
L 327.255052 59.113412 
L 325.885201 59.113412 
L 324.515351 59.113412 
L 323.145501 59.113412 
L 321.77565 59.113412 
L 320.4058 59.113412 
L 319.035949 59.113412 
L 317.666099 59.113412 
L 316.296249 59.113412 
L 314.926398 59.113412 
L 313.556548 59.113412 
L 312.186697 59.113412 
L 310.816847 59.113412 
L 309.446997 59.113412 
L 308.077146 59.113412 
L 306.707296 59.113412 
L 305.337445 59.113412 
L 303.967595 59.113412 
L 302.597745 59.113412 
L 301.227894 59.113412 
L 299.858044 59.113412 
L 298.488193 59.113412 
L 297.118343 59.113412 
L 295.748493 59.113412 
L 294.378642 59.113412 
L 293.008792 59.113412 
L 291.638941 59.113412 
L 290.269091 59.113412 
L 288.899241 59.113412 
L 287.52939 59.113412 
L 286.15954 59.113412 
L 284.789689 59.113412 
L 283.419839 59.113412 
L 282.049988 59.113412 
L 280.680138 59.113412 
L 279.310288 59.113412 
L 277.940437 59.113412 
L 276.570587 59.113412 
L 275.200736 59.113412 
L 273.830886 59.113412 
L 272.461036 59.113412 
L 271.091185 59.113412 
L 269.721335 59.113412 
L 268.351484 59.113412 
L 266.981634 59.113412 
L 265.611784 59.113412 
L 264.241933 59.113412 
L 262.872083 59.113412 
L 261.502232 59.113412 
L 260.132382 59.113412 
L 258.762532 59.113412 
L 257.392681 59.113412 
L 256.022831 59.113412 
L 254.65298 59.113412 
L 253.28313 59.113412 
L 251.91328 59.113412 
L 250.543429 59.113412 
L 249.173579 59.113412 
L 247.803728 59.113412 
L 246.433878 59.113412 
L 245.064028 59.113412 
L 243.694177 59.113412 
L 242.324327 59.113412 
L 240.954476 59.113412 
L 239.584626 59.113412 
L 238.214776 59.113412 
L 236.844925 59.113412 
L 235.475075 59.113412 
L 234.105224 59.113412 
L 232.735374 59.113412 
L 231.365524 59.113412 
L 229.995673 59.113412 
L 228.625823 59.113412 
L 227.255972 59.113412 
L 225.886122 59.113412 
L 224.516272 59.113412 
L 223.146421 59.113412 
L 221.776571 59.113412 
L 220.40672 59.113412 
L 219.03687 59.113412 
L 217.66702 59.113412 
L 216.297169 59.113412 
L 214.927319 59.113412 
L 213.557468 59.113412 
L 212.187618 59.113412 
L 210.817768 59.113412 
L 209.447917 59.113412 
L 208.078067 59.113412 
L 206.708216 59.113412 
L 205.338366 59.113412 
L 203.968516 59.113412 
L 202.598665 59.113412 
L 201.228815 59.113412 
L 199.858964 59.113412 
L 198.489114 59.113412 
L 197.119264 59.113412 
L 195.749413 59.113412 
L 194.379563 59.113412 
L 193.009712 59.113412 
L 191.639862 59.113412 
L 190.270012 59.113412 
L 188.900161 59.113412 
L 187.530311 59.113412 
L 186.16046 59.113412 
L 184.79061 59.113412 
L 183.420759 59.113412 
L 182.050909 59.113412 
L 180.681059 59.113412 
L 179.311208 59.113412 
L 177.941358 59.113412 
L 176.571507 59.113412 
L 175.201657 59.113412 
L 173.831807 59.113412 
L 172.461956 59.113412 
L 171.092106 59.113412 
L 169.722255 59.113412 
L 168.352405 59.113412 
L 166.982555 59.113412 
L 165.612704 59.113412 
L 164.242854 59.113412 
L 162.873003 59.113412 
L 161.503153 59.113412 
L 160.133303 59.113412 
L 158.763452 59.113412 
L 157.393602 59.113412 
L 156.023751 59.113412 
L 154.653901 59.113412 
L 153.284051 59.113412 
L 151.9142 59.113412 
L 150.54435 59.113412 
L 149.174499 59.113412 
L 147.804649 59.113412 
L 146.434799 59.113412 
L 145.064948 59.113412 
L 143.695098 59.113412 
L 142.325247 59.113412 
L 140.955397 59.113412 
L 139.585547 59.113412 
L 138.215696 59.113412 
L 136.845846 59.113412 
L 135.475995 59.113412 
L 134.106145 59.113412 
L 132.736295 59.113412 
L 131.366444 59.113412 
L 129.996594 59.113412 
L 128.626743 59.113412 
L 127.256893 59.113412 
L 125.887043 59.113412 
L 124.517192 59.113412 
L 123.147342 59.113412 
L 121.777491 59.113412 
L 120.407641 59.113412 
L 119.037791 59.113412 
L 117.66794 59.113412 
L 116.29809 59.113412 
L 114.928239 59.113412 
L 113.558389 59.113412 
L 112.188539 59.113412 
L 110.818688 59.113412 
L 109.448838 59.113412 
L 108.078987 59.113412 
L 106.709137 59.113412 
L 105.339287 59.113412 
L 103.969436 59.113412 
L 102.599586 59.113412 
L 101.229735 59.113412 
L 99.859885 59.113412 
L 98.490035 59.113412 
L 97.120184 59.113412 
L 95.750334 59.113412 
L 94.380483 59.113412 
L 93.010633 59.113412 
L 91.640783 59.113412 
L 90.270932 59.113412 
L 88.901082 59.113412 
L 87.531231 59.113412 
L 86.161381 59.113412 
L 84.79153 59.113412 
L 83.42168 59.113412 
L 82.05183 59.113412 
L 80.681979 59.113412 
L 79.312129 59.113412 
L 77.942278 59.113412 
L 76.572428 59.113412 
L 75.202578 59.113412 
L 73.832727 59.113412 
z
" clip-path="url(#p7aa7ef4980)" style="fill: #2ca02c"/>
   </g>
   <g id="matplotlib.axis_1">
    <g id="xtick_1">
     <g id="line2d_1">
      <defs>
       <path id="m52184a70b2" d="M 0 0 
L 0 3.5 
" style="stroke: #000000; stroke-width: 0.8"/>
      </defs>
      <g>
       <use xlink:href="#m52184a70b2" x="73.832727" y="307.584" style="stroke: #000000; stroke-width: 0.8"/>
      </g>
     </g>
     <g id="text_1">
      <!-- 0 -->
      <g transform="translate(70.651477 322.182437)scale(0.1 -0.1)">
       <defs>
        <path id="DejaVuSans-30" d="M 2034 4250 
Q 1547 4250 1301 3770 
Q 1056 3291 1056 2328 
Q 1056 1369 1301 889 
Q 1547 409 2034 409 
Q 2525 409 2770 889 
Q 3016 1369 3016 2328 
Q 3016 3291 2770 3770 
Q 2525 4250 2034 4250 
z
M 2034 4750 
Q 2819 4750 3233 4129 
Q 3647 3509 3647 2328 
Q 3647 1150 3233 529 
Q 2819 -91 2034 -91 
Q 1250 -91 836 529 
Q 422 1150 422 2328 
Q 422 3509 836 4129 
Q 1250 4750 2034 4750 
z
" transform="scale(0.015625)"/>
       </defs>
       <use xlink:href="#DejaVuSans-30"/>
      </g>
     </g>
    </g>
    <g id="xtick_2">
     <g id="line2d_2">
      <g>
       <use xlink:href="#m52184a70b2" x="142.325247" y="307.584" style="stroke: #000000; stroke-width: 0.8"/>
      </g>
     </g>
     <g id="text_2">
      <!-- 50 -->
      <g transform="translate(135.962747 322.182437)scale(0.1 -0.1)">
       <defs>
        <path id="DejaVuSans-35" d="M 691 4666 
L 3169 4666 
L 3169 4134 
L 1269 4134 
L 1269 2991 
Q 1406 3038 1543 3061 
Q 1681 3084 1819 3084 
Q 2600 3084 3056 2656 
Q 3513 2228 3513 1497 
Q 3513 744 3044 326 
Q 2575 -91 1722 -91 
Q 1428 -91 1123 -41 
Q 819 9 494 109 
L 494 744 
Q 775 591 1075 516 
Q 1375 441 1709 441 
Q 2250 441 2565 725 
Q 2881 1009 2881 1497 
Q 2881 1984 2565 2268 
Q 2250 2553 1709 2553 
Q 1456 2553 1204 2497 
Q 953 2441 691 2322 
L 691 4666 
z
" transform="scale(0.015625)"/>
       </defs>
       <use xlink:href="#DejaVuSans-35"/>
       <use xlink:href="#DejaVuSans-30" x="63.623047"/>
      </g>
     </g>
    </g>
    <g id="xtick_3">
     <g id="line2d_3">
      <g>
       <use xlink:href="#m52184a70b2" x="210.817768" y="307.584" style="stroke: #000000; stroke-width: 0.8"/>
      </g>
     </g>
     <g id="text_3">
      <!-- 100 -->
      <g transform="translate(201.274018 322.182437)scale(0.1 -0.1)">
       <defs>
        <path id="DejaVuSans-31" d="M 794 531 
L 1825 531 
L 1825 4091 
L 703 3866 
L 703 4441 
L 1819 4666 
L 2450 4666 
L 2450 531 
L 3481 531 
L 3481 0 
L 794 0 
L 794 531 
z
" transform="scale(0.015625)"/>
       </defs>
       <use xlink:href="#DejaVuSans-31"/>
       <use xlink:href="#DejaVuSans-30" x="63.623047"/>
       <use xlink:href="#DejaVuSans-30" x="127.246094"/>
      </g>
     </g>
    </g>
    <g id="xtick_4">
     <g id="line2d_4">
      <g>
       <use xlink:href="#m52184a70b2" x="279.310288" y="307.584" style="stroke: #000000; stroke-width: 0.8"/>
      </g>
     </g>
     <g id="text_4">
      <!-- 150 -->
      <g transform="translate(269.766538 322.182437)scale(0.1 -0.1)">
       <use xlink:href="#DejaVuSans-31"/>
       <use xlink:href="#DejaVuSans-35" x="63.623047"/>
       <use xlink:href="#DejaVuSans-30" x="127.246094"/>
      </g>
     </g>
    </g>
    <g id="xtick_5">
     <g id="line2d_5">
      <g>
       <use xlink:href="#m52184a70b2" x="347.802808" y="307.584" style="stroke: #000000; stroke-width: 0.8"/>
      </g>
     </g>
     <g id="text_5">
      <!-- 200 -->
      <g transform="translate(338.259058 322.182437)scale(0.1 -0.1)">
       <defs>
        <path id="DejaVuSans-32" d="M 1228 531 
L 3431 531 
L 3431 0 
L 469 0 
L 469 531 
Q 828 903 1448 1529 
Q 2069 2156 2228 2338 
Q 2531 2678 2651 2914 
Q 2772 3150 2772 3378 
Q 2772 3750 2511 3984 
Q 2250 4219 1831 4219 
Q 1534 4219 1204 4116 
Q 875 4013 500 3803 
L 500 4441 
Q 881 4594 1212 4672 
Q 1544 4750 1819 4750 
Q 2544 4750 2975 4387 
Q 3406 4025 3406 3419 
Q 3406 3131 3298 2873 
Q 3191 2616 2906 2266 
Q 2828 2175 2409 1742 
Q 1991 1309 1228 531 
z
" transform="scale(0.015625)"/>
       </defs>
       <use xlink:href="#DejaVuSans-32"/>
       <use xlink:href="#DejaVuSans-30" x="63.623047"/>
       <use xlink:href="#DejaVuSans-30" x="127.246094"/>
      </g>
     </g>
    </g>
    <g id="text_6">
     <!-- Generations -->
     <g transform="translate(205.662344 335.860562)scale(0.1 -0.1)">
      <defs>
       <path id="DejaVuSans-47" d="M 3809 666 
L 3809 1919 
L 2778 1919 
L 2778 2438 
L 4434 2438 
L 4434 434 
Q 4069 175 3628 42 
Q 3188 -91 2688 -91 
Q 1594 -91 976 548 
Q 359 1188 359 2328 
Q 359 3472 976 4111 
Q 1594 4750 2688 4750 
Q 3144 4750 3555 4637 
Q 3966 4525 4313 4306 
L 4313 3634 
Q 3963 3931 3569 4081 
Q 3175 4231 2741 4231 
Q 1884 4231 1454 3753 
Q 1025 3275 1025 2328 
Q 1025 1384 1454 906 
Q 1884 428 2741 428 
Q 3075 428 3337 486 
Q 3600 544 3809 666 
z
" transform="scale(0.015625)"/>
       <path id="DejaVuSans-65" d="M 3597 1894 
L 3597 1613 
L 953 1613 
Q 991 1019 1311 708 
Q 1631 397 2203 397 
Q 2534 397 2845 478 
Q 3156 559 3463 722 
L 3463 178 
Q 3153 47 2828 -22 
Q 2503 -91 2169 -91 
Q 1331 -91 842 396 
Q 353 884 353 1716 
Q 353 2575 817 3079 
Q 1281 3584 2069 3584 
Q 2775 3584 3186 3129 
Q 3597 2675 3597 1894 
z
M 3022 2063 
Q 3016 2534 2758 2815 
Q 2500 3097 2075 3097 
Q 1594 3097 1305 2825 
Q 1016 2553 972 2059 
L 3022 2063 
z
" transform="scale(0.015625)"/>
       <path id="DejaVuSans-6e" d="M 3513 2113 
L 3513 0 
L 2938 0 
L 2938 2094 
Q 2938 2591 2744 2837 
Q 2550 3084 2163 3084 
Q 1697 3084 1428 2787 
Q 1159 2491 1159 1978 
L 1159 0 
L 581 0 
L 581 3500 
L 1159 3500 
L 1159 2956 
Q 1366 3272 1645 3428 
Q 1925 3584 2291 3584 
Q 2894 3584 3203 3211 
Q 3513 2838 3513 2113 
z
" transform="scale(0.015625)"/>
       <path id="DejaVuSans-72" d="M 2631 2963 
Q 2534 3019 2420 3045 
Q 2306 3072 2169 3072 
Q 1681 3072 1420 2755 
Q 1159 2438 1159 1844 
L 1159 0 
L 581 0 
L 581 3500 
L 1159 3500 
L 1159 2956 
Q 1341 3275 1631 3429 
Q 1922 3584 2338 3584 
Q 2397 3584 2469 3576 
Q 2541 3569 2628 3553 
L 2631 2963 
z
" transform="scale(0.015625)"/>
       <path id="DejaVuSans-61" d="M 2194 1759 
Q 1497 1759 1228 1600 
Q 959 1441 959 1056 
Q 959 750 1161 570 
Q 1363 391 1709 391 
Q 2188 391 2477 730 
Q 2766 1069 2766 1631 
L 2766 1759 
L 2194 1759 
z
M 3341 1997 
L 3341 0 
L 2766 0 
L 2766 531 
Q 2569 213 2275 61 
Q 1981 -91 1556 -91 
Q 1019 -91 701 211 
Q 384 513 384 1019 
Q 384 1609 779 1909 
Q 1175 2209 1959 2209 
L 2766 2209 
L 2766 2266 
Q 2766 2663 2505 2880 
Q 2244 3097 1772 3097 
Q 1472 3097 1187 3025 
Q 903 2953 641 2809 
L 641 3341 
Q 956 3463 1253 3523 
Q 1550 3584 1831 3584 
Q 2591 3584 2966 3190 
Q 3341 2797 3341 1997 
z
" transform="scale(0.015625)"/>
       <path id="DejaVuSans-74" d="M 1172 4494 
L 1172 3500 
L 2356 3500 
L 2356 3053 
L 1172 3053 
L 1172 1153 
Q 1172 725 1289 603 
Q 1406 481 1766 481 
L 2356 481 
L 2356 0 
L 1766 0 
Q 1100 0 847 248 
Q 594 497 594 1153 
L 594 3053 
L 172 3053 
L 172 3500 
L 594 3500 
L 594 4494 
L 1172 4494 
z
" transform="scale(0.015625)"/>
       <path id="DejaVuSans-69" d="M 603 3500 
L 1178 3500 
L 1178 0 
L 603 0 
L 603 3500 
z
M 603 4863 
L 1178 4863 
L 1178 4134 
L 603 4134 
L 603 4863 
z
" transform="scale(0.015625)"/>
       <path id="DejaVuSans-6f" d="M 1959 3097 
Q 1497 3097 1228 2736 
Q 959 2375 959 1747 
Q 959 1119 1226 758 
Q 1494 397 1959 397 
Q 2419 397 2687 759 
Q 2956 1122 2956 1747 
Q 2956 2369 2687 2733 
Q 2419 3097 1959 3097 
z
M 1959 3584 
Q 2709 3584 3137 3096 
Q 3566 2609 3566 1747 
Q 3566 888 3137 398 
Q 2709 -91 1959 -91 
Q 1206 -91 779 398 
Q 353 888 353 1747 
Q 353 2609 779 3096 
Q 1206 3584 1959 3584 
z
" transform="scale(0.015625)"/>
       <path id="DejaVuSans-73" d="M 2834 3397 
L 2834 2853 
Q 2591 2978 2328 3040 
Q 2066 3103 1784 3103 
Q 1356 3103 1142 2972 
Q 928 2841 928 2578 
Q 928 2378 1081 2264 
Q 1234 2150 1697 2047 
L 1894 2003 
Q 2506 1872 2764 1633 
Q 3022 1394 3022 966 
Q 3022 478 2636 193 
Q 2250 -91 1575 -91 
Q 1294 -91 989 -36 
Q 684 19 347 128 
L 347 722 
Q 666 556 975 473 
Q 1284 391 1588 391 
Q 1994 391 2212 530 
Q 2431 669 2431 922 
Q 2431 1156 2273 1281 
Q 2116 1406 1581 1522 
L 1381 1569 
Q 847 1681 609 1914 
Q 372 2147 372 2553 
Q 372 3047 722 3315 
Q 1072 3584 1716 3584 
Q 2034 3584 2315 3537 
Q 2597 3491 2834 3397 
z
" transform="scale(0.015625)"/>
      </defs>
      <use xlink:href="#DejaVuSans-47"/>
      <use xlink:href="#DejaVuSans-65" x="77.490234"/>
      <use xlink:href="#DejaVuSans-6e" x="139.013672"/>
      <use xlink:href="#DejaVuSans-65" x="202.392578"/>
      <use xlink:href="#DejaVuSans-72" x="263.916016"/>
      <use xlink:href="#DejaVuSans-61" x="305.029297"/>
      <use xlink:href="#DejaVuSans-74" x="366.308594"/>
      <use xlink:href="#DejaVuSans-69" x="405.517578"/>
      <use xlink:href="#DejaVuSans-6f" x="433.300781"/>
      <use xlink:href="#DejaVuSans-6e" x="494.482422"/>
      <use xlink:href="#DejaVuSans-73" x="557.861328"/>
     </g>
    </g>
   </g>
   <g id="matplotlib.axis_2">
    <g id="ytick_1">
     <g id="line2d_6">
      <defs>
       <path id="m55cf5b89ad" d="M 0 0 
L -3.5 0 
" style="stroke: #000000; stroke-width: 0.8"/>
      </defs>
      <g>
       <use xlink:href="#m55cf5b89ad" x="57.6" y="307.584" style="stroke: #000000; stroke-width: 0.8"/>
      </g>
     </g>
     <g id="text_7">
      <!-- 0 -->
      <g transform="translate(44.2375 311.383219)scale(0.1 -0.1)">
       <use xlink:href="#DejaVuSans-30"/>
      </g>
     </g>
    </g>
    <g id="ytick_2">
     <g id="line2d_7">
      <g>
       <use xlink:href="#m55cf5b89ad" x="57.6" y="257.889882" style="stroke: #000000; stroke-width: 0.8"/>
      </g>
     </g>
     <g id="text_8">
      <!-- 10 -->
      <g transform="translate(37.875 261.689101)scale(0.1 -0.1)">
       <use xlink:href="#DejaVuSans-31"/>
       <use xlink:href="#DejaVuSans-30" x="63.623047"/>
      </g>
     </g>
    </g>
    <g id="ytick_3">
     <g id="line2d_8">
      <g>
       <use xlink:href="#m55cf5b89ad" x="57.6" y="208.195765" style="stroke: #000000; stroke-width: 0.8"/>
      </g>
     </g>
     <g id="text_9">
      <!-- 20 -->
      <g transform="translate(37.875 211.994983)scale(0.1 -0.1)">
       <use xlink:href="#DejaVuSans-32"/>
       <use xlink:href="#DejaVuSans-30" x="63.623047"/>
      </g>
     </g>
    </g>
    <g id="ytick_4">
     <g id="line2d_9">
      <g>
       <use xlink:href="#m55cf5b89ad" x="57.6" y="158.501647" style="stroke: #000000; stroke-width: 0.8"/>
      </g>
     </g>
     <g id="text_10">
      <!-- 30 -->
      <g transform="translate(37.875 162.300866)scale(0.1 -0.1)">
       <defs>
        <path id="DejaVuSans-33" d="M 2597 2516 
Q 3050 2419 3304 2112 
Q 3559 1806 3559 1356 
Q 3559 666 3084 287 
Q 2609 -91 1734 -91 
Q 1441 -91 1130 -33 
Q 819 25 488 141 
L 488 750 
Q 750 597 1062 519 
Q 1375 441 1716 441 
Q 2309 441 2620 675 
Q 2931 909 2931 1356 
Q 2931 1769 2642 2001 
Q 2353 2234 1838 2234 
L 1294 2234 
L 1294 2753 
L 1863 2753 
Q 2328 2753 2575 2939 
Q 2822 3125 2822 3475 
Q 2822 3834 2567 4026 
Q 2313 4219 1838 4219 
Q 1578 4219 1281 4162 
Q 984 4106 628 3988 
L 628 4550 
Q 988 4650 1302 4700 
Q 1616 4750 1894 4750 
Q 2613 4750 3031 4423 
Q 3450 4097 3450 3541 
Q 3450 3153 3228 2886 
Q 3006 2619 2597 2516 
z
" transform="scale(0.015625)"/>
       </defs>
       <use xlink:href="#DejaVuSans-33"/>
       <use xlink:href="#DejaVuSans-30" x="63.623047"/>
      </g>
     </g>
    </g>
    <g id="ytick_5">
     <g id="line2d_10">
      <g>
       <use xlink:href="#m55cf5b89ad" x="57.6" y="108.807529" style="stroke: #000000; stroke-width: 0.8"/>
      </g>
     </g>
     <g id="text_11">
      <!-- 40 -->
      <g transform="translate(37.875 112.606748)scale(0.1 -0.1)">
       <defs>
        <path id="DejaVuSans-34" d="M 2419 4116 
L 825 1625 
L 2419 1625 
L 2419 4116 
z
M 2253 4666 
L 3047 4666 
L 3047 1625 
L 3713 1625 
L 3713 1100 
L 3047 1100 
L 3047 0 
L 2419 0 
L 2419 1100 
L 313 1100 
L 313 1709 
L 2253 4666 
z
" transform="scale(0.015625)"/>
       </defs>
       <use xlink:href="#DejaVuSans-34"/>
       <use xlink:href="#DejaVuSans-30" x="63.623047"/>
      </g>
     </g>
    </g>
    <g id="ytick_6">
     <g id="line2d_11">
      <g>
       <use xlink:href="#m55cf5b89ad" x="57.6" y="59.113412" style="stroke: #000000; stroke-width: 0.8"/>
      </g>
     </g>
     <g id="text_12">
      <!-- 50 -->
      <g transform="translate(37.875 62.912631)scale(0.1 -0.1)">
       <use xlink:href="#DejaVuSans-35"/>
       <use xlink:href="#DejaVuSans-30" x="63.623047"/>
      </g>
     </g>
    </g>
    <g id="text_13">
     <!-- Size per Species -->
     <g transform="translate(31.795312 215.520969)rotate(-90)scale(0.1 -0.1)">
      <defs>
       <path id="DejaVuSans-53" d="M 3425 4513 
L 3425 3897 
Q 3066 4069 2747 4153 
Q 2428 4238 2131 4238 
Q 1616 4238 1336 4038 
Q 1056 3838 1056 3469 
Q 1056 3159 1242 3001 
Q 1428 2844 1947 2747 
L 2328 2669 
Q 3034 2534 3370 2195 
Q 3706 1856 3706 1288 
Q 3706 609 3251 259 
Q 2797 -91 1919 -91 
Q 1588 -91 1214 -16 
Q 841 59 441 206 
L 441 856 
Q 825 641 1194 531 
Q 1563 422 1919 422 
Q 2459 422 2753 634 
Q 3047 847 3047 1241 
Q 3047 1584 2836 1778 
Q 2625 1972 2144 2069 
L 1759 2144 
Q 1053 2284 737 2584 
Q 422 2884 422 3419 
Q 422 4038 858 4394 
Q 1294 4750 2059 4750 
Q 2388 4750 2728 4690 
Q 3069 4631 3425 4513 
z
" transform="scale(0.015625)"/>
       <path id="DejaVuSans-7a" d="M 353 3500 
L 3084 3500 
L 3084 2975 
L 922 459 
L 3084 459 
L 3084 0 
L 275 0 
L 275 525 
L 2438 3041 
L 353 3041 
L 353 3500 
z
" transform="scale(0.015625)"/>
       <path id="DejaVuSans-20" transform="scale(0.015625)"/>
       <path id="DejaVuSans-70" d="M 1159 525 
L 1159 -1331 
L 581 -1331 
L 581 3500 
L 1159 3500 
L 1159 2969 
Q 1341 3281 1617 3432 
Q 1894 3584 2278 3584 
Q 2916 3584 3314 3078 
Q 3713 2572 3713 1747 
Q 3713 922 3314 415 
Q 2916 -91 2278 -91 
Q 1894 -91 1617 61 
Q 1341 213 1159 525 
z
M 3116 1747 
Q 3116 2381 2855 2742 
Q 2594 3103 2138 3103 
Q 1681 3103 1420 2742 
Q 1159 2381 1159 1747 
Q 1159 1113 1420 752 
Q 1681 391 2138 391 
Q 2594 391 2855 752 
Q 3116 1113 3116 1747 
z
" transform="scale(0.015625)"/>
       <path id="DejaVuSans-63" d="M 3122 3366 
L 3122 2828 
Q 2878 2963 2633 3030 
Q 2388 3097 2138 3097 
Q 1578 3097 1268 2742 
Q 959 2388 959 1747 
Q 959 1106 1268 751 
Q 1578 397 2138 397 
Q 2388 397 2633 464 
Q 2878 531 3122 666 
L 3122 134 
Q 2881 22 2623 -34 
Q 2366 -91 2075 -91 
Q 1284 -91 818 406 
Q 353 903 353 1747 
Q 353 2603 823 3093 
Q 1294 3584 2113 3584 
Q 2378 3584 2631 3529 
Q 2884 3475 3122 3366 
z
" transform="scale(0.015625)"/>
      </defs>
      <use xlink:href="#DejaVuSans-53"/>
      <use xlink:href="#DejaVuSans-69" x="63.476562"/>
      <use xlink:href="#DejaVuSans-7a" x="91.259766"/>
      <use xlink:href="#DejaVuSans-65" x="143.75"/>
      <use xlink:href="#DejaVuSans-20" x="205.273438"/>
      <use xlink:href="#DejaVuSans-70" x="237.060547"/>
      <use xlink:href="#DejaVuSans-65" x="300.537109"/>
      <use xlink:href="#DejaVuSans-72" x="362.060547"/>
      <use xlink:href="#DejaVuSans-20" x="403.173828"/>
      <use xlink:href="#DejaVuSans-53" x="434.960938"/>
      <use xlink:href="#DejaVuSans-70" x="498.4375"/>
      <use xlink:href="#DejaVuSans-65" x="561.914062"/>
      <use xlink:href="#DejaVuSans-63" x="623.4375"/>
      <use xlink:href="#DejaVuSans-69" x="678.417969"/>
      <use xlink:href="#DejaVuSans-65" x="706.201172"/>
      <use xlink:href="#DejaVuSans-73" x="767.724609"/>
     </g>
    </g>
   </g>
   <g id="patch_3">
    <path d="M 57.6 307.584 
L 57.6 41.472 
" style="fill: none; stroke: #000000; stroke-width: 0.8; stroke-linejoin: miter; stroke-linecap: square"/>
   </g>
   <g id="patch_4">
    <path d="M 414.72 307.584 
L 414.72 41.472 
" style="fill: none; stroke: #000000; stroke-width: 0.8; stroke-linejoin: miter; stroke-linecap: square"/>
   </g>
   <g id="patch_5">
    <path d="M 57.6 307.584 
L 414.72 307.584 
" style="fill: none; stroke: #000000; stroke-width: 0.8; stroke-linejoin: miter; stroke-linecap: square"/>
   </g>
   <g id="patch_6">
    <path d="M 57.6 41.472 
L 414.72 41.472 
" style="fill: none; stroke: #000000; stroke-width: 0.8; stroke-linejoin: miter; stroke-linecap: square"/>
   </g>
   <g id="text_14">
    <!-- Speciation -->
    <g transform="translate(204.714375 35.472)scale(0.12 -0.12)">
     <use xlink:href="#DejaVuSans-53"/>
     <use xlink:href="#DejaVuSans-70" x="63.476562"/>
     <use xlink:href="#DejaVuSans-65" x="126.953125"/>
     <use xlink:href="#DejaVuSans-63" x="188.476562"/>
     <use xlink:href="#DejaVuSans-69" x="243.457031"/>
     <use xlink:href="#DejaVuSans-61" x="271.240234"/>
     <use xlink:href="#DejaVuSans-74" x="332.519531"/>
     <use xlink:href="#DejaVuSans-69" x="371.728516"/>
     <use xlink:href="#DejaVuSans-6f" x="399.511719"/>
     <use xlink:href="#DejaVuSans-6e" x="460.693359"/>
    </g>
   </g>
  </g>
 </g>
 <defs>
  <clipPath id="p7aa7ef4980">
   <rect x="57.6" y="41.472" width="357.12" height="266.112"/>
  </clipPath>
 </defs>
</svg>
