<?xml version="1.0" encoding="utf-8" standalone="no"?>
<!DOCTYPE svg PUBLIC "-//W3C//DTD SVG 1.1//EN"
  "http://www.w3.org/Graphics/SVG/1.1/DTD/svg11.dtd">
<svg xmlns:xlink="http://www.w3.org/1999/xlink" width="460.8pt" height="345.6pt" viewBox="0 0 460.8 345.6" xmlns="http://www.w3.org/2000/svg" version="1.1">
 <metadata>
  <rdf:RDF xmlns:dc="http://purl.org/dc/elements/1.1/" xmlns:cc="http://creativecommons.org/ns#" xmlns:rdf="http://www.w3.org/1999/02/22-rdf-syntax-ns#">
   <cc:Work>
    <dc:type rdf:resource="http://purl.org/dc/dcmitype/StillImage"/>
    <dc:date>2022-12-06T21:34:59.239643</dc:date>
    <dc:format>image/svg+xml</dc:format>
    <dc:creator>
     <cc:Agent>
      <dc:title>Matplotlib v3.5.3, https://matplotlib.org/</dc:title>
     </cc:Agent>
    </dc:creator>
   </cc:Work>
  </rdf:RDF>
 </metadata>
 <defs>
  <style type="text/css">*{stroke-linejoin: round; stroke-linecap: butt}</style>
 </defs>
 <g id="figure_1">
  <g id="patch_1">
   <path d="M 0 345.6 
L 460.8 345.6 
L 460.8 0 
L 0 0 
z
" style="fill: #ffffff"/>
  </g>
  <g id="axes_1">
   <g id="patch_2">
    <path d="M 57.6 307.584 
L 414.72 307.584 
L 414.72 41.472 
L 57.6 41.472 
z
" style="fill: #ffffff"/>
   </g>
   <g id="matplotlib.axis_1">
    <g id="xtick_1">
     <g id="line2d_1">
      <path d="M 73.832727 307.584 
L 73.832727 41.472 
" clip-path="url(#p15bfa4cbfc)" style="fill: none; stroke: #b0b0b0; stroke-width: 0.8; stroke-linecap: square"/>
     </g>
     <g id="line2d_2">
      <defs>
       <path id="mbe938c5508" d="M 0 0 
L 0 3.5 
" style="stroke: #000000; stroke-width: 0.8"/>
      </defs>
      <g>
       <use xlink:href="#mbe938c5508" x="73.832727" y="307.584" style="stroke: #000000; stroke-width: 0.8"/>
      </g>
     </g>
     <g id="text_1">
      <!-- 0 -->
      <g transform="translate(70.651477 322.182437)scale(0.1 -0.1)">
       <defs>
        <path id="DejaVuSans-30" d="M 2034 4250 
Q 1547 4250 1301 3770 
Q 1056 3291 1056 2328 
Q 1056 1369 1301 889 
Q 1547 409 2034 409 
Q 2525 409 2770 889 
Q 3016 1369 3016 2328 
Q 3016 3291 2770 3770 
Q 2525 4250 2034 4250 
z
M 2034 4750 
Q 2819 4750 3233 4129 
Q 3647 3509 3647 2328 
Q 3647 1150 3233 529 
Q 2819 -91 2034 -91 
Q 1250 -91 836 529 
Q 422 1150 422 2328 
Q 422 3509 836 4129 
Q 1250 4750 2034 4750 
z
" transform="scale(0.015625)"/>
       </defs>
       <use xlink:href="#DejaVuSans-30"/>
      </g>
     </g>
    </g>
    <g id="xtick_2">
     <g id="line2d_3">
      <path d="M 138.893758 307.584 
L 138.893758 41.472 
" clip-path="url(#p15bfa4cbfc)" style="fill: none; stroke: #b0b0b0; stroke-width: 0.8; stroke-linecap: square"/>
     </g>
     <g id="line2d_4">
      <g>
       <use xlink:href="#mbe938c5508" x="138.893758" y="307.584" style="stroke: #000000; stroke-width: 0.8"/>
      </g>
     </g>
     <g id="text_2">
      <!-- 100 -->
      <g transform="translate(129.350008 322.182437)scale(0.1 -0.1)">
       <defs>
        <path id="DejaVuSans-31" d="M 794 531 
L 1825 531 
L 1825 4091 
L 703 3866 
L 703 4441 
L 1819 4666 
L 2450 4666 
L 2450 531 
L 3481 531 
L 3481 0 
L 794 0 
L 794 531 
z
" transform="scale(0.015625)"/>
       </defs>
       <use xlink:href="#DejaVuSans-31"/>
       <use xlink:href="#DejaVuSans-30" x="63.623047"/>
       <use xlink:href="#DejaVuSans-30" x="127.246094"/>
      </g>
     </g>
    </g>
    <g id="xtick_3">
     <g id="line2d_5">
      <path d="M 203.95479 307.584 
L 203.95479 41.472 
" clip-path="url(#p15bfa4cbfc)" style="fill: none; stroke: #b0b0b0; stroke-width: 0.8; stroke-linecap: square"/>
     </g>
     <g id="line2d_6">
      <g>
       <use xlink:href="#mbe938c5508" x="203.95479" y="307.584" style="stroke: #000000; stroke-width: 0.8"/>
      </g>
     </g>
     <g id="text_3">
      <!-- 200 -->
      <g transform="translate(194.41104 322.182437)scale(0.1 -0.1)">
       <defs>
        <path id="DejaVuSans-32" d="M 1228 531 
L 3431 531 
L 3431 0 
L 469 0 
L 469 531 
Q 828 903 1448 1529 
Q 2069 2156 2228 2338 
Q 2531 2678 2651 2914 
Q 2772 3150 2772 3378 
Q 2772 3750 2511 3984 
Q 2250 4219 1831 4219 
Q 1534 4219 1204 4116 
Q 875 4013 500 3803 
L 500 4441 
Q 881 4594 1212 4672 
Q 1544 4750 1819 4750 
Q 2544 4750 2975 4387 
Q 3406 4025 3406 3419 
Q 3406 3131 3298 2873 
Q 3191 2616 2906 2266 
Q 2828 2175 2409 1742 
Q 1991 1309 1228 531 
z
" transform="scale(0.015625)"/>
       </defs>
       <use xlink:href="#DejaVuSans-32"/>
       <use xlink:href="#DejaVuSans-30" x="63.623047"/>
       <use xlink:href="#DejaVuSans-30" x="127.246094"/>
      </g>
     </g>
    </g>
    <g id="xtick_4">
     <g id="line2d_7">
      <path d="M 269.015821 307.584 
L 269.015821 41.472 
" clip-path="url(#p15bfa4cbfc)" style="fill: none; stroke: #b0b0b0; stroke-width: 0.8; stroke-linecap: square"/>
     </g>
     <g id="line2d_8">
      <g>
       <use xlink:href="#mbe938c5508" x="269.015821" y="307.584" style="stroke: #000000; stroke-width: 0.8"/>
      </g>
     </g>
     <g id="text_4">
      <!-- 300 -->
      <g transform="translate(259.472071 322.182437)scale(0.1 -0.1)">
       <defs>
        <path id="DejaVuSans-33" d="M 2597 2516 
Q 3050 2419 3304 2112 
Q 3559 1806 3559 1356 
Q 3559 666 3084 287 
Q 2609 -91 1734 -91 
Q 1441 -91 1130 -33 
Q 819 25 488 141 
L 488 750 
Q 750 597 1062 519 
Q 1375 441 1716 441 
Q 2309 441 2620 675 
Q 2931 909 2931 1356 
Q 2931 1769 2642 2001 
Q 2353 2234 1838 2234 
L 1294 2234 
L 1294 2753 
L 1863 2753 
Q 2328 2753 2575 2939 
Q 2822 3125 2822 3475 
Q 2822 3834 2567 4026 
Q 2313 4219 1838 4219 
Q 1578 4219 1281 4162 
Q 984 4106 628 3988 
L 628 4550 
Q 988 4650 1302 4700 
Q 1616 4750 1894 4750 
Q 2613 4750 3031 4423 
Q 3450 4097 3450 3541 
Q 3450 3153 3228 2886 
Q 3006 2619 2597 2516 
z
" transform="scale(0.015625)"/>
       </defs>
       <use xlink:href="#DejaVuSans-33"/>
       <use xlink:href="#DejaVuSans-30" x="63.623047"/>
       <use xlink:href="#DejaVuSans-30" x="127.246094"/>
      </g>
     </g>
    </g>
    <g id="xtick_5">
     <g id="line2d_9">
      <path d="M 334.076852 307.584 
L 334.076852 41.472 
" clip-path="url(#p15bfa4cbfc)" style="fill: none; stroke: #b0b0b0; stroke-width: 0.8; stroke-linecap: square"/>
     </g>
     <g id="line2d_10">
      <g>
       <use xlink:href="#mbe938c5508" x="334.076852" y="307.584" style="stroke: #000000; stroke-width: 0.8"/>
      </g>
     </g>
     <g id="text_5">
      <!-- 400 -->
      <g transform="translate(324.533102 322.182437)scale(0.1 -0.1)">
       <defs>
        <path id="DejaVuSans-34" d="M 2419 4116 
L 825 1625 
L 2419 1625 
L 2419 4116 
z
M 2253 4666 
L 3047 4666 
L 3047 1625 
L 3713 1625 
L 3713 1100 
L 3047 1100 
L 3047 0 
L 2419 0 
L 2419 1100 
L 313 1100 
L 313 1709 
L 2253 4666 
z
" transform="scale(0.015625)"/>
       </defs>
       <use xlink:href="#DejaVuSans-34"/>
       <use xlink:href="#DejaVuSans-30" x="63.623047"/>
       <use xlink:href="#DejaVuSans-30" x="127.246094"/>
      </g>
     </g>
    </g>
    <g id="xtick_6">
     <g id="line2d_11">
      <path d="M 399.137883 307.584 
L 399.137883 41.472 
" clip-path="url(#p15bfa4cbfc)" style="fill: none; stroke: #b0b0b0; stroke-width: 0.8; stroke-linecap: square"/>
     </g>
     <g id="line2d_12">
      <g>
       <use xlink:href="#mbe938c5508" x="399.137883" y="307.584" style="stroke: #000000; stroke-width: 0.8"/>
      </g>
     </g>
     <g id="text_6">
      <!-- 500 -->
      <g transform="translate(389.594133 322.182437)scale(0.1 -0.1)">
       <defs>
        <path id="DejaVuSans-35" d="M 691 4666 
L 3169 4666 
L 3169 4134 
L 1269 4134 
L 1269 2991 
Q 1406 3038 1543 3061 
Q 1681 3084 1819 3084 
Q 2600 3084 3056 2656 
Q 3513 2228 3513 1497 
Q 3513 744 3044 326 
Q 2575 -91 1722 -91 
Q 1428 -91 1123 -41 
Q 819 9 494 109 
L 494 744 
Q 775 591 1075 516 
Q 1375 441 1709 441 
Q 2250 441 2565 725 
Q 2881 1009 2881 1497 
Q 2881 1984 2565 2268 
Q 2250 2553 1709 2553 
Q 1456 2553 1204 2497 
Q 953 2441 691 2322 
L 691 4666 
z
" transform="scale(0.015625)"/>
       </defs>
       <use xlink:href="#DejaVuSans-35"/>
       <use xlink:href="#DejaVuSans-30" x="63.623047"/>
       <use xlink:href="#DejaVuSans-30" x="127.246094"/>
      </g>
     </g>
    </g>
    <g id="text_7">
     <!-- Generations -->
     <g transform="translate(205.662344 335.860562)scale(0.1 -0.1)">
      <defs>
       <path id="DejaVuSans-47" d="M 3809 666 
L 3809 1919 
L 2778 1919 
L 2778 2438 
L 4434 2438 
L 4434 434 
Q 4069 175 3628 42 
Q 3188 -91 2688 -91 
Q 1594 -91 976 548 
Q 359 1188 359 2328 
Q 359 3472 976 4111 
Q 1594 4750 2688 4750 
Q 3144 4750 3555 4637 
Q 3966 4525 4313 4306 
L 4313 3634 
Q 3963 3931 3569 4081 
Q 3175 4231 2741 4231 
Q 1884 4231 1454 3753 
Q 1025 3275 1025 2328 
Q 1025 1384 1454 906 
Q 1884 428 2741 428 
Q 3075 428 3337 486 
Q 3600 544 3809 666 
z
" transform="scale(0.015625)"/>
       <path id="DejaVuSans-65" d="M 3597 1894 
L 3597 1613 
L 953 1613 
Q 991 1019 1311 708 
Q 1631 397 2203 397 
Q 2534 397 2845 478 
Q 3156 559 3463 722 
L 3463 178 
Q 3153 47 2828 -22 
Q 2503 -91 2169 -91 
Q 1331 -91 842 396 
Q 353 884 353 1716 
Q 353 2575 817 3079 
Q 1281 3584 2069 3584 
Q 2775 3584 3186 3129 
Q 3597 2675 3597 1894 
z
M 3022 2063 
Q 3016 2534 2758 2815 
Q 2500 3097 2075 3097 
Q 1594 3097 1305 2825 
Q 1016 2553 972 2059 
L 3022 2063 
z
" transform="scale(0.015625)"/>
       <path id="DejaVuSans-6e" d="M 3513 2113 
L 3513 0 
L 2938 0 
L 2938 2094 
Q 2938 2591 2744 2837 
Q 2550 3084 2163 3084 
Q 1697 3084 1428 2787 
Q 1159 2491 1159 1978 
L 1159 0 
L 581 0 
L 581 3500 
L 1159 3500 
L 1159 2956 
Q 1366 3272 1645 3428 
Q 1925 3584 2291 3584 
Q 2894 3584 3203 3211 
Q 3513 2838 3513 2113 
z
" transform="scale(0.015625)"/>
       <path id="DejaVuSans-72" d="M 2631 2963 
Q 2534 3019 2420 3045 
Q 2306 3072 2169 3072 
Q 1681 3072 1420 2755 
Q 1159 2438 1159 1844 
L 1159 0 
L 581 0 
L 581 3500 
L 1159 3500 
L 1159 2956 
Q 1341 3275 1631 3429 
Q 1922 3584 2338 3584 
Q 2397 3584 2469 3576 
Q 2541 3569 2628 3553 
L 2631 2963 
z
" transform="scale(0.015625)"/>
       <path id="DejaVuSans-61" d="M 2194 1759 
Q 1497 1759 1228 1600 
Q 959 1441 959 1056 
Q 959 750 1161 570 
Q 1363 391 1709 391 
Q 2188 391 2477 730 
Q 2766 1069 2766 1631 
L 2766 1759 
L 2194 1759 
z
M 3341 1997 
L 3341 0 
L 2766 0 
L 2766 531 
Q 2569 213 2275 61 
Q 1981 -91 1556 -91 
Q 1019 -91 701 211 
Q 384 513 384 1019 
Q 384 1609 779 1909 
Q 1175 2209 1959 2209 
L 2766 2209 
L 2766 2266 
Q 2766 2663 2505 2880 
Q 2244 3097 1772 3097 
Q 1472 3097 1187 3025 
Q 903 2953 641 2809 
L 641 3341 
Q 956 3463 1253 3523 
Q 1550 3584 1831 3584 
Q 2591 3584 2966 3190 
Q 3341 2797 3341 1997 
z
" transform="scale(0.015625)"/>
       <path id="DejaVuSans-74" d="M 1172 4494 
L 1172 3500 
L 2356 3500 
L 2356 3053 
L 1172 3053 
L 1172 1153 
Q 1172 725 1289 603 
Q 1406 481 1766 481 
L 2356 481 
L 2356 0 
L 1766 0 
Q 1100 0 847 248 
Q 594 497 594 1153 
L 594 3053 
L 172 3053 
L 172 3500 
L 594 3500 
L 594 4494 
L 1172 4494 
z
" transform="scale(0.015625)"/>
       <path id="DejaVuSans-69" d="M 603 3500 
L 1178 3500 
L 1178 0 
L 603 0 
L 603 3500 
z
M 603 4863 
L 1178 4863 
L 1178 4134 
L 603 4134 
L 603 4863 
z
" transform="scale(0.015625)"/>
       <path id="DejaVuSans-6f" d="M 1959 3097 
Q 1497 3097 1228 2736 
Q 959 2375 959 1747 
Q 959 1119 1226 758 
Q 1494 397 1959 397 
Q 2419 397 2687 759 
Q 2956 1122 2956 1747 
Q 2956 2369 2687 2733 
Q 2419 3097 1959 3097 
z
M 1959 3584 
Q 2709 3584 3137 3096 
Q 3566 2609 3566 1747 
Q 3566 888 3137 398 
Q 2709 -91 1959 -91 
Q 1206 -91 779 398 
Q 353 888 353 1747 
Q 353 2609 779 3096 
Q 1206 3584 1959 3584 
z
" transform="scale(0.015625)"/>
       <path id="DejaVuSans-73" d="M 2834 3397 
L 2834 2853 
Q 2591 2978 2328 3040 
Q 2066 3103 1784 3103 
Q 1356 3103 1142 2972 
Q 928 2841 928 2578 
Q 928 2378 1081 2264 
Q 1234 2150 1697 2047 
L 1894 2003 
Q 2506 1872 2764 1633 
Q 3022 1394 3022 966 
Q 3022 478 2636 193 
Q 2250 -91 1575 -91 
Q 1294 -91 989 -36 
Q 684 19 347 128 
L 347 722 
Q 666 556 975 473 
Q 1284 391 1588 391 
Q 1994 391 2212 530 
Q 2431 669 2431 922 
Q 2431 1156 2273 1281 
Q 2116 1406 1581 1522 
L 1381 1569 
Q 847 1681 609 1914 
Q 372 2147 372 2553 
Q 372 3047 722 3315 
Q 1072 3584 1716 3584 
Q 2034 3584 2315 3537 
Q 2597 3491 2834 3397 
z
" transform="scale(0.015625)"/>
      </defs>
      <use xlink:href="#DejaVuSans-47"/>
      <use xlink:href="#DejaVuSans-65" x="77.490234"/>
      <use xlink:href="#DejaVuSans-6e" x="139.013672"/>
      <use xlink:href="#DejaVuSans-65" x="202.392578"/>
      <use xlink:href="#DejaVuSans-72" x="263.916016"/>
      <use xlink:href="#DejaVuSans-61" x="305.029297"/>
      <use xlink:href="#DejaVuSans-74" x="366.308594"/>
      <use xlink:href="#DejaVuSans-69" x="405.517578"/>
      <use xlink:href="#DejaVuSans-6f" x="433.300781"/>
      <use xlink:href="#DejaVuSans-6e" x="494.482422"/>
      <use xlink:href="#DejaVuSans-73" x="557.861328"/>
     </g>
    </g>
   </g>
   <g id="matplotlib.axis_2">
    <g id="ytick_1">
     <g id="line2d_13">
      <path d="M 57.6 290.81525 
L 414.72 290.81525 
" clip-path="url(#p15bfa4cbfc)" style="fill: none; stroke: #b0b0b0; stroke-width: 0.8; stroke-linecap: square"/>
     </g>
     <g id="line2d_14">
      <defs>
       <path id="m51f3b46f08" d="M 0 0 
L -3.5 0 
" style="stroke: #000000; stroke-width: 0.8"/>
      </defs>
      <g>
       <use xlink:href="#m51f3b46f08" x="57.6" y="290.81525" style="stroke: #000000; stroke-width: 0.8"/>
      </g>
     </g>
     <g id="text_8">
      <!-- $\mathdefault{0}$ -->
      <g transform="translate(44.2 294.614469)scale(0.1 -0.1)">
       <use xlink:href="#DejaVuSans-30" transform="translate(0 0.78125)"/>
      </g>
     </g>
    </g>
    <g id="ytick_2">
     <g id="line2d_15">
      <path d="M 57.6 219.473716 
L 414.72 219.473716 
" clip-path="url(#p15bfa4cbfc)" style="fill: none; stroke: #b0b0b0; stroke-width: 0.8; stroke-linecap: square"/>
     </g>
     <g id="line2d_16">
      <g>
       <use xlink:href="#m51f3b46f08" x="57.6" y="219.473716" style="stroke: #000000; stroke-width: 0.8"/>
      </g>
     </g>
     <g id="text_9">
      <!-- $\mathdefault{10^{0}}$ -->
      <g transform="translate(33 223.272934)scale(0.1 -0.1)">
       <use xlink:href="#DejaVuSans-31" transform="translate(0 0.765625)"/>
       <use xlink:href="#DejaVuSans-30" transform="translate(63.623047 0.765625)"/>
       <use xlink:href="#DejaVuSans-30" transform="translate(128.203125 39.046875)scale(0.7)"/>
      </g>
     </g>
    </g>
    <g id="ytick_3">
     <g id="line2d_17">
      <path d="M 57.6 58.374115 
L 414.72 58.374115 
" clip-path="url(#p15bfa4cbfc)" style="fill: none; stroke: #b0b0b0; stroke-width: 0.8; stroke-linecap: square"/>
     </g>
     <g id="line2d_18">
      <g>
       <use xlink:href="#m51f3b46f08" x="57.6" y="58.374115" style="stroke: #000000; stroke-width: 0.8"/>
      </g>
     </g>
     <g id="text_10">
      <!-- $\mathdefault{10^{1}}$ -->
      <g transform="translate(33 62.173334)scale(0.1 -0.1)">
       <use xlink:href="#DejaVuSans-31" transform="translate(0 0.684375)"/>
       <use xlink:href="#DejaVuSans-30" transform="translate(63.623047 0.684375)"/>
       <use xlink:href="#DejaVuSans-31" transform="translate(128.203125 38.965625)scale(0.7)"/>
      </g>
     </g>
    </g>
    <g id="text_11">
     <!-- Fitness -->
     <g transform="translate(26.920312 191.845187)rotate(-90)scale(0.1 -0.1)">
      <defs>
       <path id="DejaVuSans-46" d="M 628 4666 
L 3309 4666 
L 3309 4134 
L 1259 4134 
L 1259 2759 
L 3109 2759 
L 3109 2228 
L 1259 2228 
L 1259 0 
L 628 0 
L 628 4666 
z
" transform="scale(0.015625)"/>
      </defs>
      <use xlink:href="#DejaVuSans-46"/>
      <use xlink:href="#DejaVuSans-69" x="50.269531"/>
      <use xlink:href="#DejaVuSans-74" x="78.052734"/>
      <use xlink:href="#DejaVuSans-6e" x="117.261719"/>
      <use xlink:href="#DejaVuSans-65" x="180.640625"/>
      <use xlink:href="#DejaVuSans-73" x="242.164062"/>
      <use xlink:href="#DejaVuSans-73" x="294.263672"/>
     </g>
    </g>
   </g>
   <g id="line2d_19">
    <path d="M 73.832727 216.049322 
L 74.483338 215.621273 
L 75.133948 216.049322 
L 75.784558 214.194442 
L 76.435169 217.048103 
L 77.085779 216.620054 
L 77.736389 215.906639 
L 78.386999 215.906639 
L 79.03761 215.621273 
L 79.68822 214.765174 
L 80.33883 216.334688 
L 80.989441 215.621273 
L 81.640051 215.621273 
L 82.290661 214.622491 
L 82.941272 216.477371 
L 83.591882 215.763956 
L 84.242492 215.906639 
L 84.893103 214.337125 
L 85.543713 215.335907 
L 86.194323 215.763956 
L 86.844934 215.335907 
L 87.495544 213.481027 
L 88.146154 214.051759 
L 88.796764 214.337125 
L 89.447375 213.62371 
L 90.097985 213.195661 
L 90.748595 214.622491 
L 91.399206 214.765174 
L 92.049816 215.193223 
L 92.700426 214.765174 
L 93.351037 213.62371 
L 94.001647 213.338344 
L 94.652257 215.763956 
L 95.302868 213.766393 
L 95.953478 214.479808 
L 96.604088 214.907857 
L 97.905309 212.767611 
L 98.555919 213.195661 
L 99.206529 212.910294 
L 99.85714 213.195661 
L 101.15836 214.907857 
L 101.808971 213.481027 
L 102.459581 214.194442 
L 103.110191 215.335907 
L 103.760802 215.193223 
L 104.411412 214.337125 
L 105.062022 216.192005 
L 105.712633 214.765174 
L 106.363243 214.194442 
L 107.013853 216.334688 
L 107.664463 214.907857 
L 108.315074 214.622491 
L 108.965684 213.338344 
L 109.616294 215.906639 
L 110.917515 214.337125 
L 111.568125 215.47859 
L 112.218736 214.907857 
L 112.869346 216.049322 
L 113.519956 216.334688 
L 114.170567 215.05054 
L 114.821177 214.337125 
L 115.471787 216.477371 
L 116.122398 215.193223 
L 116.773008 215.906639 
L 117.423618 216.192005 
L 118.074228 214.051759 
L 118.724839 215.621273 
L 119.375449 213.909076 
L 120.026059 213.338344 
L 120.67667 213.766393 
L 121.32728 214.907857 
L 121.97789 213.481027 
L 123.279111 212.339562 
L 123.929721 213.338344 
L 124.580332 211.055415 
L 125.230942 213.766393 
L 125.881552 212.624928 
L 126.532163 212.624928 
L 127.182773 211.911513 
L 127.833383 212.196879 
L 128.483993 213.481027 
L 129.134604 213.338344 
L 129.785214 215.763956 
L 130.435824 213.338344 
L 131.086435 213.62371 
L 131.737045 211.911513 
L 132.387655 212.910294 
L 133.038266 214.622491 
L 134.339486 211.626147 
L 134.990097 212.482245 
L 135.640707 212.482245 
L 136.291317 211.911513 
L 136.941927 211.626147 
L 137.592538 212.196879 
L 138.243148 209.91395 
L 138.893758 213.052977 
L 139.544369 213.195661 
L 140.194979 210.912731 
L 140.845589 210.199316 
L 141.4962 206.346873 
L 142.14681 209.91395 
L 142.79742 206.774922 
L 143.448031 205.348092 
L 144.098641 206.061507 
L 144.749251 208.05907 
L 145.399862 202.92248 
L 146.050472 200.211501 
L 146.701082 201.352966 
L 147.351692 206.20419 
L 148.002303 203.635895 
L 148.652913 206.489556 
L 149.303523 207.202972 
L 149.954134 204.634676 
L 150.604744 203.778578 
L 151.255354 206.917606 
L 151.905965 202.49443 
L 152.556575 205.062726 
L 153.207185 197.500523 
L 153.857796 205.776141 
L 154.508406 202.066381 
L 155.159016 203.635895 
L 155.809627 201.352966 
L 156.460237 202.779797 
L 157.110847 199.498086 
L 157.761457 199.070037 
L 158.412068 194.646862 
L 159.062678 199.070037 
L 159.713288 196.929791 
L 160.363899 201.638332 
L 161.014509 196.787108 
L 161.665119 193.362714 
L 162.31573 196.359058 
L 162.96634 190.794419 
L 163.61695 190.651736 
L 164.267561 192.649299 
L 164.918171 185.943194 
L 165.568781 188.51149 
L 166.219392 183.660265 
L 166.870002 190.223687 
L 167.520612 192.221249 
L 168.171222 185.657828 
L 168.821833 185.943194 
L 169.472443 185.800511 
L 170.123053 185.229779 
L 170.773664 181.662702 
L 171.424274 176.954161 
L 172.074884 174.243183 
L 172.725495 186.799293 
L 173.376105 183.374899 
L 174.026715 187.084659 
L 174.677326 181.09197 
L 175.327936 189.652954 
L 175.978546 188.226124 
L 176.629156 188.654173 
L 177.279767 181.234653 
L 177.930377 176.811478 
L 178.580987 190.509053 
L 179.231598 181.662702 
L 179.882208 180.093189 
L 180.532818 196.359058 
L 181.183429 183.945631 
L 181.834039 187.655391 
L 182.484649 187.227342 
L 183.13526 186.085878 
L 183.78587 187.655391 
L 184.43648 194.218812 
L 185.087091 193.362714 
L 185.737701 190.36637 
L 186.388311 195.645643 
L 187.038921 194.504179 
L 187.689532 186.941976 
L 188.340142 182.94685 
L 188.990752 179.807823 
L 189.641363 190.651736 
L 190.291973 186.513927 
L 190.942583 194.932228 
L 191.593194 188.939539 
L 192.243804 184.944413 
L 192.894414 186.085878 
L 193.545025 186.799293 
L 194.195635 187.940757 
L 194.846245 180.093189 
L 195.496856 179.522456 
L 196.147466 183.089533 
L 196.798076 183.945631 
L 197.448686 184.373681 
L 198.099297 193.933446 
L 198.749907 178.380992 
L 199.400517 194.646862 
L 200.701738 183.802948 
L 201.352348 184.659047 
L 202.002959 189.367588 
L 202.653569 192.934665 
L 203.304179 188.226124 
L 203.95479 190.794419 
L 204.6054 186.371244 
L 205.25601 183.232216 
L 205.906621 184.373681 
L 206.557231 190.937102 
L 207.207841 187.512708 
L 207.858451 185.087096 
L 208.509062 188.654173 
L 209.159672 189.082222 
L 209.810282 187.084659 
L 210.460893 186.65661 
L 211.111503 185.515145 
L 211.762113 182.518801 
L 212.412724 183.660265 
L 213.063334 182.518801 
L 213.713944 187.227342 
L 214.364555 173.672451 
L 215.015165 187.370025 
L 215.665775 172.24562 
L 216.316385 169.677325 
L 216.966996 170.105374 
L 217.617606 173.672451 
L 218.268216 180.806604 
L 218.918827 155.97975 
L 219.569437 177.096844 
L 220.220047 174.528549 
L 220.870658 153.839504 
L 221.521268 173.101718 
L 222.171878 176.240746 
L 222.822489 163.541953 
L 223.473099 161.401707 
L 224.123709 172.102937 
L 224.77432 166.110248 
L 225.42493 182.233435 
L 226.07554 167.109029 
L 226.72615 170.818789 
L 227.376761 175.52733 
L 228.027371 168.821226 
L 228.677981 178.238309 
L 229.328592 169.962691 
L 229.979202 179.807823 
L 230.629812 182.94685 
L 231.280423 173.672451 
L 231.931033 179.094407 
L 232.581643 185.515145 
L 233.232254 184.80173 
L 233.882864 185.229779 
L 235.184085 179.379773 
L 235.834695 178.809041 
L 236.485305 177.38221 
L 237.135915 184.230998 
L 237.786526 174.956598 
L 238.437136 173.957817 
L 239.087746 173.387084 
L 239.738357 170.676106 
L 240.388967 178.951724 
L 241.039577 174.528549 
L 241.690188 185.229779 
L 242.340798 186.228561 
L 242.991408 182.94685 
L 243.642019 182.94685 
L 244.292629 184.944413 
L 244.943239 180.949287 
L 245.59385 188.654173 
L 246.24446 184.659047 
L 246.89507 183.089533 
L 247.54568 179.665139 
L 248.196291 179.807823 
L 248.846901 176.098063 
L 249.497511 174.385866 
L 250.148122 177.38221 
L 250.798732 177.38221 
L 251.449342 179.094407 
L 252.099953 174.956598 
L 253.401173 189.367588 
L 254.051784 182.94685 
L 255.353004 188.08344 
L 256.003615 181.805385 
L 256.654225 183.660265 
L 257.304835 180.093189 
L 257.955445 180.235872 
L 258.606056 183.232216 
L 259.256666 178.666358 
L 259.907276 175.670014 
L 260.557887 167.394396 
L 261.208497 172.24562 
L 261.859107 170.105374 
L 262.509718 188.654173 
L 263.160328 182.94685 
L 263.810938 184.516364 
L 264.461549 180.521238 
L 265.112159 168.821226 
L 265.762769 179.522456 
L 266.413379 166.966346 
L 267.06399 179.665139 
L 267.7146 187.512708 
L 268.36521 173.244401 
L 269.015821 183.089533 
L 269.666431 175.384647 
L 270.317041 182.518801 
L 270.967652 181.805385 
L 271.618262 175.384647 
L 272.919483 164.8261 
L 273.570093 168.250494 
L 274.220703 179.23709 
L 274.871314 182.233435 
L 276.172534 165.396833 
L 276.823144 167.394396 
L 277.473755 172.816352 
L 278.124365 181.520019 
L 278.774975 179.23709 
L 279.425586 183.802948 
L 280.076196 169.820008 
L 280.726806 181.948069 
L 281.377417 177.239527 
L 282.028027 179.094407 
L 282.678637 179.522456 
L 283.329248 175.52733 
L 284.630468 164.683417 
L 285.281079 176.811478 
L 285.931689 176.954161 
L 286.582299 182.804167 
L 287.232909 178.523675 
L 287.88352 175.812697 
L 288.53413 181.948069 
L 289.18474 172.673669 
L 289.835351 176.811478 
L 291.136571 167.679762 
L 291.787182 169.391959 
L 292.437792 160.973657 
L 293.088402 167.251712 
L 293.739013 178.666358 
L 294.389623 167.394396 
L 295.040233 167.537079 
L 295.690844 174.385866 
L 296.341454 173.957817 
L 296.992064 168.678543 
L 297.642674 177.81026 
L 298.293285 181.662702 
L 298.943895 176.811478 
L 299.594505 178.238309 
L 300.245116 174.528549 
L 300.895726 183.089533 
L 301.546336 170.39074 
L 302.196947 168.821226 
L 302.847557 174.813915 
L 303.498167 177.952943 
L 304.148778 174.671232 
L 304.799388 172.959035 
L 305.449998 175.670014 
L 306.100608 166.110248 
L 306.751219 172.102937 
L 307.401829 180.235872 
L 308.052439 165.25415 
L 309.35366 178.951724 
L 310.654881 170.961472 
L 311.305491 174.528549 
L 311.956101 170.961472 
L 312.606712 171.674888 
L 313.257322 185.372462 
L 313.907932 175.52733 
L 314.558543 182.661484 
L 315.209153 172.959035 
L 315.859763 174.671232 
L 316.510373 170.105374 
L 317.160984 163.256587 
L 317.811594 170.533423 
L 318.462204 165.25415 
L 319.112815 183.945631 
L 319.763425 174.243183 
L 320.414035 167.109029 
L 321.064646 174.671232 
L 321.715256 169.249275 
L 322.365866 177.38221 
L 323.016477 176.668795 
L 323.667087 185.515145 
L 324.317697 173.672451 
L 324.968308 172.959035 
L 325.618918 177.38221 
L 326.269528 174.528549 
L 326.920138 167.995903 
L 327.570749 167.822445 
L 328.221359 178.767075 
L 329.52258 184.676518 
L 330.17319 168.53586 
L 330.8238 176.959985 
L 331.474411 181.09197 
L 332.125021 176.109254 
L 332.775631 182.090752 
L 334.076852 176.383429 
L 334.727462 176.383429 
L 335.378073 183.945631 
L 336.028683 178.380992 
L 336.679293 183.374899 
L 337.329903 176.668795 
L 337.980514 171.960254 
L 338.631124 183.802948 
L 339.281734 158.119996 
L 340.582955 175.269941 
L 341.233565 180.378555 
L 341.884176 175.969368 
L 342.534786 176.52891 
L 343.185396 160.260242 
L 343.836007 169.962691 
L 344.486617 148.423371 
L 345.137227 180.235872 
L 345.787837 161.972439 
L 346.438448 174.1005 
L 347.089058 171.427376 
L 347.739668 180.235872 
L 348.390279 168.963909 
L 349.040889 178.238309 
L 349.691499 177.38221 
L 350.34211 174.528549 
L 350.99272 180.663921 
L 351.64333 167.679762 
L 352.293941 169.820008 
L 352.944551 167.537079 
L 353.595161 170.676106 
L 354.896382 178.951724 
L 355.546992 173.957817 
L 356.197602 166.966346 
L 356.848213 175.670014 
L 357.498823 167.965128 
L 358.149433 171.674888 
L 358.800044 163.541953 
L 359.450654 174.528549 
L 360.101264 181.520019 
L 360.751875 171.104155 
L 361.402485 177.239527 
L 362.053095 170.105374 
L 362.703706 177.38221 
L 363.354316 179.379773 
L 364.004926 177.096844 
L 364.655537 177.239527 
L 365.306147 163.256587 
L 365.956757 170.105374 
L 366.607367 170.533423 
L 367.257978 168.678543 
L 367.908588 166.110248 
L 368.559198 173.101718 
L 369.209809 172.24562 
L 369.860419 173.957817 
L 371.16164 171.960254 
L 371.81225 177.239527 
L 372.46286 180.949287 
L 373.113471 173.101718 
L 373.764081 167.537079 
L 374.414691 172.24562 
L 375.065302 175.099281 
L 375.715912 164.8261 
L 376.366522 178.380992 
L 377.017132 173.387084 
L 377.667743 180.949287 
L 378.318353 178.523675 
L 378.968963 177.524893 
L 379.619574 183.517582 
L 380.270184 181.662702 
L 381.571405 174.243183 
L 382.222015 173.529767 
L 382.872625 180.663921 
L 383.523236 180.093189 
L 384.173846 178.095626 
L 384.824456 160.117559 
L 385.475066 166.252931 
L 386.125677 169.106592 
L 386.776287 168.107811 
L 387.426897 169.677325 
L 388.077508 174.385866 
L 388.728118 180.378555 
L 389.378728 168.963909 
L 390.029339 173.529767 
L 390.679949 163.684636 
L 391.330559 174.813915 
L 391.98117 172.192463 
L 392.63178 183.374899 
L 393.28239 170.105374 
L 393.933001 162.828537 
L 394.583611 167.496312 
L 395.234221 168.107811 
L 395.884831 173.611301 
L 396.535442 177.39677 
L 397.186052 174.813915 
L 397.836662 176.086415 
L 398.487273 168.393177 
L 398.487273 168.393177 
" clip-path="url(#p15bfa4cbfc)" style="fill: none; stroke: #0000ff; stroke-width: 1.5; stroke-linecap: square"/>
   </g>
   <g id="line2d_20">
    <path d="M 73.832727 221.433599 
L 74.483338 221.540471 
L 75.133948 222.468474 
L 75.784558 220.044448 
L 76.435169 220.716474 
L 77.085779 221.562741 
L 77.736389 220.692374 
L 79.03761 222.345567 
L 79.68822 219.83193 
L 80.33883 221.101242 
L 80.989441 221.365928 
L 81.640051 221.365928 
L 82.290661 220.749562 
L 82.941272 220.779212 
L 83.591882 221.334081 
L 84.242492 220.246175 
L 84.893103 221.618157 
L 85.543713 220.297093 
L 86.194323 220.755824 
L 86.844934 220.087488 
L 87.495544 220.666362 
L 88.146154 220.676926 
L 88.796764 220.881909 
L 89.447375 220.113829 
L 90.097985 219.833108 
L 90.748595 221.530474 
L 91.399206 221.843463 
L 92.049816 220.13591 
L 92.700426 221.083634 
L 93.351037 220.420278 
L 94.001647 221.536104 
L 94.652257 220.955738 
L 95.302868 219.649366 
L 95.953478 221.506134 
L 96.604088 219.800867 
L 97.254698 220.147374 
L 97.905309 219.671172 
L 98.555919 220.831538 
L 99.206529 220.163311 
L 99.85714 222.291636 
L 100.50775 220.828829 
L 101.15836 221.714902 
L 101.808971 219.2522 
L 102.459581 219.867776 
L 103.110191 220.878552 
L 103.760802 221.076197 
L 104.411412 220.051578 
L 105.062022 221.177752 
L 105.712633 220.752765 
L 106.363243 221.008959 
L 107.013853 221.510761 
L 108.315074 220.229046 
L 108.965684 220.182671 
L 109.616294 221.292807 
L 110.266905 221.246753 
L 110.917515 220.881909 
L 111.568125 220.847721 
L 112.218736 220.00466 
L 112.869346 221.79929 
L 113.519956 220.653061 
L 114.170567 220.17324 
L 114.821177 220.397377 
L 115.471787 221.009665 
L 116.122398 220.719315 
L 117.423618 221.377902 
L 118.074228 220.676926 
L 118.724839 221.540471 
L 119.375449 221.631117 
L 120.026059 222.250041 
L 121.32728 220.572213 
L 121.97789 220.94432 
L 122.628501 220.572787 
L 123.279111 220.659343 
L 123.929721 220.88977 
L 124.580332 220.80496 
L 125.230942 220.900546 
L 125.881552 220.816477 
L 126.532163 222.402623 
L 127.833383 222.029596 
L 128.483993 220.806659 
L 129.134604 223.224746 
L 129.785214 222.642404 
L 130.435824 223.920965 
L 131.737045 221.839015 
L 132.387655 221.086918 
L 133.038266 221.530474 
L 133.688876 220.636687 
L 134.339486 220.790133 
L 134.990097 220.739392 
L 135.640707 220.861763 
L 136.291317 221.631781 
L 136.941927 218.356494 
L 137.592538 218.963427 
L 138.243148 220.930155 
L 138.893758 219.932906 
L 139.544369 220.420554 
L 140.194979 221.590155 
L 140.845589 221.724894 
L 141.4962 218.896496 
L 142.14681 220.930155 
L 142.79742 223.735012 
L 143.448031 222.320181 
L 144.098641 218.388532 
L 144.749251 221.966095 
L 145.399862 221.928807 
L 146.050472 217.5843 
L 146.701082 221.891895 
L 147.351692 218.479081 
L 148.002303 219.478856 
L 148.652913 218.654491 
L 149.303523 219.80763 
L 149.954134 219.588515 
L 150.604744 218.606637 
L 151.255354 221.437667 
L 151.905965 221.948052 
L 152.556575 220.396343 
L 153.207185 216.040539 
L 153.857796 218.036926 
L 154.508406 221.690361 
L 155.159016 222.741046 
L 156.460237 218.384524 
L 157.110847 218.641028 
L 157.761457 219.147831 
L 158.412068 217.127484 
L 159.062678 221.036279 
L 159.713288 219.096697 
L 161.014509 217.693464 
L 161.665119 215.030349 
L 162.31573 220.385803 
L 162.96634 213.95527 
L 163.61695 224.082229 
L 164.267561 225.421708 
L 164.918171 219.985892 
L 165.568781 221.129788 
L 166.219392 218.155649 
L 166.870002 219.612589 
L 167.520612 221.832369 
L 168.171222 222.197232 
L 168.821833 228.203646 
L 169.472443 216.833341 
L 170.123053 223.222077 
L 170.773664 218.2422 
L 171.424274 216.955328 
L 172.074884 226.602426 
L 172.725495 222.301008 
L 173.376105 231.706564 
L 174.026715 226.061171 
L 174.677326 232.692962 
L 175.327936 227.529598 
L 175.978546 235.287533 
L 176.629156 240.893326 
L 177.279767 234.003474 
L 177.930377 217.029125 
L 178.580987 230.419779 
L 179.231598 224.16334 
L 179.882208 241.616566 
L 180.532818 233.307086 
L 181.183429 219.315207 
L 181.834039 227.713774 
L 182.484649 226.49086 
L 183.13526 228.734513 
L 183.78587 220.910343 
L 184.43648 229.666582 
L 185.087091 233.253032 
L 185.737701 233.52275 
L 186.388311 228.605432 
L 187.038921 229.577813 
L 188.340142 222.142904 
L 188.990752 218.230654 
L 189.641363 226.292812 
L 190.291973 222.971894 
L 190.942583 220.74012 
L 191.593194 223.890775 
L 192.243804 219.25843 
L 192.894414 221.367566 
L 193.545025 227.409862 
L 194.195635 230.052572 
L 194.846245 229.648397 
L 195.496856 222.422394 
L 196.147466 221.382064 
L 196.798076 220.808983 
L 197.448686 216.209596 
L 198.099297 234.115643 
L 198.749907 223.895772 
L 199.400517 225.719028 
L 200.051128 226.420401 
L 200.701738 228.355722 
L 201.352348 225.582979 
L 202.002959 232.675837 
L 202.653569 227.120289 
L 203.304179 232.799227 
L 203.95479 230.038488 
L 204.6054 228.788211 
L 205.25601 233.876465 
L 205.906621 226.017586 
L 206.557231 232.633772 
L 207.207841 236.820806 
L 208.509062 228.489078 
L 209.159672 228.204712 
L 209.810282 234.260998 
L 210.460893 234.471407 
L 211.111503 228.357147 
L 211.762113 231.918679 
L 212.412724 237.926559 
L 213.063334 233.560465 
L 213.713944 224.028511 
L 214.364555 240.323773 
L 215.015165 239.468887 
L 215.665775 245.347407 
L 216.316385 249.611558 
L 216.966996 245.496061 
L 217.617606 246.525956 
L 218.268216 235.940088 
L 218.918827 246.662109 
L 219.569437 254.795734 
L 220.220047 248.686006 
L 220.870658 249.202616 
L 221.521268 264.44396 
L 222.171878 239.076561 
L 222.822489 250.395517 
L 223.473099 242.743696 
L 224.123709 259.661527 
L 224.77432 260.207974 
L 225.42493 246.079763 
L 226.07554 263.824682 
L 226.72615 255.046406 
L 227.376761 250.573199 
L 228.027371 257.803883 
L 228.677981 237.003816 
L 229.328592 255.803011 
L 229.979202 266.588692 
L 230.629812 243.307691 
L 231.280423 255.25286 
L 231.931033 247.293481 
L 232.581643 242.882966 
L 233.232254 233.398041 
L 233.882864 250.755337 
L 234.533474 235.632369 
L 235.184085 244.357618 
L 235.834695 248.80014 
L 236.485305 241.988656 
L 237.135915 248.839964 
L 237.786526 243.139998 
L 238.437136 245.354833 
L 239.087746 241.025631 
L 239.738357 249.169433 
L 240.388967 248.901944 
L 241.039577 230.834152 
L 241.690188 257.281197 
L 242.340798 246.908467 
L 242.991408 243.257078 
L 243.642019 235.442586 
L 244.292629 232.936855 
L 244.943239 243.127026 
L 245.59385 240.658971 
L 246.24446 232.0599 
L 246.89507 255.847406 
L 247.54568 237.060102 
L 248.196291 242.167996 
L 248.846901 242.039255 
L 250.148122 248.91255 
L 250.798732 235.85181 
L 251.449342 238.26248 
L 252.099953 233.34449 
L 252.750563 231.583835 
L 253.401173 230.900127 
L 254.051784 232.69477 
L 254.702394 244.895249 
L 255.353004 250.19566 
L 256.003615 236.845553 
L 256.654225 239.988281 
L 257.304835 239.649313 
L 257.955445 242.204526 
L 258.606056 241.064464 
L 259.256666 242.667945 
L 259.907276 239.368216 
L 260.557887 249.163745 
L 261.208497 252.768567 
L 261.859107 238.709672 
L 262.509718 237.11267 
L 263.160328 247.338503 
L 263.810938 245.022229 
L 264.461549 235.859648 
L 265.112159 236.052816 
L 265.762769 242.916144 
L 266.413379 244.157227 
L 267.06399 255.624143 
L 267.7146 255.317047 
L 268.36521 256.494072 
L 269.015821 244.430808 
L 269.666431 261.524225 
L 270.317041 258.069317 
L 270.967652 259.695705 
L 271.618262 255.740554 
L 272.268872 262.333923 
L 272.919483 256.216917 
L 274.220703 272.230554 
L 274.871314 237.462842 
L 275.521924 262.22422 
L 276.172534 254.366219 
L 276.823144 259.932368 
L 277.473755 241.958188 
L 278.124365 247.962547 
L 278.774975 255.472588 
L 279.425586 258.162596 
L 280.076196 258.70778 
L 280.726806 243.032588 
L 281.377417 246.596415 
L 282.028027 276.57535 
L 282.678637 245.589494 
L 283.329248 243.931326 
L 283.979858 255.897826 
L 284.630468 230.741826 
L 285.281079 241.704673 
L 285.931689 250.307137 
L 286.582299 252.178224 
L 287.232909 243.828423 
L 287.88352 249.272171 
L 288.53413 255.686507 
L 289.18474 251.732966 
L 289.835351 232.503405 
L 290.485961 254.005014 
L 291.136571 248.655514 
L 291.787182 255.906505 
L 292.437792 261.785077 
L 293.088402 240.193887 
L 293.739013 250.901766 
L 294.389623 250.680863 
L 295.040233 261.491902 
L 295.690844 247.369894 
L 296.341454 256.219153 
L 296.992064 246.563635 
L 297.642674 257.79376 
L 298.293285 260.02481 
L 298.943895 259.043111 
L 299.594505 248.92463 
L 300.245116 244.023406 
L 300.895726 243.003681 
L 302.196947 256.883963 
L 302.847557 251.489438 
L 303.498167 252.486104 
L 304.148778 257.452501 
L 304.799388 265.276634 
L 305.449998 250.887271 
L 306.100608 255.651576 
L 306.751219 242.680738 
L 307.401829 258.246461 
L 308.052439 266.468655 
L 308.70305 255.321043 
L 309.35366 254.969 
L 310.00427 278.237459 
L 310.654881 270.860001 
L 311.305491 254.1535 
L 311.956101 254.987142 
L 312.606712 271.525005 
L 313.257322 258.312544 
L 313.907932 262.871747 
L 314.558543 264.804809 
L 315.209153 269.333395 
L 315.859763 238.656913 
L 316.510373 262.539778 
L 317.160984 252.460781 
L 317.811594 255.773989 
L 318.462204 261.657656 
L 319.112815 255.079831 
L 319.763425 251.616489 
L 320.414035 253.034688 
L 321.064646 262.673726 
L 321.715256 274.766853 
L 322.365866 261.664919 
L 323.016477 264.693957 
L 323.667087 262.014563 
L 324.317697 244.370291 
L 324.968308 270.383887 
L 325.618918 267.817279 
L 326.269528 259.016325 
L 326.920138 247.115142 
L 327.570749 261.348557 
L 328.221359 272.365749 
L 328.871969 272.186621 
L 329.52258 267.519415 
L 330.17319 286.980082 
L 330.8238 275.000873 
L 331.474411 255.886892 
L 332.775631 276.38645 
L 333.426242 266.718712 
L 334.076852 262.419781 
L 334.727462 261.444081 
L 335.378073 264.05795 
L 336.028683 262.896595 
L 336.679293 253.962075 
L 337.329903 274.132924 
L 337.980514 262.320552 
L 338.631124 262.434136 
L 339.932345 264.861136 
L 340.582955 269.333668 
L 341.233565 253.457363 
L 341.884176 259.349962 
L 342.534786 262.898803 
L 343.185396 257.413163 
L 343.836007 245.198892 
L 344.486617 287.46344 
L 345.137227 263.314306 
L 345.787837 263.422107 
L 346.438448 257.698167 
L 347.089058 268.390346 
L 347.739668 253.731503 
L 348.390279 265.186053 
L 349.040889 268.109276 
L 349.691499 261.313941 
L 350.34211 265.222132 
L 350.99272 265.319121 
L 351.64333 267.545781 
L 352.293941 248.437731 
L 352.944551 247.922749 
L 354.245772 261.672753 
L 354.896382 269.310107 
L 355.546992 258.139497 
L 356.197602 267.177816 
L 356.848213 266.10238 
L 357.498823 254.899874 
L 358.149433 286.472705 
L 358.800044 274.297105 
L 359.450654 275.846087 
L 360.101264 255.556447 
L 360.751875 262.980197 
L 361.402485 249.429828 
L 362.053095 268.202863 
L 362.703706 252.99414 
L 363.354316 266.823543 
L 364.004926 248.970174 
L 364.655537 258.629431 
L 365.306147 295.488 
L 365.956757 257.081677 
L 366.607367 267.09529 
L 367.257978 273.8258 
L 367.908588 252.880326 
L 368.559198 260.956146 
L 369.209809 257.353289 
L 369.860419 283.906116 
L 370.511029 266.926859 
L 371.16164 270.34548 
L 371.81225 258.416538 
L 372.46286 259.748587 
L 373.113471 271.172328 
L 373.764081 287.450632 
L 374.414691 266.122947 
L 375.065302 262.291245 
L 375.715912 266.558328 
L 376.366522 251.617307 
L 377.017132 267.970032 
L 377.667743 276.162844 
L 378.318353 251.163371 
L 378.968963 267.68253 
L 379.619574 259.031307 
L 380.270184 252.204294 
L 381.571405 280.181013 
L 382.222015 268.680868 
L 382.872625 259.607253 
L 383.523236 264.291192 
L 384.173846 251.726172 
L 384.824456 270.274432 
L 385.475066 265.458305 
L 386.125677 255.949022 
L 386.776287 266.476379 
L 387.426897 273.723419 
L 388.077508 255.783274 
L 388.728118 248.302889 
L 389.378728 252.086319 
L 390.029339 262.522834 
L 390.679949 257.592319 
L 391.330559 259.06715 
L 391.98117 258.602449 
L 392.63178 247.461838 
L 393.28239 253.630926 
L 393.933001 257.885985 
L 395.234221 248.08673 
L 395.884831 248.642873 
L 396.535442 254.843166 
L 397.186052 251.063432 
L 397.836662 273.520239 
L 398.487273 247.326193 
L 398.487273 247.326193 
" clip-path="url(#p15bfa4cbfc)" style="fill: none; stroke-dasharray: 9.6,2.4,1.5,2.4; stroke-dashoffset: 0; stroke: #008000; stroke-width: 1.5"/>
   </g>
   <g id="line2d_21">
    <path d="M 73.832727 210.665044 
L 74.483338 209.702075 
L 75.133948 209.630169 
L 75.784558 208.344436 
L 76.435169 213.379733 
L 77.085779 211.677368 
L 77.736389 211.120903 
L 78.386999 210.334687 
L 79.03761 208.896978 
L 79.68822 209.698418 
L 80.33883 211.568134 
L 80.989441 209.876618 
L 81.640051 209.876618 
L 82.290661 208.49542 
L 82.941272 212.17553 
L 83.591882 210.193831 
L 84.242492 211.567103 
L 84.893103 207.056093 
L 85.543713 210.37472 
L 86.194323 210.772087 
L 86.844934 210.584325 
L 87.495544 206.295691 
L 88.146154 207.426592 
L 88.796764 207.792341 
L 90.097985 206.558213 
L 90.748595 207.714508 
L 91.399206 207.686886 
L 92.049816 210.250537 
L 94.001647 205.140584 
L 94.652257 210.572174 
L 95.302868 207.883419 
L 95.953478 207.453482 
L 96.604088 210.014847 
L 97.254698 207.385412 
L 97.905309 205.864051 
L 98.555919 205.559783 
L 99.206529 205.657277 
L 99.85714 204.099685 
L 100.50775 207.274689 
L 101.15836 208.100813 
L 101.808971 207.709854 
L 102.459581 208.521108 
L 103.110191 209.793262 
L 103.760802 209.31025 
L 104.411412 208.622673 
L 105.062022 211.206258 
L 105.712633 208.777583 
L 106.363243 207.379925 
L 107.013853 211.158615 
L 107.664463 208.89482 
L 108.315074 209.015936 
L 108.965684 206.494017 
L 109.616294 210.520471 
L 110.917515 207.792341 
L 111.568125 210.109458 
L 112.218736 209.811055 
L 112.869346 210.299354 
L 113.519956 212.016315 
L 114.170567 209.927841 
L 114.821177 208.276873 
L 115.471787 211.945078 
L 116.122398 209.667132 
L 116.773008 210.712897 
L 117.423618 211.006108 
L 118.074228 207.426592 
L 118.724839 209.702075 
L 119.375449 206.187034 
L 120.026059 204.426647 
L 120.67667 206.082674 
L 121.32728 209.243501 
L 121.97789 206.017734 
L 122.628501 205.247802 
L 123.279111 204.019781 
L 123.929721 205.786917 
L 124.580332 201.305869 
L 125.230942 206.632239 
L 125.881552 204.433379 
L 126.532163 202.847233 
L 127.182773 201.582008 
L 127.833383 202.364162 
L 128.483993 206.155394 
L 129.134604 203.451941 
L 129.785214 208.885507 
L 130.435824 202.755722 
L 131.086435 204.410979 
L 131.737045 201.984011 
L 133.038266 207.714508 
L 133.688876 205.469268 
L 134.339486 202.462161 
L 134.990097 204.225098 
L 135.640707 204.102727 
L 136.291317 202.191245 
L 136.941927 204.8958 
L 137.592538 205.430331 
L 138.243148 198.897745 
L 138.893758 206.173049 
L 139.544369 205.970767 
L 140.194979 200.235308 
L 140.845589 198.673739 
L 141.4962 193.79725 
L 142.14681 198.897745 
L 142.79742 189.814832 
L 143.448031 188.376002 
L 144.098641 193.734483 
L 144.749251 194.152045 
L 145.399862 183.916152 
L 146.050472 182.838702 
L 146.701082 180.814037 
L 147.351692 193.929299 
L 148.002303 187.792933 
L 148.652913 194.324622 
L 149.303523 194.598314 
L 149.954134 189.680837 
L 150.604744 188.950519 
L 151.255354 192.397544 
L 151.905965 183.040809 
L 152.556575 189.729108 
L 153.207185 178.960507 
L 153.857796 193.515356 
L 154.508406 182.442401 
L 155.159016 184.530744 
L 155.809627 182.252078 
L 156.460237 187.175069 
L 157.110847 180.355144 
L 157.761457 178.992242 
L 158.412068 172.16624 
L 159.062678 177.103794 
L 159.713288 174.762884 
L 160.363899 184.922476 
L 161.014509 175.880751 
L 161.665119 171.695079 
L 162.31573 172.332314 
L 162.96634 167.633568 
L 163.61695 157.221242 
L 164.267561 159.876889 
L 164.918171 151.900497 
L 165.568781 155.893192 
L 166.219392 149.164881 
L 166.870002 160.834784 
L 167.520612 162.610129 
L 168.171222 149.118424 
L 168.821833 146.419617 
L 169.472443 154.767682 
L 170.123053 147.783566 
L 170.773664 146.952997 
L 171.424274 143.925358 
L 172.074884 138.714537 
L 172.725495 151.297578 
L 173.376105 143.237396 
L 174.026715 148.122788 
L 174.677326 141.284172 
L 175.327936 151.77631 
L 175.978546 145.473246 
L 176.629156 143.730701 
L 177.279767 140.930901 
L 177.930377 143.795325 
L 178.580987 150.598326 
L 179.231598 144.731875 
L 179.882208 137.631027 
L 180.532818 159.411031 
L 181.183429 148.576056 
L 181.834039 147.923392 
L 182.484649 148.066415 
L 183.13526 146.326639 
L 183.78587 154.40044 
L 184.43648 158.771043 
L 185.737701 147.772888 
L 186.388311 162.685854 
L 187.038921 159.430544 
L 187.689532 148.026849 
L 188.340142 146.445418 
L 188.990752 145.555397 
L 189.641363 155.010659 
L 190.291973 150.05596 
L 190.942583 169.124335 
L 191.593194 153.988303 
L 192.243804 150.630396 
L 192.894414 150.804189 
L 193.545025 147.377679 
L 194.195635 147.239115 
L 194.846245 141.647301 
L 195.496856 143.805701 
L 196.147466 146.843579 
L 196.798076 147.723314 
L 197.448686 152.537766 
L 198.099297 153.751249 
L 198.749907 142.46337 
L 199.400517 163.574695 
L 200.051128 151.458677 
L 200.701738 144.764286 
L 201.352348 146.439472 
L 202.002959 147.327809 
L 202.653569 158.74904 
L 203.304179 146.408352 
L 203.95479 151.550349 
L 204.6054 146.522636 
L 205.25601 142.365212 
L 206.557231 149.240432 
L 207.207841 144.380882 
L 207.858451 144.246241 
L 208.509062 148.819268 
L 209.159672 149.959732 
L 209.810282 145.006984 
L 210.460893 144.614227 
L 211.111503 146.03824 
L 211.762113 142.55267 
L 212.412724 141.250647 
L 213.063334 141.975049 
L 213.713944 150.426173 
L 214.364555 134.0118 
L 215.015165 143.319059 
L 215.665775 131.671346 
L 216.316385 129.001014 
L 216.966996 130.397281 
L 217.617606 132.160889 
L 218.268216 139.979714 
L 218.918827 122.602235 
L 219.569437 131.745336 
L 220.220047 132.029585 
L 220.870658 120.940431 
L 221.521268 126.829492 
L 222.171878 135.983318 
L 222.822489 125.492824 
L 223.473099 126.37788 
L 224.123709 127.577405 
L 224.77432 124.288091 
L 225.42493 137.571902 
L 226.07554 123.876912 
L 227.376761 132.061915 
L 228.027371 126.319391 
L 228.677981 137.924167 
L 229.328592 127.46343 
L 229.979202 129.919353 
L 230.629812 138.946796 
L 231.280423 129.65636 
L 232.581643 140.821595 
L 233.232254 143.655044 
L 233.882864 137.999542 
L 234.533474 141.254538 
L 235.184085 136.297614 
L 235.834695 134.559701 
L 236.485305 135.785887 
L 237.135915 137.972761 
L 237.786526 133.93662 
L 238.437136 132.674536 
L 239.087746 133.62698 
L 239.738357 129.68183 
L 240.388967 134.615979 
L 241.039577 137.518832 
L 241.690188 135.912141 
L 242.340798 139.937696 
L 242.991408 138.963578 
L 244.292629 143.924987 
L 244.943239 137.696384 
L 245.59385 143.815415 
L 246.24446 144.036092 
L 246.89507 135.025493 
L 247.54568 138.842192 
L 248.196291 137.268871 
L 249.497511 132.952297 
L 250.148122 133.658128 
L 250.798732 137.74213 
L 251.449342 138.071982 
L 252.099953 136.986842 
L 253.401173 148.016164 
L 254.051784 142.580972 
L 254.702394 140.03937 
L 255.353004 140.080476 
L 256.654225 140.542849 
L 257.304835 138.271652 
L 257.955445 137.533139 
L 258.606056 139.887544 
L 259.256666 136.380768 
L 259.907276 135.53462 
L 260.557887 127.870363 
L 261.208497 129.552796 
L 261.859107 132.361476 
L 262.509718 145.113282 
L 263.160328 137.626295 
L 263.810938 139.421041 
L 264.461549 139.814383 
L 265.112159 132.387571 
L 265.762769 136.846212 
L 266.413379 129.009995 
L 267.06399 133.014874 
L 267.7146 138.000894 
L 268.36521 129.070853 
L 269.015821 138.669762 
L 269.666431 128.863053 
L 270.317041 133.995767 
L 270.967652 133.077183 
L 271.618262 130.486667 
L 272.268872 125.878007 
L 272.919483 124.651918 
L 273.570093 124.268277 
L 274.220703 128.038745 
L 274.871314 140.430993 
L 275.521924 127.888404 
L 276.172534 125.424903 
L 276.823144 125.017714 
L 277.473755 133.005451 
L 278.124365 136.51159 
L 278.774975 132.805272 
L 279.425586 134.751661 
L 280.076196 126.609244 
L 280.726806 138.378685 
L 281.377417 134.273828 
L 282.028027 126.790554 
L 282.678637 135.999192 
L 283.329248 134.042822 
L 283.979858 127.437854 
L 285.281079 135.517931 
L 285.931689 132.983602 
L 286.582299 135.991234 
L 287.232909 135.924878 
L 287.88352 132.613075 
L 288.53413 134.373606 
L 289.18474 130.085233 
L 289.835351 138.462756 
L 290.485961 129.287014 
L 291.787182 127.128524 
L 292.437792 121.346571 
L 293.088402 130.282178 
L 293.739013 133.833005 
L 294.389623 127.459534 
L 295.040233 124.689637 
L 295.690844 132.332249 
L 296.341454 129.54546 
L 296.992064 129.293108 
L 297.642674 131.289433 
L 298.293285 132.894129 
L 298.943895 130.358946 
L 299.594505 134.173115 
L 300.245116 133.411977 
L 300.895726 139.142524 
L 301.546336 129.308971 
L 302.196947 126.563096 
L 302.847557 131.379562 
L 303.498167 132.929589 
L 304.799388 126.532027 
L 305.449998 132.053504 
L 306.100608 125.461717 
L 306.751219 132.368564 
L 307.401829 132.575228 
L 308.052439 122.292063 
L 308.70305 129.07962 
L 309.35366 132.785338 
L 310.00427 124.202315 
L 310.654881 124.04658 
L 311.305491 130.451032 
L 311.956101 128.227764 
L 312.606712 124.240256 
L 313.257322 135.678427 
L 313.907932 128.56995 
L 314.558543 132.072669 
L 315.209153 125.465819 
L 315.859763 135.134953 
L 316.510373 125.749329 
L 317.160984 124.810465 
L 317.811594 127.780149 
L 318.462204 123.487939 
L 319.112815 135.79706 
L 320.414035 126.676016 
L 321.064646 128.154758 
L 321.715256 122.216382 
L 322.365866 129.939813 
L 323.016477 128.696897 
L 323.667087 134.620342 
L 324.317697 132.797261 
L 324.968308 125.193016 
L 325.618918 128.230866 
L 326.269528 129.083641 
L 326.920138 128.761216 
L 327.570749 124.873262 
L 328.221359 127.746387 
L 328.871969 129.549111 
L 329.52258 132.459526 
L 330.17319 118.96325 
L 331.474411 133.792519 
L 332.125021 127.844022 
L 332.775631 128.463303 
L 333.426242 129.641991 
L 334.076852 129.168789 
L 334.727462 129.44089 
L 335.378073 133.052794 
L 336.028683 130.156267 
L 336.679293 135.789633 
L 337.329903 126.152076 
L 337.980514 126.786953 
L 338.631124 133.453439 
L 339.281734 119.56824 
L 339.932345 123.759203 
L 340.582955 126.682093 
L 341.233565 134.096407 
L 341.884176 129.795938 
L 342.534786 129.116496 
L 343.185396 122.063251 
L 343.836007 130.400638 
L 344.486617 110.249704 
L 345.137227 131.096348 
L 345.787837 121.433813 
L 346.438448 129.212137 
L 347.089058 124.916571 
L 347.739668 133.926633 
L 348.390279 124.474276 
L 349.040889 128.620733 
L 349.691499 130.038902 
L 350.34211 127.385937 
L 350.99272 130.766516 
L 351.64333 123.228019 
L 352.293941 129.407215 
L 352.944551 128.286773 
L 353.595161 128.238155 
L 355.546992 129.010181 
L 356.197602 122.963836 
L 356.848213 127.765169 
L 357.498823 126.63533 
L 358.149433 120.557851 
L 358.800044 119.591175 
L 359.450654 124.594409 
L 360.101264 134.152305 
L 360.751875 126.158256 
L 361.402485 133.41664 
L 362.053095 124.286909 
L 362.703706 132.440837 
L 363.354316 129.612586 
L 364.004926 133.468989 
L 364.655537 130.720988 
L 365.306147 114.712224 
L 365.956757 127.196061 
L 367.257978 122.167185 
L 367.908588 126.187799 
L 368.559198 127.767785 
L 369.209809 128.283088 
L 369.860419 122.284654 
L 370.511029 126.095848 
L 371.16164 124.687781 
L 371.81225 130.781919 
L 372.46286 132.552966 
L 373.764081 118.394359 
L 374.414691 125.932085 
L 375.065302 128.49415 
L 375.715912 122.059958 
L 376.366522 133.445303 
L 377.017132 126.046616 
L 377.667743 127.900455 
L 378.318353 133.66781 
L 378.968963 128.34591 
L 379.619574 134.310796 
L 380.270184 135.26997 
L 380.920794 128.5051 
L 381.571405 123.3511 
L 382.222015 125.934808 
L 382.872625 132.426179 
L 383.523236 130.734022 
L 384.173846 133.241545 
L 384.824456 118.932919 
L 386.125677 126.96429 
L 386.776287 123.711653 
L 387.426897 122.684854 
L 388.077508 129.9085 
L 388.728118 135.685256 
L 389.378728 127.929225 
L 390.029339 127.575337 
L 390.679949 123.721166 
L 391.330559 129.228245 
L 391.98117 127.913169 
L 392.63178 137.864036 
L 393.28239 128.130473 
L 393.933001 123.217353 
L 394.583611 126.87634 
L 395.234221 128.555084 
L 395.884831 131.507452 
L 396.535442 131.906517 
L 397.186052 131.503005 
L 397.836662 126.006766 
L 398.487273 128.922595 
L 398.487273 128.922595 
" clip-path="url(#p15bfa4cbfc)" style="fill: none; stroke-dasharray: 9.6,2.4,1.5,2.4; stroke-dashoffset: 0; stroke: #008000; stroke-width: 1.5"/>
   </g>
   <g id="line2d_22">
    <path d="M 73.832727 198.071255 
L 74.483338 190.937102 
L 75.133948 190.937102 
L 76.435169 205.205409 
L 77.085779 198.071255 
L 77.736389 205.205409 
L 78.386999 198.071255 
L 79.03761 183.802948 
L 79.68822 198.071255 
L 80.33883 205.205409 
L 80.989441 198.071255 
L 82.290661 198.071255 
L 82.941272 205.205409 
L 83.591882 198.071255 
L 84.242492 205.205409 
L 84.893103 190.937102 
L 85.543713 205.205409 
L 86.194323 205.205409 
L 87.495544 190.937102 
L 88.146154 198.071255 
L 88.796764 198.071255 
L 89.447375 190.937102 
L 90.097985 198.071255 
L 90.748595 190.937102 
L 91.399206 190.937102 
L 92.049816 198.071255 
L 92.700426 190.937102 
L 93.351037 198.071255 
L 94.001647 183.802948 
L 94.652257 198.071255 
L 95.302868 198.071255 
L 95.953478 190.937102 
L 96.604088 198.071255 
L 97.254698 190.937102 
L 97.905309 190.937102 
L 98.555919 183.802948 
L 99.206529 190.937102 
L 99.85714 169.534642 
L 100.50775 198.071255 
L 101.15836 183.802948 
L 101.808971 198.071255 
L 105.712633 198.071255 
L 106.363243 190.937102 
L 107.013853 198.071255 
L 108.315074 198.071255 
L 108.965684 190.937102 
L 109.616294 198.071255 
L 110.266905 190.937102 
L 110.917515 198.071255 
L 111.568125 198.071255 
L 112.218736 205.205409 
L 112.869346 190.937102 
L 113.519956 205.205409 
L 114.170567 198.071255 
L 115.471787 198.071255 
L 116.122398 205.205409 
L 116.773008 205.205409 
L 117.423618 198.071255 
L 118.724839 198.071255 
L 120.026059 169.534642 
L 120.67667 190.937102 
L 121.32728 198.071255 
L 121.97789 198.071255 
L 122.628501 183.802948 
L 123.929721 183.802948 
L 124.580332 169.534642 
L 125.230942 190.937102 
L 125.881552 176.668795 
L 126.532163 176.668795 
L 127.182773 155.266335 
L 128.483993 183.802948 
L 129.134604 162.400488 
L 129.785214 190.937102 
L 130.435824 169.534642 
L 131.086435 176.668795 
L 131.737045 176.668795 
L 133.038266 190.937102 
L 133.688876 190.937102 
L 134.339486 176.668795 
L 134.990097 190.937102 
L 135.640707 190.937102 
L 136.291317 176.668795 
L 136.941927 190.937102 
L 137.592538 183.802948 
L 138.243148 169.534642 
L 138.893758 190.937102 
L 139.544369 190.937102 
L 140.194979 169.534642 
L 142.14681 169.534642 
L 142.79742 142.81675 
L 143.448031 137.96414 
L 144.098641 155.266335 
L 144.749251 155.266335 
L 145.399862 148.132181 
L 146.050472 155.266335 
L 146.701082 148.132181 
L 147.351692 176.668795 
L 148.002303 155.266335 
L 148.652913 162.400488 
L 149.303523 162.400488 
L 149.954134 155.266335 
L 150.604744 169.534642 
L 151.255354 162.400488 
L 151.905965 142.81675 
L 152.556575 169.534642 
L 153.207185 148.132181 
L 153.857796 176.668795 
L 154.508406 140.337683 
L 155.159016 140.337683 
L 157.110847 162.400488 
L 157.761457 140.337683 
L 158.412068 142.81675 
L 159.062678 133.500173 
L 159.713288 142.81675 
L 160.363899 162.400488 
L 161.014509 140.337683 
L 161.665119 135.687505 
L 162.31573 135.687505 
L 162.96634 137.96414 
L 164.918171 112.336104 
L 165.568781 129.367184 
L 166.219392 120.204032 
L 167.520612 133.500173 
L 168.171222 120.204032 
L 168.821833 116.922508 
L 169.472443 133.500173 
L 170.123053 112.336104 
L 170.773664 127.410148 
L 171.424274 120.204032 
L 172.074884 110.887456 
L 172.725495 109.475486 
L 173.376105 106.754467 
L 174.026715 113.823387 
L 174.677326 104.160054 
L 175.327936 116.922508 
L 175.978546 101.680987 
L 176.629156 97.03081 
L 177.279767 108.098384 
L 177.930377 121.920162 
L 178.580987 121.920162 
L 179.231598 115.351423 
L 179.882208 104.160054 
L 180.532818 112.336104 
L 181.183429 127.410148 
L 181.834039 115.351423 
L 182.484649 116.922508 
L 183.13526 110.887456 
L 183.78587 125.519464 
L 184.43648 109.475486 
L 185.087091 100.48159 
L 185.737701 100.48159 
L 186.388311 116.922508 
L 187.038921 109.475486 
L 187.689532 113.823387 
L 188.340142 113.823387 
L 188.990752 118.539138 
L 189.641363 129.367184 
L 190.291973 112.336104 
L 190.942583 135.687505 
L 191.593194 113.823387 
L 192.243804 125.519464 
L 192.894414 123.690782 
L 193.545025 108.098384 
L 194.195635 118.539138 
L 194.846245 110.887456 
L 195.496856 112.336104 
L 196.147466 116.922508 
L 196.798076 118.539138 
L 197.448686 127.410148 
L 198.099297 109.475486 
L 198.749907 108.098384 
L 199.400517 118.539138 
L 200.051128 116.922508 
L 200.701738 113.823387 
L 201.352348 115.351423 
L 202.002959 101.680987 
L 202.653569 118.539138 
L 203.304179 102.906747 
L 203.95479 112.336104 
L 204.6054 102.906747 
L 205.25601 99.307445 
L 205.906621 104.160054 
L 206.557231 106.754467 
L 207.207841 94.843478 
L 207.858451 101.680987 
L 208.509062 115.351423 
L 209.810282 102.906747 
L 210.460893 112.336104 
L 211.111503 118.539138 
L 211.762113 101.680987 
L 212.412724 87.800099 
L 213.063334 101.680987 
L 213.713944 123.690782 
L 214.364555 87.800099 
L 215.015165 94.843478 
L 215.665775 81.547337 
L 216.316385 83.263467 
L 216.966996 77.474739 
L 217.617606 89.723387 
L 218.268216 105.442176 
L 218.918827 76.694728 
L 219.569437 74.418093 
L 220.220047 94.843478 
L 220.870658 82.398802 
L 221.521268 73.679409 
L 222.171878 85.034087 
L 222.822489 90.710489 
L 223.473099 85.940933 
L 224.123709 76.694728 
L 224.77432 74.418093 
L 225.42493 91.715378 
L 226.07554 72.950381 
L 226.72615 83.263467 
L 227.376761 82.398802 
L 228.027371 75.166692 
L 228.677981 101.680987 
L 229.328592 76.694728 
L 229.979202 70.125989 
L 230.629812 90.710489 
L 231.280423 83.263467 
L 231.931033 88.753453 
L 232.581643 95.926421 
L 233.232254 108.098384 
L 233.882864 88.753453 
L 234.533474 108.098384 
L 235.184085 80.708678 
L 236.485305 97.03081 
L 237.135915 85.940933 
L 237.786526 92.738706 
L 238.437136 93.781163 
L 239.087746 92.738706 
L 239.738357 77.474739 
L 240.388967 80.708678 
L 241.039577 95.926421 
L 241.690188 77.474739 
L 242.991408 97.03081 
L 243.642019 101.680987 
L 244.292629 110.887456 
L 244.943239 84.14175 
L 246.24446 108.098384 
L 246.89507 80.708678 
L 247.54568 88.753453 
L 248.196291 99.307445 
L 248.846901 87.800099 
L 249.497511 90.710489 
L 250.148122 87.800099 
L 250.798732 91.715378 
L 252.099953 98.157511 
L 252.750563 102.906747 
L 253.401173 104.160054 
L 254.051784 100.48159 
L 254.702394 85.940933 
L 255.353004 85.940933 
L 256.654225 95.926421 
L 257.304835 98.157511 
L 257.955445 90.710489 
L 258.606056 98.157511 
L 259.256666 95.926421 
L 259.907276 95.926421 
L 260.557887 79.882443 
L 261.208497 78.265813 
L 261.859107 95.926421 
L 262.509718 105.442176 
L 263.160328 92.738706 
L 263.810938 100.48159 
L 264.461549 102.906747 
L 265.112159 83.263467 
L 265.762769 88.753453 
L 267.06399 75.166692 
L 267.7146 84.14175 
L 268.36521 74.418093 
L 269.015821 92.738706 
L 269.666431 78.265813 
L 270.317041 78.265813 
L 270.967652 75.925477 
L 271.618262 79.06827 
L 272.268872 68.765682 
L 272.919483 83.263467 
L 273.570093 75.925477 
L 274.220703 65.503359 
L 274.871314 94.843478 
L 275.521924 66.785481 
L 276.172534 83.263467 
L 276.823144 82.398802 
L 277.473755 89.723387 
L 278.124365 93.781163 
L 278.774975 82.398802 
L 279.425586 89.723387 
L 280.076196 75.925477 
L 280.726806 90.710489 
L 281.377417 79.06827 
L 282.028027 64.250052 
L 282.678637 90.710489 
L 283.329248 90.710489 
L 283.979858 78.265813 
L 284.630468 89.723387 
L 285.281079 89.723387 
L 285.931689 76.694728 
L 286.582299 87.800099 
L 287.232909 85.034087 
L 287.88352 79.882443 
L 288.53413 81.547337 
L 289.18474 75.166692 
L 289.835351 100.48159 
L 290.485961 74.418093 
L 291.136571 84.14175 
L 292.437792 68.765682 
L 293.088402 83.263467 
L 293.739013 84.14175 
L 294.389623 75.166692 
L 295.040233 77.474739 
L 295.690844 87.800099 
L 296.341454 80.708678 
L 296.992064 84.14175 
L 297.642674 74.418093 
L 298.293285 80.708678 
L 298.943895 72.230761 
L 299.594505 86.862769 
L 300.245116 94.843478 
L 300.895726 99.307445 
L 301.546336 82.398802 
L 302.196947 75.925477 
L 302.847557 89.723387 
L 303.498167 82.398802 
L 304.148778 81.547337 
L 304.799388 70.125989 
L 305.449998 81.547337 
L 306.100608 75.166692 
L 306.751219 86.862769 
L 307.401829 85.940933 
L 308.052439 75.166692 
L 308.70305 79.882443 
L 309.35366 78.265813 
L 310.00427 71.520307 
L 310.654881 79.882443 
L 311.305491 79.882443 
L 311.956101 85.034087 
L 312.606712 70.818791 
L 313.257322 85.034087 
L 313.907932 82.398802 
L 314.558543 77.474739 
L 315.209153 74.418093 
L 315.859763 93.781163 
L 316.510373 76.694728 
L 317.160984 85.940933 
L 317.811594 77.474739 
L 318.462204 79.06827 
L 319.112815 85.034087 
L 319.763425 82.398802 
L 320.414035 82.398802 
L 321.064646 70.818791 
L 321.715256 66.785481 
L 322.365866 77.474739 
L 323.016477 75.925477 
L 323.667087 78.265813 
L 324.317697 93.781163 
L 324.968308 78.265813 
L 325.618918 75.166692 
L 326.269528 78.265813 
L 326.920138 79.882443 
L 327.570749 70.818791 
L 328.221359 72.230761 
L 328.871969 69.441688 
L 329.52258 79.06827 
L 330.17319 63.024292 
L 330.8238 61.824895 
L 331.474411 76.694728 
L 332.125021 75.166692 
L 332.775631 71.520307 
L 333.426242 79.06827 
L 334.076852 73.679409 
L 334.727462 79.882443 
L 335.378073 71.520307 
L 336.028683 77.474739 
L 336.679293 81.547337 
L 337.329903 61.234733 
L 337.980514 74.418093 
L 338.631124 79.882443 
L 339.281734 78.265813 
L 339.932345 68.097772 
L 340.582955 69.441688 
L 341.233565 83.263467 
L 341.884176 79.882443 
L 342.534786 72.230761 
L 343.185396 77.474739 
L 343.836007 92.738706 
L 344.486617 66.140736 
L 345.137227 75.925477 
L 345.787837 74.418093 
L 346.438448 80.708678 
L 347.089058 72.230761 
L 347.739668 85.940933 
L 348.390279 69.441688 
L 349.040889 66.140736 
L 349.691499 76.694728 
L 350.34211 73.679409 
L 350.99272 72.230761 
L 351.64333 63.633805 
L 352.293941 75.166692 
L 352.944551 83.263467 
L 353.595161 72.230761 
L 354.245772 74.418093 
L 354.896382 67.437767 
L 355.546992 82.398802 
L 356.197602 74.418093 
L 356.848213 73.679409 
L 357.498823 82.398802 
L 358.149433 57.269726 
L 358.800044 70.818791 
L 359.450654 69.441688 
L 360.101264 93.781163 
L 360.751875 80.708678 
L 361.402485 85.940933 
L 362.053095 70.818791 
L 362.703706 85.034087 
L 363.354316 79.882443 
L 364.004926 91.715378 
L 364.655537 79.06827 
L 365.306147 53.568 
L 365.956757 75.925477 
L 366.607367 71.520307 
L 367.257978 70.818791 
L 367.908588 85.940933 
L 368.559198 71.520307 
L 369.209809 75.166692 
L 369.860419 59.500816 
L 370.511029 68.765682 
L 371.16164 70.818791 
L 371.81225 74.418093 
L 372.46286 84.14175 
L 373.113471 71.520307 
L 373.764081 55.124468 
L 374.414691 75.925477 
L 375.065302 72.950381 
L 375.715912 69.441688 
L 376.366522 83.263467 
L 377.017132 68.097772 
L 377.667743 72.230761 
L 378.318353 84.14175 
L 378.968963 72.950381 
L 379.619574 79.882443 
L 380.270184 88.753453 
L 380.920794 80.708678 
L 381.571405 69.441688 
L 382.222015 66.140736 
L 382.872625 80.708678 
L 383.523236 75.166692 
L 384.173846 92.738706 
L 384.824456 67.437767 
L 386.125677 82.398802 
L 386.776287 69.441688 
L 387.426897 72.950381 
L 388.077508 75.166692 
L 388.728118 87.800099 
L 389.378728 84.14175 
L 390.029339 81.547337 
L 390.679949 72.230761 
L 391.330559 75.925477 
L 391.98117 72.950381 
L 392.63178 97.03081 
L 393.28239 76.694728 
L 393.933001 82.398802 
L 394.583611 79.882443 
L 395.884831 89.723387 
L 396.535442 86.862769 
L 397.186052 79.882443 
L 397.836662 75.166692 
L 398.487273 95.926421 
L 398.487273 95.926421 
" clip-path="url(#p15bfa4cbfc)" style="fill: none; stroke: #ff0000; stroke-width: 1.5; stroke-linecap: square"/>
   </g>
   <g id="patch_3">
    <path d="M 57.6 307.584 
L 57.6 41.472 
" style="fill: none; stroke: #000000; stroke-width: 0.8; stroke-linejoin: miter; stroke-linecap: square"/>
   </g>
   <g id="patch_4">
    <path d="M 414.72 307.584 
L 414.72 41.472 
" style="fill: none; stroke: #000000; stroke-width: 0.8; stroke-linejoin: miter; stroke-linecap: square"/>
   </g>
   <g id="patch_5">
    <path d="M 57.6 307.584 
L 414.72 307.584 
" style="fill: none; stroke: #000000; stroke-width: 0.8; stroke-linejoin: miter; stroke-linecap: square"/>
   </g>
   <g id="patch_6">
    <path d="M 57.6 41.472 
L 414.72 41.472 
" style="fill: none; stroke: #000000; stroke-width: 0.8; stroke-linejoin: miter; stroke-linecap: square"/>
   </g>
   <g id="text_12">
    <!-- Population's average and best fitness -->
    <g transform="translate(123.529687 35.472)scale(0.12 -0.12)">
     <defs>
      <path id="DejaVuSans-50" d="M 1259 4147 
L 1259 2394 
L 2053 2394 
Q 2494 2394 2734 2622 
Q 2975 2850 2975 3272 
Q 2975 3691 2734 3919 
Q 2494 4147 2053 4147 
L 1259 4147 
z
M 628 4666 
L 2053 4666 
Q 2838 4666 3239 4311 
Q 3641 3956 3641 3272 
Q 3641 2581 3239 2228 
Q 2838 1875 2053 1875 
L 1259 1875 
L 1259 0 
L 628 0 
L 628 4666 
z
" transform="scale(0.015625)"/>
      <path id="DejaVuSans-70" d="M 1159 525 
L 1159 -1331 
L 581 -1331 
L 581 3500 
L 1159 3500 
L 1159 2969 
Q 1341 3281 1617 3432 
Q 1894 3584 2278 3584 
Q 2916 3584 3314 3078 
Q 3713 2572 3713 1747 
Q 3713 922 3314 415 
Q 2916 -91 2278 -91 
Q 1894 -91 1617 61 
Q 1341 213 1159 525 
z
M 3116 1747 
Q 3116 2381 2855 2742 
Q 2594 3103 2138 3103 
Q 1681 3103 1420 2742 
Q 1159 2381 1159 1747 
Q 1159 1113 1420 752 
Q 1681 391 2138 391 
Q 2594 391 2855 752 
Q 3116 1113 3116 1747 
z
" transform="scale(0.015625)"/>
      <path id="DejaVuSans-75" d="M 544 1381 
L 544 3500 
L 1119 3500 
L 1119 1403 
Q 1119 906 1312 657 
Q 1506 409 1894 409 
Q 2359 409 2629 706 
Q 2900 1003 2900 1516 
L 2900 3500 
L 3475 3500 
L 3475 0 
L 2900 0 
L 2900 538 
Q 2691 219 2414 64 
Q 2138 -91 1772 -91 
Q 1169 -91 856 284 
Q 544 659 544 1381 
z
M 1991 3584 
L 1991 3584 
z
" transform="scale(0.015625)"/>
      <path id="DejaVuSans-6c" d="M 603 4863 
L 1178 4863 
L 1178 0 
L 603 0 
L 603 4863 
z
" transform="scale(0.015625)"/>
      <path id="DejaVuSans-27" d="M 1147 4666 
L 1147 2931 
L 616 2931 
L 616 4666 
L 1147 4666 
z
" transform="scale(0.015625)"/>
      <path id="DejaVuSans-20" transform="scale(0.015625)"/>
      <path id="DejaVuSans-76" d="M 191 3500 
L 800 3500 
L 1894 563 
L 2988 3500 
L 3597 3500 
L 2284 0 
L 1503 0 
L 191 3500 
z
" transform="scale(0.015625)"/>
      <path id="DejaVuSans-67" d="M 2906 1791 
Q 2906 2416 2648 2759 
Q 2391 3103 1925 3103 
Q 1463 3103 1205 2759 
Q 947 2416 947 1791 
Q 947 1169 1205 825 
Q 1463 481 1925 481 
Q 2391 481 2648 825 
Q 2906 1169 2906 1791 
z
M 3481 434 
Q 3481 -459 3084 -895 
Q 2688 -1331 1869 -1331 
Q 1566 -1331 1297 -1286 
Q 1028 -1241 775 -1147 
L 775 -588 
Q 1028 -725 1275 -790 
Q 1522 -856 1778 -856 
Q 2344 -856 2625 -561 
Q 2906 -266 2906 331 
L 2906 616 
Q 2728 306 2450 153 
Q 2172 0 1784 0 
Q 1141 0 747 490 
Q 353 981 353 1791 
Q 353 2603 747 3093 
Q 1141 3584 1784 3584 
Q 2172 3584 2450 3431 
Q 2728 3278 2906 2969 
L 2906 3500 
L 3481 3500 
L 3481 434 
z
" transform="scale(0.015625)"/>
      <path id="DejaVuSans-64" d="M 2906 2969 
L 2906 4863 
L 3481 4863 
L 3481 0 
L 2906 0 
L 2906 525 
Q 2725 213 2448 61 
Q 2172 -91 1784 -91 
Q 1150 -91 751 415 
Q 353 922 353 1747 
Q 353 2572 751 3078 
Q 1150 3584 1784 3584 
Q 2172 3584 2448 3432 
Q 2725 3281 2906 2969 
z
M 947 1747 
Q 947 1113 1208 752 
Q 1469 391 1925 391 
Q 2381 391 2643 752 
Q 2906 1113 2906 1747 
Q 2906 2381 2643 2742 
Q 2381 3103 1925 3103 
Q 1469 3103 1208 2742 
Q 947 2381 947 1747 
z
" transform="scale(0.015625)"/>
      <path id="DejaVuSans-62" d="M 3116 1747 
Q 3116 2381 2855 2742 
Q 2594 3103 2138 3103 
Q 1681 3103 1420 2742 
Q 1159 2381 1159 1747 
Q 1159 1113 1420 752 
Q 1681 391 2138 391 
Q 2594 391 2855 752 
Q 3116 1113 3116 1747 
z
M 1159 2969 
Q 1341 3281 1617 3432 
Q 1894 3584 2278 3584 
Q 2916 3584 3314 3078 
Q 3713 2572 3713 1747 
Q 3713 922 3314 415 
Q 2916 -91 2278 -91 
Q 1894 -91 1617 61 
Q 1341 213 1159 525 
L 1159 0 
L 581 0 
L 581 4863 
L 1159 4863 
L 1159 2969 
z
" transform="scale(0.015625)"/>
      <path id="DejaVuSans-66" d="M 2375 4863 
L 2375 4384 
L 1825 4384 
Q 1516 4384 1395 4259 
Q 1275 4134 1275 3809 
L 1275 3500 
L 2222 3500 
L 2222 3053 
L 1275 3053 
L 1275 0 
L 697 0 
L 697 3053 
L 147 3053 
L 147 3500 
L 697 3500 
L 697 3744 
Q 697 4328 969 4595 
Q 1241 4863 1831 4863 
L 2375 4863 
z
" transform="scale(0.015625)"/>
     </defs>
     <use xlink:href="#DejaVuSans-50"/>
     <use xlink:href="#DejaVuSans-6f" x="56.677734"/>
     <use xlink:href="#DejaVuSans-70" x="117.859375"/>
     <use xlink:href="#DejaVuSans-75" x="181.335938"/>
     <use xlink:href="#DejaVuSans-6c" x="244.714844"/>
     <use xlink:href="#DejaVuSans-61" x="272.498047"/>
     <use xlink:href="#DejaVuSans-74" x="333.777344"/>
     <use xlink:href="#DejaVuSans-69" x="372.986328"/>
     <use xlink:href="#DejaVuSans-6f" x="400.769531"/>
     <use xlink:href="#DejaVuSans-6e" x="461.951172"/>
     <use xlink:href="#DejaVuSans-27" x="525.330078"/>
     <use xlink:href="#DejaVuSans-73" x="552.820312"/>
     <use xlink:href="#DejaVuSans-20" x="604.919922"/>
     <use xlink:href="#DejaVuSans-61" x="636.707031"/>
     <use xlink:href="#DejaVuSans-76" x="697.986328"/>
     <use xlink:href="#DejaVuSans-65" x="757.166016"/>
     <use xlink:href="#DejaVuSans-72" x="818.689453"/>
     <use xlink:href="#DejaVuSans-61" x="859.802734"/>
     <use xlink:href="#DejaVuSans-67" x="921.082031"/>
     <use xlink:href="#DejaVuSans-65" x="984.558594"/>
     <use xlink:href="#DejaVuSans-20" x="1046.082031"/>
     <use xlink:href="#DejaVuSans-61" x="1077.869141"/>
     <use xlink:href="#DejaVuSans-6e" x="1139.148438"/>
     <use xlink:href="#DejaVuSans-64" x="1202.527344"/>
     <use xlink:href="#DejaVuSans-20" x="1266.003906"/>
     <use xlink:href="#DejaVuSans-62" x="1297.791016"/>
     <use xlink:href="#DejaVuSans-65" x="1361.267578"/>
     <use xlink:href="#DejaVuSans-73" x="1422.791016"/>
     <use xlink:href="#DejaVuSans-74" x="1474.890625"/>
     <use xlink:href="#DejaVuSans-20" x="1514.099609"/>
     <use xlink:href="#DejaVuSans-66" x="1545.886719"/>
     <use xlink:href="#DejaVuSans-69" x="1581.091797"/>
     <use xlink:href="#DejaVuSans-74" x="1608.875"/>
     <use xlink:href="#DejaVuSans-6e" x="1648.083984"/>
     <use xlink:href="#DejaVuSans-65" x="1711.462891"/>
     <use xlink:href="#DejaVuSans-73" x="1772.986328"/>
     <use xlink:href="#DejaVuSans-73" x="1825.085938"/>
    </g>
   </g>
   <g id="legend_1">
    <g id="patch_7">
     <path d="M 64.6 108.1845 
L 137.540625 108.1845 
Q 139.540625 108.1845 139.540625 106.1845 
L 139.540625 48.472 
Q 139.540625 46.472 137.540625 46.472 
L 64.6 46.472 
Q 62.6 46.472 62.6 48.472 
L 62.6 106.1845 
Q 62.6 108.1845 64.6 108.1845 
z
" style="fill: #ffffff; opacity: 0.8; stroke: #cccccc; stroke-linejoin: miter"/>
    </g>
    <g id="line2d_23">
     <path d="M 66.6 54.570438 
L 76.6 54.570438 
L 86.6 54.570438 
" style="fill: none; stroke: #0000ff; stroke-width: 1.5; stroke-linecap: square"/>
    </g>
    <g id="text_13">
     <!-- average -->
     <g transform="translate(94.6 58.070438)scale(0.1 -0.1)">
      <use xlink:href="#DejaVuSans-61"/>
      <use xlink:href="#DejaVuSans-76" x="61.279297"/>
      <use xlink:href="#DejaVuSans-65" x="120.458984"/>
      <use xlink:href="#DejaVuSans-72" x="181.982422"/>
      <use xlink:href="#DejaVuSans-61" x="223.095703"/>
      <use xlink:href="#DejaVuSans-67" x="284.375"/>
      <use xlink:href="#DejaVuSans-65" x="347.851562"/>
     </g>
    </g>
    <g id="line2d_24">
     <path d="M 66.6 69.248563 
L 76.6 69.248563 
L 86.6 69.248563 
" style="fill: none; stroke-dasharray: 9.6,2.4,1.5,2.4; stroke-dashoffset: 0; stroke: #008000; stroke-width: 1.5"/>
    </g>
    <g id="text_14">
     <!-- -1 sd -->
     <g transform="translate(94.6 72.748563)scale(0.1 -0.1)">
      <defs>
       <path id="DejaVuSans-2d" d="M 313 2009 
L 1997 2009 
L 1997 1497 
L 313 1497 
L 313 2009 
z
" transform="scale(0.015625)"/>
      </defs>
      <use xlink:href="#DejaVuSans-2d"/>
      <use xlink:href="#DejaVuSans-31" x="36.083984"/>
      <use xlink:href="#DejaVuSans-20" x="99.707031"/>
      <use xlink:href="#DejaVuSans-73" x="131.494141"/>
      <use xlink:href="#DejaVuSans-64" x="183.59375"/>
     </g>
    </g>
    <g id="line2d_25">
     <path d="M 66.6 83.926688 
L 76.6 83.926688 
L 86.6 83.926688 
" style="fill: none; stroke-dasharray: 9.6,2.4,1.5,2.4; stroke-dashoffset: 0; stroke: #008000; stroke-width: 1.5"/>
    </g>
    <g id="text_15">
     <!-- +1 sd -->
     <g transform="translate(94.6 87.426688)scale(0.1 -0.1)">
      <defs>
       <path id="DejaVuSans-2b" d="M 2944 4013 
L 2944 2272 
L 4684 2272 
L 4684 1741 
L 2944 1741 
L 2944 0 
L 2419 0 
L 2419 1741 
L 678 1741 
L 678 2272 
L 2419 2272 
L 2419 4013 
L 2944 4013 
z
" transform="scale(0.015625)"/>
      </defs>
      <use xlink:href="#DejaVuSans-2b"/>
      <use xlink:href="#DejaVuSans-31" x="83.789062"/>
      <use xlink:href="#DejaVuSans-20" x="147.412109"/>
      <use xlink:href="#DejaVuSans-73" x="179.199219"/>
      <use xlink:href="#DejaVuSans-64" x="231.298828"/>
     </g>
    </g>
    <g id="line2d_26">
     <path d="M 66.6 98.604813 
L 76.6 98.604813 
L 86.6 98.604813 
" style="fill: none; stroke: #ff0000; stroke-width: 1.5; stroke-linecap: square"/>
    </g>
    <g id="text_16">
     <!-- best -->
     <g transform="translate(94.6 102.104813)scale(0.1 -0.1)">
      <use xlink:href="#DejaVuSans-62"/>
      <use xlink:href="#DejaVuSans-65" x="63.476562"/>
      <use xlink:href="#DejaVuSans-73" x="125"/>
      <use xlink:href="#DejaVuSans-74" x="177.099609"/>
     </g>
    </g>
   </g>
  </g>
 </g>
 <defs>
  <clipPath id="p15bfa4cbfc">
   <rect x="57.6" y="41.472" width="357.12" height="266.112"/>
  </clipPath>
 </defs>
</svg>
