<?xml version="1.0" encoding="UTF-8" standalone="no"?>
<!DOCTYPE svg PUBLIC "-//W3C//DTD SVG 1.1//EN"
 "http://www.w3.org/Graphics/SVG/1.1/DTD/svg11.dtd">
<!-- Generated by graphviz version 3.0.0 (20220226.1711)
 -->
<!-- Pages: 1 -->
<svg width="958pt" height="354pt"
 viewBox="0.00 0.00 958.28 353.85" xmlns="http://www.w3.org/2000/svg" xmlns:xlink="http://www.w3.org/1999/xlink">
<g id="graph0" class="graph" transform="scale(1 1) rotate(0) translate(4 349.85)">
<polygon fill="white" stroke="transparent" points="-4,4 -4,-349.85 954.28,-349.85 954.28,4 -4,4"/>
<!-- d_N_wall -->
<g id="node1" class="node">
<title>d_N_wall</title>
<polygon fill="lightgray" stroke="black" points="646.28,-345.85 594.28,-345.85 594.28,-327.85 646.28,-327.85 646.28,-345.85"/>
<text text-anchor="middle" x="620.28" y="-334.65" font-family="Times,serif" font-size="9.00">d_N_wall</text>
</g>
<!-- up -->
<g id="node13" class="node">
<title>up</title>
<ellipse fill="lightblue" stroke="black" cx="670.28" cy="-180.19" rx="18.27" ry="18.27"/>
<text text-anchor="middle" x="670.28" y="-177.99" font-family="Times,serif" font-size="9.00">up</text>
</g>
<!-- d_N_wall&#45;&gt;up -->
<g id="edge1" class="edge">
<title>d_N_wall&#45;&gt;up</title>
<path fill="none" stroke="red" stroke-width="0.22" stroke-dasharray="1,5" d="M646.58,-329.88C687.33,-320.37 761.81,-301.84 769.28,-291.85 782.45,-274.23 780.57,-261.23 769.28,-242.35 751.93,-213.34 730.56,-224.87 702.28,-206.35 698.85,-204.11 695.34,-201.59 691.95,-199.04"/>
<polygon fill="red" stroke="red" stroke-width="0.22" points="693.94,-196.15 683.91,-192.75 689.63,-201.67 693.94,-196.15"/>
</g>
<!-- left -->
<g id="node14" class="node">
<title>left</title>
<ellipse fill="lightblue" stroke="black" cx="533.28" cy="-19.8" rx="19.6" ry="19.6"/>
<text text-anchor="middle" x="533.28" y="-17.6" font-family="Times,serif" font-size="9.00">left</text>
</g>
<!-- d_N_wall&#45;&gt;left -->
<g id="edge2" class="edge">
<title>d_N_wall&#45;&gt;left</title>
<path fill="none" stroke="green" stroke-width="0.21" stroke-dasharray="1,5" d="M646.6,-329.54C649.52,-328.92 652.46,-328.35 655.28,-327.85 718.58,-316.67 899.75,-340.04 942.28,-291.85 956.84,-275.35 947.51,-263.72 942.28,-242.35 919.74,-150.27 894.02,-118.09 809.28,-75.6 726.93,-34.3 616.13,-24.11 563.49,-21.61"/>
<polygon fill="green" stroke="green" stroke-width="0.21" points="563.3,-18.1 553.17,-21.18 563.01,-25.09 563.3,-18.1"/>
</g>
<!-- down -->
<g id="node15" class="node">
<title>down</title>
<ellipse fill="lightblue" stroke="black" cx="346.28" cy="-180.19" rx="26.33" ry="26.33"/>
<text text-anchor="middle" x="346.28" y="-177.99" font-family="Times,serif" font-size="9.00">down</text>
</g>
<!-- d_N_wall&#45;&gt;down -->
<g id="edge39" class="edge">
<title>d_N_wall&#45;&gt;down</title>
<path fill="none" stroke="red" stroke-width="0.19" d="M594.06,-335.16C504.89,-332.57 217.44,-321.92 190.28,-291.85 175.54,-275.52 177.89,-260.52 190.28,-242.35 216.91,-203.31 272.57,-189.19 309.69,-184.08"/>
<polygon fill="red" stroke="red" stroke-width="0.19" points="310.59,-187.5 320.09,-182.82 309.74,-180.55 310.59,-187.5"/>
</g>
<!-- right -->
<g id="node16" class="node">
<title>right</title>
<ellipse fill="lightblue" stroke="black" cx="466.28" cy="-180.19" rx="23.17" ry="23.17"/>
<text text-anchor="middle" x="466.28" y="-177.99" font-family="Times,serif" font-size="9.00">right</text>
</g>
<!-- d_N_wall&#45;&gt;right -->
<g id="edge3" class="edge">
<title>d_N_wall&#45;&gt;right</title>
<path fill="none" stroke="green" stroke-width="0.7" d="M593.95,-328.93C572.98,-322.31 543.97,-310.52 524.28,-291.85 501.18,-269.94 485.5,-236.78 476.33,-212.47"/>
<polygon fill="green" stroke="green" stroke-width="0.7" points="479.59,-211.19 472.91,-202.97 473.01,-213.57 479.59,-211.19"/>
</g>
<!-- 858 -->
<g id="node19" class="node">
<title>858</title>
<ellipse fill="white" stroke="black" cx="400.28" cy="-96.81" rx="21.43" ry="21.43"/>
<text text-anchor="middle" x="400.28" y="-94.61" font-family="Times,serif" font-size="9.00">858</text>
</g>
<!-- d_N_wall&#45;&gt;858 -->
<g id="edge36" class="edge">
<title>d_N_wall&#45;&gt;858</title>
<path fill="none" stroke="green" stroke-width="0.24" d="M594.16,-335.26C503.21,-332.93 204.46,-322.96 176.28,-291.85 104.88,-213.02 294.85,-134.98 370.64,-107.85"/>
<polygon fill="green" stroke="green" stroke-width="0.24" points="371.85,-111.13 380.12,-104.51 369.52,-104.53 371.85,-111.13"/>
</g>
<!-- 5083 -->
<g id="node20" class="node">
<title>5083</title>
<ellipse fill="white" stroke="black" cx="735.28" cy="-267.1" rx="25" ry="25"/>
<text text-anchor="middle" x="735.28" y="-264.9" font-family="Times,serif" font-size="9.00">5083</text>
</g>
<!-- d_N_wall&#45;&gt;5083 -->
<g id="edge40" class="edge">
<title>d_N_wall&#45;&gt;5083</title>
<path fill="none" stroke="green" stroke-width="0.17" d="M636.41,-327.76C652.98,-319.31 679.37,-305.4 701.28,-291.85 703.17,-290.68 705.1,-289.45 707.03,-288.18"/>
<polygon fill="green" stroke="green" stroke-width="0.17" points="709.06,-291.04 715.4,-282.54 705.15,-285.23 709.06,-291.04"/>
</g>
<!-- d_S_wall -->
<g id="node2" class="node">
<title>d_S_wall</title>
<polygon fill="lightgray" stroke="black" points="249.28,-276.1 199.28,-276.1 199.28,-258.1 249.28,-258.1 249.28,-276.1"/>
<text text-anchor="middle" x="224.28" y="-264.9" font-family="Times,serif" font-size="9.00">d_S_wall</text>
</g>
<!-- d_S_wall&#45;&gt;left -->
<g id="edge4" class="edge">
<title>d_S_wall&#45;&gt;left</title>
<path fill="none" stroke="green" stroke-width="1.78" d="M226.17,-257.7C233.32,-227.86 261.63,-126.07 325.28,-75.6 378.02,-33.78 459.59,-23.68 503.26,-21.37"/>
<polygon fill="green" stroke="green" stroke-width="1.78" points="503.66,-24.85 513.51,-20.93 503.37,-17.86 503.66,-24.85"/>
</g>
<!-- d_S_wall&#45;&gt;down -->
<g id="edge5" class="edge">
<title>d_S_wall&#45;&gt;down</title>
<path fill="none" stroke="red" stroke-width="0.68" d="M235.92,-257.96C242.48,-253.37 250.84,-247.54 258.28,-242.35 277.65,-228.85 299.44,-213.71 316.49,-201.87"/>
<polygon fill="red" stroke="red" stroke-width="0.68" points="318.72,-204.58 324.93,-196 314.72,-198.83 318.72,-204.58"/>
</g>
<!-- d_S_wall&#45;&gt;right -->
<g id="edge6" class="edge">
<title>d_S_wall&#45;&gt;right</title>
<path fill="none" stroke="red" stroke-width="0.26" stroke-dasharray="1,5" d="M234.16,-257.9C240.67,-252.83 249.58,-246.52 258.28,-242.35 309.64,-217.72 326.64,-222.43 381.28,-206.35 398.72,-201.22 418.16,-195.46 434.05,-190.75"/>
<polygon fill="red" stroke="red" stroke-width="0.26" points="435.32,-194.03 443.92,-187.83 433.33,-187.32 435.32,-194.03"/>
</g>
<!-- d_E_wall -->
<g id="node3" class="node">
<title>d_E_wall</title>
<polygon fill="lightgray" stroke="black" points="317.28,-276.1 267.28,-276.1 267.28,-258.1 317.28,-258.1 317.28,-276.1"/>
<text text-anchor="middle" x="292.28" y="-264.9" font-family="Times,serif" font-size="9.00">d_E_wall</text>
</g>
<!-- d_E_wall&#45;&gt;up -->
<g id="edge7" class="edge">
<title>d_E_wall&#45;&gt;up</title>
<path fill="none" stroke="red" stroke-width="0.27" stroke-dasharray="1,5" d="M301.44,-258.04C307.94,-252.76 317.1,-246.15 326.28,-242.35 355.52,-230.24 565.68,-197.23 642.37,-185.44"/>
<polygon fill="red" stroke="red" stroke-width="0.27" points="642.92,-188.9 652.27,-183.92 641.86,-181.98 642.92,-188.9"/>
</g>
<!-- d_E_wall&#45;&gt;left -->
<g id="edge8" class="edge">
<title>d_E_wall&#45;&gt;left</title>
<path fill="none" stroke="red" stroke-width="0.51" stroke-dasharray="1,5" d="M292.36,-257.85C292.83,-238.77 295.6,-190.46 311.28,-154.02 328.53,-113.96 334.91,-101.12 370.28,-75.6 411.2,-46.07 469.14,-31.65 503.79,-25.25"/>
<polygon fill="red" stroke="red" stroke-width="0.51" points="504.5,-28.68 513.75,-23.52 503.29,-21.79 504.5,-28.68"/>
</g>
<!-- d_E_wall&#45;&gt;down -->
<g id="edge9" class="edge">
<title>d_E_wall&#45;&gt;down</title>
<path fill="none" stroke="green" stroke-width="2.07" d="M297.46,-257.96C304.23,-247.31 316.47,-228.06 327,-211.51"/>
<polygon fill="green" stroke="green" stroke-width="2.07" points="330.22,-212.97 332.63,-202.66 324.31,-209.22 330.22,-212.97"/>
</g>
<!-- d_E_wall&#45;&gt;right -->
<g id="edge10" class="edge">
<title>d_E_wall&#45;&gt;right</title>
<path fill="none" stroke="red" stroke-width="0.83" d="M302.65,-258.05C309.21,-253.17 317.99,-247 326.28,-242.35 362.09,-222.28 405.76,-204.13 434.71,-192.9"/>
<polygon fill="red" stroke="red" stroke-width="0.83" points="436.21,-196.08 444.3,-189.23 433.71,-189.54 436.21,-196.08"/>
</g>
<!-- d_W_wall -->
<g id="node4" class="node">
<title>d_W_wall</title>
<polygon fill="lightgray" stroke="black" points="932.78,-276.1 879.78,-276.1 879.78,-258.1 932.78,-258.1 932.78,-276.1"/>
<text text-anchor="middle" x="906.28" y="-264.9" font-family="Times,serif" font-size="9.00">d_W_wall</text>
</g>
<!-- d_W_wall&#45;&gt;up -->
<g id="edge11" class="edge">
<title>d_W_wall&#45;&gt;up</title>
<path fill="none" stroke="green" stroke-width="1.14" d="M896.16,-257.93C889.24,-252.75 879.67,-246.29 870.28,-242.35 799.86,-212.82 771.41,-238.79 702.28,-206.35 698.5,-204.58 694.76,-202.28 691.25,-199.8"/>
<polygon fill="green" stroke="green" stroke-width="1.14" points="693.11,-196.82 683.07,-193.44 688.82,-202.34 693.11,-196.82"/>
</g>
<!-- d_W_wall&#45;&gt;left -->
<g id="edge12" class="edge">
<title>d_W_wall&#45;&gt;left</title>
<path fill="none" stroke="red" stroke-width="0.13" d="M905.77,-257.96C904.1,-237.85 897.15,-185.18 869.28,-154.02 785.85,-60.77 628.54,-31.96 563.06,-23.78"/>
<polygon fill="red" stroke="red" stroke-width="0.13" points="563.34,-20.29 553,-22.6 562.53,-27.24 563.34,-20.29"/>
</g>
<!-- tail_N -->
<g id="node5" class="node">
<title>tail_N</title>
<polygon fill="lightgray" stroke="black" points="571.28,-276.1 533.28,-276.1 533.28,-258.1 571.28,-258.1 571.28,-276.1"/>
<text text-anchor="middle" x="552.28" y="-264.9" font-family="Times,serif" font-size="9.00">tail_N</text>
</g>
<!-- tail_N&#45;&gt;up -->
<g id="edge13" class="edge">
<title>tail_N&#45;&gt;up</title>
<path fill="none" stroke="green" stroke-width="0.14" d="M561.41,-257.93C566.79,-253.23 573.79,-247.29 580.28,-242.35 602.02,-225.82 627.91,-208.45 646.33,-196.47"/>
<polygon fill="green" stroke="green" stroke-width="0.14" points="648.47,-199.25 654.97,-190.88 644.67,-193.37 648.47,-199.25"/>
</g>
<!-- tail_N&#45;&gt;left -->
<g id="edge14" class="edge">
<title>tail_N&#45;&gt;left</title>
<path fill="none" stroke="green" stroke-width="0.1" d="M551.65,-257.94C549.15,-225.67 539.88,-106.05 535.55,-50.06"/>
<polygon fill="green" stroke="green" stroke-width="0.1" points="539.01,-49.45 534.75,-39.75 532.03,-49.99 539.01,-49.45"/>
</g>
<!-- tail_N&#45;&gt;down -->
<g id="edge15" class="edge">
<title>tail_N&#45;&gt;down</title>
<path fill="none" stroke="red" stroke-width="0.29" stroke-dasharray="1,5" d="M533.27,-258.26C498.27,-243.83 423.22,-212.9 379.59,-194.92"/>
<polygon fill="red" stroke="red" stroke-width="0.29" points="380.84,-191.65 370.26,-191.07 378.18,-198.12 380.84,-191.65"/>
</g>
<!-- tail_N&#45;&gt;right -->
<g id="edge16" class="edge">
<title>tail_N&#45;&gt;right</title>
<path fill="none" stroke="green" stroke-width="0.35" stroke-dasharray="1,5" d="M544.04,-257.96C531.68,-245.75 507.87,-222.25 489.84,-204.45"/>
<polygon fill="green" stroke="green" stroke-width="0.35" points="492.1,-201.76 482.52,-197.22 487.18,-206.74 492.1,-201.76"/>
</g>
<!-- tail_S -->
<g id="node6" class="node">
<title>tail_S</title>
<polygon fill="lightgray" stroke="black" points="701.78,-345.85 664.78,-345.85 664.78,-327.85 701.78,-327.85 701.78,-345.85"/>
<text text-anchor="middle" x="683.28" y="-334.65" font-family="Times,serif" font-size="9.00">tail_S</text>
</g>
<!-- tail_E -->
<g id="node7" class="node">
<title>tail_E</title>
<polygon fill="lightgray" stroke="black" points="372.78,-276.1 335.78,-276.1 335.78,-258.1 372.78,-258.1 372.78,-276.1"/>
<text text-anchor="middle" x="354.28" y="-264.9" font-family="Times,serif" font-size="9.00">tail_E</text>
</g>
<!-- tail_E&#45;&gt;right -->
<g id="edge17" class="edge">
<title>tail_E&#45;&gt;right</title>
<path fill="none" stroke="red" stroke-width="0.68" d="M365.02,-257.96C382.16,-244.96 416.2,-219.15 440.07,-201.06"/>
<polygon fill="red" stroke="red" stroke-width="0.68" points="442.18,-203.85 448.04,-195.02 437.96,-198.27 442.18,-203.85"/>
</g>
<!-- tail_E&#45;&gt;858 -->
<g id="edge31" class="edge">
<title>tail_E&#45;&gt;858</title>
<path fill="none" stroke="green" stroke-width="0.16" d="M358.82,-257.85C364.83,-246.56 375.38,-225.5 381.28,-206.35 389.22,-180.58 394.18,-150.29 397.03,-128.27"/>
<polygon fill="green" stroke="green" stroke-width="0.16" points="400.52,-128.52 398.26,-118.17 393.57,-127.67 400.52,-128.52"/>
</g>
<!-- tail_W -->
<g id="node8" class="node">
<title>tail_W</title>
<polygon fill="lightgray" stroke="black" points="629.28,-276.1 589.28,-276.1 589.28,-258.1 629.28,-258.1 629.28,-276.1"/>
<text text-anchor="middle" x="609.28" y="-264.9" font-family="Times,serif" font-size="9.00">tail_W</text>
</g>
<!-- tail_W&#45;&gt;up -->
<g id="edge18" class="edge">
<title>tail_W&#45;&gt;up</title>
<path fill="none" stroke="red" stroke-width="0.14" d="M615.13,-257.96C624,-245.61 641.17,-221.72 654,-203.85"/>
<polygon fill="red" stroke="red" stroke-width="0.14" points="656.91,-205.8 659.9,-195.64 651.23,-201.71 656.91,-205.8"/>
</g>
<!-- tail_W&#45;&gt;left -->
<g id="edge19" class="edge">
<title>tail_W&#45;&gt;left</title>
<path fill="none" stroke="green" stroke-width="0.73" stroke-dasharray="1,5" d="M607.12,-258.06C599.98,-231.71 576.34,-145.67 553.28,-75.6 550.29,-66.51 546.78,-56.67 543.55,-47.87"/>
<polygon fill="green" stroke="green" stroke-width="0.73" points="546.82,-46.62 540.06,-38.47 540.26,-49.06 546.82,-46.62"/>
</g>
<!-- tail_W&#45;&gt;down -->
<g id="edge37" class="edge">
<title>tail_W&#45;&gt;down</title>
<path fill="none" stroke="red" stroke-width="0.24" d="M601.36,-257.95C595.89,-252.77 588.2,-246.31 580.28,-242.35 520.51,-212.44 498.87,-223.54 434.28,-206.35 416.77,-201.69 397.4,-196.19 381.3,-191.52"/>
<polygon fill="red" stroke="red" stroke-width="0.24" points="381.83,-188.03 371.25,-188.59 379.87,-194.75 381.83,-188.03"/>
</g>
<!-- tail_W&#45;&gt;right -->
<g id="edge20" class="edge">
<title>tail_W&#45;&gt;right</title>
<path fill="none" stroke="green" stroke-width="0.24" stroke-dasharray="1,5" d="M600.23,-257.92C594.68,-253.1 587.31,-247.05 580.28,-242.35 553.04,-224.14 519.82,-206.82 496.29,-195.29"/>
<polygon fill="green" stroke="green" stroke-width="0.24" points="497.68,-192.07 487.15,-190.87 494.63,-198.38 497.68,-192.07"/>
</g>
<!-- tail_W&#45;&gt;858 -->
<g id="edge34" class="edge">
<title>tail_W&#45;&gt;858</title>
<path fill="none" stroke="red" stroke-width="0.22" d="M602.65,-258.03C586.33,-238.53 542.35,-187.91 498.28,-154.02 476.27,-137.1 448.63,-121.7 428.32,-111.32"/>
<polygon fill="red" stroke="red" stroke-width="0.22" points="429.78,-108.13 419.27,-106.78 426.64,-114.39 429.78,-108.13"/>
</g>
<!-- apple_N -->
<g id="node9" class="node">
<title>apple_N</title>
<polygon fill="lightgray" stroke="black" points="476.78,-276.1 429.78,-276.1 429.78,-258.1 476.78,-258.1 476.78,-276.1"/>
<text text-anchor="middle" x="453.28" y="-264.9" font-family="Times,serif" font-size="9.00">apple_N</text>
</g>
<!-- apple_N&#45;&gt;up -->
<g id="edge21" class="edge">
<title>apple_N&#45;&gt;up</title>
<path fill="none" stroke="green" stroke-width="3.62" stroke-dasharray="1,5" d="M474.09,-257.96C513.85,-242.4 600.53,-208.48 644.13,-191.42"/>
<polygon fill="green" stroke="green" stroke-width="3.62" points="645.46,-194.66 653.5,-187.76 642.91,-188.14 645.46,-194.66"/>
</g>
<!-- apple_N&#45;&gt;down -->
<g id="edge22" class="edge">
<title>apple_N&#45;&gt;down</title>
<path fill="none" stroke="green" stroke-width="0.52" stroke-dasharray="1,5" d="M443.02,-257.96C427.37,-245.54 396.97,-221.41 374.4,-203.5"/>
<polygon fill="green" stroke="green" stroke-width="0.52" points="376.49,-200.7 366.49,-197.22 372.14,-206.18 376.49,-200.7"/>
</g>
<!-- apple_S -->
<g id="node10" class="node">
<title>apple_S</title>
<polygon fill="lightgray" stroke="black" points="861.78,-276.1 816.78,-276.1 816.78,-258.1 861.78,-258.1 861.78,-276.1"/>
<text text-anchor="middle" x="839.28" y="-264.9" font-family="Times,serif" font-size="9.00">apple_S</text>
</g>
<!-- apple_S&#45;&gt;up -->
<g id="edge23" class="edge">
<title>apple_S&#45;&gt;up</title>
<path fill="none" stroke="red" stroke-width="0.28" d="M828.01,-257.92C820.87,-252.98 811.32,-246.81 802.28,-242.35 759.91,-221.46 743.6,-229.24 702.28,-206.35 698.7,-204.36 695.1,-201.99 691.67,-199.5"/>
<polygon fill="red" stroke="red" stroke-width="0.28" points="693.66,-196.61 683.62,-193.24 689.36,-202.14 693.66,-196.61"/>
</g>
<!-- apple_S&#45;&gt;left -->
<g id="edge24" class="edge">
<title>apple_S&#45;&gt;left</title>
<path fill="none" stroke="red" stroke-width="0.49" stroke-dasharray="1,5" d="M835.26,-257.87C825.25,-237.99 797.42,-186.62 762.28,-154.02 699.29,-95.59 606.3,-51.5 560.63,-31.93"/>
<polygon fill="red" stroke="red" stroke-width="0.49" points="561.94,-28.69 551.37,-28.03 559.22,-35.14 561.94,-28.69"/>
</g>
<!-- apple_S&#45;&gt;down -->
<g id="edge25" class="edge">
<title>apple_S&#45;&gt;down</title>
<path fill="none" stroke="red" stroke-width="0.2" d="M819.4,-258.04C805.57,-252.77 786.58,-246.16 769.28,-242.35 623.05,-210.1 581.25,-235.04 434.28,-206.35 416.33,-202.85 396.73,-197.41 380.59,-192.48"/>
<polygon fill="red" stroke="red" stroke-width="0.2" points="381.63,-189.14 371.04,-189.5 379.54,-195.82 381.63,-189.14"/>
</g>
<!-- 517 -->
<g id="node17" class="node">
<title>517</title>
<ellipse fill="white" stroke="black" cx="732.28" cy="-180.19" rx="21.43" ry="21.43"/>
<text text-anchor="middle" x="732.28" y="-177.99" font-family="Times,serif" font-size="9.00">517</text>
</g>
<!-- apple_S&#45;&gt;517 -->
<g id="edge30" class="edge">
<title>apple_S&#45;&gt;517</title>
<path fill="none" stroke="red" stroke-width="0.2" d="M829.02,-257.96C812.44,-244.8 779.29,-218.5 756.46,-200.38"/>
<polygon fill="red" stroke="red" stroke-width="0.2" points="758.57,-197.58 748.56,-194.11 754.22,-203.07 758.57,-197.58"/>
</g>
<!-- 861 -->
<g id="node21" class="node">
<title>861</title>
<ellipse fill="white" stroke="black" cx="839.28" cy="-180.19" rx="21.43" ry="21.43"/>
<text text-anchor="middle" x="839.28" y="-177.99" font-family="Times,serif" font-size="9.00">861</text>
</g>
<!-- apple_S&#45;&gt;861 -->
<g id="edge33" class="edge">
<title>apple_S&#45;&gt;861</title>
<path fill="none" stroke="green" stroke-width="0.17" d="M839.28,-257.96C839.28,-247.4 839.28,-228.39 839.28,-211.93"/>
<polygon fill="green" stroke="green" stroke-width="0.17" points="842.78,-211.6 839.28,-201.6 835.78,-211.6 842.78,-211.6"/>
</g>
<!-- apple_E -->
<g id="node11" class="node">
<title>apple_E</title>
<polygon fill="lightgray" stroke="black" points="692.78,-276.1 647.78,-276.1 647.78,-258.1 692.78,-258.1 692.78,-276.1"/>
<text text-anchor="middle" x="670.28" y="-264.9" font-family="Times,serif" font-size="9.00">apple_E</text>
</g>
<!-- apple_E&#45;&gt;up -->
<g id="edge35" class="edge">
<title>apple_E&#45;&gt;up</title>
<path fill="none" stroke="red" stroke-width="0.73" d="M670.28,-257.96C670.28,-246.75 670.28,-226.02 670.28,-208.92"/>
<polygon fill="red" stroke="red" stroke-width="0.73" points="673.78,-208.86 670.28,-198.86 666.78,-208.86 673.78,-208.86"/>
</g>
<!-- apple_E&#45;&gt;right -->
<g id="edge26" class="edge">
<title>apple_E&#45;&gt;right</title>
<path fill="none" stroke="green" stroke-width="1.16" d="M660.98,-258.03C654.84,-253.02 646.46,-246.71 638.28,-242.35 592.22,-217.78 534.21,-199.5 498.71,-189.6"/>
<polygon fill="green" stroke="green" stroke-width="1.16" points="499.46,-186.17 488.89,-186.91 497.61,-192.92 499.46,-186.17"/>
</g>
<!-- apple_E&#45;&gt;517 -->
<g id="edge38" class="edge">
<title>apple_E&#45;&gt;517</title>
<path fill="none" stroke="red" stroke-width="0.22" d="M676.23,-257.96C684.87,-246.11 701.29,-223.63 714.13,-206.04"/>
<polygon fill="red" stroke="red" stroke-width="0.22" points="717.03,-208.01 720.1,-197.87 711.38,-203.88 717.03,-208.01"/>
</g>
<!-- apple_W -->
<g id="node12" class="node">
<title>apple_W</title>
<polygon fill="lightgray" stroke="black" points="112.28,-345.85 64.28,-345.85 64.28,-327.85 112.28,-327.85 112.28,-345.85"/>
<text text-anchor="middle" x="88.28" y="-334.65" font-family="Times,serif" font-size="9.00">apple_W</text>
</g>
<!-- apple_W&#45;&gt;left -->
<g id="edge27" class="edge">
<title>apple_W&#45;&gt;left</title>
<path fill="none" stroke="green" stroke-width="0.25" stroke-dasharray="1,5" d="M63.96,-329.74C45.09,-323.59 20.22,-312.04 8.28,-291.85 -2.92,-272.91 -2.54,-261.5 8.28,-242.35 112.22,-58.46 408,-27.2 503.3,-21.89"/>
<polygon fill="green" stroke="green" stroke-width="0.25" points="503.59,-25.38 513.4,-21.38 503.24,-18.38 503.59,-25.38"/>
</g>
<!-- apple_W&#45;&gt;down -->
<g id="edge28" class="edge">
<title>apple_W&#45;&gt;down</title>
<path fill="none" stroke="red" stroke-width="0.12" stroke-dasharray="1,5" d="M92.04,-327.77C100.84,-309.73 124.54,-265.92 157.28,-242.35 203.88,-208.8 269.82,-193.02 310.22,-186.08"/>
<polygon fill="red" stroke="red" stroke-width="0.12" points="310.86,-189.53 320.16,-184.47 309.73,-182.62 310.86,-189.53"/>
</g>
<!-- apple_W&#45;&gt;right -->
<g id="edge29" class="edge">
<title>apple_W&#45;&gt;right</title>
<path fill="none" stroke="red" stroke-width="0.31" stroke-dasharray="1,5" d="M112.67,-334.52C174.51,-330.79 335.74,-318.68 381.28,-291.85 383.54,-290.51 421.78,-240.16 446.19,-207.84"/>
<polygon fill="red" stroke="red" stroke-width="0.31" points="449.14,-209.75 452.37,-199.66 443.55,-205.53 449.14,-209.75"/>
</g>
<!-- 5110 -->
<g id="node18" class="node">
<title>5110</title>
<ellipse fill="white" stroke="black" cx="42.28" cy="-267.1" rx="25" ry="25"/>
<text text-anchor="middle" x="42.28" y="-264.9" font-family="Times,serif" font-size="9.00">5110</text>
</g>
<!-- apple_W&#45;&gt;5110 -->
<g id="edge43" class="edge">
<title>apple_W&#45;&gt;5110</title>
<path fill="none" stroke="green" stroke-width="0.31" d="M82.82,-327.81C77.55,-320.05 69.25,-307.82 61.53,-296.45"/>
<polygon fill="green" stroke="green" stroke-width="0.31" points="64.31,-294.32 55.8,-288.01 58.52,-298.25 64.31,-294.32"/>
</g>
<!-- down&#45;&gt;858 -->
<g id="edge42" class="edge">
<title>down&#45;&gt;858</title>
<path fill="none" stroke="red" stroke-width="0.43" d="M360.47,-157.81C367.47,-147.25 375.97,-134.45 383.32,-123.38"/>
<polygon fill="red" stroke="red" stroke-width="0.43" points="386.29,-125.22 388.91,-114.95 380.46,-121.35 386.29,-125.22"/>
</g>
<!-- 5110&#45;&gt;down -->
<g id="edge44" class="edge">
<title>5110&#45;&gt;down</title>
<path fill="none" stroke="red" stroke-width="0.35" d="M65.81,-258.6C81.02,-253.82 101.27,-247.55 119.28,-242.35 186.95,-222.81 266.53,-201.82 311.22,-190.22"/>
<polygon fill="red" stroke="red" stroke-width="0.35" points="312.2,-193.58 321.01,-187.68 310.45,-186.8 312.2,-193.58"/>
</g>
<!-- 858&#45;&gt;left -->
<g id="edge32" class="edge">
<title>858&#45;&gt;left</title>
<path fill="none" stroke="red" stroke-width="0.16" d="M418.5,-85.54C441.43,-72.6 481,-50.29 507.15,-35.53"/>
<polygon fill="red" stroke="red" stroke-width="0.16" points="509.14,-38.43 516.13,-30.47 505.7,-32.34 509.14,-38.43"/>
</g>
<!-- 5083&#45;&gt;up -->
<g id="edge41" class="edge">
<title>5083&#45;&gt;up</title>
<path fill="none" stroke="red" stroke-width="0.29" d="M720.53,-246.83C710.7,-233.99 697.74,-217.06 687.45,-203.61"/>
<polygon fill="red" stroke="red" stroke-width="0.29" points="689.98,-201.16 681.12,-195.35 684.42,-205.42 689.98,-201.16"/>
</g>
</g>
</svg>
