<?xml version="1.0" encoding="UTF-8" standalone="no"?>
<!DOCTYPE svg PUBLIC "-//W3C//DTD SVG 1.1//EN"
 "http://www.w3.org/Graphics/SVG/1.1/DTD/svg11.dtd">
<!-- Generated by graphviz version 3.0.0 (20220226.1711)
 -->
<!-- Pages: 1 -->
<svg width="756pt" height="617pt"
 viewBox="0.00 0.00 756.00 617.41" xmlns="http://www.w3.org/2000/svg" xmlns:xlink="http://www.w3.org/1999/xlink">
<g id="graph0" class="graph" transform="scale(1 1) rotate(0) translate(4 613.41)">
<polygon fill="white" stroke="transparent" points="-4,4 -4,-613.41 752,-613.41 752,4 -4,4"/>
<!-- d_N_wall -->
<g id="node1" class="node">
<title>d_N_wall</title>
<polygon fill="lightgray" stroke="black" points="52,-538.25 0,-538.25 0,-520.25 52,-520.25 52,-538.25"/>
<text text-anchor="middle" x="26" y="-527.05" font-family="Times,serif" font-size="9.00">d_N_wall</text>
</g>
<!-- right -->
<g id="node15" class="node">
<title>right</title>
<ellipse fill="lightblue" stroke="black" cx="95" cy="-442.34" rx="23.17" ry="23.17"/>
<text text-anchor="middle" x="95" y="-440.14" font-family="Times,serif" font-size="9.00">right</text>
</g>
<!-- d_N_wall&#45;&gt;right -->
<g id="edge4" class="edge">
<title>d_N_wall&#45;&gt;right</title>
<path fill="none" stroke="red" stroke-width="0.17" stroke-dasharray="1,5" d="M32.62,-520.11C42.07,-508.48 59.85,-486.59 74.02,-469.15"/>
<polygon fill="red" stroke="red" stroke-width="0.17" points="77.05,-470.98 80.64,-461.01 71.61,-466.57 77.05,-470.98"/>
</g>
<!-- d_S_wall -->
<g id="node2" class="node">
<title>d_S_wall</title>
<polygon fill="lightgray" stroke="black" points="353,-609.41 303,-609.41 303,-591.41 353,-591.41 353,-609.41"/>
<text text-anchor="middle" x="328" y="-598.21" font-family="Times,serif" font-size="9.00">d_S_wall</text>
</g>
<!-- d_E_wall -->
<g id="node3" class="node">
<title>d_E_wall</title>
<polygon fill="lightgray" stroke="black" points="421,-609.41 371,-609.41 371,-591.41 421,-591.41 421,-609.41"/>
<text text-anchor="middle" x="396" y="-598.21" font-family="Times,serif" font-size="9.00">d_E_wall</text>
</g>
<!-- d_W_wall -->
<g id="node4" class="node">
<title>d_W_wall</title>
<polygon fill="lightgray" stroke="black" points="492.5,-609.41 439.5,-609.41 439.5,-591.41 492.5,-591.41 492.5,-609.41"/>
<text text-anchor="middle" x="466" y="-598.21" font-family="Times,serif" font-size="9.00">d_W_wall</text>
</g>
<!-- d_N_tail -->
<g id="node5" class="node">
<title>d_N_tail</title>
<polygon fill="lightgray" stroke="black" points="557.5,-609.41 510.5,-609.41 510.5,-591.41 557.5,-591.41 557.5,-609.41"/>
<text text-anchor="middle" x="534" y="-598.21" font-family="Times,serif" font-size="9.00">d_N_tail</text>
</g>
<!-- d_S_tail -->
<g id="node6" class="node">
<title>d_S_tail</title>
<polygon fill="lightgray" stroke="black" points="622,-609.41 576,-609.41 576,-591.41 622,-591.41 622,-609.41"/>
<text text-anchor="middle" x="599" y="-598.21" font-family="Times,serif" font-size="9.00">d_S_tail</text>
</g>
<!-- d_E_tail -->
<g id="node7" class="node">
<title>d_E_tail</title>
<polygon fill="lightgray" stroke="black" points="686,-609.41 640,-609.41 640,-591.41 686,-591.41 686,-609.41"/>
<text text-anchor="middle" x="663" y="-598.21" font-family="Times,serif" font-size="9.00">d_E_tail</text>
</g>
<!-- d_W_tail -->
<g id="node8" class="node">
<title>d_W_tail</title>
<polygon fill="lightgray" stroke="black" points="119.5,-538.25 70.5,-538.25 70.5,-520.25 119.5,-520.25 119.5,-538.25"/>
<text text-anchor="middle" x="95" y="-527.05" font-family="Times,serif" font-size="9.00">d_W_tail</text>
</g>
<!-- d_W_tail&#45;&gt;right -->
<g id="edge6" class="edge">
<title>d_W_tail&#45;&gt;right</title>
<path fill="none" stroke="green" stroke-width="0.11" stroke-dasharray="1,5" d="M95,-520.11C95,-509.96 95,-492 95,-476"/>
<polygon fill="green" stroke="green" stroke-width="0.11" points="98.5,-475.88 95,-465.88 91.5,-475.88 98.5,-475.88"/>
</g>
<!-- d_apple -->
<g id="node9" class="node">
<title>d_apple</title>
<polygon fill="lightgray" stroke="black" points="748,-609.41 704,-609.41 704,-591.41 748,-591.41 748,-609.41"/>
<text text-anchor="middle" x="726" y="-598.21" font-family="Times,serif" font-size="9.00">d_apple</text>
</g>
<!-- d_apple_x -->
<g id="node10" class="node">
<title>d_apple_x</title>
<polygon fill="lightgray" stroke="black" points="190.5,-538.25 137.5,-538.25 137.5,-520.25 190.5,-520.25 190.5,-538.25"/>
<text text-anchor="middle" x="164" y="-527.05" font-family="Times,serif" font-size="9.00">d_apple_x</text>
</g>
<!-- d_apple_x&#45;&gt;right -->
<g id="edge3" class="edge">
<title>d_apple_x&#45;&gt;right</title>
<path fill="none" stroke="green" stroke-width="0.25" d="M157.38,-520.11C147.93,-508.48 130.15,-486.59 115.98,-469.15"/>
<polygon fill="green" stroke="green" stroke-width="0.25" points="118.39,-466.57 109.36,-461.01 112.95,-470.98 118.39,-466.57"/>
</g>
<!-- 3689 -->
<g id="node16" class="node">
<title>3689</title>
<ellipse fill="white" stroke="black" cx="279" cy="-442.34" rx="25" ry="25"/>
<text text-anchor="middle" x="279" y="-440.14" font-family="Times,serif" font-size="9.00">3689</text>
</g>
<!-- d_apple_x&#45;&gt;3689 -->
<g id="edge11" class="edge">
<title>d_apple_x&#45;&gt;3689</title>
<path fill="none" stroke="red" stroke-width="0.19" d="M175.03,-520.11C192.43,-507.26 226.78,-481.89 251.24,-463.83"/>
<polygon fill="red" stroke="red" stroke-width="0.19" points="253.47,-466.54 259.43,-457.78 249.31,-460.91 253.47,-466.54"/>
</g>
<!-- 2765 -->
<g id="node17" class="node">
<title>2765</title>
<ellipse fill="white" stroke="black" cx="162" cy="-442.34" rx="25" ry="25"/>
<text text-anchor="middle" x="162" y="-440.14" font-family="Times,serif" font-size="9.00">2765</text>
</g>
<!-- d_apple_x&#45;&gt;2765 -->
<g id="edge9" class="edge">
<title>d_apple_x&#45;&gt;2765</title>
<path fill="none" stroke="green" stroke-width="0.19" d="M163.81,-520.11C163.58,-510.33 163.18,-493.29 162.81,-477.74"/>
<polygon fill="green" stroke="green" stroke-width="0.19" points="166.3,-477.24 162.57,-467.33 159.3,-477.41 166.3,-477.24"/>
</g>
<!-- 2141 -->
<g id="node20" class="node">
<title>2141</title>
<ellipse fill="white" stroke="black" cx="188" cy="-356.84" rx="25" ry="25"/>
<text text-anchor="middle" x="188" y="-354.64" font-family="Times,serif" font-size="9.00">2141</text>
</g>
<!-- d_apple_x&#45;&gt;2141 -->
<g id="edge5" class="edge">
<title>d_apple_x&#45;&gt;2141</title>
<path fill="none" stroke="red" stroke-width="0.22" stroke-dasharray="1,5" d="M169.95,-520.06C177.73,-508.8 190.97,-487.57 196,-467.09 202.12,-442.17 199.57,-413.17 195.79,-391.31"/>
<polygon fill="red" stroke="red" stroke-width="0.22" points="199.17,-390.38 193.86,-381.21 192.29,-391.69 199.17,-390.38"/>
</g>
<!-- d_apple_y -->
<g id="node11" class="node">
<title>d_apple_y</title>
<polygon fill="lightgray" stroke="black" points="284.5,-609.41 231.5,-609.41 231.5,-591.41 284.5,-591.41 284.5,-609.41"/>
<text text-anchor="middle" x="258" y="-598.21" font-family="Times,serif" font-size="9.00">d_apple_y</text>
</g>
<!-- up -->
<g id="node12" class="node">
<title>up</title>
<ellipse fill="lightblue" stroke="black" cx="227" cy="-529.25" rx="18.27" ry="18.27"/>
<text text-anchor="middle" x="227" y="-527.05" font-family="Times,serif" font-size="9.00">up</text>
</g>
<!-- d_apple_y&#45;&gt;up -->
<g id="edge1" class="edge">
<title>d_apple_y&#45;&gt;up</title>
<path fill="none" stroke="green" stroke-width="2.85" d="M254.32,-591.21C250.39,-582.42 243.94,-568.05 238.31,-555.47"/>
<polygon fill="green" stroke="green" stroke-width="2.85" points="241.49,-554.01 234.2,-546.32 235.1,-556.88 241.49,-554.01"/>
</g>
<!-- down -->
<g id="node14" class="node">
<title>down</title>
<ellipse fill="lightblue" stroke="black" cx="290" cy="-529.25" rx="26.33" ry="26.33"/>
<text text-anchor="middle" x="290" y="-527.05" font-family="Times,serif" font-size="9.00">down</text>
</g>
<!-- d_apple_y&#45;&gt;down -->
<g id="edge2" class="edge">
<title>d_apple_y&#45;&gt;down</title>
<path fill="none" stroke="red" stroke-width="1.5" d="M261.8,-591.21C265.13,-584.01 270.19,-573.06 275.11,-562.42"/>
<polygon fill="red" stroke="red" stroke-width="1.5" points="278.33,-563.8 279.36,-553.25 271.98,-560.86 278.33,-563.8"/>
</g>
<!-- left -->
<g id="node13" class="node">
<title>left</title>
<ellipse fill="lightblue" stroke="black" cx="200" cy="-19.8" rx="19.6" ry="19.6"/>
<text text-anchor="middle" x="200" y="-17.6" font-family="Times,serif" font-size="9.00">left</text>
</g>
<!-- down&#45;&gt;3689 -->
<g id="edge16" class="edge">
<title>down&#45;&gt;3689</title>
<path fill="none" stroke="red" stroke-width="0.13" d="M286.76,-503.23C285.69,-495 284.49,-485.72 283.36,-476.96"/>
<polygon fill="red" stroke="red" stroke-width="0.13" points="286.82,-476.48 282.07,-467.01 279.88,-477.38 286.82,-476.48"/>
</g>
<!-- 2765&#45;&gt;2141 -->
<g id="edge10" class="edge">
<title>2765&#45;&gt;2141</title>
<path fill="none" stroke="green" stroke-width="0.26" d="M169.1,-418.52C171.8,-409.87 174.92,-399.84 177.84,-390.46"/>
<polygon fill="green" stroke="green" stroke-width="0.26" points="181.27,-391.22 180.9,-380.63 174.59,-389.13 181.27,-391.22"/>
</g>
<!-- 4632 -->
<g id="node18" class="node">
<title>4632</title>
<ellipse fill="white" stroke="black" cx="253" cy="-100.35" rx="25" ry="25"/>
<text text-anchor="middle" x="253" y="-98.15" font-family="Times,serif" font-size="9.00">4632</text>
</g>
<!-- 4632&#45;&gt;left -->
<g id="edge15" class="edge">
<title>4632&#45;&gt;left</title>
<path fill="none" stroke="green" stroke-width="0.29" d="M239.35,-79.12C232.33,-68.72 223.73,-55.96 216.36,-45.04"/>
<polygon fill="green" stroke="green" stroke-width="0.29" points="219.26,-43.08 210.76,-36.75 213.45,-47 219.26,-43.08"/>
</g>
<!-- 3769 -->
<g id="node19" class="node">
<title>3769</title>
<ellipse fill="white" stroke="black" cx="215" cy="-185.84" rx="25" ry="25"/>
<text text-anchor="middle" x="215" y="-183.64" font-family="Times,serif" font-size="9.00">3769</text>
</g>
<!-- 3769&#45;&gt;left -->
<g id="edge13" class="edge">
<title>3769&#45;&gt;left</title>
<path fill="none" stroke="green" stroke-width="0.33" stroke-dasharray="1,5" d="M212.82,-160.99C210.13,-131.58 205.56,-81.61 202.67,-49.95"/>
<polygon fill="green" stroke="green" stroke-width="0.33" points="206.11,-49.22 201.72,-39.58 199.14,-49.86 206.11,-49.22"/>
</g>
<!-- 3769&#45;&gt;4632 -->
<g id="edge14" class="edge">
<title>3769&#45;&gt;4632</title>
<path fill="none" stroke="green" stroke-width="0.29" d="M224.98,-162.91C229.22,-153.61 234.23,-142.6 238.83,-132.48"/>
<polygon fill="green" stroke="green" stroke-width="0.29" points="242.13,-133.69 243.08,-123.14 235.75,-130.79 242.13,-133.69"/>
</g>
<!-- 2527 -->
<g id="node21" class="node">
<title>2527</title>
<ellipse fill="white" stroke="black" cx="188" cy="-271.34" rx="25" ry="25"/>
<text text-anchor="middle" x="188" y="-269.14" font-family="Times,serif" font-size="9.00">2527</text>
</g>
<!-- 2141&#45;&gt;2527 -->
<g id="edge7" class="edge">
<title>2141&#45;&gt;2527</title>
<path fill="none" stroke="green" stroke-width="0.1" d="M188,-331.69C188,-323.74 188,-314.76 188,-306.23"/>
<polygon fill="green" stroke="green" stroke-width="0.1" points="191.5,-306.15 188,-296.15 184.5,-306.15 191.5,-306.15"/>
</g>
<!-- 2527&#45;&gt;left -->
<g id="edge8" class="edge">
<title>2527&#45;&gt;left</title>
<path fill="none" stroke="green" stroke-width="0.36" d="M184.57,-246.56C183.16,-235.63 181.69,-222.48 181,-210.59 177.65,-153.27 187.56,-86.54 194.3,-49.43"/>
<polygon fill="green" stroke="green" stroke-width="0.36" points="197.78,-49.82 196.18,-39.35 190.9,-48.53 197.78,-49.82"/>
</g>
<!-- 2527&#45;&gt;3769 -->
<g id="edge12" class="edge">
<title>2527&#45;&gt;3769</title>
<path fill="none" stroke="green" stroke-width="0.46" d="M195.38,-247.53C198.21,-238.78 201.49,-228.63 204.55,-219.16"/>
<polygon fill="green" stroke="green" stroke-width="0.46" points="207.88,-220.22 207.63,-209.63 201.22,-218.07 207.88,-220.22"/>
</g>
</g>
</svg>
