<?xml version="1.0" encoding="utf-8" standalone="no"?>
<!DOCTYPE svg PUBLIC "-//W3C//DTD SVG 1.1//EN"
  "http://www.w3.org/Graphics/SVG/1.1/DTD/svg11.dtd">
<svg xmlns:xlink="http://www.w3.org/1999/xlink" width="460.8pt" height="345.6pt" viewBox="0 0 460.8 345.6" xmlns="http://www.w3.org/2000/svg" version="1.1">
 <metadata>
  <rdf:RDF xmlns:dc="http://purl.org/dc/elements/1.1/" xmlns:cc="http://creativecommons.org/ns#" xmlns:rdf="http://www.w3.org/1999/02/22-rdf-syntax-ns#">
   <cc:Work>
    <dc:type rdf:resource="http://purl.org/dc/dcmitype/StillImage"/>
    <dc:date>2022-12-08T22:08:55.268727</dc:date>
    <dc:format>image/svg+xml</dc:format>
    <dc:creator>
     <cc:Agent>
      <dc:title>Matplotlib v3.5.3, https://matplotlib.org/</dc:title>
     </cc:Agent>
    </dc:creator>
   </cc:Work>
  </rdf:RDF>
 </metadata>
 <defs>
  <style type="text/css">*{stroke-linejoin: round; stroke-linecap: butt}</style>
 </defs>
 <g id="figure_1">
  <g id="patch_1">
   <path d="M 0 345.6 
L 460.8 345.6 
L 460.8 0 
L 0 0 
z
" style="fill: #ffffff"/>
  </g>
  <g id="axes_1">
   <g id="patch_2">
    <path d="M 57.6 307.584 
L 414.72 307.584 
L 414.72 41.472 
L 57.6 41.472 
z
" style="fill: #ffffff"/>
   </g>
   <g id="matplotlib.axis_1">
    <g id="xtick_1">
     <g id="line2d_1">
      <path d="M 73.832727 307.584 
L 73.832727 41.472 
" clip-path="url(#p9c620cf764)" style="fill: none; stroke: #b0b0b0; stroke-width: 0.8; stroke-linecap: square"/>
     </g>
     <g id="line2d_2">
      <defs>
       <path id="ma9ad11a572" d="M 0 0 
L 0 3.5 
" style="stroke: #000000; stroke-width: 0.8"/>
      </defs>
      <g>
       <use xlink:href="#ma9ad11a572" x="73.832727" y="307.584" style="stroke: #000000; stroke-width: 0.8"/>
      </g>
     </g>
     <g id="text_1">
      <!-- 0 -->
      <g transform="translate(70.651477 322.182437)scale(0.1 -0.1)">
       <defs>
        <path id="DejaVuSans-30" d="M 2034 4250 
Q 1547 4250 1301 3770 
Q 1056 3291 1056 2328 
Q 1056 1369 1301 889 
Q 1547 409 2034 409 
Q 2525 409 2770 889 
Q 3016 1369 3016 2328 
Q 3016 3291 2770 3770 
Q 2525 4250 2034 4250 
z
M 2034 4750 
Q 2819 4750 3233 4129 
Q 3647 3509 3647 2328 
Q 3647 1150 3233 529 
Q 2819 -91 2034 -91 
Q 1250 -91 836 529 
Q 422 1150 422 2328 
Q 422 3509 836 4129 
Q 1250 4750 2034 4750 
z
" transform="scale(0.015625)"/>
       </defs>
       <use xlink:href="#DejaVuSans-30"/>
      </g>
     </g>
    </g>
    <g id="xtick_2">
     <g id="line2d_3">
      <path d="M 138.893758 307.584 
L 138.893758 41.472 
" clip-path="url(#p9c620cf764)" style="fill: none; stroke: #b0b0b0; stroke-width: 0.8; stroke-linecap: square"/>
     </g>
     <g id="line2d_4">
      <g>
       <use xlink:href="#ma9ad11a572" x="138.893758" y="307.584" style="stroke: #000000; stroke-width: 0.8"/>
      </g>
     </g>
     <g id="text_2">
      <!-- 100 -->
      <g transform="translate(129.350008 322.182437)scale(0.1 -0.1)">
       <defs>
        <path id="DejaVuSans-31" d="M 794 531 
L 1825 531 
L 1825 4091 
L 703 3866 
L 703 4441 
L 1819 4666 
L 2450 4666 
L 2450 531 
L 3481 531 
L 3481 0 
L 794 0 
L 794 531 
z
" transform="scale(0.015625)"/>
       </defs>
       <use xlink:href="#DejaVuSans-31"/>
       <use xlink:href="#DejaVuSans-30" x="63.623047"/>
       <use xlink:href="#DejaVuSans-30" x="127.246094"/>
      </g>
     </g>
    </g>
    <g id="xtick_3">
     <g id="line2d_5">
      <path d="M 203.95479 307.584 
L 203.95479 41.472 
" clip-path="url(#p9c620cf764)" style="fill: none; stroke: #b0b0b0; stroke-width: 0.8; stroke-linecap: square"/>
     </g>
     <g id="line2d_6">
      <g>
       <use xlink:href="#ma9ad11a572" x="203.95479" y="307.584" style="stroke: #000000; stroke-width: 0.8"/>
      </g>
     </g>
     <g id="text_3">
      <!-- 200 -->
      <g transform="translate(194.41104 322.182437)scale(0.1 -0.1)">
       <defs>
        <path id="DejaVuSans-32" d="M 1228 531 
L 3431 531 
L 3431 0 
L 469 0 
L 469 531 
Q 828 903 1448 1529 
Q 2069 2156 2228 2338 
Q 2531 2678 2651 2914 
Q 2772 3150 2772 3378 
Q 2772 3750 2511 3984 
Q 2250 4219 1831 4219 
Q 1534 4219 1204 4116 
Q 875 4013 500 3803 
L 500 4441 
Q 881 4594 1212 4672 
Q 1544 4750 1819 4750 
Q 2544 4750 2975 4387 
Q 3406 4025 3406 3419 
Q 3406 3131 3298 2873 
Q 3191 2616 2906 2266 
Q 2828 2175 2409 1742 
Q 1991 1309 1228 531 
z
" transform="scale(0.015625)"/>
       </defs>
       <use xlink:href="#DejaVuSans-32"/>
       <use xlink:href="#DejaVuSans-30" x="63.623047"/>
       <use xlink:href="#DejaVuSans-30" x="127.246094"/>
      </g>
     </g>
    </g>
    <g id="xtick_4">
     <g id="line2d_7">
      <path d="M 269.015821 307.584 
L 269.015821 41.472 
" clip-path="url(#p9c620cf764)" style="fill: none; stroke: #b0b0b0; stroke-width: 0.8; stroke-linecap: square"/>
     </g>
     <g id="line2d_8">
      <g>
       <use xlink:href="#ma9ad11a572" x="269.015821" y="307.584" style="stroke: #000000; stroke-width: 0.8"/>
      </g>
     </g>
     <g id="text_4">
      <!-- 300 -->
      <g transform="translate(259.472071 322.182437)scale(0.1 -0.1)">
       <defs>
        <path id="DejaVuSans-33" d="M 2597 2516 
Q 3050 2419 3304 2112 
Q 3559 1806 3559 1356 
Q 3559 666 3084 287 
Q 2609 -91 1734 -91 
Q 1441 -91 1130 -33 
Q 819 25 488 141 
L 488 750 
Q 750 597 1062 519 
Q 1375 441 1716 441 
Q 2309 441 2620 675 
Q 2931 909 2931 1356 
Q 2931 1769 2642 2001 
Q 2353 2234 1838 2234 
L 1294 2234 
L 1294 2753 
L 1863 2753 
Q 2328 2753 2575 2939 
Q 2822 3125 2822 3475 
Q 2822 3834 2567 4026 
Q 2313 4219 1838 4219 
Q 1578 4219 1281 4162 
Q 984 4106 628 3988 
L 628 4550 
Q 988 4650 1302 4700 
Q 1616 4750 1894 4750 
Q 2613 4750 3031 4423 
Q 3450 4097 3450 3541 
Q 3450 3153 3228 2886 
Q 3006 2619 2597 2516 
z
" transform="scale(0.015625)"/>
       </defs>
       <use xlink:href="#DejaVuSans-33"/>
       <use xlink:href="#DejaVuSans-30" x="63.623047"/>
       <use xlink:href="#DejaVuSans-30" x="127.246094"/>
      </g>
     </g>
    </g>
    <g id="xtick_5">
     <g id="line2d_9">
      <path d="M 334.076852 307.584 
L 334.076852 41.472 
" clip-path="url(#p9c620cf764)" style="fill: none; stroke: #b0b0b0; stroke-width: 0.8; stroke-linecap: square"/>
     </g>
     <g id="line2d_10">
      <g>
       <use xlink:href="#ma9ad11a572" x="334.076852" y="307.584" style="stroke: #000000; stroke-width: 0.8"/>
      </g>
     </g>
     <g id="text_5">
      <!-- 400 -->
      <g transform="translate(324.533102 322.182437)scale(0.1 -0.1)">
       <defs>
        <path id="DejaVuSans-34" d="M 2419 4116 
L 825 1625 
L 2419 1625 
L 2419 4116 
z
M 2253 4666 
L 3047 4666 
L 3047 1625 
L 3713 1625 
L 3713 1100 
L 3047 1100 
L 3047 0 
L 2419 0 
L 2419 1100 
L 313 1100 
L 313 1709 
L 2253 4666 
z
" transform="scale(0.015625)"/>
       </defs>
       <use xlink:href="#DejaVuSans-34"/>
       <use xlink:href="#DejaVuSans-30" x="63.623047"/>
       <use xlink:href="#DejaVuSans-30" x="127.246094"/>
      </g>
     </g>
    </g>
    <g id="xtick_6">
     <g id="line2d_11">
      <path d="M 399.137883 307.584 
L 399.137883 41.472 
" clip-path="url(#p9c620cf764)" style="fill: none; stroke: #b0b0b0; stroke-width: 0.8; stroke-linecap: square"/>
     </g>
     <g id="line2d_12">
      <g>
       <use xlink:href="#ma9ad11a572" x="399.137883" y="307.584" style="stroke: #000000; stroke-width: 0.8"/>
      </g>
     </g>
     <g id="text_6">
      <!-- 500 -->
      <g transform="translate(389.594133 322.182437)scale(0.1 -0.1)">
       <defs>
        <path id="DejaVuSans-35" d="M 691 4666 
L 3169 4666 
L 3169 4134 
L 1269 4134 
L 1269 2991 
Q 1406 3038 1543 3061 
Q 1681 3084 1819 3084 
Q 2600 3084 3056 2656 
Q 3513 2228 3513 1497 
Q 3513 744 3044 326 
Q 2575 -91 1722 -91 
Q 1428 -91 1123 -41 
Q 819 9 494 109 
L 494 744 
Q 775 591 1075 516 
Q 1375 441 1709 441 
Q 2250 441 2565 725 
Q 2881 1009 2881 1497 
Q 2881 1984 2565 2268 
Q 2250 2553 1709 2553 
Q 1456 2553 1204 2497 
Q 953 2441 691 2322 
L 691 4666 
z
" transform="scale(0.015625)"/>
       </defs>
       <use xlink:href="#DejaVuSans-35"/>
       <use xlink:href="#DejaVuSans-30" x="63.623047"/>
       <use xlink:href="#DejaVuSans-30" x="127.246094"/>
      </g>
     </g>
    </g>
    <g id="text_7">
     <!-- Generations -->
     <g transform="translate(205.662344 335.860562)scale(0.1 -0.1)">
      <defs>
       <path id="DejaVuSans-47" d="M 3809 666 
L 3809 1919 
L 2778 1919 
L 2778 2438 
L 4434 2438 
L 4434 434 
Q 4069 175 3628 42 
Q 3188 -91 2688 -91 
Q 1594 -91 976 548 
Q 359 1188 359 2328 
Q 359 3472 976 4111 
Q 1594 4750 2688 4750 
Q 3144 4750 3555 4637 
Q 3966 4525 4313 4306 
L 4313 3634 
Q 3963 3931 3569 4081 
Q 3175 4231 2741 4231 
Q 1884 4231 1454 3753 
Q 1025 3275 1025 2328 
Q 1025 1384 1454 906 
Q 1884 428 2741 428 
Q 3075 428 3337 486 
Q 3600 544 3809 666 
z
" transform="scale(0.015625)"/>
       <path id="DejaVuSans-65" d="M 3597 1894 
L 3597 1613 
L 953 1613 
Q 991 1019 1311 708 
Q 1631 397 2203 397 
Q 2534 397 2845 478 
Q 3156 559 3463 722 
L 3463 178 
Q 3153 47 2828 -22 
Q 2503 -91 2169 -91 
Q 1331 -91 842 396 
Q 353 884 353 1716 
Q 353 2575 817 3079 
Q 1281 3584 2069 3584 
Q 2775 3584 3186 3129 
Q 3597 2675 3597 1894 
z
M 3022 2063 
Q 3016 2534 2758 2815 
Q 2500 3097 2075 3097 
Q 1594 3097 1305 2825 
Q 1016 2553 972 2059 
L 3022 2063 
z
" transform="scale(0.015625)"/>
       <path id="DejaVuSans-6e" d="M 3513 2113 
L 3513 0 
L 2938 0 
L 2938 2094 
Q 2938 2591 2744 2837 
Q 2550 3084 2163 3084 
Q 1697 3084 1428 2787 
Q 1159 2491 1159 1978 
L 1159 0 
L 581 0 
L 581 3500 
L 1159 3500 
L 1159 2956 
Q 1366 3272 1645 3428 
Q 1925 3584 2291 3584 
Q 2894 3584 3203 3211 
Q 3513 2838 3513 2113 
z
" transform="scale(0.015625)"/>
       <path id="DejaVuSans-72" d="M 2631 2963 
Q 2534 3019 2420 3045 
Q 2306 3072 2169 3072 
Q 1681 3072 1420 2755 
Q 1159 2438 1159 1844 
L 1159 0 
L 581 0 
L 581 3500 
L 1159 3500 
L 1159 2956 
Q 1341 3275 1631 3429 
Q 1922 3584 2338 3584 
Q 2397 3584 2469 3576 
Q 2541 3569 2628 3553 
L 2631 2963 
z
" transform="scale(0.015625)"/>
       <path id="DejaVuSans-61" d="M 2194 1759 
Q 1497 1759 1228 1600 
Q 959 1441 959 1056 
Q 959 750 1161 570 
Q 1363 391 1709 391 
Q 2188 391 2477 730 
Q 2766 1069 2766 1631 
L 2766 1759 
L 2194 1759 
z
M 3341 1997 
L 3341 0 
L 2766 0 
L 2766 531 
Q 2569 213 2275 61 
Q 1981 -91 1556 -91 
Q 1019 -91 701 211 
Q 384 513 384 1019 
Q 384 1609 779 1909 
Q 1175 2209 1959 2209 
L 2766 2209 
L 2766 2266 
Q 2766 2663 2505 2880 
Q 2244 3097 1772 3097 
Q 1472 3097 1187 3025 
Q 903 2953 641 2809 
L 641 3341 
Q 956 3463 1253 3523 
Q 1550 3584 1831 3584 
Q 2591 3584 2966 3190 
Q 3341 2797 3341 1997 
z
" transform="scale(0.015625)"/>
       <path id="DejaVuSans-74" d="M 1172 4494 
L 1172 3500 
L 2356 3500 
L 2356 3053 
L 1172 3053 
L 1172 1153 
Q 1172 725 1289 603 
Q 1406 481 1766 481 
L 2356 481 
L 2356 0 
L 1766 0 
Q 1100 0 847 248 
Q 594 497 594 1153 
L 594 3053 
L 172 3053 
L 172 3500 
L 594 3500 
L 594 4494 
L 1172 4494 
z
" transform="scale(0.015625)"/>
       <path id="DejaVuSans-69" d="M 603 3500 
L 1178 3500 
L 1178 0 
L 603 0 
L 603 3500 
z
M 603 4863 
L 1178 4863 
L 1178 4134 
L 603 4134 
L 603 4863 
z
" transform="scale(0.015625)"/>
       <path id="DejaVuSans-6f" d="M 1959 3097 
Q 1497 3097 1228 2736 
Q 959 2375 959 1747 
Q 959 1119 1226 758 
Q 1494 397 1959 397 
Q 2419 397 2687 759 
Q 2956 1122 2956 1747 
Q 2956 2369 2687 2733 
Q 2419 3097 1959 3097 
z
M 1959 3584 
Q 2709 3584 3137 3096 
Q 3566 2609 3566 1747 
Q 3566 888 3137 398 
Q 2709 -91 1959 -91 
Q 1206 -91 779 398 
Q 353 888 353 1747 
Q 353 2609 779 3096 
Q 1206 3584 1959 3584 
z
" transform="scale(0.015625)"/>
       <path id="DejaVuSans-73" d="M 2834 3397 
L 2834 2853 
Q 2591 2978 2328 3040 
Q 2066 3103 1784 3103 
Q 1356 3103 1142 2972 
Q 928 2841 928 2578 
Q 928 2378 1081 2264 
Q 1234 2150 1697 2047 
L 1894 2003 
Q 2506 1872 2764 1633 
Q 3022 1394 3022 966 
Q 3022 478 2636 193 
Q 2250 -91 1575 -91 
Q 1294 -91 989 -36 
Q 684 19 347 128 
L 347 722 
Q 666 556 975 473 
Q 1284 391 1588 391 
Q 1994 391 2212 530 
Q 2431 669 2431 922 
Q 2431 1156 2273 1281 
Q 2116 1406 1581 1522 
L 1381 1569 
Q 847 1681 609 1914 
Q 372 2147 372 2553 
Q 372 3047 722 3315 
Q 1072 3584 1716 3584 
Q 2034 3584 2315 3537 
Q 2597 3491 2834 3397 
z
" transform="scale(0.015625)"/>
      </defs>
      <use xlink:href="#DejaVuSans-47"/>
      <use xlink:href="#DejaVuSans-65" x="77.490234"/>
      <use xlink:href="#DejaVuSans-6e" x="139.013672"/>
      <use xlink:href="#DejaVuSans-65" x="202.392578"/>
      <use xlink:href="#DejaVuSans-72" x="263.916016"/>
      <use xlink:href="#DejaVuSans-61" x="305.029297"/>
      <use xlink:href="#DejaVuSans-74" x="366.308594"/>
      <use xlink:href="#DejaVuSans-69" x="405.517578"/>
      <use xlink:href="#DejaVuSans-6f" x="433.300781"/>
      <use xlink:href="#DejaVuSans-6e" x="494.482422"/>
      <use xlink:href="#DejaVuSans-73" x="557.861328"/>
     </g>
    </g>
   </g>
   <g id="matplotlib.axis_2">
    <g id="ytick_1">
     <g id="line2d_13">
      <path d="M 57.6 307.584 
L 414.72 307.584 
" clip-path="url(#p9c620cf764)" style="fill: none; stroke: #b0b0b0; stroke-width: 0.8; stroke-linecap: square"/>
     </g>
     <g id="line2d_14">
      <defs>
       <path id="m746d6a0068" d="M 0 0 
L -3.5 0 
" style="stroke: #000000; stroke-width: 0.8"/>
      </defs>
      <g>
       <use xlink:href="#m746d6a0068" x="57.6" y="307.584" style="stroke: #000000; stroke-width: 0.8"/>
      </g>
     </g>
     <g id="text_8">
      <!-- $\mathdefault{9.30123\times10^{-1}}$ -->
      <g transform="translate(-26.5 311.383219)scale(0.1 -0.1)">
       <defs>
        <path id="DejaVuSans-39" d="M 703 97 
L 703 672 
Q 941 559 1184 500 
Q 1428 441 1663 441 
Q 2288 441 2617 861 
Q 2947 1281 2994 2138 
Q 2813 1869 2534 1725 
Q 2256 1581 1919 1581 
Q 1219 1581 811 2004 
Q 403 2428 403 3163 
Q 403 3881 828 4315 
Q 1253 4750 1959 4750 
Q 2769 4750 3195 4129 
Q 3622 3509 3622 2328 
Q 3622 1225 3098 567 
Q 2575 -91 1691 -91 
Q 1453 -91 1209 -44 
Q 966 3 703 97 
z
M 1959 2075 
Q 2384 2075 2632 2365 
Q 2881 2656 2881 3163 
Q 2881 3666 2632 3958 
Q 2384 4250 1959 4250 
Q 1534 4250 1286 3958 
Q 1038 3666 1038 3163 
Q 1038 2656 1286 2365 
Q 1534 2075 1959 2075 
z
" transform="scale(0.015625)"/>
        <path id="DejaVuSans-2e" d="M 684 794 
L 1344 794 
L 1344 0 
L 684 0 
L 684 794 
z
" transform="scale(0.015625)"/>
        <path id="DejaVuSans-d7" d="M 4488 3438 
L 3059 2003 
L 4488 575 
L 4116 197 
L 2681 1631 
L 1247 197 
L 878 575 
L 2303 2003 
L 878 3438 
L 1247 3816 
L 2681 2381 
L 4116 3816 
L 4488 3438 
z
" transform="scale(0.015625)"/>
        <path id="DejaVuSans-2212" d="M 678 2272 
L 4684 2272 
L 4684 1741 
L 678 1741 
L 678 2272 
z
" transform="scale(0.015625)"/>
       </defs>
       <use xlink:href="#DejaVuSans-39" transform="translate(0 0.684375)"/>
       <use xlink:href="#DejaVuSans-2e" transform="translate(63.623047 0.684375)"/>
       <use xlink:href="#DejaVuSans-33" transform="translate(95.410156 0.684375)"/>
       <use xlink:href="#DejaVuSans-30" transform="translate(159.033203 0.684375)"/>
       <use xlink:href="#DejaVuSans-31" transform="translate(222.65625 0.684375)"/>
       <use xlink:href="#DejaVuSans-32" transform="translate(286.279297 0.684375)"/>
       <use xlink:href="#DejaVuSans-33" transform="translate(349.902344 0.684375)"/>
       <use xlink:href="#DejaVuSans-d7" transform="translate(433.007812 0.684375)"/>
       <use xlink:href="#DejaVuSans-31" transform="translate(536.279297 0.684375)"/>
       <use xlink:href="#DejaVuSans-30" transform="translate(599.902344 0.684375)"/>
       <use xlink:href="#DejaVuSans-2212" transform="translate(664.482422 38.965625)scale(0.7)"/>
       <use xlink:href="#DejaVuSans-31" transform="translate(723.134766 38.965625)scale(0.7)"/>
      </g>
     </g>
    </g>
    <g id="ytick_2">
     <g id="line2d_15">
      <path d="M 57.6 41.472 
L 414.72 41.472 
" clip-path="url(#p9c620cf764)" style="fill: none; stroke: #b0b0b0; stroke-width: 0.8; stroke-linecap: square"/>
     </g>
     <g id="line2d_16">
      <g>
       <use xlink:href="#m746d6a0068" x="57.6" y="41.472" style="stroke: #000000; stroke-width: 0.8"/>
      </g>
     </g>
     <g id="text_9">
      <!-- $\mathdefault{1.6319\times10^{0}}$ -->
      <g transform="translate(-14.3 45.271219)scale(0.1 -0.1)">
       <defs>
        <path id="DejaVuSans-36" d="M 2113 2584 
Q 1688 2584 1439 2293 
Q 1191 2003 1191 1497 
Q 1191 994 1439 701 
Q 1688 409 2113 409 
Q 2538 409 2786 701 
Q 3034 994 3034 1497 
Q 3034 2003 2786 2293 
Q 2538 2584 2113 2584 
z
M 3366 4563 
L 3366 3988 
Q 3128 4100 2886 4159 
Q 2644 4219 2406 4219 
Q 1781 4219 1451 3797 
Q 1122 3375 1075 2522 
Q 1259 2794 1537 2939 
Q 1816 3084 2150 3084 
Q 2853 3084 3261 2657 
Q 3669 2231 3669 1497 
Q 3669 778 3244 343 
Q 2819 -91 2113 -91 
Q 1303 -91 875 529 
Q 447 1150 447 2328 
Q 447 3434 972 4092 
Q 1497 4750 2381 4750 
Q 2619 4750 2861 4703 
Q 3103 4656 3366 4563 
z
" transform="scale(0.015625)"/>
       </defs>
       <use xlink:href="#DejaVuSans-31" transform="translate(0 0.765625)"/>
       <use xlink:href="#DejaVuSans-2e" transform="translate(63.623047 0.765625)"/>
       <use xlink:href="#DejaVuSans-36" transform="translate(95.410156 0.765625)"/>
       <use xlink:href="#DejaVuSans-33" transform="translate(159.033203 0.765625)"/>
       <use xlink:href="#DejaVuSans-31" transform="translate(222.65625 0.765625)"/>
       <use xlink:href="#DejaVuSans-39" transform="translate(286.279297 0.765625)"/>
       <use xlink:href="#DejaVuSans-d7" transform="translate(369.384766 0.765625)"/>
       <use xlink:href="#DejaVuSans-31" transform="translate(472.65625 0.765625)"/>
       <use xlink:href="#DejaVuSans-30" transform="translate(536.279297 0.765625)"/>
       <use xlink:href="#DejaVuSans-30" transform="translate(600.859375 39.046875)scale(0.7)"/>
      </g>
     </g>
    </g>
    <g id="text_10">
     <!-- Fitness -->
     <g transform="translate(-32.579688 191.845187)rotate(-90)scale(0.1 -0.1)">
      <defs>
       <path id="DejaVuSans-46" d="M 628 4666 
L 3309 4666 
L 3309 4134 
L 1259 4134 
L 1259 2759 
L 3109 2759 
L 3109 2228 
L 1259 2228 
L 1259 0 
L 628 0 
L 628 4666 
z
" transform="scale(0.015625)"/>
      </defs>
      <use xlink:href="#DejaVuSans-46"/>
      <use xlink:href="#DejaVuSans-69" x="50.269531"/>
      <use xlink:href="#DejaVuSans-74" x="78.052734"/>
      <use xlink:href="#DejaVuSans-6e" x="117.261719"/>
      <use xlink:href="#DejaVuSans-65" x="180.640625"/>
      <use xlink:href="#DejaVuSans-73" x="242.164062"/>
      <use xlink:href="#DejaVuSans-73" x="294.263672"/>
     </g>
    </g>
   </g>
   <g id="line2d_17">
    <path d="M 73.832727 261.747791 
L 74.483338 255.680621 
L 75.133948 263.643782 
L 75.784558 260.230999 
L 76.435169 262.506188 
L 77.085779 257.576611 
L 77.736389 261.747791 
L 78.386999 263.643782 
L 79.03761 254.922224 
L 79.68822 260.230999 
L 80.33883 256.818215 
L 80.989441 263.643782 
L 81.640051 259.472602 
L 82.290661 256.439017 
L 82.941272 259.093404 
L 83.591882 258.335008 
L 84.242492 262.126989 
L 84.893103 255.301422 
L 85.543713 256.439017 
L 86.194323 257.197413 
L 86.844934 256.059819 
L 87.495544 262.885386 
L 88.146154 261.747791 
L 88.796764 257.576611 
L 89.447375 262.506188 
L 90.097985 257.197413 
L 90.748595 261.747791 
L 91.399206 262.506188 
L 92.049816 262.126989 
L 92.700426 257.197413 
L 93.351037 256.439017 
L 94.001647 259.8518 
L 94.652257 257.197413 
L 95.302868 260.989395 
L 95.953478 263.264584 
L 96.604088 258.335008 
L 97.254698 257.95581 
L 97.905309 257.197413 
L 98.555919 260.989395 
L 99.206529 260.989395 
L 99.85714 264.781377 
L 100.50775 263.264584 
L 101.15836 259.472602 
L 101.808971 259.093404 
L 102.459581 258.335008 
L 103.110191 256.439017 
L 103.760802 255.680621 
L 104.411412 258.714206 
L 105.062022 259.093404 
L 105.712633 258.335008 
L 106.363243 253.405432 
L 107.013853 263.643782 
L 107.664463 255.680621 
L 108.315074 259.093404 
L 108.965684 255.680621 
L 109.616294 256.059819 
L 110.266905 254.163828 
L 110.917515 255.680621 
L 111.568125 259.093404 
L 112.218736 256.059819 
L 112.869346 255.680621 
L 113.519956 259.8518 
L 114.170567 260.610197 
L 114.821177 252.267837 
L 115.471787 257.197413 
L 116.122398 253.405432 
L 116.773008 255.301422 
L 117.423618 263.264584 
L 118.074228 263.643782 
L 118.724839 263.264584 
L 119.375449 257.197413 
L 120.026059 264.781377 
L 120.67667 260.989395 
L 121.32728 253.026233 
L 121.97789 260.230999 
L 122.628501 257.576611 
L 123.279111 256.818215 
L 123.929721 265.160575 
L 124.580332 256.439017 
L 125.230942 256.818215 
L 125.881552 260.610197 
L 126.532163 265.539773 
L 127.833383 254.163828 
L 128.483993 260.230999 
L 129.134604 262.126989 
L 129.785214 259.472602 
L 131.086435 262.506188 
L 131.737045 262.126989 
L 132.387655 260.989395 
L 133.038266 261.368593 
L 133.688876 263.264584 
L 134.339486 264.402178 
L 136.291317 257.576611 
L 136.941927 257.197413 
L 137.592538 261.368593 
L 138.243148 256.818215 
L 138.893758 259.472602 
L 139.544369 254.163828 
L 140.194979 261.747791 
L 140.845589 256.818215 
L 141.4962 258.335008 
L 142.14681 259.093404 
L 142.79742 259.093404 
L 143.448031 249.234252 
L 144.098641 256.059819 
L 144.749251 255.680621 
L 145.399862 253.78463 
L 146.050472 258.714206 
L 146.701082 260.989395 
L 147.351692 256.439017 
L 148.002303 255.301422 
L 148.652913 262.506188 
L 149.954134 252.267837 
L 150.604744 254.543026 
L 151.255354 251.888639 
L 151.905965 260.989395 
L 152.556575 260.610197 
L 153.207185 259.093404 
L 153.857796 262.885386 
L 154.508406 260.610197 
L 155.159016 263.643782 
L 155.809627 260.230999 
L 156.460237 257.576611 
L 157.110847 263.264584 
L 157.761457 263.264584 
L 158.412068 262.885386 
L 159.062678 257.197413 
L 159.713288 262.885386 
L 160.363899 265.918971 
L 161.014509 258.714206 
L 161.665119 260.230999 
L 162.31573 260.989395 
L 162.96634 264.402178 
L 163.61695 260.989395 
L 164.267561 265.160575 
L 164.918171 264.02298 
L 165.568781 263.264584 
L 166.219392 260.230999 
L 166.870002 263.643782 
L 167.520612 260.230999 
L 168.171222 262.506188 
L 168.821833 264.02298 
L 169.472443 259.472602 
L 170.123053 261.368593 
L 170.773664 262.126989 
L 171.424274 261.747791 
L 172.074884 266.677367 
L 172.725495 266.148788 
L 173.376105 262.701532 
L 174.026715 265.918971 
L 174.677326 260.989395 
L 175.327936 260.989395 
L 175.978546 260.437493 
L 176.629156 264.402178 
L 177.279767 256.439017 
L 177.930377 263.643782 
L 178.580987 260.989395 
L 179.231598 269.331754 
L 179.882208 260.989395 
L 180.532818 270.745129 
L 181.183429 262.314711 
L 181.834039 265.918971 
L 182.484649 264.233646 
L 183.13526 268.19416 
L 183.78587 261.169418 
L 184.43648 262.318504 
L 185.087091 260.610197 
L 186.388311 262.885386 
L 187.038921 264.781377 
L 187.689532 261.552447 
L 188.340142 263.643782 
L 188.990752 264.781377 
L 189.641363 262.690155 
L 190.291973 261.563824 
L 190.942583 260.989395 
L 191.593194 263.643782 
L 192.243804 260.230999 
L 192.894414 262.126989 
L 193.545025 265.539773 
L 194.195635 266.677367 
L 194.846245 260.989395 
L 195.496856 266.298169 
L 196.147466 264.02298 
L 196.798076 260.230999 
L 197.448686 264.781377 
L 198.099297 266.677367 
L 198.749907 258.335008 
L 199.400517 261.368593 
L 200.051128 262.126989 
L 200.701738 259.093404 
L 201.352348 265.160575 
L 202.002959 267.056565 
L 202.653569 262.126989 
L 203.304179 261.747791 
L 203.95479 265.539773 
L 204.6054 259.8518 
L 205.25601 264.781377 
L 205.906621 262.885386 
L 206.557231 257.576611 
L 207.207841 264.402178 
L 207.858451 261.747791 
L 208.509062 264.781377 
L 209.159672 262.506188 
L 209.810282 254.543026 
L 210.460893 265.160575 
L 211.111503 263.264584 
L 211.762113 260.230999 
L 212.412724 264.02298 
L 213.063334 262.506188 
L 213.713944 262.126989 
L 214.364555 262.885386 
L 215.015165 264.02298 
L 215.665775 264.781377 
L 216.316385 259.472602 
L 216.966996 264.402178 
L 217.617606 262.885386 
L 218.268216 266.298169 
L 218.918827 262.506188 
L 219.569437 262.506188 
L 220.220047 262.126989 
L 220.870658 262.885386 
L 221.521268 265.539773 
L 222.171878 267.056565 
L 222.822489 261.368593 
L 223.473099 262.126989 
L 224.123709 262.126989 
L 224.77432 262.885386 
L 225.42493 266.677367 
L 226.07554 263.264584 
L 226.72615 264.402178 
L 227.376761 262.506188 
L 228.027371 262.885386 
L 228.677981 258.714206 
L 229.328592 264.02298 
L 229.979202 264.402178 
L 230.629812 263.643782 
L 231.280423 266.677367 
L 231.931033 260.230999 
L 232.581643 268.573358 
L 233.232254 263.264584 
L 233.882864 263.643782 
L 234.533474 265.160575 
L 235.184085 264.02298 
L 235.834695 262.506188 
L 236.485305 261.368593 
L 237.135915 261.368593 
L 237.786526 266.677367 
L 238.437136 261.747791 
L 239.087746 260.230999 
L 239.738357 261.747791 
L 240.388967 264.02298 
L 241.039577 261.747791 
L 241.690188 261.747791 
L 242.340798 265.918971 
L 242.991408 262.506188 
L 243.642019 264.402178 
L 244.292629 265.918971 
L 244.943239 264.02298 
L 245.59385 269.331754 
L 246.24446 261.368593 
L 246.89507 262.126989 
L 247.54568 255.301422 
L 248.196291 261.747791 
L 248.846901 262.506188 
L 249.497511 260.989395 
L 250.148122 265.160575 
L 250.798732 261.747791 
L 251.449342 260.230999 
L 252.750563 265.918971 
L 253.401173 263.643782 
L 254.051784 263.643782 
L 254.702394 261.368593 
L 255.353004 260.989395 
L 256.003615 264.781377 
L 256.654225 263.264584 
L 257.304835 260.230999 
L 257.955445 260.989395 
L 258.606056 268.573358 
L 259.256666 262.506188 
L 259.907276 267.814962 
L 260.557887 262.885386 
L 261.208497 265.160575 
L 261.859107 263.264584 
L 262.509718 263.264584 
L 263.160328 262.506188 
L 263.810938 264.402178 
L 264.461549 264.02298 
L 265.112159 257.95581 
L 265.762769 263.264584 
L 266.413379 261.747791 
L 267.06399 260.989395 
L 267.7146 265.918971 
L 268.36521 261.368593 
L 269.015821 262.506188 
L 269.666431 262.506188 
L 270.317041 260.989395 
L 270.967652 262.126989 
L 271.618262 260.989395 
L 272.268872 264.781377 
L 272.919483 265.918971 
L 273.570093 264.402178 
L 274.220703 261.747791 
L 274.871314 264.781377 
L 275.521924 265.539773 
L 276.172534 264.02298 
L 276.823144 265.918971 
L 277.473755 262.885386 
L 278.124365 266.298169 
L 278.774975 260.989395 
L 279.425586 264.567374 
L 280.076196 258.714206 
L 280.726806 263.643782 
L 281.377417 262.126989 
L 282.028027 264.02298 
L 283.329248 261.169418 
L 283.979858 262.318504 
L 284.630468 258.871248 
L 285.281079 263.264584 
L 285.931689 264.616674 
L 286.582299 261.935475 
L 287.232909 260.989395 
L 287.88352 267.814962 
L 288.53413 262.126989 
L 289.18474 264.402178 
L 289.835351 261.747791 
L 290.485961 260.230999 
L 291.787182 265.918971 
L 292.437792 262.126989 
L 293.088402 264.02298 
L 293.739013 263.264584 
L 294.389623 265.160575 
L 295.040233 260.989395 
L 296.341454 265.918971 
L 296.992064 264.02298 
L 297.642674 258.335008 
L 298.293285 266.677367 
L 298.943895 264.02298 
L 299.594505 259.472602 
L 300.245116 262.506188 
L 300.895726 264.402178 
L 301.546336 263.264584 
L 302.196947 260.610197 
L 302.847557 264.02298 
L 303.498167 265.160575 
L 304.148778 264.02298 
L 304.799388 259.093404 
L 305.449998 260.230999 
L 306.100608 265.539773 
L 306.751219 264.402178 
L 307.401829 261.747791 
L 308.052439 267.056565 
L 308.70305 262.885386 
L 309.35366 262.885386 
L 310.00427 266.298169 
L 310.654881 261.747791 
L 311.305491 264.402178 
L 311.956101 262.885386 
L 312.606712 264.781377 
L 313.257322 261.747791 
L 313.907932 264.402178 
L 314.558543 259.472602 
L 315.209153 265.160575 
L 315.859763 261.747791 
L 316.510373 262.126989 
L 317.160984 266.677367 
L 317.811594 268.19416 
L 319.112815 261.747791 
L 319.763425 260.230999 
L 320.414035 265.918971 
L 321.064646 260.989395 
L 321.715256 264.02298 
L 322.365866 265.539773 
L 323.016477 264.02298 
L 323.667087 262.885386 
L 324.317697 262.885386 
L 324.968308 265.539773 
L 325.618918 260.610197 
L 326.269528 267.056565 
L 326.920138 266.298169 
L 327.570749 267.814962 
L 328.221359 266.298169 
L 328.871969 263.643782 
L 329.52258 261.747791 
L 330.17319 264.02298 
L 330.8238 260.610197 
L 331.474411 261.368593 
L 332.125021 265.918971 
L 332.775631 268.573358 
L 333.426242 262.126989 
L 334.076852 267.814962 
L 334.727462 265.918971 
L 335.378073 265.160575 
L 336.028683 261.368593 
L 336.679293 266.298169 
L 337.329903 263.643782 
L 337.980514 262.506188 
L 338.631124 264.02298 
L 339.281734 261.368593 
L 339.932345 263.643782 
L 340.582955 268.19416 
L 341.233565 261.747791 
L 341.884176 262.506188 
L 342.534786 266.677367 
L 343.185396 265.539773 
L 343.836007 264.781377 
L 344.486617 267.435764 
L 345.137227 261.747791 
L 345.787837 264.02298 
L 346.438448 264.781377 
L 347.089058 264.781377 
L 347.739668 262.126989 
L 348.390279 260.989395 
L 349.040889 267.435764 
L 350.34211 263.643782 
L 350.99272 265.160575 
L 351.64333 265.539773 
L 352.293941 265.539773 
L 352.944551 261.747791 
L 353.595161 260.230999 
L 354.245772 263.264584 
L 355.546992 266.298169 
L 356.197602 262.885386 
L 356.848213 264.02298 
L 357.498823 266.677367 
L 358.149433 266.298169 
L 359.450654 261.368593 
L 360.101264 264.02298 
L 360.751875 264.781377 
L 361.402485 261.747791 
L 362.053095 263.643782 
L 362.703706 269.710953 
L 363.354316 262.126989 
L 364.004926 264.02298 
L 364.655537 263.441042 
L 365.306147 269.823586 
L 365.956757 267.814962 
L 366.607367 262.126989 
L 367.257978 267.435764 
L 367.908588 263.08456 
L 368.559198 263.467589 
L 369.209809 264.233646 
L 369.860419 264.616674 
L 370.511029 261.747791 
L 371.16164 263.264584 
L 371.81225 264.402178 
L 372.46286 262.126989 
L 373.764081 267.814962 
L 374.414691 265.539773 
L 375.065302 262.126989 
L 375.715912 262.506188 
L 376.366522 266.677367 
L 377.017132 264.402178 
L 377.667743 259.8518 
L 378.318353 262.885386 
L 378.968963 261.368593 
L 379.619574 264.02298 
L 380.270184 264.402178 
L 380.920794 262.885386 
L 381.571405 262.885386 
L 382.222015 263.643782 
L 382.872625 265.160575 
L 383.523236 264.02298 
L 384.173846 265.160575 
L 384.824456 263.643782 
L 385.475066 262.506188 
L 386.125677 265.539773 
L 386.776287 264.781377 
L 387.426897 264.402178 
L 388.077508 262.506188 
L 388.728118 267.056565 
L 389.378728 264.02298 
L 390.029339 266.298169 
L 390.679949 263.643782 
L 391.330559 264.402178 
L 391.98117 260.610197 
L 392.63178 264.781377 
L 393.28239 265.539773 
L 393.933001 264.781377 
L 394.583611 263.264584 
L 395.234221 261.368593 
L 395.884831 262.885386 
L 396.535442 262.506188 
L 397.186052 264.02298 
L 397.836662 263.643782 
L 398.487273 265.918971 
L 398.487273 265.918971 
" clip-path="url(#p9c620cf764)" style="fill: none; stroke: #0000ff; stroke-width: 1.5; stroke-linecap: square"/>
   </g>
   <g id="line2d_18">
    <path d="M 73.832727 288.288954 
L 74.483338 291.274787 
L 75.784558 287.771856 
L 76.435169 290.625719 
L 77.736389 286.025359 
L 78.386999 288.463164 
L 79.03761 287.407359 
L 79.68822 288.2891 
L 80.33883 290.10136 
L 80.989441 286.65958 
L 81.640051 290.397602 
L 82.290661 292.958379 
L 82.941272 289.514457 
L 83.591882 287.707571 
L 84.242492 288.670861 
L 84.893103 287.868342 
L 85.543713 290.514144 
L 86.194323 290.538831 
L 86.844934 286.023673 
L 87.495544 292.97375 
L 88.146154 289.867323 
L 88.796764 287.808005 
L 89.447375 291.13251 
L 90.097985 291.808465 
L 90.748595 288.288954 
L 91.399206 288.499938 
L 92.049816 289.207155 
L 92.700426 286.400596 
L 93.351037 286.477161 
L 94.001647 289.380602 
L 94.652257 290.967346 
L 95.302868 286.401331 
L 95.953478 289.784067 
L 96.604088 289.141212 
L 97.254698 285.766835 
L 97.905309 287.369294 
L 98.555919 289.595618 
L 99.206529 295.098264 
L 99.85714 290.079891 
L 100.50775 291.363654 
L 101.15836 284.771117 
L 101.808971 291.792513 
L 102.459581 290.511039 
L 103.110191 291.34791 
L 103.760802 288.324715 
L 104.411412 290.027342 
L 105.712633 285.148367 
L 106.363243 285.06564 
L 107.013853 289.596011 
L 107.664463 286.512486 
L 108.315074 284.349254 
L 108.965684 284.085069 
L 109.616294 285.048024 
L 110.266905 288.20518 
L 110.917515 288.324715 
L 111.568125 291.349775 
L 112.218736 283.519631 
L 112.869346 285.565189 
L 113.519956 289.380602 
L 114.170567 291.14448 
L 114.821177 288.289667 
L 115.471787 290.967346 
L 116.122398 286.40003 
L 116.773008 285.10167 
L 117.423618 289.784067 
L 118.074228 290.681435 
L 118.724839 291.870807 
L 119.375449 285.903991 
L 120.026059 291.731137 
L 120.67667 293.368122 
L 121.32728 288.847918 
L 121.97789 286.707069 
L 122.628501 291.822216 
L 123.279111 292.195595 
L 123.929721 293.628231 
L 124.580332 286.477161 
L 125.230942 288.325909 
L 125.881552 294.279919 
L 126.532163 288.351623 
L 127.182773 287.978116 
L 127.833383 287.349625 
L 128.483993 290.744083 
L 129.134604 289.207155 
L 129.785214 286.422363 
L 131.086435 293.542578 
L 131.737045 286.407519 
L 133.038266 290.975204 
L 133.688876 288.67652 
L 134.339486 287.973546 
L 134.990097 289.207155 
L 135.640707 292.612415 
L 136.291317 291.399727 
L 136.941927 293.432174 
L 137.592538 292.858027 
L 138.243148 286.444247 
L 138.893758 289.453247 
L 139.544369 286.023244 
L 140.194979 290.872086 
L 140.845589 286.444247 
L 141.4962 287.707571 
L 142.14681 290.445549 
L 142.79742 287.561061 
L 143.448031 283.872297 
L 144.098641 287.885367 
L 144.749251 290.868494 
L 145.399862 285.090877 
L 146.050472 287.640341 
L 146.701082 289.595618 
L 147.351692 286.477161 
L 148.002303 289.167024 
L 148.652913 289.583698 
L 149.303523 288.592493 
L 149.954134 282.660517 
L 150.604744 286.494831 
L 151.255354 286.994689 
L 151.905965 290.093935 
L 152.556575 293.850112 
L 153.207185 292.660474 
L 153.857796 289.954929 
L 154.508406 288.174539 
L 155.159016 290.144281 
L 155.809627 288.2891 
L 156.460237 289.654176 
L 157.110847 288.104234 
L 157.761457 289.236198 
L 158.412068 287.739504 
L 159.062678 285.398643 
L 159.713288 289.418421 
L 160.363899 287.369658 
L 161.014509 291.375915 
L 161.665119 288.2891 
L 162.96634 290.848362 
L 163.61695 286.401331 
L 164.267561 295.105227 
L 164.918171 287.627875 
L 165.568781 292.369124 
L 166.219392 287.244709 
L 166.870002 293.703459 
L 167.520612 287.244709 
L 168.171222 289.04735 
L 168.821833 291.563838 
L 169.472443 288.478163 
L 170.123053 287.901628 
L 170.773664 286.407519 
L 171.424274 290.374113 
L 172.074884 291.123153 
L 172.725495 289.529216 
L 173.376105 285.160199 
L 174.026715 291.072132 
L 174.677326 289.088465 
L 175.327936 284.642973 
L 175.978546 286.318613 
L 176.629156 292.43208 
L 177.279767 289.65946 
L 177.930377 289.035906 
L 178.580987 289.088465 
L 179.231598 289.889052 
L 179.882208 290.093935 
L 180.532818 290.780117 
L 181.183429 286.547561 
L 181.834039 289.294316 
L 182.484649 285.941595 
L 183.13526 291.084667 
L 183.78587 287.209719 
L 184.43648 289.467629 
L 185.087091 285.429578 
L 185.737701 291.361687 
L 186.388311 291.504172 
L 187.038921 288.916379 
L 187.689532 288.155696 
L 188.340142 292.232406 
L 188.990752 287.693859 
L 189.641363 288.065263 
L 190.291973 287.493915 
L 190.942583 286.401331 
L 191.593194 289.596011 
L 192.243804 286.707069 
L 192.894414 288.670861 
L 193.545025 291.863337 
L 194.195635 293.372487 
L 194.846245 287.508878 
L 195.496856 290.21773 
L 196.147466 286.376382 
L 196.798076 289.295987 
L 197.448686 293.286891 
L 198.099297 289.28979 
L 198.749907 287.213879 
L 199.400517 287.901628 
L 200.051128 290.249078 
L 200.701738 286.532263 
L 201.352348 291.530529 
L 202.002959 288.941918 
L 202.653569 285.807907 
L 203.304179 285.425673 
L 203.95479 290.170146 
L 204.6054 288.390084 
L 205.25601 289.50498 
L 205.906621 294.374819 
L 206.557231 287.808005 
L 207.207841 288.575875 
L 207.858451 285.425673 
L 208.509062 288.916379 
L 209.159672 287.368982 
L 209.810282 285.114959 
L 210.460893 289.84052 
L 211.111503 287.518449 
L 211.762113 286.158283 
L 213.063334 289.04735 
L 213.713944 289.207155 
L 214.364555 291.504172 
L 215.015165 289.389608 
L 215.665775 288.916379 
L 216.316385 286.950736 
L 216.966996 287.973546 
L 217.617606 291.504172 
L 218.268216 288.340642 
L 218.918827 284.286163 
L 219.569437 289.583698 
L 220.220047 289.733032 
L 220.870658 288.870837 
L 221.521268 289.579262 
L 222.171878 289.589361 
L 222.822489 285.637275 
L 223.473099 290.755823 
L 224.123709 286.407519 
L 224.77432 288.870837 
L 225.42493 292.272541 
L 226.07554 290.320844 
L 226.72615 287.973546 
L 227.376761 289.04735 
L 228.027371 290.481009 
L 229.328592 290.499051 
L 229.979202 289.737611 
L 230.629812 290.681435 
L 231.280423 289.916987 
L 231.931033 287.771856 
L 232.581643 289.38094 
L 233.232254 286.918162 
L 233.882864 290.144281 
L 234.533474 288.025941 
L 235.184085 287.627875 
L 235.834695 291.630483 
L 236.485305 287.901628 
L 237.135915 289.98738 
L 237.786526 292.828298 
L 238.437136 289.867323 
L 239.087746 285.597627 
L 239.738357 287.741542 
L 240.388967 288.816277 
L 241.039577 290.374113 
L 241.690188 287.182351 
L 242.340798 290.493821 
L 242.991408 287.940747 
L 243.642019 289.163557 
L 244.292629 288.029833 
L 244.943239 288.22937 
L 245.59385 290.577006 
L 246.24446 289.480453 
L 246.89507 288.123506 
L 247.54568 287.868342 
L 248.196291 288.288954 
L 248.846901 289.04735 
L 249.497511 288.045655 
L 250.148122 289.84052 
L 250.798732 288.288954 
L 251.449342 289.78657 
L 252.099953 287.154068 
L 252.750563 292.19059 
L 254.051784 292.232406 
L 254.702394 295.488 
L 255.353004 288.045655 
L 256.003615 289.50498 
L 257.304835 287.771856 
L 257.955445 289.595618 
L 258.606056 292.588909 
L 259.256666 287.940747 
L 259.907276 288.842517 
L 260.557887 285.938638 
L 261.208497 291.530529 
L 261.859107 289.236198 
L 262.509718 289.236198 
L 263.160328 290.625719 
L 263.810938 289.737611 
L 264.461549 287.010647 
L 265.112159 287.276926 
L 265.762769 289.784067 
L 266.413379 288.288954 
L 267.7146 289.901569 
L 268.36521 290.485481 
L 269.015821 289.583698 
L 269.666431 290.109626 
L 270.317041 285.829045 
L 270.967652 288.670861 
L 271.618262 293.368122 
L 272.268872 288.916379 
L 272.919483 286.68851 
L 273.570093 292.43208 
L 274.220703 288.288954 
L 274.871314 290.642024 
L 275.521924 289.579262 
L 276.172534 287.010647 
L 276.823144 289.294316 
L 277.473755 290.997246 
L 278.124365 291.391233 
L 278.774975 286.401331 
L 279.425586 288.67776 
L 280.076196 285.578462 
L 280.726806 287.276074 
L 281.377417 290.249078 
L 282.028027 288.22937 
L 282.678637 285.568794 
L 283.329248 289.863337 
L 283.979858 286.041543 
L 284.630468 289.837386 
L 285.281079 288.104234 
L 285.931689 288.209486 
L 286.582299 287.429176 
L 287.232909 288.045655 
L 287.88352 291.419857 
L 288.53413 287.564375 
L 289.18474 292.940462 
L 289.835351 288.825302 
L 290.485961 287.244709 
L 291.136571 288.870837 
L 291.787182 288.670861 
L 292.437792 289.733032 
L 293.088402 289.950265 
L 293.739013 289.236198 
L 294.389623 289.84052 
L 295.040233 290.093935 
L 295.690844 289.596011 
L 296.341454 291.637442 
L 297.642674 288.193101 
L 298.293285 287.980071 
L 298.943895 290.499051 
L 299.594505 287.469139 
L 300.245116 288.499938 
L 300.895726 287.973546 
L 301.546336 288.104234 
L 302.196947 287.64785 
L 302.847557 291.563838 
L 303.498167 288.646384 
L 304.148778 289.950265 
L 304.799388 290.445549 
L 305.449998 286.158283 
L 306.100608 288.973483 
L 306.751219 288.575875 
L 307.401829 291.361687 
L 308.052439 290.218714 
L 308.70305 289.418421 
L 309.35366 288.311464 
L 310.00427 291.391233 
L 311.305491 288.575875 
L 311.956101 288.870837 
L 312.606712 288.916379 
L 313.257322 287.182351 
L 313.907932 293.439945 
L 314.558543 289.929085 
L 315.209153 293.118565 
L 315.859763 287.182351 
L 316.510373 289.207155 
L 317.160984 288.644694 
L 317.811594 289.791817 
L 318.462204 289.250852 
L 319.112815 288.288954 
L 319.763425 285.597627 
L 320.414035 291.072132 
L 321.064646 285.829045 
L 321.715256 290.499051 
L 322.365866 292.934052 
L 323.016477 287.627875 
L 323.667087 289.418421 
L 324.317697 287.154068 
L 324.968308 288.973483 
L 325.618918 286.00232 
L 326.269528 288.941918 
L 326.920138 290.811505 
L 327.570749 292.021352 
L 328.221359 288.340642 
L 328.871969 287.876889 
L 329.52258 287.741542 
L 330.17319 289.389608 
L 330.8238 287.64785 
L 331.474411 288.438137 
L 332.125021 288.029833 
L 332.775631 289.38094 
L 333.426242 291.253753 
L 334.076852 290.168364 
L 334.727462 292.73233 
L 335.378073 288.646384 
L 336.028683 288.964217 
L 336.679293 291.391233 
L 337.329903 288.463164 
L 337.980514 287.940747 
L 338.631124 286.376382 
L 339.281734 291.931118 
L 339.932345 289.596011 
L 340.582955 292.308301 
L 341.233565 290.374113 
L 341.884176 289.04735 
L 342.534786 291.123153 
L 343.185396 288.973483 
L 343.836007 290.079891 
L 344.486617 292.313013 
L 345.787837 286.376382 
L 346.438448 290.079891 
L 347.089058 291.192195 
L 347.739668 286.407519 
L 348.390279 289.595618 
L 349.040889 289.882245 
L 349.691499 290.747183 
L 350.34211 289.596011 
L 350.99272 288.025941 
L 351.64333 288.351623 
L 352.293941 290.170146 
L 352.944551 289.867323 
L 353.595161 285.597627 
L 354.245772 290.847178 
L 354.896382 292.25951 
L 355.546992 288.983602 
L 356.197602 288.870837 
L 356.848213 289.389608 
L 357.498823 290.527696 
L 358.149433 289.608835 
L 358.800044 292.081082 
L 359.450654 288.438137 
L 360.101264 287.627875 
L 360.751875 290.642024 
L 361.402485 288.288954 
L 362.053095 289.035906 
L 362.703706 290.131399 
L 363.354316 286.992676 
L 364.004926 292.081082 
L 364.655537 287.043288 
L 365.306147 289.461841 
L 365.956757 290.802629 
L 366.607367 288.123506 
L 367.257978 291.128822 
L 367.908588 290.747595 
L 368.559198 289.490982 
L 369.209809 291.832965 
L 369.860419 290.555365 
L 370.511029 290.374113 
L 371.16164 290.320844 
L 371.81225 289.163557 
L 372.46286 289.207155 
L 373.113471 290.642024 
L 373.764081 291.419857 
L 374.414691 290.170146 
L 375.065302 290.755823 
L 375.715912 289.583698 
L 376.366522 292.272541 
L 377.017132 286.066311 
L 377.667743 288.889567 
L 378.318353 287.154068 
L 378.968963 286.222711 
L 379.619574 289.389608 
L 380.270184 289.737611 
L 380.920794 289.418421 
L 381.571405 290.997246 
L 382.222015 287.876889 
L 382.872625 288.646384 
L 383.523236 288.22937 
L 384.173846 288.025941 
L 384.824456 286.026112 
L 386.125677 290.170146 
L 386.776287 288.313059 
L 387.426897 288.575875 
L 388.077508 287.940747 
L 388.728118 288.274727 
L 389.378728 286.376382 
L 390.029339 290.811505 
L 390.679949 287.276074 
L 391.330559 294.413982 
L 391.98117 291.611821 
L 392.63178 288.313059 
L 393.933001 290.642024 
L 394.583611 287.518449 
L 395.234221 292.398034 
L 395.884831 288.870837 
L 396.535442 287.940747 
L 397.186052 287.627875 
L 397.836662 291.208124 
L 398.487273 289.294316 
L 398.487273 289.294316 
" clip-path="url(#p9c620cf764)" style="fill: none; stroke-dasharray: 9.6,2.4,1.5,2.4; stroke-dashoffset: 0; stroke: #008000; stroke-width: 1.5"/>
   </g>
   <g id="line2d_19">
    <path d="M 73.832727 235.206629 
L 74.483338 220.086454 
L 75.133948 237.691553 
L 75.784558 232.690141 
L 76.435169 234.386656 
L 77.085779 226.873266 
L 77.736389 237.470223 
L 78.386999 238.8244 
L 79.03761 222.43709 
L 79.68822 232.172897 
L 80.33883 223.53507 
L 80.989441 240.627984 
L 81.640051 228.547603 
L 82.290661 219.919655 
L 82.941272 228.672351 
L 83.591882 228.962444 
L 84.242492 235.583118 
L 84.893103 222.734503 
L 85.543713 222.363889 
L 86.194323 223.855996 
L 86.844934 226.095965 
L 87.495544 232.797021 
L 88.146154 233.628259 
L 88.796764 227.345218 
L 89.447375 233.879865 
L 90.097985 222.586362 
L 90.748595 235.206629 
L 91.399206 236.512437 
L 92.049816 235.046824 
L 92.700426 227.994231 
L 93.351037 226.400873 
L 94.001647 230.322999 
L 94.652257 223.42748 
L 95.302868 235.577459 
L 95.953478 236.745101 
L 96.604088 227.528803 
L 97.254698 230.144785 
L 97.905309 227.025533 
L 98.555919 232.383172 
L 99.206529 226.880525 
L 99.85714 239.482862 
L 100.50775 235.165514 
L 101.15836 234.174088 
L 101.808971 226.394295 
L 102.459581 226.158977 
L 103.110191 221.530124 
L 103.760802 223.036526 
L 104.411412 227.40107 
L 105.062022 230.625748 
L 105.712633 231.521649 
L 106.363243 221.745223 
L 107.013853 237.691553 
L 107.664463 224.848755 
L 108.315074 233.837554 
L 108.965684 227.276172 
L 109.616294 227.071614 
L 110.266905 220.122476 
L 110.917515 223.036526 
L 111.568125 226.837033 
L 112.218736 228.600006 
L 112.869346 225.796052 
L 113.519956 230.322999 
L 114.170567 230.075914 
L 114.821177 216.246008 
L 115.471787 223.42748 
L 116.122398 220.410833 
L 116.773008 225.501175 
L 117.423618 236.745101 
L 118.074228 236.606129 
L 118.724839 234.658361 
L 119.375449 228.490835 
L 120.026059 237.831616 
L 120.67667 228.610668 
L 121.32728 217.204549 
L 121.97789 233.754928 
L 122.628501 223.331007 
L 123.279111 221.440835 
L 123.929721 236.692918 
L 124.580332 226.400873 
L 125.230942 225.310521 
L 125.881552 226.940475 
L 126.532163 242.727922 
L 127.833383 220.97803 
L 128.483993 229.717914 
L 129.134604 235.046824 
L 129.785214 232.522842 
L 130.435824 231.884855 
L 131.086435 231.469797 
L 131.737045 237.84646 
L 132.387655 233.406801 
L 133.038266 231.761982 
L 133.688876 237.852648 
L 134.339486 240.830811 
L 134.990097 235.046824 
L 135.640707 227.091186 
L 136.941927 220.962653 
L 137.592538 229.879159 
L 138.243148 227.192183 
L 138.893758 229.491957 
L 139.544369 222.304412 
L 140.194979 232.623496 
L 140.845589 227.192183 
L 141.4962 228.962444 
L 142.14681 227.74126 
L 142.79742 230.625748 
L 143.448031 214.596207 
L 144.098641 224.23427 
L 144.749251 220.492747 
L 145.399862 222.478382 
L 146.050472 229.788071 
L 146.701082 232.383172 
L 148.002303 221.435821 
L 148.652913 235.428677 
L 149.303523 225.319718 
L 149.954134 221.875158 
L 150.604744 222.591221 
L 151.255354 216.782589 
L 151.905965 231.884855 
L 152.556575 227.370282 
L 153.207185 225.526334 
L 153.857796 235.815842 
L 154.508406 233.045855 
L 155.159016 237.143283 
L 155.809627 232.172897 
L 156.460237 225.499047 
L 157.110847 238.424933 
L 157.761457 237.29297 
L 158.412068 238.031267 
L 159.062678 228.996183 
L 160.363899 244.468284 
L 161.014509 226.052497 
L 161.665119 232.172897 
L 162.31573 232.383172 
L 162.96634 237.955995 
L 163.61695 235.577459 
L 164.267561 235.215922 
L 164.918171 240.418085 
L 165.568781 234.160044 
L 166.219392 233.217288 
L 166.870002 233.584105 
L 167.520612 233.217288 
L 168.171222 235.965025 
L 168.821833 236.482123 
L 169.472443 230.467041 
L 170.123053 234.835558 
L 170.773664 237.84646 
L 171.424274 233.121469 
L 172.074884 242.231582 
L 172.725495 242.76836 
L 173.376105 240.242866 
L 174.026715 240.76581 
L 174.677326 232.890325 
L 175.327936 237.335817 
L 175.978546 234.556373 
L 176.629156 236.372277 
L 177.279767 223.218574 
L 177.930377 238.251658 
L 178.580987 232.890325 
L 179.231598 248.774457 
L 179.882208 231.884855 
L 180.532818 250.710142 
L 181.183429 238.081862 
L 181.834039 242.543626 
L 182.484649 242.525697 
L 183.13526 245.303653 
L 183.78587 235.129117 
L 184.43648 235.169378 
L 185.087091 235.790815 
L 185.737701 232.133896 
L 186.388311 234.266599 
L 187.038921 240.646374 
L 187.689532 234.949198 
L 188.340142 235.055158 
L 188.990752 241.868894 
L 189.641363 237.315047 
L 190.291973 235.633733 
L 190.942583 235.577459 
L 191.593194 237.691553 
L 192.243804 233.754928 
L 192.894414 235.583118 
L 193.545025 239.216209 
L 194.195635 239.982248 
L 194.846245 234.469912 
L 195.496856 242.378609 
L 196.147466 241.669578 
L 196.798076 231.16601 
L 197.448686 236.275862 
L 198.099297 244.064944 
L 198.749907 229.456136 
L 199.400517 234.835558 
L 200.051128 234.004901 
L 200.701738 231.654545 
L 202.002959 245.171213 
L 202.653569 238.446072 
L 203.304179 238.06991 
L 203.95479 240.9094 
L 204.6054 231.313517 
L 205.25601 240.057773 
L 205.906621 231.395952 
L 206.557231 227.345218 
L 207.207841 240.228481 
L 207.858451 238.06991 
L 208.509062 240.646374 
L 209.159672 237.643393 
L 209.810282 223.971093 
L 210.460893 240.480629 
L 211.111503 239.010718 
L 211.762113 234.303714 
L 212.412724 240.418085 
L 213.063334 235.965025 
L 214.364555 234.266599 
L 215.015165 238.656352 
L 215.665775 240.646374 
L 216.316385 231.994468 
L 216.966996 240.830811 
L 217.617606 234.266599 
L 218.268216 244.255696 
L 218.918827 240.726212 
L 219.569437 235.428677 
L 220.220047 234.520946 
L 220.870658 236.899934 
L 221.521268 241.500284 
L 222.171878 244.52377 
L 222.822489 237.099911 
L 223.473099 233.498156 
L 224.123709 237.84646 
L 224.77432 236.899934 
L 225.42493 241.082194 
L 226.07554 236.208323 
L 226.72615 240.830811 
L 227.376761 235.965025 
L 228.027371 235.289762 
L 228.677981 226.945184 
L 229.328592 237.546909 
L 229.979202 239.066746 
L 230.629812 236.606129 
L 231.280423 243.437748 
L 231.931033 232.690141 
L 232.581643 247.765777 
L 233.232254 239.611006 
L 233.882864 237.143283 
L 234.533474 242.295208 
L 235.184085 240.418085 
L 235.834695 233.381892 
L 236.485305 234.835558 
L 237.135915 232.749807 
L 237.786526 240.526437 
L 238.437136 233.628259 
L 239.087746 234.86437 
L 239.738357 235.754041 
L 240.388967 239.229683 
L 241.039577 233.121469 
L 241.690188 236.313232 
L 242.340798 241.344121 
L 242.991408 237.071628 
L 243.642019 239.6408 
L 244.292629 243.808109 
L 244.943239 239.81659 
L 245.59385 248.086503 
L 246.24446 233.256733 
L 246.89507 236.130473 
L 247.54568 222.734503 
L 248.196291 235.206629 
L 248.846901 235.965025 
L 249.497511 233.933134 
L 250.148122 240.480629 
L 251.449342 230.675427 
L 252.099953 238.616703 
L 252.750563 239.647352 
L 253.401173 235.055158 
L 254.051784 235.055158 
L 254.702394 227.249186 
L 256.003615 240.057773 
L 256.654225 237.852648 
L 257.304835 232.690141 
L 257.955445 232.383172 
L 258.606056 244.557807 
L 259.256666 237.071628 
L 259.907276 246.787406 
L 260.557887 239.832133 
L 261.208497 238.790621 
L 261.859107 237.29297 
L 262.509718 237.29297 
L 263.160328 234.386656 
L 263.810938 239.066746 
L 264.461549 241.035313 
L 265.112159 228.634693 
L 265.762769 236.745101 
L 266.413379 235.206629 
L 267.06399 232.890325 
L 267.7146 241.936373 
L 268.36521 232.251705 
L 269.015821 235.428677 
L 269.666431 234.902749 
L 270.317041 236.149744 
L 270.967652 235.583118 
L 271.618262 228.610668 
L 272.268872 240.646374 
L 272.919483 245.149432 
L 273.570093 236.372277 
L 274.220703 235.206629 
L 274.871314 238.920729 
L 275.521924 241.500284 
L 276.172534 241.035313 
L 276.823144 242.543626 
L 277.473755 234.773525 
L 278.124365 241.205105 
L 278.774975 235.577459 
L 279.425586 240.456987 
L 280.076196 231.84995 
L 280.726806 240.011491 
L 281.377417 234.004901 
L 282.028027 239.81659 
L 282.678637 239.443581 
L 283.329248 232.4755 
L 283.979858 238.595464 
L 284.630468 227.905109 
L 285.281079 238.424933 
L 285.931689 241.023863 
L 286.582299 236.441774 
L 287.232909 233.933134 
L 287.88352 244.210067 
L 288.53413 236.689603 
L 289.18474 235.863895 
L 289.835351 234.670281 
L 290.485961 233.217288 
L 291.136571 236.899934 
L 291.787182 243.167081 
L 292.437792 234.520946 
L 293.088402 238.095696 
L 293.739013 237.29297 
L 294.389623 240.480629 
L 295.040233 231.884855 
L 295.690844 237.691553 
L 296.341454 240.2005 
L 296.992064 238.095696 
L 297.642674 228.476915 
L 298.293285 245.374664 
L 298.943895 237.546909 
L 299.594505 231.476065 
L 300.895726 240.830811 
L 301.546336 238.424933 
L 302.196947 233.572543 
L 302.847557 236.482123 
L 303.498167 241.674766 
L 304.148778 238.095696 
L 304.799388 227.74126 
L 305.449998 234.303714 
L 306.100608 242.106063 
L 306.751219 240.228481 
L 307.401829 232.133896 
L 308.052439 243.894417 
L 308.70305 236.352351 
L 309.35366 237.459308 
L 310.00427 241.205105 
L 310.654881 233.628259 
L 311.305491 240.228481 
L 311.956101 236.899934 
L 312.606712 240.646374 
L 313.257322 236.313232 
L 313.907932 235.364412 
L 314.558543 229.01612 
L 315.209153 237.202584 
L 315.859763 236.313232 
L 316.510373 235.046824 
L 317.160984 244.710041 
L 317.811594 246.596503 
L 319.112815 235.206629 
L 319.763425 234.86437 
L 320.414035 240.76581 
L 321.064646 236.149744 
L 321.715256 237.546909 
L 322.365866 238.145494 
L 323.016477 240.418085 
L 323.667087 236.352351 
L 324.317697 238.616703 
L 324.968308 242.106063 
L 325.618918 235.218073 
L 326.269528 245.171213 
L 326.920138 241.784834 
L 327.570749 243.608572 
L 328.221359 244.255696 
L 328.871969 239.410676 
L 329.52258 235.754041 
L 330.17319 238.656352 
L 330.8238 233.572543 
L 331.474411 234.299049 
L 332.125021 243.808109 
L 332.775631 247.765777 
L 333.426242 233.000226 
L 334.076852 245.46156 
L 334.727462 239.105612 
L 335.378073 241.674766 
L 336.028683 233.772969 
L 336.679293 241.205105 
L 337.329903 238.8244 
L 337.980514 237.071628 
L 338.631124 241.669578 
L 339.281734 230.806068 
L 340.582955 244.080019 
L 341.233565 233.121469 
L 341.884176 235.965025 
L 342.534786 242.231582 
L 343.185396 242.106063 
L 343.836007 239.482862 
L 344.486617 242.558515 
L 345.137227 234.144353 
L 345.787837 241.669578 
L 346.438448 239.482862 
L 347.089058 238.370558 
L 347.739668 237.84646 
L 348.390279 232.383172 
L 349.040889 244.989282 
L 349.691499 240.332363 
L 350.34211 237.691553 
L 350.99272 242.295208 
L 351.64333 242.727922 
L 352.293941 240.9094 
L 352.944551 233.628259 
L 353.595161 234.86437 
L 354.245772 235.68199 
L 354.896382 237.303243 
L 355.546992 243.612736 
L 356.197602 236.899934 
L 356.848213 238.656352 
L 357.498823 242.827039 
L 358.149433 242.987504 
L 358.800044 235.964878 
L 359.450654 234.299049 
L 360.101264 240.418085 
L 360.751875 238.920729 
L 361.402485 235.206629 
L 362.053095 238.251658 
L 362.703706 249.290507 
L 363.354316 237.261303 
L 364.004926 235.964878 
L 364.655537 239.838797 
L 365.306147 250.185331 
L 365.956757 244.827295 
L 366.607367 236.130473 
L 367.257978 243.742705 
L 367.908588 235.421526 
L 368.559198 237.444195 
L 369.209809 236.634326 
L 369.860419 238.677983 
L 370.511029 233.121469 
L 371.81225 239.6408 
L 372.46286 235.046824 
L 373.113471 238.920729 
L 373.764081 244.210067 
L 374.414691 240.9094 
L 375.065302 233.498156 
L 375.715912 235.428677 
L 376.366522 241.082194 
L 377.017132 242.738046 
L 377.667743 230.814034 
L 378.318353 238.616703 
L 378.968963 236.514475 
L 379.619574 238.656352 
L 380.270184 239.066746 
L 380.920794 236.352351 
L 381.571405 234.773525 
L 382.222015 239.410676 
L 382.872625 241.674766 
L 383.523236 239.81659 
L 384.173846 242.295208 
L 384.824456 241.261452 
L 385.475066 237.071628 
L 386.125677 240.9094 
L 386.776287 241.249694 
L 387.426897 240.228481 
L 388.077508 237.071628 
L 388.728118 245.838404 
L 389.378728 241.669578 
L 390.029339 241.784834 
L 390.679949 240.011491 
L 391.98117 229.608573 
L 392.63178 241.249694 
L 393.28239 241.500284 
L 393.933001 238.920729 
L 394.583611 239.010718 
L 395.234221 230.339152 
L 395.884831 236.899934 
L 396.535442 237.071628 
L 397.186052 240.418085 
L 397.836662 236.07944 
L 398.487273 242.543626 
L 398.487273 242.543626 
" clip-path="url(#p9c620cf764)" style="fill: none; stroke-dasharray: 9.6,2.4,1.5,2.4; stroke-dashoffset: 0; stroke: #008000; stroke-width: 1.5"/>
   </g>
   <g id="line2d_20">
    <path d="M 73.832727 167.327449 
L 74.483338 91.487816 
L 75.133948 167.327449 
L 75.784558 129.407632 
L 76.435169 129.407632 
L 77.736389 205.247265 
L 78.386999 167.327449 
L 79.68822 167.327449 
L 80.33883 91.487816 
L 80.989441 205.247265 
L 81.640051 91.487816 
L 82.290661 129.407632 
L 83.591882 129.407632 
L 84.242492 167.327449 
L 84.893103 167.327449 
L 85.543713 91.487816 
L 86.194323 129.407632 
L 86.844934 129.407632 
L 87.495544 167.327449 
L 88.146154 129.407632 
L 88.796764 167.327449 
L 89.447375 167.327449 
L 90.097985 129.407632 
L 90.748595 167.327449 
L 91.399206 167.327449 
L 92.049816 129.407632 
L 92.700426 167.327449 
L 94.001647 167.327449 
L 94.652257 91.487816 
L 95.302868 167.327449 
L 95.953478 167.327449 
L 96.604088 129.407632 
L 97.254698 167.327449 
L 98.555919 167.327449 
L 99.206529 129.407632 
L 99.85714 167.327449 
L 100.50775 129.407632 
L 101.15836 167.327449 
L 101.808971 129.407632 
L 102.459581 129.407632 
L 103.110191 167.327449 
L 103.760802 129.407632 
L 104.411412 129.407632 
L 105.062022 167.327449 
L 105.712633 167.327449 
L 106.363243 129.407632 
L 107.013853 129.407632 
L 108.315074 205.247265 
L 108.965684 129.407632 
L 109.616294 167.327449 
L 110.266905 129.407632 
L 111.568125 129.407632 
L 112.218736 167.327449 
L 114.170567 167.327449 
L 115.471787 91.487816 
L 116.122398 167.327449 
L 119.375449 167.327449 
L 120.026059 129.407632 
L 121.32728 129.407632 
L 121.97789 167.327449 
L 122.628501 167.327449 
L 123.279111 91.487816 
L 124.580332 167.327449 
L 125.230942 129.407632 
L 125.881552 53.568 
L 126.532163 205.247265 
L 127.182773 167.327449 
L 127.833383 91.487816 
L 128.483993 167.327449 
L 130.435824 167.327449 
L 131.086435 129.407632 
L 131.737045 205.247265 
L 132.387655 129.407632 
L 133.038266 167.327449 
L 133.688876 167.327449 
L 134.339486 205.247265 
L 135.640707 129.407632 
L 136.291317 129.407632 
L 136.941927 91.487816 
L 138.243148 167.327449 
L 138.893758 129.407632 
L 139.544369 167.327449 
L 140.194979 167.327449 
L 140.845589 129.407632 
L 141.4962 129.407632 
L 142.14681 167.327449 
L 142.79742 167.327449 
L 143.448031 129.407632 
L 144.098641 167.327449 
L 144.749251 129.407632 
L 145.399862 167.327449 
L 147.351692 167.327449 
L 148.002303 129.407632 
L 148.652913 167.327449 
L 149.303523 167.327449 
L 149.954134 129.407632 
L 150.604744 129.407632 
L 151.255354 91.487816 
L 151.905965 129.407632 
L 152.556575 53.568 
L 153.207185 129.407632 
L 153.857796 167.327449 
L 154.508406 167.327449 
L 155.159016 129.407632 
L 155.809627 167.327449 
L 157.761457 167.327449 
L 158.412068 205.247265 
L 159.062678 167.327449 
L 159.713288 167.327449 
L 160.363899 205.247265 
L 161.014509 91.487816 
L 161.665119 167.327449 
L 162.31573 167.327449 
L 162.96634 129.407632 
L 163.61695 205.247265 
L 164.267561 91.487816 
L 164.918171 205.247265 
L 166.219392 129.407632 
L 166.870002 129.407632 
L 167.520612 167.327449 
L 172.074884 167.327449 
L 172.725495 205.247265 
L 173.376105 205.247265 
L 174.677326 129.407632 
L 175.327936 205.247265 
L 175.978546 167.327449 
L 176.629156 167.327449 
L 177.279767 129.407632 
L 177.930377 167.327449 
L 178.580987 167.327449 
L 179.231598 205.247265 
L 179.882208 167.327449 
L 180.532818 205.247265 
L 181.183429 167.327449 
L 181.834039 205.247265 
L 182.484649 205.247265 
L 183.13526 167.327449 
L 183.78587 205.247265 
L 184.43648 129.407632 
L 185.087091 167.327449 
L 188.340142 167.327449 
L 188.990752 205.247265 
L 189.641363 167.327449 
L 190.942583 167.327449 
L 191.593194 205.247265 
L 192.243804 205.247265 
L 192.894414 167.327449 
L 193.545025 167.327449 
L 194.195635 129.407632 
L 195.496856 205.247265 
L 196.147466 205.247265 
L 196.798076 129.407632 
L 197.448686 91.487816 
L 198.099297 167.327449 
L 201.352348 167.327449 
L 202.002959 205.247265 
L 203.304179 205.247265 
L 203.95479 167.327449 
L 205.25601 167.327449 
L 205.906621 129.407632 
L 206.557231 129.407632 
L 207.207841 205.247265 
L 207.858451 205.247265 
L 208.509062 167.327449 
L 211.111503 167.327449 
L 211.762113 205.247265 
L 212.412724 205.247265 
L 213.063334 167.327449 
L 216.316385 167.327449 
L 216.966996 205.247265 
L 217.617606 167.327449 
L 218.268216 205.247265 
L 218.918827 205.247265 
L 219.569437 167.327449 
L 220.870658 167.327449 
L 221.521268 205.247265 
L 222.171878 167.327449 
L 222.822489 167.327449 
L 223.473099 129.407632 
L 224.123709 205.247265 
L 225.42493 129.407632 
L 226.72615 205.247265 
L 228.027371 129.407632 
L 228.677981 129.407632 
L 229.328592 167.327449 
L 229.979202 129.407632 
L 231.280423 205.247265 
L 231.931033 167.327449 
L 232.581643 205.247265 
L 233.232254 205.247265 
L 233.882864 167.327449 
L 234.533474 205.247265 
L 235.184085 167.327449 
L 236.485305 167.327449 
L 237.135915 129.407632 
L 237.786526 167.327449 
L 239.738357 167.327449 
L 240.388967 205.247265 
L 241.039577 129.407632 
L 241.690188 167.327449 
L 242.991408 167.327449 
L 243.642019 205.247265 
L 244.292629 205.247265 
L 244.943239 167.327449 
L 245.59385 205.247265 
L 246.24446 205.247265 
L 247.54568 129.407632 
L 248.196291 167.327449 
L 251.449342 167.327449 
L 252.099953 205.247265 
L 253.401173 129.407632 
L 254.702394 129.407632 
L 256.003615 205.247265 
L 256.654225 167.327449 
L 257.304835 167.327449 
L 257.955445 129.407632 
L 258.606056 167.327449 
L 259.256666 167.327449 
L 259.907276 205.247265 
L 260.557887 205.247265 
L 261.208497 129.407632 
L 261.859107 205.247265 
L 263.160328 129.407632 
L 263.810938 205.247265 
L 264.461549 205.247265 
L 265.112159 167.327449 
L 269.666431 167.327449 
L 270.317041 205.247265 
L 270.967652 167.327449 
L 271.618262 91.487816 
L 272.268872 205.247265 
L 272.919483 205.247265 
L 273.570093 129.407632 
L 274.220703 205.247265 
L 274.871314 167.327449 
L 275.521924 167.327449 
L 276.172534 205.247265 
L 276.823144 167.327449 
L 278.124365 167.327449 
L 278.774975 205.247265 
L 279.425586 205.247265 
L 280.076196 167.327449 
L 282.028027 167.327449 
L 282.678637 205.247265 
L 283.329248 167.327449 
L 283.979858 205.247265 
L 284.630468 167.327449 
L 285.281079 167.327449 
L 285.931689 205.247265 
L 286.582299 167.327449 
L 287.232909 167.327449 
L 287.88352 205.247265 
L 288.53413 205.247265 
L 289.18474 129.407632 
L 289.835351 167.327449 
L 290.485961 167.327449 
L 291.136571 205.247265 
L 291.787182 205.247265 
L 292.437792 167.327449 
L 293.088402 167.327449 
L 293.739013 205.247265 
L 295.040233 129.407632 
L 295.690844 129.407632 
L 296.992064 205.247265 
L 297.642674 167.327449 
L 298.293285 205.247265 
L 298.943895 129.407632 
L 299.594505 167.327449 
L 302.847557 167.327449 
L 303.498167 205.247265 
L 304.148778 205.247265 
L 304.799388 129.407632 
L 306.100608 205.247265 
L 306.751219 205.247265 
L 307.401829 129.407632 
L 308.052439 205.247265 
L 308.70305 167.327449 
L 309.35366 205.247265 
L 310.00427 167.327449 
L 310.654881 167.327449 
L 311.305491 205.247265 
L 311.956101 167.327449 
L 312.606712 205.247265 
L 313.257322 167.327449 
L 313.907932 91.487816 
L 314.558543 167.327449 
L 315.209153 91.487816 
L 315.859763 167.327449 
L 316.510373 167.327449 
L 317.160984 205.247265 
L 317.811594 167.327449 
L 318.462204 205.247265 
L 319.112815 129.407632 
L 319.763425 167.327449 
L 320.414035 167.327449 
L 321.064646 205.247265 
L 322.365866 129.407632 
L 323.016477 205.247265 
L 323.667087 167.327449 
L 324.317697 167.327449 
L 324.968308 205.247265 
L 325.618918 167.327449 
L 326.269528 205.247265 
L 326.920138 205.247265 
L 327.570749 129.407632 
L 328.221359 205.247265 
L 328.871969 167.327449 
L 330.8238 167.327449 
L 331.474411 205.247265 
L 332.775631 205.247265 
L 333.426242 129.407632 
L 334.076852 205.247265 
L 334.727462 167.327449 
L 337.980514 167.327449 
L 338.631124 205.247265 
L 339.281734 91.487816 
L 340.582955 167.327449 
L 341.233565 129.407632 
L 341.884176 167.327449 
L 347.089058 167.327449 
L 347.739668 205.247265 
L 348.390279 129.407632 
L 349.040889 205.247265 
L 349.691499 167.327449 
L 350.34211 167.327449 
L 350.99272 205.247265 
L 351.64333 205.247265 
L 352.293941 167.327449 
L 352.944551 167.327449 
L 353.595161 205.247265 
L 354.896382 129.407632 
L 355.546992 167.327449 
L 357.498823 167.327449 
L 358.149433 205.247265 
L 358.800044 129.407632 
L 359.450654 205.247265 
L 360.101264 167.327449 
L 362.053095 167.327449 
L 362.703706 205.247265 
L 363.354316 205.247265 
L 364.004926 129.407632 
L 364.655537 205.247265 
L 365.306147 205.247265 
L 365.956757 167.327449 
L 366.607367 167.327449 
L 367.257978 205.247265 
L 368.559198 129.407632 
L 369.209809 129.407632 
L 369.860419 167.327449 
L 371.81225 167.327449 
L 372.46286 129.407632 
L 373.113471 167.327449 
L 374.414691 167.327449 
L 375.065302 129.407632 
L 375.715912 129.407632 
L 377.017132 205.247265 
L 377.667743 167.327449 
L 378.318353 205.247265 
L 378.968963 205.247265 
L 379.619574 167.327449 
L 382.222015 167.327449 
L 382.872625 205.247265 
L 384.824456 205.247265 
L 385.475066 129.407632 
L 386.125677 167.327449 
L 386.776287 167.327449 
L 387.426897 205.247265 
L 388.077508 167.327449 
L 388.728118 205.247265 
L 389.378728 205.247265 
L 390.029339 167.327449 
L 390.679949 205.247265 
L 391.330559 167.327449 
L 391.98117 91.487816 
L 392.63178 167.327449 
L 394.583611 167.327449 
L 395.234221 129.407632 
L 395.884831 167.327449 
L 397.836662 167.327449 
L 398.487273 205.247265 
L 398.487273 205.247265 
" clip-path="url(#p9c620cf764)" style="fill: none; stroke: #ff0000; stroke-width: 1.5; stroke-linecap: square"/>
   </g>
   <g id="patch_3">
    <path d="M 57.6 307.584 
L 57.6 41.472 
" style="fill: none; stroke: #000000; stroke-width: 0.8; stroke-linejoin: miter; stroke-linecap: square"/>
   </g>
   <g id="patch_4">
    <path d="M 414.72 307.584 
L 414.72 41.472 
" style="fill: none; stroke: #000000; stroke-width: 0.8; stroke-linejoin: miter; stroke-linecap: square"/>
   </g>
   <g id="patch_5">
    <path d="M 57.6 307.584 
L 414.72 307.584 
" style="fill: none; stroke: #000000; stroke-width: 0.8; stroke-linejoin: miter; stroke-linecap: square"/>
   </g>
   <g id="patch_6">
    <path d="M 57.6 41.472 
L 414.72 41.472 
" style="fill: none; stroke: #000000; stroke-width: 0.8; stroke-linejoin: miter; stroke-linecap: square"/>
   </g>
   <g id="text_11">
    <!-- Population's average and best fitness -->
    <g transform="translate(123.529687 35.472)scale(0.12 -0.12)">
     <defs>
      <path id="DejaVuSans-50" d="M 1259 4147 
L 1259 2394 
L 2053 2394 
Q 2494 2394 2734 2622 
Q 2975 2850 2975 3272 
Q 2975 3691 2734 3919 
Q 2494 4147 2053 4147 
L 1259 4147 
z
M 628 4666 
L 2053 4666 
Q 2838 4666 3239 4311 
Q 3641 3956 3641 3272 
Q 3641 2581 3239 2228 
Q 2838 1875 2053 1875 
L 1259 1875 
L 1259 0 
L 628 0 
L 628 4666 
z
" transform="scale(0.015625)"/>
      <path id="DejaVuSans-70" d="M 1159 525 
L 1159 -1331 
L 581 -1331 
L 581 3500 
L 1159 3500 
L 1159 2969 
Q 1341 3281 1617 3432 
Q 1894 3584 2278 3584 
Q 2916 3584 3314 3078 
Q 3713 2572 3713 1747 
Q 3713 922 3314 415 
Q 2916 -91 2278 -91 
Q 1894 -91 1617 61 
Q 1341 213 1159 525 
z
M 3116 1747 
Q 3116 2381 2855 2742 
Q 2594 3103 2138 3103 
Q 1681 3103 1420 2742 
Q 1159 2381 1159 1747 
Q 1159 1113 1420 752 
Q 1681 391 2138 391 
Q 2594 391 2855 752 
Q 3116 1113 3116 1747 
z
" transform="scale(0.015625)"/>
      <path id="DejaVuSans-75" d="M 544 1381 
L 544 3500 
L 1119 3500 
L 1119 1403 
Q 1119 906 1312 657 
Q 1506 409 1894 409 
Q 2359 409 2629 706 
Q 2900 1003 2900 1516 
L 2900 3500 
L 3475 3500 
L 3475 0 
L 2900 0 
L 2900 538 
Q 2691 219 2414 64 
Q 2138 -91 1772 -91 
Q 1169 -91 856 284 
Q 544 659 544 1381 
z
M 1991 3584 
L 1991 3584 
z
" transform="scale(0.015625)"/>
      <path id="DejaVuSans-6c" d="M 603 4863 
L 1178 4863 
L 1178 0 
L 603 0 
L 603 4863 
z
" transform="scale(0.015625)"/>
      <path id="DejaVuSans-27" d="M 1147 4666 
L 1147 2931 
L 616 2931 
L 616 4666 
L 1147 4666 
z
" transform="scale(0.015625)"/>
      <path id="DejaVuSans-20" transform="scale(0.015625)"/>
      <path id="DejaVuSans-76" d="M 191 3500 
L 800 3500 
L 1894 563 
L 2988 3500 
L 3597 3500 
L 2284 0 
L 1503 0 
L 191 3500 
z
" transform="scale(0.015625)"/>
      <path id="DejaVuSans-67" d="M 2906 1791 
Q 2906 2416 2648 2759 
Q 2391 3103 1925 3103 
Q 1463 3103 1205 2759 
Q 947 2416 947 1791 
Q 947 1169 1205 825 
Q 1463 481 1925 481 
Q 2391 481 2648 825 
Q 2906 1169 2906 1791 
z
M 3481 434 
Q 3481 -459 3084 -895 
Q 2688 -1331 1869 -1331 
Q 1566 -1331 1297 -1286 
Q 1028 -1241 775 -1147 
L 775 -588 
Q 1028 -725 1275 -790 
Q 1522 -856 1778 -856 
Q 2344 -856 2625 -561 
Q 2906 -266 2906 331 
L 2906 616 
Q 2728 306 2450 153 
Q 2172 0 1784 0 
Q 1141 0 747 490 
Q 353 981 353 1791 
Q 353 2603 747 3093 
Q 1141 3584 1784 3584 
Q 2172 3584 2450 3431 
Q 2728 3278 2906 2969 
L 2906 3500 
L 3481 3500 
L 3481 434 
z
" transform="scale(0.015625)"/>
      <path id="DejaVuSans-64" d="M 2906 2969 
L 2906 4863 
L 3481 4863 
L 3481 0 
L 2906 0 
L 2906 525 
Q 2725 213 2448 61 
Q 2172 -91 1784 -91 
Q 1150 -91 751 415 
Q 353 922 353 1747 
Q 353 2572 751 3078 
Q 1150 3584 1784 3584 
Q 2172 3584 2448 3432 
Q 2725 3281 2906 2969 
z
M 947 1747 
Q 947 1113 1208 752 
Q 1469 391 1925 391 
Q 2381 391 2643 752 
Q 2906 1113 2906 1747 
Q 2906 2381 2643 2742 
Q 2381 3103 1925 3103 
Q 1469 3103 1208 2742 
Q 947 2381 947 1747 
z
" transform="scale(0.015625)"/>
      <path id="DejaVuSans-62" d="M 3116 1747 
Q 3116 2381 2855 2742 
Q 2594 3103 2138 3103 
Q 1681 3103 1420 2742 
Q 1159 2381 1159 1747 
Q 1159 1113 1420 752 
Q 1681 391 2138 391 
Q 2594 391 2855 752 
Q 3116 1113 3116 1747 
z
M 1159 2969 
Q 1341 3281 1617 3432 
Q 1894 3584 2278 3584 
Q 2916 3584 3314 3078 
Q 3713 2572 3713 1747 
Q 3713 922 3314 415 
Q 2916 -91 2278 -91 
Q 1894 -91 1617 61 
Q 1341 213 1159 525 
L 1159 0 
L 581 0 
L 581 4863 
L 1159 4863 
L 1159 2969 
z
" transform="scale(0.015625)"/>
      <path id="DejaVuSans-66" d="M 2375 4863 
L 2375 4384 
L 1825 4384 
Q 1516 4384 1395 4259 
Q 1275 4134 1275 3809 
L 1275 3500 
L 2222 3500 
L 2222 3053 
L 1275 3053 
L 1275 0 
L 697 0 
L 697 3053 
L 147 3053 
L 147 3500 
L 697 3500 
L 697 3744 
Q 697 4328 969 4595 
Q 1241 4863 1831 4863 
L 2375 4863 
z
" transform="scale(0.015625)"/>
     </defs>
     <use xlink:href="#DejaVuSans-50"/>
     <use xlink:href="#DejaVuSans-6f" x="56.677734"/>
     <use xlink:href="#DejaVuSans-70" x="117.859375"/>
     <use xlink:href="#DejaVuSans-75" x="181.335938"/>
     <use xlink:href="#DejaVuSans-6c" x="244.714844"/>
     <use xlink:href="#DejaVuSans-61" x="272.498047"/>
     <use xlink:href="#DejaVuSans-74" x="333.777344"/>
     <use xlink:href="#DejaVuSans-69" x="372.986328"/>
     <use xlink:href="#DejaVuSans-6f" x="400.769531"/>
     <use xlink:href="#DejaVuSans-6e" x="461.951172"/>
     <use xlink:href="#DejaVuSans-27" x="525.330078"/>
     <use xlink:href="#DejaVuSans-73" x="552.820312"/>
     <use xlink:href="#DejaVuSans-20" x="604.919922"/>
     <use xlink:href="#DejaVuSans-61" x="636.707031"/>
     <use xlink:href="#DejaVuSans-76" x="697.986328"/>
     <use xlink:href="#DejaVuSans-65" x="757.166016"/>
     <use xlink:href="#DejaVuSans-72" x="818.689453"/>
     <use xlink:href="#DejaVuSans-61" x="859.802734"/>
     <use xlink:href="#DejaVuSans-67" x="921.082031"/>
     <use xlink:href="#DejaVuSans-65" x="984.558594"/>
     <use xlink:href="#DejaVuSans-20" x="1046.082031"/>
     <use xlink:href="#DejaVuSans-61" x="1077.869141"/>
     <use xlink:href="#DejaVuSans-6e" x="1139.148438"/>
     <use xlink:href="#DejaVuSans-64" x="1202.527344"/>
     <use xlink:href="#DejaVuSans-20" x="1266.003906"/>
     <use xlink:href="#DejaVuSans-62" x="1297.791016"/>
     <use xlink:href="#DejaVuSans-65" x="1361.267578"/>
     <use xlink:href="#DejaVuSans-73" x="1422.791016"/>
     <use xlink:href="#DejaVuSans-74" x="1474.890625"/>
     <use xlink:href="#DejaVuSans-20" x="1514.099609"/>
     <use xlink:href="#DejaVuSans-66" x="1545.886719"/>
     <use xlink:href="#DejaVuSans-69" x="1581.091797"/>
     <use xlink:href="#DejaVuSans-74" x="1608.875"/>
     <use xlink:href="#DejaVuSans-6e" x="1648.083984"/>
     <use xlink:href="#DejaVuSans-65" x="1711.462891"/>
     <use xlink:href="#DejaVuSans-73" x="1772.986328"/>
     <use xlink:href="#DejaVuSans-73" x="1825.085938"/>
    </g>
   </g>
   <g id="legend_1">
    <g id="patch_7">
     <path d="M 199.689687 108.1845 
L 272.630313 108.1845 
Q 274.630313 108.1845 274.630313 106.1845 
L 274.630313 48.472 
Q 274.630313 46.472 272.630313 46.472 
L 199.689687 46.472 
Q 197.689687 46.472 197.689687 48.472 
L 197.689687 106.1845 
Q 197.689687 108.1845 199.689687 108.1845 
z
" style="fill: #ffffff; opacity: 0.8; stroke: #cccccc; stroke-linejoin: miter"/>
    </g>
    <g id="line2d_21">
     <path d="M 201.689687 54.570438 
L 211.689687 54.570438 
L 221.689687 54.570438 
" style="fill: none; stroke: #0000ff; stroke-width: 1.5; stroke-linecap: square"/>
    </g>
    <g id="text_12">
     <!-- average -->
     <g transform="translate(229.689687 58.070438)scale(0.1 -0.1)">
      <use xlink:href="#DejaVuSans-61"/>
      <use xlink:href="#DejaVuSans-76" x="61.279297"/>
      <use xlink:href="#DejaVuSans-65" x="120.458984"/>
      <use xlink:href="#DejaVuSans-72" x="181.982422"/>
      <use xlink:href="#DejaVuSans-61" x="223.095703"/>
      <use xlink:href="#DejaVuSans-67" x="284.375"/>
      <use xlink:href="#DejaVuSans-65" x="347.851562"/>
     </g>
    </g>
    <g id="line2d_22">
     <path d="M 201.689687 69.248563 
L 211.689687 69.248563 
L 221.689687 69.248563 
" style="fill: none; stroke-dasharray: 9.6,2.4,1.5,2.4; stroke-dashoffset: 0; stroke: #008000; stroke-width: 1.5"/>
    </g>
    <g id="text_13">
     <!-- -1 sd -->
     <g transform="translate(229.689687 72.748563)scale(0.1 -0.1)">
      <defs>
       <path id="DejaVuSans-2d" d="M 313 2009 
L 1997 2009 
L 1997 1497 
L 313 1497 
L 313 2009 
z
" transform="scale(0.015625)"/>
      </defs>
      <use xlink:href="#DejaVuSans-2d"/>
      <use xlink:href="#DejaVuSans-31" x="36.083984"/>
      <use xlink:href="#DejaVuSans-20" x="99.707031"/>
      <use xlink:href="#DejaVuSans-73" x="131.494141"/>
      <use xlink:href="#DejaVuSans-64" x="183.59375"/>
     </g>
    </g>
    <g id="line2d_23">
     <path d="M 201.689687 83.926688 
L 211.689687 83.926688 
L 221.689687 83.926688 
" style="fill: none; stroke-dasharray: 9.6,2.4,1.5,2.4; stroke-dashoffset: 0; stroke: #008000; stroke-width: 1.5"/>
    </g>
    <g id="text_14">
     <!-- +1 sd -->
     <g transform="translate(229.689687 87.426688)scale(0.1 -0.1)">
      <defs>
       <path id="DejaVuSans-2b" d="M 2944 4013 
L 2944 2272 
L 4684 2272 
L 4684 1741 
L 2944 1741 
L 2944 0 
L 2419 0 
L 2419 1741 
L 678 1741 
L 678 2272 
L 2419 2272 
L 2419 4013 
L 2944 4013 
z
" transform="scale(0.015625)"/>
      </defs>
      <use xlink:href="#DejaVuSans-2b"/>
      <use xlink:href="#DejaVuSans-31" x="83.789062"/>
      <use xlink:href="#DejaVuSans-20" x="147.412109"/>
      <use xlink:href="#DejaVuSans-73" x="179.199219"/>
      <use xlink:href="#DejaVuSans-64" x="231.298828"/>
     </g>
    </g>
    <g id="line2d_24">
     <path d="M 201.689687 98.604813 
L 211.689687 98.604813 
L 221.689687 98.604813 
" style="fill: none; stroke: #ff0000; stroke-width: 1.5; stroke-linecap: square"/>
    </g>
    <g id="text_15">
     <!-- best -->
     <g transform="translate(229.689687 102.104813)scale(0.1 -0.1)">
      <use xlink:href="#DejaVuSans-62"/>
      <use xlink:href="#DejaVuSans-65" x="63.476562"/>
      <use xlink:href="#DejaVuSans-73" x="125"/>
      <use xlink:href="#DejaVuSans-74" x="177.099609"/>
     </g>
    </g>
   </g>
  </g>
 </g>
 <defs>
  <clipPath id="p9c620cf764">
   <rect x="57.6" y="41.472" width="357.12" height="266.112"/>
  </clipPath>
 </defs>
</svg>
