<?xml version="1.0" encoding="utf-8" standalone="no"?>
<!DOCTYPE svg PUBLIC "-//W3C//DTD SVG 1.1//EN"
  "http://www.w3.org/Graphics/SVG/1.1/DTD/svg11.dtd">
<svg xmlns:xlink="http://www.w3.org/1999/xlink" width="460.8pt" height="345.6pt" viewBox="0 0 460.8 345.6" xmlns="http://www.w3.org/2000/svg" version="1.1">
 <metadata>
  <rdf:RDF xmlns:dc="http://purl.org/dc/elements/1.1/" xmlns:cc="http://creativecommons.org/ns#" xmlns:rdf="http://www.w3.org/1999/02/22-rdf-syntax-ns#">
   <cc:Work>
    <dc:type rdf:resource="http://purl.org/dc/dcmitype/StillImage"/>
    <dc:date>2022-12-08T22:15:23.007821</dc:date>
    <dc:format>image/svg+xml</dc:format>
    <dc:creator>
     <cc:Agent>
      <dc:title>Matplotlib v3.5.3, https://matplotlib.org/</dc:title>
     </cc:Agent>
    </dc:creator>
   </cc:Work>
  </rdf:RDF>
 </metadata>
 <defs>
  <style type="text/css">*{stroke-linejoin: round; stroke-linecap: butt}</style>
 </defs>
 <g id="figure_1">
  <g id="patch_1">
   <path d="M 0 345.6 
L 460.8 345.6 
L 460.8 0 
L 0 0 
z
" style="fill: #ffffff"/>
  </g>
  <g id="axes_1">
   <g id="patch_2">
    <path d="M 57.6 307.584 
L 414.72 307.584 
L 414.72 41.472 
L 57.6 41.472 
z
" style="fill: #ffffff"/>
   </g>
   <g id="matplotlib.axis_1">
    <g id="xtick_1">
     <g id="line2d_1">
      <path d="M 73.832727 307.584 
L 73.832727 41.472 
" clip-path="url(#p193c078172)" style="fill: none; stroke: #b0b0b0; stroke-width: 0.8; stroke-linecap: square"/>
     </g>
     <g id="line2d_2">
      <defs>
       <path id="m48e13913a3" d="M 0 0 
L 0 3.5 
" style="stroke: #000000; stroke-width: 0.8"/>
      </defs>
      <g>
       <use xlink:href="#m48e13913a3" x="73.832727" y="307.584" style="stroke: #000000; stroke-width: 0.8"/>
      </g>
     </g>
     <g id="text_1">
      <!-- 0 -->
      <g transform="translate(70.651477 322.182437)scale(0.1 -0.1)">
       <defs>
        <path id="DejaVuSans-30" d="M 2034 4250 
Q 1547 4250 1301 3770 
Q 1056 3291 1056 2328 
Q 1056 1369 1301 889 
Q 1547 409 2034 409 
Q 2525 409 2770 889 
Q 3016 1369 3016 2328 
Q 3016 3291 2770 3770 
Q 2525 4250 2034 4250 
z
M 2034 4750 
Q 2819 4750 3233 4129 
Q 3647 3509 3647 2328 
Q 3647 1150 3233 529 
Q 2819 -91 2034 -91 
Q 1250 -91 836 529 
Q 422 1150 422 2328 
Q 422 3509 836 4129 
Q 1250 4750 2034 4750 
z
" transform="scale(0.015625)"/>
       </defs>
       <use xlink:href="#DejaVuSans-30"/>
      </g>
     </g>
    </g>
    <g id="xtick_2">
     <g id="line2d_3">
      <path d="M 138.893758 307.584 
L 138.893758 41.472 
" clip-path="url(#p193c078172)" style="fill: none; stroke: #b0b0b0; stroke-width: 0.8; stroke-linecap: square"/>
     </g>
     <g id="line2d_4">
      <g>
       <use xlink:href="#m48e13913a3" x="138.893758" y="307.584" style="stroke: #000000; stroke-width: 0.8"/>
      </g>
     </g>
     <g id="text_2">
      <!-- 100 -->
      <g transform="translate(129.350008 322.182437)scale(0.1 -0.1)">
       <defs>
        <path id="DejaVuSans-31" d="M 794 531 
L 1825 531 
L 1825 4091 
L 703 3866 
L 703 4441 
L 1819 4666 
L 2450 4666 
L 2450 531 
L 3481 531 
L 3481 0 
L 794 0 
L 794 531 
z
" transform="scale(0.015625)"/>
       </defs>
       <use xlink:href="#DejaVuSans-31"/>
       <use xlink:href="#DejaVuSans-30" x="63.623047"/>
       <use xlink:href="#DejaVuSans-30" x="127.246094"/>
      </g>
     </g>
    </g>
    <g id="xtick_3">
     <g id="line2d_5">
      <path d="M 203.95479 307.584 
L 203.95479 41.472 
" clip-path="url(#p193c078172)" style="fill: none; stroke: #b0b0b0; stroke-width: 0.8; stroke-linecap: square"/>
     </g>
     <g id="line2d_6">
      <g>
       <use xlink:href="#m48e13913a3" x="203.95479" y="307.584" style="stroke: #000000; stroke-width: 0.8"/>
      </g>
     </g>
     <g id="text_3">
      <!-- 200 -->
      <g transform="translate(194.41104 322.182437)scale(0.1 -0.1)">
       <defs>
        <path id="DejaVuSans-32" d="M 1228 531 
L 3431 531 
L 3431 0 
L 469 0 
L 469 531 
Q 828 903 1448 1529 
Q 2069 2156 2228 2338 
Q 2531 2678 2651 2914 
Q 2772 3150 2772 3378 
Q 2772 3750 2511 3984 
Q 2250 4219 1831 4219 
Q 1534 4219 1204 4116 
Q 875 4013 500 3803 
L 500 4441 
Q 881 4594 1212 4672 
Q 1544 4750 1819 4750 
Q 2544 4750 2975 4387 
Q 3406 4025 3406 3419 
Q 3406 3131 3298 2873 
Q 3191 2616 2906 2266 
Q 2828 2175 2409 1742 
Q 1991 1309 1228 531 
z
" transform="scale(0.015625)"/>
       </defs>
       <use xlink:href="#DejaVuSans-32"/>
       <use xlink:href="#DejaVuSans-30" x="63.623047"/>
       <use xlink:href="#DejaVuSans-30" x="127.246094"/>
      </g>
     </g>
    </g>
    <g id="xtick_4">
     <g id="line2d_7">
      <path d="M 269.015821 307.584 
L 269.015821 41.472 
" clip-path="url(#p193c078172)" style="fill: none; stroke: #b0b0b0; stroke-width: 0.8; stroke-linecap: square"/>
     </g>
     <g id="line2d_8">
      <g>
       <use xlink:href="#m48e13913a3" x="269.015821" y="307.584" style="stroke: #000000; stroke-width: 0.8"/>
      </g>
     </g>
     <g id="text_4">
      <!-- 300 -->
      <g transform="translate(259.472071 322.182437)scale(0.1 -0.1)">
       <defs>
        <path id="DejaVuSans-33" d="M 2597 2516 
Q 3050 2419 3304 2112 
Q 3559 1806 3559 1356 
Q 3559 666 3084 287 
Q 2609 -91 1734 -91 
Q 1441 -91 1130 -33 
Q 819 25 488 141 
L 488 750 
Q 750 597 1062 519 
Q 1375 441 1716 441 
Q 2309 441 2620 675 
Q 2931 909 2931 1356 
Q 2931 1769 2642 2001 
Q 2353 2234 1838 2234 
L 1294 2234 
L 1294 2753 
L 1863 2753 
Q 2328 2753 2575 2939 
Q 2822 3125 2822 3475 
Q 2822 3834 2567 4026 
Q 2313 4219 1838 4219 
Q 1578 4219 1281 4162 
Q 984 4106 628 3988 
L 628 4550 
Q 988 4650 1302 4700 
Q 1616 4750 1894 4750 
Q 2613 4750 3031 4423 
Q 3450 4097 3450 3541 
Q 3450 3153 3228 2886 
Q 3006 2619 2597 2516 
z
" transform="scale(0.015625)"/>
       </defs>
       <use xlink:href="#DejaVuSans-33"/>
       <use xlink:href="#DejaVuSans-30" x="63.623047"/>
       <use xlink:href="#DejaVuSans-30" x="127.246094"/>
      </g>
     </g>
    </g>
    <g id="xtick_5">
     <g id="line2d_9">
      <path d="M 334.076852 307.584 
L 334.076852 41.472 
" clip-path="url(#p193c078172)" style="fill: none; stroke: #b0b0b0; stroke-width: 0.8; stroke-linecap: square"/>
     </g>
     <g id="line2d_10">
      <g>
       <use xlink:href="#m48e13913a3" x="334.076852" y="307.584" style="stroke: #000000; stroke-width: 0.8"/>
      </g>
     </g>
     <g id="text_5">
      <!-- 400 -->
      <g transform="translate(324.533102 322.182437)scale(0.1 -0.1)">
       <defs>
        <path id="DejaVuSans-34" d="M 2419 4116 
L 825 1625 
L 2419 1625 
L 2419 4116 
z
M 2253 4666 
L 3047 4666 
L 3047 1625 
L 3713 1625 
L 3713 1100 
L 3047 1100 
L 3047 0 
L 2419 0 
L 2419 1100 
L 313 1100 
L 313 1709 
L 2253 4666 
z
" transform="scale(0.015625)"/>
       </defs>
       <use xlink:href="#DejaVuSans-34"/>
       <use xlink:href="#DejaVuSans-30" x="63.623047"/>
       <use xlink:href="#DejaVuSans-30" x="127.246094"/>
      </g>
     </g>
    </g>
    <g id="xtick_6">
     <g id="line2d_11">
      <path d="M 399.137883 307.584 
L 399.137883 41.472 
" clip-path="url(#p193c078172)" style="fill: none; stroke: #b0b0b0; stroke-width: 0.8; stroke-linecap: square"/>
     </g>
     <g id="line2d_12">
      <g>
       <use xlink:href="#m48e13913a3" x="399.137883" y="307.584" style="stroke: #000000; stroke-width: 0.8"/>
      </g>
     </g>
     <g id="text_6">
      <!-- 500 -->
      <g transform="translate(389.594133 322.182437)scale(0.1 -0.1)">
       <defs>
        <path id="DejaVuSans-35" d="M 691 4666 
L 3169 4666 
L 3169 4134 
L 1269 4134 
L 1269 2991 
Q 1406 3038 1543 3061 
Q 1681 3084 1819 3084 
Q 2600 3084 3056 2656 
Q 3513 2228 3513 1497 
Q 3513 744 3044 326 
Q 2575 -91 1722 -91 
Q 1428 -91 1123 -41 
Q 819 9 494 109 
L 494 744 
Q 775 591 1075 516 
Q 1375 441 1709 441 
Q 2250 441 2565 725 
Q 2881 1009 2881 1497 
Q 2881 1984 2565 2268 
Q 2250 2553 1709 2553 
Q 1456 2553 1204 2497 
Q 953 2441 691 2322 
L 691 4666 
z
" transform="scale(0.015625)"/>
       </defs>
       <use xlink:href="#DejaVuSans-35"/>
       <use xlink:href="#DejaVuSans-30" x="63.623047"/>
       <use xlink:href="#DejaVuSans-30" x="127.246094"/>
      </g>
     </g>
    </g>
    <g id="text_7">
     <!-- Generations -->
     <g transform="translate(205.662344 335.860562)scale(0.1 -0.1)">
      <defs>
       <path id="DejaVuSans-47" d="M 3809 666 
L 3809 1919 
L 2778 1919 
L 2778 2438 
L 4434 2438 
L 4434 434 
Q 4069 175 3628 42 
Q 3188 -91 2688 -91 
Q 1594 -91 976 548 
Q 359 1188 359 2328 
Q 359 3472 976 4111 
Q 1594 4750 2688 4750 
Q 3144 4750 3555 4637 
Q 3966 4525 4313 4306 
L 4313 3634 
Q 3963 3931 3569 4081 
Q 3175 4231 2741 4231 
Q 1884 4231 1454 3753 
Q 1025 3275 1025 2328 
Q 1025 1384 1454 906 
Q 1884 428 2741 428 
Q 3075 428 3337 486 
Q 3600 544 3809 666 
z
" transform="scale(0.015625)"/>
       <path id="DejaVuSans-65" d="M 3597 1894 
L 3597 1613 
L 953 1613 
Q 991 1019 1311 708 
Q 1631 397 2203 397 
Q 2534 397 2845 478 
Q 3156 559 3463 722 
L 3463 178 
Q 3153 47 2828 -22 
Q 2503 -91 2169 -91 
Q 1331 -91 842 396 
Q 353 884 353 1716 
Q 353 2575 817 3079 
Q 1281 3584 2069 3584 
Q 2775 3584 3186 3129 
Q 3597 2675 3597 1894 
z
M 3022 2063 
Q 3016 2534 2758 2815 
Q 2500 3097 2075 3097 
Q 1594 3097 1305 2825 
Q 1016 2553 972 2059 
L 3022 2063 
z
" transform="scale(0.015625)"/>
       <path id="DejaVuSans-6e" d="M 3513 2113 
L 3513 0 
L 2938 0 
L 2938 2094 
Q 2938 2591 2744 2837 
Q 2550 3084 2163 3084 
Q 1697 3084 1428 2787 
Q 1159 2491 1159 1978 
L 1159 0 
L 581 0 
L 581 3500 
L 1159 3500 
L 1159 2956 
Q 1366 3272 1645 3428 
Q 1925 3584 2291 3584 
Q 2894 3584 3203 3211 
Q 3513 2838 3513 2113 
z
" transform="scale(0.015625)"/>
       <path id="DejaVuSans-72" d="M 2631 2963 
Q 2534 3019 2420 3045 
Q 2306 3072 2169 3072 
Q 1681 3072 1420 2755 
Q 1159 2438 1159 1844 
L 1159 0 
L 581 0 
L 581 3500 
L 1159 3500 
L 1159 2956 
Q 1341 3275 1631 3429 
Q 1922 3584 2338 3584 
Q 2397 3584 2469 3576 
Q 2541 3569 2628 3553 
L 2631 2963 
z
" transform="scale(0.015625)"/>
       <path id="DejaVuSans-61" d="M 2194 1759 
Q 1497 1759 1228 1600 
Q 959 1441 959 1056 
Q 959 750 1161 570 
Q 1363 391 1709 391 
Q 2188 391 2477 730 
Q 2766 1069 2766 1631 
L 2766 1759 
L 2194 1759 
z
M 3341 1997 
L 3341 0 
L 2766 0 
L 2766 531 
Q 2569 213 2275 61 
Q 1981 -91 1556 -91 
Q 1019 -91 701 211 
Q 384 513 384 1019 
Q 384 1609 779 1909 
Q 1175 2209 1959 2209 
L 2766 2209 
L 2766 2266 
Q 2766 2663 2505 2880 
Q 2244 3097 1772 3097 
Q 1472 3097 1187 3025 
Q 903 2953 641 2809 
L 641 3341 
Q 956 3463 1253 3523 
Q 1550 3584 1831 3584 
Q 2591 3584 2966 3190 
Q 3341 2797 3341 1997 
z
" transform="scale(0.015625)"/>
       <path id="DejaVuSans-74" d="M 1172 4494 
L 1172 3500 
L 2356 3500 
L 2356 3053 
L 1172 3053 
L 1172 1153 
Q 1172 725 1289 603 
Q 1406 481 1766 481 
L 2356 481 
L 2356 0 
L 1766 0 
Q 1100 0 847 248 
Q 594 497 594 1153 
L 594 3053 
L 172 3053 
L 172 3500 
L 594 3500 
L 594 4494 
L 1172 4494 
z
" transform="scale(0.015625)"/>
       <path id="DejaVuSans-69" d="M 603 3500 
L 1178 3500 
L 1178 0 
L 603 0 
L 603 3500 
z
M 603 4863 
L 1178 4863 
L 1178 4134 
L 603 4134 
L 603 4863 
z
" transform="scale(0.015625)"/>
       <path id="DejaVuSans-6f" d="M 1959 3097 
Q 1497 3097 1228 2736 
Q 959 2375 959 1747 
Q 959 1119 1226 758 
Q 1494 397 1959 397 
Q 2419 397 2687 759 
Q 2956 1122 2956 1747 
Q 2956 2369 2687 2733 
Q 2419 3097 1959 3097 
z
M 1959 3584 
Q 2709 3584 3137 3096 
Q 3566 2609 3566 1747 
Q 3566 888 3137 398 
Q 2709 -91 1959 -91 
Q 1206 -91 779 398 
Q 353 888 353 1747 
Q 353 2609 779 3096 
Q 1206 3584 1959 3584 
z
" transform="scale(0.015625)"/>
       <path id="DejaVuSans-73" d="M 2834 3397 
L 2834 2853 
Q 2591 2978 2328 3040 
Q 2066 3103 1784 3103 
Q 1356 3103 1142 2972 
Q 928 2841 928 2578 
Q 928 2378 1081 2264 
Q 1234 2150 1697 2047 
L 1894 2003 
Q 2506 1872 2764 1633 
Q 3022 1394 3022 966 
Q 3022 478 2636 193 
Q 2250 -91 1575 -91 
Q 1294 -91 989 -36 
Q 684 19 347 128 
L 347 722 
Q 666 556 975 473 
Q 1284 391 1588 391 
Q 1994 391 2212 530 
Q 2431 669 2431 922 
Q 2431 1156 2273 1281 
Q 2116 1406 1581 1522 
L 1381 1569 
Q 847 1681 609 1914 
Q 372 2147 372 2553 
Q 372 3047 722 3315 
Q 1072 3584 1716 3584 
Q 2034 3584 2315 3537 
Q 2597 3491 2834 3397 
z
" transform="scale(0.015625)"/>
      </defs>
      <use xlink:href="#DejaVuSans-47"/>
      <use xlink:href="#DejaVuSans-65" x="77.490234"/>
      <use xlink:href="#DejaVuSans-6e" x="139.013672"/>
      <use xlink:href="#DejaVuSans-65" x="202.392578"/>
      <use xlink:href="#DejaVuSans-72" x="263.916016"/>
      <use xlink:href="#DejaVuSans-61" x="305.029297"/>
      <use xlink:href="#DejaVuSans-74" x="366.308594"/>
      <use xlink:href="#DejaVuSans-69" x="405.517578"/>
      <use xlink:href="#DejaVuSans-6f" x="433.300781"/>
      <use xlink:href="#DejaVuSans-6e" x="494.482422"/>
      <use xlink:href="#DejaVuSans-73" x="557.861328"/>
     </g>
    </g>
   </g>
   <g id="matplotlib.axis_2">
    <g id="ytick_1">
     <g id="line2d_13">
      <path d="M 57.6 307.584 
L 414.72 307.584 
" clip-path="url(#p193c078172)" style="fill: none; stroke: #b0b0b0; stroke-width: 0.8; stroke-linecap: square"/>
     </g>
     <g id="line2d_14">
      <defs>
       <path id="mae30e4c1cb" d="M 0 0 
L -3.5 0 
" style="stroke: #000000; stroke-width: 0.8"/>
      </defs>
      <g>
       <use xlink:href="#mae30e4c1cb" x="57.6" y="307.584" style="stroke: #000000; stroke-width: 0.8"/>
      </g>
     </g>
     <g id="text_8">
      <!-- $\mathdefault{9.22896\times10^{-1}}$ -->
      <g transform="translate(-25.9 311.383219)scale(0.1 -0.1)">
       <defs>
        <path id="DejaVuSans-39" d="M 703 97 
L 703 672 
Q 941 559 1184 500 
Q 1428 441 1663 441 
Q 2288 441 2617 861 
Q 2947 1281 2994 2138 
Q 2813 1869 2534 1725 
Q 2256 1581 1919 1581 
Q 1219 1581 811 2004 
Q 403 2428 403 3163 
Q 403 3881 828 4315 
Q 1253 4750 1959 4750 
Q 2769 4750 3195 4129 
Q 3622 3509 3622 2328 
Q 3622 1225 3098 567 
Q 2575 -91 1691 -91 
Q 1453 -91 1209 -44 
Q 966 3 703 97 
z
M 1959 2075 
Q 2384 2075 2632 2365 
Q 2881 2656 2881 3163 
Q 2881 3666 2632 3958 
Q 2384 4250 1959 4250 
Q 1534 4250 1286 3958 
Q 1038 3666 1038 3163 
Q 1038 2656 1286 2365 
Q 1534 2075 1959 2075 
z
" transform="scale(0.015625)"/>
        <path id="DejaVuSans-2e" d="M 684 794 
L 1344 794 
L 1344 0 
L 684 0 
L 684 794 
z
" transform="scale(0.015625)"/>
        <path id="DejaVuSans-38" d="M 2034 2216 
Q 1584 2216 1326 1975 
Q 1069 1734 1069 1313 
Q 1069 891 1326 650 
Q 1584 409 2034 409 
Q 2484 409 2743 651 
Q 3003 894 3003 1313 
Q 3003 1734 2745 1975 
Q 2488 2216 2034 2216 
z
M 1403 2484 
Q 997 2584 770 2862 
Q 544 3141 544 3541 
Q 544 4100 942 4425 
Q 1341 4750 2034 4750 
Q 2731 4750 3128 4425 
Q 3525 4100 3525 3541 
Q 3525 3141 3298 2862 
Q 3072 2584 2669 2484 
Q 3125 2378 3379 2068 
Q 3634 1759 3634 1313 
Q 3634 634 3220 271 
Q 2806 -91 2034 -91 
Q 1263 -91 848 271 
Q 434 634 434 1313 
Q 434 1759 690 2068 
Q 947 2378 1403 2484 
z
M 1172 3481 
Q 1172 3119 1398 2916 
Q 1625 2713 2034 2713 
Q 2441 2713 2670 2916 
Q 2900 3119 2900 3481 
Q 2900 3844 2670 4047 
Q 2441 4250 2034 4250 
Q 1625 4250 1398 4047 
Q 1172 3844 1172 3481 
z
" transform="scale(0.015625)"/>
        <path id="DejaVuSans-36" d="M 2113 2584 
Q 1688 2584 1439 2293 
Q 1191 2003 1191 1497 
Q 1191 994 1439 701 
Q 1688 409 2113 409 
Q 2538 409 2786 701 
Q 3034 994 3034 1497 
Q 3034 2003 2786 2293 
Q 2538 2584 2113 2584 
z
M 3366 4563 
L 3366 3988 
Q 3128 4100 2886 4159 
Q 2644 4219 2406 4219 
Q 1781 4219 1451 3797 
Q 1122 3375 1075 2522 
Q 1259 2794 1537 2939 
Q 1816 3084 2150 3084 
Q 2853 3084 3261 2657 
Q 3669 2231 3669 1497 
Q 3669 778 3244 343 
Q 2819 -91 2113 -91 
Q 1303 -91 875 529 
Q 447 1150 447 2328 
Q 447 3434 972 4092 
Q 1497 4750 2381 4750 
Q 2619 4750 2861 4703 
Q 3103 4656 3366 4563 
z
" transform="scale(0.015625)"/>
        <path id="DejaVuSans-d7" d="M 4488 3438 
L 3059 2003 
L 4488 575 
L 4116 197 
L 2681 1631 
L 1247 197 
L 878 575 
L 2303 2003 
L 878 3438 
L 1247 3816 
L 2681 2381 
L 4116 3816 
L 4488 3438 
z
" transform="scale(0.015625)"/>
        <path id="DejaVuSans-2212" d="M 678 2272 
L 4684 2272 
L 4684 1741 
L 678 1741 
L 678 2272 
z
" transform="scale(0.015625)"/>
       </defs>
       <use xlink:href="#DejaVuSans-39" transform="translate(0 0.684375)"/>
       <use xlink:href="#DejaVuSans-2e" transform="translate(63.623047 0.684375)"/>
       <use xlink:href="#DejaVuSans-32" transform="translate(89.910156 0.684375)"/>
       <use xlink:href="#DejaVuSans-32" transform="translate(153.533203 0.684375)"/>
       <use xlink:href="#DejaVuSans-38" transform="translate(217.15625 0.684375)"/>
       <use xlink:href="#DejaVuSans-39" transform="translate(280.779297 0.684375)"/>
       <use xlink:href="#DejaVuSans-36" transform="translate(344.402344 0.684375)"/>
       <use xlink:href="#DejaVuSans-d7" transform="translate(427.507812 0.684375)"/>
       <use xlink:href="#DejaVuSans-31" transform="translate(530.779297 0.684375)"/>
       <use xlink:href="#DejaVuSans-30" transform="translate(594.402344 0.684375)"/>
       <use xlink:href="#DejaVuSans-2212" transform="translate(658.982422 38.965625)scale(0.7)"/>
       <use xlink:href="#DejaVuSans-31" transform="translate(717.634766 38.965625)scale(0.7)"/>
      </g>
     </g>
    </g>
    <g id="ytick_2">
     <g id="line2d_15">
      <path d="M 57.6 41.472 
L 414.72 41.472 
" clip-path="url(#p193c078172)" style="fill: none; stroke: #b0b0b0; stroke-width: 0.8; stroke-linecap: square"/>
     </g>
     <g id="line2d_16">
      <g>
       <use xlink:href="#mae30e4c1cb" x="57.6" y="41.472" style="stroke: #000000; stroke-width: 0.8"/>
      </g>
     </g>
     <g id="text_9">
      <!-- $\mathdefault{1.737\times10^{0}}$ -->
      <g transform="translate(-7.1 45.271219)scale(0.1 -0.1)">
       <defs>
        <path id="DejaVuSans-37" d="M 525 4666 
L 3525 4666 
L 3525 4397 
L 1831 0 
L 1172 0 
L 2766 4134 
L 525 4134 
L 525 4666 
z
" transform="scale(0.015625)"/>
       </defs>
       <use xlink:href="#DejaVuSans-31" transform="translate(0 0.765625)"/>
       <use xlink:href="#DejaVuSans-2e" transform="translate(63.623047 0.765625)"/>
       <use xlink:href="#DejaVuSans-37" transform="translate(87.660156 0.765625)"/>
       <use xlink:href="#DejaVuSans-33" transform="translate(151.283203 0.765625)"/>
       <use xlink:href="#DejaVuSans-37" transform="translate(214.90625 0.765625)"/>
       <use xlink:href="#DejaVuSans-d7" transform="translate(298.011719 0.765625)"/>
       <use xlink:href="#DejaVuSans-31" transform="translate(401.283203 0.765625)"/>
       <use xlink:href="#DejaVuSans-30" transform="translate(464.90625 0.765625)"/>
       <use xlink:href="#DejaVuSans-30" transform="translate(529.486328 39.046875)scale(0.7)"/>
      </g>
     </g>
    </g>
    <g id="text_10">
     <!-- Fitness -->
     <g transform="translate(-31.979688 191.845187)rotate(-90)scale(0.1 -0.1)">
      <defs>
       <path id="DejaVuSans-46" d="M 628 4666 
L 3309 4666 
L 3309 4134 
L 1259 4134 
L 1259 2759 
L 3109 2759 
L 3109 2228 
L 1259 2228 
L 1259 0 
L 628 0 
L 628 4666 
z
" transform="scale(0.015625)"/>
      </defs>
      <use xlink:href="#DejaVuSans-46"/>
      <use xlink:href="#DejaVuSans-69" x="50.269531"/>
      <use xlink:href="#DejaVuSans-74" x="78.052734"/>
      <use xlink:href="#DejaVuSans-6e" x="117.261719"/>
      <use xlink:href="#DejaVuSans-65" x="180.640625"/>
      <use xlink:href="#DejaVuSans-73" x="242.164062"/>
      <use xlink:href="#DejaVuSans-73" x="294.263672"/>
     </g>
    </g>
   </g>
   <g id="line2d_17">
    <path d="M 73.832727 265.383166 
L 74.483338 268.325043 
L 75.133948 266.690667 
L 75.784558 266.036916 
L 76.435169 258.845661 
L 77.085779 261.460663 
L 77.736389 263.421914 
L 78.386999 264.729415 
L 79.03761 263.748789 
L 79.68822 264.075665 
L 80.33883 263.748789 
L 80.989441 263.095039 
L 81.640051 267.017542 
L 82.290661 257.865035 
L 83.591882 266.363791 
L 84.242492 262.441288 
L 84.893103 266.690667 
L 85.543713 265.383166 
L 86.194323 264.729415 
L 86.844934 263.748789 
L 87.495544 262.441288 
L 88.146154 260.806912 
L 88.796764 264.40254 
L 89.447375 266.363791 
L 90.097985 262.768164 
L 90.748595 264.075665 
L 91.399206 264.40254 
L 92.049816 265.05629 
L 92.700426 266.690667 
L 93.351037 263.095039 
L 94.001647 266.363791 
L 94.652257 258.518785 
L 95.302868 265.710041 
L 95.953478 257.53816 
L 96.604088 261.460663 
L 97.254698 261.460663 
L 98.555919 257.211284 
L 99.206529 259.499411 
L 99.85714 256.230659 
L 100.50775 261.787538 
L 101.15836 252.635031 
L 101.808971 258.518785 
L 102.459581 261.460663 
L 103.110191 259.826286 
L 103.760802 255.903783 
L 104.411412 263.095039 
L 105.062022 263.421914 
L 106.363243 260.806912 
L 107.013853 263.095039 
L 107.664463 260.806912 
L 108.315074 263.095039 
L 108.965684 259.499411 
L 109.616294 257.865035 
L 110.266905 266.690667 
L 110.917515 264.729415 
L 112.869346 261.787538 
L 113.519956 260.153162 
L 114.170567 259.826286 
L 114.821177 262.768164 
L 115.471787 261.133787 
L 116.122398 259.826286 
L 117.423618 252.961906 
L 118.724839 261.787538 
L 119.375449 252.308155 
L 120.026059 261.787538 
L 120.67667 257.211284 
L 121.32728 261.787538 
L 121.97789 259.499411 
L 122.628501 258.518785 
L 123.279111 252.635031 
L 123.929721 248.058777 
L 124.580332 250.673779 
L 125.230942 260.806912 
L 125.881552 257.53816 
L 126.532163 255.576908 
L 127.182773 257.53816 
L 127.833383 260.806912 
L 128.483993 256.884409 
L 129.134604 265.541651 
L 129.785214 258.518785 
L 130.435824 264.075665 
L 131.086435 263.095039 
L 131.737045 266.690667 
L 132.387655 263.748789 
L 133.038266 261.460663 
L 133.688876 262.441288 
L 134.339486 259.826286 
L 134.990097 260.806912 
L 135.640707 264.729415 
L 136.291317 260.373236 
L 136.941927 266.846013 
L 137.592538 265.875097 
L 138.243148 262.900234 
L 138.893758 263.748789 
L 139.544369 262.114413 
L 140.194979 268.464208 
L 140.845589 266.036916 
L 141.4962 267.017542 
L 142.14681 267.522713 
L 142.79742 264.40254 
L 143.448031 269.503775 
L 144.098641 261.133787 
L 144.749251 256.230659 
L 145.399862 263.748789 
L 146.050472 256.557534 
L 146.701082 264.40254 
L 147.351692 262.768164 
L 148.652913 256.230659 
L 149.303523 265.05629 
L 149.954134 259.172536 
L 150.604744 256.884409 
L 151.255354 257.865035 
L 151.905965 257.53816 
L 152.556575 259.499411 
L 153.207185 263.748789 
L 153.857796 262.114413 
L 154.508406 262.114413 
L 155.159016 262.441288 
L 155.809627 258.845661 
L 156.460237 265.875097 
L 157.110847 260.806912 
L 157.761457 263.285986 
L 158.412068 263.095039 
L 159.062678 257.865035 
L 159.713288 257.53816 
L 160.363899 263.609625 
L 161.014509 260.049597 
L 161.665119 268.140569 
L 162.31573 258.431403 
L 162.96634 262.114413 
L 163.61695 264.40254 
L 164.267561 267.671292 
L 164.918171 263.095039 
L 165.568781 268.978794 
L 166.219392 266.363791 
L 166.870002 266.036916 
L 167.520612 269.959419 
L 168.171222 264.075665 
L 168.821833 264.580541 
L 169.472443 265.227819 
L 170.123053 268.787847 
L 171.424274 264.55112 
L 172.074884 267.85289 
L 172.725495 268.513244 
L 173.376105 264.90418 
L 174.026715 268.843421 
L 174.677326 266.532182 
L 175.327936 267.85289 
L 175.978546 265.710041 
L 176.629156 266.862359 
L 177.279767 265.710041 
L 177.930377 263.560589 
L 178.580987 260.258818 
L 179.231598 266.532182 
L 179.882208 264.729415 
L 180.532818 267.192536 
L 181.183429 266.532182 
L 181.834039 270.824483 
L 182.484649 267.017542 
L 183.13526 266.846013 
L 183.78587 264.580541 
L 184.43648 266.522375 
L 185.087091 264.40254 
L 185.737701 266.690667 
L 186.388311 266.363791 
L 187.038921 266.363791 
L 187.689532 268.325043 
L 188.340142 268.325043 
L 188.990752 267.671292 
L 189.641363 264.729415 
L 190.291973 263.748789 
L 190.942583 267.671292 
L 191.593194 261.787538 
L 192.243804 262.441288 
L 192.894414 265.710041 
L 193.545025 265.383166 
L 194.195635 261.460663 
L 194.846245 263.421914 
L 195.496856 262.441288 
L 196.147466 254.596282 
L 196.798076 260.806912 
L 197.448686 260.806912 
L 198.099297 262.441288 
L 198.749907 255.195014 
L 199.400517 259.826286 
L 200.051128 258.107764 
L 200.701738 262.638708 
L 201.352348 257.784125 
L 202.002959 255.250033 
L 202.653569 261.133787 
L 203.304179 254.596282 
L 203.95479 261.133787 
L 204.6054 258.19191 
L 205.25601 259.826286 
L 205.906621 264.90418 
L 206.557231 257.784125 
L 207.207841 266.522375 
L 207.858451 266.522375 
L 208.509062 264.729415 
L 209.159672 258.93811 
L 209.810282 263.560589 
L 210.460893 260.806912 
L 211.111503 259.826286 
L 211.762113 254.315632 
L 212.412724 259.268287 
L 213.063334 260.696875 
L 213.713944 261.344153 
L 214.364555 262.768164 
L 215.015165 259.826286 
L 215.665775 258.19191 
L 216.316385 261.133787 
L 216.966996 258.19191 
L 217.617606 254.596282 
L 218.918827 262.962347 
L 219.569437 258.19191 
L 220.870658 251.000654 
L 221.521268 254.269407 
L 222.171878 258.19191 
L 223.473099 253.288781 
L 224.123709 258.107764 
L 224.77432 255.966517 
L 225.42493 259.268287 
L 226.07554 258.277756 
L 226.72615 250.020029 
L 227.376761 255.250033 
L 228.027371 257.53816 
L 228.677981 255.576908 
L 229.328592 252.961906 
L 229.979202 255.903783 
L 230.629812 253.942532 
L 231.280423 253.615656 
L 231.931033 251.000654 
L 232.581643 256.230659 
L 233.232254 256.230659 
L 233.882864 255.576908 
L 234.533474 256.557534 
L 235.184085 256.884409 
L 235.834695 256.230659 
L 236.485305 254.596282 
L 237.135915 256.884409 
L 237.786526 256.884409 
L 238.437136 258.845661 
L 239.087746 255.195014 
L 239.738357 257.53816 
L 240.388967 257.865035 
L 241.039577 248.702622 
L 242.340798 254.315632 
L 242.991408 250.673779 
L 243.642019 254.315632 
L 244.292629 254.975986 
L 244.943239 255.195014 
L 245.59385 250.987709 
L 246.24446 252.635031 
L 246.89507 248.712528 
L 247.54568 248.042268 
L 248.196291 251.654405 
L 248.846901 250.353507 
L 249.497511 255.903783 
L 250.148122 253.57682 
L 250.798732 252.282264 
L 252.099953 257.211284 
L 252.750563 256.230659 
L 253.401173 259.826286 
L 254.051784 253.655278 
L 254.702394 255.306163 
L 255.353004 254.975986 
L 256.003615 266.036916 
L 256.654225 265.551458 
L 257.304835 262.114413 
L 257.955445 264.881297 
L 258.606056 260.480037 
L 259.256666 261.133787 
L 259.907276 262.900234 
L 261.208497 262.114413 
L 261.859107 263.748789 
L 262.509718 263.421914 
L 263.160328 264.40254 
L 263.810938 266.690667 
L 264.461549 268.464208 
L 265.112159 264.256902 
L 265.762769 260.919172 
L 266.413379 263.748789 
L 267.06399 265.551458 
L 268.36521 264.075665 
L 269.015821 271.593796 
L 269.666431 271.593796 
L 270.317041 267.81693 
L 270.967652 266.846013 
L 271.618262 267.169652 
L 272.268872 265.05629 
L 272.919483 268.651918 
L 273.570093 265.710041 
L 274.220703 268.513244 
L 274.871314 266.532182 
L 276.172534 270.164129 
L 276.823144 266.532182 
L 277.473755 267.493291 
L 278.124365 266.690667 
L 278.774975 264.256902 
L 279.425586 267.998168 
L 280.076196 267.998168 
L 280.726806 267.169652 
L 281.377417 270.286295 
L 282.028027 270.286295 
L 282.678637 266.363791 
L 283.329248 263.748789 
L 283.979858 264.729415 
L 284.630468 266.363791 
L 285.281079 264.256902 
L 285.931689 261.460663 
L 286.582299 265.383166 
L 287.232909 265.541651 
L 288.53413 268.651918 
L 289.18474 264.075665 
L 289.835351 268.183067 
L 290.485961 267.344417 
L 291.136571 266.202005 
L 291.787182 266.532182 
L 292.437792 265.710041 
L 293.088402 261.787538 
L 293.739013 262.315069 
L 294.389623 266.198736 
L 295.040233 263.609625 
L 295.690844 266.198736 
L 296.341454 264.90418 
L 296.992064 264.075665 
L 297.642674 267.671292 
L 298.293285 267.017542 
L 298.943895 262.114413 
L 299.594505 264.729415 
L 300.245116 266.363791 
L 300.895726 264.729415 
L 301.546336 262.114413 
L 302.196947 260.153162 
L 302.847557 265.710041 
L 303.498167 263.748789 
L 304.148778 264.40254 
L 304.799388 258.518785 
L 305.449998 263.748789 
L 306.100608 262.114413 
L 306.751219 265.05629 
L 307.401829 261.787538 
L 308.70305 268.140569 
L 309.35366 265.05629 
L 310.00427 263.560589 
L 310.654881 263.095039 
L 311.305491 266.846013 
L 311.956101 267.671292 
L 312.606712 265.383166 
L 313.257322 265.227819 
L 313.907932 266.522375 
L 314.558543 267.493291 
L 315.209153 267.017542 
L 315.859763 265.05629 
L 316.510373 265.541651 
L 317.160984 264.40254 
L 317.811594 262.900234 
L 318.462204 267.192536 
L 319.112815 262.768164 
L 319.763425 262.23988 
L 320.414035 262.23988 
L 321.064646 265.541651 
L 321.715256 270.406041 
L 322.365866 265.710041 
L 323.016477 263.890766 
L 323.667087 266.036916 
L 324.317697 270.72968 
L 324.968308 266.363791 
L 325.618918 265.710041 
L 326.269528 265.551458 
L 326.920138 260.919172 
L 327.570749 268.843421 
L 328.221359 265.541651 
L 328.871969 263.890766 
L 329.52258 262.570057 
L 330.17319 266.363791 
L 330.8238 264.220943 
L 331.474411 264.881297 
L 332.775631 269.173598 
L 333.426242 267.671292 
L 334.076852 267.85289 
L 334.727462 261.667792 
L 335.378073 267.169652 
L 336.028683 267.493291 
L 336.679293 269.758763 
L 337.329903 266.036916 
L 337.980514 266.202005 
L 338.631124 265.710041 
L 339.281734 262.768164 
L 339.932345 266.846013 
L 340.582955 266.522375 
L 341.233565 267.017542 
L 341.884176 269.305669 
L 342.534786 266.363791 
L 343.185396 259.172536 
L 343.836007 266.036916 
L 344.486617 267.998168 
L 345.137227 265.05629 
L 345.787837 266.036916 
L 346.438448 271.593796 
L 347.089058 264.075665 
L 347.739668 262.114413 
L 348.390279 267.344417 
L 349.040889 262.570057 
L 349.691499 267.85289 
L 350.34211 265.710041 
L 350.99272 265.710041 
L 351.64333 263.095039 
L 352.293941 264.256902 
L 352.944551 263.933264 
L 353.595161 264.729415 
L 354.245772 266.690667 
L 355.546992 266.690667 
L 356.197602 267.017542 
L 356.848213 269.833952 
L 357.498823 268.651918 
L 358.149433 267.017542 
L 358.800044 270.940045 
L 359.450654 267.671292 
L 360.101264 263.230411 
L 360.751875 265.541651 
L 361.402485 266.690667 
L 362.053095 264.075665 
L 362.703706 265.710041 
L 364.004926 270.286295 
L 364.655537 269.632544 
L 365.306147 267.344417 
L 365.956757 266.363791 
L 366.607367 267.998168 
L 367.257978 267.671292 
L 367.908588 266.363791 
L 368.559198 267.671292 
L 369.209809 268.325043 
L 369.860419 260.588995 
L 370.511029 266.862359 
L 371.16164 269.305669 
L 371.81225 268.978794 
L 372.46286 264.729415 
L 373.113471 271.15466 
L 373.764081 267.344417 
L 374.414691 270.940045 
L 375.065302 270.082402 
L 375.715912 269.435124 
L 376.366522 267.344417 
L 377.017132 267.998168 
L 377.667743 267.998168 
L 378.318353 269.632544 
L 378.968963 266.198736 
L 379.619574 267.671292 
L 380.270184 269.632544 
L 380.920794 268.651918 
L 381.571405 263.421914 
L 382.222015 266.690667 
L 382.872625 265.710041 
L 383.523236 268.843421 
L 384.173846 270.706563 
L 385.475066 266.532182 
L 386.125677 271.700596 
L 386.776287 268.140569 
L 387.426897 268.787847 
L 388.077508 266.522375 
L 388.728118 264.90418 
L 389.378728 265.710041 
L 390.029339 264.729415 
L 390.679949 268.325043 
L 391.330559 266.363791 
L 391.98117 270.824483 
L 392.63178 268.651918 
L 393.28239 268.464208 
L 393.933001 263.285986 
L 394.583611 266.690667 
L 395.234221 265.710041 
L 395.884831 262.114413 
L 396.535442 267.998168 
L 397.186052 267.998168 
L 397.836662 266.363791 
L 398.487273 266.036916 
L 398.487273 266.036916 
" clip-path="url(#p193c078172)" style="fill: none; stroke: #0000ff; stroke-width: 1.5; stroke-linecap: square"/>
   </g>
   <g id="line2d_18">
    <path d="M 73.832727 288.255092 
L 74.483338 289.637209 
L 75.133948 289.090567 
L 75.784558 288.918184 
L 76.435169 285.028348 
L 77.085779 292.304942 
L 77.736389 290.447995 
L 78.386999 290.641367 
L 79.03761 286.515364 
L 79.68822 289.106712 
L 80.33883 289.175819 
L 80.989441 290.480475 
L 81.640051 290.340498 
L 82.290661 286.126043 
L 82.941272 290.528128 
L 83.591882 291.469428 
L 84.242492 291.271241 
L 84.893103 290.025073 
L 85.543713 290.904568 
L 86.194323 290.641367 
L 86.844934 292.711855 
L 87.495544 290.520234 
L 88.146154 293.890822 
L 88.796764 287.688817 
L 89.447375 288.770846 
L 90.097985 288.918184 
L 90.748595 290.35611 
L 91.399206 288.5891 
L 92.049816 288.832955 
L 92.700426 286.017814 
L 94.001647 290.158424 
L 94.652257 287.33391 
L 95.302868 295.488 
L 95.953478 291.545756 
L 97.254698 290.151299 
L 97.905309 283.296289 
L 98.555919 292.975381 
L 99.206529 286.255304 
L 99.85714 285.46727 
L 100.50775 286.961177 
L 101.15836 284.358775 
L 101.808971 286.96069 
L 102.459581 294.641319 
L 103.110191 285.851387 
L 103.760802 289.460677 
L 104.411412 287.597605 
L 105.062022 290.447995 
L 105.712633 288.174388 
L 106.363243 289.385607 
L 107.013853 291.626961 
L 107.664463 288.241075 
L 108.315074 289.688707 
L 108.965684 288.552719 
L 109.616294 286.501621 
L 110.266905 288.115339 
L 110.917515 286.617857 
L 111.568125 286.979941 
L 112.218736 287.662241 
L 112.869346 293.022517 
L 113.519956 287.060376 
L 114.170567 287.055211 
L 114.821177 289.323635 
L 115.471787 293.943662 
L 116.122398 288.95122 
L 116.773008 291.7384 
L 117.423618 287.709222 
L 118.074228 287.893592 
L 118.724839 289.775009 
L 119.375449 281.058316 
L 120.026059 291.622852 
L 120.67667 290.177104 
L 121.32728 287.796211 
L 121.97789 290.336761 
L 122.628501 288.425638 
L 123.279111 286.947592 
L 123.929721 286.003067 
L 124.580332 285.407255 
L 125.230942 287.046669 
L 125.881552 285.702594 
L 126.532163 289.033353 
L 127.182773 287.181258 
L 127.833383 291.197523 
L 128.483993 286.332223 
L 129.134604 287.998543 
L 129.785214 285.810422 
L 130.435824 293.0627 
L 131.086435 288.87263 
L 131.737045 289.090567 
L 132.387655 287.435407 
L 133.038266 289.776438 
L 133.688876 286.414864 
L 134.339486 288.95122 
L 134.990097 293.890822 
L 135.640707 290.641367 
L 136.291317 285.190239 
L 136.941927 293.506471 
L 137.592538 288.700243 
L 138.893758 287.88228 
L 139.544369 286.03668 
L 140.194979 288.696167 
L 140.845589 286.967145 
L 141.4962 286.876391 
L 142.14681 288.951176 
L 142.79742 289.026901 
L 143.448031 289.658101 
L 144.098641 290.507126 
L 144.749251 287.92239 
L 145.399862 286.515364 
L 146.050472 287.323772 
L 146.701082 286.269004 
L 147.351692 293.431781 
L 148.002303 288.552719 
L 148.652913 285.099499 
L 149.303523 285.446076 
L 149.954134 289.589503 
L 151.255354 286.126043 
L 151.905965 290.264887 
L 152.556575 288.552719 
L 153.207185 289.175819 
L 153.857796 288.981889 
L 154.508406 286.913885 
L 155.159016 290.137095 
L 155.809627 288.832791 
L 156.460237 291.329659 
L 157.110847 288.241075 
L 157.761457 288.170427 
L 158.412068 287.157587 
L 159.062678 284.167832 
L 159.713288 291.858505 
L 160.363899 285.353725 
L 161.014509 287.235262 
L 161.665119 289.918363 
L 162.31573 288.905057 
L 162.96634 288.581218 
L 163.61695 290.29593 
L 164.267561 290.021052 
L 164.918171 290.867896 
L 165.568781 290.210593 
L 166.219392 289.242724 
L 166.870002 287.964375 
L 167.520612 289.451712 
L 168.171222 290.35611 
L 168.821833 290.813263 
L 169.472443 293.8035 
L 170.123053 288.447409 
L 170.773664 290.835544 
L 171.424274 295.113458 
L 172.074884 291.185919 
L 172.725495 291.316982 
L 173.376105 291.152869 
L 174.677326 288.989075 
L 175.327936 290.718692 
L 175.978546 290.386417 
L 176.629156 287.817548 
L 177.279767 289.504674 
L 177.930377 289.04632 
L 178.580987 285.633089 
L 179.231598 289.464634 
L 179.882208 287.100677 
L 180.532818 290.101207 
L 181.183429 290.387329 
L 181.834039 287.127339 
L 182.484649 285.769473 
L 183.13526 291.008641 
L 183.78587 289.993921 
L 184.43648 288.396148 
L 185.087091 289.879945 
L 185.737701 290.025073 
L 186.388311 288.770846 
L 187.038921 286.24415 
L 187.689532 290.132792 
L 188.340142 290.132792 
L 188.990752 290.021052 
L 189.641363 286.617857 
L 190.291973 289.175819 
L 191.593194 293.022517 
L 192.243804 290.137095 
L 192.894414 288.117095 
L 193.545025 289.171062 
L 194.195635 283.397865 
L 194.846245 288.817408 
L 195.496856 288.135846 
L 196.147466 287.078868 
L 196.798076 284.924902 
L 197.448686 289.009258 
L 198.099297 286.856485 
L 198.749907 287.086172 
L 199.400517 285.016898 
L 200.701738 288.281855 
L 201.352348 287.022886 
L 202.002959 288.602523 
L 202.653569 287.436584 
L 203.304179 286.748248 
L 203.95479 289.394795 
L 204.6054 289.07081 
L 205.25601 288.95122 
L 205.906621 288.611694 
L 206.557231 289.454466 
L 207.207841 287.406487 
L 207.858451 291.127444 
L 208.509062 287.573295 
L 209.159672 287.967412 
L 209.810282 290.687399 
L 210.460893 291.892732 
L 211.111503 294.014063 
L 211.762113 288.459832 
L 212.412724 289.108692 
L 213.063334 290.605029 
L 213.713944 288.000681 
L 214.364555 287.662241 
L 215.015165 290.383441 
L 216.316385 286.611192 
L 216.966996 289.755266 
L 217.617606 288.368998 
L 218.268216 287.593215 
L 218.918827 289.853602 
L 219.569437 290.425192 
L 220.220047 290.811641 
L 220.870658 285.569162 
L 221.521268 284.58962 
L 222.171878 288.370835 
L 222.822489 286.808624 
L 223.473099 284.262691 
L 224.123709 291.80042 
L 224.77432 288.38109 
L 225.42493 289.468206 
L 226.07554 289.988505 
L 226.72615 281.541042 
L 227.376761 287.955532 
L 228.027371 290.264887 
L 228.677981 288.061139 
L 229.328592 287.400351 
L 229.979202 288.161916 
L 230.629812 290.240406 
L 231.280423 289.207554 
L 231.931033 285.258678 
L 232.581643 288.257762 
L 233.232254 287.240768 
L 233.882864 287.396497 
L 234.533474 286.621174 
L 235.184085 286.692852 
L 235.834695 286.189271 
L 236.485305 287.406157 
L 237.135915 288.093722 
L 237.786526 287.401326 
L 238.437136 289.537141 
L 239.087746 289.637854 
L 239.738357 289.270323 
L 240.388967 289.682945 
L 241.039577 288.249506 
L 241.690188 285.286494 
L 242.340798 290.005309 
L 242.991408 283.509696 
L 243.642019 284.785086 
L 244.292629 283.881094 
L 244.943239 287.416185 
L 245.59385 289.450388 
L 246.24446 285.678546 
L 246.89507 284.356922 
L 247.54568 287.293082 
L 248.196291 288.293607 
L 248.846901 284.488128 
L 249.497511 292.797271 
L 250.148122 288.086498 
L 250.798732 284.704354 
L 251.449342 285.390291 
L 252.099953 286.75871 
L 252.750563 287.240768 
L 253.401173 290.383441 
L 254.051784 285.259274 
L 254.702394 288.498398 
L 255.353004 287.066067 
L 256.003615 290.278634 
L 256.654225 291.414233 
L 257.304835 289.765819 
L 257.955445 289.602716 
L 258.606056 287.849862 
L 259.256666 289.014158 
L 259.907276 291.129887 
L 260.557887 291.271241 
L 262.509718 286.618545 
L 263.160328 287.688817 
L 263.810938 290.478563 
L 264.461549 294.217403 
L 265.112159 288.367455 
L 265.762769 286.854362 
L 266.413379 286.041107 
L 267.06399 288.830971 
L 267.7146 288.036332 
L 268.36521 288.67615 
L 269.015821 292.295608 
L 269.666431 289.530284 
L 270.317041 287.58806 
L 270.967652 295.421694 
L 271.618262 288.028673 
L 272.268872 287.444263 
L 272.919483 290.42289 
L 273.570093 288.117095 
L 274.220703 291.316982 
L 274.871314 289.464634 
L 275.521924 291.316982 
L 276.172534 289.085318 
L 277.473755 287.818224 
L 278.774975 285.070681 
L 279.425586 289.342897 
L 280.076196 289.837741 
L 280.726806 289.967248 
L 281.377417 288.57671 
L 282.028027 288.57671 
L 282.678637 289.242724 
L 283.329248 287.88228 
L 283.979858 287.573295 
L 284.630468 286.774527 
L 285.281079 287.92462 
L 285.931689 289.396547 
L 286.582299 288.255092 
L 287.232909 292.377549 
L 287.88352 291.239417 
L 288.53413 290.42289 
L 289.18474 287.791585 
L 289.835351 291.946639 
L 290.485961 288.739146 
L 291.136571 290.061722 
L 291.787182 288.989075 
L 292.437792 290.386417 
L 293.088402 287.796211 
L 293.739013 287.913247 
L 294.389623 290.374364 
L 295.040233 287.21974 
L 296.341454 289.914576 
L 296.992064 285.915237 
L 297.642674 289.537757 
L 298.293285 289.405514 
L 298.943895 287.341052 
L 299.594505 289.373295 
L 300.245116 287.291468 
L 300.895726 290.641367 
L 301.546336 290.149565 
L 302.196947 284.995681 
L 302.847557 290.386417 
L 303.498167 290.002795 
L 304.148778 290.705337 
L 304.799388 285.810422 
L 306.100608 294.068037 
L 306.751219 293.72271 
L 307.401829 294.032419 
L 308.052439 292.627026 
L 308.70305 287.336474 
L 309.35366 290.144898 
L 310.00427 289.879654 
L 310.654881 288.454745 
L 311.305491 288.710208 
L 311.956101 289.537757 
L 312.606712 287.783066 
L 313.257322 288.948583 
L 313.907932 289.801887 
L 314.558543 287.290892 
L 315.209153 292.943922 
L 315.859763 288.379247 
L 316.510373 287.998543 
L 317.160984 290.29593 
L 317.811594 287.449068 
L 318.462204 288.64134 
L 319.112815 289.323635 
L 319.763425 290.769163 
L 320.414035 287.985221 
L 321.064646 287.512693 
L 321.715256 293.27703 
L 322.365866 288.588974 
L 323.016477 291.045693 
L 323.667087 286.967145 
L 324.317697 291.08551 
L 324.968308 288.288814 
L 325.618918 289.504674 
L 326.269528 289.722753 
L 326.920138 284.682745 
L 327.570749 292.53808 
L 328.221359 291.560774 
L 328.871969 292.21295 
L 329.52258 292.252954 
L 330.17319 289.705065 
L 330.8238 290.5938 
L 331.474411 289.602716 
L 332.125021 289.531529 
L 332.775631 288.283975 
L 333.426242 288.019113 
L 334.076852 291.643972 
L 334.727462 285.886707 
L 335.378073 289.498389 
L 336.028683 288.332217 
L 336.679293 290.822657 
L 337.329903 287.964375 
L 337.980514 289.13921 
L 338.631124 288.117095 
L 339.281734 289.722988 
L 339.932345 286.139885 
L 340.582955 293.190688 
L 341.233565 286.330863 
L 341.884176 291.475427 
L 342.534786 291.469428 
L 343.185396 281.957875 
L 343.836007 290.715457 
L 344.486617 292.598653 
L 345.137227 288.379247 
L 345.787837 289.833794 
L 346.438448 295.190023 
L 347.089058 294.148188 
L 347.739668 289.376672 
L 348.390279 290.651334 
L 349.040889 292.252954 
L 350.34211 286.120777 
L 350.99272 286.637717 
L 351.64333 289.283847 
L 352.293941 289.229579 
L 352.944551 290.52291 
L 353.595161 287.573295 
L 354.245772 290.025073 
L 354.896382 289.090567 
L 355.546992 292.212069 
L 356.197602 287.924786 
L 356.848213 287.651278 
L 357.498823 290.42289 
L 358.149433 287.407328 
L 358.800044 289.646337 
L 359.450654 290.494115 
L 360.101264 289.923749 
L 360.751875 289.845012 
L 361.402485 290.025073 
L 362.053095 287.336692 
L 362.703706 285.590399 
L 364.004926 291.798064 
L 364.655537 289.187773 
L 365.306147 290.651334 
L 365.956757 287.795943 
L 366.607367 288.317087 
L 367.257978 289.537757 
L 367.908588 291.040167 
L 368.559198 291.411979 
L 369.209809 292.011661 
L 369.860419 286.456843 
L 371.16164 290.489606 
L 371.81225 289.701241 
L 372.46286 285.618765 
L 373.113471 287.356901 
L 373.764081 287.184426 
L 374.414691 289.066155 
L 375.065302 290.053831 
L 375.715912 288.444604 
L 376.366522 291.988297 
L 377.017132 289.837741 
L 377.667743 291.259195 
L 378.318353 288.63353 
L 378.968963 287.588302 
L 379.619574 293.564682 
L 380.270184 291.75164 
L 380.920794 288.897084 
L 381.571405 290.840494 
L 382.222015 289.090567 
L 382.872625 289.504674 
L 383.523236 289.100259 
L 384.173846 288.334092 
L 384.824456 289.337967 
L 385.475066 289.464634 
L 386.125677 292.327338 
L 386.776287 289.427053 
L 387.426897 287.901729 
L 388.077508 287.907044 
L 388.728118 289.053799 
L 389.378728 288.117095 
L 390.029339 289.373295 
L 390.679949 288.075992 
L 391.330559 290.158424 
L 391.98117 290.706514 
L 392.63178 288.362252 
L 393.933001 289.006624 
L 394.583611 290.025073 
L 395.234221 290.386417 
L 395.884831 288.174388 
L 396.535442 290.321618 
L 397.186052 289.342897 
L 397.836662 287.291468 
L 398.487273 288.446355 
L 398.487273 288.446355 
" clip-path="url(#p193c078172)" style="fill: none; stroke-dasharray: 9.6,2.4,1.5,2.4; stroke-dashoffset: 0; stroke: #008000; stroke-width: 1.5"/>
   </g>
   <g id="line2d_19">
    <path d="M 73.832727 242.511239 
L 74.483338 247.012877 
L 75.133948 244.290766 
L 75.784558 243.155648 
L 76.435169 232.662973 
L 77.085779 230.616384 
L 77.736389 236.395833 
L 79.03761 240.982215 
L 79.68822 239.044617 
L 80.33883 238.32176 
L 80.989441 235.709602 
L 81.640051 243.694586 
L 82.290661 229.604027 
L 82.941272 233.700698 
L 83.591882 241.258155 
L 84.242492 233.611336 
L 84.893103 243.35626 
L 85.543713 239.861764 
L 86.194323 238.817463 
L 86.844934 234.785723 
L 87.495544 234.362342 
L 88.146154 227.723002 
L 88.796764 241.116262 
L 89.447375 243.956737 
L 90.097985 236.618143 
L 90.748595 237.795219 
L 91.399206 240.21598 
L 92.049816 241.279626 
L 92.700426 247.363519 
L 93.351037 238.16022 
L 94.001647 242.569159 
L 94.652257 229.703661 
L 95.302868 235.932082 
L 95.953478 223.530563 
L 96.604088 232.034627 
L 97.254698 232.770026 
L 97.905309 235.702533 
L 98.555919 221.447188 
L 99.206529 232.743518 
L 99.85714 226.994047 
L 100.50775 236.613898 
L 101.15836 220.911286 
L 101.808971 230.076881 
L 102.459581 228.280006 
L 103.110191 233.801185 
L 103.760802 222.34689 
L 104.411412 238.592473 
L 105.062022 236.395833 
L 105.712633 236.054438 
L 106.363243 232.228218 
L 107.013853 234.563117 
L 107.664463 233.372749 
L 108.315074 236.501371 
L 108.965684 230.446103 
L 109.616294 229.228449 
L 110.266905 245.265995 
L 112.218736 237.874086 
L 112.869346 230.552559 
L 113.519956 233.245947 
L 114.170567 232.597362 
L 114.821177 236.212692 
L 115.471787 228.323913 
L 116.122398 230.701353 
L 116.773008 220.722917 
L 117.423618 218.21459 
L 118.074228 227.182727 
L 118.724839 233.800067 
L 119.375449 223.557995 
L 120.026059 231.952224 
L 120.67667 224.245465 
L 121.32728 235.778864 
L 121.97789 228.662061 
L 122.628501 228.611932 
L 123.279111 218.322469 
L 123.929721 210.114487 
L 124.580332 215.940303 
L 125.230942 234.567155 
L 125.881552 229.373726 
L 126.532163 222.120463 
L 127.182773 227.895061 
L 127.833383 230.416302 
L 128.483993 227.436595 
L 129.134604 243.084758 
L 129.785214 231.227148 
L 130.435824 235.088629 
L 131.086435 237.317448 
L 131.737045 244.290766 
L 132.387655 240.062171 
L 133.038266 233.144887 
L 133.688876 238.467713 
L 134.339486 230.701353 
L 134.990097 227.723002 
L 135.640707 238.817463 
L 136.291317 235.556233 
L 136.941927 240.185556 
L 137.592538 243.049951 
L 138.243148 237.487326 
L 138.893758 239.615299 
L 139.544369 238.192146 
L 140.194979 248.232248 
L 140.845589 245.106687 
L 141.4962 247.158693 
L 142.14681 246.094249 
L 142.79742 239.778178 
L 143.448031 249.349449 
L 144.098641 231.760449 
L 144.749251 224.538927 
L 145.399862 240.982215 
L 146.050472 225.791296 
L 146.701082 242.536076 
L 147.351692 232.104547 
L 148.002303 230.446103 
L 148.652913 227.361818 
L 149.303523 244.666505 
L 149.954134 228.755568 
L 150.604744 226.019353 
L 151.255354 229.604027 
L 151.905965 224.811432 
L 152.556575 230.446103 
L 153.207185 238.32176 
L 153.857796 235.246937 
L 154.508406 237.314941 
L 155.159016 234.745481 
L 155.809627 228.85853 
L 156.460237 240.420535 
L 157.110847 233.372749 
L 157.761457 238.401545 
L 158.412068 239.03249 
L 159.713288 223.217814 
L 160.363899 241.865524 
L 161.014509 232.863932 
L 161.665119 246.362775 
L 162.31573 227.957749 
L 162.96634 235.647608 
L 163.61695 238.50915 
L 164.267561 245.321533 
L 164.918171 235.322181 
L 165.568781 247.746994 
L 166.219392 243.484859 
L 166.870002 244.109457 
L 167.520612 250.467127 
L 168.171222 237.795219 
L 168.821833 238.347819 
L 169.472443 236.652138 
L 170.123053 249.128284 
L 170.773664 242.22882 
L 171.424274 233.988781 
L 172.074884 244.519861 
L 172.725495 245.709506 
L 173.376105 238.655492 
L 174.026715 247.547643 
L 174.677326 244.075289 
L 175.327936 244.987088 
L 175.978546 241.033665 
L 176.629156 245.90717 
L 177.930377 238.074857 
L 178.580987 234.884547 
L 179.231598 243.599729 
L 179.882208 242.358153 
L 180.532818 244.283865 
L 181.183429 242.677034 
L 181.834039 254.521627 
L 183.13526 242.683386 
L 183.78587 239.167161 
L 184.43648 244.648601 
L 185.087091 238.925135 
L 185.737701 243.35626 
L 186.388311 243.956737 
L 187.038921 246.483433 
L 188.340142 246.517294 
L 188.990752 245.321533 
L 189.641363 242.840973 
L 190.291973 238.32176 
L 190.942583 244.385015 
L 191.593194 230.552559 
L 192.243804 234.745481 
L 192.894414 243.302987 
L 193.545025 241.59527 
L 194.195635 239.523461 
L 195.496856 236.746731 
L 196.147466 222.113696 
L 196.798076 236.688922 
L 197.448686 232.604567 
L 198.099297 238.026092 
L 198.749907 223.303856 
L 199.400517 234.635675 
L 200.051128 229.510099 
L 200.701738 236.995561 
L 201.352348 228.545364 
L 202.002959 221.897542 
L 202.653569 234.83099 
L 203.304179 222.444316 
L 203.95479 232.87278 
L 204.6054 227.31301 
L 205.25601 230.701353 
L 205.906621 241.196667 
L 206.557231 226.113784 
L 207.207841 245.638262 
L 207.858451 241.917305 
L 208.509062 241.885535 
L 209.159672 229.908808 
L 209.810282 236.433778 
L 210.460893 229.721092 
L 211.111503 225.63851 
L 211.762113 220.171432 
L 212.412724 229.427882 
L 213.063334 230.788721 
L 213.713944 234.687624 
L 214.364555 237.874086 
L 215.015165 229.269131 
L 215.665775 228.012985 
L 216.316385 235.656383 
L 216.966996 226.628554 
L 217.617606 220.823566 
L 218.268216 230.283005 
L 218.918827 236.071092 
L 219.569437 225.958629 
L 220.220047 218.380923 
L 220.870658 216.432147 
L 221.521268 223.949194 
L 222.171878 228.012985 
L 223.473099 222.314871 
L 224.123709 224.415108 
L 224.77432 223.551943 
L 225.42493 229.068368 
L 226.07554 226.567007 
L 226.72615 218.499015 
L 227.376761 222.544534 
L 228.027371 224.811432 
L 228.677981 223.092677 
L 229.328592 218.523461 
L 229.979202 223.64565 
L 230.629812 217.644657 
L 231.280423 218.023759 
L 231.931033 216.742631 
L 232.581643 224.203555 
L 233.232254 225.220549 
L 233.882864 223.757319 
L 234.533474 226.493894 
L 235.184085 227.075966 
L 235.834695 226.272046 
L 236.485305 221.786407 
L 237.135915 225.675096 
L 237.786526 226.367492 
L 238.437136 228.15418 
L 239.087746 220.752174 
L 239.738357 225.805996 
L 240.388967 226.047124 
L 241.039577 209.155739 
L 241.690188 217.401583 
L 242.340798 218.625954 
L 242.991408 217.837862 
L 243.642019 223.846177 
L 244.292629 226.070878 
L 244.943239 222.973843 
L 245.59385 212.52503 
L 246.24446 219.591515 
L 246.89507 213.068134 
L 247.54568 208.791454 
L 248.196291 215.015203 
L 248.846901 216.218887 
L 249.497511 219.010295 
L 250.148122 219.067142 
L 250.798732 219.860175 
L 252.099953 227.663858 
L 252.750563 225.220549 
L 253.401173 229.269131 
L 254.051784 222.051282 
L 254.702394 222.113928 
L 255.353004 222.885904 
L 256.003615 241.795198 
L 256.654225 239.688682 
L 257.304835 234.463008 
L 257.955445 240.159877 
L 258.606056 233.110211 
L 259.256666 233.253417 
L 259.907276 234.670581 
L 260.557887 233.611336 
L 261.208497 234.463008 
L 261.859107 239.176552 
L 263.160328 241.116262 
L 263.810938 242.902771 
L 264.461549 242.711012 
L 265.112159 240.14635 
L 265.762769 234.983982 
L 266.413379 241.456472 
L 267.06399 242.271945 
L 267.7146 241.422499 
L 268.36521 239.47518 
L 269.015821 250.891983 
L 269.666431 253.657307 
L 270.317041 248.0458 
L 270.967652 238.270332 
L 271.618262 246.310631 
L 272.268872 242.668318 
L 272.919483 246.880946 
L 273.570093 243.302987 
L 274.220703 245.709506 
L 274.871314 243.599729 
L 275.521924 245.709506 
L 276.172534 251.24294 
L 276.823144 244.56114 
L 277.473755 247.168358 
L 278.124365 246.818372 
L 278.774975 243.443124 
L 279.425586 246.653439 
L 280.076196 246.158595 
L 280.726806 244.372056 
L 281.377417 251.995879 
L 282.028027 251.995879 
L 282.678637 243.484859 
L 283.329248 239.615299 
L 283.979858 241.885535 
L 284.630468 245.953056 
L 285.281079 240.589185 
L 285.931689 233.524778 
L 286.582299 242.511239 
L 287.232909 238.705752 
L 288.53413 246.880946 
L 289.18474 240.359744 
L 289.835351 244.419494 
L 290.485961 245.949689 
L 291.136571 242.342288 
L 291.787182 244.075289 
L 292.437792 241.033665 
L 293.088402 235.778864 
L 293.739013 236.716892 
L 294.389623 242.023107 
L 295.040233 239.999509 
L 295.690844 243.841871 
L 296.341454 239.893784 
L 296.992064 242.236092 
L 297.642674 245.804828 
L 298.293285 244.62957 
L 298.943895 236.887774 
L 299.594505 240.085535 
L 300.245116 245.436115 
L 300.895726 238.817463 
L 301.546336 234.079262 
L 302.196947 235.310642 
L 302.847557 241.033665 
L 303.498167 237.494784 
L 304.148778 238.099743 
L 304.799388 231.227148 
L 305.449998 237.494784 
L 306.100608 230.160789 
L 306.751219 236.389871 
L 307.401829 229.542657 
L 308.052439 236.831804 
L 308.70305 248.944664 
L 309.35366 239.967683 
L 310.00427 237.241524 
L 310.654881 237.735333 
L 311.305491 244.981818 
L 311.956101 245.804828 
L 312.606712 242.983265 
L 313.257322 241.507055 
L 313.907932 243.242862 
L 314.558543 247.69569 
L 315.209153 241.091162 
L 315.859763 241.733334 
L 316.510373 243.084758 
L 317.160984 238.50915 
L 317.811594 238.351401 
L 318.462204 245.743732 
L 319.112815 236.212692 
L 319.763425 233.710598 
L 320.414035 236.49454 
L 321.064646 243.570609 
L 321.715256 247.535052 
L 322.365866 242.831108 
L 323.016477 236.735838 
L 323.667087 245.106687 
L 324.317697 250.37385 
L 324.968308 244.438769 
L 325.618918 241.915408 
L 326.269528 241.380162 
L 326.920138 237.1556 
L 327.570749 245.148762 
L 328.221359 239.522528 
L 328.871969 235.568581 
L 329.52258 232.887161 
L 330.17319 243.022518 
L 330.8238 237.848085 
L 331.474411 240.159877 
L 332.125021 244.54358 
L 332.775631 250.063221 
L 333.426242 247.323472 
L 334.076852 244.061808 
L 334.727462 237.448876 
L 335.378073 244.840916 
L 336.679293 248.69487 
L 337.329903 244.109457 
L 337.980514 243.264799 
L 338.631124 243.302987 
L 339.281734 235.81334 
L 339.932345 247.552142 
L 340.582955 239.854061 
L 341.233565 247.70422 
L 341.884176 247.13591 
L 343.185396 236.387197 
L 343.836007 241.358376 
L 344.486617 243.397683 
L 345.137227 241.733334 
L 345.787837 242.240038 
L 346.438448 247.997568 
L 347.089058 234.003141 
L 347.739668 234.852155 
L 348.390279 244.037501 
L 349.040889 232.887161 
L 349.691499 246.449879 
L 350.34211 245.299305 
L 350.99272 244.782365 
L 351.64333 236.906231 
L 352.293941 239.284226 
L 352.944551 237.343617 
L 353.595161 241.885535 
L 354.245772 243.35626 
L 354.896382 244.290766 
L 355.546992 241.169265 
L 356.197602 246.110298 
L 356.848213 252.016626 
L 357.498823 246.880946 
L 358.149433 246.627756 
L 358.800044 252.233754 
L 360.101264 236.537074 
L 360.751875 241.238289 
L 361.402485 243.35626 
L 362.053095 240.814637 
L 362.703706 245.829682 
L 363.354316 247.16003 
L 364.004926 248.774525 
L 364.655537 250.077316 
L 365.306147 244.037501 
L 365.956757 244.93164 
L 366.607367 247.679248 
L 367.257978 245.804828 
L 367.908588 241.687416 
L 368.559198 243.930606 
L 369.209809 244.638425 
L 369.860419 234.721148 
L 370.511029 245.398312 
L 371.16164 248.121731 
L 371.81225 248.256346 
L 372.46286 243.840066 
L 373.113471 254.952419 
L 373.764081 247.504409 
L 374.414691 252.813935 
L 375.065302 250.110973 
L 375.715912 250.425645 
L 376.366522 242.700538 
L 377.017132 246.158595 
L 377.667743 244.73714 
L 378.318353 250.631558 
L 378.968963 244.809169 
L 379.619574 241.777903 
L 380.270184 247.513448 
L 380.920794 248.406752 
L 381.571405 236.003334 
L 382.222015 244.290766 
L 382.872625 241.915408 
L 383.523236 248.586583 
L 384.173846 253.079034 
L 384.824456 247.688521 
L 385.475066 243.599729 
L 386.125677 251.073855 
L 386.776287 246.854085 
L 387.426897 249.673964 
L 388.728118 240.754561 
L 389.378728 243.302987 
L 390.029339 240.085535 
L 390.679949 248.574094 
L 391.330559 242.569159 
L 391.98117 250.942452 
L 392.63178 248.941584 
L 393.28239 248.232248 
L 393.933001 237.565348 
L 394.583611 243.35626 
L 395.234221 241.033665 
L 395.884831 236.054438 
L 396.535442 245.674718 
L 397.186052 246.653439 
L 397.836662 245.436115 
L 398.487273 243.627478 
L 398.487273 243.627478 
" clip-path="url(#p193c078172)" style="fill: none; stroke-dasharray: 9.6,2.4,1.5,2.4; stroke-dashoffset: 0; stroke: #008000; stroke-width: 1.5"/>
   </g>
   <g id="line2d_20">
    <path d="M 73.832727 184.318102 
L 76.435169 184.318102 
L 77.085779 151.630577 
L 77.736389 184.318102 
L 80.989441 184.318102 
L 81.640051 217.005628 
L 82.290661 184.318102 
L 82.941272 184.318102 
L 83.591882 151.630577 
L 84.893103 151.630577 
L 85.543713 184.318102 
L 86.194323 184.318102 
L 86.844934 151.630577 
L 87.495544 151.630577 
L 88.146154 53.568 
L 88.796764 184.318102 
L 89.447375 217.005628 
L 90.097985 151.630577 
L 90.748595 151.630577 
L 91.399206 184.318102 
L 92.049816 184.318102 
L 92.700426 217.005628 
L 93.351037 151.630577 
L 95.302868 151.630577 
L 95.953478 118.943051 
L 97.254698 184.318102 
L 97.905309 184.318102 
L 98.555919 118.943051 
L 99.206529 184.318102 
L 99.85714 151.630577 
L 100.50775 184.318102 
L 101.15836 151.630577 
L 101.808971 184.318102 
L 102.459581 86.255526 
L 103.110191 184.318102 
L 103.760802 151.630577 
L 104.411412 184.318102 
L 105.712633 184.318102 
L 107.013853 118.943051 
L 107.664463 184.318102 
L 108.315074 151.630577 
L 108.965684 184.318102 
L 109.616294 151.630577 
L 110.266905 184.318102 
L 111.568125 184.318102 
L 112.218736 151.630577 
L 112.869346 151.630577 
L 113.519956 184.318102 
L 114.170567 151.630577 
L 114.821177 151.630577 
L 115.471787 118.943051 
L 116.122398 118.943051 
L 116.773008 86.255526 
L 117.423618 151.630577 
L 120.026059 151.630577 
L 120.67667 118.943051 
L 121.32728 184.318102 
L 121.97789 118.943051 
L 124.580332 118.943051 
L 125.230942 184.318102 
L 125.881552 151.630577 
L 126.532163 151.630577 
L 127.182773 184.318102 
L 127.833383 151.630577 
L 128.483993 151.630577 
L 129.134604 184.318102 
L 129.785214 184.318102 
L 130.435824 86.255526 
L 131.086435 184.318102 
L 132.387655 184.318102 
L 133.038266 151.630577 
L 133.688876 184.318102 
L 134.339486 184.318102 
L 134.990097 118.943051 
L 136.291317 184.318102 
L 136.941927 151.630577 
L 137.592538 184.318102 
L 139.544369 184.318102 
L 140.194979 217.005628 
L 140.845589 184.318102 
L 141.4962 217.005628 
L 142.14681 217.005628 
L 142.79742 184.318102 
L 143.448031 217.005628 
L 144.098641 184.318102 
L 144.749251 118.943051 
L 145.399862 184.318102 
L 146.050472 151.630577 
L 146.701082 217.005628 
L 147.351692 118.943051 
L 149.303523 217.005628 
L 149.954134 151.630577 
L 150.604744 118.943051 
L 151.255354 151.630577 
L 151.905965 151.630577 
L 152.556575 86.255526 
L 153.207185 184.318102 
L 153.857796 151.630577 
L 154.508406 184.318102 
L 155.159016 151.630577 
L 157.110847 151.630577 
L 157.761457 184.318102 
L 159.062678 184.318102 
L 159.713288 118.943051 
L 160.363899 184.318102 
L 161.665119 184.318102 
L 162.31573 118.943051 
L 162.96634 184.318102 
L 165.568781 184.318102 
L 166.219392 151.630577 
L 167.520612 217.005628 
L 168.171222 184.318102 
L 168.821833 184.318102 
L 169.472443 151.630577 
L 170.123053 217.005628 
L 170.773664 184.318102 
L 171.424274 53.568 
L 172.074884 151.630577 
L 172.725495 184.318102 
L 173.376105 151.630577 
L 174.026715 184.318102 
L 174.677326 151.630577 
L 175.327936 184.318102 
L 175.978546 151.630577 
L 176.629156 217.005628 
L 177.279767 184.318102 
L 178.580987 184.318102 
L 179.231598 217.005628 
L 179.882208 217.005628 
L 180.532818 184.318102 
L 181.183429 184.318102 
L 181.834039 217.005628 
L 182.484649 217.005628 
L 183.78587 151.630577 
L 184.43648 217.005628 
L 185.087091 184.318102 
L 186.388311 184.318102 
L 187.038921 217.005628 
L 187.689532 184.318102 
L 188.340142 217.005628 
L 188.990752 184.318102 
L 190.942583 184.318102 
L 191.593194 151.630577 
L 192.243804 151.630577 
L 192.894414 184.318102 
L 193.545025 184.318102 
L 194.195635 217.005628 
L 194.846245 184.318102 
L 195.496856 184.318102 
L 196.147466 86.255526 
L 196.798076 184.318102 
L 198.099297 184.318102 
L 198.749907 118.943051 
L 199.400517 184.318102 
L 200.051128 184.318102 
L 200.701738 151.630577 
L 201.352348 184.318102 
L 202.002959 118.943051 
L 202.653569 184.318102 
L 203.304179 184.318102 
L 203.95479 151.630577 
L 205.25601 151.630577 
L 205.906621 184.318102 
L 206.557231 151.630577 
L 207.207841 184.318102 
L 207.858451 118.943051 
L 208.509062 184.318102 
L 209.159672 118.943051 
L 210.460893 184.318102 
L 211.111503 53.568 
L 211.762113 86.255526 
L 212.412724 151.630577 
L 213.063334 151.630577 
L 213.713944 118.943051 
L 214.364555 184.318102 
L 215.015165 86.255526 
L 215.665775 118.943051 
L 216.316385 184.318102 
L 216.966996 118.943051 
L 218.268216 118.943051 
L 218.918827 151.630577 
L 223.473099 151.630577 
L 224.123709 86.255526 
L 225.42493 151.630577 
L 226.07554 151.630577 
L 226.72615 184.318102 
L 228.027371 118.943051 
L 228.677981 151.630577 
L 229.328592 118.943051 
L 229.979202 151.630577 
L 230.629812 86.255526 
L 231.280423 53.568 
L 231.931033 118.943051 
L 232.581643 151.630577 
L 235.184085 151.630577 
L 235.834695 184.318102 
L 237.135915 118.943051 
L 237.786526 184.318102 
L 239.087746 118.943051 
L 240.388967 184.318102 
L 241.039577 118.943051 
L 241.690188 151.630577 
L 242.340798 118.943051 
L 242.991408 151.630577 
L 246.24446 151.630577 
L 247.54568 86.255526 
L 248.196291 86.255526 
L 248.846901 118.943051 
L 249.497511 86.255526 
L 250.148122 151.630577 
L 250.798732 118.943051 
L 251.449342 151.630577 
L 252.099953 151.630577 
L 252.750563 118.943051 
L 253.401173 151.630577 
L 254.051784 151.630577 
L 254.702394 118.943051 
L 255.353004 151.630577 
L 256.003615 151.630577 
L 256.654225 184.318102 
L 258.606056 184.318102 
L 259.907276 118.943051 
L 260.557887 184.318102 
L 261.208497 151.630577 
L 261.859107 184.318102 
L 263.160328 184.318102 
L 264.461549 118.943051 
L 265.112159 184.318102 
L 265.762769 151.630577 
L 266.413379 184.318102 
L 267.7146 184.318102 
L 268.36521 151.630577 
L 269.015821 217.005628 
L 270.317041 217.005628 
L 270.967652 118.943051 
L 271.618262 184.318102 
L 275.521924 184.318102 
L 276.172534 217.005628 
L 276.823144 184.318102 
L 277.473755 217.005628 
L 278.774975 217.005628 
L 279.425586 184.318102 
L 280.726806 184.318102 
L 281.377417 217.005628 
L 282.028027 217.005628 
L 282.678637 184.318102 
L 283.979858 184.318102 
L 284.630468 217.005628 
L 285.281079 184.318102 
L 285.931689 118.943051 
L 286.582299 184.318102 
L 287.232909 151.630577 
L 287.88352 151.630577 
L 288.53413 184.318102 
L 289.18474 184.318102 
L 289.835351 151.630577 
L 290.485961 184.318102 
L 295.690844 184.318102 
L 296.341454 151.630577 
L 296.992064 217.005628 
L 297.642674 184.318102 
L 298.943895 184.318102 
L 299.594505 151.630577 
L 300.245116 217.005628 
L 301.546336 151.630577 
L 302.196947 184.318102 
L 304.799388 184.318102 
L 305.449998 151.630577 
L 306.100608 151.630577 
L 306.751219 86.255526 
L 307.401829 151.630577 
L 308.052439 151.630577 
L 308.70305 217.005628 
L 309.35366 184.318102 
L 311.956101 184.318102 
L 312.606712 151.630577 
L 313.257322 184.318102 
L 314.558543 184.318102 
L 315.209153 151.630577 
L 316.510373 217.005628 
L 317.160984 184.318102 
L 317.811594 184.318102 
L 318.462204 217.005628 
L 319.112815 151.630577 
L 320.414035 151.630577 
L 321.064646 217.005628 
L 321.715256 151.630577 
L 322.365866 184.318102 
L 323.016477 118.943051 
L 323.667087 217.005628 
L 324.317697 184.318102 
L 324.968308 217.005628 
L 325.618918 184.318102 
L 326.920138 184.318102 
L 327.570749 151.630577 
L 328.221359 184.318102 
L 328.871969 151.630577 
L 329.52258 151.630577 
L 330.17319 184.318102 
L 330.8238 151.630577 
L 331.474411 184.318102 
L 332.125021 184.318102 
L 332.775631 217.005628 
L 333.426242 184.318102 
L 338.631124 184.318102 
L 339.281734 151.630577 
L 339.932345 217.005628 
L 340.582955 151.630577 
L 341.233565 217.005628 
L 341.884176 184.318102 
L 343.185396 184.318102 
L 343.836007 151.630577 
L 344.486617 151.630577 
L 345.137227 184.318102 
L 345.787837 184.318102 
L 347.089058 118.943051 
L 347.739668 184.318102 
L 348.390279 184.318102 
L 349.040889 151.630577 
L 350.34211 217.005628 
L 350.99272 184.318102 
L 352.293941 184.318102 
L 352.944551 151.630577 
L 353.595161 184.318102 
L 354.245772 151.630577 
L 354.896382 151.630577 
L 355.546992 184.318102 
L 356.197602 184.318102 
L 356.848213 217.005628 
L 357.498823 184.318102 
L 358.149433 217.005628 
L 359.450654 217.005628 
L 360.101264 151.630577 
L 360.751875 184.318102 
L 361.402485 151.630577 
L 362.053095 151.630577 
L 362.703706 217.005628 
L 363.354316 217.005628 
L 364.004926 184.318102 
L 364.655537 217.005628 
L 365.306147 184.318102 
L 365.956757 217.005628 
L 366.607367 184.318102 
L 367.908588 184.318102 
L 368.559198 151.630577 
L 369.209809 184.318102 
L 369.860419 184.318102 
L 370.511029 217.005628 
L 371.16164 184.318102 
L 371.81225 217.005628 
L 373.113471 217.005628 
L 373.764081 184.318102 
L 374.414691 217.005628 
L 375.065302 184.318102 
L 377.017132 184.318102 
L 377.667743 151.630577 
L 378.968963 217.005628 
L 379.619574 151.630577 
L 380.270184 151.630577 
L 380.920794 217.005628 
L 381.571405 118.943051 
L 382.222015 184.318102 
L 382.872625 184.318102 
L 383.523236 217.005628 
L 384.173846 217.005628 
L 384.824456 184.318102 
L 385.475066 184.318102 
L 386.125677 151.630577 
L 387.426897 217.005628 
L 388.077508 184.318102 
L 391.330559 184.318102 
L 391.98117 217.005628 
L 392.63178 217.005628 
L 393.28239 184.318102 
L 394.583611 184.318102 
L 395.884831 118.943051 
L 396.535442 184.318102 
L 397.186052 217.005628 
L 397.836662 217.005628 
L 398.487273 184.318102 
L 398.487273 184.318102 
" clip-path="url(#p193c078172)" style="fill: none; stroke: #ff0000; stroke-width: 1.5; stroke-linecap: square"/>
   </g>
   <g id="patch_3">
    <path d="M 57.6 307.584 
L 57.6 41.472 
" style="fill: none; stroke: #000000; stroke-width: 0.8; stroke-linejoin: miter; stroke-linecap: square"/>
   </g>
   <g id="patch_4">
    <path d="M 414.72 307.584 
L 414.72 41.472 
" style="fill: none; stroke: #000000; stroke-width: 0.8; stroke-linejoin: miter; stroke-linecap: square"/>
   </g>
   <g id="patch_5">
    <path d="M 57.6 307.584 
L 414.72 307.584 
" style="fill: none; stroke: #000000; stroke-width: 0.8; stroke-linejoin: miter; stroke-linecap: square"/>
   </g>
   <g id="patch_6">
    <path d="M 57.6 41.472 
L 414.72 41.472 
" style="fill: none; stroke: #000000; stroke-width: 0.8; stroke-linejoin: miter; stroke-linecap: square"/>
   </g>
   <g id="text_11">
    <!-- Population's average and best fitness -->
    <g transform="translate(123.529687 35.472)scale(0.12 -0.12)">
     <defs>
      <path id="DejaVuSans-50" d="M 1259 4147 
L 1259 2394 
L 2053 2394 
Q 2494 2394 2734 2622 
Q 2975 2850 2975 3272 
Q 2975 3691 2734 3919 
Q 2494 4147 2053 4147 
L 1259 4147 
z
M 628 4666 
L 2053 4666 
Q 2838 4666 3239 4311 
Q 3641 3956 3641 3272 
Q 3641 2581 3239 2228 
Q 2838 1875 2053 1875 
L 1259 1875 
L 1259 0 
L 628 0 
L 628 4666 
z
" transform="scale(0.015625)"/>
      <path id="DejaVuSans-70" d="M 1159 525 
L 1159 -1331 
L 581 -1331 
L 581 3500 
L 1159 3500 
L 1159 2969 
Q 1341 3281 1617 3432 
Q 1894 3584 2278 3584 
Q 2916 3584 3314 3078 
Q 3713 2572 3713 1747 
Q 3713 922 3314 415 
Q 2916 -91 2278 -91 
Q 1894 -91 1617 61 
Q 1341 213 1159 525 
z
M 3116 1747 
Q 3116 2381 2855 2742 
Q 2594 3103 2138 3103 
Q 1681 3103 1420 2742 
Q 1159 2381 1159 1747 
Q 1159 1113 1420 752 
Q 1681 391 2138 391 
Q 2594 391 2855 752 
Q 3116 1113 3116 1747 
z
" transform="scale(0.015625)"/>
      <path id="DejaVuSans-75" d="M 544 1381 
L 544 3500 
L 1119 3500 
L 1119 1403 
Q 1119 906 1312 657 
Q 1506 409 1894 409 
Q 2359 409 2629 706 
Q 2900 1003 2900 1516 
L 2900 3500 
L 3475 3500 
L 3475 0 
L 2900 0 
L 2900 538 
Q 2691 219 2414 64 
Q 2138 -91 1772 -91 
Q 1169 -91 856 284 
Q 544 659 544 1381 
z
M 1991 3584 
L 1991 3584 
z
" transform="scale(0.015625)"/>
      <path id="DejaVuSans-6c" d="M 603 4863 
L 1178 4863 
L 1178 0 
L 603 0 
L 603 4863 
z
" transform="scale(0.015625)"/>
      <path id="DejaVuSans-27" d="M 1147 4666 
L 1147 2931 
L 616 2931 
L 616 4666 
L 1147 4666 
z
" transform="scale(0.015625)"/>
      <path id="DejaVuSans-20" transform="scale(0.015625)"/>
      <path id="DejaVuSans-76" d="M 191 3500 
L 800 3500 
L 1894 563 
L 2988 3500 
L 3597 3500 
L 2284 0 
L 1503 0 
L 191 3500 
z
" transform="scale(0.015625)"/>
      <path id="DejaVuSans-67" d="M 2906 1791 
Q 2906 2416 2648 2759 
Q 2391 3103 1925 3103 
Q 1463 3103 1205 2759 
Q 947 2416 947 1791 
Q 947 1169 1205 825 
Q 1463 481 1925 481 
Q 2391 481 2648 825 
Q 2906 1169 2906 1791 
z
M 3481 434 
Q 3481 -459 3084 -895 
Q 2688 -1331 1869 -1331 
Q 1566 -1331 1297 -1286 
Q 1028 -1241 775 -1147 
L 775 -588 
Q 1028 -725 1275 -790 
Q 1522 -856 1778 -856 
Q 2344 -856 2625 -561 
Q 2906 -266 2906 331 
L 2906 616 
Q 2728 306 2450 153 
Q 2172 0 1784 0 
Q 1141 0 747 490 
Q 353 981 353 1791 
Q 353 2603 747 3093 
Q 1141 3584 1784 3584 
Q 2172 3584 2450 3431 
Q 2728 3278 2906 2969 
L 2906 3500 
L 3481 3500 
L 3481 434 
z
" transform="scale(0.015625)"/>
      <path id="DejaVuSans-64" d="M 2906 2969 
L 2906 4863 
L 3481 4863 
L 3481 0 
L 2906 0 
L 2906 525 
Q 2725 213 2448 61 
Q 2172 -91 1784 -91 
Q 1150 -91 751 415 
Q 353 922 353 1747 
Q 353 2572 751 3078 
Q 1150 3584 1784 3584 
Q 2172 3584 2448 3432 
Q 2725 3281 2906 2969 
z
M 947 1747 
Q 947 1113 1208 752 
Q 1469 391 1925 391 
Q 2381 391 2643 752 
Q 2906 1113 2906 1747 
Q 2906 2381 2643 2742 
Q 2381 3103 1925 3103 
Q 1469 3103 1208 2742 
Q 947 2381 947 1747 
z
" transform="scale(0.015625)"/>
      <path id="DejaVuSans-62" d="M 3116 1747 
Q 3116 2381 2855 2742 
Q 2594 3103 2138 3103 
Q 1681 3103 1420 2742 
Q 1159 2381 1159 1747 
Q 1159 1113 1420 752 
Q 1681 391 2138 391 
Q 2594 391 2855 752 
Q 3116 1113 3116 1747 
z
M 1159 2969 
Q 1341 3281 1617 3432 
Q 1894 3584 2278 3584 
Q 2916 3584 3314 3078 
Q 3713 2572 3713 1747 
Q 3713 922 3314 415 
Q 2916 -91 2278 -91 
Q 1894 -91 1617 61 
Q 1341 213 1159 525 
L 1159 0 
L 581 0 
L 581 4863 
L 1159 4863 
L 1159 2969 
z
" transform="scale(0.015625)"/>
      <path id="DejaVuSans-66" d="M 2375 4863 
L 2375 4384 
L 1825 4384 
Q 1516 4384 1395 4259 
Q 1275 4134 1275 3809 
L 1275 3500 
L 2222 3500 
L 2222 3053 
L 1275 3053 
L 1275 0 
L 697 0 
L 697 3053 
L 147 3053 
L 147 3500 
L 697 3500 
L 697 3744 
Q 697 4328 969 4595 
Q 1241 4863 1831 4863 
L 2375 4863 
z
" transform="scale(0.015625)"/>
     </defs>
     <use xlink:href="#DejaVuSans-50"/>
     <use xlink:href="#DejaVuSans-6f" x="56.677734"/>
     <use xlink:href="#DejaVuSans-70" x="117.859375"/>
     <use xlink:href="#DejaVuSans-75" x="181.335938"/>
     <use xlink:href="#DejaVuSans-6c" x="244.714844"/>
     <use xlink:href="#DejaVuSans-61" x="272.498047"/>
     <use xlink:href="#DejaVuSans-74" x="333.777344"/>
     <use xlink:href="#DejaVuSans-69" x="372.986328"/>
     <use xlink:href="#DejaVuSans-6f" x="400.769531"/>
     <use xlink:href="#DejaVuSans-6e" x="461.951172"/>
     <use xlink:href="#DejaVuSans-27" x="525.330078"/>
     <use xlink:href="#DejaVuSans-73" x="552.820312"/>
     <use xlink:href="#DejaVuSans-20" x="604.919922"/>
     <use xlink:href="#DejaVuSans-61" x="636.707031"/>
     <use xlink:href="#DejaVuSans-76" x="697.986328"/>
     <use xlink:href="#DejaVuSans-65" x="757.166016"/>
     <use xlink:href="#DejaVuSans-72" x="818.689453"/>
     <use xlink:href="#DejaVuSans-61" x="859.802734"/>
     <use xlink:href="#DejaVuSans-67" x="921.082031"/>
     <use xlink:href="#DejaVuSans-65" x="984.558594"/>
     <use xlink:href="#DejaVuSans-20" x="1046.082031"/>
     <use xlink:href="#DejaVuSans-61" x="1077.869141"/>
     <use xlink:href="#DejaVuSans-6e" x="1139.148438"/>
     <use xlink:href="#DejaVuSans-64" x="1202.527344"/>
     <use xlink:href="#DejaVuSans-20" x="1266.003906"/>
     <use xlink:href="#DejaVuSans-62" x="1297.791016"/>
     <use xlink:href="#DejaVuSans-65" x="1361.267578"/>
     <use xlink:href="#DejaVuSans-73" x="1422.791016"/>
     <use xlink:href="#DejaVuSans-74" x="1474.890625"/>
     <use xlink:href="#DejaVuSans-20" x="1514.099609"/>
     <use xlink:href="#DejaVuSans-66" x="1545.886719"/>
     <use xlink:href="#DejaVuSans-69" x="1581.091797"/>
     <use xlink:href="#DejaVuSans-74" x="1608.875"/>
     <use xlink:href="#DejaVuSans-6e" x="1648.083984"/>
     <use xlink:href="#DejaVuSans-65" x="1711.462891"/>
     <use xlink:href="#DejaVuSans-73" x="1772.986328"/>
     <use xlink:href="#DejaVuSans-73" x="1825.085938"/>
    </g>
   </g>
   <g id="legend_1">
    <g id="patch_7">
     <path d="M 334.779375 108.1845 
L 407.72 108.1845 
Q 409.72 108.1845 409.72 106.1845 
L 409.72 48.472 
Q 409.72 46.472 407.72 46.472 
L 334.779375 46.472 
Q 332.779375 46.472 332.779375 48.472 
L 332.779375 106.1845 
Q 332.779375 108.1845 334.779375 108.1845 
z
" style="fill: #ffffff; opacity: 0.8; stroke: #cccccc; stroke-linejoin: miter"/>
    </g>
    <g id="line2d_21">
     <path d="M 336.779375 54.570438 
L 346.779375 54.570438 
L 356.779375 54.570438 
" style="fill: none; stroke: #0000ff; stroke-width: 1.5; stroke-linecap: square"/>
    </g>
    <g id="text_12">
     <!-- average -->
     <g transform="translate(364.779375 58.070438)scale(0.1 -0.1)">
      <use xlink:href="#DejaVuSans-61"/>
      <use xlink:href="#DejaVuSans-76" x="61.279297"/>
      <use xlink:href="#DejaVuSans-65" x="120.458984"/>
      <use xlink:href="#DejaVuSans-72" x="181.982422"/>
      <use xlink:href="#DejaVuSans-61" x="223.095703"/>
      <use xlink:href="#DejaVuSans-67" x="284.375"/>
      <use xlink:href="#DejaVuSans-65" x="347.851562"/>
     </g>
    </g>
    <g id="line2d_22">
     <path d="M 336.779375 69.248563 
L 346.779375 69.248563 
L 356.779375 69.248563 
" style="fill: none; stroke-dasharray: 9.6,2.4,1.5,2.4; stroke-dashoffset: 0; stroke: #008000; stroke-width: 1.5"/>
    </g>
    <g id="text_13">
     <!-- -1 sd -->
     <g transform="translate(364.779375 72.748563)scale(0.1 -0.1)">
      <defs>
       <path id="DejaVuSans-2d" d="M 313 2009 
L 1997 2009 
L 1997 1497 
L 313 1497 
L 313 2009 
z
" transform="scale(0.015625)"/>
      </defs>
      <use xlink:href="#DejaVuSans-2d"/>
      <use xlink:href="#DejaVuSans-31" x="36.083984"/>
      <use xlink:href="#DejaVuSans-20" x="99.707031"/>
      <use xlink:href="#DejaVuSans-73" x="131.494141"/>
      <use xlink:href="#DejaVuSans-64" x="183.59375"/>
     </g>
    </g>
    <g id="line2d_23">
     <path d="M 336.779375 83.926688 
L 346.779375 83.926688 
L 356.779375 83.926688 
" style="fill: none; stroke-dasharray: 9.6,2.4,1.5,2.4; stroke-dashoffset: 0; stroke: #008000; stroke-width: 1.5"/>
    </g>
    <g id="text_14">
     <!-- +1 sd -->
     <g transform="translate(364.779375 87.426688)scale(0.1 -0.1)">
      <defs>
       <path id="DejaVuSans-2b" d="M 2944 4013 
L 2944 2272 
L 4684 2272 
L 4684 1741 
L 2944 1741 
L 2944 0 
L 2419 0 
L 2419 1741 
L 678 1741 
L 678 2272 
L 2419 2272 
L 2419 4013 
L 2944 4013 
z
" transform="scale(0.015625)"/>
      </defs>
      <use xlink:href="#DejaVuSans-2b"/>
      <use xlink:href="#DejaVuSans-31" x="83.789062"/>
      <use xlink:href="#DejaVuSans-20" x="147.412109"/>
      <use xlink:href="#DejaVuSans-73" x="179.199219"/>
      <use xlink:href="#DejaVuSans-64" x="231.298828"/>
     </g>
    </g>
    <g id="line2d_24">
     <path d="M 336.779375 98.604813 
L 346.779375 98.604813 
L 356.779375 98.604813 
" style="fill: none; stroke: #ff0000; stroke-width: 1.5; stroke-linecap: square"/>
    </g>
    <g id="text_15">
     <!-- best -->
     <g transform="translate(364.779375 102.104813)scale(0.1 -0.1)">
      <use xlink:href="#DejaVuSans-62"/>
      <use xlink:href="#DejaVuSans-65" x="63.476562"/>
      <use xlink:href="#DejaVuSans-73" x="125"/>
      <use xlink:href="#DejaVuSans-74" x="177.099609"/>
     </g>
    </g>
   </g>
  </g>
 </g>
 <defs>
  <clipPath id="p193c078172">
   <rect x="57.6" y="41.472" width="357.12" height="266.112"/>
  </clipPath>
 </defs>
</svg>
