<?xml version="1.0" encoding="UTF-8" standalone="no"?>
<!DOCTYPE svg PUBLIC "-//W3C//DTD SVG 1.1//EN"
 "http://www.w3.org/Graphics/SVG/1.1/DTD/svg11.dtd">
<!-- Generated by graphviz version 3.0.0 (20220226.1711)
 -->
<!-- Pages: 1 -->
<svg width="630pt" height="143pt"
 viewBox="0.00 0.00 630.33 142.99" xmlns="http://www.w3.org/2000/svg" xmlns:xlink="http://www.w3.org/1999/xlink">
<g id="graph0" class="graph" transform="scale(1 1) rotate(0) translate(4 138.99)">
<polygon fill="white" stroke="transparent" points="-4,4 -4,-138.99 626.33,-138.99 626.33,4 -4,4"/>
<!-- d_N_wall -->
<g id="node1" class="node">
<title>d_N_wall</title>
<polygon fill="lightgray" stroke="black" points="52,-120.66 0,-120.66 0,-102.66 52,-102.66 52,-120.66"/>
<text text-anchor="middle" x="26" y="-109.46" font-family="Times,serif" font-size="9.00">d_N_wall</text>
</g>
<!-- d_S_wall -->
<g id="node2" class="node">
<title>d_S_wall</title>
<polygon fill="lightgray" stroke="black" points="120,-120.66 70,-120.66 70,-102.66 120,-102.66 120,-120.66"/>
<text text-anchor="middle" x="95" y="-109.46" font-family="Times,serif" font-size="9.00">d_S_wall</text>
</g>
<!-- down -->
<g id="node11" class="node">
<title>down</title>
<ellipse fill="lightblue" stroke="black" cx="126" cy="-26.16" rx="26.33" ry="26.33"/>
<text text-anchor="middle" x="126" y="-23.96" font-family="Times,serif" font-size="9.00">down</text>
</g>
<!-- d_S_wall&#45;&gt;down -->
<g id="edge3" class="edge">
<title>d_S_wall&#45;&gt;down</title>
<path fill="none" stroke="red" stroke-width="0.32" d="M97.97,-102.65C101.55,-93.01 107.8,-76.19 113.48,-60.88"/>
<polygon fill="red" stroke="red" stroke-width="0.32" points="116.91,-61.71 117.11,-51.12 110.34,-59.27 116.91,-61.71"/>
</g>
<!-- d_E_wall -->
<g id="node3" class="node">
<title>d_E_wall</title>
<polygon fill="lightgray" stroke="black" points="261,-120.66 211,-120.66 211,-102.66 261,-102.66 261,-120.66"/>
<text text-anchor="middle" x="236" y="-109.46" font-family="Times,serif" font-size="9.00">d_E_wall</text>
</g>
<!-- left -->
<g id="node10" class="node">
<title>left</title>
<ellipse fill="lightblue" stroke="black" cx="190" cy="-26.16" rx="19.6" ry="19.6"/>
<text text-anchor="middle" x="190" y="-23.96" font-family="Times,serif" font-size="9.00">left</text>
</g>
<!-- d_E_wall&#45;&gt;left -->
<g id="edge1" class="edge">
<title>d_E_wall&#45;&gt;left</title>
<path fill="none" stroke="red" stroke-width="0.24" d="M231.59,-102.65C225.33,-91.29 213.58,-69.96 204.16,-52.86"/>
<polygon fill="red" stroke="red" stroke-width="0.24" points="207.11,-50.96 199.22,-43.89 200.98,-54.34 207.11,-50.96"/>
</g>
<!-- 8480 -->
<g id="node13" class="node">
<title>8480</title>
<ellipse fill="white" stroke="black" cx="253" cy="-26.16" rx="25" ry="25"/>
<text text-anchor="middle" x="253" y="-23.96" font-family="Times,serif" font-size="9.00">8480</text>
</g>
<!-- d_E_wall&#45;&gt;8480 -->
<g id="edge4" class="edge">
<title>d_E_wall&#45;&gt;8480</title>
<path fill="none" stroke="red" stroke-width="0.11" d="M237.63,-102.65C239.61,-92.94 243.06,-75.96 246.2,-60.56"/>
<polygon fill="red" stroke="red" stroke-width="0.11" points="249.63,-61.25 248.2,-50.76 242.77,-59.86 249.63,-61.25"/>
</g>
<!-- d_W_wall -->
<g id="node4" class="node">
<title>d_W_wall</title>
<polygon fill="lightgray" stroke="black" points="332.5,-120.66 279.5,-120.66 279.5,-102.66 332.5,-102.66 332.5,-120.66"/>
<text text-anchor="middle" x="306" y="-109.46" font-family="Times,serif" font-size="9.00">d_W_wall</text>
</g>
<!-- tail_N -->
<g id="node5" class="node">
<title>tail_N</title>
<polygon fill="lightgray" stroke="black" points="389,-120.66 351,-120.66 351,-102.66 389,-102.66 389,-120.66"/>
<text text-anchor="middle" x="370" y="-109.46" font-family="Times,serif" font-size="9.00">tail_N</text>
</g>
<!-- tail_S -->
<g id="node6" class="node">
<title>tail_S</title>
<polygon fill="lightgray" stroke="black" points="175.5,-120.66 138.5,-120.66 138.5,-102.66 175.5,-102.66 175.5,-120.66"/>
<text text-anchor="middle" x="157" y="-109.46" font-family="Times,serif" font-size="9.00">tail_S</text>
</g>
<!-- tail_S&#45;&gt;down -->
<g id="edge2" class="edge">
<title>tail_S&#45;&gt;down</title>
<path fill="none" stroke="green" stroke-width="0.28" d="M154.03,-102.65C150.45,-93.01 144.2,-76.19 138.52,-60.88"/>
<polygon fill="green" stroke="green" stroke-width="0.28" points="141.66,-59.27 134.89,-51.12 135.09,-61.71 141.66,-59.27"/>
</g>
<!-- tail_E -->
<g id="node7" class="node">
<title>tail_E</title>
<polygon fill="lightgray" stroke="black" points="444.5,-120.66 407.5,-120.66 407.5,-102.66 444.5,-102.66 444.5,-120.66"/>
<text text-anchor="middle" x="426" y="-109.46" font-family="Times,serif" font-size="9.00">tail_E</text>
</g>
<!-- tail_W -->
<g id="node8" class="node">
<title>tail_W</title>
<polygon fill="lightgray" stroke="black" points="503,-120.66 463,-120.66 463,-102.66 503,-102.66 503,-120.66"/>
<text text-anchor="middle" x="483" y="-109.46" font-family="Times,serif" font-size="9.00">tail_W</text>
</g>
<!-- up -->
<g id="node9" class="node">
<title>up</title>
<ellipse fill="lightblue" stroke="black" cx="539" cy="-111.66" rx="18.27" ry="18.27"/>
<text text-anchor="middle" x="539" y="-109.46" font-family="Times,serif" font-size="9.00">up</text>
</g>
<!-- right -->
<g id="node12" class="node">
<title>right</title>
<ellipse fill="lightblue" stroke="black" cx="599" cy="-111.66" rx="23.17" ry="23.17"/>
<text text-anchor="middle" x="599" y="-109.46" font-family="Times,serif" font-size="9.00">right</text>
</g>
</g>
</svg>
